<?xml version="1.0" encoding="utf-8"?>
<!-- Generator: Adobe Illustrator 27.2.0, SVG Export Plug-In . SVG Version: 6.00 Build 0)  -->
<svg version="1.1" id="Laag_1" xmlns="http://www.w3.org/2000/svg" xmlns:xlink="http://www.w3.org/1999/xlink" x="0px" y="0px"
	 viewBox="0 0 75 75" style="enable-background:new 0 0 75 75;" xml:space="preserve">
<style type="text/css">
	.st0{fill:#585FFF;}
	.st1{fill:#FFFFFF;}
</style>
<g>
	<g>
		<path class="st0" d="M64,61.22H0V24.78c0-6.07,4.94-11,11-11h53c6.07,0,11,4.94,11,11v25.44C75,56.29,70.06,61.22,64,61.22z"/>
	</g>
	<path class="st1" d="M39.44,31.01c-1.21-0.72-2.62-1.14-4.13-1.14c-4.46,0-8.09,3.63-8.09,8.09c0,4.46,3.63,8.09,8.09,8.09
		c1.51,0,2.92-0.42,4.13-1.14v1.04h3.96V29.95h-3.96V31.01z M35.31,42.1c-2.28,0-4.13-1.85-4.13-4.13s1.85-4.13,4.13-4.13
		c2.28,0,4.13,1.85,4.13,4.13S37.58,42.1,35.31,42.1z"/>
	<path class="st1" d="M18.74,24.71l-7.83,0v21.25h3.96v-6.44h3.95c4.1,0,7.43-3.35,7.41-7.45C26.2,27.99,22.83,24.71,18.74,24.71z
		 M18.76,35.56h-3.89v-6.89h3.95c1.92,0,3.48,1.58,3.44,3.51C22.23,34.07,20.65,35.56,18.76,35.56z"/>
	<circle class="st1" cx="64.54" cy="43.68" r="2.42"/>
	<path class="st1" d="M58.88,29.89l-4.65,12.03l-4.79-11.97h-4.33l6.4,16.01h1.16l-0.02,0.06c-0.61,1.57-2.14,2.62-3.82,2.62h-0.47
		v3.96h0.53c3.31,0,6.33-2.07,7.52-5.15l6.78-17.55H58.88z"/>
</g>
<g>
	<g>
		<path class="st0" d="M64,61.22H0V24.78c0-6.07,4.94-11,11-11h53c6.07,0,11,4.94,11,11v25.44C75,56.29,70.06,61.22,64,61.22z"/>
	</g>
	<path class="st1" d="M39.44,31.01c-1.21-0.72-2.62-1.14-4.13-1.14c-4.46,0-8.09,3.63-8.09,8.09c0,4.46,3.63,8.09,8.09,8.09
		c1.51,0,2.92-0.42,4.13-1.14v1.04h3.96V29.95h-3.96V31.01z M35.31,42.1c-2.28,0-4.13-1.85-4.13-4.13s1.85-4.13,4.13-4.13
		c2.28,0,4.13,1.85,4.13,4.13S37.58,42.1,35.31,42.1z"/>
	<path class="st1" d="M18.74,24.71l-7.83,0v21.25h3.96v-6.44h3.95c4.1,0,7.43-3.35,7.41-7.45C26.2,27.99,22.83,24.71,18.74,24.71z
		 M18.76,35.56h-3.89v-6.89h3.95c1.92,0,3.48,1.58,3.44,3.51C22.23,34.07,20.65,35.56,18.76,35.56z"/>
	<circle class="st1" cx="64.54" cy="43.68" r="2.42"/>
	<path class="st1" d="M58.88,29.89l-4.65,12.03l-4.79-11.97h-4.33l6.4,16.01h1.16l-0.02,0.06c-0.61,1.57-2.14,2.62-3.82,2.62h-0.47
		v3.96h0.53c3.31,0,6.33-2.07,7.52-5.15l6.78-17.55H58.88z"/>
</g>
</svg>
