<svg id="Laag_1" data-name="Laag 1" xmlns="http://www.w3.org/2000/svg" viewBox="0 0 100 100"><defs><style>.cls-1{fill:#b70072;}.cls-2{fill:#fff;}.cls-3{fill:#c70066;}</style></defs><rect class="cls-1" width="100" height="100" rx="10.37"/><path class="cls-2" d="M16,24.47V75.53A4.44,4.44,0,0,0,20.44,80H51C74,80,84,67.06,84,49.94S74,20,51,20H20.44A4.44,4.44,0,0,0,16,24.47Z"/><path d="M50.94,75.89H24.41a4.26,4.26,0,0,1-4.26-4.26V28.37a4.26,4.26,0,0,1,4.26-4.26H50.94c25.17,0,28.93,16.18,28.93,25.83C79.87,66.68,69.59,75.89,50.94,75.89ZM24.41,25.53a2.84,2.84,0,0,0-2.84,2.84V71.63a2.84,2.84,0,0,0,2.84,2.84H50.94c17.74,0,27.5-8.71,27.5-24.53,0-21.24-17.23-24.41-27.5-24.41Z"/><path class="cls-3" d="M36.41,32.56V70.28H52.83c14.91,0,21.38-8.43,21.38-20.32,0-11.39-6.47-20.24-21.38-20.24H39.26a2.84,2.84,0,0,0-2.85,2.84Z"/><polygon class="cls-2" points="67.71 44.87 67.71 52.21 72.1 52.21 72.1 53.88 65.73 53.88 65.73 44.87 67.71 44.87"/><path class="cls-2" d="M61.12,44.87l3.37,9H62.43l-.68-2H58.38l-.71,2h-2l3.41-9Zm.11,5.53-1.14-3.31h0L58.9,50.4Z"/><polygon class="cls-2" points="54.33 44.87 54.33 46.53 49.57 46.53 49.57 48.47 53.94 48.47 53.94 50.01 49.57 50.01 49.57 52.21 54.43 52.21 54.43 53.88 47.59 53.88 47.59 44.87 54.33 44.87"/><path class="cls-2" d="M42.19,44.87a4.49,4.49,0,0,1,1.62.28,3.57,3.57,0,0,1,1.3.83A3.86,3.86,0,0,1,46,47.37a5.67,5.67,0,0,1,.31,2A6.18,6.18,0,0,1,46,51.14a4.09,4.09,0,0,1-.77,1.44,3.4,3.4,0,0,1-1.27,1,4.28,4.28,0,0,1-1.8.35H38.3v-9Zm-.14,7.34a2.63,2.63,0,0,0,.84-.13,2,2,0,0,0,.72-.47,2.43,2.43,0,0,0,.5-.83,3.66,3.66,0,0,0,.19-1.27,5.71,5.71,0,0,0-.13-1.23,2.41,2.41,0,0,0-.45-.94,2,2,0,0,0-.8-.6,3,3,0,0,0-1.23-.2H40.28v5.67Z"/><path d="M29,55.92h0a3.15,3.15,0,0,1,3.15,3.15h0V70.28h0a6.3,6.3,0,0,1-6.3-6.3V59.07A3.15,3.15,0,0,1,29,55.92Z"/><circle cx="28.99" cy="49.37" r="4.16"/></svg>