<svg id="Laag_1" data-name="Laag 1" xmlns="http://www.w3.org/2000/svg" viewBox="0 0 100 100"><defs><style>.cls-1{fill:#ddc400;}.cls-2{fill:#004a80;}</style></defs><rect class="cls-1" y="-0.01" width="100" height="100" rx="10.37"/><path class="cls-2" d="M14.39,44.28A4.08,4.08,0,0,1,15.9,44a3.41,3.41,0,0,1,2.49.93,4.09,4.09,0,0,1,1.13,2.61,7.26,7.26,0,0,1-.23,2.53,7.08,7.08,0,0,1-.94,2.33,4.78,4.78,0,0,1-1.86,1.87,4.85,4.85,0,0,1-2.1.66V53.38a3.76,3.76,0,0,0,.77-.31,3.67,3.67,0,0,0,1.29-1.4,8.21,8.21,0,0,0,.81-2,6.45,6.45,0,0,0,.2-2.1,2.84,2.84,0,0,0-.7-1.67,2.17,2.17,0,0,0-1.6-.63,2.39,2.39,0,0,0-.77.12ZM7.5,58.68l2.68-11.79c.08-.47.16-.9.24-1.36s.08-.9.11-1.37H12.4l-.15,1.6A6.34,6.34,0,0,1,14,44.44a1.46,1.46,0,0,1,.39-.16v1.09a3.6,3.6,0,0,0-.82.39,4,4,0,0,0-1.25,1.48,8.23,8.23,0,0,0-.81,2.18,6.75,6.75,0,0,0-.2,2.06,2.05,2.05,0,0,0,2.18,2,3.32,3.32,0,0,0,.9-.12v1.56H14a4,4,0,0,1-1.87-.43,4.07,4.07,0,0,1-1.36-1.24L9.56,58.68Z"/><path class="cls-2" d="M64.3,45.84a3.61,3.61,0,0,0-.66.08V44.4l.27-.12a4.06,4.06,0,0,1,1.83-.39,3.28,3.28,0,0,1,2.41.9,3.9,3.9,0,0,1,1,2.56A7.78,7.78,0,0,1,68,52.68,4.5,4.5,0,0,1,64,54.9c-.11,0-.27,0-.38,0v-2a1.6,1.6,0,0,0,.66-.31,3.28,3.28,0,0,0,.89-1.21,9.22,9.22,0,0,0,.66-1.94A5.92,5.92,0,0,0,66,47.59a2,2,0,0,0-.51-1.29A1.6,1.6,0,0,0,64.3,45.84Zm-.66.08A3,3,0,0,0,62,47.35a5.7,5.7,0,0,0-.74,3.51,2.45,2.45,0,0,0,.58,1.51,1.67,1.67,0,0,0,1.29.55,2,2,0,0,0,.47-.08v2a3.56,3.56,0,0,1-1.52-.43,3,3,0,0,1-1.29-1.32l-1.24,5.57H56.36l2.49-11.29c.31-1.44.51-2.53.58-3.23h2.92l-.08,1.29a7.83,7.83,0,0,1,1.37-1.05Z"/><path class="cls-2" d="M76.43,49.69a.45.45,0,0,0-.23,0h-.35a4.7,4.7,0,0,0-1.36.16V48.09c.43,0,.93,0,1.44,0h.89a5.14,5.14,0,0,0,.16-.89,2.33,2.33,0,0,0,0-.51.94.94,0,0,0-.39-.7,1.51,1.51,0,0,0-.9-.23,1.66,1.66,0,0,0-1,.31c-.07.08-.15.12-.19.24V44.09A6.31,6.31,0,0,1,75.73,44a5.79,5.79,0,0,1,3.12.66,2.56,2.56,0,0,1,1.16,2,3.09,3.09,0,0,1,0,.86c0,.27-.11.62-.19,1L79,52.1c-.12.43-.15.86-.23,1.32s0,.9,0,1.36h-3v-.73c0-.28,0-.51,0-.78a3.78,3.78,0,0,1-1.32,1.2V52.84a3.18,3.18,0,0,0,.93-.74A5,5,0,0,0,76.43,49.69Zm-1.94.12a3,3,0,0,0-1.09.5,1.62,1.62,0,0,0-.86,1.6,1,1,0,0,0,.35.81,1.09,1.09,0,0,0,.82.28,1.71,1.71,0,0,0,.78-.16v1.63l-.08,0a3.5,3.5,0,0,1-1.71.43,3.32,3.32,0,0,1-2.26-.78,2.87,2.87,0,0,1-1-2,3,3,0,0,1,1.48-3,7.59,7.59,0,0,1,3.54-1v1.72Zm0-5.72v2.18a1.94,1.94,0,0,0-.31.77H71.1a2.93,2.93,0,0,1,1.33-2.25A5.23,5.23,0,0,1,74.49,44.09Z"/><polygon class="cls-2" points="80.56 58.64 83.13 54.75 81.26 44.09 84.45 44.09 85.34 51.4 89.47 44.09 92.5 44.09 85.89 55.17 83.98 58.64 80.56 58.64"/><path class="cls-2" d="M25.63,45.18a3,3,0,0,0-.78.11V43.93a8.2,8.2,0,0,1,1,0,4.58,4.58,0,0,1,3,.9,3.54,3.54,0,0,1,1.28,2.56,9.36,9.36,0,0,1-1.32,5.3,4.7,4.7,0,0,1-2,1.75,5.74,5.74,0,0,1-2,.5V53.54a2.88,2.88,0,0,0,.86-.35,3.55,3.55,0,0,0,1.2-1.28,8.21,8.21,0,0,0,.86-2.22A7.84,7.84,0,0,0,28,47.51a2.61,2.61,0,0,0-.7-1.75A2.23,2.23,0,0,0,25.63,45.18Zm-.78.11a4.71,4.71,0,0,0-.86.35,4.67,4.67,0,0,0-1.24,1.44,7.53,7.53,0,0,0-.82,2.14,7.91,7.91,0,0,0-.19,2.22,2.31,2.31,0,0,0,.7,1.59,2.36,2.36,0,0,0,1.67.59,4.19,4.19,0,0,0,.74-.08V54.9c-.27,0-.58,0-.89,0a4.35,4.35,0,0,1-3-1,3.51,3.51,0,0,1-1.28-2.65A7.46,7.46,0,0,1,20,48.44a7.69,7.69,0,0,1,1.2-2.6,4.82,4.82,0,0,1,1.91-1.48,7.6,7.6,0,0,1,1.75-.43Z"/><path class="cls-2" d="M32.24,51.28a1.34,1.34,0,0,0-.12.51.85.85,0,0,0,0,.39,1.13,1.13,0,0,0,.51.93,2.16,2.16,0,0,0,1.36.31A3.39,3.39,0,0,0,35.9,53a1.41,1.41,0,0,0,.62-1.29,1.07,1.07,0,0,0-.43-.81,7.34,7.34,0,0,0-1.67-.94,8.35,8.35,0,0,1-2.3-1.4,2,2,0,0,1-.73-1.44,2.55,2.55,0,0,1,1-2.29,5.1,5.1,0,0,1,3.15-.9,5.31,5.31,0,0,1,2.68.55,1.88,1.88,0,0,1,1,1.59v.39a3.67,3.67,0,0,1,0,.58H37.3v-.58a1.11,1.11,0,0,0-.51-.89,2.17,2.17,0,0,0-1.28-.31,2.46,2.46,0,0,0-1.52.42,1.17,1.17,0,0,0-.5,1.13,1.05,1.05,0,0,0,.42.74,8.13,8.13,0,0,0,1.72,1A9,9,0,0,1,38.08,50a2.45,2.45,0,0,1,.62,1.48,2.65,2.65,0,0,1-1.25,2.49,5.9,5.9,0,0,1-3.57,1,5.6,5.6,0,0,1-2.77-.62A2.29,2.29,0,0,1,30,52.53,1.87,1.87,0,0,1,30,52c0-.2.08-.43.12-.67Z"/><path class="cls-2" d="M45,54.78l-1,.12c-.31,0-.62,0-.9,0a2.88,2.88,0,0,1-1.71-.39,1.44,1.44,0,0,1-.62-1.24,4.41,4.41,0,0,1,0-1c0-.46.16-.93.23-1.44l1.21-5.29h-2l.35-1.36h1.91l.54-2.41,2.07-.51-.63,2.92h2.3l-.31,1.36h-2.3l-1.16,5.53a4.34,4.34,0,0,0-.2.93,1.21,1.21,0,0,0,0,.51.67.67,0,0,0,.31.62,1.69,1.69,0,0,0,1,.23c.15,0,.38,0,.62-.07a3.39,3.39,0,0,0,.62-.12Z"/><path class="cls-2" d="M51.77,48.25h2.65c0-.35.07-.62.07-.82a1.05,1.05,0,0,0,0-.5,1.77,1.77,0,0,0-.66-1.33,2.76,2.76,0,0,0-1.67-.5c-.12,0-.27,0-.39,0V43.85h.43a5.35,5.35,0,0,1,3.11.78,3.24,3.24,0,0,1,1.17,2.45,6.52,6.52,0,0,1,0,1.25,5.59,5.59,0,0,1-.2,1.36H51.77V48.25Zm0,6.61V53.27a4,4,0,0,0,.66-.31,2.54,2.54,0,0,0,1-1.37h2.3A4.05,4.05,0,0,1,54,54.05,5.09,5.09,0,0,1,51.77,54.86Zm-2.72-6.61h2.72v1.44H48.7a3.57,3.57,0,0,0-.2.89,5.43,5.43,0,0,0,0,.78,2.34,2.34,0,0,0,.7,1.52,2.6,2.6,0,0,0,1.72.54,2.38,2.38,0,0,0,.89-.15v1.59a10,10,0,0,1-1.13.08,4.61,4.61,0,0,1-3-.89,3.52,3.52,0,0,1-1.21-2.53,8.11,8.11,0,0,1,.27-2.8,9.71,9.71,0,0,1,1-2.65,4.62,4.62,0,0,1,1.83-1.63,5.29,5.29,0,0,1,2.14-.59v1.29a2.47,2.47,0,0,0-1.59.78A4,4,0,0,0,49.05,48.25Z"/></svg>