<?xml version="1.0" encoding="utf-8"?>
<!-- Generator: Adobe Illustrator 25.4.0, SVG Export Plug-In . SVG Version: 6.00 Build 0)  -->
<svg version="1.1" id="Laag_1" xmlns="http://www.w3.org/2000/svg" xmlns:xlink="http://www.w3.org/1999/xlink" x="0px" y="0px"
	 viewBox="0 0 100 100" style="enable-background:new 0 0 100 100;" xml:space="preserve">
<style type="text/css">
	.st0{fill:#FF9EB7;}
</style>
<path class="st0" d="M10.4,0h79.3C95.4,0,100,4.6,100,10.4v79.3c0,5.7-4.6,10.4-10.4,10.4H10.4C4.6,100,0,95.4,0,89.6V10.4
	C0,4.6,4.6,0,10.4,0z"/>
<path d="M28.8,65.4c0.3-0.8,0.6-0.8,2.6-0.6V74c-1.3,0.4-2.3,0.2-2.6-0.5c-2.5,1.4-4.9,1-6.4-0.9c-1.6-1.9-1.6-4.6,0.1-6.5
	C24,64.3,26.5,64,28.8,65.4z M26.4,67c-1.4,0-2.4,1.1-2.4,2.5c0,1.4,1.1,2.4,2.5,2.4c1.3,0,2.4-1.1,2.4-2.4C29,68.1,27.9,67,26.4,67
	C26.5,67,26.5,67,26.4,67z"/>
<path d="M13.4,74.3h-2.8V60.8c2.2,0,4.4-0.2,6.6,0c1.7,0.2,3,1.5,3.2,3.2c0.4,1.8-0.4,3.6-2.1,4.4c-0.9,0.4-1.7,0.8-2.6,1.1
	c-1.9,0.7-2.3,1.3-2.4,3.3L13.4,74.3z M13.5,67.7c1.1-0.4,2.2-0.8,3.2-1.2c0.8-0.3,1.2-1.1,1.1-1.8c-0.1-0.8-0.7-1.4-1.5-1.3
	c-0.9-0.1-1.8,0-2.8,0L13.5,67.7z"/>
<path d="M32.1,64.6c2.9-0.2,2.9-0.2,3.9,2.2c0.4,1,0.8,2,1.3,3.2c0.5-1.3,0.9-2.3,1.3-3.3c0.8-2.2,0.8-2.2,3.2-2.1
	c0.1,0,0.2,0,0.3,0c0,0.1,0.1,0.2,0,0.3c-1.3,3.3-2.5,6.5-4,9.7c-0.8,2.1-3,3.3-5.2,2.8v-2.3c0,0,0.1-0.1,0.2-0.1
	c2.7-0.2,3.1-0.8,2.1-3.3L32.1,64.6z"/>
<path d="M47.2,60.8h2.6v13.6h-2.6V60.8z"/>
<path d="M59.3,65.4c0.3-0.8,0.6-0.8,2.7-0.6V74c-1.3,0.4-2.3,0.2-2.6-0.5c-2.5,1.4-4.9,1-6.4-0.9c-1.6-1.9-1.6-4.7,0.1-6.5
	C54.6,64.3,57,64,59.3,65.4z M57,67c-1.4,0-2.4,1.1-2.4,2.5s1.1,2.4,2.5,2.4c1.3,0,2.4-1.1,2.4-2.4C59.5,68.1,58.4,67,57,67
	C57,67,57,67,57,67z"/>
<path d="M69,72.1v2.3c-2.2,0.5-4.4-0.9-4.9-3.1c0-0.1,0-0.2-0.1-0.3c-0.3-3-0.1-6-0.1-9h2.5c0,1.8,0,3.6,2.5,3.8v2.6l-2.3-0.7
	C66,70.3,66.6,71.5,69,72.1z"/>
<path d="M79.2,69.9l-6.5,0.8c0.9,1.7,2.5,1.8,4.8,0.4l1.3,1.6c-1.6,1.8-4.3,2.3-6.5,1.1c-2.2-1.3-3.1-4.1-2-6.5
	c1.1-2.2,3.6-3.3,6-2.6C78.4,65.4,79.6,67.7,79.2,69.9z M72.5,68.8l4-0.6c-0.3-0.9-1.2-1.5-2.2-1.3C73.3,66.9,72.5,67.8,72.5,68.8z"
	/>
<path d="M85.6,67.5c-2.1,0.6-2.4,1-2.4,3.2c0,1.2,0,2.3,0,3.6h-2.6V65H83l0.2,0.6l2.4-1L85.6,67.5z"/>
<path d="M87.7,71c0.9,0,1.6,0.7,1.6,1.6c0,0.9-0.7,1.6-1.6,1.6c-0.9,0-1.6-0.7-1.7-1.6C86,71.8,86.7,71,87.7,71
	C87.6,71,87.6,71,87.7,71z"/>
<path d="M33.1,22.5c4.2,0.2,8.4,0.6,12.7,0.7c3.1,0.1,6.3-0.1,9.4-0.2c4.8-0.4,9.7-0.4,14.6-0.1l7.8,0.6c1,0.1,1.3,0.3,1.3,1.4
	c0.1,1.2-0.1,2.4-0.7,3.4c-0.6,1.4-0.8,2.8-0.8,4.3c-0.1,2.4-0.6,4.8-1.5,7.1c-1.4,3.8-4.9,6.4-8.9,6.6c-2.7,0.3-5.4,0.1-8-0.5
	c-3.3-0.7-6-3.2-6.9-6.5c-0.8-2.5-1.7-4.9-2.5-7.4c-0.1-0.4-0.3-0.7-0.5-1.1c-0.5-0.7-0.9-0.8-1.3,0c-0.5,0.9-0.9,1.9-1.2,2.8
	c-0.8,2.2-1.4,4.4-2.2,6.5c-1.2,3.2-3.6,5-6.9,5.6c-2.3,0.5-4.7,0.6-7,0.5c-4.3-0.1-8-2.8-9.5-6.8c-0.9-2.6-1.4-5.4-1.5-8.2
	c-0.1-1.3-0.4-2.5-1-3.6c-0.5-1.2-0.2-2.4-0.1-3.6c0-0.2,0.6-0.5,0.9-0.6c2.9-0.3,5.7-0.5,8.6-0.7c1.8-0.1,3.5,0,5.3,0L33.1,22.5z
	 M64.4,44.8c1.3-0.1,2.3-0.2,3.2-0.3c3.1-0.4,5.7-2.5,6.8-5.3c0.9-2.4,1.4-4.9,1.5-7.5C76,30,76.3,28.5,77,27c0.2-0.5,0.3-1,0.2-1.6
	c-0.1-0.3-0.3-0.5-0.5-0.6c-4.1-0.3-8.2-0.6-12.2-0.7c-3.7,0-7.3,0.3-11,0.4c-2.7,0.1-5.3,0.2-8,0.1c-4.8-0.2-9.5-0.8-14.2-0.5
	c-3.4,0.2-6.8,0.4-10.1,0.6c-1.2,0.1-1.6,0.6-1.2,1.8c0.1,0.2,0.2,0.4,0.2,0.6c0.4,1.1,0.7,2.2,0.9,3.4c0.4,2.2,0.5,4.5,1,6.7
	c1.1,4.6,4.1,7.2,8.9,7.3c2.1,0,4.2-0.1,6.3-0.5c2.8-0.3,5.1-2.3,5.9-5c0.7-2,1.3-4.1,2.1-6.1c0.4-1.2,0.9-2.4,1.5-3.5
	c0.5-1,1.7-1.4,2.7-0.8c0.3,0.1,0.5,0.4,0.7,0.6c0.4,0.4,0.7,0.9,0.9,1.4c0.9,2.6,1.9,5.3,2.8,7.9s2.5,4.8,5.4,5.3
	C61,44.4,62.9,44.6,64.4,44.8z"/>
<path d="M34,26.5c1.9,0.2,4.1,0.3,6.3,0.6c0.4,0.1,0.8,0.2,1.2,0.3c1.1,0.3,1.8,1.5,1.5,2.7c-0.3,1.6-0.7,3.2-1.2,4.7
	c-0.3,1.1-0.7,2.1-1.1,3.1c-0.6,1.7-2,2.9-3.7,3.3c-2.1,0.6-4.4,0.8-6.6,0.5c-2.4-0.3-4.5-2-5.4-4.3c-0.5-1.4-0.9-2.8-1.1-4.2
	c-0.1-1.1-0.2-2.2-0.2-3.4c-0.1-1.4,0.9-2.6,2.3-2.8C28.6,26.9,31.1,26.8,34,26.5z M27.9,39.1c0.3-0.2,0.6-0.5,0.9-0.8
	c2.4-2.9,4.7-5.8,7-8.8c0.2-0.2,0.4-0.4,0.4-0.7c0-0.3-0.1-0.6-0.3-0.9c-0.3-0.1-0.6-0.1-0.9,0c-0.2,0.1-0.4,0.4-0.5,0.6l-5.3,6.6
	c-0.6,0.8-1.3,1.6-1.9,2.4c-0.1,0.3-0.2,0.6-0.1,0.8C27.2,38.8,27.6,38.9,27.9,39.1z M31.3,28.3c-0.2-0.2-0.4-0.6-0.6-0.6
	c-0.4,0-0.7,0.1-1,0.3c-1.4,1.7-2.8,3.4-4.2,5.2c-0.4,0.4-0.5,0.9,0,1.3s0.9,0,1.2-0.3c1.4-1.7,2.7-3.4,4.1-5.1
	C31,28.8,31.2,28.5,31.3,28.3z"/>
<path d="M63.2,26.5c2.9,0.2,5.4,0.4,7.9,0.6c1,0.1,1.9,0.9,2,1.9c0.2,3.5,0,7-2.2,10.1c-1.1,1.7-3,2.7-4.9,2.7c-2,0-4-0.1-5.9-0.5
	c-2-0.5-3.5-2-4-4c-0.7-2.1-1.3-4.3-1.9-6.5s0.3-3.4,2.4-3.7C58.9,26.8,61.2,26.7,63.2,26.5z M58.8,39c0.3-0.2,0.5-0.3,0.7-0.6
	c1.4-1.7,2.8-3.5,4.2-5.2c1-1.3,2.1-2.6,3.1-4c0.2-0.3,0.2-0.6,0.2-0.9c-0.1-0.3-0.4-0.4-0.7-0.4c-0.3,0.1-0.6,0.3-0.8,0.6
	c-2.4,3-4.8,5.9-7.2,8.9c-0.1,0.2-0.3,0.3-0.3,0.5C57.7,38.4,58.1,39,58.8,39z M57,34.7c0.2-0.2,0.4-0.4,0.6-0.6
	c1.4-1.7,2.7-3.4,4.1-5.1c0.3-0.4,0.5-0.9,0-1.2s-0.9-0.2-1.2,0.3l-2.3,2.9c-0.7,0.8-1.3,1.6-1.9,2.4c-0.3,0.4-0.2,0.9,0.2,1.2
	C56.6,34.6,56.8,34.7,57,34.7z"/>
</svg>
