<svg id="Laag_1" data-name="Laag 1" xmlns="http://www.w3.org/2000/svg" viewBox="0 0 100 100"><defs><style>.cls-1{fill:#ff9eb7;}</style></defs><rect class="cls-1" width="100" height="100" rx="10.37"/><path d="M53.15,30.56c.35-1.17.71-2.34,1.05-3.51.75-2.53,1.45-5.07,2.23-7.59A4.13,4.13,0,0,1,63,17.28a3.93,3.93,0,0,1,1.37,3.81c-.7,3.76-1.49,7.49-2.25,11.23l-1.43,7.17a6.76,6.76,0,0,0,.94.29,4,4,0,0,1,3.57,3.86,16.92,16.92,0,0,1-3.49,12.62,12,12,0,0,1-7.76,4.16,14.7,14.7,0,0,1-7.59-.53,12.09,12.09,0,0,1-7.42-6.83A17.07,17.07,0,0,1,38,49.35a3.06,3.06,0,0,0-.81-1.66A12.68,12.68,0,0,1,35.12,45a3.75,3.75,0,0,1,2.52-5.55c.43-.11.5-.29.34-.71a4.08,4.08,0,0,1,.53-4.35,3.6,3.6,0,0,1,5-.58l.65.41c-.1-1-.18-1.79-.28-2.61C43.48,28.09,43,24.53,42.62,21A4.16,4.16,0,0,1,45,16.73c2.39-1,4.89.49,5.5,3.19.79,3.55,1.65,7.08,2.47,10.62ZM40,50.51c0,.28-.06.36-.06.43a1.59,1.59,0,0,0,.06.38,10.61,10.61,0,0,0,7.07,7,13.83,13.83,0,0,0,7.52.24,10,10,0,0,0,6.3-4,15.86,15.86,0,0,0,2.69-10.44,2.71,2.71,0,0,0-2.46-2.86c-2.16-.35-4.28-1-6.43-1.47a27.17,27.17,0,0,0-3.77-.7c-1.5-.13-2.14.44-2.52,1.91a2.25,2.25,0,0,0,1.28,2.74,5.42,5.42,0,0,0,1.26.55c1.92.48,3.84.91,5.76,1.37a7.86,7.86,0,0,1,1.61.47.91.91,0,0,1,.4.77c-.07.27-.42.5-.71.66s-.39,0-.6,0a4.5,4.5,0,0,0-4.95,3.25c-.19.6-.16,1.28-.37,1.87a1,1,0,0,1-.81.57c-.27,0-.57-.4-.73-.69s0-.5,0-.75a6.39,6.39,0,0,1,2.86-5c-.39-.14-.63-.24-.88-.31A10.83,10.83,0,0,1,50.69,46c-1.1-.53-2-.61-2.84.47-.24.31-.42.49-.29.9a3.94,3.94,0,0,1-1.75,4.73A3.82,3.82,0,0,1,41,51.44ZM59,39.16c.22-1,.42-1.92.6-2.82.6-3,1.2-5.93,1.79-8.89.45-2.23.9-4.47,1.32-6.71a2.29,2.29,0,0,0-2.28-2.67,2.56,2.56,0,0,0-2.44,2c-.57,1.85-1.1,3.73-1.65,5.59-.83,2.83-1.64,5.66-2.48,8.49-.13.47-.3,1-.93.94s-.76-.45-.89-1q-1.59-6.93-3.23-13.84a2.61,2.61,0,0,0-1.88-2.15,2.26,2.26,0,0,0-2.65,2.29,35.4,35.4,0,0,0,.38,3.67c.49,4,1,8,1.45,12.06a5.21,5.21,0,0,0,1.3,2.71c.13-.06.25-.08.31-.15a4,4,0,0,1,3.44-1.21,26.72,26.72,0,0,1,3.16.62C55.85,38.43,57.36,38.79,59,39.16Zm-12.51,2.6.24-.07a2.78,2.78,0,0,0-.19-1c-1.08-1.64-2.15-3.3-3.35-4.85-1.06-1.37-2.63-1.38-3.51-.13a2.28,2.28,0,0,0-.08,2.55c1.37,2.25,2.8,4.46,4.31,6.61a2.18,2.18,0,0,0,3.22.15.78.78,0,0,0,.18-1.13A21.26,21.26,0,0,1,46.49,41.76ZM36.35,43.05a3.8,3.8,0,0,0,1.28,2.72c1.42,1.42,2.83,2.84,4.25,4.24a4.49,4.49,0,0,0,.83.68,2.22,2.22,0,0,0,2.63-.3,2.12,2.12,0,0,0,.59-2.51,1.13,1.13,0,0,0-.71-.56,4.34,4.34,0,0,1-3.09-2c-.7-1.1-1.45-2.17-2.18-3.26a1.78,1.78,0,0,0-2.17-.84A2.06,2.06,0,0,0,36.35,43.05Z"/><path d="M29.61,71.52c.32-.79.58-.85,2.65-.62v9.23c-1.33.44-2.33.25-2.63-.5-2.52,1.36-4.88,1-6.43-.89a4.91,4.91,0,0,1,.1-6.48C24.86,70.44,27.31,70.15,29.61,71.52Zm-2.36,1.6A2.45,2.45,0,1,0,27.19,78a2.45,2.45,0,1,0,.06-4.89Z"/><path d="M14.25,80.46H11.49V66.94c2.25,0,4.45-.15,6.63,0a3.58,3.58,0,0,1,3.22,3.2,3.86,3.86,0,0,1-2.09,4.42,24.51,24.51,0,0,1-2.65,1.08c-1.91.73-2.32,1.31-2.35,3.35Zm.05-6.67c1.14-.42,2.2-.77,3.22-1.2a1.64,1.64,0,0,0,1.06-1.84,1.45,1.45,0,0,0-1.51-1.32c-.91-.06-1.82,0-2.77,0Z"/><path d="M32.93,70.76c2.87-.23,2.86-.23,3.84,2.23.38,1,.77,1.94,1.27,3.18.48-1.26.88-2.3,1.26-3.34.82-2.21.82-2.21,3.19-2.13a1.77,1.77,0,0,1,.29,0c0,.09.06.19,0,.27-1.3,3.25-2.54,6.53-4,9.74a4.42,4.42,0,0,1-5.25,2.78V81.22s.1-.09.15-.09c2.74-.23,3.12-.82,2.09-3.31Z"/><path d="M64.4,80.72a4.8,4.8,0,1,1,4.95-4.8A4.89,4.89,0,0,1,64.4,80.72Zm2.39-4.78a2.37,2.37,0,1,0-2.39,2.38A2.35,2.35,0,0,0,66.79,75.94Z"/><path d="M48.38,71.39h2.31l.19.75a1.42,1.42,0,0,0,.27-.12,3.87,3.87,0,0,1,4.25-.48A3.67,3.67,0,0,1,57.57,75c0,1.8,0,3.61,0,5.44H55c0-1.68,0-3.3,0-4.92a1.93,1.93,0,0,0-1.84-2,2,2,0,0,0-2.27,2.07c0,1.59,0,3.19,0,4.86H48.38Z"/><path d="M74.65,77.46c.51-1.72,1.11-3.42,1.5-5.17.2-.86.5-1.22,1.38-1.08a6,6,0,0,0,1,0l2,6.21.34,0c.49-1.69,1-3.36,1.46-5.06.21-.88.57-1.26,1.48-1.12a11.29,11.29,0,0,0,1.55,0c-.6,2-1.16,3.81-1.73,5.65-.15.5-.31,1-.47,1.49-.62,2-.62,2-2.73,2a1.07,1.07,0,0,1-1.18-.75c-.26-.65-.6-1.28-.89-1.92s-.52-1.24-.81-1.95c-.58,1.32-1.15,2.53-1.65,3.76a1.25,1.25,0,0,1-1.4.86c-1.89-.06-1.89,0-2.45-1.81l-2-6.33c-.1-.32-.18-.64-.26-1a.85.85,0,0,1,.17-.06c2.41-.22,2.41-.22,3.09,2.09l1.14,3.89a1.3,1.3,0,0,0,.1.15Z"/><path d="M86.92,77.15a1.58,1.58,0,1,1-1.56,1.6A1.58,1.58,0,0,1,86.92,77.15Z"/></svg>