<svg id="Laag_1" data-name="Laag 1" xmlns="http://www.w3.org/2000/svg" viewBox="0 0 100 100"><defs><style>.cls-1{fill:#fff;}.cls-2{fill:#a8a8a7;}</style></defs><rect class="cls-1" x="0.5" y="0.5" width="99" height="99" rx="9.87"/><path class="cls-2" d="M89.63,1A9.38,9.38,0,0,1,99,10.37V89.63A9.38,9.38,0,0,1,89.63,99H10.37A9.38,9.38,0,0,1,1,89.63V10.37A9.38,9.38,0,0,1,10.37,1H89.63m0-1H10.37A10.41,10.41,0,0,0,0,10.37V89.63A10.41,10.41,0,0,0,10.37,100H89.63A10.41,10.41,0,0,0,100,89.63V10.37A10.41,10.41,0,0,0,89.63,0Z"/><path d="M25.18,37.37A6.12,6.12,0,0,0,26.57,33,6.32,6.32,0,0,0,22.52,35a5.76,5.76,0,0,0-1.47,4.19,4.8,4.8,0,0,0,4.13-1.86m1.39,2.26c-2.26-.13-4.19,1.26-5.25,1.26s-2.73-1.2-4.52-1.2a6.66,6.66,0,0,0-5.65,3.46c-2.4,4.19-.67,10.37,1.73,13.76,1.13,1.67,2.52,3.53,4.32,3.46s2.39-1.13,4.45-1.13,2.66,1.13,4.52,1.07,3.06-1.67,4.19-3.4a13.34,13.34,0,0,0,1.86-3.85,6,6,0,0,1-.73-10.71,6.16,6.16,0,0,0-4.92-2.72"/><path d="M46.12,34.91a7.9,7.9,0,0,1,8.31,8.24c0,4.92-3.46,8.31-8.44,8.31H40.6V60H36.68V34.91ZM40.6,48.2h4.46c3.39,0,5.31-1.86,5.31-5s-1.92-5-5.31-5H40.53v10Zm14.83,6.72c0-3.19,2.46-5.19,6.85-5.45l5-.27V47.81c0-2.07-1.4-3.26-3.66-3.26s-3.52,1.06-3.85,2.66H56.23c.19-3.33,3.05-5.79,7.57-5.79s7.32,2.33,7.32,6V60.11H67.53v-3h-.07a6.5,6.5,0,0,1-5.78,3.33C58,60.44,55.43,58.18,55.43,54.92Zm11.9-1.66V51.8l-4.52.26c-2.26.13-3.53,1.13-3.53,2.73s1.33,2.66,3.33,2.66c2.66,0,4.72-1.8,4.72-4.19Zm7.11,13.63V63.83a6.91,6.91,0,0,0,1.2.07c1.73,0,2.66-.74,3.26-2.6,0-.06.33-1.13.33-1.13L72.58,41.82h4.06l4.65,15h.07l4.65-15h4L83.15,61.17C81.56,65.62,79.76,67,76,67c-.26-.07-1.2-.07-1.53-.13Z"/></svg>