<?xml version="1.0" encoding="utf-8"?>
<!-- Generator: Adobe Illustrator 25.4.0, SVG Export Plug-In . SVG Version: 6.00 Build 0)  -->
<svg version="1.1" id="Laag_1" xmlns="http://www.w3.org/2000/svg" xmlns:xlink="http://www.w3.org/1999/xlink" x="0px" y="0px"
	 viewBox="0 0 100 100" style="enable-background:new 0 0 100 100;" xml:space="preserve">
<style type="text/css">
	.st0{fill:#E19D33;}
	.st1{clip-path:url(#SVGID_00000160895091455062484980000014119771647008127401_);}
	.st2{fill:#FFFFFF;}
</style>
<path class="st0" d="M10.4,0h79.3C95.4,0,100,4.6,100,10.4v79.3c0,5.7-4.6,10.4-10.4,10.4H10.4C4.6,100,0,95.4,0,89.6V10.4
	C0,4.6,4.6,0,10.4,0z"/>
<g>
	<defs>
		<rect id="SVGID_1_" x="15" y="25.7" width="70" height="48.5"/>
	</defs>
	<clipPath id="SVGID_00000142172545124029185740000014485033754092115336_">
		<use xlink:href="#SVGID_1_"  style="overflow:visible;"/>
	</clipPath>
	<g style="clip-path:url(#SVGID_00000142172545124029185740000014485033754092115336_);">
		<path class="st2" d="M17.1,26.9c-0.8,0,0.5,0-0.5,0C16.8,26.9,17,26.9,17.1,26.9"/>
		<path class="st2" d="M16.5,29.8c0.2,2.7,0,6.2,0.1,9.1c0,0.3-0.1-0.1-0.1,0.7c0.1,2.8,0,7.3,0,10.7v-0.2c0,0.7,0.1,1.5,0.1,2.2
			c0,0,0-0.2,0-0.1s0,1.3,0.1,1.6s-0.1,0.2-0.1,0.6l0.1,0.4c0.1,1.1,0,2.7,0.1,4.2c0-0.1,0-0.2,0-0.1c0.1,2.4,0.1,5.5,0.1,8.2
			c0-0.1-0.1-0.2-0.1,0c0.1,0.6,0.1,1.1,0.1,1.7c-0.1,0.3,0.1,1.2,0,2.1v-0.1c0.1,0.6,0,0.9,0,1.4l0,0.4c0,0.2,0,0.3,0,0.5L17,73
			h0.4l0,0c0.5,0,0.8,0,1.2,0l0,0c0.6,0.1,1.1,0.1,1.7,0c0.4,0.1-1,0-0.4,0.1C23.4,73,27,73,30.5,73c0.3,0,0.5,0,0.8,0.1
			c0.4,0,1.3,0,1.6,0c0.1,0,0.3,0,0.4,0c0.6,0,0.7-0.1,1.4,0c-0.3,0-0.4,0-0.3,0.1c0.6,0,1.4,0,2.1-0.1c-0.1,0-0.3,0-0.2,0
			c0.8-0.1,1.4,0,2.1,0h-0.3c1.1,0.1,0.3-0.1,1.3,0c-0.2,0-0.2,0-0.2,0c0.9-0.1,2.3,0,3.2-0.1l0,0c1,0,2,0,3,0
			c0.4,0-0.1,0.1,0.9,0.1c0-0.1,1.7,0,1.1-0.1c0.9,0,2.2,0,2.8,0c-0.4,0,0.4,0.1-0.3,0.1l0.5,0.1c-0.1,0-0.6,0-0.4,0
			c0.4,0,1.4,0,1.8,0c0.7-0.1,1.3-0.1,2.4-0.2c-0.5,0,0.3,0.1-0.1,0.1l1.5-0.1c0.4,0,0.1,0.1,0.6,0c0,0,0.2,0,0.4,0
			c0.6,0,1.1,0,1.7,0.1c0.2,0-0.6,0-0.2,0c0.7,0,0.7,0,1.4,0l0,0c0.4,0,1.3,0,0.8-0.1c-0.3,0,0.1,0-0.3,0c0.3,0,1.1-0.1,1.8-0.1
			c-0.1,0-0.2,0-0.3,0.1c0.9-0.1,1.8-0.1,2.9-0.1c0,0-0.4,0.1-0.5,0c1.3,0,2.6-0.1,3.7,0c-0.2,0-0.1,0-0.1,0c0.6,0,0.6,0.1,1,0
			c0.3,0,0.6,0,0.9,0c0.2,0,0.1,0-0.3,0c0.6,0,2.9-0.1,4.2,0c0.4,0,0.8-0.1,1.1-0.1h-0.1c0.3,0,1,0,1.1,0c0.7-0.1-2.5,0-1.6,0
			c0.2,0,1.2-0.1,1,0c0.6,0,1.2,0,1.8,0c-0.2,0-0.5,0.1,0,0.1c0.9,0,0.2,0,1,0H78c0,0,0.8,0,0.5,0c0.1,0,1.3,0,1.2,0.1L79.6,73
			c0.4,0,0.6-0.1,0.9-0.1c0.1,0,0.2,0,0.1,0s0.9,0,1.4-0.1H83c0-0.1,0-0.3,0-0.4s0-0.3,0-0.4c0-0.6-0.1-1.2,0-1.9c0,0.1,0,0.2,0,0.4
			c0-0.3,0-0.7,0-1c0,0.1,0.1-0.9,0.1-1.4s-0.1-0.4-0.1-0.5c0.1-0.6-0.1-1.7,0-2.4c0,0.2,0.1,0.9,0.1,0.4s-0.1-1.1,0-2L83,63.9
			c0-0.4,0-1.3,0-1.2c0-0.3,0-1.1-0.1-1c0.1-1.5,0-3.6,0.1-4.5c0-0.2,0-0.7,0-0.6c0,0.3,0,0.5,0,0.6c0-0.1,0-0.2,0-0.2
			c0-0.5,0-0.8,0.1-0.4c0-1-0.1-1-0.1-2.3c0,0.1,0,0,0-0.4l0-0.6c0-0.8,0.1-0.5,0.1-0.5c0-0.4,0-0.8-0.1-1.2l0.1-0.5
			c0,0.4,0-0.4,0-0.6v0.2c0-0.3,0-0.6,0-0.9c0,0.3-0.1,0.6-0.1,0.9c0-0.2,0-0.6,0-0.9c0-0.4,0-0.7,0-1.1c0-0.2,0-0.4-0.1-0.6
			c0,0,0-0.7,0-0.3c0,0.1,0,0.3,0,0.5c0-0.3,0-0.5,0-0.8c0-0.4-0.1,0.1-0.1-0.7c0,0.1,0,0.3,0,0.4v-0.7h-0.1c0-0.1,0,0,0-0.1
			c0-0.2,0-1.1-0.1-1.3c0-0.4,0-0.8,0-1.2v0.1c0-0.5,0-0.9,0-1.4l0,0c0-0.2,0-0.8,0-1.1c0-0.6,0.2-0.2,0.1-0.9s-0.1-1-0.1-0.7
			c0-1.1,0-2.4,0-3.4c0-0.1,0.1-0.3,0.2-0.4c0-1.6-0.1-3.4,0-4.7c0,0.5,0,0,0.1,0c0-0.4,0-0.5,0-0.6c0,0-0.1,0-0.1,0.5
			c0-1,0-2.5,0-3c0,0.3,0,0.1,0-0.2c0,0,0-0.1,0.1-0.3s0-0.2,0-0.3s0-0.1,0-0.2H83l0,0h-0.1h-0.2c-0.3,0.1-0.5,0.1-0.8,0
			c0,0-0.1,0-0.2,0c-0.7,0.1-1.3,0.1-2,0.1l-0.5-0.1c-0.3,0-0.7,0-0.2,0.1c-1,0-1.7,0-2-0.1c-1.8,0.1-4.4,0.1-6.4,0.1h0.1
			c-0.6,0-0.3,0.1-0.7,0c0.2,0-0.4-0.1,0-0.1c-0.5,0-1,0-1.5,0.1c-0.1,0,0.4,0,0.3,0c-0.4,0-0.8,0-1.2,0c-0.2,0,0-0.1,0.1-0.1h-0.5
			c-0.6-0.1,1.4-0.1,0.7-0.2h-0.4c-0.4-0.1,1.2-0.1,0.1-0.1c-0.5,0-0.9,0.1-0.5,0.1c-1,0-0.5,0.1-1.6,0.1c-0.3,0,0.9,0,0.7-0.1
			c-0.5,0-1,0-1.5,0c0.5,0,0.1,0.1-0.2,0.1c-0.5,0,0.4,0-0.4-0.1c-0.1,0-0.9,0.1-0.2,0.1c-0.3,0.1-0.8,0-1.2,0
			c-0.3-0.1,0.8-0.1-0.1-0.2c0.1,0-1.1,0.1-0.6,0.1c-0.3,0-0.4-0.1-0.1-0.1c-0.4,0-0.9,0-1.3,0l-0.2,0.1l-0.6-0.1
			c-0.4,0-0.9,0-1.3,0c-0.1,0-1.1,0-0.7,0.1c0.3,0,0.7,0,1,0c-0.4,0-0.8,0-1.2,0h-0.1c-0.2,0-0.7,0-0.8,0c0.2,0,0.1,0-0.1,0h-0.2
			c-0.8,0-0.2-0.1-1-0.1h0.6c-0.1,0-0.4,0-0.8,0c-0.2,0-0.4,0.1-0.6,0.1c-0.5,0-0.2,0-0.7,0l0.6,0c-0.3-0.1-0.7-0.1-1-0.1
			c-0.4,0-1,0.1-0.4,0.1c-0.3,0-0.8,0-0.5-0.1c-0.7,0,0.1,0-0.5,0.1l-1.5-0.1L51,27h-0.4c0.5-0.1-0.3,0,0-0.1c-0.3,0-0.6,0-0.9,0
			c0.8,0.1-1,0.1-0.7,0.2c-1.2,0-0.7-0.2-1.9-0.1c0.2,0-0.4,0.1,0.3,0.1c-0.7,0-0.5,0.1-1.3,0.1c0.6,0-0.7-0.1,0.2-0.1
			c0.2,0,0.4,0,0.6,0c-0.3,0,0.1-0.1-0.7-0.1c-0.5,0-1.1,0-1,0.1s0.7,0,0.4,0c-0.5-0.1-0.9-0.1-1.4,0c0.6,0,0.7,0,0.7,0.1h-0.7h0.1
			c-1,0-0.3,0.1-1.3,0.1l-0.5-0.1c0.2-0.1,1.5,0,1.3-0.1c-0.7,0-0.9,0-1.5,0h0.5c-0.5-0.1-0.9-0.1-1.4-0.1c-0.5,0-0.1,0-0.1,0.1
			c-1.1,0-1.4,0-2.1,0c0.1-0.1-1.2,0-0.5-0.1c0.8,0.1,1.5,0.1,2.3,0c-0.4-0.1,0.8,0,1.1-0.1c-0.8,0-0.8-0.1-1-0.1
			c-0.2,0-0.4,0-0.6,0c-0.1,0,0.2,0,0.2,0.1c-1,0-1.9,0-2.4,0.1c-0.3,0-0.2-0.1,0.2-0.1c-1.1,0-2.3,0-3.4,0c0.7,0.1-1.2,0-0.7,0.1
			s1.1,0.1,0.8,0.1s0,0-0.1-0.1c-0.5,0-0.7-0.1-1.2,0c1,0,0.2-0.1,0.4-0.2c-0.8,0,0,0-0.7,0s-1.7,0.1-2.5,0.1c-1-0.1-2.6,0-3.6,0
			c-0.5,0-0.1-0.1-0.7-0.1s0.5,0.1-0.5,0h0.1c-0.7,0-1.3,0-2,0.1l0.3-0.1c-0.2,0-0.3,0-0.5,0c0,0-0.2,0,0.1-0.1
			c-0.6-0.1-1.2,0-1.8,0l0.4,0c-1,0-1.8,0-2.8,0v0h-0.6c0.1,0-0.4-0.1-0.7,0l1.6-0.1c0.4,0-0.5,0.1-0.2,0.1c0.4,0,0.9,0,1.3,0
			c-0.2,0-0.4,0-0.7,0c-0.1-0.1,0.4-0.1,0.7-0.1c-0.2,0-0.5,0-0.5,0c0.5,0,0.9,0,1.4,0c-0.4,0,0.2,0,0.1,0.1
			c0.5-0.1,0.9-0.1,1.4-0.1c0.5,0.1,1.4,0,2.3,0c-0.5,0.1-0.9,0.1-1.4,0.1c0.5,0,0.6,0,1.2,0c0.4-0.1,0.8-0.1,1.2-0.1v0
			c0.7,0,0.7-0.1,1.5-0.1h4l0,0c0.6-0.1,2,0,2.8-0.1c1.4,0,3,0,3.7,0c2.5,0,4.6-0.1,7.2,0L46,26.5c0.2,0,0.5,0,0.7,0
			c-0.5,0,0.6-0.1,0.9-0.1c1.1,0,2.6,0,3.6,0l0,0c1-0.1,2.2,0,3.5,0c0.2,0,0.5,0.1,0.8,0.1c0.7-0.1,1-0.1,2-0.1c0.7,0,1.9,0,2.7,0
			c2.8-0.1,5.6,0,8.5-0.1l0.2,0c2.8-0.1,6.2,0,8.6-0.1l-0.2,0.1c0.8,0,1.7,0,1.5-0.1c0.8,0,1.9,0,2.3,0s0.6,0,0.8,0h0.3h1.1
			c0,0.8,0,1.4,0,1.9s0,0.9,0,1.6v-0.4c0-0.2-0.1-0.2-0.1,0.2c0,0.5,0,2,0.1,1.5c-0.1,1.5,0,3.6,0,5.1c0-0.1,0,0.3,0.1,0.4
			c0,1.4-0.1,2.8,0,3.9c0,0.2,0-0.3,0,0.2c0,0.3,0,0,0,0.4c0.1,2.2,0,4.4,0,6.4c0.1,3.5,0,7.2,0,10.6l0,0c0.1,1.1-0.1,2.7,0,3.6
			c0,0.3,0,1,0,0.8c0,0.9-0.1,2.5,0,3.8c0-0.1,0-0.2,0-0.3c0,1.3,0,2.5,0,3.9c0-0.1,0-0.3,0-0.4c0,0.5,0,1.1,0,1.6
			c0,0.3,0.1,0.2,0.1,0c0,0.6,0,1.3,0,1.9h-2.2h-2h-4c-2.3-0.1-0.1-0.2-1.9-0.1c-0.2,0-0.1,0-0.1,0c-0.7,0-1.1-0.1-1.6-0.1
			c0.2,0.1-0.3,0-0.3,0.1c-1.4,0-1.7-0.1-2.8,0h0.1c-1.3,0.1-2.8,0-3.9,0.2L44,73.6c-6.8,0-13.6,0-20.5,0c-1.2-0.1-2.4-0.1-3.5,0
			c0.1,0,0.2,0,0.1,0s-1.3,0-1.4,0.1h-2.4c0-2,0-3.9,0-6c0,0.4,0.1,0.6,0.1,0.1v-0.5v-0.1c0-0.3,0-0.7-0.1-0.4
			c-0.1-6.7,0.1-13.2,0.1-19.7c0-1.5,0-3.7,0-5.4c0.1-5,0.2-9.5,0.1-14.5c0.2,0.9,0.2,1.8,0.2,2.8"/>
		<path class="st2" d="M18.1,26.9c0.2,0,0.8,0,0.3,0.1C18.4,27,18.1,26.9,18.1,26.9"/>
		<path class="st2" d="M33.6,27.3c0,0,0.2,0,0.3,0c-0.2,0-0.3,0-0.5,0C33.4,27.3,33.5,27.3,33.6,27.3"/>
		<path class="st2" d="M37.5,27.3c-0.1,0-0.9,0-1.4,0.1L37.5,27.3z"/>
		<path class="st2" d="M41.2,27.4c0.3,0,0.2,0-0.2,0C41,27.4,41.2,27.4,41.2,27.4"/>
		<path class="st2" d="M41.5,27.4c0.2,0,0.4,0,0.6,0C42.1,27.4,41.4,27.4,41.5,27.4"/>
		<path class="st2" d="M49.5,27.5c0.3,0,0.5,0,0.8,0C50.1,27.5,49.3,27.5,49.5,27.5"/>
		<path class="st2" d="M53.2,27.4c0.1,0,0.2,0,0.3,0s0,0-0.2,0H53.2z"/>
		<polygon class="st2" points="83.1,64.6 83.1,64.2 83.1,64.2 		"/>
		<path class="st2" d="M62.2,72.8c-0.4,0-0.3,0-0.3,0C62.2,72.8,61.7,72.8,62.2,72.8"/>
		<polygon class="st2" points="46.2,73 46.3,73 46.3,73.1 		"/>
		<path class="st2" d="M83.9,74c0.9,0-0.5-0.1,0.6,0C84.3,74,84.1,74,83.9,74"/>
		<path class="st2" d="M84.6,71.1c-0.2-2.8,0-6.4-0.1-9.4c0-0.3,0.1,0.1,0.1-0.7c-0.1-2.9,0-7.5,0-11.1V50c0-0.7-0.1-1.5-0.1-2.2
			c0,0,0,0.2,0.1,0.1s0-1.3-0.1-1.6s0.1-0.2,0.1-0.6l-0.1-0.4c-0.1-1.1,0-2.8-0.1-4.3c0,0.1,0,0.2,0,0.1c-0.1-2.5-0.1-5.7-0.1-8.5
			c0,0.1,0.1,0.2,0.1,0c-0.1-0.6-0.1-1.2-0.1-1.8c0.1-0.3,0-1.3,0-2.2v0.1c-0.1-0.6,0-1,0-1.5v-0.4c0-0.2,0-0.3,0-0.5H84
			c-0.1,0-0.3,0-0.4,0l0,0c-0.5,0-0.8,0-1.2,0l0,0c-0.6-0.1-1.1-0.1-1.7,0c-0.4-0.1,1.1,0,0.5-0.1c-3.6,0.1-7.4,0.1-11,0.1
			c-0.3,0-0.5,0-0.8-0.1c-0.4,0-1.4,0-1.7,0c-0.1,0-0.3,0-0.4,0c-0.7,0-0.7,0.1-1.4,0c0.3,0,0.4,0,0.3-0.1c-0.6,0.1-1.5,0-2.2,0.1
			c0.1,0,0.3,0,0.3,0c-0.8,0.1-1.5,0-2.2,0h0.3c-1.1,0-0.3,0.1-1.3,0.1c0.2,0,0.2,0,0.2,0c-0.9,0.1-2.4,0-3.3,0.1l0,0
			c-1,0-2,0-3.1,0c-0.4,0,0.1-0.1-0.9-0.1c0,0.1-1.8,0-1.2,0.1c-0.9,0-2.3,0-2.9,0c0.4,0-0.4-0.1,0.3-0.1l-0.6,0c0.1,0,0.6,0,0.4,0
			c-0.4,0-1.5,0-1.8,0c-0.7,0-1.3,0.1-2.5,0.1c0.5,0-0.3-0.1,0.1-0.1L44,26.4c-0.4,0-0.1-0.1-0.6,0c0,0-0.2,0-0.4,0
			c-0.6,0-1.1,0-1.7-0.1c-0.2,0,0.6,0,0.2,0c-0.7,0-0.7,0-1.4,0l0,0c-0.5,0-1.3,0-0.8,0.1c0.3,0-0.1,0,0.3,0
			c-0.6,0.1-1.2,0.1-1.8,0.1c0.1,0,0.2,0,0.3-0.1c-0.9,0.1-1.9,0.1-3,0.1c0,0,0.4-0.1,0.5,0c-1.3-0.1-2.8,0.1-3.9,0
			c0.2,0,0.1,0.1,0.1,0c-0.6,0-0.6-0.1-1,0c-0.3,0-0.7,0-1,0c-0.2,0-0.1,0,0.3,0c-0.6,0-3,0.1-4.4,0c-0.4,0-0.8,0.1-1.2,0.1l0.1,0
			c-0.3,0-1.1,0-1.1,0c-0.7,0.1,2.6-0.1,1.7,0c-0.2,0-1.3,0.1-1.1,0c-0.6,0-1.3,0.1-1.9,0c0.2,0,0.5-0.1,0-0.1c-0.9,0-0.3,0-1,0
			h-0.5c0,0-0.8,0-0.5,0c-0.1,0-1.3,0-1.2-0.1l0.1-0.1c-0.4,0-0.6,0.1-1,0.1c0,0-0.1,0-0.1,0c-0.5,0-0.9,0.1-1.4,0.1h-1
			c0,0.1,0,0.3,0,0.4c0,0.1,0,0.3,0,0.4c0,0.6,0.1,1.2,0.1,1.9c0-0.1,0-0.3,0-0.4c0,0.3,0,0.7,0,1c0-0.1-0.1,0.9-0.1,1.4
			s0.1,0.4,0.1,0.5c-0.1,0.6,0.1,1.8,0,2.5c0-0.2-0.1-0.9-0.1-0.4s0.1,1.2,0,2.1l0.1-0.2c-0.1,0.4,0.1,1.4,0,1.3c0,0.3,0,1.1,0.1,1
			c-0.1,1.5,0,3.7-0.1,4.6c0,0.2,0,0.8,0.1,0.7c0-0.4,0-0.5,0-0.6c0,0.1,0,0.2,0,0.3c0,0.5,0,0.8-0.1,0.4c-0.1,1,0.1,1.1,0.1,2.4
			c0-0.1,0,0,0,0.4l0.1,0.7c0,0.9-0.1,0.5-0.1,0.5c0,0.5,0,1,0,1.2l-0.1,0.6c0.1-0.4,0,0.4,0,0.6v-0.2c0,0.3,0,0.6,0,0.9
			c0-0.3,0.1-0.6,0.1-0.9c0,0.2,0,0.6,0,0.9c0,0.4,0,0.8,0,1.1c0,0.2,0,0.4,0,0.6c0,0,0,0.7,0,0.4c0-0.2,0-0.3,0-0.6
			c0,0.3,0,0.5,0,0.8c0,0.4,0.1-0.1,0.1,0.7c0-0.1,0-0.3-0.1-0.4V54h0.1c0,0.1,0,0,0,0.1c0.1,0.2,0,1.2,0.1,1.4c0,0.4,0,0.8,0,1.2
			v-0.1c0,0.5,0,1,0,1.4l0,0c0,0.2,0,0.8,0,1.2c0,0.6-0.2,0.2-0.1,0.9s0.1,1,0.1,0.7c0,1.2,0.1,2.5,0,3.5c0,0.1,0,0.3,0.1,0.4
			c0,1.7,0.1,3.6,0,4.9c0-0.5-0.1,0-0.1,0c0,0.4-0.1,0.5,0,0.6c0,0,0.1,0,0.1-0.5c0,1,0,2.5,0,3.1c0-0.3,0-0.1,0.1,0.2
			c0,0-0.1,0.1-0.1,0.3v0.3c0,0.1,0,0.1,0,0.2h0.1H16H16h0c0.3,0,0.5,0,0.8,0c0.1,0,0.1,0,0.2,0c0.7-0.1,1.3-0.1,2-0.1l0.5,0.1
			c0.3,0,0.7,0,0.2-0.1c1.1,0,1.8,0,2.1,0.1c1.9-0.1,4.5-0.1,6.7-0.1h-0.1c0.6,0,0.3-0.1,0.7,0c-0.2,0,0.4,0.1,0,0.1
			c0.5,0,1.1,0,1.6-0.1c0.1,0-0.4,0-0.3,0c0.4,0,0.8,0,1.3,0c0.2,0,0,0.1-0.1,0.1h0.5c0.6,0.1-1.4,0.1-0.8,0.2h0.5
			c0.4,0.1-1.2,0.1-0.1,0.1c0.5,0,0.9-0.1,0.5-0.2c1.1,0,0.5-0.2,1.6-0.2c0.3,0-0.9,0-0.7,0.1c0.5,0,1.1,0,1.5,0
			c-0.5,0-0.1-0.1,0.3-0.1c0.6,0-0.4,0.1,0.4,0.1c0.1,0,0.9-0.1,0.2-0.1c0.3-0.1,0.8,0,1.3,0c0.3,0.1-0.8,0.1,0.1,0.2
			c-0.1-0.1,1.1-0.1,0.6-0.2c0.4,0,0.4,0.1,0.1,0.1c0.5,0,1.2-0.1,1.4,0l0.2-0.1l0.6,0.1c0.5,0,0.9,0,1.4,0c0.1,0,1.2,0,0.8-0.1
			c-0.4,0-0.7,0-1.1,0c0.4,0,0.8,0,1.3,0h0.1c0.3,0,0.6,0,0.8,0c-0.2,0-0.1,0,0.1,0h0.2c0.9,0,0.2,0.1,1.1,0.1H44c0.1,0,0.4,0,0.8,0
			c0.2,0,0.5-0.1,0.6-0.1c0.2,0,0.5,0,0.7,0l-0.6,0.1c0.3,0.1,0.7,0.1,1.1,0.1c0.4,0,1-0.1,0.4-0.1c0.3,0,0.8,0,0.5,0.1
			c0.7,0-0.1,0,0.5-0.1c0.3,0,1.1,0.1,1.5,0.1l-0.7,0.1h0.4c-0.6,0.1,0.3,0,0,0.1c0.3,0,0.7,0,1,0c-0.9-0.1,1-0.2,0.7-0.2
			c1.2,0,0.7,0.2,2,0.1c-0.2,0,0.4-0.1-0.4-0.1c0.7,0,0.5-0.1,1.4,0c-0.7,0,0.7,0.1-0.2,0.2c-0.2,0-0.4,0-0.7,0
			c0.3,0-0.1,0.1,0.7,0.1c0.3,0,0.7,0,1-0.1c0-0.1-0.7,0-0.4,0c0.5,0.1,1,0.1,1.5,0c-0.6,0-0.7,0-0.7-0.1h0.7h-0.1
			c1.1,0,0.3-0.1,1.4-0.1l0.5,0.1c-0.2,0.1-1.5,0-1.3,0.1c0.7,0,0.9,0,1.6,0h-0.5c0.5,0.1,1,0.1,1.5,0.1c0.5,0,0.1,0,0.2-0.1
			c1.1,0,1.4,0,2.2-0.1c-0.2,0.1,1.3,0,0.5,0.1C60.8,74,60,74,59.2,74c0.4,0.1-0.9,0-1.1,0.1c0.9,0,0.8,0.1,1,0.2s0.5,0,0.6,0
			s-0.2,0-0.2-0.1c1,0,2,0,2.5-0.1c0.3,0,0.2,0.1-0.2,0.1c1.2,0,2.4,0,3.6,0c-0.7-0.1,1.2,0,0.8-0.1S65,74,65.4,74s0,0,0.1,0
			c0.5,0,0.7,0.1,1.2,0c-1.1,0-0.2,0.1-0.4,0.2c0.8,0,0,0,0.7,0l2.6-0.1c1.1,0.1,2.7,0,3.7,0c0.5,0,0.2,0.1,0.7,0.1s-0.5-0.1,0.5,0
			h-0.1c0.7,0,1.3,0,2-0.1l-0.3,0.1c0.2,0,0.3,0,0.5,0c0,0,0.2,0-0.1,0.1c0.6,0.1,1.2,0,1.9,0H78c1.1,0,1.8,0,2.9,0l0,0h0.6
			c-0.2,0.1,0.4,0.1,0.8,0L80.6,74c-0.4,0,0.5-0.1,0.2-0.1c-0.5,0-0.9,0-1.4,0c0.4,0,0.4,0,0.7,0c0.1,0.1-0.4,0.1-0.7,0.1
			c0.2,0,0.3,0,0.5,0c-0.4,0-0.8,0-1.4,0c0.4,0-0.2,0-0.1-0.1c-0.5,0.1-1,0.1-1.4,0.1c-0.6-0.1-1.5,0-2.4,0c0.5-0.1,0.9-0.1,1.4-0.1
			c-0.6,0-0.6,0-1.2,0C74.3,74,73.9,74,73.5,74l0,0c-0.7,0-0.7,0.1-1.6,0.1h-4.2l0,0c-0.6,0.1-2.1,0-3,0.1c-1.5,0-3.1,0-3.9,0
			c-2.5,0-4.8,0.1-7.4,0l0.4-0.1c-0.5,0-0.3,0-0.8,0c0.5,0.1-0.6,0.1-1,0.1c-1.2-0.1-2.7,0-3.7,0l0,0c-1,0.1-2.3,0-3.6,0
			c-0.3,0-0.5-0.1-0.8-0.1c-0.7,0.1-1.1,0.1-2.1,0.1c-0.8,0-2,0-2.8,0c-2.9,0.1-5.8,0-8.8,0.1h-0.2c-2.9,0.1-6.4,0-8.9,0.1l0.2-0.1
			c-0.8,0-1.8,0-1.6,0.1c-0.8,0-1.9,0-2.4,0s-0.6,0-0.9,0h-0.4h-1.2c0-0.8,0-1.4,0-2s0-1,0-1.7V71c0,0.2,0.1,0.2,0.1-0.2
			c0-0.6,0-2.1-0.1-1.5c0.1-1.6,0-3.7,0-5.3c0,0.1,0-0.3-0.1-0.4c0-1.4,0.1-2.9,0-4c0-0.2,0.1,0.4,0.1-0.2c0-0.3,0,0-0.1-0.4
			c-0.1-2.3,0.1-4.6,0-6.7c-0.1-3.7,0-7.5,0-11l0,0c-0.1-1.2,0.1-2.8,0-3.7c0-0.3,0-1.1,0.1-0.8c-0.1-0.9,0.1-2.6,0-4
			c0,0.1,0,0.2,0,0.3c0-1.4,0-2.6,0-4c0,0.1,0,0.3,0,0.5c0-0.5,0-1.1,0-1.6c0-0.3,0-0.2,0,0c0-0.6,0-1.3,0-2h4.4h4.1
			c2.4,0.1,0.1,0.2,2,0.1c0.2,0,0.1,0,0.1,0c0.7,0,1.1,0.1,1.6,0.1c-0.2-0.1,0.3,0,0.4-0.1c1.4,0,1.7,0.1,2.9,0.1h-0.1
			c1.3-0.1,2.9,0,4-0.2L56,25.8c7.1,0,14,0,21.2,0c1.2,0.1,2.4,0.1,3.7,0c-0.1,0-0.2,0-0.1,0s1.3,0,1.5-0.1h2.5c0,2,0,4,0,6.2
			c0-0.4-0.1-0.6-0.1-0.1v0.5v0.1c0,0.3,0,0.7,0.1,0.4c0.1,6.9-0.1,13.7-0.1,20.4c0,1.6,0,3.9,0,5.6c-0.1,5.2-0.2,9.8-0.1,15
			c-0.2-0.9-0.3-1.9-0.2-2.8"/>
		<path class="st2" d="M82.9,74.1c-0.2,0-0.8-0.1-0.3-0.1C82.7,73.9,83,74,82.9,74.1"/>
		<path class="st2" d="M66.9,73.7c0,0-0.2,0-0.3,0c0.2,0,0.4,0,0.5,0C67.1,73.7,67,73.7,66.9,73.7"/>
		<path class="st2" d="M62.8,73.7c0.5-0.1,1-0.1,1.5-0.1L62.8,73.7z"/>
		<path class="st2" d="M59,73.5c-0.3,0-0.2,0,0.2,0C59.2,73.5,59.1,73.5,59,73.5"/>
		<path class="st2" d="M58.7,73.6c-0.2,0-0.4,0-0.6,0C58.1,73.6,58.8,73.6,58.7,73.6"/>
		<path class="st2" d="M50.4,73.5c-0.3,0-0.5,0-0.8,0C49.8,73.5,50.6,73.5,50.4,73.5"/>
		<path class="st2" d="M46.6,73.5c-0.1,0-0.2,0-0.3,0s0,0,0.2,0H46.6z"/>
		<polygon class="st2" points="15.6,35 15.7,35.4 15.6,35.4 		"/>
		<path class="st2" d="M37.3,26.5c0.4,0,0.3,0,0.4,0C37.3,26.5,37.8,26.5,37.3,26.5"/>
		<polygon class="st2" points="53.9,26.3 53.7,26.3 53.8,26.2 		"/>
		<path class="st2" d="M16.4,49.1c-0.2,0,0.1,0.1-0.2,0C16.3,49.1,16.4,49.1,16.4,49.1"/>
		<path class="st2" d="M82.4,49.2c-0.8,0.2-1.8,0-2.7,0.1c-0.1,0,0-0.1-0.2-0.1c-1.1,0.1-2.1,0.1-3.2,0h0.1c-0.2,0-0.4,0.1-0.6,0.1
			c0,0,0.1,0,0,0s-0.4,0-0.5,0.1s-0.1-0.1-0.2-0.1L75,49.2c-0.4,0.1-0.8,0.1-1.2,0.1c0,0,0.1,0,0,0c-0.7,0.1-1.6,0.1-2.4,0.1
			c0,0,0.1-0.1,0-0.1s-0.3,0.1-0.5,0.1s-0.4,0-0.6,0l0,0c-0.2,0.1-0.3,0-0.4,0l-0.1,0c-0.1,0.1-0.3,0-0.4,0l0,0c-0.2,0-0.2,0-0.4,0
			l0,0c-0.3,0-0.5,0-0.5,0s0.3,0,0.1-0.1c-1,0.1-2.1,0.1-3.2,0.1c-0.1,0-0.2,0-0.2-0.1c-0.2,0-0.3,0-0.5,0c0,0-0.1,0-0.1,0
			c-0.2,0-0.2,0.1-0.4,0c0.1,0,0.1,0,0.1-0.1c-0.2,0-0.4,0.1-0.6,0.1c0,0,0.1,0,0.1,0c-0.2,0.1-0.4,0-0.6,0H63c-0.3,0-0.1,0.1-0.4,0
			c0.1,0,0,0,0.1,0c-0.3,0-0.6,0.1-1,0.1l0,0c-0.3,0-0.6,0-0.9,0c-0.1,0,0-0.1-0.3-0.1c0,0.1-0.5,0-0.3,0.1c-0.3,0-0.6,0-0.8,0
			c0.1,0-0.1-0.1,0.1-0.1h-0.2c0,0,0.2,0,0.1,0c-0.2,0-0.3,0-0.5,0c-0.2,0.1-0.5,0.1-0.7,0.2c0.2,0-0.1-0.1,0-0.1l-0.5,0.2
			c-0.1,0,0-0.1-0.2,0s-0.1,0-0.1,0s-0.5,0-0.5-0.1s0.2,0,0,0s-0.2,0-0.4,0l0,0c-0.1,0-0.4,0-0.2,0.1s0,0,0.1,0
			c-0.2,0.1-0.3,0.1-0.5,0.1c0.1,0,0.1,0,0.1,0c-0.3,0.1-0.6,0.1-0.8,0.1c0,0,0.1-0.1,0.2,0c-0.4-0.1-0.8,0.1-1.1,0c0,0,0,0.1,0,0
			c-0.2,0-0.2-0.1-0.3,0s-0.2,0-0.3,0s0,0,0.1,0c-0.4,0-0.8,0-1.2,0c-0.1,0-0.2,0.1-0.3,0.1l0,0c-0.1,0-0.3,0-0.3,0
			c-0.2,0.1,0.8,0,0.5,0c-0.1,0-0.4,0.1-0.3,0c-0.2,0-0.4,0-0.5,0c0,0,0.2-0.1,0-0.1s-0.1,0-0.3,0h-0.1c0,0-0.2,0-0.1,0
			s-0.4,0-0.3-0.1v-0.1c-0.1,0-0.2,0-0.3,0.1l0,0c0,0-0.3,0-0.4,0.1c-0.2,0-0.5,0-0.7-0.1c-0.2,0-0.4,0-0.6,0c0,0,0.1,0,0.1,0
			c-0.1,0-0.2,0-0.3,0c-0.1,0-0.3-0.1-0.4-0.1c-0.2,0-0.1,0.1-0.1,0.1s-0.5,0.1-0.7,0c0.1,0,0.3,0,0.1-0.1s-0.3,0.1-0.6,0l0.1,0.1
			c-0.1,0-0.4,0-0.4,0s-0.3,0-0.3,0c-0.4,0-0.9,0-1.3-0.1c-0.1,0-0.2,0-0.2,0s0.2,0,0.2,0s-0.1,0-0.1,0s-0.2,0-0.1-0.1
			c-0.3,0-0.3,0.1-0.7,0.1c0,0,0,0-0.1,0l-0.2,0.1c-0.2,0-0.2-0.1-0.2-0.1c-0.1,0-0.2,0-0.4,0l-0.2-0.1c0.1,0-0.1,0-0.2,0h0.1
			c-0.1,0-0.2,0-0.2,0c0,0,0.2,0,0.3,0.1c-0.1,0-0.2,0-0.3,0s-0.2,0-0.3,0s-0.1,0-0.2,0s-0.2,0-0.1,0c0.1,0,0.1,0,0.2,0
			c-0.1,0-0.1-0.1-0.2,0s0,0.1-0.2,0.1l0.1-0.1h-0.2v0l0,0c0,0-0.3,0-0.4,0.1c-0.1,0-0.2,0-0.3,0l0,0c-0.1,0-0.3,0-0.4,0l0,0
			c-0.1,0-0.2,0-0.3,0c-0.2,0-0.1-0.2-0.3-0.1s-0.3,0.1-0.2,0.1c-0.3,0-0.7,0-1,0c0,0,0,0-0.1,0c-0.5,0-0.9,0-1.4,0c0.1,0,0,0,0-0.1
			s-0.1,0-0.2,0s0,0.1,0.1,0.1c-0.3,0-0.6,0-0.9,0c0.1,0,0,0,0,0s-0.2-0.1-0.3,0l0,0h-0.1c-0.1,0-0.1,0.1-0.2,0l0,0
			c-0.2,0.1-0.4,0.1-0.6,0.1l-0.2-0.1c-0.1,0-0.2,0-0.1,0.1c-0.2,0-0.4,0-0.6-0.1C33.5,50,32.9,50,32.2,50l0,0c-0.2,0-0.1,0-0.2,0
			c0,0-0.1-0.1,0-0.1c-0.2,0-0.3,0-0.5,0.1s0.1,0,0.1,0s-0.3,0-0.4,0s0-0.1,0-0.1h-0.1c-0.2-0.1,0.4-0.1,0.2-0.2h-0.1
			c-0.1-0.1,0.4-0.1,0-0.1c-0.1,0-0.3,0.1-0.1,0.2c-0.3,0-0.1,0.2-0.5,0.1c-0.1,0,0.3,0,0.2-0.1s-0.3,0-0.4,0c0.1,0,0,0.1-0.1,0.1
			s0.1-0.1-0.1-0.1c0,0-0.2,0.1-0.1,0.1c-0.1,0.1-0.2,0-0.4,0s0.2-0.1,0-0.2c0,0.1-0.3,0.1-0.2,0.2c-0.1,0-0.1-0.1,0-0.1
			c-0.1,0-0.4,0.1-0.4,0l0,0.1L29,49.5c-0.1,0-0.4,0.1-0.4,0s-0.3,0-0.2,0.1s0.2,0,0.3,0c-0.1,0-0.2,0-0.4,0l0,0c-0.1,0-0.2,0-0.2,0
			s0,0,0,0H28c-0.2,0-0.1-0.1-0.3-0.1h0.2c0,0-0.1,0-0.2,0l-0.2,0.1c-0.1,0-0.1-0.1-0.2,0h0.2c0,0-0.1-0.1-0.3-0.1s-0.3,0.1-0.1,0.1
			c-0.1,0-0.2,0-0.1-0.1c-0.2,0,0,0-0.2,0.1c-0.1,0-0.3-0.1-0.4-0.1l0.2-0.1h-0.1c0.2-0.1-0.1,0,0-0.1c-0.1,0-0.2,0-0.3,0
			c0.2,0.1-0.3,0.2-0.2,0.2c-0.3,0-0.2-0.2-0.6-0.1c0.1,0-0.1,0.1,0.1,0.1c-0.2,0-0.1,0.1-0.4,0.1c0.2,0-0.2-0.1,0.1-0.2
			c0,0,0.1,0,0.2,0s0-0.1-0.2-0.1s-0.3,0-0.3,0.1s0.2,0,0.1,0c-0.3,0-0.3-0.1-0.4,0c0.2,0,0.2,0,0.2,0.1h-0.2l0,0
			c-0.3,0-0.1,0.1-0.4,0l-0.1,0c0.1-0.1,0.4,0,0.4-0.1c-0.1,0-0.3,0-0.5,0h0.1c-0.1,0-0.1-0.1-0.4-0.1s0,0,0,0.1
			c-0.3,0-0.4,0-0.6,0.1c0-0.1-0.4,0-0.1-0.1c0.2,0.1,0.5,0.1,0.7,0c-0.1-0.1,0.2,0,0.3-0.1c-0.2,0-0.2-0.1-0.3-0.1
			c-0.1,0-0.1,0-0.2,0c0,0.1,0.1,0.1,0.1,0.1c-0.2,0-0.5,0-0.7,0.1c-0.1,0-0.1-0.1,0-0.1c-0.3,0-0.7,0-1,0c0.2,0.1-0.4,0-0.2,0.1
			s0.3,0.1,0.2,0.1s0,0,0-0.1s-0.2-0.1-0.3,0c0.3,0,0-0.1,0.1-0.2c-0.2,0,0,0-0.2,0c-0.2,0-0.5,0.1-0.7,0.1c-0.4,0-0.7,0-1.1,0
			c-0.1,0,0-0.1-0.2-0.1s0.1,0.1-0.1,0l0,0c-0.1,0-0.5,0-0.6,0.1l0.1-0.1c0,0-0.1,0-0.1,0c0,0-0.1-0.1,0-0.1c-0.2,0-0.4,0-0.5,0
			l0.1,0c-0.3,0-0.5,0-0.8,0l0,0h-0.2c0,0-0.1-0.1-0.2,0l0.5-0.1c0.1,0-0.1,0.1-0.1,0.1c0.1,0,0.3,0,0.4,0c-0.1,0-0.1,0-0.2,0
			c0-0.1,0.1-0.1,0.2-0.1s-0.1,0-0.1,0c0.1,0,0.3,0,0.4,0c-0.1,0,0.1,0,0,0.1s0.2-0.1,0.4-0.1s0.4,0,0.7,0c-0.1,0.1-0.3,0.1-0.4,0.1
			c0.2,0,0.2,0,0.4,0c0.1-0.1,0.2-0.1,0.4-0.1l0,0c0.2,0,0.2-0.1,0.4-0.1h1.2l0,0c0.3,0,0.6-0.1,0.9-0.1c0.4,0,0.7,0,1.1,0
			c0.7,0,1.4-0.1,2.1,0L25.1,49c0.1,0,0.1,0,0.2,0c-0.2,0,0.2-0.1,0.3-0.1c0.3,0.1,0.7,0.1,1.1,0.1l0,0c0.3,0,0.7,0,1,0
			c0.1,0,0.1,0.1,0.2,0.1C28,49,28.2,49,28.4,49c0.3,0,0.5,0,0.8,0c0.8-0.1,1.7,0,2.5-0.1l0.1,0.1c0.8-0.1,1.8,0,2.5-0.1l-0.1,0.1
			c0.2,0,0.5,0,0.5-0.1c0.2,0,0.6,0,0.7,0c0.2,0,0.3,0,0.5,0c0.4,0,0.7,0,1.1,0h-0.1c0,0,0,0.1,0.1,0.1s0.6,0,0.4-0.1
			c0.5,0.1,1.1,0,1.5,0c0,0,0.1,0,0.1-0.1c0.4,0,0.8,0,1.1,0c0.1,0-0.1,0,0.1,0s0,0,0.1,0c0.7,0,1.3,0,1.9,0c1.1-0.1,2.2,0,3.2,0
			l0,0c0.3-0.1,0.8,0.1,1.1,0c0.1,0,0.3,0,0.2,0c0.3-0.1,0.8,0,1.1,0h-0.1c0.4,0,0.7,0,1.2,0c0,0-0.1,0-0.1,0c0.2,0,0.4-0.1,0.5,0
			s0.1,0,0,0c0.9,0,1.9,0,2.8,0c0.7,0.1,0,0.2,0.6,0.1l0,0c0.2,0,0.3,0.1,0.5,0.1c-0.1-0.1,0.1,0,0.1-0.1c0.3,0,0.6,0,0.8,0l0,0
			c0.4-0.1,0.8,0,1.2-0.2c2.1,0,4.1-0.1,6.2-0.1s4,0,6.1,0c0.3,0.1,0.7,0.1,1,0l0,0c0,0,0.4,0,0.4-0.1c0.8,0,1.5,0,2.2,0
			c-0.1,0-0.2,0.1,0,0.1h0.2l0,0c0.1,0,0.2,0,0.1-0.1c2-0.1,3.9,0.1,5.8,0.1c0.5,0,1.1,0,1.6,0c1.4,0.1,2.9,0.1,4.3,0.1
			c-0.2,0.2-0.5,0.2-0.8,0.2"/>
		<path class="st2" d="M16.7,49.1C16.8,49.1,17,49.1,16.7,49.1C16.7,49.3,16.7,49.1,16.7,49.1"/>
		<path class="st2" d="M21.3,49.5C21.3,49.5,21.4,49.5,21.3,49.5C21.4,49.5,21.3,49.5,21.3,49.5C21.2,49.5,21.2,49.5,21.3,49.5"/>
		<path class="st2" d="M22.5,49.5c-0.1,0-0.3,0.1-0.4,0.1L22.5,49.5z"/>
		<path class="st2" d="M23.6,49.6C23.7,49.6,23.7,49.6,23.6,49.6C23.4,49.6,23.5,49.6,23.6,49.6"/>
		<path class="st2" d="M23.7,49.5c0.1,0,0.1,0,0.2,0C23.8,49.5,23.6,49.5,23.7,49.5"/>
		<path class="st2" d="M26,49.6c0,0,0.2,0,0.2,0S25.9,49.6,26,49.6"/>
		<path class="st2" d="M27.1,49.6L27.1,49.6C27.3,49.6,27.2,49.6,27.1,49.6L27.1,49.6z"/>
		<polygon class="st2" points="47.2,49.5 47.1,49.5 47.1,49.5 		"/>
		<path class="st2" d="M56,49.5C56.1,49.5,56.1,49.5,56,49.5C56.1,49.5,56.1,49.5,56,49.5"/>
		<polygon class="st2" points="60.8,49.3 60.7,49.3 60.7,49.2 		"/>
		<path class="st2" d="M83,42.4c0.2,0-0.1,0,0.1,0C83.1,42.5,83,42.5,83,42.4"/>
		<path class="st2" d="M43.4,48.2c-0.1-0.6-0.1-1.2-0.1-1.9c0-0.1,0.1,0,0.1-0.1c-0.1-0.7-0.1-1.5,0-2.2l0,0c0-0.1-0.1-0.3-0.1-0.4
			s0,0,0,0s0-0.3-0.1-0.3s0.1,0,0.1-0.1l-0.1-0.1c-0.1-0.1-0.1-0.2-0.1-0.4c0-0.1,0-0.3,0-0.4h0.1l0,0c0.3,0,0.5-0.1,0.8-0.1h0.9
			c0,0,0,0,0,0.1s0.2-0.1,0.3-0.1s0.3-0.1,0.4,0l0,0c0.1-0.1,0.2,0,0.3,0H46c0.1-0.1,0.2,0,0.3,0l0,0c0.1,0,0.2,0,0.2,0l0,0
			c0.2,0,0.3,0,0.3,0s-0.2,0-0.1,0.1c0.7-0.1,1.5-0.1,2.2-0.1c0.1,0,0.1,0,0.2,0.1c0.1,0,0.2,0,0.3,0h0.1c0.1,0,0.2-0.1,0.3,0
			c0,0-0.1,0,0,0.1c0.1,0,0.3-0.1,0.4-0.1c0,0-0.1,0,0,0s0.3,0,0.4,0h0c0.2,0,0.1-0.1,0.3-0.1c0,0,0,0,0,0c0.2,0,0.4-0.1,0.7-0.1
			l0,0c0.2,0,0.4,0,0.6,0c0.1,0,0,0.1,0.2,0.1c0-0.1,0.3,0,0.2-0.1c0.2,0,0.4,0,0.6,0c-0.1,0,0.1,0.1-0.1,0.1h0.1c0,0-0.1,0-0.1,0
			s0.3,0,0.4,0c0.2-0.1,0.3-0.1,0.5-0.2c-0.1,0,0.1,0.1,0,0.1l0.3-0.2c0.1,0,0,0.1,0.1,0s0,0,0.1,0s0.3,0,0.3,0.1s-0.1,0,0,0
			s0.1,0,0.3,0l0,0c0.1,0,0.3,0,0.2-0.1s0,0-0.1,0c0.1,0,0.2-0.1,0.4-0.1c0,0,0,0-0.1,0.1c0.2-0.1,0.4-0.1,0.6-0.1
			c0,0-0.1,0.1-0.1,0c0.3,0,0.5-0.1,0.8,0l0,0c0,0,0.1,0.1,0.2,0s0.1,0,0.2,0s0,0-0.1,0c0.3,0,0.6,0,0.9,0c0,0,0.2-0.1,0.2-0.1l0,0
			c0.1,0,0.2,0,0.2,0s-0.5,0-0.3,0c0,0,0.2-0.1,0.2,0c0.1,0,0.2-0.1,0.4,0s-0.1,0.1,0,0.1s0,0,0.2,0H59c0,0,0.2,0,0.1,0s0.3,0,0.2,0
			V42c0.1,0,0.1-0.1,0.2-0.1l0,0c0-0.1,0.2,0,0.3-0.1s0.4,0,0.5,0.1c0.1,0,0.3,0,0.4,0c0,0-0.1,0-0.1,0s0.1,0,0.2,0s0.2,0.1,0.3,0.1
			s0.1-0.1,0.1-0.1s0.3-0.1,0.5,0c0,0-0.2,0-0.1,0.1s0.2-0.1,0.4,0v-0.1c0.1,0,0.3,0,0.2,0s0.2,0,0.2,0c0.3,0.1,0.7,0,0.9,0.1
			c0,0,0.2,0,0.1,0s-0.1,0-0.1,0s0,0,0,0s0.2,0,0.1,0.1c0.2,0,0.2-0.1,0.5-0.1c0,0,0,0,0.1,0l0.1,0c0.2,0,0.1,0.1,0.1,0.1
			s0.2,0,0.2,0l0.1,0.1c-0.1,0,0.1,0,0.1,0l0,0c0,0,0.1,0,0.2,0s-0.1,0-0.2,0s0.1,0,0.2,0s0.2,0,0.2,0s0.1,0,0.1,0s0.1,0,0.1,0
			s-0.1,0-0.1,0s0,0.1,0.2,0s0-0.1,0.1-0.1c0,0-0.1,0-0.1,0h0.2v0l0,0c0,0,0.2,0,0.3-0.1s0.2,0,0.2,0l0,0c0.1,0,0.2,0,0.3,0l0,0
			c0.1,0,0.1,0,0.2,0c0.1,0,0.1,0.2,0.2,0.1s0.2-0.1,0.2-0.1c0.2,0,0.5,0,0.7,0c0,0,0,0,0.1,0c0.3,0,0.7,0,1,0c-0.1,0,0,0,0,0.1
			s0.1,0,0.1,0s0-0.1-0.1-0.1c0.2,0,0.4,0,0.6,0c-0.1,0,0,0,0,0s0.1,0.1,0.2,0.1l0,0h0.1c0,0,0-0.1,0.2,0s0,0,0,0c0.1,0,0.3,0,0.4,0
			l0.1,0.1c0.1,0,0.1,0,0.1-0.1c0.1,0,0.3,0,0.4,0.1c0.4,0,0.8,0,1.2,0l0,0c0.1,0,0.1-0.1,0.1,0s0.1,0.1,0,0.1
			c0.2,0,0.2-0.1,0.3-0.1s-0.1,0-0.1,0s0.2,0,0.2,0s0,0.1,0,0.1h0.1c0.1,0.1-0.3,0.1-0.2,0.2h0.1c0.1,0.1-0.2,0.1,0,0.1
			s0.2-0.1,0.1-0.2c0.2,0,0.1-0.2,0.3-0.2c0.1,0-0.2,0-0.1,0.1s0.2,0,0.3,0c-0.1,0,0-0.1,0-0.1s-0.1,0.1,0.1,0.1s0.2-0.1,0-0.1
			c0.1-0.1,0.2,0,0.3,0s-0.2,0.1,0,0.2c0,0,0.2-0.1,0.1-0.2c0.1,0,0.1,0.1,0,0.1s0.2-0.1,0.3,0v-0.1l0.1,0.1c0.1,0,0.3-0.1,0.3,0
			s0.2,0,0.2-0.1s-0.2,0-0.2,0c0.1,0.1,0.2,0,0.2,0l0,0c0,0,0.1,0,0.2,0s0,0,0,0l0,0c0.2,0,0,0.1,0.2,0.1h-0.1c0.1,0,0.1,0,0.2,0
			c0,0,0.1-0.1,0.1-0.1c0.1,0,0,0,0.1,0l-0.1,0.1c0,0,0.1,0.1,0.2,0.1s0.2-0.1,0.1-0.1c0.1,0,0.2,0,0.1,0.1c0.2,0,0,0,0.1-0.1
			s0.2,0.1,0.3,0.1l-0.1,0.1h0.1c-0.1,0.1,0.1,0,0,0.1c0.1,0,0.1,0,0.2,0c-0.2-0.1,0.2-0.1,0.1-0.2c0.2,0,0.2,0.2,0.4,0.1
			c0,0,0.1-0.1-0.1-0.1c0.2,0,0.1-0.1,0.3,0c-0.1,0,0.1,0.1,0,0.2c0,0-0.1,0-0.1,0s0,0.1,0.1,0.1s0.2,0,0.2-0.1s-0.1,0-0.1,0
			s0.2,0.1,0.3,0c-0.1,0-0.2,0-0.2-0.1h0.1l0,0c0.2,0,0.1-0.1,0.3-0.1l0.1,0.1c0,0.1-0.3,0-0.3,0.1s0.2,0,0.3,0h-0.1
			c0.1,0,0.1,0.1,0.3,0s0,0,0-0.1c0.2,0,0.3,0,0.4,0c0,0.1,0.2,0,0.1,0.1c-0.1-0.1-0.3-0.1-0.5,0c0.1,0.1-0.2,0-0.2,0.1
			c0.2,0,0.2,0.1,0.2,0.2c0,0,0.1,0,0.1,0c0,0,0,0,0-0.1c0.2,0,0.3,0,0.5-0.1c0.1,0,0,0.1,0,0.1c0.2,0,0.5,0,0.7,0
			c-0.2-0.1,0.2,0,0.2-0.1s-0.2-0.1-0.2-0.1s0,0,0,0s0.2,0.1,0.2,0c-0.2,0,0,0.1-0.1,0.2c0.2,0,0,0,0.2,0c0.2,0,0.3-0.1,0.5-0.1
			c0.2,0,0.5,0,0.7,0c0.1,0,0,0.1,0.1,0.1s-0.1-0.1,0.1,0l0,0c0.1,0,0.3,0.1,0.4,0l-0.1,0.1c0,0,0.1,0,0.1,0c0,0,0,0,0,0.1
			c0.1,0.1,0.2,0,0.4,0h-0.1c0.2,0,0.4,0,0.6,0v0h0.1c0,0,0.1,0.1,0.2,0l-0.3,0.1c-0.1,0,0.1,0,0-0.1s-0.2,0-0.3,0c0,0,0.1,0,0.1,0
			c0,0.1-0.1,0.1-0.1,0.1s0.1,0,0.1,0c-0.1,0-0.2,0-0.3,0c0.1,0,0,0,0-0.1s-0.1,0.1-0.3,0.1s-0.3,0-0.5,0c0.1-0.1,0.2-0.1,0.3-0.1
			c-0.1,0-0.1,0-0.2,0c-0.1,0.1-0.2,0.1-0.2,0.1l0,0c-0.1,0-0.1,0.1-0.3,0.1s-0.6,0-0.8,0v-0.5c-0.1,0.1-0.4,0-0.6,0.1
			c-0.3,0-0.5,0-0.8,0c-0.5,0-1,0.1-1.5,0l0.1-0.1c-0.1,0-0.1,0-0.2,0c0.1,0-0.1,0.1-0.2,0.1c-0.2,0-0.5,0-0.7,0l0,0
			c-0.2,0-0.5,0-0.7,0c-0.1,0-0.1,0-0.2,0c-0.1,0.1-0.3,0.1-0.4,0.1c-0.2,0-0.4,0-0.6,0c-0.6,0.1-1.2,0-1.7,0.1l0,0
			c-0.6,0.1-1.3,0-1.8,0.1v-0.1c-0.2,0-0.3,0-0.3,0.1c-0.2,0-0.4,0-0.5,0c-0.1,0-0.2,0-0.3,0.1c-0.2,0-0.5,0-0.7,0h0.1
			c0,0,0,0,0-0.1s-0.4,0-0.3,0.1c-0.3-0.1-0.7,0-1,0c0,0,0,0-0.1,0c-0.3,0-0.5,0-0.8,0c0,0,0.1,0,0,0s0,0-0.1,0.1
			c-0.5,0-0.9-0.1-1.3,0c-0.7,0.1-1.5,0-2.2,0l0,0c-0.2,0.1-0.5-0.1-0.7,0s-0.2,0-0.2,0c-0.2,0.1-0.5-0.1-0.8,0h0.1
			c-0.3,0-0.5,0-0.8,0h0.1c0,0-0.3,0.1-0.3,0s0,0,0,0c-0.7,0-1.3,0-2,0c-0.5-0.1,0-0.2-0.4-0.1l0,0c0,0-0.2-0.1-0.3-0.1
			s-0.1,0-0.1,0.1c-0.2,0-0.4,0-0.6,0l0,0c-0.3,0.1-0.6,0-0.8,0.2c-1.5,0-2.9,0.1-4.3,0.1s-2.8,0-4.2,0c-0.2-0.1-0.5-0.1-0.7,0l0,0
			c0,0-0.3,0-0.3,0.1c-0.5,0-1,0-1.6,0c0.1,0,0.1-0.1,0-0.1h-0.1l0,0c-0.1,0-0.1,0-0.1,0.1h-1.2v0.7c0,0.4,0,0.8,0,1.2
			c0,0.4,0,0.7,0,1.1c-0.1,1-0.1,2,0,3c-0.1-0.1-0.2-0.4-0.2-0.6"/>
		<path class="st2" d="M82.8,42.4C82.8,42.4,82.7,42.4,82.8,42.4C82.9,42.3,82.8,42.4,82.8,42.4"/>
		<path class="st2" d="M79.7,42.1C79.7,42.1,79.6,42.1,79.7,42.1C79.6,42.1,79.7,42.1,79.7,42.1C79.7,42.1,79.7,42.1,79.7,42.1"/>
		<path class="st2" d="M78.8,42c0,0,0.2,0,0.3-0.1L78.8,42z"/>
		<path class="st2" d="M78.1,41.9C78,41.9,78.1,41.9,78.1,41.9C78.2,41.9,78.1,41.9,78.1,41.9"/>
		<path class="st2" d="M78,42c0,0-0.1,0-0.1,0C77.9,42,78,42,78,42"/>
		<path class="st2" d="M76.4,41.9c0,0-0.1,0-0.2,0S76.4,41.9,76.4,41.9"/>
		<path class="st2" d="M75.6,42C75.6,42,75.6,42,75.6,42C75.5,42,75.6,42,75.6,42L75.6,42z"/>
		<polygon class="st2" points="61.7,42.1 61.8,42.1 61.8,42.1 		"/>
		<path class="st2" d="M55.6,42.1C55.5,42.1,55.5,42.1,55.6,42.1C55.5,42.1,55.5,42.1,55.6,42.1"/>
		<polygon class="st2" points="52.3,42.2 52.3,42.2 52.3,42.3 		"/>
		<path class="st2" d="M33.6,28.7l2.6,0.1l0,0c0.3-0.1,0.7-0.1,1.1-0.1c0.5,0,0.1,0,0.5,0.1c0.1,0,0.2,0,0.3,0.1c0.1,0,0.2,0,0.3,0
			h0.3c0.1,0,0.2,0,0.3,0.1c0.2,0,0.4-0.2,0.6-0.2c0.7-0.1,1.3-0.1,2,0c0,0.2,0,0.5,0.3,0.5H42c0,0.7,0.2,1.3,0.2,2
			c0,0.5-0.1,0.9-0.4,1.3c-0.3,0.3-0.8,0.2-1.2,0.5h-0.7c-0.3,0-0.6,0.3-0.6,0.6c0,0,0,0,0,0c0,0.2,0.1,0.4,0.3,0.6
			c-0.1,0-0.2,0-0.2-0.1c-0.1,0.1-0.1,0.3-0.1,0.5c0.1,0.4,0.2,0.7,0.2,1.1c0,0.1,0,0.1,0,0.2c0,0.2,0,0.3,0,0.5
			c0,0.4,0.1,0.8,0.1,1.2c0,0.1,0,0.3,0,0.4c-0.1,0.6-0.1,1.1-0.1,1.7c0,0.4,0,0.8,0,1.2c0,0.5-0.3,1-0.3,1.4c0,0.4,0.2,0.7,0.5,1
			c0.1,0,0.2,0.1,0.3,0.1c0.2,0,0.5-0.1,0.8-0.1c0.1,0,0.2,0,0.3,0.1c0.1,0,0.2-0.2,0.3-0.2h0.1c0.3,0.1,0.7,0.1,0.7,0.4v1
			c0,0.4,0,0.9,0,1.3c0,0.5,0,1.1-0.2,1.5c0,0,0,0,0,0c-0.2,0-0.3-0.1-0.5-0.1c-0.1,0-0.1,0.1-0.1,0.2c-0.1-0.1-0.3-0.2-0.4-0.2
			h-0.2c-0.4,0-0.8,0-1.2,0c-0.2,0-0.4,0-0.6,0c-0.5,0-1-0.1-1.4-0.1c-0.4,0-0.8,0-1.1,0.2c0,0-0.1,0-0.1,0c-0.2,0-0.5-0.2-0.6-0.2
			s-0.3,0.1-0.4,0.3c-0.1-0.1-0.1-0.2-0.2-0.2h-1.2h-1.1c-0.3,0-0.5,0-0.8-0.1h-0.1c-0.2,0-0.2,0.2-0.3,0.2s0,0,0,0
			s-0.6-0.2-0.6-0.4c0-0.1,0-0.3,0-0.4c0-0.2,0-0.5,0-0.8c0-0.3,0-0.5,0.1-0.8c0-0.2-0.1-0.4-0.1-0.5c0,0,0-0.1,0-0.1
			c0-0.4,0-0.9,0.2-1.3c0,0,0,0,0.1,0c0.1,0,0.1,0,0.1,0.1c0.1-0.1,0.1-0.2,0.2-0.2c0.3,0,0.8,0.1,1.1,0.1c0.1,0,0.3,0,0.4-0.1
			c0.2-0.1,0.3-0.4,0.3-0.6c0-0.1,0-0.2-0.1-0.3l0.2-0.2c0-0.1-0.1-0.2-0.1-0.3c0-0.2,0.1-0.4,0.1-0.7c0-0.1,0-0.2-0.1-0.3
			c0-0.1,0.1-0.3,0.1-0.4c0-0.1,0-0.1,0-0.2c0-0.5-0.6-0.5-1-0.7l0,0c0,0-0.1,0.3-0.2,0.3h-0.6c-0.2,0-0.4-0.2-0.6-0.1
			c0-0.2-0.3-0.2-0.4-0.4s0,0-0.2,0.1s-0.2,0-0.2-0.1c0,0.1-0.3,0.2-0.4,0.4c-0.2,0-0.4,0-0.6-0.1c-0.4,0-0.7,0.2-0.8,0.5
			c-0.1,0.5-0.2,1-0.2,1.4c0,0.5,0.1,1.1,0.3,1.6c0,0.2,0.4,0.1,0.6,0.3c0.2-0.1,0.4-0.2,0.7-0.2c0.3,0,0.6,0.1,0.8,0.4
			c0.1,0.3,0.1,0.7,0.2,1c0,0-0.2,0-0.2,0.2v2c0,0.2,0,0.7-0.1,0.7c-0.6,0-1.2,0.1-1.8,0.1c0-0.1,0-0.1-0.1-0.1s0,0.1,0,0.1h-1.1
			c0-0.1,0-0.1-0.1-0.1c-0.5,0.1-0.9,0.1-1.4,0.1c-0.9,0-1.9,0-2.8,0.2c0-0.1,0-0.2-0.1-0.2c-0.4,0-0.8,0.1-1.1,0.2
			c-0.2,0-0.1-0.2-0.2-0.2c-0.1,0-0.1,0-0.2,0c-0.3,0.2-0.6,0.3-0.9,0.3c-0.3,0-0.5-0.1-0.6-0.3c-0.1-0.2-0.1-0.5-0.1-0.8
			c0-0.3,0-0.6,0.1-0.8c0-0.1-0.2-0.1-0.2-0.2c0-0.2,0-0.3,0.1-0.4c0-0.2,0-0.3,0-0.5c0-0.1,0-0.2,0-0.3c-0.2,0-0.1-0.2-0.2-0.3
			c0-0.1,0-0.1,0-0.2c0-0.2,0.1-0.4,0.2-0.4c0.3-0.1,0.6-0.1,0.9-0.1c0.3,0,0.6,0,0.9,0.1h0.2c0.1,0,0.2,0,0.2,0.1c0,0,0,0,0,0
			c0.2-0.2,0.6-0.4,0.6-0.7c0-0.7,0-1.4,0-2c0-0.7,0-1.5-0.2-2.2c0-0.1,0.2-0.2,0.2-0.4c0,0,0-0.1,0-0.1c0-0.1-0.2-0.1-0.2-0.2
			c0-0.2-0.1-0.3-0.1-0.5c0-0.5,0.1-1,0.2-1.5c0-0.1-0.2-0.2-0.2-0.2c0.1-0.4,0.2-0.7,0.2-1.1c0-0.4,0-0.7-0.1-1.1
			c0-0.4-0.2-0.4-0.4-0.6c-0.2-0.1-0.3-0.1-0.5-0.1c-0.4,0-0.8,0.1-1.1,0.1c0-0.1,0-0.2-0.1-0.2c-0.3,0-0.5-0.1-0.5-0.4
			c-0.2-1-0.3-2-0.3-2.9c0-0.8,1.8-0.6,2.5-0.7c0,0.1,0,0.1,0,0.2c0,0.2,0.1,0.4,0.3,0.5c0.1,0,0.1-0.1,0.1-0.2s0-0.2,0-0.2
			c0.3-0.1,0.7-0.1,1.1-0.1c0.5,0,0.5,0,1,0c0.2,0,0.4,0,0.6,0c0,0.1,0,0.2,0.1,0.2s0.1-0.2,0.2-0.2c0.1,0,0.1,0,0.2,0
			c0.2,0,0.5,0.2,0.8,0.2s0.1-0.2,0.2-0.2c0.1,0,0.2,0,0.3,0c0.2,0,0.5,0.1,0.7,0.1c0.2,0,0.4-0.1,0.5-0.2c0,0,0.1,0.2,0.2,0.2
			c0.3,0,0.5,0,0.7,0c0.2,0,0.4-0.1,0.6-0.2c0-0.3,0.1-0.4,0.4-0.4c0.3,0,0.6,0.1,0.9,0.3l0.1,0.7l-0.1,0.1l0.1,2.5l-0.1,0.1v0.8
			h-0.1c-0.2,0.1-0.5,0.1-0.7,0.4c-0.1-0.1-0.1-0.2-0.2-0.2s-0.4,0.1-0.5,0.1c-0.1,0-0.3,0-0.4-0.1c-0.1,0-0.2,0.3-0.2,0.4v3.2
			c0,0.3,0.4,0.5,0.7,0.6c0,0,0,0,0,0s0-0.3,0.1-0.3h0.1c0.2,0.1,0.3,0.1,0.5,0.1c0.2,0,0.5-0.1,0.7-0.1c0.1,0,0.2,0.2,0.2,0.2
			c0.1-0.1,0.3-0.1,0.5-0.1c0.2,0,0.4,0.1,0.6,0.1c0.1,0,0.1,0,0.2,0c0.6,0,1.1,0,1.3-0.5s0-1.1,0.1-1.7c0-0.1,0-0.2,0-0.4
			c0-0.1,0-0.2,0.1-0.2c-0.1-0.1-0.1-0.2-0.1-0.4c0-0.2,0-0.3,0-0.4c0-0.2-0.1-0.4-0.2-0.5c-0.2,0-0.4,0-0.7,0c-0.4,0-0.7,0-1.1,0.2
			L31.1,33c0.2,0,0.4,0,0.4,0s0,0,0,0s-0.2-0.1-0.2-0.1l-0.1-0.8l0.1-0.4l-0.3-2l0.2-1l0.2-0.2c0.2,0.1,0.4,0.1,0.5,0.1
			c0.1,0,0,0,0.1,0c0.1,0,0.3,0,0.4,0l0.4,0.3c0.1,0,0.2,0,0.2-0.1s0.4,0,0.4-0.1S33.6,28.7,33.6,28.7 M21.8,29.6
			c-0.1,0-0.1,0.1-0.1,0.2c0,0.1-0.1,0.2-0.1,0.3c0,0.2,0.1,0.4,0.1,0.6c0,0.1,0,0.1,0,0.2c0,0.1,0.2,0.1,0.3,0.1
			c0.1-0.3,0.2-0.5,0.2-0.8c0-0.2,0-0.4-0.1-0.6H21.8z M24,38.2c-0.2,0,0-0.4-0.2-0.4s0,0.4-0.1,0.4s0,0,0.1,0h0.2
			c0,0,0.1,0,0.1,0.1L24,38.2z M27.8,45.7c0.1,0,0.1-0.1,0.1-0.2s-0.2,0.1-0.3,0.2H27.8z M28.5,31.7c0.1,0,0.1-0.1,0.1-0.2
			c0,0,0,0-0.1,0s-0.2-0.2-0.3-0.2s-0.1,0-0.1,0.1h0.2C28.5,31.4,28.5,31.5,28.5,31.7 M28.2,32.3c0.1,0,0.2,0.1,0.2,0
			C28.3,32.3,28.2,32.3,28.2,32.3 M28.9,30.9c0.1-0.1,0.1-0.4,0.4-0.4c0,0,0,0,0-0.1v-0.1v-0.1c0,0,0,0,0,0v0.1c0,0.1,0,0.2-0.1,0.2
			S29,30.6,29,30.6S29,30.8,28.9,30.9 M34,34.2c0.2-0.2,0.5-0.3,0.5-0.6c0,0,0,0-0.1,0s-0.2,0.1-0.3,0.1s-0.1,0-0.1-0.1s0,0.1,0,0.2
			L34,34.2z M34.7,42.4c0,0-0.1-0.1-0.1-0.1c0-0.1,0.2-0.2,0.2-0.3s0,0-0.1,0c-0.2,0-0.3,0.1-0.3,0.3c0,0,0,0.1,0,0.1L34.7,42.4z
			 M34.8,44.3c0-0.1,0-0.1,0-0.1l0,0v0.3V44.3L34.8,44.3z M36.6,32.4c-0.1,0-0.2,0-0.2,0.2L36.6,32.4z M37.9,32.5
			c0,0,0.1,0.1,0.1,0.3l0,0c0-0.2,0.1-0.2,0.1-0.3c0-0.1,0-0.1,0-0.1L37.9,32.5z M38.4,44.1c0.1,0,0.2-0.1,0.2-0.2s0,0,0,0
			s-0.1-0.1-0.2-0.1S38.3,44.1,38.4,44.1 M38.7,31.2c0.2,0,0.2-0.1,0.2-0.2s-0.1-0.2-0.1-0.4c0,0.2-0.2,0.4-0.3,0.5
			C38.6,31.2,38.7,31.2,38.7,31.2 M38.8,30.5C38.8,30.5,38.8,30.5,38.8,30.5C38.9,30.6,38.9,30.5,38.8,30.5 M41.5,46.7
			c0-0.1,0-0.2,0-0.3c0-0.1,0-0.2-0.1-0.3c0,0.1-0.1,0.1-0.1,0.2v0.3C41.3,46.7,41.5,46.7,41.5,46.7"/>
		<path class="st2" d="M54.6,33.7c0,0-0.1-0.1-0.1-0.1c-0.1,0-0.1,0-0.2,0c-0.1,0-0.1,0-0.1,0.1s0.4,0.3,0.4,0.4v0.6
			c0,0.2,0,0.3,0,0.5c0,0.7-0.1,1.5-0.1,2.1c0,0.2-0.1,0.3-0.1,0.5c0,0,0.1,0.1,0.1,0.1c-0.1,0.2-0.3,0.3-0.3,0.5c0,0.1,0,0.1,0,0.2
			c-0.2,0-0.2,0.3-0.3,0.3c-0.2,0.4-0.3,0.9-0.6,1c-0.3,0.2-0.6,0.4-0.9,0.5c-0.2,0-0.3,0.2-0.4,0.3c-0.8,0.3-1.6,0.4-2.4,0.5
			c-0.3,0-0.6,0-0.9-0.1c-0.3-0.1-0.4-0.4-0.4-0.7c0-0.1,0-0.2,0-0.3c0,0,0,0.2,0.1,0.2h0.3c0.2,0,0.4,0,0.4-0.3s-0.3-0.1-0.3-0.3
			s0,0,0,0s-0.1,0.1-0.2,0.2c0-0.1,0-0.2,0-0.2h-0.3c-0.1,0-0.1,0-0.1-0.1c0,0.1,0.1,0.1,0.1,0.1h0.1c0-0.1,0.1-0.1,0.1-0.1
			s-0.2-0.2-0.3-0.3c0,0.3-0.5,0-0.5,0.3c0,0,0,0.1,0,0.1c0,0.1,0.1,0.2,0.2,0.2c-0.2,0.2-0.6,0.2-0.9,0.5c0,0,0,0.1,0,0.1
			c0,0,0,0.1,0.1,0.1c0.3,0,0.5-0.1,0.7-0.3v-0.1c0.1,0.3,0.1,0.7,0.5,0.8c-0.1,0-0.2,0.1-0.3,0.1s0,0,0,0c-0.1-0.2-0.4,0-0.6-0.3
			l0,0c0,0-0.1,0.1-0.2,0.1c-0.3-0.3-0.6-0.5-0.9-0.7c-0.7-0.2-0.9-0.9-1.3-1.4c0.1,0,0.1-0.1,0.1-0.1s0-0.1,0-0.1
			c-0.3-0.3-0.2-0.6-0.5-0.9c0,0,0-0.1,0-0.1c0-0.1,0-0.2,0-0.3s0.1,0,0.1-0.1c-0.1-0.2-0.1-0.4-0.1-0.6c0-0.2,0-0.4,0-0.6v-0.4
			c0,0,0.1,0,0.1-0.1c0-0.3-0.2-0.5-0.2-0.8c0,0,0.1,0,0.1-0.1s-0.1-0.4-0.1-0.5c0-0.1,0-0.2,0.1-0.2c0.2-0.4,0-0.7,0.2-1
			c0-0.1-0.1-0.1-0.2-0.1c0-0.2,0-0.3,0-0.5c0-0.2,0-0.3-0.1-0.5c0,0,0.2-0.1,0.2-0.1s0,0,0-0.1c-0.2-0.2-0.4-0.5-0.7-0.5l0,0
			c-0.1,0-0.2,0.2-0.4,0.2l0,0c-0.2,0-0.3-0.2-0.5-0.2c0.1-0.3,0.2-0.6,0.2-1c0-0.1,0-0.2,0-0.3c0-0.2,0-0.4,0.1-0.6
			c0-0.1-0.1-0.1-0.1-0.2c0,0.1,0.2,0,0.3,0.1s-0.1,0-0.1,0s0,0.2,0,0.3c0,0.1,0,0.1,0,0.2c0.1,0.1,0.2,0.1,0.3,0.1c0,0,0.1,0,0.1,0
			c-0.1,0-0.2-0.1-0.2-0.2c0-0.1,0-0.2,0-0.3c0.2,0.1,0.2,0.2,0.3,0.2s0.1,0,0.2-0.1c0.1-0.1,0.1-0.2,0.1-0.3c0-0.1,0-0.1,0-0.2l0,0
			c0.1,0,0.2,0.2,0.2,0.2c-0.1,0-0.2,0-0.2,0c0,0.1,0,0.2,0.1,0.3h0.2c0,0,0,0,0-0.1V29c0.3-0.1,0.7-0.1,0.9-0.4
			c0-0.1-0.1-0.1-0.1-0.1c0,0,0,0-0.1,0s-0.1,0-0.1,0c-0.1,0-0.1,0.1-0.2,0.1L45,28.5h-0.1c0,0,0.1,0,0.1,0l0,0
			c0.1-0.1,0.3-0.1,0.4-0.1c0.2,0,0.3,0.1,0.5,0.2c0.1-0.1,0.3-0.1,0.3-0.3c0.1,0.1,0.3,0.2,0.5,0.2c-0.1,0.2-0.3,0.5-0.3,0.6
			c0,0.2,0.1,0.3,0.2,0.4c0,0,0.1,0,0.1,0c0.1,0,0.2-0.1,0.2-0.2c0,0,0-0.1,0-0.1c0-0.1,0-0.2-0.1-0.3c0,0,0.1-0.1,0.2-0.1h0.1
			c0,0,0.1-0.1,0.2-0.2s0,0,0,0s-0.1-0.1-0.1-0.1l0,0h0.2c0,0,0,0.1,0,0.1c0,0.1,0.1,0.1,0.1,0.1s0,0,0,0.1c-0.2,0-0.3,0.2-0.4,0.3
			c0,0.1,0.1,0.1,0.2,0.2s0.1,0,0.1-0.1l0.1,0.1c-0.1,0-0.1,0-0.1,0.1c0.1,0.1,0.1,0.1,0.2,0.1c0.1-0.2,0.1-0.6,0.4-0.7
			c0,0.1-0.1,0.2-0.1,0.2s0.3,0.3,0.5,0.3s0.1-0.1,0.1-0.2c0-0.2-0.1-0.4-0.2-0.6h0.3c0,0,0,0.1,0,0.1s0,0.1,0.1,0.1h0.1
			c0.1,0,0.2-0.2,0.3-0.2c0.3,0,0.6,0,0.9,0H50c0.1,0.1,0.1,0.2,0.2,0.3c-0.1,0.1-0.1,0.2-0.1,0.3c0,0.2,0.1,0.3,0.1,0.5
			S50,29.6,50,29.6c0,0.3,0.1,0.6,0.1,0.8c0,0.2,0,0.3-0.1,0.5c-0.1,0.1-0.2,0.2-0.3,0.2c-0.2,0-0.3,0-0.5,0h-0.5
			c-0.2,0.1-0.2,0.2-0.2,0.3c0,0.3,0,0.6,0,0.9c-0.1,0-0.2,0-0.2-0.1c0,0,0,0.1,0,0.1c0,0.1,0.1,0.1,0.1,0.2h0.1c0,0.1,0,0.2,0,0.3
			c0,0.4-0.1,0.8-0.1,1.1c0,0.2,0,0.3,0.1,0.5V35c0,0-0.1,0-0.2-0.1s-0.1,0-0.1,0.1c0,0,0,0.1,0,0.1c0,0.1,0.1,0.1,0.1,0.2
			c0,0,0.1,0,0.1,0c0,0.2,0,0.4,0,0.6c0,0.1,0,0.2,0,0.3c0,0.1,0,0.2,0,0.4c0,0.1,0,0.3-0.1,0.4c0,0.1,0,0.2,0,0.3
			c0,0.2,0.1,0.5,0.2,0.6l-0.1-0.1c0,0-0.1,0-0.1,0.1c0,0,0,0.1,0,0.1s0,0.1-0.1,0.1s-0.1,0.1-0.1,0.1s0,0.1,0,0.2c0,0,0,0.1,0,0.1
			c0,0,0.1,0.2,0.2,0.2c0.1,0,0.1,0,0.1-0.1c0-0.1,0-0.2,0-0.2c0-0.1,0.1-0.2,0.1-0.3c0.1,0,0.2,0,0.2,0.1c-0.1,0-0.1,0.1-0.1,0.2
			c0,0.1,0,0.2,0.2,0.2s0-0.3,0.2-0.3c0.3,0,0.6,0.1,0.9,0.3c0.2,0.1,0.1,0.4,0.3,0.5c0.1,0,0.2-0.2,0.2-0.3s-0.1-0.1-0.1-0.2
			s0.1-0.1,0.1-0.1s0.1,0.2,0.1,0.2c0,0,0.1,0,0.1,0c0,0.1,0,0.2,0,0.3c0,0.1,0,0.1,0,0.2c0,0.1,0,0.3-0.1,0.4
			c0.1,0.1,0.1,0.1,0.2,0.1c0.1,0,0.1,0,0.2-0.1c0-0.1,0-0.1,0-0.1H51c0.1,0,0.1-0.1,0.1-0.2S51,39.1,50.8,39c0.1,0,0.2,0,0.2-0.1
			v-0.3c0,0-0.1,0-0.2,0c0-0.1,0.1-0.2,0.2-0.2c0.1,0,0.1,0.1,0.1,0.1c0,0.1-0.1,0.2-0.1,0.3s0.1,0.1,0.2,0.1c0.1,0,0.2-0.1,0.2-0.2
			c0,0,0,0,0-0.1c0-0.2-0.1-0.3-0.1-0.5c0-0.1,0.1-0.2,0.2-0.2c0,0,0,0,0.1,0c0,0,0,0.1,0.1,0.1s0.4,0,0.4-0.2c0,0,0-0.1,0-0.1
			c0-0.1-0.2-0.1-0.2-0.2c0.1,0,0.1,0,0.1-0.1c0,0,0,0,0,0c0-0.1-0.1-0.1-0.1-0.1c0-0.1,0-0.1,0-0.2c0-0.8,0.1-1.6,0.3-2.4
			c0-0.2-0.1-0.4-0.2-0.6c0-0.2,0-0.4,0.2-0.5l0,0c0-0.1-0.1-0.1-0.1-0.2s0,0,0-0.1c0.1-0.2,0.1-0.5,0.1-0.8c0-0.3,0-0.6,0-0.9
			c0,0,0-0.1,0-0.1c0-0.2-0.1-0.3-0.3-0.4c0,0-0.1-0.1-0.2,0h-0.2c-0.1,0-0.2,0-0.2-0.1h-0.1c-0.1,0-0.2,0-0.3,0
			c-0.1,0-0.2-0.1-0.2-0.1c0,0.1,0,0.1-0.1,0.1s0,0-0.1,0c-0.1-0.1-0.1-0.2-0.1-0.3c0-0.1,0-0.2,0-0.3s0.2,0,0.2-0.1
			c0-0.4,0-0.7,0-1.1c0-0.2,0-0.4,0-0.6c0.1,0.3,0.3,0.5,0.6,0.5h0.1c0,0,0,0.1,0.1,0.1s0.2,0,0.2-0.1c0,0.1,0,0.3,0.1,0.4
			s0.2,0,0.2-0.1s0-0.3,0.2-0.4c0,0,0,0.2,0.1,0.2h0.2c0.1,0,0.1,0,0.1-0.1c0-0.1,0-0.1,0-0.2c0.1,0.1,0.2,0.1,0.3,0.1
			c0,0.2,0.2,0.3,0.2,0.5c0,0,0,0.2,0.2,0.2s0.1-0.1,0.1-0.2s-0.1-0.1-0.2-0.1s0.2-0.1,0.2-0.2s-0.2-0.2-0.3-0.4
			c0.1-0.1,0.1-0.1,0.1-0.2s-0.2-0.3-0.4-0.4s0,0,0,0s-0.1,0.1-0.1,0.1s0.2,0.2,0.2,0.2h0c-0.1,0-0.3-0.2-0.5-0.2
			c0.1,0,0.2,0,0.3-0.1s-0.1-0.1-0.1-0.1s0,0,0.1-0.1s0,0,0,0s0.1,0,0.2,0l0,0c0.1,0.1,0.1,0.3,0.4,0.3c0.1,0,0.2,0,0.2,0v-0.2
			c0.1,0,0.1,0,0.2,0c0.2,0,0.3,0.1,0.4,0.2c0,0,0,0,0.1,0c0.1,0,0.2-0.2,0.4-0.2h0c-0.1,0.1-0.3,0-0.4,0.2c0,0.2,0.1,0.4,0.2,0.5
			c0.1,0,0.2,0,0.3-0.1V30c-0.1-0.1-0.1-0.1-0.2-0.1s0,0,0,0s-0.1,0.1-0.2,0.2c0-0.1-0.1-0.1-0.1-0.1c0,0,0,0,0,0c0,0,0,0.1,0.1,0.1
			c0,0,0,0,0,0c-0.3,0.1-0.5,0.2-0.8,0.4c0,0.1,0.1,0.1,0.2,0.1c-0.1,0.1-0.1,0.3-0.2,0.4c0,0.1,0.1,0.3,0.2,0.3c0,0,0-0.2,0.1-0.2
			c-0.1,0-0.1-0.1-0.1-0.2c0-0.1,0.2-0.2,0.2-0.3c0,0,0-0.1-0.1-0.1h0.1c0.1,0,0.1,0.1,0.1,0.1s0,0,0,0c0.2-0.3,0.5-0.5,0.8-0.5
			c0,0.1,0,0.1-0.1,0.1s0,0.1,0.1,0.1c0.1-0.2,0.4-0.2,0.6-0.5c0-0.1,0-0.1,0-0.2c0-0.1,0-0.1,0-0.2s0-0.1,0-0.1h0.1
			c0.3,0,0.5-0.2,0.5-0.5c0,0,0,0,0,0c0-0.1,0-0.1,0-0.2c0-0.1-0.1-0.2-0.2-0.2c0.1,0,0.2,0,0.2,0.1c0,0,0,0.2,0.1,0.2
			s0.1-0.2,0.2-0.3c0.1,0.2,0.1,0.4,0.1,0.6c0,0.3-0.1,0.7-0.1,1c0,0.2,0,0.4,0.1,0.6c0,0,0,0.1,0,0.2s0,0.1,0.1,0.2
			c-0.1,0.2-0.2,0.3-0.4,0.3c-0.1,0-0.2,0-0.3-0.1h-0.3l0.1-0.1c0-0.1,0-0.1-0.1-0.1h-0.1c-0.1,0.2-0.2,0.3-0.4,0.2h-0.2
			c-0.2,0-0.2,0.3-0.3,0.4c0,0,0,0,0,0.1c0,0,0.1,0.1,0.1,0.1c-0.1,0-0.1,0.1-0.2,0.1c0.1,0.1,0.2,0.2,0.2,0.3c0,0.1,0,0.2,0,0.4
			c0,0.1,0,0.2,0,0.2c-0.1,0-0.2,0-0.2,0.1c0.1,0.1,0.2,0.3,0.2,0.4C54.7,33.5,54.7,33.5,54.6,33.7 M43.7,28.5c0,0-0.1,0-0.1,0
			c-0.1,0-0.2,0-0.3-0.1c0.1,0,0.2-0.1,0.3-0.1c0,0,0.1,0,0.1,0V28.5z M45.7,38.4c0.1,0,0.1,0,0.1-0.1c0,0,0-0.1,0-0.1
			c0,0,0,0-0.1,0c-0.1,0-0.2-0.1-0.3-0.1c0,0-0.1,0-0.1,0h0.1C45.6,38.1,45.6,38.3,45.7,38.4 M46.3,32l0.1,0.1v-0.2
			C46.3,31.9,46.3,31.9,46.3,32 M48,29.6C48,29.6,48,29.6,48,29.6c0-0.1,0.1-0.2,0.1-0.2l0,0h-0.1l0.1,0.1c-0.1,0-0.2,0-0.2,0.1
			c0,0,0,0.1,0,0.1L48,29.6z M48.1,30.4c0,0,0.1-0.1,0.1-0.1s0-0.1-0.1-0.1C48.1,30.2,48,30.3,48.1,30.4C48,30.4,48,30.4,48.1,30.4
			 M49.1,28.7L49.1,28.7L49.1,28.7C49.1,28.7,49.1,28.7,49.1,28.7c0,0.1,0,0.1,0,0.2c0,0.1-0.1,0.1-0.1,0.1c0,0,0,0,0,0.1
			c0.1,0,0.1-0.1,0.1-0.2C49.2,28.8,49.2,28.8,49.1,28.7 M50.7,38.3c0,0,0,0.1,0,0.1s0-0.1-0.1-0.1H50.7z M51,28.7h-0.2H51
			c0,0,0,0,0.1,0.1s0,0.2-0.1,0.2V28.7z M51.6,29C51.6,29,51.6,29.1,51.6,29L51.6,29L51.6,29c0,0-0.2-0.1-0.2-0.2s0.1-0.1,0.2-0.1
			c0,0,0-0.1,0-0.1c0,0,0-0.1,0-0.1l-0.1-0.1c0.1,0,0.3,0.1,0.3,0.2S51.6,28.9,51.6,29L51.6,29z M51.5,37.7c0.1,0,0.1-0.1,0.2-0.2
			C51.6,37.7,51.6,37.7,51.5,37.7 M51.7,29.1L51.7,29.1z M51.7,29.1L51.7,29.1z M51.7,37.6c0-0.1,0.1-0.1,0.2-0.2
			C51.8,37.5,51.7,37.5,51.7,37.6 M52.5,39c0-0.1,0.1-0.1,0.1-0.2c-0.1,0.1-0.2,0.1-0.3,0.2s0,0,0,0s0.1,0,0.1,0.1l-0.1,0.1l0,0
			c0,0,0.1,0,0.1,0s0,0,0,0.1s0.1,0,0.1-0.1S52.5,39.1,52.5,39L52.5,39z M52.3,29.1L52.3,29.1L52.3,29.1
			C52.3,29.1,52.3,29.1,52.3,29.1 M52.7,39.5c0,0.1,0.2,0.1,0.3,0.1s-0.2-0.1-0.2-0.2c0,0-0.2,0-0.2,0.1S52.6,39.5,52.7,39.5
			 M53.7,38.4c0,0.1-0.4,0.1-0.4,0.3h0.2c0.1,0,0.1,0,0.1,0.1c0.1-0.1,0.2-0.2,0.2-0.2s-0.1-0.1-0.1-0.3c0,0-0.1,0-0.1,0
			C53.7,38.3,53.7,38.3,53.7,38.4 M53.5,38.2C53.5,38.2,53.5,38.2,53.5,38.2C53.6,38.2,53.5,38.2,53.5,38.2c0-0.1,0-0.2,0.1-0.2
			s0.1,0,0.1-0.1c-0.1,0-0.2,0-0.3,0.1C53.4,38.1,53.5,38.2,53.5,38.2 M53.5,28.6C53.5,28.6,53.5,28.7,53.5,28.6L53.5,28.6
			c0.1,0.2,0.1,0.3,0.1,0.4c0-0.1,0.1-0.1,0.2-0.1c-0.1,0-0.1-0.1-0.1-0.1c0,0,0-0.1,0-0.2l0,0c-0.1,0-0.1-0.1-0.1-0.1
			S53.6,28.5,53.5,28.6 M53.9,29.3L53.9,29.3L53.9,29.3c0,0,0,0.1,0,0.1c0,0,0,0,0,0.1c-0.1,0-0.1,0.1-0.1,0.2
			c0,0.1,0.1,0.2,0.2,0.2c0,0,0-0.1,0-0.1c0-0.1,0.1-0.2,0.1-0.3c0,0,0-0.1,0-0.1 M54.8,28.8c0,0.1-0.2,0.1-0.3,0.2
			c0-0.1-0.1-0.2-0.2-0.3C54.5,28.7,54.6,28.7,54.8,28.8C54.8,28.7,54.8,28.7,54.8,28.8L54.8,28.8z M54.8,33.8L54.8,33.8
			C54.8,33.8,54.8,33.8,54.8,33.8L54.8,33.8z M55.2,28.8C55.2,28.8,55.2,28.8,55.2,28.8L55.2,28.8c0.1,0.3,0,0.4,0,0.7
			s-0.2,0-0.2,0.1c0,0,0,0,0,0.1c0,0,0,0,0-0.1s0.1-0.1,0.1-0.2l0,0c-0.1-0.1-0.2-0.1-0.2-0.2c0,0,0.1-0.1,0.1-0.1h0.2
			c0,0,0.1,0,0.1-0.1c0,0,0,0,0,0c0-0.1,0-0.1-0.1-0.1C55.1,28.9,55.1,28.8,55.2,28.8c0-0.2-0.1-0.4-0.2-0.4c0.2,0,0.2,0.2,0.4,0.2
			C55.2,28.6,55.2,28.7,55.2,28.8 M54.8,33.5L54.8,33.5L54.8,33.5z M55.3,28.8c0,0,0.1-0.1,0.1-0.1L55.3,28.8L55.3,28.8z M55.6,28.3
			c0-0.1,0.1-0.1,0.2-0.1l0,0c-0.1,0-0.1,0.1-0.1,0.2c0,0.1,0.1,0.2,0.1,0.2c0,0.1-0.1,0.1-0.2,0.1h-0.2
			C55.5,28.7,55.5,28.4,55.6,28.3"/>
		<path class="st2" d="M63.9,40.9c0-0.1,0-0.2-0.1-0.2c-0.3,0.1-0.5,0-0.7,0.1c0,0-0.2,0.1-0.3,0.1s0-0.1-0.1-0.1s-0.3,0-0.6,0.1
			c0-0.1,0-0.1-0.1-0.2c-0.1,0.1-0.3,0.1-0.3,0.2c0,0-0.1,0-0.1,0c-0.1,0-0.2-0.1-0.4-0.1h-0.1c0,0-0.1-0.1-0.2-0.1s0,0.1-0.1,0.1
			c-0.5,0-0.9,0-1.3,0h-0.4c-0.1,0-0.1,0-0.2,0c0-0.1,0-0.2-0.1-0.2h-0.2c0,0,0,0.1,0,0.2c0-0.1-0.1-0.1-0.2-0.1
			c-0.2,0-0.3,0.2-0.5,0.2c0,0-0.1,0-0.1,0c0.1,0,0-0.2,0.1-0.2S58,40.7,58,40.7c-0.1,0.1-0.1,0.2-0.1,0.2c0,0.1,0,0.1,0,0.2
			c-0.1-0.1-0.2-0.3-0.2-0.4c0-0.1,0-0.2,0-0.3s0.1,0,0.1-0.1c-0.1-0.4-0.2-0.8-0.1-1.2c0-0.1,0.1-0.1,0.1-0.1s-0.1-0.1-0.1-0.1
			c0-0.2,0-0.4,0.1-0.6c0.1,0,0,0.3,0.2,0.3c0,0,0.1,0,0.1,0c0,0,0,0,0,0c0,0,0-0.1,0-0.1c0,0,0,0,0-0.1c0.2,0,0.3-0.1,0.5-0.1h0.6
			c0.3,0,0.5-0.1,0.8-0.2c-0.2-0.8-0.2-1.7-0.2-2.5c0,0,0.2-0.2,0.2-0.3c-0.1-0.3-0.1-0.6-0.1-0.9c0-0.4,0-0.9,0-1.3c0,0,0,0,0-0.1
			s-0.1-0.3-0.1-0.5s0.1-0.2,0.1-0.2s0-0.2,0-0.3c0-0.1,0-0.1,0.1-0.2c-0.2-0.1-0.2-0.2-0.3-0.3s-0.3,0-0.5,0c-0.4,0-0.7,0-1,0
			c-0.1,0-0.3-0.1-0.3-0.2s0-0.3,0-0.5c0-0.3,0.1-0.6,0.2-0.8c0,0,0,0-0.1,0s-0.1,0-0.1,0v-1.1c0,0.1,0,0.1,0,0.1s0.4-0.1,0.4-0.2
			c0,0-0.1-0.1-0.1-0.2c0-0.1,0.2,0,0.2-0.1c0.1,0.1,0.1,0.1,0.2,0.1c0.2,0,0.3-0.1,0.5-0.1s0.2,0.2,0.4,0.2s0-0.1,0.1-0.1
			c0.6,0,1,0,1.6,0c0.1,0,0.2-0.1,0.3-0.1c0.1,0.1,0.2,0.1,0.3,0.1c0.2-0.1,0.5-0.2,0.7-0.2c0.5,0.1,1.1,0.2,1.7,0.2
			c0.4,0,0.8,0,1.3-0.1h0.3h0.1c0.1,0.3,0.2,0.7,0.2,1c0,0.3,0,0.5,0,0.8c0,0.1,0,0.3,0,0.4c0,0,0,0.1,0,0.1c0,0.2-0.1,0.3-0.2,0.4
			c-0.1,0-0.2,0.1-0.3,0.1c-0.4,0-0.7-0.2-1.1-0.2c-0.2,0-0.5,0.2-0.5,0.5s-0.1,0.5-0.1,0.7c0,0.2,0,0.4,0.1,0.6
			c0,0.1-0.1,0.2-0.1,0.3c0,0.1,0,0.2,0,0.2c0,0.3-0.1,0.6-0.1,0.8s0.1,0.4,0.1,0.6s0,0.4,0,0.7s0,0.3,0,0.5s0,0.6,0,0.9
			c0,0.1,0,0.3,0,0.4c0,0.2,0,0.4,0,0.5c0.1,0.2,0.3,0.4,0.6,0.4h0.1c0.2-0.1,0.3-0.1,0.5-0.1c0.2,0,0.4-0.1,0.7-0.1
			c0.1,0,0.1,0,0.1,0.1c0,0,0,0.1,0,0.1c0,0.3,0,0.6,0,0.9c0,0.5,0,0.9-0.1,1.4c0,0.2-0.2,0.3-0.4,0.3c-0.2,0-0.4,0-0.6-0.1
			L63.9,40.9z M61,35.3c-0.1,0.1-0.2,0.1-0.2,0.2c0,0,0,0,0,0.1H61V35.3z M61.3,37.2c-0.2,0.1-0.1,0.2-0.1,0.3
			c0.1-0.1,0.1-0.2,0.2-0.2l0,0C61.4,37.4,61.4,37.3,61.3,37.2 M61.6,33.7c0.1,0,0.1-0.1,0.1-0.1L61.6,33.7L61.6,33.7
			C61.5,33.6,61.5,33.7,61.6,33.7 M62,34.4C62,34.4,62,34.4,62,34.4C62,34.5,62,34.4,62,34.4c0-0.2,0-0.1,0-0.2c0,0,0-0.1-0.1-0.1
			c0,0,0,0,0,0c0,0.1-0.1,0.1-0.2,0.1C61.9,34.2,62,34.3,62,34.4 M62.4,33.3c0.2,0,0.6,0,0.6-0.1c-0.2-0.2-0.4-0.6-0.6-0.6
			s-0.2,0.3-0.2,0.3C62.2,33,62.3,33.2,62.4,33.3 M64,40h-0.1c0,0,0,0.2,0.1,0.2V40z"/>
		<path class="st2" d="M67.5,41.1c0,0.1-0.1,0.1-0.2,0.1c-0.2-0.1-0.4-0.3-0.4-0.5c0-0.7,0-1.3,0-2c0-0.6,0-1.2,0.1-1.8
			c0.1-0.4,0.5-0.6,0.9-0.6c0.2,0,0.4,0.1,0.6,0.1c0.2,0,0.3,0,0.5-0.1c-0.3-0.5-1-0.8-1.2-1.1c-0.1-0.2-0.3-0.2-0.3-0.4
			c0,0,0,0,0-0.1c0-0.1-0.2-0.1-0.3-0.2c-0.2-0.4-0.2-0.8-0.2-1.2c0,0,0-0.1,0.1-0.1H67c-0.1-0.3-0.2-0.5-0.2-0.8
			c0.1-0.8,0.4-1.6,0.9-2.3c0.1-0.2,0.2-0.4,0.3-0.5c0.5-0.2,0.8-0.6,1.3-0.7c0.2-0.1,0.4-0.2,0.6-0.4c0,0.1,0.1,0.1,0.2,0.2
			c0.3-0.2,0.3-0.1,0.7-0.1c0.1-0.2,0.5-0.1,0.6-0.1l-0.2,0.2c0,0.1,0,0.1,0.1,0.1c-0.1,0.1-0.2,0.3-0.2,0.5c0,0.2,0,0.4,0.1,0.5
			h-0.1C71.1,29.8,71,29.8,71,30s0.2,0.1,0.2,0.1c0.1-0.2,0.1-0.2,0.3-0.3c-0.1,0,0-0.2-0.1-0.2c0-0.1,0-0.1,0-0.2
			c0-0.2,0.1-0.4,0.1-0.6c0.1,0,0.2,0,0.2-0.1s0-0.1-0.1-0.1c0.2,0,0.4,0,0.6-0.1v0.2c0,0,0,0.1,0.1,0.1l0,0
			c0.1-0.1,0.1-0.2,0.2-0.2h0.1c0,0.1,0,0.1,0.1,0.1H73c0.1,0,0.1,0,0.1-0.1s0,0,0.1,0s0.3,0.2,0.4,0.2c0.3,0.4,0.7,0.2,0.8,0.7
			c0,0,0,0,0.1,0c0.1,0,0.2,0.1,0.3,0.1s0,0,0.1-0.1c0.1-0.3,0.1-0.7,0.1-1c0-0.1,0.2,0,0.2-0.1c0.1,0,0.3-0.1,0.4-0.1
			c0.2,0,0.5,0.1,0.7,0.1c0.1,0,0.3,0,0.4-0.1c0.1,0.2,0.4,0,0.5,0.2c0-0.1,0-0.2,0.1-0.2s0.4,0.2,0.4,0.3c0,0.3,0,0.6-0.2,0.8
			c0,0.2,0,0.3,0,0.5c0,0.3,0.1,0.6,0.1,0.9c0.1,0.4,0.1,0.9,0.1,1.3c0,0.1,0,0.2,0,0.3c0,0.2-0.1,0.5-0.3,0.5
			c-0.3,0.1-0.6,0.2-0.9,0.1h-0.5c-0.2,0-0.8,0-0.8,0.2s0.2,0.2,0.3,0.3c0,0,0,0,0-0.1c0-0.1,0.1-0.2,0.1-0.2c0,0,0.1,0,0.1,0
			c0.8,0.3,1.5,0.9,2,1.7c0.4,0.7,0.6,1.6,0.6,2.4c0,0,0,0.1-0.1,0.1c0,0,0,0,0,0c0.1,0,0.1,0,0.1,0.1c-0.1,0.2-0.2,0.5-0.4,0.7
			h-0.2l0,0c0,0,0.2,0.1,0.2,0.2l0,0c-0.2,0.3-0.4,0.6-0.6,1c-0.1,0.3-0.3,0.4-0.7,0.5c0,0-0.1,0-0.1,0c-0.1,0-0.1-0.1-0.1-0.3
			s0-0.2,0.1-0.2c0.1,0,0.1,0.1,0.2,0.1c-0.1-0.1-0.1-0.2-0.2-0.2c0,0,0,0-0.1,0c0,0,0,0.1,0,0.1c0,0.2-0.1,0.3-0.1,0.5
			s-0.4,0.3-0.6,0.5h-0.3c-0.2,0.1-0.5,0.2-0.7,0.2c-0.1,0-0.1-0.1-0.1-0.1c-0.2,0-0.3,0.2-0.4,0.2c-0.1,0-0.1-0.1-0.2-0.1
			c0,0.1,0,0.2-0.1,0.2c-0.1,0-0.2,0-0.2,0s0,0,0,0c-0.1,0-0.2,0-0.3,0.1c-0.1,0-0.1-0.1-0.2-0.1c-0.2,0-0.3,0-0.5,0
			c-0.3,0-0.5-0.1-0.5-0.4l0,0c0,0.1-0.2,0.2-0.3,0.2c-0.1,0-0.1,0-0.2-0.1c-0.1,0-0.2,0.1-0.3,0c-0.3,0-0.6-0.1-0.8-0.4l0,0
			c0,0,0.2,0,0.2-0.1c-0.1,0.1-0.2,0.1-0.2,0.1c-0.4-0.1-0.7-0.3-1-0.5c0-0.1,0.2-0.1,0.2-0.1s-0.1,0-0.1,0c-0.2,0-0.2,0.3-0.2,0.4
			c0,0.3,0,0.9-0.2,0.9c-0.1,0.1-0.2,0-0.3,0.2c-0.1-0.1-0.2-0.1-0.3-0.1c-0.1,0-0.3,0-0.4,0s-0.2-0.1-0.2-0.1s-0.5,0-0.5,0
			L67.5,41.1z M67.7,30.9c0,0,0.1,0.1,0.1,0s0-0.1,0-0.1C67.8,30.8,67.7,30.8,67.7,30.9 M67.6,33.7c0,0.2,0,0.3,0.2,0.3h0.1
			c0-0.1,0-0.2-0.2-0.2S67.7,33.7,67.6,33.7 M69.1,32.3c0.2,0.1,0.3,0,0.4,0c-0.1-0.1-0.2,0-0.3,0l0,0c-0.1,0.1-0.2,0.2-0.3,0.1
			s-0.1,0.1-0.1,0.2l0,0c0.1-0.1,0.2,0.1,0.3,0S69.2,32.5,69.1,32.3 M69.8,31.4C69.7,31.4,69.7,31.4,69.8,31.4
			c-0.1-0.1-0.3,0.1-0.4,0s0,0,0,0c0,0,0,0.1,0,0.1c0,0,0,0,0,0c0,0,0,0,0.1,0C69.6,31.5,69.7,31.6,69.8,31.4 M74.1,38.2
			c0.2-0.1,0.2-0.3,0.2-0.4c0-0.6-0.6-0.7-1-0.7c-0.2,0-0.4-0.1-0.7-0.1h-0.4c-0.3-0.4-0.8-0.1-1.2-0.3c0,0.1-0.1,0.1-0.2,0.1
			c-0.1,0-0.1,0-0.2,0c0,0-0.1,0-0.1,0c-0.1,0-0.1-0.1-0.1-0.2c0,0-0.1-0.1-0.2-0.1c-0.1,0-0.2,0.1-0.4,0.1c0,0-0.1,0-0.1,0
			c0,0.1,0,0.1-0.1,0.1c0,0.1,0.1,0.2,0.1,0.3c0,0.1-0.1,0-0.1,0.2c0,0,0.1-0.1,0.1-0.2c0,0,0.1,0,0.1-0.1c0.3,0.4,0.7,0.8,1.1,1
			c0.3,0.2,0.7,0.3,1.1,0.4c0.4,0,0.8,0,1.2,0C73.7,38.5,73.8,38.3,74.1,38.2 M74.6,33.1c0,0,0-0.1,0-0.1c0-0.2-0.3-0.3-0.4-0.7
			c-0.1-0.1-0.3-0.2-0.4-0.2c-0.2-0.1-0.4-0.2-0.5-0.5l0,0c0,0-0.1,0.1-0.2,0.1H73c-0.3-0.2-0.6-0.3-1-0.3c-0.1,0-0.1,0-0.2,0
			c-0.1,0-0.1-0.1-0.2-0.1h-0.2c-0.3,0-0.5,0.1-0.8,0.1s-0.8,0.1-0.8,0.5c0,0.1,0.2,0.3,0.3,0.4c0.3,0.1,0.7,0.2,1,0.2
			c0.9,0.1,1.8,0.2,2.7,0.5c0.2,0,0.4,0.1,0.5,0.1S74.5,33.1,74.6,33.1 M70.6,35.9C70.7,35.9,70.7,35.9,70.6,35.9
			c0.1-0.1,0.1-0.2,0.2-0.2s0,0,0,0s0-0.1,0-0.1c-0.1,0-0.1-0.1-0.1-0.2l0,0C70.6,35.5,70.5,35.7,70.6,35.9 M70.9,33.5
			c0,0,0.1,0.1,0.1,0.1s0.1-0.2,0-0.3s0,0,0,0s-0.1,0.1,0,0.2s0,0.1,0,0.1S71,33.5,70.9,33.5 M71.8,34H72c0-0.1,0-0.1-0.1-0.2
			c-0.1,0-0.1,0-0.2,0c-0.1,0.1-0.1,0.2-0.1,0.2S71.7,34.1,71.8,34 M71.8,35.5c0.1,0,0.1,0,0.1-0.1l-0.2-0.2l0,0c0,0,0,0.1,0,0.2
			C71.8,35.5,71.8,35.5,71.8,35.5 M71.8,39.6L71.8,39.6L71.8,39.6C71.8,39.7,71.8,39.7,71.8,39.6c0.2,0.1,0.2,0,0.3,0
			c0,0,0.1,0,0.1,0c-0.1-0.1-0.2-0.2-0.3-0.2c-0.1,0-0.1,0-0.2,0.1 M72,29.2C72,29.2,71.9,29.2,72,29.2L71.9,29
			c0,0.1-0.1,0.1-0.1,0.1S71.9,29.2,72,29.2C71.9,29.2,71.9,29.2,72,29.2c0,0,0.2-0.1,0.3-0.1H72c0,0,0,0.1-0.1,0.1 M72.8,30
			c-0.1,0.1-0.2,0.1-0.2,0.2l0,0h0.2L72.8,30z M73,36l-0.1,0c0.1,0.1-0.1,0.2,0,0.2c0.2,0,0.3,0.2,0.3,0.1s0-0.1,0-0.2l0,0L73,36
			C73.1,36,73,36.1,73,36 M73.2,40.3c-0.1,0,0-0.2-0.1-0.2s-0.1,0.1-0.1,0.2s0,0.2,0,0.2s0-0.1,0-0.2H73.2z M73.8,40.8
			c0,0,0,0.1,0,0.1c0-0.1,0.1-0.1,0.1-0.2s0,0,0-0.1S73.8,40.6,73.8,40.8 M74,34.2c-0.1,0-0.1,0.1-0.1,0.2c0.1-0.1,0.2-0.2,0.3-0.2
			C74.1,34.2,74.1,34.2,74,34.2 M74.1,38.7L74.1,38.7c0,0.1,0,0.1,0,0.2c0,0.1,0,0.2,0,0.3h0.2C74.1,39.1,74.1,38.9,74.1,38.7
			L74.1,38.7z M74.5,38.4c-0.1,0.1-0.3,0.2-0.3,0.3c0-0.1,0.2-0.1,0.3-0.1s0,0.1,0.1,0.1s0-0.1-0.1-0.1V38.4z M74.3,34.1h-0.2H74.3
			h0.1C74.5,34.1,74.4,34.1,74.3,34.1 M74.6,33.1c0.1,0,0.2,0,0.3-0.1c-0.1,0-0.1-0.1-0.1-0.2C74.7,32.8,74.6,33,74.6,33.1
			 M75.2,34.3c-0.1-0.1-0.1-0.2-0.1-0.3c0,0,0-0.1,0-0.1c-0.1,0-0.1,0-0.1,0.1s0.1,0.3,0.1,0.4l0,0c0.1-0.1,0.4-0.1,0.5-0.1v-0.2
			c0,0,0,0-0.1,0C75.4,34.1,75.3,34.3,75.2,34.3 M75.3,39.7c0,0,0-0.1,0-0.1c0-0.1,0-0.2-0.1-0.2c0,0,0,0.1,0,0.1c0,0,0,0.1,0,0.1
			C75.2,39.6,75.2,39.7,75.3,39.7 M76.5,32.2C76.5,32.2,76.5,32.2,76.5,32.2c0,0.1,0.1,0.1,0.1,0.1c0,0,0,0,0,0c-0.1,0,0-0.1,0-0.2
			L76.5,32.2z"/>
		<path class="st2" d="M27.7,60.8c0.2,0,0.5-0.1,0.7-0.1c0.2,0,0.8,0.4,0.8,0.1l0,0h0.1c0.1,0,0.2,0,0.2,0.1c0,0.1,0.1,0.2,0.1,0.3
			c0,0.2-0.1,0.4-0.1,0.5c0,0.5,0.1,1,0.1,1.4c0,0.2-0.2,0.3-0.2,0.5H29c-1.7,0.1-3.6,0-5.3,0.1c-0.5,0-1,0-1.5,0
			c-0.1,0-0.1-0.2-0.2-0.2s-0.1,0-0.1,0.1c0,0,0,0.1,0.1,0.1c-0.3,0-0.7,0-0.7-0.3v-0.1c0.1-0.2,0.1-0.5,0.1-0.8c0-0.5,0-1,0-1.5
			c0-0.1,0-0.2,0.1-0.2c0.1,0,0.1,0,0.2,0h0.2c0.1,0,0.3,0,0.4,0.2c0.1,0,0.1-0.1,0.2-0.2c0.1,0.1,0.2,0.1,0.3,0.1
			c0.3,0,0.6-0.2,0.7-0.6c0.1-0.2,0.1-0.4,0.1-0.6c0-0.1,0-0.2,0-0.2c0-0.1-0.1-0.2-0.1-0.4c0-0.3,0.1-0.6,0.1-0.9
			c0-0.1,0-0.2,0-0.3c0-0.2-0.2-0.2-0.2-0.2s0.3-0.2,0.4-0.3s0-0.1-0.2-0.1v-0.5c0.1,0,0.2,0,0.2-0.1c-0.1-0.3-0.2-0.7-0.2-1.1
			c0-0.5,0.1-1.2,0.1-1.6c-0.2-0.3-0.4-0.5-0.8-0.5c-0.2-0.1-0.3-0.1-0.5-0.1c-0.1,0-0.2,0-0.2,0.1h-0.1c-0.2,0.6-0.2,1.2-0.2,1.8
			c0,0,0.1,0.1,0.1,0.2c0,0,0,0.1,0,0.1c-0.2,0.3,0,0.6-0.3,0.9c0,0-0.1,0.1-0.1,0.1c-0.1,0-0.3-0.1-0.5-0.1H21c0,0-0.1-0.1-0.2-0.1
			c-0.2,0-0.4,0-0.5,0c-0.1,0-0.1,0-0.2,0c-0.1,0-0.3,0.1-0.3,0.1s0,0,0,0c-0.1-0.2-0.4,0-0.4-0.2v-2.9c0.1,0,0.2-0.1,0.3-0.2
			c0-0.1-0.2,0-0.3-0.2s0.2-0.1,0.2-0.1c-0.1,0-0.2-0.2-0.2-0.3c0-0.2,0.1-0.4,0.1-0.6c0-0.1,0-0.1,0-0.2h-0.1c0-0.2,0-0.4,0-0.5
			s0-0.3,0.1-0.3s0.1,0.1,0.1,0.2c-0.1,0.1-0.2,0.1-0.2,0.2s0.1,0.2,0.2,0.4c0,0.1,0.1,0.1,0.1,0.1c0.1,0,0.2-0.1,0.2-0.2
			c-0.1-0.1-0.1-0.2-0.1-0.3c0-0.1,0-0.1,0-0.2c0,0.1,0.4,0.1,0.5,0.1s0.3-0.3,0.4-0.3s0.8,0.3,0.9,0.3s0.3-0.3,0.5-0.3
			c0,0,0.1,0,0.1,0.1l0,0c0.1,0,0.2,0,0.3,0s0,0,0.1,0c0-0.1,0.1-0.2,0.3-0.2c0.1,0,0.3,0,0.4,0.1h0.2h0c0.1,0,0.1,0.1,0.2,0.1
			c0.1,0,0.2-0.1,0.4-0.1c0.1,0,0.2,0.1,0.3,0.2c0.2,0,0.3,0,0.5,0c0.1,0,0.1,0,0.2,0c0,0,0,0,0,0s0.2,0,0.2,0h0.1
			c0.2,0,1.1-0.2,1.2-0.1c0.2,0,0.5,0.1,0.7,0.1c0.2,0,0.3,0,0.5-0.1c0,0,0.6,0.1,0.6,0.1c0.1-0.1,0.2-0.1,0.4-0.1
			c0.2,0,0.5,0.1,0.6,0.3c0,0,0.1,0,0.1,0c0.1,0,0.2-0.1,0.3-0.2c0,0-0.1-0.1-0.1-0.1s0,0,0,0c0.2,0,0.4,0.1,0.6,0.2h0.1
			c0.1,0,0.1-0.3,0.3-0.3c0,0,0.1,0.1,0.1,0.1c-0.1,0-0.1,0.1-0.2,0.1l0,0c0,0.1,0.2,0.1,0.3,0.2c0.1-0.2,0.4-0.2,0.4-0.3
			c0,0,0.1,0,0.1,0h0.2c0.1,0,0.1,0,0.1-0.1c0,0.2,0.2,0.2,0.3,0.2v0.6c0-0.1-0.1-0.1-0.1-0.1s-0.1,0.1-0.2,0.1c0,0-0.1,0.1-0.1,0.1
			c0,0.1,0.1,0.2,0.2,0.2s0.1,0,0.1-0.1c0.1,0.3,0.1,0.5,0.1,0.8c0,0.5-0.1,0.9-0.1,1.4c0,0.5-0.1,1.1-0.1,1.6
			c0,0.1,0.1,0.1,0.1,0.1c0,0.1-0.1,0.1-0.1,0.2c0,0.2,0.1,0.4,0.1,0.6c0,0.1,0,0.1-0.1,0.1c-0.3,0.1-0.6,0.1-0.9,0.1
			c-0.3,0-0.6,0-0.9-0.1h-0.1c-0.1,0-0.2,0-0.4,0s-0.2,0-0.2-0.2c0,0,0-0.1,0-0.1c0-0.1,0.1-0.1,0.1-0.2s-0.1-0.3-0.1-0.4
			s0-0.3-0.1-0.5h0.1c0.1,0,0.1-0.1,0.1-0.1s-0.2-0.1-0.2-0.2c0,0,0-0.1,0-0.1c0-0.2,0.1-0.4,0.1-0.6c0-0.1-0.1-0.2-0.2-0.3
			c0.1,0,0.1,0,0.1-0.1s0,0,0,0s-0.1-0.1-0.2-0.2c-0.2,0.1-0.4,0.2-0.7,0.2c-0.3,0-1-0.2-1,0.3c-0.1,0.8-0.2,1.6-0.1,2.4
			c0,0.4,0,0.8,0,1.2c0,0.1-0.1,0.1-0.1,0.1c0.1,1,0.2,1.9,0.2,2.9C27.5,60.6,27.6,60.7,27.7,60.8L27.7,60.8z M25.2,62
			c-0.1,0-0.1,0-0.1,0.1c0,0,0,0,0,0.1h0.2C25.3,62,25.3,62,25.2,62L25.2,62z M25.8,52.8C25.8,52.8,25.8,52.8,25.8,52.8
			C25.6,52.8,25.7,52.9,25.8,52.8C25.7,52.9,25.7,52.9,25.8,52.8 M25.7,52.9L25.7,52.9z M25.9,55c0,0.1,0.1,0.1,0.1,0.1
			c0,0,0,0,0.1,0C25.9,55.1,25.9,55.1,25.9,55 M26.1,62c0,0-0.1-0.1-0.1-0.2c0,0.1,0,0.2-0.1,0.2c0,0,0.1,0.1,0.1,0.1
			S26,62.1,26.1,62 M26.4,54.3c-0.1,0-0.1,0.1-0.1,0.1s0,0,0,0S26.4,54.4,26.4,54.3 M26.6,60c-0.1,0.2-0.3,0.1-0.3,0.3l0.1,0.1
			c0,0.1,0,0.1-0.1,0.2c0.1,0,0.3,0,0.3-0.1c-0.1,0-0.1-0.1-0.1-0.2C26.5,60.2,26.5,60.1,26.6,60 M26.3,54.9
			C26.3,54.9,26.3,54.9,26.3,54.9c0,0.1,0.2,0.1,0.3,0.1s0-0.1,0-0.1H26.3z M27,62.1C27,62.1,27,62.1,27,62.1c-0.1,0,0,0.1-0.1,0.2
			c0,0,0.1,0,0.1,0l0,0C27,62.3,27,62.2,27,62.1 M27.1,62.4c-0.1,0-0.1,0-0.1,0l0,0v0.2h0.1C27.1,62.5,27.1,62.5,27.1,62.4
			c0,0,0.1,0.1,0.2,0.1S27.2,62.4,27.1,62.4L27.1,62.4L27.1,62.4z M28,62.3c-0.1,0-0.2,0-0.2,0.1h0.4l0,0c0,0,0.1-0.1,0.1-0.1h-0.1
			C28.1,62.3,28.1,62.3,28,62.3"/>
		<path class="st2" d="M34.6,50.8c0,0,0.1,0,0.2,0l0,0c0.1-0.1,0.3-0.1,0.4-0.1c0.2,0,0.3,0.1,0.5,0.2c0.1-0.1,0.3-0.1,0.3-0.3
			c0.1,0.1,0.3,0.2,0.5,0.2h1.9c0,0,0.1,0,0.1,0c0,0,0,0.1,0,0.1s0,0.1,0.1,0.1h0.1c0.2,0,0.2-0.2,0.3-0.2c0.3,0,0.6,0,0.9,0
			l0.1-0.1c0.1,0.1,0.1,0.2,0.2,0.3C40,51.2,40,51.3,40,51.4c0,0.2,0.1,0.3,0.1,0.5s-0.2,0.1-0.2,0.2c0,0.3,0.1,0.6,0.1,0.9
			c0,0.2,0,0.4-0.2,0.5c-0.1,0.1-0.2,0.2-0.3,0.2c-0.2,0-0.3,0-0.5,0c-0.1,0-0.1,0-0.2,0c-0.2,0.1-0.2,0.2-0.2,0.3
			c0,0.3,0,0.7,0.1,1c-0.1,0-0.2,0-0.2-0.1c0,0,0,0.1,0,0.1c0,0.1,0.1,0.1,0.1,0.2l0.1-0.1c0,0.1,0,0.2,0,0.4c0,0.4-0.1,0.8-0.1,1.2
			c0,0.2,0,0.3,0,0.5v0.5c0,0-0.1,0-0.2-0.1s-0.1,0-0.1,0.1c0,0,0,0.1,0,0.1c0,0.1,0.1,0.1,0.1,0.2c0,0,0.1,0,0.1,0
			c0,0.2,0,0.4,0,0.6c0,0.1,0,0.2,0,0.3c0,0.1,0,0.3,0,0.4c0,0.1,0,0.3-0.1,0.4c0,0.1,0,0.2,0,0.3c0,0.2,0.1,0.5,0.3,0.6
			c0,0-0.1,0-0.1-0.1c0,0-0.1,0-0.1,0.1c0,0,0,0.1,0,0.1s0,0.1-0.1,0.1s-0.1,0.1-0.1,0.1s0,0.1,0,0.2c0,0,0,0.1,0,0.1
			c0,0,0.1,0.2,0.2,0.2c0.1,0,0.1,0,0.1-0.1c0,0,0,0,0,0c0-0.1,0-0.2,0-0.2c0-0.1,0.1-0.2,0.1-0.3c0.1,0,0.2,0,0.2,0.1
			c-0.1,0-0.1,0.1-0.1,0.2c0,0.1,0.1,0.2,0.2,0.2s0-0.3,0.2-0.3c0.3,0,0.7,0.1,1,0.3c0.2,0.1,0.1,0.4,0.3,0.5c0.1,0,0.2-0.2,0.2-0.3
			s-0.1-0.1-0.1-0.2s0.1-0.1,0.1-0.1s0.1,0.2,0.1,0.2c0,0,0.1,0,0.1,0c0,0.1,0,0.2,0,0.3c0,0.1,0,0.1,0,0.2c0,0.1,0,0.3-0.1,0.4
			c0.1,0.1,0.1,0.1,0.2,0.1c0.1,0,0.2-0.1,0.2-0.1c0-0.1,0-0.1,0-0.1h0.1c0.1,0,0.1-0.1,0.1-0.2s-0.1-0.2-0.3-0.3
			c0.1,0,0.2,0,0.2-0.1v-0.3c0,0-0.1,0-0.2,0c0-0.1,0.1-0.2,0.2-0.2c0.1,0,0.1,0.1,0.2,0.2c0,0.1-0.1,0.2-0.1,0.3s0.1,0.1,0.2,0.1
			s0.2-0.1,0.2-0.2c0-0.2-0.1-0.3-0.1-0.5c0-0.1,0.1-0.2,0.2-0.2c0,0,0.1,0,0.1,0c0,0,0,0.1,0.1,0.1s0.4-0.1,0.4-0.2c0,0,0,0,0-0.1
			c0-0.1-0.2-0.1-0.2-0.2s0.1,0,0.1-0.1c0-0.1-0.1-0.1-0.1-0.1c0,0,0,0,0,0c0-0.1,0-0.1,0-0.2c0-0.8,0.1-1.6,0.3-2.4
			c0-0.2-0.1-0.4-0.2-0.6c0-0.2,0-0.4,0.2-0.6l0,0c0,0-0.1-0.1-0.1-0.2s0,0,0-0.1c0.1-0.3,0.1-0.5,0.1-0.8c0-0.3,0-0.6,0-0.9
			c0,0,0-0.1,0-0.1c0-0.2-0.1-0.3-0.3-0.4c-0.1,0-0.1,0-0.2,0h-0.2c-0.1,0-0.2,0-0.3-0.1c0,0-0.1,0-0.1,0c-0.1,0-0.2,0.1-0.3,0.1
			s-0.1,0-0.2-0.1c0,0,0,0.1-0.1,0.1c0,0,0,0-0.1,0c-0.1-0.1-0.1-0.2-0.1-0.3c0-0.1,0-0.2,0-0.3s0.2,0,0.2-0.1c0-0.4,0-0.8,0-1.2
			c0-0.2,0-0.4,0-0.6c0,0,0,0.1,0.1,0.1c0.1,0,0.3-0.3,0.5-0.3h0.1c0,0,0,0.1,0.1,0.1s0.2,0,0.2-0.1c0,0.1,0,0.3,0.1,0.4
			s0.2,0,0.2-0.1s0-0.3,0.2-0.4c0,0,0,0.2,0.1,0.2h0.2c0.1,0,0.1,0,0.1-0.1c0,0,0,0,0,0c0-0.1,0-0.1,0-0.2c0.1,0.1,0.2,0.1,0.3,0.1
			c0,0.2,0.2,0.3,0.2,0.5c0,0,0.1,0.2,0.2,0.2s0.2-0.1,0.2-0.2s-0.1-0.1-0.2-0.1s0.2-0.1,0.2-0.2s-0.1-0.3-0.2-0.4
			c0.1-0.1,0.3,0,0.3-0.1l2,0.1c0.3,0,0.6,0.4,0.7,0.4s0,0,0-0.1c0-0.1,0-0.1,0-0.2c0.1,0,0.1,0.1,0.2,0.1c0.2,0,0.1-0.2,0.2-0.3
			c0.1,0.2,0.1,0.4,0.1,0.6c0,0.3-0.1,0.7-0.1,1.1c0,0.2,0,0.4,0.1,0.6c0,0.1,0,0.1,0,0.2c0,0.1,0,0.2,0.1,0.2
			C47,53.8,46.8,54,46.7,54c-0.1,0-0.2,0-0.3-0.1H46l0.1-0.1c0-0.1,0-0.1-0.1-0.1h-0.1c-0.1,0.2-0.2,0.3-0.4,0.2h-0.2
			c-0.2,0-0.2,0.3-0.3,0.4c0,0,0,0.1,0,0.1c0,0,0.1,0.1,0.1,0.1c-0.1,0-0.1,0.1-0.2,0.1c0.1,0.1,0.2,0.2,0.1,0.3c0,0.1,0,0.3,0,0.4
			c0,0.1,0,0.2,0,0.2c-0.1,0-0.2,0-0.2,0.1c0.1,0.1,0.2,0.3,0.2,0.5c0,0.1,0,0.2,0,0.3c0,0-0.1-0.1-0.1-0.1c-0.1,0-0.1,0-0.2,0
			c-0.1,0-0.1,0-0.1,0.1s0.1,0.1,0.1,0.2c0,0,0,0,0,0.1c-0.3,0.3-0.2,0.5-0.3,0.9h-0.1c0-0.1,0-0.1-0.1-0.1h-0.1
			c-0.2,0.4-0.5,0.4-0.7,0.7l0,0c0,0,0.1,0.1,0.1,0.1h0.2c0.2-0.1,0.3-0.2,0.5-0.3c0.1,0,0.2-0.2,0.3-0.3c-0.1,0.2,0,0.4-0.1,0.6
			c0.1,0.1,0.2,0.1,0.2,0.1c0.2,0,0.3-0.2,0.4-0.5c0,0.7-0.1,1.4-0.1,2c-0.1,0.2-0.1,0.3-0.1,0.5c0,0,0.1,0.1,0.1,0.1
			c-0.1,0.2-0.3,0.3-0.3,0.5c0,0.1,0,0.1,0.1,0.2c-0.2,0-0.2,0.3-0.3,0.3c-0.3,0.4-0.4,0.9-0.7,1.1c-0.3,0.2-0.6,0.4-0.9,0.5
			c-0.2,0-0.3,0.2-0.4,0.3c-0.8,0.3-1.6,0.5-2.5,0.5c-0.3,0-0.7,0-1-0.2h-0.7l0,0c-0.1-0.2-0.4,0-0.6-0.3l0,0c0,0-0.1,0.1-0.2,0.1
			c-0.3-0.3-0.6-0.5-0.9-0.7c-0.7-0.3-0.9-0.9-1.4-1.4c0.1,0,0.1-0.1,0.1-0.1c0-0.1,0-0.1,0-0.2c-0.3-0.3-0.2-0.7-0.5-1
			c0,0,0-0.1,0-0.1c0-0.1,0-0.2,0-0.3s0.1,0,0.1-0.1c-0.1-0.2-0.1-0.4-0.1-0.6c0-0.2,0-0.5,0-0.6V58c0,0,0.2,0,0.2-0.1
			c0-0.3-0.2-0.5-0.2-0.8c0,0,0.1,0,0.1-0.1s0-0.4,0-0.5c0-0.1,0-0.2,0-0.2c0.2-0.4,0-0.7,0.2-1c0-0.1-0.1-0.1-0.2-0.1
			c0-0.2,0.1-0.4,0.1-0.5c0-0.2,0-0.3-0.2-0.5c0-0.1,0.2-0.1,0.2-0.2s0,0,0-0.1c-0.2-0.3-0.4-0.5-0.7-0.5h-0.2c-0.1,0-0.2,0-0.3,0.1
			c-0.2,0-0.4-0.1-0.6-0.1c0.1-0.3,0.2-0.7,0.2-1c0-0.1,0-0.2,0-0.3s0-1,0-1.2s0.5,0,0.5-0.1l0,0c0,0,0.6,0.2,0.6,0.2
			c0,0.1,0,0.3,0.1,0.3h0.2c0,0,0,0,0-0.1V51c0.1,0,0.1,0,0.2,0c0.2,0,0.4,0.1,0.5,0.1c0.1,0,0.2,0,0.2-0.1c0-0.1-0.1-0.1-0.1-0.1
			c-0.1,0-0.1,0-0.2,0s-0.1,0-0.1,0c-0.1,0-0.1,0.1-0.2,0.1l-0.2-0.1c0,0-0.1,0-0.2,0 M35.7,61c0.1,0,0.2,0,0.2-0.1c0,0,0-0.1,0-0.1
			h-0.1c-0.1,0-0.2-0.1-0.3-0.1c0,0-0.1,0-0.1,0h0.1C35.6,60.7,35.6,60.9,35.7,61 M36.3,54.3c0,0,0.1,0.1,0.1,0.1l0,0v-0.2
			C36.4,54.3,36.3,54.3,36.3,54.3 M38.2,52.7c0,0,0.1-0.1,0.1-0.1s0-0.1-0.1-0.1c0,0-0.1,0-0.1,0.1C38.1,52.6,38.1,52.6,38.2,52.7
			C38.1,52.7,38.1,52.7,38.2,52.7 M39.3,51L39.3,51L39.3,51C39.3,51,39.3,51,39.3,51c0,0.1,0.1,0.1,0.1,0.2c0,0.1-0.1,0.1-0.1,0.1
			c0,0,0,0,0,0c0.1,0,0.1-0.1,0.1-0.2C39.4,51.1,39.3,51,39.3,51 M40.9,61c0,0,0,0.1,0,0.1c0-0.1-0.1-0.1-0.2-0.1L40.9,61z
			 M41.8,60.3c0.1,0,0.1-0.1,0.2-0.2C41.9,60.3,41.9,60.3,41.8,60.3 M41.9,60.2c0,0,0.1-0.2,0.2-0.2C42.1,60.1,42,60.1,41.9,60.2
			 M42.7,61.7c0-0.1,0.1-0.1,0.1-0.2c-0.1,0.1-0.2,0.1-0.3,0.2s0,0,0,0s0.1,0,0.1,0.1s0,0-0.1,0.1l0,0c0,0,0.1-0.1,0.1-0.1
			s0,0,0,0.1s0.1,0,0.1-0.1S42.8,61.8,42.7,61.7L42.7,61.7z M42.6,50.7L42.6,50.7L42.6,50.7C42.6,50.7,42.6,50.7,42.6,50.7 M43,62.3
			c0,0.1,0.2,0.1,0.3,0.1c0-0.2-0.2-0.1-0.3-0.2c0,0-0.2,0-0.2,0.1S42.9,62.2,43,62.3 M44,61.1c0,0.1-0.4,0.1-0.4,0.3h0.2
			c0.1,0,0.1,0,0.1,0.1c0.1-0.1,0.2-0.2,0.2-0.2c0-0.1,0-0.2-0.1-0.2c0,0-0.1,0-0.1,0C43.9,61,44,61,44,61.1 M43.8,61
			C43.8,61,43.8,61,43.8,61C43.8,61,43.8,61,43.8,61c0-0.1,0-0.2,0.1-0.2s0.1,0,0.1-0.1c-0.1,0-0.2,0-0.3,0.1
			C43.7,60.9,43.7,60.9,43.8,61 M44.2,51L44.2,51L44.2,51c0,0,0,0.1,0,0.1c0,0,0,0,0,0.1c-0.1,0-0.1,0.1-0.1,0.2
			c0,0.1,0.1,0.2,0.2,0.3c0,0,0-0.1,0-0.2c0-0.1,0.1-0.2,0.1-0.3c0,0,0-0.1,0-0.1 M44.4,57.4C44.4,57.4,44.5,57.4,44.4,57.4
			L44.4,57.4z M45.1,57.1c0,0.2,0,0.3,0,0.5c0,0,0,0,0,0c0-0.2-0.2-0.1-0.2-0.2S45,57.2,45.1,57.1 M45.1,56.3L45.1,56.3
			C45,56.3,45,56.3,45.1,56.3L45.1,56.3z M45.1,56.2L45.1,56.2L45.1,56.2z M46.5,50.9L46.5,50.9z"/>
		<path class="st2" d="M49.7,61c0.2,0,0.5-0.3,0.5-0.5s0-0.5,0-0.7c0-0.2,0-0.5-0.1-0.7c0-0.1,0.1-0.2,0.1-0.3c0-0.1,0-0.2,0-0.3
			c0-0.3,0.1-0.6,0.1-0.9s-0.1-0.4-0.1-0.7s0-0.4,0-0.7s0-0.3,0-0.5s0-0.6,0-0.9c0-0.1,0-0.3,0-0.4c0-0.2,0-0.4,0-0.6
			c-0.1-0.2-0.4-0.4-0.6-0.4c0,0-0.1,0-0.1,0c-0.2,0-0.3,0-0.5,0c-0.2,0-0.4,0.1-0.7,0.1c-0.1,0-0.1,0-0.1-0.1c0,0,0,0,0,0
			c0,0,0-0.1,0-0.1c0-0.3,0-0.6,0-0.9c0-0.5,0-1,0.1-1.4c0-0.2,0.2-0.3,0.4-0.3c0.1,0,0.2,0,0.3,0.1c0.1,0,0.2,0.1,0.2,0.2
			c0,0.2-0.1,0.4-0.1,0.6c0,0.1,0,0.1,0.1,0.1s0.2-0.2,0.2-0.3c0,0,0.1-0.1,0.1-0.1c0-0.2-0.2-0.3-0.2-0.5H50c0,0.1,0,0.2,0.1,0.2
			c0.3-0.1,0.5,0,0.7-0.1c0,0,0.2-0.1,0.3-0.1s0,0.1,0.1,0.1s0.3,0,0.6-0.1c0,0.1,0,0.1,0.1,0.2c0.1-0.1,0.3-0.1,0.3-0.2
			c0,0,0.1,0,0.2,0c0.1,0,0.3,0.1,0.4,0.1c0,0,0.1,0,0.2,0c0,0,0.1,0.1,0.2,0.1s0-0.1,0.1-0.1c0.5,0,0.9,0,1.3,0c0.1,0,0.2,0,0.4,0
			c0.1,0,0.1,0,0.2,0c0,0.1,0,0.2,0.1,0.2h0.2c0,0,0-0.1,0-0.2c0.1,0.1,0.1,0.1,0.2,0.1c0.2,0,0.3-0.2,0.5-0.2c0,0,0.1,0,0.1,0
			c-0.1,0,0,0.2-0.1,0.3s0.1,0.1,0.1,0.1c0.1-0.1,0.1-0.2,0.1-0.3c0-0.1,0-0.1,0-0.2c0.1,0.1,0.2,0.3,0.2,0.5c0,0.1,0,0.2,0,0.3
			s-0.1,0-0.1,0.1c0.1,0.4,0.2,0.8,0.1,1.2c0,0.1-0.1,0.1-0.1,0.1s0.1,0.1,0.1,0.1c0,0.2,0,0.5-0.1,0.7c-0.2,0,0-0.3-0.2-0.3
			c0,0-0.1,0-0.1,0.1c0,0,0,0,0,0c0,0,0,0.1,0,0.1c0,0,0,0.1,0,0.1c-0.2,0-0.3,0-0.5,0H55c-0.3,0-0.5,0.1-0.8,0.2
			c0.2,0.9,0.2,1.7,0.2,2.6c0,0-0.2,0.2-0.2,0.3c0.1,0.3,0.1,0.6,0.1,0.9c0,0.4,0,0.9,0,1.3c0,0,0,0.1,0,0.1s0.1,0.3,0.1,0.5
			s-0.1,0.1-0.1,0.2s0,0.2,0,0.3c0,0.1,0,0.1-0.1,0.2c0.2,0.1,0.2,0.2,0.3,0.3c0.2,0,0.4,0,0.5,0c0.4,0,0.7,0,1.1,0
			c0.1,0,0.3,0.1,0.3,0.2s0,0.3,0,0.5c0,0.3-0.1,0.6-0.2,0.8c0,0,0,0,0.1,0s0.1,0,0.1,0v1.1v-0.1c0,0-0.4,0.1-0.4,0.2
			c0.1,0,0.1,0.1,0.1,0.2c0,0.1-0.3,0-0.3,0.1c-0.1-0.1-0.2-0.1-0.2-0.1c-0.2,0-0.3,0.1-0.5,0.1s-0.2-0.2-0.4-0.2s0,0.1-0.1,0.1
			c-0.6,0-1.1,0-1.6,0c-0.1,0-0.3,0.1-0.3,0.1c-0.1-0.1-0.2-0.1-0.3-0.1c-0.2,0.1-0.5,0.2-0.7,0.2c-0.6-0.1-1.2-0.1-1.8-0.1
			c-0.4,0-0.9,0-1.3,0.1h-0.3h-0.1c-0.1-0.3-0.2-0.7-0.2-1c0-0.3,0-0.5,0-0.8c0-0.1,0-0.3,0-0.4c0,0,0-0.1,0-0.2
			c0-0.2,0.1-0.3,0.2-0.4c0.1-0.1,0.2-0.1,0.3-0.1C49,60.8,49.4,61,49.7,61 M48.4,63.4c0.2-0.1,0.1-0.2,0.2-0.3
			c-0.1,0.1-0.1,0.2-0.2,0.2l0,0C48.3,63.3,48.3,63.4,48.4,63.4 M53.3,51.4h0.1c0,0,0-0.2-0.1-0.2V51.4z M55.1,53.1
			c-0.1,0-0.1,0.1-0.2,0.1L55.1,53.1L55.1,53.1C55.1,53.1,55.1,53.1,55.1,53.1 M55.7,51.3c0-0.1,0.2-0.1,0.2-0.2c0,0,0-0.1,0-0.1
			h-0.2L55.7,51.3z"/>
		<path class="st2" d="M63.8,71.1c-0.1,0-0.3,0-0.4,0l-0.1,0.1c0,0,0.1-0.1,0.1-0.2s0,0,0-0.1S63,71,62.9,71
			c-0.2,0.2-0.1,0.2-0.4,0.2c-0.1,0-0.1,0-0.2-0.1c0-0.1,0-0.2-0.1-0.2c-0.3,0-0.3,0.2-0.6,0.2c-0.3-0.2-0.6,0.1-1,0.1
			c-0.3,0-0.6,0-0.8,0.1c0-0.1,0-0.2-0.1-0.2c-0.2,0-0.3,0.1-0.4,0.2c-0.2,0.1-0.5,0.1-0.7,0.2c-0.4,0-0.7-0.2-0.8-0.5
			c-0.1-0.2-0.1-0.5-0.1-0.7c0-0.5,0.1-1.1,0.1-1.6c0-0.1,0-0.2,0-0.3c0-0.3-0.1-0.7-0.1-1s0.2-0.8,0.6-0.8c0.4-0.1,0.9-0.1,1.3,0
			c0,0,0-0.1,0.2-0.2c0,0.2,0.1,0.2,0.3,0.2c0.3-0.2,0.4-0.5,0.4-0.8c0-0.2,0-0.3,0-0.5s0.2-0.2,0.2-0.3c0,0,0-0.1,0-0.1
			c0-0.1-0.2-0.1-0.2-0.2c0.1-1.4,0.1-2.9,0-4.3c0-1.4-0.1-2.8-0.2-4.1c0-0.5-0.5-0.6-1-0.7c0.1-0.1,0.2-0.3,0.2-0.4
			s-0.1-0.2-0.2-0.2s-0.2,0-0.2,0.1s0.1,0.1,0.1,0.2S59,55,59,55c0.1,0,0.1,0.1,0.1,0.2c0,0.1,0,0.1-0.1,0.1s-0.4,0.1-0.7,0.1
			c-0.1,0-0.2,0-0.3-0.1c-0.1,0-0.1-0.1-0.2-0.2l0.2-0.2c-0.1-0.1-0.2-0.3-0.2-0.5c0-0.2,0.1-0.2,0.1-0.3s-0.2-0.2-0.2-0.4
			c0,0,0-0.1,0-0.2c0-0.1,0.2-0.1,0.2-0.2V53c0-0.4,0.1-0.8,0.1-1.2c0-0.2,0-0.4-0.1-0.5c0.1-0.2,0.2-0.3,0.4-0.4
			c0.4,0,0.7-0.1,1-0.1c0.2,0,0.3,0,0.5,0.1c0.3,0,0.7,0.1,1.1,0.1c0.2,0,0.5,0,0.7-0.1c0,0.1,0,0.3,0.1,0.3c0.5,0,0.8-0.3,1.2-0.3
			c0.1,0,0.2,0,0.3,0.1c0.1,0,0.2,0,0.3,0c0.1,0,0.1,0,0.2,0.1c0.1-0.1,0.2-0.1,0.4-0.1c0.1,0,0.2,0,0.3,0.1c0.2,0,0.3,0,0.5,0
			c0.3,0,0.6,0,0.9,0c0.2,0.4,1.2-0.5,2,0.1l0.1-0.1c0.1,0,0.2-0.1,0.3-0.1c0.3,0,0.5,0.2,0.6,0.4c0,0,0.1,0.1,0.1,0.1
			c0,0-0.1,0.1-0.1,0.1c0,0,0,0.1,0.1,0.1s0.2,0.1,0.3,0.1c0.6,0.7,1,1.4,1.4,2.2c0.5,1.1,1.2,2.1,2,2.9c0.1,0.1,0.1,0.4,0.1,0.6
			c0.5,0.4,0.6,0.9,1.2,1.2c0.3,0.3,0.1,0.8,0.3,1.2c0-0.1,0.1-0.1,0.2-0.1c0.3,0.2,0,1,0.3,1c0,0,0.3,0.6,0.4,0.6
			c0.6-0.1,0.1-0.9,0.1-1.4c0-0.2,0-0.4,0-0.7c0-0.3,0-0.6,0.2-0.8c0.1-0.1,0.1-0.2,0.2-0.3c0,0,0-0.1,0-0.1c0-0.3-0.2-1.2-0.2-1.4
			c0-0.2,0.1-0.4,0.1-0.5c0-0.5-0.2-0.9-0.5-1.3c-0.1,0.1-0.3,0.2-0.4,0.2c0,0-0.1,0-0.1,0c0-0.1-0.1-0.2-0.2-0.2
			c-0.3,0-0.1,0.2-0.3,0.2c-0.3,0-0.5,0.1-0.8,0.2c-0.2,0-0.3-0.2-0.3-0.3c0.1-0.2,0.1-0.4,0.1-0.6c0-0.4-0.1-0.8-0.1-1.2v-1.7
			c0-0.1,0-0.2,0-0.3c0-0.2,0.1-0.4,0.3-0.5c0.1,0,0.2,0,0.3,0c0.3,0,0.7-0.1,0.9,0.3c0.2-0.3,0.5-0.1,0.8-0.1
			c0.2,0,0.3,0.1,0.5,0.1c0,0,0,0,0,0.1s0.4-0.2,0.3-0.1c0,0.1,0,0.1,0.1,0.2c0.4-0.3-0.1-0.4,0.4-0.4h0.1c0.2,0.2,0.4,0,0.6,0.3
			c0.3-0.1,0.5-0.2,0.8-0.2c0.2,0,0.4,0.1,0.5,0.2c0.1-0.2,0.3-0.2,0.5-0.2c0.2,0,0.4,0,0.6,0c0.2,0,0.3,0,0.5-0.1
			c0,0.1,0,0.2,0.1,0.3c0.1-0.1,0.3-0.2,0.5-0.2h0.9c0.2,0,0.4,0.2,0.6,0.2s0.3,0.1,0.3,0.3c0,0.6,0,1.3-0.2,1.9
			c0,0.1,0.1,0.1,0.1,0.1s0.1,0.3-0.2,0.3c0.1,1,0.2,1.5-0.9,1.5c-0.4,0-1.2,0-1.4,0.4c-0.3,0.2-0.4,0.6-0.4,0.9
			c0,0.4,0.1,0.9,0.1,1.4c0,0.1-0.2,0.7,0,0.9c0,0.4-0.1,0.7-0.1,1.2V60c0,0.3,0.3,0.8,0.3,1c-0.1,0.4-0.1,0.7-0.1,1.1
			c0,0.4,0,0.8,0,1.2c0,0.4,0,0.8-0.2,1.2c0.3,0,0,0.4,0.3,0.4c-0.1,0.6,0,1.2-0.1,1.8c-0.1,0.4-0.1,0.7-0.1,1.1v0.8
			c0,0.2,0,0.4-0.1,0.6c0,0.1-0.3,0.4-0.3,0.5s0.1,0.1,0.1,0.3s0.2,0.2,0.3,0.2s0,0.3,0,0.5c0,0.4-0.1,0.5-0.8,0.5s-1.4,0.1-2.1,0.1
			c-0.3,0-0.7,0.1-1,0.2h0.1c-0.1,0-0.2,0-0.2,0c-0.3,0-0.7-0.1-1-0.1c-0.1,0-0.3,0-0.4-0.1c-0.5-0.6-0.9-1.3-1.3-2
			c-0.2-0.4-0.5-0.8-0.7-1.3c0-0.3-0.5-0.8-0.6-1l-2.8-4.2c0-0.2-0.5-0.4-0.5-0.7c0-0.3-0.1-0.5-0.2-0.7c-0.6-0.8-1.2-1.6-1.7-2.4
			c-0.2-0.3-0.4-0.9-0.6-1.2c-0.1,0-0.4-0.5-0.5-0.5c0-0.1,0-0.1,0-0.2c0-0.3-0.4-0.2-0.6-0.2c-0.3,0.1-0.2,0.2-0.2,0.6
			c0,0.2,0,0.4,0.1,0.6c0,0.4,0,0.8,0,1.2c0,0-0.3,0-0.3,0.1c0.3,0.9,0.4,1.8,0.3,2.7c0,0.8,0,1.6,0,2.4c0,0.7,0.1,1.4,0.2,2.1
			c0,0.1,0.3,0.3,0.4,0.3s0.1,0,0.1,0c0.3,0,0.6-0.2,0.8-0.2h0.9c0.1,0,0.2,0,0.2,0.2c0,0.8,0,1.6,0.1,2.4c0,0.6,0,1.2,0.1,1.9
			c0,0.2-0.3,0.2-0.4,0.3c-0.1,0-0.3,0-0.4,0c-0.4,0-0.8-0.1-1.2-0.1c-0.1,0-0.3,0-0.4,0C64.6,71.1,63.7,71.1,63.8,71.1 M59.6,69.7
			c0-0.1,0.1-0.1,0.1-0.2l0,0c-0.1,0-0.2-0.1-0.2-0.1s-0.1,0-0.1,0.2s0.3,0.1,0.3,0.3L59.6,69.7z M61.3,66.7
			c0.2-0.1,0.3-0.1,0.5-0.1c-0.1,0-0.2,0-0.3,0C61.4,66.6,61.3,66.6,61.3,66.7 M62.1,69.7c0.1-0.1,0.2-0.1,0.4-0.2
			c-0.1,0-0.1,0-0.2,0S62.1,69.6,62.1,69.7 M63.5,55.3c0,0,0-0.1,0-0.1c0-0.2-0.2-0.2-0.2-0.3c-0.1,0-0.1,0.1-0.1,0.2
			C63.4,55,63.5,55,63.5,55.3C63.5,55.3,63.5,55.3,63.5,55.3c0,0.1,0,0.1,0,0.1L63.5,55.3z M65.5,68c0-0.1-0.1-0.1-0.1-0.1L65.5,68z
			 M65.7,69.5c0.2,0,0.2-0.5,0.2-0.6c0-0.2-0.1-0.4-0.2-0.5c0,0.2-0.3,0.1-0.3,0.2c0,0.1,0,0.2,0,0.3C65.4,69.2,65.3,69.5,65.7,69.5
			 M65.5,68c0,0.1,0,0.2,0.1,0.2C65.6,68.1,65.6,68.1,65.5,68"/>
		<path class="st2" d="M22.4,68.9l0.1-0.3l0-0.2l0.1-0.2l0.1-0.3l0.2-0.3l0.2-0.2l0.3-0.5h0.2l0.6-0.3h0.1l0.2-0.1h0.3h0.1h0.4h0.5
			l0.4,0.2l0.2,0.2l0.2,0.1l0.4,0.4v0.2l0.1,0.1v0.2l0.1,0.2v0.3l0.1,0.2l-0.2,0.2h-0.5h-0.1h-0.1h-0.3h-0.2l-0.2-0.1l-0.1-0.4
			L25.6,68l-0.2-0.1l-0.1-0.2l-0.2-0.2l-0.4,0.1l-0.1,0.1v0.1l-0.2,0.2v0.1l-0.1,0.1v0.2l-0.2,0.2L24,69l0.1,0.3L24,69.5v0.3
			l0.1,0.2v0.3l0,0.1l0,0.1h0.1l0.3,0.3v0.1h-0.1h-0.1l0.2,0.2l0.2,0.1l0.1-0.1h0.3l0.3-0.3l0.2-0.2l0.1-0.4l0.1-0.1h0.3h0.1h0.5
			l0.4,0.1l0.1,0.1v0.2l-0.1,0.1v0.1L27,71l-0.8,0.8h-0.2L26,72h-0.4l-0.2,0.1H25h-0.8l-0.2-0.2h-0.2l-0.3-0.2l-0.5-0.6L22.8,71
			v-0.2l-0.2-0.4v-0.2l-0.2-0.3l0.1-0.1L22.4,68.9z M22.5,69.1L22.5,69.1L22.5,69.1L22.5,69.1L22.5,69.1z M23.5,67.6l0.3,0.2
			l-0.1-0.2L23.5,67.6z M23.6,71.1l0.1,0.2H24v-0.1h-0.2v-0.1L23.6,71.1z M24.2,71.4v0.1h0.2v0.1h0.1l0.1-0.2l-0.2-0.1L24.2,71.4z
			 M24.8,71.4l-0.1,0.2l0.2,0.2v-0.2H25v0.1h0.1l0.1-0.1l0.1,0.2h0.1v-0.1h0.3l0.1-0.1v0.1h0.1v-0.2h0.2L26,71.2h-0.2h0l0.2-0.1
			h-0.1l-0.1,0.1l0-0.2h-0.1v0.3h-0.4l-0.1,0.2h-0.2v-0.1h-0.3L24.8,71.4L24.8,71.4z M25.4,71.4l-0.1,0.2l-0.1-0.2H25.4z M25.6,67
			L25.6,67l0.1,0.2h0.1l0-0.1l-0.1,0.1L25.6,67z M26.1,67.5L26.1,67.5h0.2l0,0.2l-0.2,0.1l0,0.1l0.1-0.1v0.1L26.3,68l0.1,0.1
			l0.1-0.1l0.1-0.1v0.2h0.2v-0.2h-0.2l-0.1-0.2l0.1-0.2l-0.3-0.1L26.1,67.5z M26.2,71.2h0.2v0.2l0.2-0.3l0.1-0.2l-0.2-0.1l0.1-0.1
			h-0.2l-0.2,0.3h0.2V71h-0.1L26.2,71.2z"/>
		<path class="st2" d="M27.8,71.6l0.2-0.3v-0.2l0.1-0.1v-0.4l0.2-0.4l0.1-0.2v-0.2l0.1-0.2v-0.3l0.1-0.5l0.1-0.2l0.1-0.5l0.1-0.1
			l0.1-0.2l0.1-0.2v-0.1l0.2-0.2v-0.4l0.1-0.3l0.1-0.1h0.2h0.2v0.1h0.7l0-0.1H31l0.2,0.2l0.1,0.3l0.1,0.4l0.1,0.2v0.1l0.1,0.2v0.2
			l0,0.1l0.1,0.6l0.2,0.5v0.1l0.2,0.5v0.3l0.1,0.1l0.1,0.5L32.3,71h-0.1l-0.1,0.2v0.2H32l-0.1,0.1l0.1,0.1l0.1-0.1h0.1v0.1l0.3-0.1
			v-0.4h0.1l0.1,0.2l0.2,0.3V72l-0.1,0.1L32.5,72h-1.2l-0.1-0.1l-0.1-0.3L31,71.5v-0.3l-0.1-0.3l-0.2-0.1l-0.1,0.1h-0.2l-0.2-0.1
			l-0.3,0.1h-0.2h-0.2L29.3,71l-0.2,0.4v0.2L29,71.9L28.8,72h-1l-0.1-0.1L27.8,71.6z M28.1,71.7L28.1,71.7l0,0.2h0.1L28.1,71.7
			l0.2-0.1l0.1,0.1l0,0h0.1l0.1-0.2l0.1-0.1v-0.2l0.1-0.2l-0.1-0.1l0.1-0.3l-0.2-0.1l0,0v0.2l-0.1,0.1v0.2l-0.5,0.1L28.1,71.7z
			 M28.7,69.7v0.2h0.1v-0.1H29l0.2-0.2l0.1,0.1l0.1-0.1v-0.2h-0.1l-0.2,0.2L29,69.4h-0.1l-0.1,0.1L28.7,69.7z M29.1,68.4l0.2,0.1
			l0.2-0.2l-0.1-0.1l-0.1,0.1v-0.1l0,0l-0.1-0.1L29.1,68.4z M29.3,67.6l0.3-0.1l0.1-0.1l0.1,0.1l0.2-0.1l0.1,0.1l0.3-0.1l-0.1-0.2
			h-0.1v-0.1l0.2-0.1v0.1h0.2l0.2,0.1v-0.1l0.2-0.1v0.3l0,0.2l0.2,0.1v0.2h0.1V68l0.2-0.1l-0.1-0.1v-0.1L31,67.5l0.1-0.4L31,67h-0.2
			l-0.2,0.2v-0.1l-0.3-0.2V67h-0.1v-0.1h-0.1L30,67h-0.2l0.2-0.1v-0.1h-0.2l0,0.2h-0.1v0.2h-0.1L29.3,67.6z M29.5,68l0.2,0.2h0.1
			l0.2,0.2v0.1l-0.1,0.2V69l-0.1,0.2l0.1,0.5l0.2,0.1h0.4l0.1-0.1v-0.4l-0.2-0.5v-0.5v-0.1l0.1,0.1l0.1-0.1l-0.1-0.2H30h-0.1h0
			L29.5,68z M29.7,70.2L29.7,70.2l0.1,0.2h0.2l0-0.2h-0.1l-0.1,0.1L29.7,70.2z M29.9,67.3h-0.1v-0.2h0.1L29.9,67.3z M29.8,68
			l0.2-0.1v0.2L29.8,68L29.8,68L29.8,68z M31.2,68.3v0.3h0.1l0,0h-0.1v-0.2L31.2,68.3z M31.4,69.3l0.1,0.2h0.2v0.1h-0.1l0.1,0.2h0.2
			v-0.4L31.4,69.3z M31.6,71.9h0.2l0.2-0.1l0-0.1l-0.3-0.1l-0.1,0.1L31.6,71.9z M31.9,70.3v0.1l0.2,0.1v-0.2H32L31.9,70.3z"/>
		<path class="st2" d="M33.3,67.6l0.1-0.6v-0.4l0.2-0.2l0.7,0.1v0.1l0.2,0.1v-0.2l0.2,0.1l0.2-0.1l0.3,0.1l0.3-0.1h0.8l0.2,0.1h0.2
			l0.6,0.3l0.4,0.6l0.1,0.1l0.1,0.3V68l0.1,0.2l0.1,0.4v0.9v0.1v0.3h-0.2v0.2H38v0.2l-0.2,0.3v0.2l-0.2,0.3h-0.1L37,71.5l-0.5,0.3
			h-0.4l-0.3,0.1l-0.3-0.1h-0.2L35.2,72h-0.3l-1.3,0.1l-0.2-0.2v-0.4l-0.1-0.1l0-1.2l0.1-0.2v-0.2l0-0.3l0-0.2v-0.3l-0.1-0.6
			l-0.1-0.2v-0.3l0.1-0.1L33.3,67.6z M33.8,71.4l0.1,0.1l0.1-0.1l-0.1-0.2L33.8,71.4z M34.1,71.4h0.1l-0.1-0.2H34L34.1,71.4z
			 M34.5,71.4v0.1l0.2,0.1v-0.1L34.5,71.4z M34.5,69.9L34.5,69.9l0.1-0.4h-0.1L34.5,69.9z M34.5,69.1h0.1V69h-0.1L34.5,69.1z
			 M34.8,67.4l-0.1,0.1l0.1,0.2l0.1-0.2L34.8,67.4z M34.8,71.5l0.3,0.2l0.1-0.2v-0.1l-0.4-0.1L34.8,71.5z M34.8,70.3l0.2,0.3
			l-0.1,0.1l0.1,0.1h0.6l0.1-0.1l0.3-0.1l0.3-0.3l0.1-0.3v-0.6l0.1-0.3l-0.2-0.7l-0.6-0.5H35L35,67.9l0.1,0.5v0.1v0.4l0,1.2
			L34.8,70.3z M35.2,67.2v0.1l0.1,0.1h0.2v-0.2L35.2,67.2z M35.7,67.2l-0.1,0.1l0.2,0.1l0.1-0.1L35.7,67.2z M35.6,71.4l0.2,0.2
			l0.1-0.2L35.6,71.4z M36,67.2L36,67.2l0.2,0.1v-0.1L36,67.2z M37.5,69h0.2v-0.2v-0.2h-0.1l0.1,0.2L37.5,69z M37.7,69.1l-0.1,0.1
			v0.3h0.1L37.7,69.1z M37.7,69.6l0,0.2h0.1L37.7,69.6L37.7,69.6z"/>
		<path class="st2" d="M38.9,67.5l0-0.8l0.1-0.3h0.6l0.1,0.2l0.5-0.1l0.1,0.2v-0.2h1.2l0.1,0.2h0.1l0.1-0.2l0.3,0.1l0.2-0.1l0.4,0.1
			l0.1,0.2l-0.1,0.5v0.4l-0.1,0.2l-1.4-0.1l-0.2,0.1l-0.4-0.1l-0.3,0.1l-0.2,0.3l0.1,0.2l0.2,0.2v0.1l0.3,0.2l0.1-0.2h0.3l0.1-0.1
			l0.7-0.1l0.3,0.1l0.1,0.3v0.2v0.5l-0.1,0.1h-0.4h-0.1h-0.5l-0.1-0.1l-0.6,0.1L40.5,70l-0.1,0.6l-0.1,0.1l0.1,0.2l0.2-0.1h0.1h0.8
			l0.3-0.1h0.7h0.2h0.3l0.1,0.3v0.8l-0.1,0.1h-0.3l-0.2-0.1H42l-0.3,0.1l-0.3-0.2h-0.2l-0.2,0h-0.1v0.1L40.6,72h-1h-0.3h-0.2
			L39,71.9v-2.3v-0.2v-0.9L38.8,68L38.9,67.5z M41.6,71.7L41.6,71.7l0.1,0.1v-0.1L41.6,71.7z M42.1,69.2v0.1l0.1,0.1l0-0.3
			L42.1,69.2z M42.3,67.1v0.2l0.3,0.2l0.2-0.1v-0.2L42.7,67L42.3,67.1z M42.4,71.4l0.2,0.1l0.2-0.2l-0.2-0.2l-0.1,0.1v0.1L42.4,71.4
			z"/>
		<path class="st2" d="M43.6,71.6l0.2-0.3v-0.2l0.1-0.1v-0.4l0.2-0.4l0.1-0.2v-0.2l0.1-0.2v-0.3l0.1-0.5l0.1-0.2l0.1-0.5l0.1-0.1
			l0.1-0.2l0.1-0.2v-0.1l0.2-0.2v-0.4l0.2-0.3l0.1-0.1h0.2h0.2v0.1h0.7v-0.1h0.3l0.2,0.2L47,67l0.1,0.4l0.1,0.2v0.1l0.1,0.2v0.2
			l0,0.1l0.1,0.6l0.2,0.5v0.1l0.2,0.5v0.3l0.1,0.1l0.1,0.5L48,71l0,0L48,71.2v0.2h-0.2l-0.1,0.1l0.1,0.1l0.1-0.1H48v0.1l0.3-0.1
			v-0.4h0.1l0.1,0.2l0.2,0.3V72l-0.1,0.1L48.3,72h-1.2L47,71.9l-0.1-0.3l-0.1-0.1l-0.1-0.3l-0.2-0.3l-0.2-0.1l-0.1,0.1h-0.2L46,70.8
			l-0.3,0.1h-0.2h-0.2L45.2,71L45,71.5v0.2l-0.2,0.2L44.6,72h-1l-0.1-0.1L43.6,71.6z M43.9,71.7L43.9,71.7v0.2h0.2L43.9,71.7l0.2,0
			l0.1,0.1l0,0h0.2l0.2-0.2l0.1-0.1v-0.2l0.1-0.2l-0.1-0.1l0.1-0.3l-0.2-0.1l0,0v0.2l-0.1,0.1v0.2L44,71.2L43.9,71.7z M44.5,69.7
			l0.1,0.2h0.1v-0.1h0.1l0.2-0.2l0.2,0.1l0.1-0.1v-0.2h-0.1L45,69.6l-0.2-0.2h-0.1l-0.1,0.1L44.5,69.7z M45,68.4l0.2,0.1l0.2-0.2
			l-0.1-0.1l-0.1,0.1v-0.1l0,0l-0.2-0.1L45,68.4z M45.2,67.6l0.3-0.1l0.1-0.1l0.1,0.1l0.2-0.1l0.1,0.1l0.3-0.1l-0.1-0.2H46v-0.1
			l0.2-0.1v0.1h0.2l0.2,0.1v-0.1l0.2-0.1v0.3l0,0.2l0.2,0.1v0.2h0.1L47,68l0.2-0.1L47,67.8v-0.1l-0.2-0.1l0.1-0.4V67h-0.2l-0.2,0.2
			v-0.1l-0.2-0.2V67H46v-0.1h0L45.9,67h-0.2l0.2-0.1v-0.1h-0.3V67h-0.1v0.2h-0.1L45.2,67.6z M45.3,68l0.2,0.2h0.1l0.2,0.2v0.1
			l-0.1,0.2V69l-0.1,0.2l0.1,0.5l0.2,0.1h0.4l0.1-0.1v-0.4l-0.2-0.5v-0.5v-0.1l0.1,0.1l0.1-0.1l-0.1-0.2h-0.4h-0.1h-0.1L45.3,68z
			 M45.5,70.2L45.5,70.2l0,0.2h0.2v-0.2h-0.1L45.5,70.2L45.5,70.2z M45.7,67.3h-0.2v-0.2h0.1L45.7,67.3z M45.6,68l0.2-0.1v0.2
			L45.6,68L45.6,68L45.6,68z M47,68.3v0.3h0.1l0,0h-0.1v-0.2L47,68.3z M47.2,69.3l0.1,0.2h0.2v0.1h-0.1l0.1,0.2h0.2v-0.4L47.2,69.3z
			 M47.5,71.9h0.2l0.2-0.1l-0.1-0.1l-0.3-0.1l-0.1,0.1L47.5,71.9z M47.8,70.3v0.1l0.2,0.1v-0.2h-0.1L47.8,70.3z"/>
		<path class="st2" d="M49.2,67.3v-0.6l0.2-0.2h0.3v0.2h0.1v-0.1l0.8-0.1l0.2,0.1l0.2,0.3v0.4v0.1l0,0.3l0,0.1v1.9L50.8,70L50.7,70
			l0.1,0.3l-0.2,0.2l0.1,0.1l0.1-0.1l0.3,0.1l0.3,0.3h0.8l0.1-0.1l0.3-0.4v-2.2V68l-0.1-0.3l0-0.7l0-0.3l0.2-0.1h0.5h0.5l0.1,0.1
			v0.2v1.1l0,0.6l-0.1,0.6l0.1,0.2v0.1l-0.1,0.1l0.1,0.5l0.1,0.1l-0.1,0.2l0.1,0.1l-0.2,0.4v0.2l-0.1,0.2v0.1l-0.5,0.5h-0.3L52.4,72
			H52l-0.1,0.1h-0.4L51.1,72l-0.3-0.1L50.5,72l-0.3-0.1H50l-0.2-0.2l-0.2-0.1l-0.3-0.3l-0.1-0.8l0.1-1.2L49.2,69v-0.5l0.1-0.1
			l-0.1-0.1v-0.1L49.1,68v-0.5L49.2,67.3z M49.9,66.7h-0.2l0.1,0.1L49.9,66.7z M49.8,70.7v0.2h0.2v-0.1L49.8,70.7z M50.6,71.4
			L50.6,71.4h0.2v-0.1L50.6,71.4z M50.9,71.1v0.1H51v-0.1L50.9,71.1z M51.1,71.5L51,71.6l0.2,0.1l0.6,0.1l0.1-0.1l0.2-0.2v0.2
			l0.1-0.1l0.2-0.1l-0.1-0.1h-0.1l-0.1,0h-0.2v0.2h-0.2l-0.1-0.1h-0.3L51.1,71.5l0.1,0h0.2v0.1L51.1,71.5z M53.1,70.6l0.2,0.1
			l0.2-0.1v-0.2l-0.1-0.1v0.2L53.1,70.6L53.1,70.6z M53.2,67.4h0.2v-0.1l-0.2-0.1L53.2,67.4z M53.3,67.7L53.3,67.7l-0.1,0.2
			L53.3,67.7L53.3,67.7z"/>
		<path class="st2" d="M47,48.1C47,48.1,47,48.1,47,48.1c-0.1,0-0.4,0-0.6,0c-0.1,0-0.2,0-0.3,0C46,48,45.8,48,45.7,48
			c0,0,0-0.1-0.1-0.1c-0.4-0.1-0.5-0.5-0.6-0.8c0-0.1-0.1-0.2-0.2-0.3l0,0c0,0,0-0.1,0-0.1v-0.1c0,0,0-0.1,0-0.1
			c0-0.1,0.1-0.2,0.1-0.3c0-0.2,0.1-0.4,0.3-0.6c0.2-0.2,0.4-0.5,0.7-0.5H46l0,0V45c0,0,0.3-0.1,0.3-0.2c0-0.1,0-0.3,0-0.4
			c0-0.1,0-0.3,0.1-0.4c0-0.1,0.1-0.4,0.3-0.4l0,0l0,0h0.1l0,0c0,0,0-0.1,0-0.1s0,0,0,0s0.1,0,0.1-0.1H47l0,0c0,0,0.1,0,0.1,0l0,0
			h0.2h0.2c0.1,0,0.3,0.2,0.5,0.2s0.1,0.3,0.2,0.3c0,0.1,0.1,0.1,0.1,0.2c0,0.1,0,0.2,0,0.3c0,0,0,0,0,0.1c0,0.1-0.1,0.3-0.1,0.4
			c-0.1,0.1-0.2,0.2-0.2,0.3c0,0.1,0.1,0.2,0.2,0.3c0,0-0.1,0-0.1,0.1s0,0,0,0h0.1c0.1,0.1,0.1,0,0.2,0.1s0,0,0,0l0,0
			c0,0,0.1,0,0.1,0.1s0.1,0,0.1,0.1s0.1,0,0.1,0s0.1-0.2,0.2-0.3s0.1-0.6,0.3-0.9H49c0,0.1,0.1,0.1,0.1,0.1s0.1-0.2,0.2-0.2v0.1l0,0
			l0,0c0,0,0.1-0.1,0.1-0.1s0.2,0.1,0.2,0.1c0,0,0.1,0,0.1,0c0,0.1,0.1,0.2,0.1,0.3l0,0c0,0-0.1,0-0.1,0c0,0.2,0,0.3-0.1,0.5
			c0,0.1,0,0.2,0,0.3c0,0.2-0.1,0.4-0.3,0.5c-0.1,0.1-0.1,0.2-0.2,0.3c0,0,0,0.1,0,0.1c0.1,0,0.2,0,0.2,0.1s-0.1,0.1-0.1,0.1
			s0.1,0.2,0.2,0.2c0,0,0.1,0,0.1-0.1l0,0l0,0l0,0c0,0,0.1,0.1,0.1,0.1S49.9,47,50,47l0,0c0,0,0,0.1,0,0.1s0,0,0,0s0.1-0.1,0.1-0.2
			s0.2,0,0.3,0c0,0.1,0,0.3,0,0.4s0,0.2,0,0.3s0,0.1,0,0.2s0,0,0,0v0c0,0.1,0,0.2,0,0.2c0,0,0,0,0,0.1c-0.1,0-0.2,0.1-0.3,0.1
			c-0.1,0-0.2,0-0.3,0h-0.7c0,0-0.1,0-0.1,0c-0.2,0-0.3-0.1-0.5-0.2l-0.3-0.2h0c-0.1,0-0.2,0.1-0.3,0.2h-0.1h-0.1h-0.1
			c0,0,0,0.1-0.1,0.1c-0.1,0-0.2,0-0.2,0h-0.1C47.2,48,47.1,48.2,47,48.1 M45.5,46.7C45.5,46.7,45.5,46.6,45.5,46.7L45.5,46.7
			C45.4,46.6,45.4,46.6,45.5,46.7C45.4,46.7,45.4,46.7,45.5,46.7 M46.6,47c0.1,0.1,0.2,0.1,0.3,0.1c0.1,0,0.1-0.1,0.1-0.1
			c0.1-0.1,0.3-0.1,0.4-0.3v-0.1c0,0,0-0.1-0.1-0.1c0,0-0.1-0.1-0.1-0.1c0,0,0,0,0-0.1c0-0.1-0.1-0.3-0.2-0.4c0,0-0.1-0.1-0.1,0
			c-0.1,0-0.1,0-0.2,0c-0.2,0.1-0.3,0.2-0.3,0.5C46.4,46.6,46.4,46.8,46.6,47 M46.8,44.6L46.8,44.6l0.1,0.1h0v-0.1l0,0L46.8,44.6
			 M47.4,43.9c-0.1,0-0.2,0.1-0.2,0.2c0,0.1,0,0.2,0.1,0.2c0,0,0.1,0,0.1,0.1l0,0c0.1,0,0.1,0,0.2,0s0-0.1,0-0.2s0,0,0-0.1
			S47.6,44,47.4,43.9L47.4,43.9"/>
	</g>
</g>
</svg>
