<?xml version="1.0" encoding="utf-8"?>
<!-- Generator: Adobe Illustrator 25.4.0, SVG Export Plug-In . SVG Version: 6.00 Build 0)  -->
<svg version="1.1" id="Laag_1" xmlns="http://www.w3.org/2000/svg" xmlns:xlink="http://www.w3.org/1999/xlink" x="0px" y="0px"
	 viewBox="0 0 100 100" style="enable-background:new 0 0 100 100;" xml:space="preserve">
<style type="text/css">
	.st0{fill:#1C3B6C;}
	.st1{fill:#FFFFFF;}
	.st2{fill:#E8A306;}
</style>
<path class="st0" d="M10.4,0h79.3C95.4,0,100,4.6,100,10.4v79.3c0,5.7-4.6,10.4-10.4,10.4H10.4C4.6,100,0,95.4,0,89.6V10.4
	C0,4.6,4.6,0,10.4,0z"/>
<rect x="40.3" y="48.5" class="st1" width="40.4" height="5"/>
<rect x="40.3" y="30.1" class="st1" width="5" height="40.4"/>
<path class="st1" d="M81,65.2c-0.1,0.4-0.1,0.7-0.2,1.1c-0.8,3.4-3.7,6-7.2,6.3c-0.3,0-0.5,0-0.8,0H27.1c-4.1,0-7.5-3.1-8-7.1
	c0-0.3-0.1-0.6-0.1-0.8V35.4c0-3.7,2.5-6.9,6.1-7.8c0.7-0.2,1.4-0.2,2.1-0.2h45.7c3.9,0,7.3,2.8,8,6.6c0,0.2,0.1,0.5,0.1,0.7
	L81,65.2z M76.6,36.5c0-0.4,0-0.7,0-1c0-1.6-1.3-2.9-2.9-2.9c0,0,0,0,0,0H27c-1.1,0-2.1,0.6-2.6,1.6c-0.3,0.8-0.4,1.6-0.3,2.4v28
	c0,1.6,1.2,3,2.8,3c0.1,0,0.1,0,0.2,0h46.5c1.6,0,3-1.2,3-2.8c0-0.1,0-0.1,0-0.2L76.6,36.5L76.6,36.5z"/>
<path class="st0" d="M51.9,39.5c0.9,0,1.8,0.2,2.7,0.5c3.5,1.4,5.2,5.4,3.8,8.9c-1,2.6-3.5,4.3-6.3,4.3h-1.2c1.7,1.8,2.9,4,3.4,6.4
	l-4.5,0.9c-0.1-0.3-0.2-0.6-0.2-0.9c-0.6-1.6-1.6-3-3-4.1c-1-0.8-2.2-1.5-3.4-2c-0.1,0-0.2-0.1-0.3-0.1c0,0-0.1,0-0.1,0
	c-2.1,0.8-3.9,2.1-5.3,3.9c-0.6,0.8-1.1,1.8-1.3,2.8c0,0.1-0.1,0.2-0.1,0.3l-4.5-0.8c0.4-2.4,1.6-4.6,3.3-6.4
	c-0.8-0.1-1.5,0-2.2-0.2c-3.7-0.6-6.2-4.2-5.6-7.9c0.5-3,2.9-5.3,6-5.7c0.3,0,0.6,0,0.9,0c2.1,0,4,0.8,5.6,2.3
	c1.2,1.1,2.3,2.4,3.2,3.8l0.3,0.5l0.3-0.4c1.1-1.9,2.7-3.5,4.5-4.8C48.9,40.1,50.3,39.6,51.9,39.5 M51.9,37.4L51.9,37.4
	c-1.9,0-3.8,0.6-5.4,1.6c-1.4,0.9-2.6,2-3.6,3.3c-0.6-0.8-1.3-1.5-2.1-2.2c-1.9-1.8-4.4-2.7-7-2.8c-0.4,0-0.7,0-1.1,0.1
	c-5,0.4-8.7,4.7-8.3,9.7c0.3,3.7,2.9,6.9,6.5,7.9c-0.7,1.4-1.3,2.8-1.5,4.3l-0.4,2.1l2.1,0.4l4.5,0.8l1.9,0.3l0.6-1.9v-0.1
	c0-0.1,0.1-0.3,0.1-0.4c0.2-0.7,0.5-1.4,0.9-2c1-1.3,2.3-2.2,3.8-2.9c0.8,0.4,1.6,0.9,2.4,1.5c1.1,0.8,1.9,1.8,2.3,3
	c0,0.2,0.1,0.3,0.1,0.5l0.1,0.3l0.5,1.9l2-0.4l2.8-0.5l1.6-0.3l2.1-0.4l-0.4-2.1c-0.3-1.5-0.8-2.9-1.5-4.2c4.8-1.5,7.4-6.5,6-11.2
	C60,41.1,58,39,55.4,38C54.3,37.5,53.1,37.3,51.9,37.4L51.9,37.4z"/>
<polygon class="st0" points="39.8,40.9 46.7,46.5 55.6,47.1 53.4,57 45,55.8 37.3,51 "/>
<path class="st2" d="M50.8,53.3c1.7,1.8,2.9,4,3.4,6.4l-4.5,0.9c-0.1-0.3-0.2-0.6-0.2-0.9c-0.6-1.6-1.6-3-3-4.1
	c-1-0.8-2.2-1.5-3.4-2c-0.1-0.1-0.3-0.1-0.5,0c-2.1,0.8-3.9,2.1-5.3,3.9c-0.6,0.8-1.1,1.8-1.3,2.8c0,0.1-0.1,0.2-0.1,0.3l-4.5-0.8
	c0.4-2.4,1.6-4.6,3.3-6.4c-0.8-0.1-1.5,0-2.2-0.2c-3.7-0.6-6.2-4.2-5.6-7.9c0.5-3,2.9-5.3,6-5.7c2.4-0.2,4.7,0.6,6.4,2.2
	c1.2,1.1,2.3,2.4,3.2,3.8c0.1,0.1,0.2,0.3,0.3,0.5l0.3-0.4c1.1-1.9,2.7-3.5,4.5-4.7c2-1.5,4.7-1.8,7-0.8c3.5,1.5,5.1,5.5,3.6,9
	c-1.1,2.5-3.5,4.1-6.2,4.2H50.8z M46.7,48.7c1.9,0,3.7,0,5.5,0c0.3,0,0.6-0.1,0.9-0.3c1.1-0.6,1.5-2,0.8-3.1c-0.5-0.9-1.7-1.4-2.7-1
	c-0.9,0.3-1.7,0.9-2.4,1.6C48,46.7,47.2,47.6,46.7,48.7z M39,48.7c-0.3-0.5-0.5-0.9-0.8-1.2c-0.8-1.2-1.9-2.3-3.2-3
	c-0.5-0.3-1.1-0.4-1.6-0.3c-1.2,0.1-2.1,1.2-2,2.4c0,1.2,1.1,2.2,2.3,2.2c0,0,0,0,0,0L39,48.7L39,48.7z"/>
</svg>
