<?xml version="1.0" encoding="utf-8"?>
<!-- Generator: Adobe Illustrator 25.4.0, SVG Export Plug-In . SVG Version: 6.00 Build 0)  -->
<svg version="1.1" id="Laag_1" xmlns="http://www.w3.org/2000/svg" xmlns:xlink="http://www.w3.org/1999/xlink" x="0px" y="0px"
	 viewBox="0 0 100 100" style="enable-background:new 0 0 100 100;" xml:space="preserve">
<style type="text/css">
	.st0{fill:#014888;}
	.st1{fill:#FFFFFF;}
	.st2{fill:#ECB200;}
	.st3{fill:#00194F;}
	.st4{enable-background:new    ;}
</style>
<path class="st0" d="M10.4,0h79.3C95.4,0,100,4.6,100,10.4v79.3c0,5.7-4.6,10.4-10.4,10.4H10.4C4.6,100,0,95.4,0,89.6V10.4
	C0,4.6,4.6,0,10.4,0z"/>
<path class="st1" d="M27.8,37.3h-5.5c0.1-0.6,0-1.2-0.3-1.8c-0.3-0.5-1.2-0.7-2.7-0.7c-1-0.1-1.9,0.1-2.8,0.4
	c-0.5,0.3-0.7,0.8-0.7,1.7c-0.1,0.6,0.1,1.2,0.6,1.6c0.4,0.2,0.8,0.3,1.2,0.3l1.1,0.1c2.4,0.2,3.9,0.3,4.4,0.3
	c1.5,0,2.9,0.6,4.1,1.5c0.7,0.7,1.1,1.5,1.2,2.5c0.1,0.7,0.1,1.3,0.1,2c0.1,1.3-0.1,2.6-0.5,3.9c-0.6,1.5-2,2.5-4.1,2.8
	c-1.4,0.2-2.7,0.3-4.1,0.2c-2.2,0.1-4.3-0.1-6.4-0.5c-1.4-0.4-2.5-1.4-2.9-2.7c-0.3-1.2-0.5-2.5-0.4-3.8h5.5v0.5
	c0,1,0.3,1.6,0.8,1.8c0.4,0.2,0.9,0.3,1.4,0.3h2c0.7,0,1.3,0,2-0.2c0.5-0.2,0.8-0.5,1-1c0.1-0.3,0.1-0.7,0.1-1c0-1-0.4-1.5-1-1.8
	c-1.2-0.2-2.5-0.3-3.7-0.3c-1.8-0.1-3-0.2-3.6-0.4c-1.4-0.1-2.7-0.9-3.5-2.1c-0.6-1.2-0.9-2.6-0.8-4c0-1.1,0.1-2.2,0.4-3.3
	c0.2-0.8,0.7-1.4,1.4-1.9c1.1-0.7,2.3-1.1,3.5-1.2c1.2-0.1,2.5-0.2,4-0.2c1.6-0.1,3.3,0.1,4.9,0.4c2.4,0.6,3.6,2.4,3.6,5.4
	C27.8,36.5,27.8,36.8,27.8,37.3z"/>
<path class="st1" d="M51.8,52.2V30.4h11c1.2,0,2.3,0.1,3.4,0.4c1.7,0.5,3.1,1.8,3.6,3.5c0.4,1.3,0.5,2.7,0.5,4.1
	c0.1,1.6-0.1,3.2-0.5,4.8c-0.7,1.9-2.4,3.2-4.3,3.3c-0.2,0-1.3,0.1-3.3,0.1h-1h-3.5v5.6L51.8,52.2z M57.7,41.5h3.7
	c0.7,0,1.4-0.1,2.1-0.3c0.4-0.3,0.6-0.7,0.7-1.2c0.1-0.6,0.1-1.1,0.1-1.7c0-0.7,0-1.3-0.2-2c-0.2-0.6-0.8-1.1-1.5-1.2
	c-0.2,0-0.5,0-1.1,0h-3.7V41.5z"/>
<path class="st1" d="M82.9,48.4h-7.9L74,52.2h-6.1l6.6-21.9h8.9L90,52.2h-6L82.9,48.4z M81.8,44.2L79,34.7l-2.7,9.5H81.8z"/>
<path class="st2" d="M43.7,33.4c2.3,0,4.5,1.1,6,2.9l1.3-2.7c-4.5-4.2-11.5-4-15.8,0.5c-0.9,1-1.6,2.1-2.1,3.3h-2.5l-1.5,3.1h3.2
	c0,0.3,0,0.6,0,0.9c0,0.4,0,0.7,0,1.1h-1.6l-1.5,3.1h3.9c2.5,5.6,9.1,8.1,14.8,5.6c0.6-0.3,1.1-0.5,1.6-0.9v-3.8
	c-2.8,3.2-7.7,3.5-10.9,0.7c-0.5-0.5-1-1-1.4-1.6h8.1l1.5-3.1H36c0-0.4,0-0.8,0-1.2c0-0.3,0-0.5,0-0.8h11.7l1.5-3.1H37
	C38.4,34.9,40.9,33.4,43.7,33.4z"/>
<path class="st3" d="M43.7,33.5c2.3,0,4.5,1,6,2.8l0.1,0.1l0.1-0.1l1.3-2.7v-0.1v0c-3.8-3.6-9.6-4.1-14-1.1c-1.8,1.2-3.2,2.9-4,4.9
	l0.1-0.1h-2.6v0l-1.5,3.1L29,40.5h3.3l-0.1-0.1c0,0.3,0,0.6,0,0.9c0,0.4,0,0.7,0.1,1.1l0.1-0.1h-1.7v0l-1.5,3.1l-0.1,0.1h4l-0.1-0.1
	c1.8,4.1,5.8,6.7,10.2,6.6c2.2,0,4.4-0.6,6.2-1.9l0,0v-4.2l-0.2,0.2c-2.8,3.2-7.6,3.5-10.8,0.7c-0.5-0.5-1-1-1.4-1.6l-0.1,0.2h8.2
	l0,0l1.5-3.1l0.1-0.1H36l0.1,0.1C36,42,36,41.7,36,41.3c0-0.3,0-0.5,0-0.8l-0.1,0.1h11.9v-0.1l1.5-3.1l0.1-0.1H37l0.1,0.1
	C38.4,35,41,33.5,43.7,33.5z M37,37.4h12.2l-0.1-0.1l-1.4,3.1h0.1H35.9v0.1c0,0.3,0,0.5,0,0.8c0,0.4,0,0.7,0.1,1.1v0.1h10.8
	l-0.1-0.1l-1.5,3.1l0.1-0.1h-8.3l0.1,0.2c2.4,3.6,7.2,4.6,10.9,2.3c0.6-0.4,1.1-0.9,1.6-1.4l-0.2-0.1v3.8v-0.1
	c-1.8,1.2-3.9,1.8-6.1,1.8c-4.4,0-8.3-2.5-10.1-6.5v-0.1h-4l0.1,0.1l1.5-3.1l-0.1,0.1h1.7v-0.1c0-0.3,0-0.7,0-1s0-0.5,0-0.9v-0.1
	h-3.3l0.1,0.1l1.5-3.1l-0.1,0.1h2.5v-0.1c0.8-2,2.2-3.7,4-4.8c4.3-2.9,10-2.4,13.8,1.1v-0.1l-1.3,2.7h0.2c-2.7-3.4-7.6-3.9-11-1.2
	C38.1,35.7,37.5,36.5,37,37.4l-0.1,0.1L37,37.4z"/>
<g class="st4">
	<path class="st1" d="M13.1,66.2c-0.8,0-1.5-0.3-2.1-0.8c-0.5-0.5-0.8-1.2-0.8-2c0-0.8,0.3-1.5,0.8-2c0.5-0.5,1.2-0.8,2.1-0.8
		c0.6,0,1.1,0.1,1.5,0.4c0.5,0.3,0.8,0.7,1,1.2l-1.4,0.7c-0.3-0.5-0.7-0.7-1.1-0.7c-0.4,0-0.6,0.1-0.9,0.3c-0.2,0.2-0.3,0.5-0.3,0.9
		c0,0.4,0.1,0.6,0.3,0.9s0.5,0.3,0.9,0.3c0.2,0,0.5-0.1,0.7-0.2c0.2-0.1,0.4-0.3,0.5-0.5l1.4,0.8c-0.2,0.4-0.6,0.8-1,1.1
		C14.2,66.1,13.7,66.2,13.1,66.2z"/>
</g>
<g class="st4">
	<path class="st1" d="M18.6,66.1h-1.7v-5.3h1.6v0.7c0.3-0.5,0.8-0.8,1.4-0.8c0.2,0,0.5,0,0.7,0.1l-0.1,1.6c-0.2-0.1-0.5-0.1-0.7-0.1
		c-0.8,0-1.2,0.5-1.2,1.5V66.1z"/>
</g>
<g class="st4">
	<path class="st1" d="M26.7,63.3c0,0.2,0,0.4-0.1,0.7h-3.8c0.2,0.6,0.6,0.8,1.3,0.8c0.6,0,1.1-0.2,1.6-0.5l0.7,1.2
		c-0.7,0.5-1.5,0.7-2.4,0.7c-0.9,0-1.7-0.3-2.2-0.8c-0.5-0.5-0.8-1.2-0.8-2c0-0.8,0.3-1.5,0.8-2c0.5-0.5,1.2-0.8,2.1-0.8
		c0.8,0,1.4,0.2,2,0.7S26.7,62.5,26.7,63.3z M24,62c-0.6,0-1,0.3-1.2,0.8h2.3c-0.1-0.3-0.2-0.5-0.4-0.6C24.5,62.1,24.3,62,24,62z"/>
	<path class="st1" d="M31.9,61.2v-2.5h1.7v7.4h-1.7v-0.5c-0.4,0.4-0.9,0.6-1.5,0.6c-0.8,0-1.4-0.3-1.9-0.8c-0.5-0.5-0.7-1.2-0.7-2
		c0-0.8,0.2-1.5,0.7-2c0.5-0.5,1.1-0.8,1.9-0.8C31,60.7,31.5,60.8,31.9,61.2z M30.7,64.7c0.3,0,0.6-0.1,0.9-0.4s0.3-0.5,0.3-0.9
		c0-0.3-0.1-0.6-0.3-0.9c-0.2-0.2-0.5-0.4-0.9-0.4s-0.6,0.1-0.9,0.4c-0.2,0.2-0.3,0.5-0.3,0.9c0,0.4,0.1,0.7,0.3,0.9
		C30.1,64.6,30.4,64.7,30.7,64.7z"/>
	<path class="st1" d="M36,60.3c-0.3,0-0.5-0.1-0.7-0.3c-0.2-0.2-0.3-0.4-0.3-0.7c0-0.3,0.1-0.5,0.3-0.7c0.2-0.2,0.4-0.3,0.7-0.3
		s0.5,0.1,0.7,0.3c0.2,0.2,0.3,0.4,0.3,0.7c0,0.3-0.1,0.5-0.3,0.7C36.5,60.2,36.3,60.3,36,60.3z M36.9,60.8v5.3h-1.7v-5.3H36.9z"/>
	<path class="st1" d="M42.1,64.5l0.5,1.4c-0.5,0.3-1.1,0.4-1.7,0.4c-1.3,0-2-0.7-2-2.2v-1.9h-0.8v-1.4h0.8v-1.9h1.7v1.9h1.7v1.4
		h-1.7v1.7c0,0.6,0.2,0.9,0.7,0.9C41.5,64.7,41.8,64.6,42.1,64.5z"/>
</g>
<g class="st4">
	<path class="st1" d="M49.8,64.5l0.5,1.4c-0.5,0.3-1.1,0.4-1.7,0.4c-1.3,0-2-0.7-2-2.2v-1.9h-0.8v-1.4h0.8v-1.9h1.7v1.9h1.7v1.4
		h-1.7v1.7c0,0.6,0.2,0.9,0.7,0.9C49.2,64.7,49.5,64.6,49.8,64.5z"/>
</g>
<g class="st4">
	<path class="st1" d="M52.8,66.1h-1.7v-5.3h1.6v0.7c0.3-0.5,0.8-0.8,1.4-0.8c0.2,0,0.5,0,0.7,0.1l-0.1,1.6c-0.2-0.1-0.5-0.1-0.7-0.1
		c-0.8,0-1.2,0.5-1.2,1.5V66.1z"/>
</g>
<g class="st4">
	<path class="st1" d="M59.6,61.3v-0.5h1.6v5.3h-1.6v-0.5c-0.4,0.4-1,0.6-1.6,0.6c-0.8,0-1.4-0.3-1.9-0.8c-0.5-0.5-0.7-1.2-0.7-2
		c0-0.8,0.2-1.5,0.7-2c0.5-0.5,1.1-0.8,1.9-0.8C58.6,60.7,59.2,60.9,59.6,61.3z M59.6,63.4c0-0.3-0.1-0.6-0.4-0.9
		c-0.2-0.2-0.5-0.4-0.9-0.4c-0.4,0-0.6,0.1-0.9,0.4c-0.2,0.2-0.3,0.5-0.3,0.9c0,0.4,0.1,0.7,0.3,0.9c0.2,0.2,0.5,0.4,0.9,0.4
		s0.6-0.1,0.9-0.4C59.5,64.1,59.6,63.8,59.6,63.4z"/>
	<path class="st1" d="M64.5,66.1h-1.7v-5.3h1.7v0.7c0.1-0.3,0.4-0.5,0.7-0.6c0.3-0.2,0.6-0.3,1-0.3c0.6,0,1.1,0.2,1.5,0.6
		c0.4,0.4,0.6,0.9,0.6,1.6v3.3h-1.7v-2.8c0-0.3-0.1-0.6-0.3-0.8c-0.2-0.2-0.4-0.3-0.7-0.3c-0.3,0-0.6,0.1-0.8,0.3s-0.3,0.5-0.3,0.8
		V66.1z"/>
</g>
<g class="st4">
	<path class="st1" d="M71.5,66.3c-0.9,0-1.7-0.3-2.4-0.9l0.8-1.2c0.5,0.4,1,0.7,1.6,0.7c0.4,0,0.6-0.1,0.6-0.3
		c0-0.1-0.1-0.2-0.3-0.3c0,0,0,0,0,0c0,0,0,0-0.1,0c0,0-0.1,0-0.1,0c0,0-0.1,0-0.2-0.1c-0.1,0-0.1,0-0.2-0.1
		c-0.4-0.1-0.7-0.2-0.7-0.3c-0.7-0.3-1-0.8-1-1.5c0-0.5,0.2-0.9,0.6-1.2c0.4-0.3,0.9-0.5,1.6-0.5c0.8,0,1.4,0.2,2,0.7l-0.7,1.1
		C72.5,62.1,72,62,71.6,62c-0.1,0-0.2,0-0.3,0.1c-0.1,0.1-0.1,0.1-0.1,0.2c0,0.2,0.2,0.3,0.5,0.4c0.5,0.1,0.9,0.3,1.3,0.5
		c0.6,0.3,0.9,0.7,0.9,1.4c0,0.5-0.2,1-0.6,1.3C72.8,66.1,72.2,66.3,71.5,66.3z"/>
</g>
<g class="st4">
	<path class="st1" d="M78,59.9c-0.3,0-0.5,0.1-0.6,0.2c-0.2,0.1-0.2,0.3-0.2,0.6v0.1h1.6v1.4h-1.6v3.9h-1.7v-3.9h-0.8v-1.4h0.8v-0.1
		c0-0.7,0.2-1.3,0.6-1.7c0.4-0.4,1-0.6,1.7-0.6c0.6,0,1.2,0.2,1.8,0.5l-0.6,1.3C78.5,60,78.2,59.9,78,59.9z"/>
</g>
<g class="st4">
	<path class="st1" d="M84.9,63.3c0,0.2,0,0.4-0.1,0.7H81c0.2,0.6,0.6,0.8,1.3,0.8c0.6,0,1.1-0.2,1.6-0.5l0.7,1.2
		c-0.7,0.5-1.5,0.7-2.4,0.7c-0.9,0-1.7-0.3-2.2-0.8c-0.5-0.5-0.8-1.2-0.8-2c0-0.8,0.3-1.5,0.8-2c0.5-0.5,1.2-0.8,2.1-0.8
		c0.8,0,1.4,0.2,2,0.7C84.6,61.8,84.9,62.5,84.9,63.3z M82.1,62c-0.6,0-1,0.3-1.2,0.8h2.3c-0.1-0.3-0.2-0.5-0.4-0.6
		C82.7,62.1,82.4,62,82.1,62z"/>
</g>
<g class="st4">
	<path class="st1" d="M87.8,66.1h-1.7v-5.3h1.6v0.7c0.3-0.5,0.8-0.8,1.4-0.8c0.2,0,0.5,0,0.7,0.1l-0.1,1.6c-0.2-0.1-0.5-0.1-0.7-0.1
		c-0.8,0-1.2,0.5-1.2,1.5V66.1z"/>
</g>
</svg>
