<?xml version="1.0" encoding="utf-8"?>
<!-- Generator: Adobe Illustrator 25.4.0, SVG Export Plug-In . SVG Version: 6.00 Build 0)  -->
<svg version="1.1" id="Laag_1" xmlns="http://www.w3.org/2000/svg" xmlns:xlink="http://www.w3.org/1999/xlink" x="0px" y="0px"
	 viewBox="0 0 100 100" style="enable-background:new 0 0 100 100;" xml:space="preserve">
<style type="text/css">
	.st0{fill:#7DBF90;}
	.st1{fill:#FFFFFF;}
	.st2{fill:none;stroke:#FFFFFF;stroke-width:2.54;stroke-linecap:round;stroke-linejoin:round;}
	.st3{fill:none;stroke:#FFFFFF;stroke-width:1.82;stroke-linecap:round;stroke-miterlimit:10;}
	.st4{fill:none;stroke:#FFFFFF;stroke-width:1.82;stroke-linecap:round;stroke-miterlimit:10;stroke-dasharray:0.34,2.73;}
	
		.st5{fill:none;stroke:#FFFFFF;stroke-width:1.82;stroke-linecap:round;stroke-miterlimit:10;stroke-dasharray:0.34,2.73,0.34,2.73;}
</style>
<path class="st0" d="M10.4,0h79.3C95.4,0,100,4.6,100,10.4v79.3c0,5.7-4.6,10.4-10.4,10.4H10.4C4.6,100,0,95.4,0,89.6V10.4
	C0,4.6,4.6,0,10.4,0z"/>
<path class="st1" d="M17.9,63.8c-0.6-0.1-1.2-0.1-1.8,0c-2.1,0.4-3.7,2.2-3.6,4.4v7c0,0.2,0,0.5,0.1,0.7l0,0
	c0.1,0.2,0.3,0.3,0.5,0.4c0.2,0.1,0.5,0,0.6-0.1c0.3-0.2,0.5-0.6,0.4-1v-2.8h5.7v2.8c0,0.2,0,0.5,0.1,0.7c0.1,0.2,0.3,0.3,0.5,0.4
	h0.2c0.2,0,0.3,0,0.5-0.1c0.3-0.2,0.5-0.6,0.4-1v-7C21.5,66,20,64.2,17.9,63.8z M19.8,68.2v2.6h-5.6v-2.6c-0.1-1,0.4-1.9,1.2-2.4
	c0.6-0.4,1.4-0.6,2.2-0.4c0.4,0.1,0.7,0.2,1,0.4l0,0C19.4,66.3,19.9,67.2,19.8,68.2L19.8,68.2z M38.3,72.5c-0.1-0.2-0.3-0.3-0.5-0.4
	c-0.2-0.1-0.4,0-0.6,0.1c-0.3,0.2-0.5,0.4-0.5,0.8l-0.1,0.3v0.1c-0.2,1-1.2,1.7-2.2,1.5c0,0,0,0-0.1,0c-0.7-0.1-1.7-0.5-1.7-2.5
	v-0.1h2.2c0.3,0,1.1,0,1.1-0.8c0-0.4-0.3-0.7-0.7-0.8c-0.2,0-0.3,0-0.5,0h-2.2v-3.1c0-0.2,0-0.4-0.1-0.7l0,0
	c-0.1-0.2-0.3-0.3-0.5-0.4c-0.2-0.1-0.5,0-0.6,0.1c-0.3,0.2-0.4,0.6-0.4,1v4.6c0,2.6,0.9,3.9,3,4.2c0.2,0,0.5,0.1,0.7,0.1
	c1.6,0,3.1-1.1,3.5-2.7c0-0.1,0.1-0.2,0.1-0.4l0,0C38.4,73.2,38.4,72.8,38.3,72.5L38.3,72.5z M49.1,70.3c-0.7-2.7-3.5-4.3-6.2-3.6
	s-4.3,3.5-3.6,6.2c0,0.1,0.1,0.2,0.1,0.4c0.7,2,2.6,3.4,4.7,3.3c0.4,0,0.8,0,1.2-0.1c0.6-0.1,1.2-0.4,1.7-0.7
	c0.3-0.2,0.6-0.5,0.9-0.8c0.3-0.2,0.4-0.6,0.4-0.9c0-0.2-0.1-0.4-0.3-0.5c-0.2-0.1-0.4-0.2-0.6-0.2l0,0c-0.2,0.1-0.4,0.2-0.5,0.3
	l-0.1,0.2L46.5,74l0,0c-0.4,0.5-1,0.8-1.6,0.9c-1.6,0.4-3.3-0.5-3.9-2.1c0-0.1-0.1-0.2-0.1-0.4h7.2h0.2h0.2c0.2,0,0.4-0.1,0.6-0.3
	C49.4,71.8,49.4,71.3,49.1,70.3L49.1,70.3z M41,70.6c0.5-1.8,2.4-2.8,4.1-2.2c0,0,0,0,0,0c1.2,0.3,2,1.3,2.3,2.4c0,0.1,0,0.2,0,0.3
	h-6.7C40.9,70.9,40.9,70.7,41,70.6L41,70.6z M57.6,69.6c0-0.1-0.1-0.3-0.1-0.4v-0.1c-0.5-1.5-1.9-2.6-3.5-2.5c-0.3,0-0.5,0-0.8,0.1
	c-1.3,0.3-2.8,1.2-2.8,4.1v4.5c0,0.2,0,0.5,0.2,0.7c0.1,0.2,0.3,0.3,0.5,0.4h0.2c0.2,0,0.3,0,0.5-0.1c0.3-0.2,0.4-0.6,0.3-1v-4.4
	c0-1.5,0.5-2.2,1.6-2.4c0.7-0.2,1.4,0.1,1.9,0.6c0.2,0.2,0.3,0.5,0.4,0.8c0,0.4,0.2,0.8,0.4,1.2l0,0c0.3,0.3,0.7,0.3,1,0.2
	C57.7,70.7,57.7,70.1,57.6,69.6L57.6,69.6z"/>
<path class="st1" d="M67.2,65.2c-0.8-1-2.1-1.6-3.4-1.5c-2.3,0-4.2,1.8-4.2,4.1c0,0.1,0,0.3,0,0.4v7c0,0.2,0,0.5,0.2,0.7
	c0.1,0.2,0.3,0.3,0.5,0.4h0.2c0.2,0,0.3,0,0.5-0.1c0.3-0.2,0.5-0.6,0.4-1V72h2.4c2.1,0.2,3.9-1.2,4.3-3.3
	C68.3,67.5,68,66.2,67.2,65.2L67.2,65.2z M66.5,67.9c0,1.4-1.1,2.5-2.5,2.5c-0.1,0-0.1,0-0.2,0l0,0h-2.4v-2.3
	c-0.1-0.7,0.1-1.5,0.6-2.1c1-1,2.7-1,3.7,0C66.2,66.5,66.4,67.2,66.5,67.9L66.5,67.9z M78.6,71.1c0-0.4-0.1-0.7-0.2-1.1
	c-0.4-1.2-1.2-2.2-2.3-2.8c-1.2-0.7-2.6-0.8-3.9-0.4c-2.6,0.8-4.1,3.6-3.3,6.3c0.5,1.6,1.7,2.8,3.3,3.3c0.5,0.1,0.9,0.2,1.4,0.2
	c0.7,0,1.4-0.1,2-0.4c0.5-0.2,1-0.5,1.4-0.9l0,0c0,0.2,0,0.4,0.1,0.7l0,0c0.2,0.4,0.7,0.5,1.1,0.3c0,0,0.1,0,0.1-0.1
	c0.3-0.2,0.4-0.6,0.4-1v-3.8L78.6,71.1L78.6,71.1z M74.4,74.8c-1.8,0.5-3.5-0.6-4-2.4c0,0,0,0,0,0l0,0c-0.1-0.2-0.1-0.5-0.1-0.7
	c-0.1-1.6,0.8-3,2.3-3.5c0.3-0.1,0.7-0.2,1.1-0.2c0.7,0,1.3,0.2,1.9,0.6c0.9,0.6,1.4,1.6,1.4,2.7C77.1,73,76,74.5,74.4,74.8z
	 M87.4,67.2l-0.3,0.2L87.4,67.2L87.4,67.2c-0.1-0.2-0.3-0.3-0.5-0.4c-0.2-0.1-0.5,0-0.7,0.1c-0.3,0.2-0.4,0.6-0.4,1v4.5
	c0,0.7-0.2,1.5-0.7,2c-0.9,0.7-2.2,0.6-2.9-0.3c-0.3-0.4-0.5-1-0.4-1.5v-4.7c0-0.2,0-0.5-0.1-0.7c-0.1-0.2-0.3-0.3-0.5-0.4
	c-0.2-0.1-0.5,0-0.7,0.1c-0.3,0.2-0.4,0.6-0.4,1v4.6c-0.1,1.6,0.8,3.1,2.4,3.7c1.1,0.4,2.4,0.2,3.4-0.4l0,0
	c-0.1,0.9-0.7,1.6-1.5,1.8c-0.4,0.1-0.9,0.1-1.4-0.1c-0.3-0.1-0.5-0.3-0.7-0.5l-0.2-0.3l-0.2-0.2c-0.1-0.1-0.1-0.2-0.2-0.2v-0.1l0,0
	c-0.2-0.1-0.5-0.1-0.7,0c-0.2,0.1-0.4,0.3-0.5,0.6c0,0.4,0.1,0.7,0.3,1l0,0c0.2,0.3,0.4,0.5,0.7,0.8c0.6,0.5,1.4,0.7,2.2,0.7
	c0.4,0,0.7,0,1.1-0.1c1.8-0.4,2.8-1.9,2.8-4v-7.3C87.6,67.7,87.5,67.4,87.4,67.2L87.4,67.2z"/>
<path class="st1" d="M30,69.6c0-0.1-0.1-0.3-0.1-0.4v-0.1c-0.5-1.5-1.9-2.6-3.5-2.5c-0.3,0-0.5,0-0.8,0.1c-1.3,0.3-2.9,1.2-2.9,4.1
	v4.5c0,0.2,0,0.4,0.1,0.7l0,0c0.1,0.2,0.3,0.3,0.5,0.4h0.2c0.2,0,0.3,0,0.5-0.1c0.3-0.2,0.4-0.6,0.4-1v-1v-1.9h2.4
	c0.8,0,1-0.4,1-0.7c0-0.2-0.1-0.4-0.2-0.6c-0.2-0.2-0.5-0.3-0.8-0.3h-2.4c0-1.5,0.5-2.2,1.6-2.4c0.7-0.2,1.4,0.1,1.9,0.6
	c0.2,0.2,0.3,0.5,0.4,0.8c0,0.4,0.2,0.8,0.4,1.2l0,0c0.3,0.3,0.7,0.3,1,0.2C30.1,70.7,30,70.1,30,69.6L30,69.6z"/>
<path class="st2" d="M48.2,54.6H29.3c-1.5,0-2.6-1.2-2.6-2.6V27.6l6.9-6.9H49c1.5,0,2.6,1.2,2.6,2.6v9.4"/>
<path class="st1" d="M32.6,36.5c0.2-0.8,0.5-1.5,0.9-2.2c0.4-0.7,0.9-1.3,1.5-1.8c0.6-0.5,1.4-1,2.1-1.3c0.9-0.3,1.8-0.5,2.7-0.5
	c1.3,0,2.5,0.3,3.6,0.9c1,0.6,1.8,1.4,2.3,2.4l-2.2,1.5c-0.2-0.4-0.4-0.8-0.7-1.1c-0.3-0.3-0.6-0.5-0.9-0.7c-0.3-0.2-0.7-0.3-1-0.4
	c-0.3-0.1-0.7-0.1-1-0.1c-0.5,0-1,0.1-1.5,0.3c-0.4,0.2-0.8,0.4-1.2,0.7c-0.3,0.3-0.6,0.6-0.9,1c-0.2,0.4-0.4,0.8-0.5,1.2h5.4
	l-0.6,1.6h-5.1v0.2c0,0.3,0,0.6,0.1,0.8h5l-0.6,1.6h-3.9c0.3,0.8,0.9,1.4,1.5,1.9c0.7,0.5,1.5,0.8,2.3,0.7c0.4,0,0.7,0,1.1-0.1
	c0.4-0.1,0.7-0.2,1-0.4c0.3-0.2,0.6-0.4,0.9-0.7c0.3-0.3,0.5-0.7,0.7-1l2.4,1.4c-0.2,0.6-0.6,1.1-1,1.5c-0.5,0.4-1,0.8-1.5,1
	c-0.6,0.3-1.2,0.5-1.8,0.7c-0.6,0.1-1.2,0.2-1.9,0.2c-0.8,0-1.6-0.1-2.3-0.4c-0.7-0.3-1.4-0.7-2-1.1c-0.6-0.5-1.1-1-1.5-1.7
	c-0.4-0.6-0.8-1.3-1-2h-2.2l0.6-1.6h1.2c0-0.3-0.1-0.6-0.1-0.9v-0.1H31l0.6-1.6L32.6,36.5z"/>
<polyline class="st2" points="28.1,28.1 34.3,28.1 34.3,21.5 "/>
<path class="st3" d="M73.4,45.6c0,6.7-5.4,12.1-12.1,12.1s-12.1-5.4-12.1-12.1c0-5.9,4.2-10.9,10-11.9"/>
<polygon class="st1" points="55.9,37.1 58.7,33.7 55.3,31 57.9,30.7 61.3,33.5 58.5,36.8 "/>
<path class="st3" d="M64.5,33.9l0.2,0"/>
<path class="st4" d="M67.2,35c0.5,0.3,1,0.6,1.4,0.9"/>
<path class="st5" d="M69.6,36.9c1.2,1.1,2.1,2.4,2.7,3.9"/>
<path class="st3" d="M72.8,42c0,0.1,0,0.1,0,0.2"/>
<path class="st1" d="M54.7,43.2l2.9-2.3h1.5V50h-2v-6.4l-1.4,1L54.7,43.2z"/>
<path class="st1" d="M66.9,46.3h1V48h-1v2H65v-2h-3.9l-0.4-1.3l4.7-5.7h1.5L66.9,46.3z M65,43.7l-2.1,2.6H65V43.7z"/>
</svg>
