<?xml version="1.0" encoding="utf-8"?>
<!-- Generator: Adobe Illustrator 25.4.0, SVG Export Plug-In . SVG Version: 6.00 Build 0)  -->
<svg version="1.1" id="Laag_1" xmlns="http://www.w3.org/2000/svg" xmlns:xlink="http://www.w3.org/1999/xlink" x="0px" y="0px"
	 viewBox="0 0 100 100" style="enable-background:new 0 0 100 100;" xml:space="preserve">
<style type="text/css">
	.st0{fill:#1A1F28;}
	.st1{fill:#FFFFFF;}
</style>
<path class="st0" d="M10.4,0h79.3C95.4,0,100,4.6,100,10.4v79.3c0,5.7-4.6,10.4-10.4,10.4H10.4C4.6,100,0,95.4,0,89.6V10.4
	C0,4.6,4.6,0,10.4,0z"/>
<path class="st1" d="M35.5,82.5C32.2,82.4,31,81.4,31,78c0-6.2-0.1-6.2,6.1-6.2c4.7,0,4.7,0,4.7-4.8c0-5-0.1-10,0-15
	c0.1-2.6-0.7-3.8-3.5-3.8c-6.3,0-6.5-0.2-4.2-5.9c2.5-6.6,3.6-13.6,3.2-20.6c-0.1-1.9,0.5-3.9,3-4.1c2.3-0.2,3.7,1.5,3.5,4.1
	c-0.9,9.5,1.8,17.2,5,25.9c1.2,3.3,1.2,7.1,1.2,10.7c0.1,6.5-0.1,13.1-0.2,19.6c-0.1,4.2-0.4,4.6-4.5,4.6
	C43.6,82.5,37.2,82.5,35.5,82.5z"/>
<path class="st1" d="M67.2,81.5c-0.8-0.4-1.8-0.7-2.7-1.1c-1.1-0.5-2-1.3-2.6-2.3c-0.6-2.5-0.3-5.3,0-8c0.2-1.3,1-2.5,2.2-3.3
	c6.2-3.7,5.7-12.8,3.6-18c-0.3-0.7-1.6-1.2-2.5-1.3c-1.5-0.1-3-0.1-4.4-0.1c-1.5-0.1-3,0-4.4,0.1c-0.9,0.1-2.2,0.6-2.5,1.3
	c-2.1,5.3-2.6,14.3,3.6,18c1.1,0.8,1.9,1.9,2.1,3.3c0.3,2.6,0.6,5.5,0,8c-0.7,1-1.6,1.8-2.6,2.3c-0.9,0.3-2,0.7-2.7,1.1
	c-0.1,0-0.1,0.2-0.2,0.6h13.4C67.3,81.7,67.2,81.5,67.2,81.5z"/>
</svg>
