<svg id="Laag_1" data-name="Laag 1" xmlns="http://www.w3.org/2000/svg" xmlns:xlink="http://www.w3.org/1999/xlink" viewBox="0 0 100 100"><defs><style>.cls-1{fill:none;}.cls-2{fill:#fff;}.cls-3{fill:#a8a8a7;}.cls-4{fill:#2765af;}.cls-4,.cls-5{fill-rule:evenodd;}.cls-5,.cls-6{fill:#3c3738;}.cls-7{clip-path:url(#clip-path);}.cls-8{fill:#007078;}</style><clipPath id="clip-path"><rect class="cls-1" x="-120" y="123.89" width="100" height="100" rx="10.37"/></clipPath></defs><rect class="cls-2" x="0.5" y="0.5" width="99" height="99" rx="9.87"/><path class="cls-3" d="M89.63,1A9.38,9.38,0,0,1,99,10.37V89.63A9.38,9.38,0,0,1,89.63,99H10.37A9.38,9.38,0,0,1,1,89.63V10.37A9.38,9.38,0,0,1,10.37,1H89.63m0-1H10.37A10.41,10.41,0,0,0,0,10.37V89.63A10.41,10.41,0,0,0,10.37,100H89.63A10.41,10.41,0,0,0,100,89.63V10.37A10.41,10.41,0,0,0,89.63,0Z"/><path class="cls-4" d="M30.85,18.79H72.24a5.47,5.47,0,0,1,5.29,5.6v2.68a2.57,2.57,0,1,1-5.12,0V25.63a1.69,1.69,0,0,0-1.69-1.69H29.24a1.69,1.69,0,0,0-1.69,1.69v1.43c0,3.76-4.89,3.73-4.89.08V24.39A5.47,5.47,0,0,1,28,18.79Zm19,62.42H76.68c6.13,0,6.19-6.52,5.56-9.74-.34-2.16-4-2.14-4.42,0V74a2.09,2.09,0,0,1-2.08,2.09H24.26A2.09,2.09,0,0,1,22.18,74V71.47c-.41-2.14-4.08-2.16-4.42,0-.63,3.22-.57,9.74,5.56,9.74H49.83Z"/><path class="cls-5" d="M66.42,47.45h4.29V47.4a4.09,4.09,0,0,0,3.45-4h0a4.08,4.08,0,0,0-4.07-4.07H61.47V60.59H72.4a4.21,4.21,0,0,0,4.2-4.2h0a4.22,4.22,0,0,0-4.2-4.21h-6a2.37,2.37,0,0,1-2.36-2.36h0a2.37,2.37,0,0,1,2.36-2.36Zm10.07,2.09a8.19,8.19,0,0,1,4.84,7.33h0a8.5,8.5,0,0,1-8.74,8.19H59.11a2.23,2.23,0,0,1-2.3-2.15V37.26A2.27,2.27,0,0,1,59.07,35H70.3a8.62,8.62,0,0,1,8.59,8.59h0A8.58,8.58,0,0,1,76.49,49.54Z"/><path class="cls-6" d="M54.67,62.5a2.71,2.71,0,1,1-5.38.57l-2.22-20.4L39.22,62.62v0h0l0,0,0,.05h0l0,0v0l0,0v0l0,0h0a2.61,2.61,0,0,1-.54.72h0l0,0A2.21,2.21,0,0,1,38,64h0l0,0h0l0,0h0l0,0h0l0,0h-.06l0,0h-.12a2.69,2.69,0,0,1-.79.15h-.2a2.76,2.76,0,0,1-.88-.18l0,0h0l0,0h0l0,0h0l0,0h0l0,0h0l0,0h0a2.34,2.34,0,0,1-.41-.29h0l-.09-.07h0l-.07-.06-.07-.07h0l-.08-.09h0a3.71,3.71,0,0,1-.28-.41l0,0,0,0h0l0,0v0l0,0v-.06l0,0h0l0,0-7.86-20L24.1,63.07a2.71,2.71,0,1,1-5.38-.57l2.61-24h0a4.11,4.11,0,0,1,.18-.83,4.74,4.74,0,0,1,.32-.78,4.5,4.5,0,0,1,3.37-2.34h.15a3.89,3.89,0,0,1,.68,0h0a5.11,5.11,0,0,1,.82.1A4.44,4.44,0,0,1,30,37.27l6.69,17,6.69-17a4.46,4.46,0,0,1,3.15-2.72,5,5,0,0,1,.82-.1h0a3.89,3.89,0,0,1,.68,0h.15a4.47,4.47,0,0,1,3.36,2.34,4.05,4.05,0,0,1,.33.78,4.11,4.11,0,0,1,.18.83h0Z"/><g class="cls-7"><rect class="cls-8" x="-46.52" y="87.67" width="40.68" height="164.99" transform="matrix(0.96, 0.28, -0.28, 0.96, 46.94, 14.3)"/></g></svg>