<svg id="Laag_1" data-name="Laag 1" xmlns="http://www.w3.org/2000/svg" viewBox="0 0 100 100"><defs><style>.cls-1{fill:#ff5d00;}.cls-2{fill:#fff;}</style></defs><rect class="cls-1" width="100" height="100" rx="10.37"/><path class="cls-2" d="M66.49,33.62a6,6,0,0,0,.63,0h.12a7.77,7.77,0,0,0,2.23-.51,8.24,8.24,0,0,0,4.1-3.33l.14-.22a.08.08,0,0,1,.08,0l.25.12,3.8,2,3.85,2a.82.82,0,0,1,.2.12,0,0,0,0,1,0,0,.49.49,0,0,1,0,.11l-.55,1q-3.61,6.93-7.25,13.86c-.51,1-1,2-1.55,3a2.12,2.12,0,0,1-.12.2s0,0-.07,0l-.09-.11a14.46,14.46,0,0,0-1.17-1.42,11.76,11.76,0,0,0-2.32-2l-.14-.1a.11.11,0,0,1-.06-.09s0-.08,0-.12l0-.49c0-.08,0-.17,0-.25a3.89,3.89,0,0,0,0-.49c0-.06,0-.12,0-.17s0-.23,0-.35,0-.36-.07-.54-.1-.59-.15-.88-.17-.84-.27-1.26c-.16-.66-.35-1.32-.57-2a2.62,2.62,0,0,0-.71-1.1,2.67,2.67,0,0,0-2.36-.7l-.79.14-.9.19-1.63.38A32.13,32.13,0,0,0,57,42q-.59.23-1.14.48A56.82,56.82,0,0,1,49.16,45l-.22.07A.24.24,0,0,1,48.7,45l-.16-.17c-.44-.47-.87-.94-1.29-1.43-1.14-1.3-2.21-2.65-3.23-4a17.11,17.11,0,0,0-2.71-2.93l-.26-.23a.19.19,0,0,1,0-.08l.09-.18.7-1.32q4.38-8.37,8.77-16.74l.15-.28c0-.07.07-.07.14,0l0,0,.11.05,2.29,1.2,5.25,2.75.3.16c.08,0,.09.07,0,.16s0,0,0,.06l0,.08a9.09,9.09,0,0,0-.5,1.61c0,.17-.06.34-.08.51,0,.33-.06.65-.08,1,0,.12,0,.25,0,.37s0,.21,0,.32A6.27,6.27,0,0,0,58.39,27a.13.13,0,0,1,0,.06,6.36,6.36,0,0,0,.37,1.27,9.76,9.76,0,0,0,.84,1.6,8.65,8.65,0,0,0,1.21,1.42c.16.15.33.29.5.43a11,11,0,0,0,1.15.77,2.22,2.22,0,0,0,.41.2l.29.13a8.05,8.05,0,0,0,1.66.54,8.31,8.31,0,0,0,1,.15C66.07,33.6,66.31,33.63,66.49,33.62Z"/><path class="cls-2" d="M66.11,49.36a7,7,0,0,1,0,.77c0,.09,0,.19,0,.28l0,.35s0,.07,0,.11c-.06.51-.09.69-.17,1.17s-.26,1.2-.43,1.79a2.18,2.18,0,0,1-.21.47,1.6,1.6,0,0,1-.74.62,2.51,2.51,0,0,1-.55.17,4.56,4.56,0,0,1-.82.08,6.81,6.81,0,0,1-.78-.05l-.37,0c-.27,0-.53-.1-.79-.16a21.36,21.36,0,0,1-3.65-1.2,49.7,49.7,0,0,1-4.75-2.33l-2.33-1.31-.55-.31h-.06v0a.59.59,0,0,0,0,.19c.19.52.39,1,.58,1.54l2.91,7.75,2.38,6.36c.1.26.2.52.29.78l.06.16a.07.07,0,0,1,0,.07l-.08,0-1.29.41-5.75,1.81-.55.18H48.3a.06.06,0,0,1-.06,0V69c0-.1,0-.21,0-.31s.05-.44.09-.66a.91.91,0,0,0,0-.17c0-.13,0-.27,0-.4v-.06c0-.38.06-.76.07-1.15q0-1.29,0-2.58l0-.46s0-.06,0-.09c0-.38,0-.77-.08-1.15a2,2,0,0,0,0-.23l0-.31,0-.29s0-.07,0-.11c0-.24-.06-.48-.09-.72s-.05-.41-.08-.62-.05-.38-.08-.57,0-.31-.07-.46c-.07-.44-.14-.89-.23-1.33s-.16-.91-.25-1.36-.21-1-.32-1.52-.2-1-.31-1.43-.17-.81-.26-1.21a1.74,1.74,0,0,0,0-.22l0,0s-.05,0-.07,0l-.13.23-1.42,2.56-4.6,8.27L38,66.85l-.16.27a.06.06,0,0,1-.08,0L37.57,67l-1.06-.88-3.19-2.64-.2-.17a.08.08,0,0,1,0-.08l.14-.15c.54-.55,1.07-1.12,1.59-1.7a54,54,0,0,0,4-5c.23-.32.44-.66.65-1,.38-.61.75-1.22,1.11-1.84.58-1,1.21-2,1.88-2.9l.38-.51,1-1.28s.07-.07.08-.12a.05.05,0,0,0,0-.05h-.08l-.84,0-.77,0c-.34,0-.68,0-1,0l-.46,0c-.23,0-.46,0-.69,0h-.2c-.2,0-.4,0-.6-.05l-.23,0-.35,0-.25,0-.29,0-.23,0-.25,0-.18,0-.71-.09c-.13,0-.26,0-.39-.06l-1.14-.2a13.66,13.66,0,0,1-1.54-.34l-.69-.2-.65-.22a5.14,5.14,0,0,1-2-1.25,1.46,1.46,0,0,1-.38-.63,1.67,1.67,0,0,1-.06-.77A4.1,4.1,0,0,1,30,44a17.4,17.4,0,0,1,3.5-6.89A16,16,0,0,1,35,35.61l.24-.21a.47.47,0,0,1,.12-.07.31.31,0,0,1,.25,0l.19.08.72.41A24.44,24.44,0,0,1,39,37.5l.41.32a.38.38,0,0,1,.13.15.18.18,0,0,0,0,.07.69.69,0,0,1,.13.11A14.17,14.17,0,0,1,42,40.66q1.39,1.92,2.94,3.73c.61.71,1.23,1.41,1.88,2.1l.14.14a2.42,2.42,0,0,0,1.24.68,2.31,2.31,0,0,0,.83,0,4.64,4.64,0,0,0,.51-.11c1.48-.44,2.93-.94,4.37-1.5.92-.35,1.84-.73,2.74-1.13a27.09,27.09,0,0,1,3.26-1.2c.58-.17,1.16-.34,1.75-.48s.93-.23,1.4-.33l1.32-.26a1.09,1.09,0,0,1,.26,0,.38.38,0,0,1,.36.23c0,.07,0,.13.07.19.21.64.39,1.29.54,1.94.07.34.14.68.2,1,0,.17,0,.34.08.51s.06.44.09.65a2,2,0,0,1,0,.23l0,.29,0,.29c0,.08,0,.17,0,.25s0,.42,0,.64Z"/><path class="cls-2" d="M46.24,64.66c0,.31,0,.61,0,.92s0,.48,0,.72a4,4,0,0,1,0,.6c0,.07,0,.14,0,.2s0,.31,0,.46,0,.42-.08.63-.11.71-.14.91c-.11.55-.25,1.1-.4,1.65l-.42,1.52-.06.22a.06.06,0,0,0,.06.06l.14,0,1-.31L51,70.69,56.4,69l2.44-.77.27-.09a.08.08,0,0,0,0-.09s0-.06,0-.09l-.09-.24C58,64.82,56.9,61.92,55.83,59L54.3,55l-.06-.19a0,0,0,0,1,0-.05h0l.21.1c.64.3,1.29.6,1.94.88s1.6.65,2.42.92c.62.2,1.26.38,1.91.53l.76.15.59.08.12,0,.51,0a6.4,6.4,0,0,0,1,0h.12l.08,0,.1.06a4.51,4.51,0,0,1,1.64,1.85.93.93,0,0,1,0,.1c.05.09.06.2.11.3a2,2,0,0,1,.11.26.11.11,0,0,1,0,.11,1.19,1.19,0,0,1-.09.15,3.3,3.3,0,0,0-.44,1.18,3,3,0,0,0,0,.94c0,.27.07.53.11.8s.06.34.08.51a3.66,3.66,0,0,0,.16.73.36.36,0,0,1,0,.11.11.11,0,0,1,0,.08,1.42,1.42,0,0,1-.08.18c-.49,1-1,1.89-1.48,2.83L56.63,82.07l-.12.23c0,.07-.07.08-.13,0l-.08,0-.15-.08L43.84,75.79Q34.75,71,25.67,66.3a1.78,1.78,0,0,1-.3-.17,0,0,0,0,1,0,0,.56.56,0,0,1,.07-.16c.26-.5.52-1,.79-1.5l7.4-14.14c0-.09.09-.17.13-.26s.07-.05.1,0l.37.08,1.1.21.88.15.57.08.65.09.23,0,.26,0,.26,0h.05c.4,0,.81.06,1.21.1l0,0a.08.08,0,0,1,0,.05l0,.08c-.52.86-1,1.72-1.57,2.58a26.94,26.94,0,0,1-1.81,2.69,54.54,54.54,0,0,1-5.27,6.09l-.95.92a1.53,1.53,0,0,0-.18.18.06.06,0,0,0,0,.06.32.32,0,0,0,.1.1l.73.6,5.24,4.33,2.57,2.12a.71.71,0,0,0,.14.1s.06,0,.07,0l0-.07L38.9,70l6.44-11.59c0-.09.1-.18.16-.27s0,0,0,0h0c0,.1,0,.19,0,.28.06.37.13.74.18,1.11s.1.7.13,1.06.07.47.09.71.06.55.08.83,0,.63.07,1,0,.57,0,.86S46.23,64.43,46.24,64.66Z"/><path class="cls-2" d="M32.08,35.18h0a2.12,2.12,0,0,1-.2-.12c-.67-.44-1.33-.9-2-1.39s-1.15-.92-1.7-1.42l-.13-.11c-.13-.13-.16-.13-.09-.32.26-.92.52-1.85.79-2.77.33-1.17.67-2.34,1-3.51s.75-2.59,1.12-3.89.68-2.36,1-3.54c0-.08.05-.17.08-.25a.09.09,0,0,1,.09-.05h.08l3.68,1.06L39.68,20l.63.18.08,0a.11.11,0,0,1,.06.09c0,.06,0,.13,0,.2s-.07.43-.11.65v0a8,8,0,0,0,0,1.2,1.09,1.09,0,0,1,0,.18,7.77,7.77,0,0,0,.57,2.51,7.9,7.9,0,0,0,1.42,2.29,1.15,1.15,0,0,1,.14.17.13.13,0,0,1,0,.06c0,.05,0,.1-.07.16-.28.51-.55,1-.82,1.55L39,34.18a2,2,0,0,1-.14.25.06.06,0,0,1-.1,0l-.12-.07c-.57-.37-1.16-.71-1.75-1.05a3,3,0,0,0-.55-.24,2.37,2.37,0,0,0-.91-.13,2.68,2.68,0,0,0-1.62.59l-.3.27a16.12,16.12,0,0,0-1.24,1.24s-.07.09-.12.11Z"/><path class="cls-2" d="M30.75,72.1a1.06,1.06,0,0,0-.19-.06L27.3,71.1,23.38,70l-3.89-1.12-1.83-.52-.1,0a.08.08,0,0,1-.06-.09l0-.11L19,62.85l1.47-5.11,1.41-4.92,1.47-5.11c.48-1.67.95-3.34,1.43-5,0-.08.05-.15.07-.22a.05.05,0,0,1,.08,0l.21.14c.6.42,1.21.82,1.83,1.19l.52.31a.13.13,0,0,1,.06.13v.08a1,1,0,0,0,0,.17c0,.14,0,.27,0,.41a4,4,0,0,0,.8,2.24l.19.21A7.13,7.13,0,0,0,30.82,49l.26.12a.07.07,0,0,1,0,.07l-.12.24-1.26,2.42L21.84,66.93a2.44,2.44,0,0,0-.14.28s0,0,0,.06a0,0,0,0,0,0,0l.2.11,2.55,1.34,6,3.13c.09,0,.19.09.28.15a.06.06,0,0,1,0,.08Z"/><path class="cls-2" d="M70.31,77c0,.19,0,.36,0,.53a3.77,3.77,0,0,0,0,.58c0,.17,0,.34.07.51a6.51,6.51,0,0,0,.43,1.49c.08.18.17.36.26.54a1.42,1.42,0,0,1,.08.18.06.06,0,0,1,0,.08L71,81l-2.65,1-1.1.43-.11,0a.08.08,0,0,1-.08,0l0-.07L66.86,82a14,14,0,0,1-.7-2.28c-.06-.33-.12-.66-.17-1s0-.56-.08-.83a.76.76,0,0,1,0-.15c0-.39,0-.78,0-1.17a4.41,4.41,0,0,1,0-.52,1.36,1.36,0,0,0,0-.2c0-.17,0-.35,0-.52s.05-.47.08-.71,0-.38.07-.57l.09-.54c.06-.36.12-.72.2-1.07.11-.54.24-1.07.38-1.6s.23-.83.36-1.24c.22-.68.42-1.35.62-2,.07-.26.15-.52.23-.78a.16.16,0,0,1,0-.08l0,0h.09c.15,0,.3,0,.45.08l.2,0a3.94,3.94,0,0,0,.77,0l1.14-.17.57-.08.57-.09.48-.07.54-.08.54-.08.46-.07h0s0,0,0,0a.61.61,0,0,1,.13.15c.15.25.3.49.46.73.48.74,1,1.47,1.52,2.17a21.34,21.34,0,0,0,1.44,1.71,14.18,14.18,0,0,0,1.26,1.19,9,9,0,0,0,1.34.94,6.15,6.15,0,0,0,1.31.58c.27.08.55.15.83.21l.17,0s.05.05,0,.07l-.15.5c-.37,1.15-.73,2.3-1.1,3.45a1,1,0,0,1-.06.16l0,0h-.08c-.27-.07-.54-.14-.8-.23a13.21,13.21,0,0,1-4.33-2.39l-.24-.21a25.11,25.11,0,0,1-3.56-3.94l-.42-.58-.08-.09a.07.07,0,0,0-.07,0s0,0,0,.05c-.23.7-.44,1.41-.62,2.13-.11.43-.28,1.18-.35,1.6s-.11.62-.14.93-.06.54-.09.8c0,.09,0,.18,0,.26S70.31,76.82,70.31,77Z"/><path class="cls-2" d="M23.87,36.91a4.7,4.7,0,0,1,.1-.83,14.65,14.65,0,0,1,.4-1.44c.21-.62.44-1.24.67-1.86l0-.05a.08.08,0,0,1,.08,0l.11.13a16.44,16.44,0,0,0,1.33,1.31l.13.12a8.69,8.69,0,0,0,1,.84c.86.68,1.75,1.31,2.66,1.92a.45.45,0,0,1,.13.11.07.07,0,0,1,0,0,.08.08,0,0,1,0,.05l-.09.15a18.74,18.74,0,0,0-2,4l-.08.18s-.05,0-.07,0l-.08,0c-.54-.34-1.09-.68-1.61-1.06-.26-.18-.51-.37-.76-.57s-.21-.19-.31-.29-.83-.91-1-1.19a4.81,4.81,0,0,1-.27-.41,2.22,2.22,0,0,1-.24-.62.83.83,0,0,1,0-.22C23.88,37.1,23.88,37,23.87,36.91Z"/><path class="cls-2" d="M68.22,58.61c-.12,0-.16,0-.18-.06l0,0L68,58.4a7.88,7.88,0,0,0-1.22-1.81l-.15-.17s0-.07,0-.08l.15-.17a4.07,4.07,0,0,0,.92-1.55c.06-.18.12-.36.17-.55.11-.4.26-1,.33-1.42s.11-.57.15-.85a2.93,2.93,0,0,1,.05-.29s0,0,.07,0l0,0,.22.19A13.18,13.18,0,0,1,71,54.6c.38.68.74,1.37,1.05,2.08a9,9,0,0,1,.4,1,1.72,1.72,0,0,1,.07.21s0,.07,0,.07l-.1,0-.6.08-.57.09c-.14,0-.29,0-.43.06l-.57.08-.51.07-.71.1-.6.09Z"/><path class="cls-2" d="M67.89,62a.23.23,0,0,0,0-.09.68.68,0,0,1,.07-.28,1,1,0,0,1,.62-.52l.08,0,.43-.07.57-.08.48-.08.54-.07.54-.09.54-.08.57-.08.82-.12a1.08,1.08,0,0,1,.56.07.94.94,0,0,1,.48.44.65.65,0,0,1,.11.29l0,.14c0,.37.11.72.15,1.08a1.4,1.4,0,0,1,0,.29,1,1,0,0,1-.4.65.9.9,0,0,1-.44.18l-.66.1-.37.06L72,63.8l-.56.08L71,64l-.54.08-.54.08-.65.09a.9.9,0,0,1-.23,0,1.55,1.55,0,0,1-.31,0,.58.58,0,0,1-.22-.08,1,1,0,0,1-.42-.53.35.35,0,0,1,0-.11L68,63.11l-.09-.6A3.52,3.52,0,0,1,67.89,62Z"/><path class="cls-2" d="M61.1,26.14l.1,0,2.46.71.49.15a.19.19,0,0,1,.08,0s0,.05,0,.06,0,.08,0,.12c-.25.84-.49,1.69-.74,2.54a1,1,0,0,1-.05.16.07.07,0,0,1-.08,0l-.09-.06A5.56,5.56,0,0,1,61.17,27a5.62,5.62,0,0,1-.15-.55,2.34,2.34,0,0,1,0-.26S61,26.12,61.1,26.14Z"/><path class="cls-2" d="M30.75,72.1h0Z"/></svg>