<svg id="Laag_1" data-name="Laag 1" xmlns="http://www.w3.org/2000/svg" viewBox="0 0 100 100"><defs><style>.cls-1{fill:#fff;}.cls-2{fill:#a8a8a7;}.cls-3{fill:#003163;}.cls-4{fill:#23ac70;}</style></defs><rect class="cls-1" x="0.5" y="0.5" width="99" height="99" rx="9.87"/><path class="cls-2" d="M89.63,1A9.38,9.38,0,0,1,99,10.37V89.63A9.38,9.38,0,0,1,89.63,99H10.37A9.38,9.38,0,0,1,1,89.63V10.37A9.38,9.38,0,0,1,10.37,1H89.63m0-1H10.37A10.41,10.41,0,0,0,0,10.37V89.63A10.41,10.41,0,0,0,10.37,100H89.63A10.41,10.41,0,0,0,100,89.63V10.37A10.41,10.41,0,0,0,89.63,0Z"/><path class="cls-3" d="M38.4,38.79c-2.14-.08-3.8-.87-4.52-2.81a8.66,8.66,0,0,1,0-6.18A4.11,4.11,0,0,1,38,27.12q11.51-.06,23,0a4.56,4.56,0,0,1,4.54,4.6c0,.77,0,1.54,0,2.31a4.64,4.64,0,0,1-4.34,4.74l-.6,0c0,1.59.11,3.16,0,4.71a9.7,9.7,0,0,0,1.61,6C67.34,58.24,72.4,67.06,77.5,75.85A6.59,6.59,0,0,1,78.58,80a5.51,5.51,0,0,1-5.16,4.8c-2,.2-4.06.17-6.09.17q-20,0-40,0a10.3,10.3,0,0,1-2.07-.2c-3.09-.67-4.54-3.2-3.64-6.4a13.06,13.06,0,0,1,1-2.47Q30.32,61.67,38,47.43a3.68,3.68,0,0,0,.41-1.59C38.43,43.51,38.4,41.18,38.4,38.79Zm19.76-2.44c1,0,1.93,0,2.83,0a2.13,2.13,0,0,0,2.11-2.12c0-.84,0-1.69,0-2.54A2.1,2.1,0,0,0,61,29.52H38a2.12,2.12,0,0,0-2.15,2.15c0,.75,0,1.49,0,2.24a2.2,2.2,0,0,0,2.42,2.44h2.53v1.29c0,2.93,0,5.86,0,8.79A3.36,3.36,0,0,1,40.41,48q-7.8,14.6-15.65,29.17a9.29,9.29,0,0,0-.85,2.13c-.46,1.82.24,2.88,2.07,3.24a7.15,7.15,0,0,0,1.31.09q22.28,0,44.54,0a6.44,6.44,0,0,0,1.75-.25,1.86,1.86,0,0,0,1.56-2.16,9.16,9.16,0,0,0-.92-3C69,67.39,63.77,57.68,58.56,48a3.33,3.33,0,0,1-.38-1.45c0-2.56,0-5.13,0-7.7Z"/><path class="cls-4" d="M43.17,21.5A2.77,2.77,0,0,1,46,18.7a2.83,2.83,0,1,1,0,5.65A2.78,2.78,0,0,1,43.17,21.5Z"/><path class="cls-4" d="M52.7,19.82a2.41,2.41,0,1,1,2.5-2.36A2.39,2.39,0,0,1,52.7,19.82Z"/><path class="cls-3" d="M57.27,51.52,72.78,79.77l-.2.2H26.29a14.52,14.52,0,0,1,.59-1.45c3.45-6.3,6.92-12.59,10.36-18.9.23-.41.43-.47.9-.37,2.08.43,4.17.84,6.28,1.12a5.18,5.18,0,0,0,4.28-1.58c.82-.77,1.59-1.6,2.35-2.44a20.13,20.13,0,0,1,5.38-4.43C56.68,51.79,56.94,51.68,57.27,51.52Z"/><path class="cls-4" d="M49.93,42.63A5.08,5.08,0,1,1,55,37.55,5.05,5.05,0,0,1,49.93,42.63Z"/><path class="cls-4" d="M47.87,45.42a3.65,3.65,0,0,1,0,7.29,3.65,3.65,0,1,1,0-7.29Z"/></svg>