<svg id="Laag_1" data-name="Laag 1" xmlns="http://www.w3.org/2000/svg" xmlns:xlink="http://www.w3.org/1999/xlink" viewBox="0 0 100 100"><defs><style>.cls-1{fill:#fff;}.cls-2{fill:#1b1d74;}.cls-3{clip-path:url(#clip-path);}</style><clipPath id="clip-path"><path class="cls-1" d="M34.4,30.7,28,46.86,25.43,33.12a2.87,2.87,0,0,0-2.84-2.42H12.14l-.14.69a25.61,25.61,0,0,1,6.06,2,2.61,2.61,0,0,1,1.46,2.08l4.89,18.95H30.9l10-23.74Zm9.09,0L38.41,54.44h6.14L49.63,30.7ZM78.7,37.11,80.56,46H75.47Zm-.9-6.41a2.79,2.79,0,0,0-2.61,1.74L66,54.44h6.45l1.28-3.55h7.88l.74,3.55H88L83,30.7ZM51.3,38.11c0,3.42,3.05,5.33,5.38,6.46s3.19,1.91,3.19,3c0,1.6-1.91,2.3-3.68,2.33a13,13,0,0,1-6.31-1.5l-1.11,5.2a18.58,18.58,0,0,0,6.83,1.26c6.45,0,10.67-3.19,10.69-8.12,0-6.27-8.66-6.61-8.6-9.41,0-.85.83-1.76,2.6-2a11.71,11.71,0,0,1,6.06,1.06l1.08-5a16.45,16.45,0,0,0-5.75-1.05c-6.07,0-10.34,3.22-10.38,7.84"/></clipPath></defs><rect class="cls-2" width="100" height="100" rx="10.37"/><path class="cls-1" d="M34.4,30.7,28,46.86,25.43,33.12a2.87,2.87,0,0,0-2.84-2.42H12.14l-.14.69a25.61,25.61,0,0,1,6.06,2,2.61,2.61,0,0,1,1.46,2.08l4.89,18.95H30.9l10-23.74Zm9.09,0L38.41,54.44h6.14L49.63,30.7ZM78.7,37.11,80.56,46H75.47Zm-.9-6.41a2.79,2.79,0,0,0-2.61,1.74L66,54.44h6.45l1.28-3.55h7.88l.74,3.55H88L83,30.7ZM51.3,38.11c0,3.42,3.05,5.33,5.38,6.46s3.19,1.91,3.19,3c0,1.6-1.91,2.3-3.68,2.33a13,13,0,0,1-6.31-1.5l-1.11,5.2a18.58,18.58,0,0,0,6.83,1.26c6.45,0,10.67-3.19,10.69-8.12,0-6.27-8.66-6.61-8.6-9.41,0-.85.83-1.76,2.6-2a11.71,11.71,0,0,1,6.06,1.06l1.08-5a16.45,16.45,0,0,0-5.75-1.05c-6.07,0-10.34,3.22-10.38,7.84"/><g class="cls-3"><rect class="cls-1" x="12" y="30.27" width="76" height="24.54"/></g><path class="cls-1" d="M37.39,60.81c1.62,0,3.19,0,4.76,0,.38,0,.92-.12,1.1.08s.1.75.11,1.14c0,.64,0,.64-.65.64h-3v1.57h3.63c0,.57,0,1.07,0,1.56,0,.09-.24.22-.37.23-.92,0-1.84,0-2.76,0h-.51v1.58h3.58v1.83H37.39Z"/><path class="cls-1" d="M76.43,69.71A3.26,3.26,0,0,1,73.28,68a3.51,3.51,0,0,1,.27-3.78A3.45,3.45,0,0,1,77,63a3.39,3.39,0,0,1-.59,6.75Zm-1.36-3.42a9,9,0,0,0,.23,1,1.12,1.12,0,0,0,1.11.74,1.1,1.1,0,0,0,1.13-.7,2.34,2.34,0,0,0,0-2,1.11,1.11,0,0,0-1.12-.63,1.08,1.08,0,0,0-1.06.67A6.42,6.42,0,0,0,75.07,66.29Z"/><path class="cls-1" d="M83.27,63.14l0,.57a3.77,3.77,0,0,1,2.12-.77,1.71,1.71,0,0,1,1.85,1.56,8.28,8.28,0,0,1,.09,1.41c0,1.17,0,2.34,0,3.53H85.17a3.11,3.11,0,0,1,0-.33c0-1.14,0-2.27,0-3.41,0-.75-.46-1-1.16-.74s-.68.36-.68,1v3.45H81.09a1.32,1.32,0,0,1,0-.23c0-1.88,0-3.76,0-5.64,0-.33.1-.44.43-.43C82.09,63.15,82.67,63.14,83.27,63.14Z"/><path class="cls-1" d="M50.49,66.81c.14,1.36,1.33,1.58,3.23.66.22.37.44.73.63,1.1a.31.31,0,0,1-.07.3A3.92,3.92,0,0,1,48.6,68a3.65,3.65,0,0,1,.68-4.15,3.5,3.5,0,0,1,3.95-.61,3.09,3.09,0,0,1,1.51,2.52c0,.32,0,.64.07,1Zm2.25-1.33c0-.69-.31-1.12-.9-1.14a1.23,1.23,0,0,0-1.25,1.14Z"/><path class="cls-1" d="M63,64.83l-.28,0c-.64,0-.64,0-.61-.7,0-.29,0-.58,0-.91l1-.06V61.05H65.2v2.08h1.71v1.63H65.09c0,.91,0,1.76,0,2.61,0,.36.28.51.62.46s.48-.15.77-.24c.14.42.29.86.42,1.31a.32.32,0,0,1-.15.27,3.85,3.85,0,0,1-2.48.49A1.37,1.37,0,0,1,63,68.33c-.06-.84,0-1.68,0-2.52Z"/><path class="cls-1" d="M61.32,63.53l-.7,1.4c-.19-.05-.36-.12-.55-.16a1.86,1.86,0,0,0-1.82.42,1.59,1.59,0,0,0-.36,1.65,1.56,1.56,0,0,0,2,1c.24-.07.47-.18.71-.27a1.5,1.5,0,0,1,.15.23c.22.39.42.78.63,1.16a4.07,4.07,0,0,1-4.83-.15,3.69,3.69,0,0,1-.2-4.65A4,4,0,0,1,61.32,63.53Z"/><path class="cls-1" d="M44.81,60.09h1.92c.3,0,.28.19.28.39v9h-2.2Z"/><path class="cls-1" d="M72.28,65.07a12,12,0,0,0-1.57.29.77.77,0,0,0-.51.84c0,1.07,0,2.15,0,3.24H68c0-.59,0-1.15,0-1.71,0-1.37,0-2.75,0-4.13,0-.38.13-.48.49-.47.56,0,1.12,0,1.73,0l0,.83a1.89,1.89,0,0,1,2.3-.9Z"/></svg>