<svg id="Laag_1" data-name="Laag 1" xmlns="http://www.w3.org/2000/svg" xmlns:xlink="http://www.w3.org/1999/xlink" viewBox="0 0 100 100"><defs><style>.cls-1{fill:none;}.cls-2{clip-path:url(#clip-path);}.cls-3{fill:#ce0e2d;}.cls-4{fill:#002856;}.cls-5{fill:#007078;}.cls-6,.cls-7{fill:#fff;}.cls-6{fill-rule:evenodd;}</style><clipPath id="clip-path"><rect class="cls-1" width="100" height="100" rx="10.37"/></clipPath></defs><g class="cls-2"><rect class="cls-3" x="-3.67" y="-58.22" width="40.68" height="164.99" transform="translate(7.52 -3.72) rotate(16.38)"/><rect class="cls-4" x="34.99" y="-47.53" width="40.68" height="164.99" transform="translate(12.11 -14.19) rotate(16.38)"/><rect class="cls-5" x="73.48" y="-36.21" width="40.68" height="164.99" transform="matrix(0.96, 0.28, -0.28, 0.96, 16.86, -24.58)"/></g><path class="cls-6" d="M63.87,64h2.32l.67-2.23H64.54Zm1.85-6.16-.79,2.64a11.34,11.34,0,0,1,1.35-.59c.48-.11,1.21-.2,1.21-.2l.56-1.85H65.72M66.88,54l-.77,2.54A13,13,0,0,1,67.44,56a7.93,7.93,0,0,1,1.19-.16L69.19,54H66.88M72,54l-3,9.93h.81l-.63,2h-.8l-.19.63H65.34l.2-.63h-5.8l.58-1.9h.59L64,54l.61-2h2.91l-.3,1a5.34,5.34,0,0,1,1.51-.75c.73-.19,4.95-.26,4.95-.26L73,54H72"/><path class="cls-7" d="M73.3,52h3.11l0,1.15c0,.2.15.29.51.29h.63L77,55.35H75.32c-1.45.1-2-.52-2-1.23Z"/><path class="cls-7" d="M73.71,61.06h-3l.51-1.7h3.39l.48-1.56H71.78l.57-1.92h9.3l-.58,1.92H78l-.49,1.56H80.6l-.52,1.7H76.69l-.6.72h1.37l.34,2.14a1.27,1.27,0,0,0,.11.45,1.83,1.83,0,0,0,.72.11h.42l-.64,2.09H77.35l-.74,0a2.05,2.05,0,0,1-.75-.32,1,1,0,0,1-.55-.73L75,63.35l-1.54,2.11a2.62,2.62,0,0,1-2.27,1.18H69l.56-1.87h.83a1.33,1.33,0,0,0,.6-.17.91.91,0,0,0,.45-.38Z"/><path class="cls-7" d="M41.26,56.4h7.85l-.58,1.87H45.39l-.49,1.6h3.21l-.59,1.93H44.31l-.78,2.59c-.09.29.77.33,1.08.33l1.6-.22-.64,2.14H42a3.46,3.46,0,0,1-.82-.12.84.84,0,0,1-.58-.42.81.81,0,0,1-.19-.83l1-3.44H39.61l.6-2H42l.48-1.6H40.69Z"/><path class="cls-7" d="M46.54,53h3.22l-.59,2h-4.4l-.47.41c-.21.2-.28.12-.55.26a3.05,3.05,0,0,1-1.44.37H40.9l.57-1.88h.42a1.55,1.55,0,0,0,.73-.11,1.65,1.65,0,0,0,.47-.61L43.9,52h3.2Z"/><path class="cls-6" d="M52.71,56.25a5.07,5.07,0,0,1,2.38-1.06c.35-.06,2.48,0,2.48,0l.33-1.08H53.37Zm4.25.82H52.47l-.28.9h3.89a2.78,2.78,0,0,1,.59,0l.29-.9M51.14,52h2.74l-.4,1.38A7.79,7.79,0,0,1,55,52.43a13.52,13.52,0,0,1,2-.43l4.44,0-1.51,5a5.76,5.76,0,0,1-.74,1.67,1.88,1.88,0,0,1-.75.69,2.57,2.57,0,0,1-1,.35c-.29,0-.74,0-1.36,0H51.69l-1.2,4c-.12.39-.17.58-.09.69a.48.48,0,0,0,.4.2l1.89-.18L52,66.64h-2.1c-.68,0-1.16,0-1.51,0a1.69,1.69,0,0,1-.89-.17c-.2-.17-.5-.4-.49-.63a7,7,0,0,1,.25-1.07L51.14,52"/><path class="cls-7" d="M59.13,60.11l-.25,1.21a1.6,1.6,0,0,1-.49.9,2,2,0,0,1-1.47.53l-1.53.06v1.37c0,.38.09.34.15.4a.57.57,0,0,0,.2.13l.48,0,1.46-.08-.61,2H55.39a5.22,5.22,0,0,1-2.31-.25c-.28-.18-.32-.4-.31-.78l.1-5.33h2.67l0,1.09h.64a.88.88,0,0,0,.46-.08.44.44,0,0,0,.17-.28l.27-.85Z"/><path class="cls-7" d="M21.14,33.39c-.09.44-1.8,8.32-1.8,8.33-.37,1.59-.64,2.73-1.55,3.46a2.7,2.7,0,0,1-1.81.63,1.68,1.68,0,0,1-1.89-1.61l0-.37s.34-2.13.34-2.14,1.8-7.18,2.12-8.13a.89.89,0,0,0,0-.11,25.17,25.17,0,0,1-4.15-.06c0,.08-.11.53-.11.53L10.46,42l-.16.69L10,44.94a3.3,3.3,0,0,0,.39,1.67c.84,1.46,3.21,1.67,4.56,1.67a8.78,8.78,0,0,0,4.46-1c1.91-1.12,2.41-2.89,2.85-4.45l.21-.8s1.84-7.46,2.16-8.43a.24.24,0,0,1,0-.11A24.45,24.45,0,0,1,21.14,33.39Z"/><path class="cls-7" d="M31.36,48.21c-1.23,0-1.68,0-3.12,0l0-.11c.12-.55.26-1.09.38-1.65l.18-.75c.26-1.17.52-2.53.56-3,0-.25.11-.87-.6-.87a2.37,2.37,0,0,0-.94.29c-.17.62-.52,2.37-.69,3.17-.36,1.68-.38,1.88-.54,2.7l-.11.12c-1.27,0-1.72,0-3.18,0l-.07-.12c.25-1,.49-2,.72-3A40.43,40.43,0,0,0,24.83,40l.12-.08c1.44-.2,1.78-.24,3.33-.56l.13.15-.24.86.78-.45a4.84,4.84,0,0,1,2-.46,1.69,1.69,0,0,1,1.74,1c.29.7.1,1.56-.29,3.26l-.2.87c-.4,1.88-.46,2.23-.68,3.52Z"/><path class="cls-7" d="M36.39,48.21c-.75,0-1.23,0-1.7,0l-1.61.06,0-.06,0-.06a11.33,11.33,0,0,1,.38-1.22,7.34,7.34,0,0,0,.35-1.24c.22-1,.36-1.61.44-2.19s.16-1,.24-1.59l.05,0,.06-.06,1.7-.25c.48-.06,1-.16,1.74-.31l0,.07,0,.07c-.14.58-.29,1.17-.43,1.77s-.28,1.18-.41,1.76c-.28,1.25-.39,1.72-.45,2.05s-.09.49-.19,1.13l-.08.06Z"/><path class="cls-7" d="M44.27,43.81a6.75,6.75,0,0,1-.73,2,1.18,1.18,0,0,1-.92.6c-.1,0-.72,0-.73-.91a6.65,6.65,0,0,1,.2-1.41c.33-1.44.71-2.65,1.69-2.65C44.55,41.46,44.61,42.36,44.27,43.81Zm3.24.13c.43-1.9.1-2.79-.33-3.33a3.64,3.64,0,0,0-3-1.09,5.45,5.45,0,0,0-3.73,1.29A6.13,6.13,0,0,0,38.84,44c-.27,1.17-.57,3.27,1.36,4a5.73,5.73,0,0,0,2,.32,5.27,5.27,0,0,0,3.95-1.54,7,7,0,0,0,1.36-2.91"/><path class="cls-7" d="M77.77,48.33c-1.49,0-1.92,0-3.3.05l-.09-.11c.37-1.42.75-2.84,1.08-4.27a30.25,30.25,0,0,0,.68-3.75l.11-.09c1.48-.21,1.9-.27,3.44-.56l0,.13c-.29,1.17-.56,2.34-.84,3.51-.57,2.46-.77,3.71-1,5Z"/><path class="cls-7" d="M75.53,44a7.21,7.21,0,0,1-.74,2,1.72,1.72,0,0,1-1.2.58c-.1,0-.71,0-.73-.9a6.83,6.83,0,0,1,.2-1.41c.33-1.41.71-2.61,1.7-2.61C75.53,41.65,75.86,42.52,75.53,44Zm3,.14c.44-1.89-1.32-.17-1.59-.79-.43-1-.16-3-1.88-3.61-.66-.26-2.21.08-3.55,1.29a6.1,6.1,0,0,0-1.64,3.19c-.27,1.15-.58,3.25,1.34,4a3.86,3.86,0,0,0,1.72.31c1.93-.11,3.4-3,4.49-4.17.84-.92,1,.34,1.11-.22"/><path class="cls-7" d="M56,48.21c-1.24,0-1.66,0-3.11,0l-.06-.11c.13-.55.27-1.09.4-1.65l.17-.75a26.68,26.68,0,0,0,.55-3c0-.25.12-.87-.59-.87a2.32,2.32,0,0,0-.94.29c-.17.62-.53,2.37-.7,3.17-.35,1.68-.37,1.88-.53,2.7l-.11.12c-1.27,0-1.71,0-3.18,0l-.07-.12c.25-1,.49-2,.73-3A46.85,46.85,0,0,0,49.45,40l.11-.08c1.43-.2,1.78-.24,3.33-.56l.12.15-.22.86c.25-.15.51-.31.77-.45a4.84,4.84,0,0,1,2-.46,1.71,1.71,0,0,1,1.74,1c.29.7.09,1.56-.3,3.26l-.19.87c-.41,1.88-.47,2.23-.69,3.52Z"/><path class="cls-7" d="M66.69,33.39h-1c-2.68,0-3.75,0-4.19,0l-.11.55-1,4.45L58,48.25c2.34,0,3.3,0,3.7,0,.09-.44.63-3.08.64-3.08s.46-1.94.49-2a1.06,1.06,0,0,1,.29-.28h.21c2,0,4.29,0,6.07-1.31a6.46,6.46,0,0,0,2.42-3.84A6.23,6.23,0,0,0,72,36.4a2.81,2.81,0,0,0-.48-1.71C70.59,33.42,68.78,33.39,66.69,33.39ZM68,38a3.27,3.27,0,0,1-1.68,2.22,5.31,5.31,0,0,1-2.36.36h-.56l0-.22s1-4.43,1-4.42l0-.22,0-.18.4,0,2.16.19A1.76,1.76,0,0,1,68,38"/><path class="cls-7" d="M90,39.59l-.12-.14c-1.53.31-1.8.36-3.21.55l-.1.11s0,0,0,.06v0c-1,2.41-1,1.89-1.87,3.79a1.77,1.77,0,0,0,0-.23l-.21-4.12-.13-.14c-1.6.31-1.64.36-3.12.55l-.12.11s0,.1,0,.16v0a20.68,20.68,0,0,1,.32,2.22c.09.73.21,1.47.29,2.19.15,1.21.23,1.81.41,3.65-1,1.65-1.24,2.27-2.2,3.72l.06.13c1.44-.05,1.78-.05,2.85-.05l.23-.27C83.85,50.14,90,39.59,90,39.59Z"/><path class="cls-7" d="M37.74,40.61c.82-.57.93-1.35.24-1.76a2.82,2.82,0,0,0-2.75.29c-.82.55-.92,1.35-.22,1.76A2.81,2.81,0,0,0,37.74,40.61Z"/><path class="cls-7" d="M82.93,52l-1.2,2.06a2.35,2.35,0,0,1-2.21,1.23l-1.91,0,.56-1.85h.37a.94.94,0,0,0,.45-.07.54.54,0,0,0,.24-.22L79.94,52Z"/></svg>