<svg id="Laag_1" data-name="Laag 1" xmlns="http://www.w3.org/2000/svg" viewBox="0 0 100 100"><defs><style>.cls-1{fill:#fff;}.cls-2{fill:#b3b3b2;}.cls-3,.cls-4{fill:none;stroke:#24ac71;stroke-linecap:round;stroke-width:3.55px;}.cls-3{stroke-miterlimit:10;}.cls-4{stroke-linejoin:round;}.cls-5{fill:#1d345d;}</style></defs><rect class="cls-1" x="0.5" y="0.5" width="99" height="99" rx="9.87"/><path class="cls-2" d="M89.63,1A9.38,9.38,0,0,1,99,10.37V89.63A9.38,9.38,0,0,1,89.63,99H10.37A9.38,9.38,0,0,1,1,89.63V10.37A9.38,9.38,0,0,1,10.37,1H89.63m0-1H10.37A10.41,10.41,0,0,0,0,10.37V89.63A10.41,10.41,0,0,0,10.37,100H89.63A10.41,10.41,0,0,0,100,89.63V10.37A10.41,10.41,0,0,0,89.63,0Z"/><path class="cls-3" d="M51.09,30.42a10.36,10.36,0,0,1,17.23-2.8,10.34,10.34,0,0,1-5.15,16.91"/><path class="cls-4" d="M44.74,36a16.37,16.37,0,0,1-.05-2.32A16,16,0,1,1,64.19,50c-.46.11-.93.19-1.4.26"/><path class="cls-5" d="M33.69,35.38a4.37,4.37,0,0,1,5,.49,4.77,4.77,0,0,1,2.1,5c-.32,1.51-.88,3-1.32,4.46-.12.43-.2.88-.3,1.32l.21.14c.8-.72,1.6-1.44,2.41-2.15l13.74-12.1c.45-.4.88-.83,1.3-1.26,1.84-1.9,5.33-1.09,6.59.39,1.43,1.69,2,3.51,1,5.55a7.34,7.34,0,0,1-1.65,2c-1.33,1.27-2.72,2.48-4.08,3.7-1.14,1-2.29,2-3.48,3.11a6.29,6.29,0,0,1,2.55,3.3,4.57,4.57,0,0,1-.32,3.64c-.2.38-.13.54.17.78a5.14,5.14,0,0,1,2.18,4.88,1.54,1.54,0,0,1-.14.7c-.53.76-.07,1.17.46,1.63a4.79,4.79,0,0,1,1.71,4.87A5.12,5.12,0,0,1,60,68.55c-1.94,1.77-3.88,3.53-5.85,5.27a76.61,76.61,0,0,1-8.3,6.5c-2.3,1.54-5.05,1.59-6.88,0a27,27,0,0,1-2.71-2.84Q30.62,71.19,25,64.84c-.42-.48-.79-1-1.19-1.51a1.9,1.9,0,0,1-.27-1.94c1-2.79,1.95-5.6,3-8.37,1.82-4.9,3.68-9.79,5.54-14.67.32-.84.72-1.66,1.08-2.49ZM54.48,42.5l0,0q3.47-3.07,6.92-6.18a1.24,1.24,0,0,0,.41-.56,2,2,0,0,0-1.7-2.47,1.37,1.37,0,0,0-.92.27c-1.17.95-2.32,1.94-3.45,2.94-4.83,4.2-9.65,8.42-14.49,12.6a3.4,3.4,0,0,1-1.76.93,3.19,3.19,0,0,1-3.32-3.48,12.37,12.37,0,0,1,.46-2.24c.35-1.24.81-2.45,1.13-3.7A2.17,2.17,0,0,0,36.1,38c-.43-.11-.64-.05-.8.41-.49,1.42-1,2.81-1.54,4.21q-3.49,9.42-7,18.84a.75.75,0,0,0,.16.91c.87.9,1.71,1.82,2.54,2.75l7.34,8.31q1.8,2,3.63,4a2.25,2.25,0,0,0,3.14.57,36.69,36.69,0,0,0,3.86-2.66c1.92-1.52,3.79-3.13,5.64-4.74s3.53-3.14,5.27-4.73a1.7,1.7,0,0,0-.16-2.64,1.5,1.5,0,0,0-2,0,15.49,15.49,0,0,1-1.59,1.21,1.36,1.36,0,0,1-1.93-.31c-.64-.74-.46-1.6.44-2.42s2-1.84,3-2.79a1.55,1.55,0,0,0-.23-2.59,1.94,1.94,0,0,0-1.61-.18A17.46,17.46,0,0,0,52,58.07a1.46,1.46,0,0,1-2-.23,1.68,1.68,0,0,1,.09-2.08c1.37-1.23,2.69-2.51,4.1-3.68,1.15-.95.89-2,0-3a1.44,1.44,0,0,0-2.1-.14c-.92.72-1.8,1.49-2.7,2.23a1.49,1.49,0,0,1-2.21,0c-.64-.66-.61-1.22.09-2.06a3.57,3.57,0,0,1,.31-.37Z"/><path class="cls-5" d="M59.73,30.17a5.11,5.11,0,0,1,3.72,1.5c1.43,1.69,2,3.51,1,5.55a7.34,7.34,0,0,1-1.65,2c-1.33,1.27-2.72,2.48-4.08,3.7-1.14,1-2.29,2-3.48,3.11a6.29,6.29,0,0,1,2.55,3.3,4.57,4.57,0,0,1-.32,3.64c-.2.38-.13.54.17.78a5.14,5.14,0,0,1,2.18,4.88,1.54,1.54,0,0,1-.14.7c-.53.76-.07,1.17.46,1.63a4.79,4.79,0,0,1,1.71,4.87A5.12,5.12,0,0,1,60,68.55c-1.94,1.77-3.88,3.53-5.85,5.27a76.61,76.61,0,0,1-8.3,6.5,6.67,6.67,0,0,1-3.67,1.18A4.91,4.91,0,0,1,39,80.36a27,27,0,0,1-2.71-2.84Q30.62,71.19,25,64.84c-.42-.48-.79-1-1.19-1.51a1.9,1.9,0,0,1-.27-1.94c1-2.79,1.95-5.6,3-8.37,1.82-4.9,3.68-9.79,5.54-14.67.32-.84.72-1.66,1.08-2.49l.54-.48a4.61,4.61,0,0,1,2.16-.58,4.73,4.73,0,0,1,2.87,1.07,4.77,4.77,0,0,1,2.1,5c-.32,1.51-.88,3-1.32,4.46-.12.43-.2.88-.3,1.32l.21.14c.8-.72,1.6-1.44,2.41-2.15l13.74-12.1c.45-.4.88-.83,1.3-1.26a3.91,3.91,0,0,1,2.87-1.11m0-1.4a5.31,5.31,0,0,0-3.87,1.54c-.33.34-.77.78-1.23,1.18l-8.71,7.68-4.17,3.67c.16-.55.31-1.11.43-1.68a6.11,6.11,0,0,0-2.61-6.4,6.07,6.07,0,0,0-3.72-1.35,5.85,5.85,0,0,0-2.81.74l-.15.07-.13.12-.27.24-.27.24L32,35l-.12.28-.34.76c-.26.57-.53,1.17-.76,1.78l0,.07c-1.82,4.79-3.7,9.73-5.52,14.61-.82,2.2-1.61,4.45-2.37,6.62l-.63,1.78a3.3,3.3,0,0,0,.5,3.27l.39.51A13.15,13.15,0,0,0,24,65.77q5.61,6.35,11.26,12.68l.47.53a23.64,23.64,0,0,0,2.37,2.44,6.25,6.25,0,0,0,4.12,1.48,8,8,0,0,0,4.45-1.42,77.52,77.52,0,0,0,8.45-6.62C57,73.15,59,71.37,60.94,69.58a6.42,6.42,0,0,0,2.28-3.5,6.23,6.23,0,0,0-2.17-6.2L61,59.82a2.64,2.64,0,0,0,.21-.94.37.37,0,0,1,0-.11A6.37,6.37,0,0,0,59,53a5.93,5.93,0,0,0,.15-4.15A7.5,7.5,0,0,0,57.37,46l2.28-2,1-.92c1-.9,2.08-1.84,3.09-2.81l0,0a8.52,8.52,0,0,0,1.91-2.33c1.16-2.38.76-4.75-1.2-7.06a6.44,6.44,0,0,0-4.78-2Z"/></svg>