<svg id="Laag_1" data-name="Laag 1" xmlns="http://www.w3.org/2000/svg" viewBox="0 0 100 100"><defs><style>.cls-1{fill:#ffb302;}.cls-2{fill:#fcc400;}.cls-3{fill:#fff;}</style></defs><rect class="cls-1" width="100" height="100" rx="10.37"/><path d="M70.1,33.17c-4-.18-8.12-.09-12.18-.11A10.32,10.32,0,0,1,52,31.31a12,12,0,0,1-4.84-7.1V40.12c-.25-.19-.36-.27-.46-.36l-.66-.65C39.61,33,32,31.53,23.78,34.41,14.45,37.68,9.12,46.82,10.12,57s9.35,18.26,19.37,18.65c7.46.3,22.82.06,23.15,0V69.06A21.44,21.44,0,0,0,72,75.49c9.76-1.54,16.69-9.06,17.83-19C91.22,44.76,81.88,33.68,70.1,33.17Z"/><path class="cls-2" d="M21.83,51.89H19.47l3.14-9.07h2.56l3.16,9.07H25.94l-1.8-6.07-.29-1.18-.31,1.18Zm-.4-1.69.26-1.57h4.13l.24,1.57Z"/><path class="cls-2" d="M28.06,47.4a5.33,5.33,0,0,1,.35-2,4.06,4.06,0,0,1,1-1.45,4,4,0,0,1,1.46-.87,5.33,5.33,0,0,1,1.81-.29,6.14,6.14,0,0,1,1,.07,7.11,7.11,0,0,1,.73.15,4.85,4.85,0,0,0,.58.14l-.29,1.94-.36-.21a3.49,3.49,0,0,0-.61-.22,3.94,3.94,0,0,0-.91-.09,2.49,2.49,0,0,0-1.25.31,2.17,2.17,0,0,0-.88.92,3,3,0,0,0-.33,1.47,3.78,3.78,0,0,0,.29,1.56,2.3,2.3,0,0,0,.85,1,2.52,2.52,0,0,0,1.42.37,3.44,3.44,0,0,0,.77-.09,5.39,5.39,0,0,0,.71-.23,2.13,2.13,0,0,0,.47-.26v1.85c-.16.07-.34.14-.55.21a6.12,6.12,0,0,1-.72.19,5.23,5.23,0,0,1-.94.08,5.16,5.16,0,0,1-2.52-.57,3.71,3.71,0,0,1-1.57-1.59A5.18,5.18,0,0,1,28.06,47.4Z"/><path class="cls-2" d="M36,51.89v-9h2.27v3.65h3.09V42.88h2.25v9H41.38V48.16H38.29v3.73Z"/><path class="cls-2" d="M46.87,51.89V44.62h-2.4V42.88h7.08v1.74h-2.4v7.27Z"/><path class="cls-2" d="M52.38,51.89v-9h5.7v1.69H54.62v1.9h2.67v1.64H54.62v2.06h3.81v1.72Z"/><path class="cls-2" d="M61.8,51.89H59.54v-9h.78c.32,0,.7,0,1.12,0s1-.05,1.59-.05a5.29,5.29,0,0,1,1.19.13,3.18,3.18,0,0,1,1.09.45,2.27,2.27,0,0,1,.78.87,3,3,0,0,1,.3,1.41,3.26,3.26,0,0,1-.31,1.52,2.27,2.27,0,0,1-.84.92,3.49,3.49,0,0,1-1.25.43l-.47.08a4.28,4.28,0,0,1-.63.07c-.26,0-.62,0-1.09,0Zm0-4.75.33,0h.77a1.17,1.17,0,0,0,1-.44,1.8,1.8,0,0,0,.31-1.07,1.68,1.68,0,0,0-.12-.63,1,1,0,0,0-.43-.49,1.88,1.88,0,0,0-.91-.18,4.18,4.18,0,0,0-.5,0l-.46.08Zm2.71,4.75a1.16,1.16,0,0,1-.13-.22c0-.09-.11-.23-.19-.42a5.89,5.89,0,0,1-.33-.86c-.1-.29-.2-.57-.3-.83a2.07,2.07,0,0,0-.34-.63.58.58,0,0,0-.48-.25l.52-.41,1.43-.2a1.41,1.41,0,0,1,.59.5,4.58,4.58,0,0,1,.47.79c.13.31.27.62.41.94a8,8,0,0,0,.46.93c.06.11.12.22.19.33l.19.33Z"/><path class="cls-2" d="M69.18,51.89H66.81L70,42.82h2.56l3.16,9.07H73.29l-1.81-6.07-.29-1.18-.3,1.18Zm-.4-1.69L69,48.63h4.13l.25,1.57Z"/><path class="cls-2" d="M76.23,51.89v-9h5.62v1.69H78.48v2.14H81v1.68H78.48v3.5Z"/><path class="cls-3" d="M19.56,64.8V54.55l1.25,0q.36,0,.72,0l.78,0c.28,0,.59,0,.94,0a6.8,6.8,0,0,1,2.29.32,2.28,2.28,0,0,1,1.65,2.31,3,3,0,0,1-.17,1,2,2,0,0,1-.51.8,2.07,2.07,0,0,1-.86.48,2.53,2.53,0,0,1,1.06.37,2.27,2.27,0,0,1,.74.8,2.35,2.35,0,0,1,.28,1.14,3.52,3.52,0,0,1-.38,1.65,2.61,2.61,0,0,1-1.3,1.13,6.36,6.36,0,0,1-2.56.41c-.48,0-1,0-1.46,0l-1.17,0Zm2.55-6.07.21,0,.28,0h.5a2,2,0,0,0,1.23-.32,1.36,1.36,0,0,0,.41-1.13.94.94,0,0,0-.45-.89,2.83,2.83,0,0,0-1.3-.25h-.28l-.36,0a.73.73,0,0,0-.24.05Zm0,4.33a.77.77,0,0,0,.31.09l.48.05h.46a2.1,2.1,0,0,0,1.32-.34,1.41,1.41,0,0,0,.43-1.16,1.19,1.19,0,0,0-.43-1,2.24,2.24,0,0,0-1.4-.35h-1l-.2,0Z"/><path class="cls-3" d="M29,64.8V54.57h6.47v1.91H31.54v2.16h3V60.5h-3v2.34h4.32v2Z"/><path class="cls-3" d="M39.83,64.8V56.54H37.11v-2h8v2H42.42V64.8Z"/><path class="cls-3" d="M47,64.8H44.31l3.56-10.3h2.91l3.59,10.3H51.66l-2-6.9-.33-1.34-.35,1.34Zm-.45-1.92.29-1.79h4.69l.28,1.79Z"/><path class="cls-3" d="M56.19,64.8V54.57h2.53v8.16h3.46V64.8Z"/><path class="cls-3" d="M64.18,64.76V54.53h6.47v1.92H66.72v2.16h3v1.86h-3v2.34h4.33v2Z"/><path class="cls-3" d="M73.12,64.8V54.57h2.39L79,60.18l1.31,2.76h-.47l-.42-3.87v-4.5h2.33V64.8H79.19l-3.32-5.48-1.5-3.14h.56l.51,4.2V64.8Z"/></svg>