<svg id="Laag_1" data-name="Laag 1" xmlns="http://www.w3.org/2000/svg" viewBox="0 0 100 100"><defs><style>.cls-1{fill:#fff;}.cls-2{fill:#b3b3b2;}.cls-3{fill:#1d345d;}.cls-3,.cls-4{stroke:#fff;stroke-linecap:round;stroke-linejoin:round;stroke-width:0.96px;}.cls-4{fill:#24ac71;}</style></defs><rect class="cls-1" x="0.5" y="0.5" width="99" height="99" rx="9.87"/><path class="cls-2" d="M89.63,1A9.38,9.38,0,0,1,99,10.37V89.63A9.38,9.38,0,0,1,89.63,99H10.37A9.38,9.38,0,0,1,1,89.63V10.37A9.38,9.38,0,0,1,10.37,1H89.63m0-1H10.37A10.41,10.41,0,0,0,0,10.37V89.63A10.41,10.41,0,0,0,10.37,100H89.63A10.41,10.41,0,0,0,100,89.63V10.37A10.41,10.41,0,0,0,89.63,0Z"/><path class="cls-3" d="M28,72.15a14.87,14.87,0,0,0,21,0l8.74-8.74a1.38,1.38,0,0,0,0-1.94L50,53.83l-4.82,4.82L49,62.35l-4.88,4.89a7.93,7.93,0,0,1-11.19,0l-.16-.17a7.9,7.9,0,0,1,0-11.18L37.65,51l3.81,3.65,4.82-4.82-7.76-7.6a1.36,1.36,0,0,0-1.94,0L27.84,51a14.86,14.86,0,0,0,0,21Z"/><path class="cls-3" d="M72,27.85a14.87,14.87,0,0,0-21,0l-8.91,8.92a1.36,1.36,0,0,0,0,1.94l7.52,7.52,5-5L51,37.65l4.88-4.89a7.91,7.91,0,0,1,11.19,0l.16.16a7.91,7.91,0,0,1,0,11.19L62.35,49l-3.67-3.8-5,5L61.29,58a1.38,1.38,0,0,0,1.94,0L72.16,49a14.87,14.87,0,0,0,0-21Z"/><path class="cls-4" d="M60.45,39.55a3.27,3.27,0,0,0-4.63,0L54.36,41,39.55,55.81a3.27,3.27,0,0,0,0,4.64,3.27,3.27,0,0,0,4.63,0L45.64,59,59,45.64l1.45-1.45a3.27,3.27,0,0,0,0-4.64Z"/></svg>