<?xml version="1.0" encoding="utf-8"?>
<!-- Generator: Adobe Illustrator 25.4.1, SVG Export Plug-In . SVG Version: 6.00 Build 0)  -->
<svg version="1.1" id="Laag_1" xmlns="http://www.w3.org/2000/svg" xmlns:xlink="http://www.w3.org/1999/xlink" x="0px" y="0px"
	 viewBox="0 0 100 100" style="enable-background:new 0 0 100 100;" xml:space="preserve">
<style type="text/css">
	.st0{fill:#1C3B6C;}
	.st1{fill:none;stroke:#FFFFFF;stroke-width:3.57;stroke-linecap:round;stroke-miterlimit:10;}
	.st2{fill:#FFFFFF;}
	.st3{fill:none;stroke:#FFFFFF;stroke-width:3.57;stroke-linecap:round;stroke-miterlimit:10;stroke-dasharray:0.95,7.56;}
	
		.st4{fill:none;stroke:#FFFFFF;stroke-width:3.57;stroke-linecap:round;stroke-miterlimit:10;stroke-dasharray:0.95,7.56,0.95,7.56;}
	.st5{fill:#FFFFFF;stroke:#FFFFFF;stroke-width:0.46;stroke-miterlimit:10;}
</style>
<path class="st0" d="M10.4,0h79.3C95.4,0,100,4.6,100,10.4v79.3c0,5.7-4.6,10.4-10.4,10.4H10.4C4.6,100,0,95.4,0,89.6V10.4
	C0,4.6,4.6,0,10.4,0z"/>
<path class="st1" d="M83.5,50c0,18.5-15,33.5-33.5,33.5S16.5,68.5,16.5,50c0-16.9,12.6-31.2,29.4-33.3"/>
<polygon class="st2" points="39.3,23.3 44.9,16.9 38.4,11.2 43.5,10.9 50,16.5 44.4,23 "/>
<path class="st1" d="M58.9,17.8l0.5,0.1"/>
<path class="st3" d="M66.3,20.8c1.4,0.8,2.7,1.6,4,2.6"/>
<path class="st4" d="M73.1,25.9c3.2,3.1,5.8,6.7,7.5,10.8"/>
<path class="st1" d="M82,40.2l0.2,0.5"/>
<path class="st5" d="M58.8,30.2H41.2c-1.5,0-2.7,1.2-2.7,2.7v34.2c0,1.5,1.2,2.7,2.7,2.7h17.7c1.5,0,2.7-1.2,2.7-2.7V32.9
	C61.5,31.4,60.3,30.2,58.8,30.2z M47.2,32.1h5.6c0.2,0,0.4,0.1,0.4,0.3c0,0.2-0.1,0.4-0.3,0.4c0,0-0.1,0-0.1,0h-5.6
	c-0.2,0-0.4-0.1-0.4-0.3c0-0.2,0.1-0.4,0.3-0.4C47.1,32.1,47.1,32.1,47.2,32.1z M50,68.5c-0.7,0-1.3-0.6-1.3-1.3
	c0-0.7,0.6-1.3,1.3-1.3s1.3,0.6,1.3,1.3l0,0C51.3,67.9,50.7,68.5,50,68.5z M59.6,64.8H40.4V34.5h19.3V64.8z"/>
<path class="st0" d="M50,68.7L50,68.7c-0.9,0-1.6-0.7-1.6-1.5c0-0.9,0.7-1.6,1.5-1.6c0.9,0,1.6,0.7,1.6,1.5c0,0,0,0,0,0
	C51.5,68,50.9,68.7,50,68.7C50,68.7,50,68.7,50,68.7"/>
<path class="st0" d="M46.6,32.1h6.5c0.2,0,0.4,0.1,0.4,0.3c0,0.2-0.1,0.4-0.3,0.4c0,0-0.1,0-0.1,0h-6.5c-0.2,0-0.4-0.1-0.4-0.3
	c0-0.2,0.1-0.4,0.3-0.4C46.6,32.1,46.6,32.1,46.6,32.1"/>
</svg>
