<?xml version="1.0" encoding="utf-8"?>
<!-- Generator: Adobe Illustrator 25.4.0, SVG Export Plug-In . SVG Version: 6.00 Build 0)  -->
<svg version="1.1" id="Laag_1" xmlns="http://www.w3.org/2000/svg" xmlns:xlink="http://www.w3.org/1999/xlink" x="0px" y="0px"
	 viewBox="0 0 100 100" style="enable-background:new 0 0 100 100;" xml:space="preserve">
<style type="text/css">
	.st0{fill:#D70613;}
	.st1{fill:#FFFFFF;}
</style>
<path class="st0" d="M10.4,0h79.3C95.4,0,100,4.6,100,10.4v79.3c0,5.7-4.6,10.4-10.4,10.4H10.4C4.6,100,0,95.4,0,89.6V10.4
	C0,4.6,4.6,0,10.4,0z"/>
<path class="st1" d="M39.7,46.6c-1.3,0-2.5,1-2.7,2.3h5.4C42.3,47.5,41.1,46.5,39.7,46.6"/>
<path class="st1" d="M25.3,47.2c-1.7-0.1-3.1,1.2-3.1,2.9c0,0.1,0,0.2,0,0.3c-0.1,1.7,1.1,3.1,2.8,3.2c0.1,0,0.2,0,0.4,0
	c1.8,0,3.2-1.4,3.2-3.2C28.5,48.6,27.1,47.2,25.3,47.2"/>
<path class="st1" d="M64.2,44.1c-2.9,0-5.1,1.2-5.5,4.2l0,0C57.7,34.7,47,24,33.2,24c-10.6,0-20.1,6.4-24.1,16.2h9.3l-0.5,3.1h-7.3
	v3.3h6.6l-0.5,3h-6.1v1.9c0,1.2,0.5,1.7,1.5,1.7h6.2l-0.5,3.1h-6.9c-0.3,0-0.7,0-1-0.1l0,0c-0.8-0.1-1.4-0.5-1.9-1.1
	c-0.2-0.3-0.4-0.6-0.5-1l-0.1-0.3c0,0.4,0.1,0.9,0.2,1.1c0.1,0.7,0.3,1.4,0.5,2.1C12.1,70.9,26.5,79,40.4,75
	c9-2.5,15.9-9.7,18.2-18.7H55V50c0-1.7-0.7-2.8-2.4-2.8s-2.3,1.1-2.3,2.8v6.4h-3.5v-7.3c0-3.5,2.5-5,5.9-5s5.9,1.5,5.9,5v7.2h3.5V50
	c0-1.7,0.5-2.8,2.1-2.8c0.5,0,1,0.1,1.4,0.3l0.7-3.1C65.6,44.3,64.9,44.2,64.2,44.1 M32,49.6c0,4.4-2.6,6.9-6.9,6.9
	c-4,0-6.6-2.7-6.6-6.2c-0.2-3.3,2.4-6.1,5.6-6.2c0.2,0,0.5,0,0.7,0c1.4-0.1,2.7,0.4,3.7,1.4v-5.3H32V49.6z M40.9,53.9
	c1,0,2-0.3,2.9-0.7L43.5,56c-1.1,0.4-2.3,0.6-3.4,0.6c-4,0-6.9-2.3-6.9-6.4c0-3.5,2.5-6.1,6.4-6.1c4.4,0,6.6,2.8,6.5,7.1H37
	C37.3,53.2,39.2,53.9,40.9,53.9"/>
<path class="st1" d="M72.1,44.1c-3.9,0-6.4,2.6-6.4,6.1c0,4,2.8,6.4,6.9,6.4c1.2,0,2.4-0.1,3.5-0.5l0.3-2.8
	c-0.9,0.4-1.9,0.7-2.9,0.7c-1.6,0-3.5-0.8-3.8-2.7h9.1C78.7,46.9,76.5,44.1,72.1,44.1 M69.5,48.9c0.2-1.3,1.4-2.3,2.8-2.3
	c1.4-0.1,2.5,0.9,2.6,2.3H69.5z"/>
<path class="st1" d="M89,40.2v5.3c-1-0.9-2.3-1.4-3.7-1.4c-3.3-0.2-6.1,2.3-6.3,5.5c0,0.2,0,0.5,0,0.7c0,3.6,2.7,6.2,6.6,6.2
	c4.3,0,6.9-2.6,6.9-6.9v-9.5H89z M85.8,53.5c-1.7,0.1-3.1-1.2-3.1-2.9c0-0.1,0-0.2,0-0.3c-0.1-1.7,1.2-3.2,3-3.3
	c1.7-0.1,3.2,1.2,3.3,3c0,0.1,0,0.2,0,0.4c0.1,1.7-1.1,3.1-2.8,3.2C86.1,53.5,85.9,53.5,85.8,53.5"/>
</svg>
