<?xml version="1.0" encoding="utf-8"?>
<!-- Generator: Adobe Illustrator 25.4.0, SVG Export Plug-In . SVG Version: 6.00 Build 0)  -->
<svg version="1.1" id="Laag_1" xmlns="http://www.w3.org/2000/svg" xmlns:xlink="http://www.w3.org/1999/xlink" x="0px" y="0px"
	 viewBox="0 0 100 100" style="enable-background:new 0 0 100 100;" xml:space="preserve">
<style type="text/css">
	.st0{fill:#27388B;stroke:#27388B;stroke-width:1.000000e-02;stroke-miterlimit:10;}
	.st1{fill:#FFFFFF;stroke:#FFFFFF;stroke-width:1.000000e-02;stroke-miterlimit:10;}
	.st2{fill:#E11C25;stroke:#E11C25;stroke-width:1.000000e-02;stroke-miterlimit:10;}
</style>
<path class="st0" d="M10.5,0h79.3c5.7,0,10.4,4.6,10.4,10.4v79.3c0,5.7-4.6,10.4-10.4,10.4H10.5c-5.7,0-10.4-4.6-10.4-10.4V10.4
	C0.2,4.6,4.8,0,10.5,0z"/>
<path class="st1" d="M82,33.8c0.6-1.2,1.1-2.4,1.7-3.5c0.2,1.2,0.3,2.4,0.5,3.6c1.2-0.4,2.3-0.8,3.5-1.2c-0.8,1-1.6,2-2.4,3.1
	c0.9,0.7,1.7,1.3,2.6,2c-1.2,0.1-2.3,0.2-3.5,0.3c0,1.2-0.1,2.5-0.2,3.7c-0.7-0.9-1.3-1.8-1.9-2.7c-1,0.9-1.9,1.8-2.9,2.7
	c0.4-1.3,0.7-2.5,1.1-3.8c-1.1-0.1-2.2-0.3-3.4-0.5l3.3-1.9c-0.4-1.1-0.9-2.1-1.3-3.2C80,32.8,81,33.2,82,33.8L82,33.8z"/>
<path class="st2" d="M71.2,49.9c2.9-2.5,5.6-5.3,8.1-8.3c-1.1,3.9-3.3,7.5-6.3,10.2c-0.7,0.6-1.4,1.2-2.1,1.7
	c-2.5,1.8-5.6,2.8-8.7,2.9l0.1-0.1c2.5-1.4,4.8-3,7-4.8C70,51,70.6,50.5,71.2,49.9z"/>
<path class="st1" d="M13.3,46c1.3-0.3,2.6-0.5,3.9-0.5c1.5,0,2.9,0.1,4.4,0.3c-0.2,0.6-0.4,1.1-0.6,1.7c-2.1-0.3-4.2-0.2-6.3,0.2
	c-0.6,0.2-1.4,0.4-1.6,1.2c0,0.6,0.5,0.9,1,1c1.5,0.4,3.1,0.3,4.5,1c0.7,0.3,1.2,0.9,1.3,1.6c0.2,1.2-0.2,2.3-0.9,3.2
	c-1,0.9-2.2,1.5-3.5,1.7c-2.6,0.4-5.3,0.2-7.9-0.5c0.1-0.6,0.3-1.2,0.4-1.8c2.2,0.4,4.5,0.5,6.7,0.2c0.8-0.2,1.8-0.6,1.9-1.6
	c0.1-0.6-0.3-1.2-0.9-1.3c-1.4-0.4-2.9-0.3-4.3-0.8c-0.6-0.2-1.2-0.6-1.4-1.3c-0.4-1.1-0.1-2.3,0.8-3.1C11.5,46.7,12.4,46.2,13.3,46
	z"/>
<path class="st1" d="M65,45.5h2.7c1.1,1.5,2.3,3,3.6,4.3l-0.1,0.1c-0.6,0.6-1.3,1.1-1.9,1.7C67.7,49.6,66.3,47.6,65,45.5z"/>
<path class="st1" d="M49.2,40.7c-0.3,1.5-0.6,3.1-0.9,4.6c-2.4-0.1-4.9-0.2-7.2,0.8c-1.9,0.8-3.4,2.4-3.9,4.4
	c-0.6,1.6-0.4,3.5,0.6,4.9c1.1,1.2,2.7,1.9,4.4,1.9c1.9,0.2,3.7-0.3,5.3-1.3c1.4-1.1,2.2-2.7,2.5-4.4c0.7-3.7,1.4-7.4,2.1-11.1
	L49.2,40.7z M46.9,51.7c-0.1,1-0.5,1.9-1.2,2.5c-0.9,0.8-2.2,1.1-3.3,0.9c-0.9,0-1.6-0.5-2-1.2C39.9,53,39.9,52,40.2,51
	c0.3-1.3,1.1-2.5,2.3-3.1c1.7-0.7,3.5-0.9,5.3-0.6C47.5,48.8,47.2,50.2,46.9,51.7z"/>
<path class="st1" d="M63.6,46.4c-1-0.7-2.3-1.1-3.5-1c-2.4-0.1-4.7,0.7-6.5,2.3c-1.3,1.3-2.1,3-2.2,4.8c-0.1,1.1,0.2,2.3,0.9,3.2
	c0.9,1.1,2.3,1.8,3.7,2c2.2,0.4,4.4,0,6.3-1.2l0.1-0.1c-2.1,0.4-4.3,0.1-6.3-0.7c-1.2-0.7-1.8-2.1-1.7-3.5c2.4,0.5,4.9,0.4,7.3-0.3
	c1-0.4,1.9-1.1,2.4-2C64.7,48.7,64.5,47.3,63.6,46.4z M60.2,50.2c-1.7,0.5-3.6,0.5-5.3,0.1c0.5-1.2,1.4-2.2,2.5-2.7
	c1-0.5,2.1-0.6,3.2-0.3c0.5,0.1,0.9,0.6,1,1.1C61.6,49.3,61,50,60.2,50.2z"/>
<path class="st1" d="M35.6,49.2c-0.2-1.3-0.9-2.4-2-3c-1.5-0.8-3.2-1.1-4.9-0.8c-2.2,0.2-4.3,1.3-5.8,3c-1.2,1.4-1.7,3.2-1.6,5.1
	c0.1,1.3,0.9,2.4,2,3.1c1.5,0.8,3.1,1.1,4.8,0.8c2.5-0.2,4.8-1.4,6.3-3.4C35.4,52.6,35.8,50.9,35.6,49.2z M32.5,50.6
	c-0.1,1-0.5,2-1.2,2.9c-0.9,1.2-2.4,1.9-3.9,1.8c-0.8,0.1-1.6-0.2-2.2-0.8c-0.4-0.4-0.6-1-0.6-1.6c-0.1-2.5,1.5-4.8,3.9-5.5
	c1.1-0.3,2.2-0.1,3.1,0.6C32.3,48.8,32.6,49.7,32.5,50.6z"/>
<path class="st1" d="M92.4,49.1c-0.3-1.4-1.2-2.5-2.4-3.1c-1.6-0.7-3.3-0.9-5-0.5c-2.5,0.4-4.7,1.8-6,4c-0.9,1.3-1.2,3-1,4.5
	c0.3,1.3,1.2,2.4,2.4,2.9c1.6,0.7,3.3,0.9,5,0.6c2.4-0.3,4.6-1.6,6-3.6C92.3,52.5,92.7,50.8,92.4,49.1z M86.1,55.1
	c-1.1,0.5-2.4,0.5-3.5,0.1c-0.8-0.3-1.3-1.1-1.4-1.9c-0.2-2.6,1.4-5.1,4-5.8c1-0.3,2.1-0.1,3,0.5c0.6,0.5,1,1.3,1,2.1
	C89.3,52.2,88,54.2,86.1,55.1L86.1,55.1z"/>
<path class="st1" d="M70.9,53.5c0.7-0.5,1.4-1.1,2.1-1.7c1.7,1.9,3.5,3.7,5.2,5.6c-1.2,0-2.4,0-3.7,0c-0.3-0.2-0.6-0.5-0.8-0.7
	C72.8,55.7,71.8,54.7,70.9,53.5L70.9,53.5z"/>
</svg>
