<?xml version="1.0" encoding="utf-8"?>
<!-- Generator: Adobe Illustrator 28.3.0, SVG Export Plug-In . SVG Version: 6.00 Build 0)  -->
<svg version="1.1" id="Laag_1" xmlns="http://www.w3.org/2000/svg" xmlns:xlink="http://www.w3.org/1999/xlink" x="0px" y="0px"
	 viewBox="0 0 100 100" style="enable-background:new 0 0 100 100;" xml:space="preserve">
<style type="text/css">
	.st0{fill:#D0D0D0;}
	.st1{fill:#FFFFFF;}
	.st2{fill:#CC0066;}
</style>
<path class="st0" d="M90,100H10c-5.5,0-10-4.5-10-10V10C0,4.5,4.5,0,10,0H90c5.5,0,10,4.5,10,10V90C100,95.5,95.5,100,90,100z"/>
<g>
	<g>
		<path d="M91,46c-1-3.9-3.4-6.4-7.3-7.5c-1.6-0.4-3.4-0.7-5.1-0.7c-9.9-0.1-19.8,0-29.7,0c-0.3,0-0.6,0-1,0l0,0.2
			c2.7,3.1,3.9,7.3,3.9,11.9c0,4.7-1.3,8.9-4,12.1l0,0c0.4,0,0.8,0,1.2,0c9.5,0,19.1,0,28.6,0c1.3,0,2.7-0.1,4-0.2
			c4.7-0.7,8.1-3.4,9.2-8.1C91.6,51.1,91.6,48.6,91,46z"/>
		<g>
			<path class="st1" d="M74.4,53.5c0.7-0.5,1.4-0.9,2.2-1.5c0.3,0.4,0.6,0.7,1,1c0.9,0.8,1.9,1.1,3,0.6c0.8-0.4,1.3-1.2,1.1-2.2
				C81.6,50.5,81,50,80,50c-0.8,0-1.6,0.2-2.5,0.3c-0.2-0.4-0.4-1-0.7-1.7c0.5-0.5,0.9-1.1,1.4-1.6c0.4-0.5,0.9-1,1.5-1.7
				c-1.6,0-2.9,0-4.4,0c0-1,0-1.8,0-2.8c2.8,0,5.5,0,8.4,0c0.2,0.4,0.4,0.7,0.6,1.1c-1.1,1.2-2.2,2.4-3.4,3.7
				c0.2,0.1,0.3,0.2,0.5,0.3c2.2,0.8,3.3,2.2,3.3,4.3c0,2-1.3,3.7-3.4,4.4C79.1,57,75.9,56.6,74.4,53.5z"/>
			<path class="st1" d="M57.1,46c1,0,1.9,0,2.9,0c0,3.5,0,6.9,0,10.3c-1,0-1.9,0-2.9,0C57.1,53,57.1,49.6,57.1,46z"/>
			<path class="st1" d="M58.6,43.8c-1.1,0-1.8-0.6-1.8-1.5c0-1,0.8-1.7,1.9-1.7c1.1,0,1.8,0.6,1.8,1.6
				C60.4,43.2,59.7,43.8,58.6,43.8z"/>
		</g>
		<path class="st1" d="M63.3,46c1,0,2.1,0,3,0l0,1.1l0.3-0.2c0.8-0.7,1.7-1.1,2.8-1.1c1.9,0,3.3,0.9,3.5,2.7
			c0.2,2.6,0.1,5.2,0.1,7.9c-1,0-1.9,0-3,0c0-1.6,0-3.1,0-4.7c0-0.5,0-1,0-1.6c-0.1-1.2-0.6-1.8-1.6-1.8c-1.2,0-2,0.7-2,1.9
			c0,1.2,0,2.5,0,3.7c0,0.8,0,1.6,0,2.4c-1,0-2,0-3,0C63.3,52.9,63.3,49.5,63.3,46z"/>
	</g>
	<g>
		<g>
			<path class="st1" d="M8.5,34.7v30.5c0,1.5,1.2,2.7,2.7,2.7h18.2c13.8,0,19.8-7.7,19.8-18c0-10.2-6-17.9-19.8-17.9H11.2
				C9.7,32.1,8.5,33.3,8.5,34.7z"/>
			<path class="st2" d="M20.7,39.6v22.5h9.8c8.9,0,12.8-5,12.8-12.2c0-6.8-3.9-12.1-12.8-12.1h-8.1C21.5,37.9,20.7,38.6,20.7,39.6z"
				/>
			<g>
				<g>
					<path d="M29.4,65.5H13.6c-1.4,0-2.5-1.1-2.5-2.5V37.1c0-1.4,1.1-2.5,2.5-2.5h15.9c15,0,17.3,9.7,17.3,15.4
						C46.7,60,40.6,65.5,29.4,65.5z M13.6,35.4c-0.9,0-1.7,0.8-1.7,1.7v25.9c0,0.9,0.8,1.7,1.7,1.7h15.9c10.6,0,16.4-5.2,16.4-14.7
						c0-12.7-10.3-14.6-16.4-14.6L13.6,35.4L13.6,35.4z"/>
				</g>
			</g>
		</g>
		<g>
			<path class="st1" d="M24.2,46.9c0.3,0,0.7,0.1,1,0.2c0.3,0.1,0.6,0.3,0.8,0.5c0.2,0.2,0.4,0.5,0.5,0.8c0.1,0.3,0.2,0.7,0.2,1.2
				c0,0.4-0.1,0.8-0.1,1.1c-0.1,0.3-0.3,0.6-0.5,0.9s-0.5,0.4-0.8,0.6c-0.3,0.1-0.7,0.2-1.1,0.2h-2.3v-5.4L24.2,46.9L24.2,46.9z
				 M24.1,51.3c0.2,0,0.3,0,0.5-0.1c0.2-0.1,0.3-0.1,0.4-0.3c0.1-0.1,0.2-0.3,0.3-0.5c0.1-0.2,0.1-0.5,0.1-0.8c0-0.3,0-0.5-0.1-0.7
				c-0.1-0.2-0.1-0.4-0.3-0.6s-0.3-0.3-0.5-0.4c-0.2-0.1-0.4-0.1-0.7-0.1h-0.8v3.4L24.1,51.3L24.1,51.3z"/>
			<path class="st1" d="M31.4,46.9v1h-2.8v1.2h2.6V50h-2.6v1.3h2.9v1h-4.1v-5.4L31.4,46.9L31.4,46.9z"/>
			<path class="st1" d="M35.5,46.9l2,5.4h-1.2l-0.4-1.2h-2l-0.4,1.2h-1.2l2-5.4C34.3,46.9,35.5,46.9,35.5,46.9z M35.6,50.2l-0.7-2h0
				l-0.7,2H35.6z"/>
			<path class="st1" d="M39.5,46.9v4.4h2.6v1h-3.8v-5.4C38.3,46.9,39.5,46.9,39.5,46.9z"/>
		</g>
		<g>
			<circle cx="16.3" cy="49.6" r="2.5"/>
		</g>
		<path d="M18.2,62.1L18.2,62.1c-2.1,0-3.8-1.7-3.8-3.8v-2.9c0-1,0.8-1.9,1.9-1.9l0,0c1,0,1.9,0.8,1.9,1.9L18.2,62.1L18.2,62.1z"/>
	</g>
</g>
</svg>
