<?xml version="1.0" encoding="utf-8"?>
<!-- Generator: Adobe Illustrator 25.4.0, SVG Export Plug-In . SVG Version: 6.00 Build 0)  -->
<svg version="1.1" id="Laag_1" xmlns="http://www.w3.org/2000/svg" xmlns:xlink="http://www.w3.org/1999/xlink" x="0px" y="0px"
	 viewBox="0 0 100 100" style="enable-background:new 0 0 100 100;" xml:space="preserve">
<style type="text/css">
	.st0{fill:#082D7C;}
	.st1{fill:#00E1B6;}
</style>
<path class="st0" d="M10.4,0h79.3C95.4,0,100,4.6,100,10.4v79.3c0,5.7-4.6,10.4-10.4,10.4H10.4C4.6,100,0,95.4,0,89.6V10.4
	C0,4.6,4.6,0,10.4,0z"/>
<path class="st1" d="M82.2,49.7c0.5,0.7,1,1.3,1.4,2c2.5,4.5,2,12.8-6.1,15.6c-1.8,0.7-3.8,1-5.7,1H60.8c-1.6,0.1-3.1-0.8-3.7-2.3
	c-0.8-1.9,0.1-4,2-4.8c0.3-0.1,0.6-0.2,0.9-0.2c0.3,0,0.7,0,1,0h12c0.9,0.1,1.9-0.2,2.7-0.7c1.2-0.8,1.8-2.3,1.5-3.7
	c-0.4-1.5-1.6-2.6-3.1-2.8c-0.3,0-0.7,0-1,0H60.9c-1.5,0.1-2.9-0.6-3.6-1.9c-1-1.8-0.4-4,1.4-5c0.6-0.3,1.2-0.5,1.9-0.5
	c3.1,0,6.3,0,9.4,0c1.2,0,2.3,0,3.5,0c2,0,3.6-1.7,3.6-3.7c0-2-1.7-3.6-3.7-3.6c-2.9,0-5.8,0-8.7,0h-4.1c-2,0-3.7-1.6-3.8-3.6
	c0-2,1.6-3.7,3.7-3.7c0,0,0,0,0,0c4.4,0,8.8-0.1,13.2,0c2.3,0,4.6,0.6,6.5,1.8c3,1.8,4.8,5.1,4.7,8.6C85,44.9,84,47.6,82.2,49.7z"/>
<path class="st1" d="M34.2,44c2.1-1.8,4.8-2.7,7.6-2.6C47.2,41.2,52,45,53,50.3c0.3,1.3,0.4,2.7,0.5,4c0.1,3.4,0,6.8,0,10.2
	c0.1,2-1.5,3.7-3.5,3.8c-2,0.2-3.8-1.1-4.1-3.1c0-0.2,0-0.5,0-0.7c0-4,0-8,0-12c0-2-1.5-3.6-3.5-3.7c-1.8-0.1-3.5,1-3.9,2.8
	c-0.1,0.4-0.1,0.9-0.1,1.3c0,3.9,0,7.8,0,11.7c0,1.8-1.2,3.3-3,3.7c-1.8,0.4-3.6-0.5-4.3-2.1c-0.2-0.5-0.3-1-0.3-1.5
	c0-3.3,0-6.7,0-10c0.1-1.4-0.2-2.8-0.8-4c-0.3-0.6-0.8-1-1.3-1.4c-1.8-1-2.5-3.2-1.5-5c0,0,0,0,0,0c1.1-1.8,3.4-2.4,5.3-1.4
	C32.9,43.1,33.5,43.5,34.2,44z"/>
<path class="st1" d="M15.1,54.8v-9.6c-0.1-2.1,1.6-3.8,3.6-3.8c0.1,0,0.1,0,0.2,0c2.1-0.1,3.8,1.6,3.9,3.6c0,0.1,0,0.1,0,0.2v19.2
	c0.1,2.1-1.6,3.8-3.6,3.8c-0.1,0-0.1,0-0.2,0c-2.1,0-3.8-1.6-3.8-3.6c0-0.1,0-0.1,0-0.2V54.8z"/>
<path class="st1" d="M18.9,39c-2,0-3.7-1.6-3.8-3.6c0,0,0-0.1,0-0.1c-0.1-2.1,1.6-3.9,3.7-4c2.1-0.1,3.9,1.6,4,3.7
	c0.1,2.1-1.6,3.9-3.7,4C19,39,18.9,39.1,18.9,39z"/>
</svg>
