<svg id="Laag_1" data-name="Laag 1" xmlns="http://www.w3.org/2000/svg" viewBox="0 0 100 100"><defs><style>.cls-1{fill:#d5037e;}.cls-2{fill:#fff;stroke:#fff;stroke-miterlimit:10;stroke-width:0.5px;}</style></defs><rect class="cls-1" width="100" height="100" rx="10.37"/><path class="cls-2" d="M91,53.49a5.61,5.61,0,0,1-.69,1.44,11.27,11.27,0,0,1-2,2.4,3.25,3.25,0,0,1-.72.51,2.81,2.81,0,0,1-1.17.4,6.81,6.81,0,0,1-1,0,1.5,1.5,0,0,1-1.09-1.06,2.53,2.53,0,0,0-.12-.36,3,3,0,0,1-.14-.94c0-.33,0-.65,0-1s0-.47,0-.71a.71.71,0,0,0,0-.29,1.21,1.21,0,0,1-.1-.56,7.21,7.21,0,0,0,0-1,18.07,18.07,0,0,1-.06-2.21l0-2.65a1.5,1.5,0,0,0-.2-.72.6.6,0,0,1-.06-.11c-.07-.12-.09-.29-.25-.33a1.07,1.07,0,0,0-.64-.05,2.89,2.89,0,0,0-.94.57,13,13,0,0,0-1.1,1,.54.54,0,0,0-.15.43c.08.87.12,1.75.12,2.62a1.53,1.53,0,0,0,0,.3,4.89,4.89,0,0,1,0,1.08.91.91,0,0,0,.09.36.73.73,0,0,1,.08.38l0,.68c0,.21,0,.42,0,.63,0,.6,0,1.21,0,1.81l0,1a2.76,2.76,0,0,0,.06.4c0,.23,0,.32-.23.35L79.69,58h-.4A1.36,1.36,0,0,0,79,58a.91.91,0,0,0-.14.07c-.21.09-.32,0-.33-.2s0-.67-.06-1,0-.67,0-1a2.4,2.4,0,0,1,0-.37,3.77,3.77,0,0,0,0-.47.27.27,0,0,0-.15-.18c-.09,0-.14.06-.19.13a6.38,6.38,0,0,1-.61.92,11.06,11.06,0,0,1-1.7,1.58,8,8,0,0,1-.81.45l-.33.17a1.89,1.89,0,0,1-.21.09l-1,.3a1,1,0,0,1-.22.06c-.55,0-1.09,0-1.64,0a1,1,0,0,1-.29-.08l-.76-.25-.49-.2a.54.54,0,0,0-.13-.07,2.18,2.18,0,0,1-1.28-1.46,2.72,2.72,0,0,0-.19-.47.36.36,0,0,0-.21-.15c-.09,0-.13.08-.16.16a1.94,1.94,0,0,1-.46.63,6.6,6.6,0,0,1-1.41,1.17l-.21.1-.38.16a1,1,0,0,1-.36.1,7.09,7.09,0,0,1-1.66,0,.55.55,0,0,1-.51-.31,1.21,1.21,0,0,0-.1-.14,1.83,1.83,0,0,1-.18-.41c0-.37,0-.74-.08-1.11,0-.2,0-.41,0-.62a3.75,3.75,0,0,1-.05-.47c0-.26,0-.52,0-.78a3.54,3.54,0,0,0-.09-1.08,1.35,1.35,0,0,1,0-.4c0-.8,0-1.6,0-2.4,0-.56-.09-1.12-.09-1.68a12.77,12.77,0,0,0-.27-1.66.81.81,0,0,0-.77-.55.89.89,0,0,0-.56.18,4.05,4.05,0,0,1-.35.21.61.61,0,0,0-.16.12l-.66.85a.7.7,0,0,0-.06.19.89.89,0,0,0,0,.23c0,.28,0,.57,0,.85,0,.55,0,1.09,0,1.64v6.62c0,.1,0,.21,0,.32s-.07.29-.28.3l-1.13,0-.66,0c-.32,0-.42-.11-.43-.43,0-.65,0-1.31,0-2,0-.44,0-.89,0-1.33s0-.94,0-1.41a2.1,2.1,0,0,0-.11-.75,1,1,0,0,1,0-.35c0-.36,0-.72,0-1.08a1.76,1.76,0,0,1,0-.23,1.56,1.56,0,0,0-.11-.9.52.52,0,0,1,0-.25c0-.59,0-1.18,0-1.77a1.1,1.1,0,0,0-1.31-1c-.15,0-.29.15-.44.2A1.87,1.87,0,0,0,54,48s0,.07,0,.09a1,1,0,0,0-.19.76c0,.75,0,1.5,0,2.24a1.16,1.16,0,0,0,.07.37,1.12,1.12,0,0,1,.06.6,1.62,1.62,0,0,0,0,.22V55a.85.85,0,0,0,0,.23,3,3,0,0,1,.07.85V57.9c0,.27-.1.36-.36.32l-.32,0H51.68c-.19,0-.28-.13-.23-.31a1.75,1.75,0,0,0,0-.72,2.22,2.22,0,0,0-.06-.45,1.16,1.16,0,0,1,0-.76.89.89,0,0,0,0-.32s-.06-.1-.11-.12-.09,0-.12.06c-.16.19-.31.4-.46.59a2.23,2.23,0,0,1-.19.24,9.1,9.1,0,0,1-1.5,1.34,6.28,6.28,0,0,1-1.52.79,4.07,4.07,0,0,1-1.43.26c-.34,0-.69,0-1,0a1.73,1.73,0,0,1-.81-.16.27.27,0,0,0-.12,0,1.45,1.45,0,0,1-.78-.26,4.53,4.53,0,0,1-.72-.39,2.23,2.23,0,0,1-.57-.73A2.4,2.4,0,0,1,42,57a3.66,3.66,0,0,1-.21-.51c-.08-.38-.14-.76-.2-1.14a30,30,0,0,1-.08-3.42,1.1,1.1,0,0,1,0-.18c0-.27,0-.55.07-.82a3.12,3.12,0,0,1,.09-.44,2.21,2.21,0,0,0,.06-.34c0-.45,0-.89.07-1.34a.62.62,0,0,0,0-.19,1.14,1.14,0,0,1,.15-.68c.06-.1.13-.2,0-.3s-.23,0-.32,0a1.71,1.71,0,0,1-.69.3l0,0a3.09,3.09,0,0,1-1.64.28c-.25,0-.5,0-.75,0s-.21,0-.22.23v.31c0,1-.06,2-.06,3a8,8,0,0,1-.09,1.2c0,.24,0,.49,0,.73a3.11,3.11,0,0,1-.08.44,1.67,1.67,0,0,0-.08.3c0,.29,0,.58,0,.87s0,.69-.1,1a2.46,2.46,0,0,1-1,1.65,2.66,2.66,0,0,1-1.27.56c-.25,0-.5.1-.74.14a2.21,2.21,0,0,1-.35,0l-1.69,0s-.08,0-.1,0c-.26-.15-.58-.1-.85-.2a4.14,4.14,0,0,1-.79-.39,1.66,1.66,0,0,1-.81-1.1,3.24,3.24,0,0,1-.11-.82.26.26,0,0,0-.24-.33c-.09,0-.13.06-.15.14a2.76,2.76,0,0,1-.77,1.28c-.26.3-.55.59-.84.87a3,3,0,0,1-.65.46,3.12,3.12,0,0,1-1.39.28,8.89,8.89,0,0,1-2.06-.14.17.17,0,0,1-.1,0,4.51,4.51,0,0,1-.92-.49,2.37,2.37,0,0,1-.59-.78,2.87,2.87,0,0,1-.16-.73,4.55,4.55,0,0,1,0-.53,1.82,1.82,0,0,0-.11-.69,1.59,1.59,0,0,1,0-.72,1.28,1.28,0,0,0-.08-.67,1.16,1.16,0,0,1-.05-.42v-5.2c0-.29,0-.59,0-.88,0-.61,0-1.22,0-1.84s0-1.21,0-1.82V42.57a.36.36,0,0,0,0-.15,1.59,1.59,0,0,1-.09-.81q0-.81,0-1.62a4.16,4.16,0,0,0-.12-.69.82.82,0,0,1,0-.22c0-.6.05-1.2,0-1.8A4.1,4.1,0,0,1,22,35.85a1.42,1.42,0,0,0,.05-.22,1.69,1.69,0,0,1,.85-1.33,2.16,2.16,0,0,1,1.42-.48c.35,0,.71,0,1.06,0a3,3,0,0,1,.6,0,2,2,0,0,1,1.08.5,4.08,4.08,0,0,1,.5.6.4.4,0,0,1,.07.19A11.72,11.72,0,0,1,28,36.79a8.36,8.36,0,0,1-.06,1.66,6.2,6.2,0,0,1-.29,1.22A5.27,5.27,0,0,1,27.11,41a.24.24,0,0,0-.05.16,1,1,0,0,1-.17.57c-.08.15-.12.31-.19.47s-.1.23-.15.34-.05,0-.05.09A6.18,6.18,0,0,1,25.86,44c-.17.33-.29.67-.45,1-.24.51-.49,1-.74,1.54a.76.76,0,0,0-.06.26c0,.37,0,.74,0,1.11a1,1,0,0,0,0,.18,4.32,4.32,0,0,1,.1,1.48,1,1,0,0,0,0,.34,2.72,2.72,0,0,1,.12,1A9.21,9.21,0,0,0,25,52.82a1.07,1.07,0,0,1,0,.25,1.17,1.17,0,0,0,.09.71.83.83,0,0,1,0,.32c0,.23.06.46.07.7s0,.52,0,.78a.88.88,0,0,0,.51.83,1.29,1.29,0,0,0,.74.17.47.47,0,0,0,.17,0c.07,0,.13-.07.19-.08A2.24,2.24,0,0,0,28,55.6c.38-.41.69-.88,1.05-1.32a16.1,16.1,0,0,0,1-1.43.27.27,0,0,1,.08-.1.33.33,0,0,0,.13-.33c0-.46,0-.91,0-1.36a3.44,3.44,0,0,1,0-.45,5.43,5.43,0,0,0,.06-.55c0-.41,0-.83,0-1.24a2.78,2.78,0,0,1,.08-.49,1.9,1.9,0,0,0,0-.4,6.55,6.55,0,0,1,.05-1.33,7.09,7.09,0,0,0,0-1,1.75,1.75,0,0,1,1.09-1.65,5.25,5.25,0,0,1,.82-.27,2.86,2.86,0,0,1,.58-.06c.62,0,1.24-.05,1.86-.06a10.61,10.61,0,0,1,1.13,0,1.14,1.14,0,0,1,.73.23.6.6,0,0,0,.19.06,1.51,1.51,0,0,1,.37.15,3.15,3.15,0,0,1,.74.84,2.2,2.2,0,0,1,.28,1c0,.43.22.57.65.51l.4,0s.07,0,.09,0a2.63,2.63,0,0,1,.82-.22,4.2,4.2,0,0,0,.5-.17,1.78,1.78,0,0,1,.55-.18.43.43,0,0,0,.14,0c.3-.16.59-.35.9-.49a1.31,1.31,0,0,0,.5-.46,4.11,4.11,0,0,1,.73-.77,1.63,1.63,0,0,1,.89-.35c.55,0,1.09-.09,1.64-.1a9.37,9.37,0,0,1,1.18.09,1.14,1.14,0,0,1,.38.16.31.31,0,0,0,.12,0,1.29,1.29,0,0,1,.88.65,3,3,0,0,1,.57,1.64c0,.35,0,.69,0,1a3.11,3.11,0,0,1-.25,1.5.32.32,0,0,0,0,.09,1.88,1.88,0,0,1-.32.92,7.5,7.5,0,0,1-.48.67,2.68,2.68,0,0,1-1.08.8l-.52.23a5.07,5.07,0,0,1-2.18.31c-.14,0-.29,0-.46,0,0,.2,0,.39,0,.58a2.3,2.3,0,0,1-.09.82.68.68,0,0,0,0,.25v.73a2.45,2.45,0,0,0,0,.27c0,.23.06.45.08.68a1.71,1.71,0,0,0,.51.93,1.92,1.92,0,0,0,.93.57,3,3,0,0,1,.38.15.56.56,0,0,0,.5,0,3.5,3.5,0,0,1,.65-.2c.14,0,.3,0,.39-.18l0,0a3,3,0,0,0,.82-.46,2.88,2.88,0,0,0,.56-.43,9.59,9.59,0,0,0,1.48-1.44c.3-.38.64-.73,1-1.1a.42.42,0,0,0,.13-.34c0-.32,0-.64,0-.95s0-.56,0-.84V46.76a.81.81,0,0,0,0-.22,2.4,2.4,0,0,1,0-.8c0-.4,0-.79,0-1.19a1.85,1.85,0,0,0,0-.7.19.19,0,0,1,.13-.26l.19-.05h1.42a1,1,0,0,0,.41-.07c.19-.08.28,0,.34.17a.29.29,0,0,1,0,.1,9.37,9.37,0,0,1,0,1.4,1.22,1.22,0,0,0,0,.33.19.19,0,0,0,.17.19.2.2,0,0,0,.23-.12,3,3,0,0,1,.57-.76,6,6,0,0,1,.47-.41,4.19,4.19,0,0,1,.66-.47A2.71,2.71,0,0,1,57,43.57h.4A1.74,1.74,0,0,1,59,44.72c.08.2.14.41.21.62a.27.27,0,0,0,.19.21c.13,0,.22,0,.26-.13A2.75,2.75,0,0,1,61,44a1.52,1.52,0,0,1,.32-.12l.27-.08a2.08,2.08,0,0,1,1.16-.11,2.58,2.58,0,0,1,1.5,1,2.16,2.16,0,0,1,.42,1.22c0,.51.07,1,.07,1.53a2.54,2.54,0,0,0,.11,1c0,.08,0,.2,0,.3a3,3,0,0,0,0,.6,3.21,3.21,0,0,1,.1.92c0,.57,0,1.13,0,1.7,0,.74,0,1.49,0,2.24a3.4,3.4,0,0,1,0,.45,1,1,0,0,0,.36.87.27.27,0,0,0,.22.09.92.92,0,0,0,.6-.22,1.51,1.51,0,0,1,.28-.22,3.08,3.08,0,0,0,.64-.61l1-1.24a1.2,1.2,0,0,0,.23-.66c0-.29,0-.59,0-.88,0-.13,0-.26.06-.4s0-.31,0-.47,0-.36,0-.55c0-.38,0-.77,0-1.16s.06-.53.09-.79c0-.06,0-.12,0-.18a.46.46,0,0,1,0-.21,1.47,1.47,0,0,0,.15-.58,3.75,3.75,0,0,1,.14-1,6.21,6.21,0,0,0,.21-.85.86.86,0,0,1,.07-.21c.09-.21.18-.41.29-.61a2.41,2.41,0,0,1,1.39-1.3,3.29,3.29,0,0,1,1.23-.19h1.57a1.06,1.06,0,0,1,.55.13l.14.07a2.21,2.21,0,0,1,1.06.68l.07.08a2.88,2.88,0,0,1,.44,1.09,7.9,7.9,0,0,1,.07.85,12.29,12.29,0,0,1-.08,2s0,.09,0,.12c-.21.37-.26.79-.46,1.17A4,4,0,0,1,73.64,51a1.13,1.13,0,0,1-.24.08,2.13,2.13,0,0,1-.43.13,4.09,4.09,0,0,1-.6.07l-1.41,0c-.2,0-.25,0-.29.25a2.73,2.73,0,0,0-.06.5c0,.69,0,1.37,0,2.06a1.64,1.64,0,0,0,.26,1l0,.05c.09.48.51.66.84.92a1,1,0,0,0,.28.11s.12,0,.16.06a.56.56,0,0,0,.51.14h.28a.6.6,0,0,0,.24,0,1.72,1.72,0,0,1,.49-.19c.16,0,.3-.14.46-.2A6.32,6.32,0,0,0,75.48,55a14.66,14.66,0,0,0,2.24-2.35,2.57,2.57,0,0,1,.35-.39.51.51,0,0,0,.16-.43,2.91,2.91,0,0,0,0-.3A8.59,8.59,0,0,1,78.16,50c0-.15,0-.3,0-.45,0-.38,0-.77,0-1.15a1.11,1.11,0,0,0-.09-.57.51.51,0,0,1,0-.22c0-.3,0-.6,0-.9a1.32,1.32,0,0,0,0-.28,2.72,2.72,0,0,1-.1-.94c0-.36,0-.71,0-1.06v-1c0-.28.09-.35.35-.3a.75.75,0,0,0,.42,0,1.63,1.63,0,0,1,.37-.08,3.11,3.11,0,0,0,.68,0c.18-.05.23,0,.28.19a.69.69,0,0,1,0,.2c0,.47,0,.94,0,1.41,0,.13,0,.27,0,.4s.09.27.25.19a2.81,2.81,0,0,0,.44-.33c.11-.1.18-.24.3-.34.32-.26.64-.53,1-.77a3.18,3.18,0,0,1,1.24-.52,5.23,5.23,0,0,1,1-.09,1.35,1.35,0,0,1,1.14.54,2.51,2.51,0,0,1,.38.7c.06.17.14.33.2.49a.47.47,0,0,1,0,.17,6.82,6.82,0,0,0,.18,1.42,8.35,8.35,0,0,1,.13,1.65c0,.48,0,1,0,1.44a10.07,10.07,0,0,0,0,1.1c0,.36,0,.71,0,1.06,0,.11,0,.22,0,.33a.52.52,0,0,0,0,.28.7.7,0,0,1,.12.48,2.49,2.49,0,0,0,0,.9,5,5,0,0,1,0,.78,1.6,1.6,0,0,0,.11.48.52.52,0,0,0,.85.18,6.5,6.5,0,0,0,1-1.07c.22-.29.41-.59.61-.89s.45-.67.66-1a1.33,1.33,0,0,0,.09-.21c.06-.19.24-.24.36-.09.27.34.53.69.79,1ZM32.71,51.72h0v3.21c0,.24,0,.48.05.73a1,1,0,0,0,.64.76,5.1,5.1,0,0,1,.55.19.44.44,0,0,0,.32,0l.44-.1a1.49,1.49,0,0,0,.66-.28,1.7,1.7,0,0,0,.47-1,3.05,3.05,0,0,0,.06-.8c0-.62,0-1.25,0-1.87A2.09,2.09,0,0,1,36,51.8a.38.38,0,0,0,0-.18c0-.92,0-1.83,0-2.75,0-.33-.05-.43-.37-.55a2,2,0,0,1-.9-.74.66.66,0,0,1-.13-.43V46.4c0-.27,0-.53.25-.7a.22.22,0,0,0,.06-.28c0-.1-.14-.1-.24-.09s-.43.05-.64.09a.86.86,0,0,0-.28.11,1.64,1.64,0,0,0-.29.16,1.4,1.4,0,0,0-.72,1.24,7.51,7.51,0,0,1,0,1.16,1.51,1.51,0,0,0,0,.3c0,.52,0,1,0,1.56ZM26.16,37.19a5.07,5.07,0,0,0-.17-.51,2.6,2.6,0,0,1-.1-.25c-.05-.35-.33-.49-.57-.67a.22.22,0,0,0-.21,0,2.52,2.52,0,0,0-.64.44,1.92,1.92,0,0,0-.44.89,1.3,1.3,0,0,0,0,.91.92.92,0,0,1,.05.37c0,.52,0,1,0,1.54a1.8,1.8,0,0,0,0,.4,9.08,9.08,0,0,1,.1,1.47c0,.31,0,.62-.06.93,0,.1,0,.21.14.24s.2,0,.28-.13a1.6,1.6,0,0,1,.18-.25.52.52,0,0,0,.14-.33,1.41,1.41,0,0,1,.17-.63,1.66,1.66,0,0,0,.14-.37,1.64,1.64,0,0,1,.21-.67.57.57,0,0,0,.06-.24,3.43,3.43,0,0,1,.31-1.08.62.62,0,0,0,.05-.27,3.5,3.5,0,0,1,.24-1.43A1.93,1.93,0,0,0,26.16,37.19ZM72,49.23a1.41,1.41,0,0,0,.89-.21,2.21,2.21,0,0,0,.77-.72,9.47,9.47,0,0,0,.43-1.19,0,0,0,0,0,0,0,1.79,1.79,0,0,0-.2-1.06,1.2,1.2,0,0,0-1-.63,1.77,1.77,0,0,0-.52.08,1.88,1.88,0,0,0-.42.27,1.06,1.06,0,0,0-.25.27,2.15,2.15,0,0,0-.27.49c-.14.46-.27.92-.37,1.38a7.93,7.93,0,0,0-.1,1c0,.28,0,.34.3.39l.22,0Zm-27.14.3h0a4.26,4.26,0,0,1,.5,0,1.31,1.31,0,0,0,.89-.27c.29-.22.62-.4.75-.78a.38.38,0,0,1,.09-.15.49.49,0,0,0,.11-.35,1.07,1.07,0,0,1,.12-.58.36.36,0,0,0,0-.25c0-.23-.11-.45-.13-.68a.85.85,0,0,0-.56-.69,1.52,1.52,0,0,0-1.11,0A1.8,1.8,0,0,0,44.59,47c0,.13-.07.26-.11.39a2.13,2.13,0,0,0-.11.33c0,.31-.07.63-.11,1l0,.52c0,.25,0,.31.27.31Z"/><path class="cls-2" d="M9,39.9a.45.45,0,0,0,.16-.38c0-.29.07-.35.35-.35,1.05,0,2.1,0,3.16,0,.44,0,.88,0,1.33-.06l.93,0H15a4.22,4.22,0,0,0,1,.08,3.49,3.49,0,0,1,2,.73,1,1,0,0,1,.25.31,5.8,5.8,0,0,1,.37.8,7.4,7.4,0,0,1,.29,1.05,5.69,5.69,0,0,1,.07.83.58.58,0,0,0,0,.19,1,1,0,0,1,.1.59c0,.28,0,.57,0,.86a3.66,3.66,0,0,1-.08.87,4.5,4.5,0,0,0-.07.83,2.7,2.7,0,0,1-.21,1.08,1.05,1.05,0,0,0,0,.19,2.18,2.18,0,0,1-.48,1,1,1,0,0,1-.25.2c-.29.22-.3.37,0,.58a1.8,1.8,0,0,1,.5.49,4,4,0,0,1,.4.64,5,5,0,0,1,.45,1.46.82.82,0,0,0,.16.52.38.38,0,0,1,.05.22q0,1.35,0,2.7a4,4,0,0,1,0,.6.32.32,0,0,1,0,.17,2,2,0,0,0-.2.72,2.2,2.2,0,0,1-.82,1.32,3.46,3.46,0,0,1-.52.32,1.07,1.07,0,0,1-.53.13c-.24,0-.48,0-.73,0s-.68,0-1,0H14a1.63,1.63,0,0,0-.44.08.72.72,0,0,1-.56,0,.37.37,0,0,0-.17,0c-.34,0-.69,0-1,0s-.35-.11-.34-.36,0-.25,0-.37v-7c0-.24,0-.49,0-.73s.05-.54.05-.8V42c0-.51-.06-.54-.56-.48a4.63,4.63,0,0,1-.83,0,1.11,1.11,0,0,1-.22-.07,1,1,0,0,0-.29-.07c-.39,0-.54-.19-.55-.59l0-.52Zm5.56,8.37h0l1,0a.35.35,0,0,0,.14,0c.28-.17.59-.31.69-.66a2.45,2.45,0,0,1,.08-.29c.05-.13.09-.26.13-.38a2.42,2.42,0,0,0,.12-.35,5,5,0,0,0,.08-1.28,14.84,14.84,0,0,0-.11-2.11,1.43,1.43,0,0,0,0-.22l-.21-.59c0-.08,0-.17-.09-.21a2.15,2.15,0,0,0-.75-.5,8.36,8.36,0,0,0-1.49-.15.17.17,0,0,0-.21.17c0,.08,0,.16,0,.25s0,.32,0,.47v5c0,.21,0,.42-.05.63s0,.35.31.35Zm-.66,2.12c0,.12,0,.21,0,.3,0,.64,0,1.28,0,1.92s0,1,0,1.53c0,.11,0,.22,0,.33s0,.35,0,.53c0,.36,0,.72,0,1.08s.05.27.25.32l.12,0,1.81-.05a.32.32,0,0,0,.17-.06,2.27,2.27,0,0,0,.41-.47,2.77,2.77,0,0,0,.38-1.29c0-.57,0-1.14-.05-1.71l0-.15c-.06-.21-.12-.42-.19-.62a5.47,5.47,0,0,0-.23-.64,1.68,1.68,0,0,0-.85-.85l-.06,0a.51.51,0,0,0-.39-.14c-.39,0-.78,0-1.16,0Z"/><path class="cls-2" d="M30.52,70.11c-.2,0-.41,0-.61-.09s-.19-.06-.29-.09a1.28,1.28,0,0,0-.33-.11.89.89,0,0,1-.41-.18,3.86,3.86,0,0,1-1-1.07.49.49,0,0,1-.08-.18A4.64,4.64,0,0,1,27.55,67c0-.21.07-.41.11-.61a1.54,1.54,0,0,0,.05-.17,1.38,1.38,0,0,1,.31-.78,3.19,3.19,0,0,1,.37-.44,4.88,4.88,0,0,1,1.1-.7,1.16,1.16,0,0,1,.42-.08,1.37,1.37,0,0,0,.68-.14,1,1,0,0,1,.59,0l1,.18.15,0,.79.44a2.2,2.2,0,0,0,.26.15c.23.14.25.26.07.46a1.14,1.14,0,0,0-.24.41c-.06.19-.16.23-.34.12l-.48-.32a2.11,2.11,0,0,0-.34-.16.76.76,0,0,1-.16-.06,2,2,0,0,0-1.33-.27,1,1,0,0,0-.79.26l-.07,0a2.21,2.21,0,0,0-1,.94.59.59,0,0,0-.1.26c0,.11,0,.23-.06.35A1.43,1.43,0,0,0,28.75,68c0,.09.11.17.16.26a.86.86,0,0,0,.46.4,2.07,2.07,0,0,1,.24.17,1.66,1.66,0,0,0,.27.13l.71.23a.77.77,0,0,0,.45,0l1.21-.32a1.12,1.12,0,0,0,.25-.11l.15-.09c.13-.08.28-.15.41-.24s.27-.11.37.07a5.42,5.42,0,0,1,.26.6.2.2,0,0,1-.11.25c-.16.1-.32.22-.49.31a1.31,1.31,0,0,1-.35.12,1.89,1.89,0,0,0-.34.09,2.07,2.07,0,0,1-.78.18.43.43,0,0,0-.14,0Z"/><path class="cls-2" d="M69.48,70.11a1.11,1.11,0,0,0-.25,0,2.58,2.58,0,0,1-.86-.25,1.13,1.13,0,0,1-.27-.22,5,5,0,0,1-.45-.48.81.81,0,0,1-.15-.34,4.53,4.53,0,0,1-.13-.64,1.45,1.45,0,0,1,0-.3c0-1,0-2,0-3,0-.1,0-.2,0-.3s0-.27.23-.28.36,0,.53,0,.24.07.24.25c0,1,0,2,0,3a4.76,4.76,0,0,0,.14.92.58.58,0,0,0,.38.41,10.13,10.13,0,0,0,1,.35,1.1,1.1,0,0,0,.69-.06,1.13,1.13,0,0,1,.24-.08,1.22,1.22,0,0,0,.84-.55.66.66,0,0,0,.12-.34c0-.23,0-.45,0-.68v-3a.76.76,0,0,1,0-.15c0-.15.07-.2.21-.18a1.82,1.82,0,0,0,.57,0c.18,0,.27.09.27.29s0,.63,0,1v2.07c0,.09,0,.19,0,.28a1.12,1.12,0,0,1,0,.32q-.08.31-.18.63a1.61,1.61,0,0,1-1,1.09s-.09,0-.12,0a1.12,1.12,0,0,1-.69.18.33.33,0,0,0-.14,0Z"/><path class="cls-2" d="M45.75,64.25h1.61a.37.37,0,0,1,.15,0,2.89,2.89,0,0,1,1.61,1,1.83,1.83,0,0,1,.18.3,4.52,4.52,0,0,1,.23.5,1.09,1.09,0,0,1,.08.39c0,.41,0,.81,0,1.21a.89.89,0,0,1-.16.55.35.35,0,0,0-.06.14A1.92,1.92,0,0,1,49,69a1.19,1.19,0,0,1-.5.44.78.78,0,0,0-.22.12,1.23,1.23,0,0,1-.82.25,2.32,2.32,0,0,0-.38.05A2.68,2.68,0,0,1,46,70a4.34,4.34,0,0,0-.51,0l-1.08,0A2.45,2.45,0,0,1,44,70c-.15,0-.21-.09-.21-.25s0-.34,0-.5c0-1.32,0-2.63,0-3.94q0-.37,0-.75c0-.24,0-.29.27-.29h1.67Zm.69,4.68v0h.8a.51.51,0,0,0,.25,0,2.3,2.3,0,0,0,.76-.59c.06-.1.15-.18.2-.28s.12-.28.18-.41a.6.6,0,0,0,.08-.21c0-.38.11-.78-.18-1.11a.54.54,0,0,1-.08-.21.67.67,0,0,0-.24-.35l-.27-.23a.63.63,0,0,0-.21-.12,1.59,1.59,0,0,0-.94-.09,1.08,1.08,0,0,1-.18,0l-1.46,0c-.31,0-.41.1-.41.4s0,.42,0,.63c-.06.78,0,1.56,0,2.34,0,.22.07.31.28.35h.35Z"/><path class="cls-2" d="M53.73,66.5c.29,0,.59,0,.88-.09a.25.25,0,0,1,.31.27c0,.21,0,.42,0,.63s-.07.18-.22.18l-1.41,0h-.17c-.24,0-.33.12-.34.36s0,.52,0,.78A.31.31,0,0,0,53,69a2.57,2.57,0,0,0,.48,0l1.54,0,1.49,0a.47.47,0,0,1,.17,0,.21.21,0,0,1,.19.23c0,.17,0,.35,0,.52s0,.24-.23.27h-.4L54.7,70c-.19,0-.38,0-.58,0L53,70h-.77c-.27,0-.35-.08-.34-.35,0-.52,0-1,0-1.56V64.86c0-.13,0-.25,0-.38s.08-.29.29-.27l.37,0h3.26a2.45,2.45,0,0,0,.76,0c.13,0,.21,0,.25.18a.65.65,0,0,1,0,.2V65c0,.29-.11.38-.41.34a3.39,3.39,0,0,0-.45,0h-.35l-2.22,0h0c-.54,0-.6.15-.58.55a2.11,2.11,0,0,1,0,.25c0,.25.07.37.32.4s.45,0,.68,0Z"/><path class="cls-2" d="M58.58,70a5,5,0,0,1,.37-.8.82.82,0,0,0,.11-.17c.12-.27.23-.56.34-.83a3.18,3.18,0,0,1,.16-.32.8.8,0,0,0,.18-.42c0-.13.12-.24.18-.36.28-.57.55-1.15.82-1.72a2.33,2.33,0,0,0,.28-.69c.06-.31.32-.43.65-.41a5.78,5.78,0,0,0,.72,0c.23,0,.28,0,.38.21s.22.48.34.72.26.52.39.78a2.4,2.4,0,0,1,.11.23,13.16,13.16,0,0,0,.59,1.19,3,3,0,0,1,.38.82c.08.36.33.63.44,1s.2.4.28.61,0,.22-.15.23h-.66a.34.34,0,0,1-.35-.28,3.35,3.35,0,0,0-.37-.79.37.37,0,0,0-.38-.19l-2.57,0h0c-.5-.11-.47,0-.71.36a3.19,3.19,0,0,0-.2.46.56.56,0,0,1-.7.42C59,70,58.83,70,58.58,70ZM62,67.73h0c.16,0,.31,0,.46,0h.45c.2,0,.3-.12.25-.3a.88.88,0,0,0-.14-.23c0-.07-.13-.12-.16-.19-.13-.27-.25-.53-.37-.8a2.52,2.52,0,0,1-.15-.34,2,2,0,0,1-.16-.4.23.23,0,0,0-.22-.2c-.13,0-.17.08-.21.2a6.5,6.5,0,0,1-.36.86,4.41,4.41,0,0,0-.28.58.83.83,0,0,1-.19.26.43.43,0,0,0-.1.43c.06.14.18.13.3.13Z"/><path class="cls-2" d="M41.8,70l-.62,0a.25.25,0,0,1-.25-.17c-.12-.26-.24-.52-.35-.78s-.12-.31-.46-.31H37.24c-.29,0-.39.12-.49.39s-.24.52-.36.77a.2.2,0,0,1-.26.1,1.22,1.22,0,0,0-.57,0,.26.26,0,0,1-.22-.07c-.08-.07,0-.17,0-.25.16-.29.32-.59.49-.88,0,0,0,0,0,0a4.55,4.55,0,0,1,.44-1c.13-.34.31-.67.47-1s.23-.43.35-.64c0,0,0,0,0,0,0-.4.31-.66.43-1a6.54,6.54,0,0,0,.28-.66.23.23,0,0,1,.23-.19h1.19c.16,0,.23.12.28.25.14.33.26.65.41,1s.3.54.44.81c0,.12.07.24.13.36l.82,1.69.45,1,.11.19a2.12,2.12,0,0,1,.12.2C42.11,69.9,42,70,41.8,70Zm-3-2.24h.9c.11,0,.21,0,.25-.13s0-.18-.06-.26a2.73,2.73,0,0,1-.56-1,.2.2,0,0,0-.06-.13,1.08,1.08,0,0,1-.2-.54c0-.23-.11-.28-.34-.28s-.29.1-.33.34a1.18,1.18,0,0,1-.1.38c-.2.4-.43.8-.64,1.19l-.06.11c-.07.18,0,.31.17.34a1.35,1.35,0,0,0,.35,0Z"/><path class="cls-2" d="M78.77,66.55a1,1,0,0,1-.38.86.68.68,0,0,1-.68.13,1.21,1.21,0,0,1-.78-1,.8.8,0,0,1,.61-.83,1,1,0,0,1,1,.25A.69.69,0,0,1,78.77,66.55Z"/><path class="cls-2" d="M85,67.58a.73.73,0,0,1-.46-.15l-.16-.11c-.07-.06-.16-.11-.19-.19a5.59,5.59,0,0,1-.22-.57s0,0,0-.07a1.24,1.24,0,0,1,.35-.68,1.22,1.22,0,0,1,.43-.2,1.45,1.45,0,0,1,.87.3,4.89,4.89,0,0,1,.26.51.07.07,0,0,1,0,0,1.26,1.26,0,0,1-.75,1.09Z"/><path class="cls-2" d="M47.81,33c0,.08,0,.18,0,.28a.6.6,0,0,1-.4.54l-.2.1a.54.54,0,0,1-.62.05.93.93,0,0,1-.64-.9,1.2,1.2,0,0,1,.59-.88l.16-.08a.43.43,0,0,1,.41,0l.31.16A.71.71,0,0,1,47.81,33Z"/><path class="cls-2" d="M52.53,35.2l.32.06a.79.79,0,0,1,.6.87,1.35,1.35,0,0,1-.05.29.61.61,0,0,1-.32.46l-.15.09a.69.69,0,0,1-1-.09,1.21,1.21,0,0,1-.41-.67.67.67,0,0,1,.24-.7A1.13,1.13,0,0,1,52.53,35.2Z"/><path class="cls-2" d="M46.52,35.89a.8.8,0,0,1,.65-.84l.31-.11a.31.31,0,0,1,.21,0,1,1,0,0,1,.62.62,1.6,1.6,0,0,1,0,.44.67.67,0,0,1-.21.52l-.21.22a.7.7,0,0,1-1,0l-.2-.22A.82.82,0,0,1,46.52,35.89Z"/><path class="cls-2" d="M48.71,29.89a.89.89,0,0,1,.88.77l0,.22c0,.5-.3.72-.72.88a.63.63,0,0,1-.27,0l-.36-.11a.7.7,0,0,1-.5-.54,1.27,1.27,0,0,1,0-.77.46.46,0,0,1,.11-.16A2.07,2.07,0,0,1,48.71,29.89Z"/><path class="cls-2" d="M23.27,66.51a1.33,1.33,0,0,1-.38.83.58.58,0,0,1-.43.23.84.84,0,0,1-.27,0,1.07,1.07,0,0,1-.76-1.24,1.33,1.33,0,0,0,.05-.19.39.39,0,0,1,.31-.35l.05,0a.81.81,0,0,1,.94,0A.85.85,0,0,1,23.27,66.51Z"/><path class="cls-2" d="M50.85,37.32a.73.73,0,0,1-.28.68.7.7,0,0,1-.43.19,1,1,0,0,1-.88-.27.75.75,0,0,1-.21-.39,1.08,1.08,0,0,1,.3-1.06.77.77,0,0,1,.3-.15,1.22,1.22,0,0,1,.33,0,.65.65,0,0,1,.49.21l.08.07C50.84,36.86,50.85,36.87,50.85,37.32Z"/><path class="cls-2" d="M82.27,66.51c0,.18,0,.35-.08.52a.75.75,0,0,1-1.11.43,1.46,1.46,0,0,1-.59-.64A1,1,0,0,1,81,65.7a1.16,1.16,0,0,1,1.11.17.38.38,0,0,1,.13.21A3.58,3.58,0,0,1,82.27,66.51Z"/><path class="cls-2" d="M19.71,66.54a1.35,1.35,0,0,1-.24.73c-.2.3-.78.44-1,.16l-.1-.07a1,1,0,0,1-.43-1c.06-.48.38-.61.76-.71a.71.71,0,0,1,.29,0l.24.09A.84.84,0,0,1,19.71,66.54Z"/><path class="cls-2" d="M16.17,66.59a1,1,0,0,1-.37.84.65.65,0,0,1-.69.1,1.06,1.06,0,0,1-.54-1.61.2.2,0,0,1,.08-.1,1,1,0,0,1,.9-.15.6.6,0,0,0,.11.06.67.67,0,0,1,.51.76Z"/><path class="cls-2" d="M52.43,33.47c0-.1,0-.2,0-.3a.91.91,0,0,1,.85-.76.67.67,0,0,1,.59.15,1,1,0,0,1-.46,1.77,1.59,1.59,0,0,1-.37-.06l-.16-.07c-.38-.15-.46-.26-.47-.65v-.08Z"/><path class="cls-2" d="M51.71,30c.54,0,.71.18.95.66a.61.61,0,0,1,0,.62,2.67,2.67,0,0,1-.38.44.71.71,0,0,1-.77.15.76.76,0,0,1-.51-.52,2.27,2.27,0,0,1,0-.78.66.66,0,0,1,.67-.57Z"/><path class="cls-2" d="M50.17,33a.8.8,0,0,1,.8.52A1,1,0,0,1,51,34a1,1,0,0,1-.53.85.77.77,0,0,1-.3.06,1,1,0,0,1-.93-1,.77.77,0,0,0,0-.15A.72.72,0,0,1,50.17,33Z"/></svg>