<svg id="Laag_1" data-name="Laag 1" xmlns="http://www.w3.org/2000/svg" viewBox="0 0 100 100"><defs><style>.cls-1{fill:#1d1d1b;}.cls-2{fill:#fff;}</style></defs><rect class="cls-1" width="100" height="100" rx="10.37"/><g id="Valk_Cadeaucard_Dark" data-name="Valk Cadeaucard Dark"><path class="cls-2" d="M40.79,54.92a2.54,2.54,0,0,1-1-.2,2.36,2.36,0,0,1-.82-.58,2.64,2.64,0,0,1-.54-.93,4,4,0,0,1,0-2.54,2.82,2.82,0,0,1,.57-.94,2.36,2.36,0,0,1,.82-.58,2.41,2.41,0,0,1,1-.21,2.07,2.07,0,0,1,1,.22,3.28,3.28,0,0,1,.69.48l-.31.37a2.49,2.49,0,0,0-.6-.42,1.63,1.63,0,0,0-.75-.18,1.71,1.71,0,0,0-.8.19,1.83,1.83,0,0,0-.65.52,2.51,2.51,0,0,0-.44.8,3.26,3.26,0,0,0-.16,1,3.49,3.49,0,0,0,.14,1,2.31,2.31,0,0,0,.42.79,1.83,1.83,0,0,0,.65.52,1.94,1.94,0,0,0,.85.18,1.71,1.71,0,0,0,.83-.19,2.63,2.63,0,0,0,.68-.46l.27.37a3.17,3.17,0,0,1-.82.52A2.27,2.27,0,0,1,40.79,54.92Z"/><path class="cls-2" d="M45.11,54.92a2.3,2.3,0,0,1-.64-.09,1.57,1.57,0,0,1-.52-.29,1.38,1.38,0,0,1-.35-.48,1.68,1.68,0,0,1-.13-.7,1.56,1.56,0,0,1,.88-1.44,7.66,7.66,0,0,1,2.78-.71,4.74,4.74,0,0,0-.05-.65,1.54,1.54,0,0,0-.2-.58,1.15,1.15,0,0,0-.41-.41,1.28,1.28,0,0,0-.69-.16,2.34,2.34,0,0,0-1,.22,5.77,5.77,0,0,0-.76.44l-.24-.39.37-.24a3.12,3.12,0,0,1,.49-.23,4.49,4.49,0,0,1,.59-.19,3,3,0,0,1,.66-.07,1.86,1.86,0,0,1,.84.17,1.59,1.59,0,0,1,.56.47,1.93,1.93,0,0,1,.3.69,3.55,3.55,0,0,1,.1.86v3.64H47.2L47.15,54h0a6.29,6.29,0,0,1-.94.61A2.24,2.24,0,0,1,45.11,54.92Zm.09-.45a2,2,0,0,0,.95-.24,5.53,5.53,0,0,0,1-.68V51.61a12.39,12.39,0,0,0-1.48.26,3.81,3.81,0,0,0-1,.37,1.41,1.41,0,0,0-.52.48,1.21,1.21,0,0,0-.16.61,1.34,1.34,0,0,0,.1.52.81.81,0,0,0,.25.35,1.2,1.2,0,0,0,.39.2,1.47,1.47,0,0,0,.46.07Z"/><path class="cls-2" d="M51.54,54.92a2.12,2.12,0,0,1-1.71-.76A3.4,3.4,0,0,1,49.19,52a3.77,3.77,0,0,1,.21-1.25,2.72,2.72,0,0,1,.54-1,2.49,2.49,0,0,1,.81-.59,2.28,2.28,0,0,1,1-.21,2,2,0,0,1,.9.18,4.3,4.3,0,0,1,.81.52l0-1V46.26h.52v8.52h-.45l0-.74h0a3.61,3.61,0,0,1-.8.61A2.12,2.12,0,0,1,51.54,54.92Zm.07-.46a1.93,1.93,0,0,0,.91-.24,4.24,4.24,0,0,0,.88-.7V50.14a3.21,3.21,0,0,0-.85-.56,2.06,2.06,0,0,0-.81-.17,1.66,1.66,0,0,0-.79.2,1.9,1.9,0,0,0-.63.53,2.43,2.43,0,0,0-.43.81,3.07,3.07,0,0,0-.15,1,3.59,3.59,0,0,0,.12,1,2.36,2.36,0,0,0,.36.79,1.66,1.66,0,0,0,1.38.69Z"/><path class="cls-2" d="M58.24,54.92a2.59,2.59,0,0,1-1-.2,2.3,2.3,0,0,1-.83-.59,2.69,2.69,0,0,1-.56-.93,3.86,3.86,0,0,1,0-2.51,2.64,2.64,0,0,1,.56-.94,2.47,2.47,0,0,1,.79-.6,2.16,2.16,0,0,1,.91-.2,1.94,1.94,0,0,1,1.59.68,2.93,2.93,0,0,1,.58,1.95v.21a1.49,1.49,0,0,1,0,.21H56.15a3.37,3.37,0,0,0,.16,1,2.39,2.39,0,0,0,.43.78,1.92,1.92,0,0,0,.66.51,2.07,2.07,0,0,0,.88.18,2.37,2.37,0,0,0,.83-.14A2.86,2.86,0,0,0,59.8,54l.21.4a6.59,6.59,0,0,1-.75.38A2.53,2.53,0,0,1,58.24,54.92Zm-2.09-3.34h3.61a2.51,2.51,0,0,0-.45-1.64,1.5,1.5,0,0,0-1.22-.54,1.65,1.65,0,0,0-.69.15,1.81,1.81,0,0,0-.6.42,2.35,2.35,0,0,0-.43.69A2.64,2.64,0,0,0,56.15,51.58Z"/><path class="cls-2" d="M62.85,54.92a2.3,2.3,0,0,1-.64-.09,1.57,1.57,0,0,1-.52-.29,1.38,1.38,0,0,1-.35-.48,1.68,1.68,0,0,1-.13-.7,1.56,1.56,0,0,1,.88-1.44,7.6,7.6,0,0,1,2.78-.71,4.74,4.74,0,0,0-.05-.65,1.54,1.54,0,0,0-.2-.58,1.15,1.15,0,0,0-.41-.41,1.28,1.28,0,0,0-.69-.16,2.34,2.34,0,0,0-1,.22,5.77,5.77,0,0,0-.76.44l-.24-.39a3.51,3.51,0,0,1,.37-.23,2.23,2.23,0,0,1,.49-.24,4.06,4.06,0,0,1,.59-.19,2.9,2.9,0,0,1,.66-.07,1.89,1.89,0,0,1,.84.17,1.47,1.47,0,0,1,.55.47,2,2,0,0,1,.31.69,4.12,4.12,0,0,1,.09.86v3.64h-.45l0-.74h0a5.82,5.82,0,0,1-.94.61A2.17,2.17,0,0,1,62.85,54.92Zm.09-.45a2,2,0,0,0,1-.24,5.53,5.53,0,0,0,1-.68V51.61a12.39,12.39,0,0,0-1.48.26,3.74,3.74,0,0,0-1,.37,1.36,1.36,0,0,0-.53.48,1.21,1.21,0,0,0-.16.61,1.54,1.54,0,0,0,.09.52,1,1,0,0,0,.26.35,1.2,1.2,0,0,0,.39.2A1.47,1.47,0,0,0,62.94,54.47Z"/><path class="cls-2" d="M69,54.92a1.53,1.53,0,0,1-1.29-.53,2.67,2.67,0,0,1-.42-1.65V49.09h.53v3.58a2.35,2.35,0,0,0,.3,1.34,1.12,1.12,0,0,0,1,.44,1.59,1.59,0,0,0,.92-.29,4.47,4.47,0,0,0,.91-.88V49.09h.52v5.69h-.44l0-1h0a3.63,3.63,0,0,1-.87.79A1.85,1.85,0,0,1,69,54.92Z"/><path class="cls-2" d="M75.75,54.92a2.54,2.54,0,0,1-1-.2,2.23,2.23,0,0,1-.81-.58,2.67,2.67,0,0,1-.55-.93A3.89,3.89,0,0,1,73.18,52a3.48,3.48,0,0,1,.21-1.28,2.82,2.82,0,0,1,.57-.94,2.36,2.36,0,0,1,.82-.58,2.25,2.25,0,0,1,1-.2,2,2,0,0,1,1,.21,3.26,3.26,0,0,1,.68.49l-.3.36a2.55,2.55,0,0,0-.61-.42,1.47,1.47,0,0,0-.74-.17,1.75,1.75,0,0,0-.81.18,1.92,1.92,0,0,0-.65.52,2.48,2.48,0,0,0-.43.8,3,3,0,0,0-.16,1,3.18,3.18,0,0,0,.14,1,2.48,2.48,0,0,0,.41.79,1.92,1.92,0,0,0,.65.52,1.94,1.94,0,0,0,.85.18,1.69,1.69,0,0,0,.83-.19,2.63,2.63,0,0,0,.68-.46l.28.37a3.71,3.71,0,0,1-.82.53A2.14,2.14,0,0,1,75.75,54.92Z"/><path class="cls-2" d="M80.07,54.92a2.3,2.3,0,0,1-.64-.09,1.57,1.57,0,0,1-.52-.29,1.38,1.38,0,0,1-.35-.48,1.68,1.68,0,0,1-.13-.7,1.56,1.56,0,0,1,.88-1.44,7.66,7.66,0,0,1,2.78-.71,4.74,4.74,0,0,0,0-.65,1.54,1.54,0,0,0-.2-.58,1.15,1.15,0,0,0-.41-.41,1.28,1.28,0,0,0-.69-.16,2.34,2.34,0,0,0-1,.22,5.77,5.77,0,0,0-.76.44l-.24-.39.37-.24a3.12,3.12,0,0,1,.49-.23,4.49,4.49,0,0,1,.59-.19,3,3,0,0,1,.66-.07,1.86,1.86,0,0,1,.84.17,1.59,1.59,0,0,1,.56.47,1.86,1.86,0,0,1,.3.69,3.55,3.55,0,0,1,.1.86v3.64h-.45l0-.74h0a6.29,6.29,0,0,1-.94.61A2.24,2.24,0,0,1,80.07,54.92Zm.1-.45a2,2,0,0,0,.94-.24,5.53,5.53,0,0,0,1-.68V51.61a12.39,12.39,0,0,0-1.48.26,3.74,3.74,0,0,0-1,.37,1.36,1.36,0,0,0-.53.48,1.21,1.21,0,0,0-.16.61,1.34,1.34,0,0,0,.1.52.75.75,0,0,0,.26.35,1.07,1.07,0,0,0,.38.2A1.49,1.49,0,0,0,80.17,54.47Z"/><path class="cls-2" d="M84.63,54.78V49.09h.45l0,1h0a2.73,2.73,0,0,1,.69-.86,1.38,1.38,0,0,1,.91-.33,1.51,1.51,0,0,1,.3,0,1,1,0,0,1,.27.1l-.12.47L87,49.46a1.22,1.22,0,0,0-.27,0,1.29,1.29,0,0,0-.79.32,2.59,2.59,0,0,0-.75,1.13v3.88Z"/><path class="cls-2" d="M90.13,54.92a2.12,2.12,0,0,1-1.71-.76A3.35,3.35,0,0,1,87.78,52,3.52,3.52,0,0,1,88,50.7a2.92,2.92,0,0,1,.55-1,2.35,2.35,0,0,1,.8-.59,2.28,2.28,0,0,1,1-.21,2.06,2.06,0,0,1,.91.18,4.57,4.57,0,0,1,.8.52l0-1V46.26h.52v8.52h-.45L92,54h0a3.45,3.45,0,0,1-.81.61A2.06,2.06,0,0,1,90.13,54.92Zm.07-.46a1.86,1.86,0,0,0,.9-.24,4.24,4.24,0,0,0,.88-.7V50.14a3.21,3.21,0,0,0-.85-.56,2.06,2.06,0,0,0-.81-.17,1.68,1.68,0,0,0-.79.2,1.9,1.9,0,0,0-.63.53,2.62,2.62,0,0,0-.43.81,3.37,3.37,0,0,0-.15,1,4.53,4.53,0,0,0,.12,1,2.83,2.83,0,0,0,.36.79,1.68,1.68,0,0,0,1.39.69Z"/><path class="cls-2" d="M10.46,54.76l-3-8.49h2l1.35,4.41.36,1.26c.12.43.24.86.35,1.3h.07c.13-.44.25-.87.36-1.3s.24-.85.37-1.26l1.35-4.41h1.92l-2.89,8.5Z"/><path class="cls-2" d="M18.21,55a2.5,2.5,0,0,1-1.82-.68,2.44,2.44,0,0,1-.69-1.81,2.49,2.49,0,0,1,.28-1.2,2.53,2.53,0,0,1,.9-.91,5.9,5.9,0,0,1,1.56-.64,14.46,14.46,0,0,1,2.26-.4,2.76,2.76,0,0,0-.1-.63,1.42,1.42,0,0,0-.26-.54,1.19,1.19,0,0,0-.47-.36,1.82,1.82,0,0,0-.73-.13,3.2,3.2,0,0,0-1.22.24,9.16,9.16,0,0,0-1.17.59L16,47.17a7.82,7.82,0,0,1,1.59-.78,5.59,5.59,0,0,1,1.9-.33A3,3,0,0,1,21.9,47a4.19,4.19,0,0,1,.79,2.73v5H21l-.14-.93h-.07a5.88,5.88,0,0,1-1.22.81A3.07,3.07,0,0,1,18.21,55Zm.64-1.56a1.83,1.83,0,0,0,.94-.24,5.59,5.59,0,0,0,.91-.69v-1.9a8.84,8.84,0,0,0-1.45.28,4,4,0,0,0-1,.39,1.27,1.27,0,0,0-.51.49,1.11,1.11,0,0,0-.16.59,1,1,0,0,0,.34.83,1.4,1.4,0,0,0,.89.25Z"/><path class="cls-2" d="M26.1,55a1.68,1.68,0,0,1-1.51-.64,3.08,3.08,0,0,1-.43-1.75v-10h2V52.69a.72.72,0,0,0,.14.51.4.4,0,0,0,.29.14h.13l.18,0,.26,1.49A2.67,2.67,0,0,1,26.1,55Z"/><path class="cls-2" d="M27.93,54.76V42.55h1.95v7.63h.05l3.15-3.91h2.19l-2.91,3.46,3.19,5H33.39l-2.18-3.68L29.88,52.6v2.16Z"/><path class="cls-2" d="M24.74,57.45a.64.64,0,0,1-.23-.05.44.44,0,0,1-.18-.12.41.41,0,0,1-.12-.2.58.58,0,0,1-.05-.26.59.59,0,0,1,.05-.27.51.51,0,0,1,.12-.2.52.52,0,0,1,.17-.13.45.45,0,0,1,.2,0,.52.52,0,0,1,.21,0,.33.33,0,0,1,.15.11.76.76,0,0,1,.09.18.67.67,0,0,1,0,.24v.11h-.83a.43.43,0,0,0,.12.31.34.34,0,0,0,.28.11.51.51,0,0,0,.17,0l.14-.06.07.13-.18.09A.78.78,0,0,1,24.74,57.45Zm-.38-.73H25a.51.51,0,0,0-.08-.29.35.35,0,0,0-.35-.07l-.1.07a.42.42,0,0,0-.08.12A.47.47,0,0,0,24.36,56.72Z"/><path class="cls-2" d="M25.6,57.42l.39-.63-.36-.58h.23l.16.26a.6.6,0,0,0,.06.11l.06.1h0l.05-.1.06-.11.14-.26h.21l-.36.6.39.61h-.22l-.18-.28L26.18,57l-.07-.11h0L26,57l-.06.12-.17.28Z"/><path class="cls-2" d="M27.62,57.45a.85.85,0,0,1-.23,0,.46.46,0,0,1-.18-.13.67.67,0,0,1-.12-.2.75.75,0,0,1,0-.26.59.59,0,0,1,.05-.27.72.72,0,0,1,.12-.21.76.76,0,0,1,.19-.12.57.57,0,0,1,.22,0,.52.52,0,0,1,.21,0l.15.1-.11.14a.28.28,0,0,0-.11-.08.31.31,0,0,0-.13,0,.4.4,0,0,0-.15,0,.29.29,0,0,0-.12.1.39.39,0,0,0-.08.14.62.62,0,0,0,0,.38.35.35,0,0,0,.35.27.28.28,0,0,0,.15,0,.57.57,0,0,0,.13-.08l.09.14a.87.87,0,0,1-.18.11A.54.54,0,0,1,27.62,57.45Z"/><path class="cls-2" d="M28.78,57.45a.2.2,0,0,1-.16-.07.3.3,0,0,1-.05-.21V55.64h.2v1.55a.1.1,0,0,0,0,.07.05.05,0,0,0,0,0h0l0,.15,0,0Z"/><path class="cls-2" d="M29.86,57.45a.35.35,0,0,1-.29-.12.73.73,0,0,1-.09-.35v-.77h.21V57a.45.45,0,0,0,0,.25.21.21,0,0,0,.18.07.24.24,0,0,0,.16-.05.57.57,0,0,0,.16-.15v-.86h.21v1.21h-.17l0-.19h0a.93.93,0,0,1-.18.16A.4.4,0,0,1,29.86,57.45Z"/><path class="cls-2" d="M31.47,57.45a.74.74,0,0,1-.25-.05.82.82,0,0,1-.2-.12l.1-.14a.59.59,0,0,0,.17.1.41.41,0,0,0,.19,0,.24.24,0,0,0,.18-.05.18.18,0,0,0,.06-.14.13.13,0,0,0,0-.08L31.63,57l-.09-.05-.1,0-.13,0a.59.59,0,0,1-.2-.16.31.31,0,0,1,0-.13.4.4,0,0,1,0-.15.39.39,0,0,1,.08-.1.35.35,0,0,1,.13-.08l.18,0a.52.52,0,0,1,.21,0,.51.51,0,0,1,.16.09l-.1.13-.12-.07-.15,0a.18.18,0,0,0-.16.05.14.14,0,0,0-.06.12.14.14,0,0,0,0,.07l.06.06.09,0,.1,0,.13,0,.12.07a.43.43,0,0,1,.09.1.34.34,0,0,1,0,.28.36.36,0,0,1-.08.12.71.71,0,0,1-.15.08A.58.58,0,0,1,31.47,57.45Z"/><path class="cls-2" d="M32.6,56a.14.14,0,0,1-.11-.22h0a.18.18,0,0,1,.2,0,.13.13,0,0,1,0,.19h0A.13.13,0,0,1,32.6,56Zm-.1,1.46V56.21h.2v1.21Z"/><path class="cls-2" d="M33.9,57.45a.59.59,0,0,1-.23-.05.44.44,0,0,1-.18-.12.53.53,0,0,1-.13-.2.75.75,0,0,1,0-.26.8.8,0,0,1,0-.27.53.53,0,0,1,.13-.2.37.37,0,0,1,.17-.13.58.58,0,0,1,.41,0,.44.44,0,0,1,.15.12.56.56,0,0,1,.09.17.66.66,0,0,1,0,.24v.06a.06.06,0,0,1,0,.06h-.81a.42.42,0,0,0,.12.3.38.38,0,0,0,.28.12.41.41,0,0,0,.16,0l.14-.07.08.14-.18.08A.59.59,0,0,1,33.9,57.45Zm-.38-.73h.64a.42.42,0,0,0-.07-.29.35.35,0,0,0-.35-.07l-.1.07a.42.42,0,0,0-.08.12.47.47,0,0,0,0,.17Z"/><path class="cls-2" d="M35,57.42V56.37h-.16v-.15H35V56a.53.53,0,0,1,.09-.3.34.34,0,0,1,.27-.1h.11l.09,0,0,.15a.32.32,0,0,0-.14,0c-.11,0-.17.08-.17.24v.19h.26v.16h-.26v1.05Z"/><rect class="cls-2" x="38.08" y="56.59" width="4.64" height="0.83"/></g></svg>