<svg id="Laag_1" data-name="Laag 1" xmlns="http://www.w3.org/2000/svg" viewBox="0 0 100 100"><defs><style>.cls-1{fill:#2b2b2b;}.cls-2{fill:#fff;}</style></defs><rect class="cls-1" width="100" height="100" rx="10.37"/><path class="cls-2" d="M33.87,23.52a5.19,5.19,0,0,0,.67.33A6.34,6.34,0,0,1,37,25.27a7.63,7.63,0,0,1,2.27,3.95,13.53,13.53,0,0,1,.28,4.91,8.61,8.61,0,0,1-1.13,3.54.32.32,0,0,0,.06.3,19.44,19.44,0,0,1,4.43,3.86,15.7,15.7,0,0,1,2.42,3.88,16,16,0,0,1,1,3.36,17.1,17.1,0,0,1,.26,2.47,17.47,17.47,0,0,1-.24,4.21,15.68,15.68,0,0,1-1,3.36c-.25.53-.5,1.06-.74,1.6-.08.17-.2.19-.38.18-.58,0-1.16-.06-1.73,0a.76.76,0,0,0-.79.87c0,.83,0,1.66,0,2.49a.74.74,0,0,1-.28.66l-1.65,1.38a1.11,1.11,0,0,1-.27.12,1.25,1.25,0,0,1-.08-.32c0-1.4,0-2.81,0-4.22a.85.85,0,0,0,0-.16c0-.17,0-.42-.22-.4s-.1.25-.1.38c0,1.37,0,2.73,0,4.1,0,.6,0,1.2,0,1.8,0,.23.08.32.31.32.77,0,1.54,0,2.31,0,.26,0,.31-.12.31-.35,0-1.9,0-3.8,0-5.71,0-.48.16-.65.63-.65h1.24c.39,0,.56.16.56.55V74.87c0,.39-.17.56-.55.56h-1.3c-.42,0-.59-.18-.59-.6V70.61c0-.42,0-.43-.42-.43H39.51c-.43,0-.45,0-.45.44v4.16c0,.56-.1.65-.67.65H37.22c-.41,0-.58-.17-.58-.58,0-4.37,0-8.74,0-13.12,0-1,.16-2.11.19-3.17a4.77,4.77,0,0,0-.19-1.23c0-.07-.21-.14-.32-.14-.3,0-.57,0-.7-.34,0,0,0-.06,0-.09A9.78,9.78,0,0,1,35.48,55a3.32,3.32,0,0,1,.62-1.15c.06-.09.27-.09.41-.12s.55-.1.89-.15a2.18,2.18,0,0,1-.22-.43,1.07,1.07,0,0,1,0-.56c.13-.39.31-.47.7-.36.14,0,.27.11.42.15l.52,0c-.41.23-.36.5-.32.8a.58.58,0,0,1-.14.36.35.35,0,0,0,0,.57.58.58,0,0,1,.14.43,1.79,1.79,0,0,0,.12,1.16.72.72,0,0,0,.9.2,1.92,1.92,0,0,1,.33-.14c0,.16.17.37.11.49a1.4,1.4,0,0,0-.06.7c0,.56,0,1.13.05,1.69a.34.34,0,0,1-.05.17h-.1c0-.39,0-.77-.05-1.16s0-.59,0-.88c0-.08-.08-.21-.13-.22-.26,0-.53,0-.77,0a2.92,2.92,0,0,0,.45,2.12,3.13,3.13,0,0,1,.15,1c0,.27,0,.53.06.79a.88.88,0,0,0,.16.3c.09-.09.22-.17.26-.28A2.38,2.38,0,0,0,40,60c.22.27.32.19.43,0,.41-.77.9-1.49,1.25-2.29a10.19,10.19,0,0,0,.7-2.3,16.69,16.69,0,0,0,.3-2.9,11.38,11.38,0,0,0-.43-3.11,12.34,12.34,0,0,0-2.41-4.76,12,12,0,0,0-3.3-2.84,11.53,11.53,0,0,0-4.1-1.47,1,1,0,0,0-1.24,1c-.06.93-.1,1.87-.1,2.8,0,3.87,0,7.74.06,11.61,0,1.12,0,2.24,0,3.37A1,1,0,0,1,30,60.15H27.73a.9.9,0,0,1-1-1q0-4.34-.05-8.68,0-10.83-.05-21.66c0-.52-.45-.76-1.05-.79s-1.18,0-1.77,0a1.39,1.39,0,0,1-1.49-1.49,14.41,14.41,0,0,0,0-1.61A1.28,1.28,0,0,1,23,23.7a.52.52,0,0,0,.15-.18ZM31.14,32c0,1.21,0,2.41,0,3.62,0,.28.09.39.37.36a9,9,0,0,0,1.28-.15,3.16,3.16,0,0,0,2.53-3.24,5.52,5.52,0,0,0-.53-2.69,3.58,3.58,0,0,0-1.29-1.52A3.06,3.06,0,0,0,31.63,28c-.48,0-.49,0-.49.5ZM37.8,58.36c0,.14,0,.21,0,.28a14.17,14.17,0,0,1-.28,1.73c-.09.34,0,.59.23.7a2,2,0,0,0,.85,0s.09-.12.09-.18c0-.57,0-1.13,0-1.7a.14.14,0,0,0,0-.09Z"/><path class="cls-2" d="M69.81,48.32V38a1.2,1.2,0,0,1,.79-1.33,1.7,1.7,0,0,1,.5-.09h1.83a1.2,1.2,0,0,1,1.28,1.28c0,1.7,0,3.41,0,5.11,0,.45,0,.49.44.51a5.45,5.45,0,0,0,3.74-1,4.08,4.08,0,0,0,1.5-3.06,7,7,0,0,0-.55-3.39,4.38,4.38,0,0,0-2.42-2.45,3.33,3.33,0,0,0-1.14-.2c-1.56,0-3.13,0-4.7,0a1.15,1.15,0,0,1-1.24-1.14c0-.7,0-1.41,0-2.11A1.16,1.16,0,0,1,71,28.94c2,0,4.1,0,6.16,0a5.77,5.77,0,0,1,2.15.66,6.93,6.93,0,0,1,2.14,1.53A7.59,7.59,0,0,1,83,33.36a11.39,11.39,0,0,1,1,4.09,14.85,14.85,0,0,1-.27,4.61A8.08,8.08,0,0,1,82,45.73a.76.76,0,0,0-.13.89c.19.51.3,1.05.45,1.57l.67,2.32c.21.74.41,1.48.62,2.21.35,1.23.71,2.46,1.06,3.69.2.69.4,1.38.58,2.08a1.23,1.23,0,0,1-1.29,1.63c-.66,0-1.32,0-2,0a1.2,1.2,0,0,1-1.26-1c-.32-1.23-.64-2.46-1-3.68-.4-1.45-.82-2.9-1.22-4.36-.2-.72-.39-1.45-.59-2.18a.8.8,0,0,0-.94-.66c-.59,0-1.18,0-1.77.06a.87.87,0,0,0-1,.94c0,3.16,0,6.31,0,9.47a1.31,1.31,0,0,1-1.32,1.37c-.59,0-1.18,0-1.77,0a1.27,1.27,0,0,1-1.32-1.41C69.82,55.24,69.81,51.78,69.81,48.32Z"/><path class="cls-2" d="M62.86,28.94c1.34,0,2.68,0,4,0a1.18,1.18,0,0,1,1.33,1.33c0,.56,0,1.13,0,1.7,0,.89-.4,1.32-1.29,1.32H63a1.11,1.11,0,0,0-1.15,1,2.93,2.93,0,0,0,0,.41v6.66c0,1,.39,1.34,1.34,1.34a15.47,15.47,0,0,1,1.8.06,1,1,0,0,1,.9,1.08c0,.65,0,1.31,0,2a1.2,1.2,0,0,1-1.26,1.29c-.56,0-1.12,0-1.68,0a1.05,1.05,0,0,0-1.1,1.08v6.44A1.12,1.12,0,0,0,63,55.71h3.92A1.15,1.15,0,0,1,68.2,57v1.83a1.13,1.13,0,0,1-1.08,1.26,1.72,1.72,0,0,1-.32,0H58.72a1.66,1.66,0,0,1-.59-.09.89.89,0,0,1-.63-.82v-.51q0-13.9,0-27.82c0-.33,0-.67,0-1a1.19,1.19,0,0,1,1.19-.93C60.11,28.93,61.49,28.94,62.86,28.94Z"/><path class="cls-2" d="M47.46,49.8c0-2.93,0-5.86,0-8.8a3,3,0,0,1,1.47-2.69,1.84,1.84,0,0,0,.87-1.6c.09-1.23.22-2.45.35-3.67.08-.72.21-1.43.3-2.15a.65.65,0,0,0-.09-.35c0-.06-.12-.12-.12-.18a10.29,10.29,0,0,1,0-1.36c0-.22.22-.34.47-.34h2.12a.58.58,0,0,1,.54.75,3.6,3.6,0,0,0,0,.57,4.51,4.51,0,0,1-.1.53,2.09,2.09,0,0,0-.11.53c.17,1.53.37,3.06.55,4.59.06.46.08.92.12,1.38a1.53,1.53,0,0,0,.77,1.22,3.22,3.22,0,0,1,1.61,2.86V58.72a1.39,1.39,0,0,1-1.41,1.43H48.88a1.3,1.3,0,0,1-1.42-1.44C47.45,55.73,47.46,52.77,47.46,49.8Zm4-19-.12,0a1.19,1.19,0,0,0-.11.26c-.11.62-.24,1.24-.3,1.87-.15,1.42-.26,2.86-.39,4.29a1.05,1.05,0,0,1-.06.24,1.7,1.7,0,0,1-.79.94,3.25,3.25,0,0,0-1.48,2.86c0,2.37,0,4.73,0,7.1,0,3.15,0,6.31,0,9.46a1.48,1.48,0,0,0,.51,1.17.82.82,0,0,0,.94.18c-.71-.39-.72-1-.72-1.72q0-8.11,0-16.21a3.29,3.29,0,0,1,1.57-2.94,1.62,1.62,0,0,0,.78-1.39c0-1.25.06-2.5.09-3.75,0-.62.06-1.24.09-1.85C51.49,31.09,51.48,30.93,51.48,30.77Z"/><path class="cls-2" d="M18.43,43.3a4,4,0,0,1,1.93,1A1.33,1.33,0,0,1,20.42,46,12.8,12.8,0,0,0,19,49.33a12.93,12.93,0,0,0-.27,5.36,12,12,0,0,0,1,3.24,12.5,12.5,0,0,0,3,4.17,11.55,11.55,0,0,0,3.14,2,.42.42,0,0,1,.3.45v3.65c0,.35,0,.35-.37.25A15.67,15.67,0,0,1,22.62,67a12.94,12.94,0,0,1-2.79-2.14,25.18,25.18,0,0,1-1.89-2.11,12.56,12.56,0,0,1-1.84-3.17,25.53,25.53,0,0,1-1-2.79,15.59,15.59,0,0,1-.47-2.88,21.72,21.72,0,0,1,.09-3.42,21.1,21.1,0,0,1,.58-2.8,15.88,15.88,0,0,1,1.53-3.63A1.53,1.53,0,0,1,18.43,43.3Z"/><path class="cls-2" d="M56.71,68.28c0-1.27,0-2.54,0-3.81a3.25,3.25,0,0,1,2.6-3.25,5.78,5.78,0,0,1,2-.16A3.45,3.45,0,0,1,64.75,64a5.59,5.59,0,0,1,.08.91c0,2.31,0,4.62,0,6.94a4.27,4.27,0,0,1-.46,1.91.44.44,0,0,0,.1.61c.42.43.83.86,1.22,1.32a.64.64,0,0,1,.12.52.62.62,0,0,1-.48.25c-.64,0-1.29,0-1.93,0a.69.69,0,0,1-.5-.26c-.42-.72-1-.73-1.78-.65A4.27,4.27,0,0,1,58,74.81a2.68,2.68,0,0,1-1.13-2c-.1-1.46-.08-2.92-.11-4.38v-.16Zm2.48.1h0c0,.68,0,1.35,0,2s0,1.26.05,1.89c0,.44.2.86.74.92a6.68,6.68,0,0,0,1.34.05c.4-.05.85-.17,1-.68a3.65,3.65,0,0,0,.09-.74q0-3.2,0-6.4c0-.38,0-.77,0-1.16a.88.88,0,0,0-.62-.8,2.74,2.74,0,0,0-1.7-.07,1,1,0,0,0-.8,1C59.18,65.74,59.19,67.06,59.19,68.38Z"/><path class="cls-2" d="M70.33,66.91c0,1.66,0,3.32,0,5a1.9,1.9,0,0,0,.09.68.92.92,0,0,0,.94.61c.46,0,1,0,1.18-.46a2.47,2.47,0,0,0,.23-1c0-3.3,0-6.61,0-9.91,0-.62.1-.72.74-.72h1c.55,0,.69.14.69.68v9.94a4,4,0,0,1-.6,2.24,3.08,3.08,0,0,1-2,1.41A4.3,4.3,0,0,1,70,75.21a3.1,3.1,0,0,1-2-2.55,10.7,10.7,0,0,1-.12-1.79q0-4.58,0-9.14c0-.42.2-.63.61-.63H69.7c.43,0,.63.2.63.64v5.17Z"/><path class="cls-2" d="M78.15,68.31c0-2.11,0-4.23,0-6.34a2.59,2.59,0,0,1,0-.47.43.43,0,0,1,.46-.35h6c.47,0,.59.14.6.61,0,.31,0,.63,0,.94,0,.57-.13.7-.68.7H81.06c-.43,0-.43,0-.43.44,0,1.21,0,2.42,0,3.62,0,.3.08.42.39.41.7,0,1.39,0,2.09,0a.56.56,0,0,1,.64.63v1c0,.55-.18.74-.73.73H81c-.25,0-.36.06-.36.33q0,1.17,0,2.34c0,.26.11.33.36.33,1.24,0,2.49,0,3.73,0,.49,0,.65.15.65.63v1c0,.46-.18.64-.65.64H78.77c-.39,0-.53-.11-.6-.5,0-.1,0-.21,0-.31Z"/><path class="cls-2" d="M47.36,68.28V61.72c0-.4.18-.57.59-.57h5.71a1.71,1.71,0,0,1,.32,0,.44.44,0,0,1,.44.5c0,.38,0,.77,0,1.16s-.13.57-.59.58H50.11c-.21,0-.31.08-.31.3v3.88c0,.25.13.29.34.29h2.12c.47,0,.66.19.66.67v1a.55.55,0,0,1-.63.63H50.17c-.27,0-.38.08-.37.36,0,.76,0,1.51,0,2.27,0,.3.11.38.39.37,1.23,0,2.46,0,3.7,0,.46,0,.62.16.62.62s0,.74,0,1.11a.47.47,0,0,1-.53.52H47.89c-.36,0-.53-.19-.53-.56V68.28Z"/><path class="cls-2" d="M26.52,68.37c0-1.28,0-2.56,0-3.85A3.49,3.49,0,0,1,30,61a3.65,3.65,0,0,1,3.18,1.48,3.88,3.88,0,0,1,.68,2c0,.28,0,.55,0,.82a.46.46,0,0,1-.48.51c-.48,0-.95,0-1.43,0s-.51-.16-.51-.56a2.55,2.55,0,0,0-.31-1.45,1.14,1.14,0,0,0-1.1-.54,1,1,0,0,0-.95.67,2.52,2.52,0,0,0-.16.76c0,2.41,0,4.81,0,7.22,0,.47.07,1,.57,1.21,1,.44,1.78,0,1.89-1,0-.33.05-.67.06-1s.11-.44.38-.46c.52,0,1,0,1.57,0a.48.48,0,0,1,.47.48A5.25,5.25,0,0,1,33.37,74a3.12,3.12,0,0,1-2.22,1.57,4.45,4.45,0,0,1-2.72-.24,3.13,3.13,0,0,1-1.49-1.43A3.84,3.84,0,0,1,26.52,72C26.54,70.77,26.52,69.57,26.52,68.37Z"/><path class="cls-2" d="M36.32,65.91c0,.62,0,1.24,0,1.86a.44.44,0,0,1-.33.49,14,14,0,0,1-4.3.89c-.71,0-1.42,0-2.13,0-.22,0-.29-.11-.29-.32V65.37c0-.21.08-.3.3-.29.43,0,.86,0,1.29,0,.21,0,.27.09.28.28a.78.78,0,0,0,.84.79c.47,0,.94,0,1.42,0a.77.77,0,0,0,.81-.84c-.06-.58.08-.93.71-1.06a5.51,5.51,0,0,0,1.08-.5c.24-.13.32-.06.32.2Q36.31,64.95,36.32,65.91Z"/></svg>