<svg id="Laag_1" data-name="Laag 1" xmlns="http://www.w3.org/2000/svg" viewBox="0 0 100 100"><defs><style>.cls-1{fill:#fff;}.cls-2{fill:#a8a8a7;}.cls-3{fill:#009ade;}.cls-4{fill:#002169;}.cls-5{fill:#002f87;}</style></defs><rect class="cls-1" x="0.5" y="0.5" width="99" height="99" rx="9.87"/><path class="cls-2" d="M89.63,1A9.38,9.38,0,0,1,99,10.37V89.63A9.38,9.38,0,0,1,89.63,99H10.37A9.38,9.38,0,0,1,1,89.63V10.37A9.38,9.38,0,0,1,10.37,1H89.63m0-1H10.37A10.4,10.4,0,0,0,0,10.37V89.63A10.41,10.41,0,0,0,10.37,100H89.63A10.41,10.41,0,0,0,100,89.63V10.37A10.4,10.4,0,0,0,89.63,0Z"/><path class="cls-3" d="M73.63,36.23c.68-4.36,0-7.32-2.36-10C68.67,23.26,64,22,58,22H40.58a2.5,2.5,0,0,0-2.46,2.1l-7.24,46a1.48,1.48,0,0,0,1.47,1.72H43.1l-.74,4.71A1.3,1.3,0,0,0,43.65,78H52.7a2.18,2.18,0,0,0,2.16-1.84l.08-.46,1.71-10.82.11-.6a2.18,2.18,0,0,1,2.15-1.84h1.36c8.77,0,15.64-3.56,17.65-13.87.84-4.31.4-7.9-1.81-10.43a8.6,8.6,0,0,0-2.48-1.91h0"/><path class="cls-4" d="M73.63,36.23c.68-4.36,0-7.32-2.36-10C68.67,23.26,64,22,58,22H40.58a2.5,2.5,0,0,0-2.46,2.1l-7.24,46a1.48,1.48,0,0,0,1.47,1.72H43.1l2.7-17.11-.09.54a2.49,2.49,0,0,1,2.45-2.11h5.11c10,0,17.88-4.07,20.18-15.86.07-.34.12-.68.18-1"/><path class="cls-5" d="M48.7,36.28a2.17,2.17,0,0,1,1.21-1.62,2.1,2.1,0,0,1,.94-.22H64.49a28.64,28.64,0,0,1,4.5.33l1.15.22c.37.08.73.18,1.08.28l.52.16a11.54,11.54,0,0,1,1.89.8c.68-4.36,0-7.32-2.36-10C68.67,23.26,64,22,58,22H40.58a2.5,2.5,0,0,0-2.46,2.1l-7.24,46a1.48,1.48,0,0,0,1.47,1.72H43.1l2.7-17.11Z"/></svg>