<svg id="Laag_1" data-name="Laag 1" xmlns="http://www.w3.org/2000/svg" viewBox="0 0 100 100"><defs><style>.cls-1{fill:#01003e;}.cls-2{fill:#fff;}.cls-3{fill:#ff004f;}</style></defs><rect class="cls-1" width="100" height="100" rx="10.37"/><g id="Ebene_2" data-name="Ebene 2"><g id="Layer_1" data-name="Layer 1"><polygon class="cls-2" points="25 36.6 25 28.35 33.24 28.35 37.2 24.39 21.04 24.39 21.04 40.56 25 36.6"/><polygon class="cls-2" points="62.27 24.39 66.23 28.35 75.1 28.35 75.1 72.11 50.62 72.11 46.66 76.08 79.06 76.08 79.06 24.39 62.27 24.39"/><path class="cls-3" d="M20.29,68.39l1.79,1.79A63.48,63.48,0,0,0,53.85,45.52a67.35,67.35,0,0,0,7.43-14.81l-8.5-8.51a4.7,4.7,0,0,0-6.64,0h0L13.44,54.89a4.69,4.69,0,0,0,0,6.64h0Z"/><path class="cls-2" d="M70.28,39.71l-7.09-7.09a68.79,68.79,0,0,1-7.32,14.25A65.68,65.68,0,0,1,24,72.08l7,7a4.73,4.73,0,0,0,6.66,0L70.28,46.36A4.7,4.7,0,0,0,70.28,39.71Zm-9.7,12.7L43.65,69.34a.72.72,0,0,1-1-.07.71.71,0,0,1,0-1L59.55,51.38a.72.72,0,0,1,1,.07A.73.73,0,0,1,60.58,52.41Z"/></g></g></svg>