<svg width="101" height="100" viewBox="0 0 101 100" fill="none" xmlns="http://www.w3.org/2000/svg">
<rect x="0.977509" width="100" height="100" rx="10" fill="#585FFF"/>
<path fill-rule="evenodd" clip-rule="evenodd" d="M25.6214 41.3756V73.9928C25.6214 74.9534 26.003 75.8748 26.6823 76.5541C27.3616 77.2334 28.283 77.6151 29.2437 77.6151H72.7114C73.6721 77.6151 74.5934 77.2334 75.2727 76.5541C75.9521 75.8748 76.3337 74.9534 76.3337 73.9928V45.0143C76.3337 44.0536 75.9521 43.1322 75.2727 42.4529C74.5934 41.7736 73.6721 41.392 72.7114 41.392H29.2437V41.3756H25.6214ZM29.2437 73.9928V45.0143H72.7114V50.4477H58.2221C57.2614 50.4477 56.3401 50.8294 55.6608 51.5087C54.9815 52.188 54.5998 53.1094 54.5998 54.0701V64.937C54.5998 65.8977 54.9815 66.819 55.6608 67.4983C56.3401 68.1777 57.2614 68.5593 58.2221 68.5593H72.7114V73.9928H29.2437ZM72.7114 54.0701V64.937H58.2221V54.0701H72.7114ZM65.4668 57.6923H61.8445V61.3146H65.4668V57.6923Z" fill="white"/>
<path d="M25.964 43.1701L65.2535 36.1418C67.474 35.7446 69.5137 37.4517 69.5137 39.7075V43.3554" stroke="white" stroke-width="3.62231"/>
<path fill-rule="evenodd" clip-rule="evenodd" d="M46.5259 34.8357H37.2503C36.5596 34.8357 36.2607 35.7103 36.8068 36.1331L48.2671 45.005H54.0708L65.5311 36.1331C66.0772 35.7103 65.7782 34.8357 65.0876 34.8357H57.6489C57.2306 34.8357 56.9007 34.4858 56.9017 34.0675C56.914 28.6697 53.614 19.2936 38.2277 17.6264C37.4464 17.5417 37.1085 18.698 37.7569 19.1419C41.4237 21.6523 46.4241 26.4787 47.2334 34.0618C47.2779 34.4786 46.9451 34.8357 46.5259 34.8357Z" fill="white"/>
</svg>
