<?xml version="1.0" encoding="utf-8"?>
<!-- Generator: Adobe Illustrator 25.4.0, SVG Export Plug-In . SVG Version: 6.00 Build 0)  -->
<svg version="1.1" id="Laag_1" xmlns="http://www.w3.org/2000/svg" xmlns:xlink="http://www.w3.org/1999/xlink" x="0px" y="0px"
	 viewBox="0 0 100 100" style="enable-background:new 0 0 100 100;" xml:space="preserve">
<style type="text/css">
	.st0{fill:#0080B9;}
	.st1{fill:#F80000;}
</style>
<path class="st0" d="M10.4,0h79.3C95.4,0,100,4.6,100,10.4v79.3c0,5.7-4.6,10.4-10.4,10.4H10.4C4.6,100,0,95.4,0,89.6V10.4
	C0,4.6,4.6,0,10.4,0z"/>
<path class="st1" d="M50,78.2h10.3c6,0,8.9-2.8,9-8.8c0.1-6.3,0.1-12.6,0-18.9c-0.1-5.9-3-8.8-9-8.8c-7-0.1-14.1-0.1-21.1,0
	c-5.1,0-8.3,2.9-8.5,8c-0.2,6.8-0.2,13.7,0,20.6c0.2,5.2,3.3,7.9,8.6,8L50,78.2z"/>
<path class="st1" d="M31.7,41.5c-0.8-10.1,6.8-18.8,16.8-19.6c0.5,0,0.9-0.1,1.4-0.1c10.6-0.1,19.2,9.1,18.4,19.5
	c-1.5-0.6-3-1.1-4.4-1.8c-0.3-0.1-0.5-0.7-0.6-1c-2.1-6.1-7-9.9-13.2-9.9s-11.2,3.7-13.3,9.9c-0.1,0.4-0.3,0.8-0.7,1
	C34.7,40.2,33.2,40.8,31.7,41.5z"/>
</svg>
