<svg width="100" height="100" viewBox="0 0 100 100" fill="none" xmlns="http://www.w3.org/2000/svg">
<rect width="100" height="100" rx="10" fill="black"/>
<path d="M18.1075 50.0015V59.9124H20.6913H23.2751V56.0901V52.2677H27.3548H31.4345V50.2734V48.2792H27.3548H23.2751V46.2547V44.2302H27.9894H32.7037V42.1604V40.0906H25.4056H18.1075V50.0015Z" fill="white"/>
<path d="M35.0609 50.0015V59.9124H37.6446H40.2284V50.0015V40.0906H37.6446H35.0609V50.0015Z" fill="white"/>
<path d="M43.7944 50.0015V59.9124H46.3782H48.962L48.968 56.3076L48.9771 52.7058L51.032 52.6968C52.3919 52.6907 53.1746 52.6998 53.3438 52.721C54.3592 52.8539 55.0482 53.4492 55.4018 54.5067C55.5982 55.0899 55.6677 55.5462 55.7916 56.9965C55.9276 58.6101 56.0425 59.2809 56.2661 59.7553L56.3386 59.9124H58.8922C60.2944 59.9124 61.4427 59.9033 61.4427 59.8943C61.4427 59.8852 61.4095 59.8339 61.3672 59.7795C61.0257 59.3323 60.793 58.1176 60.6721 56.1505C60.5905 54.8361 60.4666 54.0595 60.2158 53.2951C59.7746 51.9535 58.9889 51.0651 57.9675 50.7539C57.8496 50.7176 57.7559 50.6783 57.762 50.6632C57.768 50.6511 57.9251 50.5635 58.1155 50.4698C58.6051 50.2311 58.9587 49.9773 59.3455 49.5936C60.1463 48.7928 60.6479 47.7081 60.8081 46.436C60.8534 46.0643 60.8444 45.2243 60.793 44.8255C60.6782 43.9583 60.3699 43.1726 59.8804 42.5079C59.6477 42.1936 59.1249 41.686 58.7925 41.4503C57.9493 40.8581 56.94 40.4532 55.8067 40.2537C54.9394 40.1027 55.2537 40.1087 49.3337 40.0996L43.7944 40.0876V50.0015ZM53.9905 44.3299C55.2114 44.6623 55.7705 45.4388 55.6677 46.6596C55.6164 47.279 55.432 47.7111 55.0694 48.0677C54.7067 48.4303 54.3109 48.5995 53.6823 48.672C53.4889 48.6931 52.6397 48.7022 51.1831 48.6962L48.9771 48.6871L48.968 46.4571L48.962 44.2272L51.3251 44.2362L53.6914 44.2483L53.9905 44.3299Z" fill="white"/>
<path d="M69.2273 40.1148C69.2183 40.1268 68.0034 43.3751 66.5257 47.3304C65.0449 51.2827 63.3858 55.7214 62.8358 57.1899C62.2858 58.6584 61.8356 59.8701 61.8356 59.8852C61.8356 59.9003 62.9597 59.9094 64.4828 59.9064L67.1301 59.8973L67.7435 58.1538C68.082 57.196 68.3661 56.3983 68.3782 56.3801C68.3902 56.356 69.4147 56.3469 71.8353 56.3469H75.2773L75.4587 56.8666C75.5554 57.1537 75.8334 57.9574 76.0721 58.6494L76.5043 59.9124H79.1999H81.8924L81.4966 58.8458C81.279 58.2626 79.6108 53.8027 77.7916 48.9349L74.4826 40.0906H71.8625C70.421 40.0906 69.2364 40.1027 69.2273 40.1148ZM72.9595 49.0346C73.5548 50.9201 74.0444 52.4822 74.0444 52.5004C74.0444 52.5306 73.576 52.5397 71.8051 52.5397H69.5688L69.59 52.4702C69.599 52.4339 70.1037 50.8778 70.7081 49.0104C71.3125 47.143 71.8081 45.6081 71.8081 45.602C71.8081 45.593 71.8232 45.5899 71.8413 45.596C71.8595 45.602 72.3641 47.1491 72.9595 49.0346Z" fill="white"/>
</svg>
