<svg width="100" height="100" viewBox="0 0 100 100" fill="none" xmlns="http://www.w3.org/2000/svg">
<rect width="100" height="100" rx="10" fill="#D8BE99"/>
<path d="M84.8758 62.8738L79.1484 26.9662C79.0294 26.2268 78.6541 25.5526 78.0886 25.0608C77.5232 24.5689 76.8031 24.2906 76.054 24.2742C75.8786 24.2559 75.7022 24.2538 75.5268 24.2678L17.8484 33.452C17.0915 33.5579 16.3978 33.9315 15.893 34.5047C15.3882 35.078 15.1059 35.8131 15.0973 36.5766C15.0844 36.7592 15.0822 36.9424 15.0906 37.1253L20.8177 73.0328C20.938 73.7778 21.3179 74.4568 21.8903 74.9493C22.4626 75.4418 23.1908 75.7165 23.9462 75.7252C24.1249 75.7442 24.305 75.7465 24.4842 75.7317L82.2194 66.5147C82.963 66.3948 83.6411 66.017 84.1336 65.4475C84.6266 64.878 84.9031 64.1533 84.9141 63.4007C84.9164 63.2243 84.9035 63.048 84.8758 62.8738ZM80.4363 27.0826L82.7779 41.883L81.9184 29.6654C81.8935 29.1484 81.7463 28.6448 81.4887 28.1958C81.2311 27.7468 80.8702 27.3653 80.4363 27.0826ZM18.0916 70.4235C18.133 70.9303 18.289 71.4209 18.5477 71.8585C18.8065 72.2961 19.1613 72.6695 19.5854 72.9506L17.2319 58.2059L18.0916 70.4235ZM56.9531 71.8054L80.6389 70.135C81.4015 70.0708 82.1197 69.7491 82.6745 69.2224C83.2289 68.6957 83.5875 67.9957 83.69 67.2381C83.2649 67.5067 82.7899 67.6875 82.2932 67.7697L56.9531 71.8054ZM43.0577 28.2162L19.3715 29.9091C18.6065 29.9632 17.8844 30.2821 17.3295 30.811C16.7747 31.3398 16.4218 32.0454 16.3316 32.8062C16.7551 32.5338 17.2308 32.3527 17.7283 32.2745L43.0577 28.2162Z" fill="#5B841A"/>
<path d="M30.1787 45.4849L31.2254 51.5677L29.4731 51.8487C29.1792 51.9015 28.8776 51.8951 28.5862 51.8299C28.2948 51.7647 28.0193 51.642 27.7761 51.469C27.5328 51.2959 27.3265 51.0761 27.1694 50.8223C27.0123 50.5686 26.9076 50.286 26.8613 49.9913L26.2248 46.1198C23.8207 43.9203 21.809 41.328 20.2759 38.454L22.2979 38.1203C22.7676 38.0023 23.2611 38.0194 23.7215 38.1697C24.1819 38.32 24.5903 38.5973 24.8996 38.9697C25.799 40.2819 26.8037 41.5189 27.9037 42.6685C28.812 40.845 29.4477 38.8982 29.7904 36.8904L31.6887 36.5888C32.054 36.4975 32.4406 36.5546 32.7639 36.7474C33.0872 36.9403 33.3209 37.2532 33.4137 37.6178C33.5669 38.8404 31.2763 43.7289 30.1787 45.4849ZM39.509 37.8938C40.2963 37.7538 41.1038 37.7725 41.8837 37.9488C42.6637 38.1252 43.4006 38.4555 44.0509 38.9205C44.7012 39.3855 45.2518 39.9757 45.6704 40.6565C46.089 41.3372 46.3671 42.0947 46.4883 42.8844C47.1146 46.6774 45.2193 49.4877 41.2203 50.1443C40.4414 50.2967 39.6397 50.2906 38.8632 50.1266C38.0867 49.9625 37.3512 49.6438 36.7007 49.1895C36.0502 48.7352 35.498 48.1547 35.077 47.4825C34.6561 46.8103 34.3751 46.0602 34.2507 45.2771C34.0693 44.4435 34.0641 43.5813 34.2355 42.7457C34.4069 41.91 34.7511 41.1193 35.2461 40.4243C35.7411 39.7292 36.376 39.1451 37.1101 38.7094C37.8442 38.2736 38.6613 37.9959 39.509 37.8938ZM39.7727 41.0889C39.1557 41.2938 38.6419 41.7288 38.3382 42.3031C38.0346 42.8773 37.9647 43.5466 38.1431 44.1712C38.5081 46.4154 39.552 47.2234 40.9561 46.9941C42.3602 46.7649 42.8578 45.4943 42.5859 43.8895C42.2526 41.8135 41.1656 40.8595 39.7727 41.0889ZM55.2499 47.8743C51.4981 48.4893 49.1509 46.9935 48.5793 43.3132L47.5362 36.9392L49.0976 36.6784C50.8387 36.3972 51.6963 36.8556 51.9885 38.6287L52.6669 42.7472C52.9375 44.4527 53.8296 44.8444 54.8856 44.6669C55.9415 44.4894 56.5099 43.8469 56.2071 42.0177L55.1635 35.6773L56.7248 35.4276C58.3312 35.1673 59.3225 35.6945 59.5934 37.3777L60.2717 41.4961C60.877 45.1769 58.7996 47.2906 55.2499 47.8743ZM68.8172 36.6505C68.3413 36.5493 67.8497 36.5433 67.3715 36.6328C66.4054 36.789 65.7255 37.3967 65.954 38.8554L67.0913 45.7792L65.9683 45.9559C65.6036 46.0711 65.2173 46.1005 64.8392 46.0415C64.4612 45.9826 64.1021 45.837 63.79 45.6163C63.4775 45.3955 63.2209 45.1055 63.0395 44.769C62.8581 44.4325 62.7575 44.0586 62.745 43.6767L61.9211 38.6493C61.8029 38.0953 61.8024 37.5227 61.9192 36.9685C62.0365 36.4143 62.2682 35.8907 62.6001 35.4316C62.9324 34.9724 63.3571 34.5878 63.8468 34.3027C64.3366 34.0175 64.8808 33.838 65.4444 33.7759C67.444 33.4419 68.5121 34.1158 68.6782 35.1817L68.9293 36.6631L68.8172 36.6505ZM49.0737 67.0839C48.0877 67.2819 47.0716 67.277 46.0876 67.0695C45.1035 66.8621 44.1722 66.4563 43.3503 65.8772C42.5285 65.298 41.8336 64.5575 41.3079 63.7009C40.7822 62.8444 40.4368 61.8898 40.2929 60.8954C39.5834 56.575 42.1317 52.6192 47.2539 51.7858C50.1183 51.3169 51.8073 52.547 52.0789 54.1742L52.319 55.6219L52.207 55.6205C50.8394 54.8757 49.2425 54.6685 47.7298 55.0394C47.175 55.1068 46.6405 55.2896 46.1607 55.5759C45.6809 55.8622 45.2664 56.2457 44.944 56.7018C44.6216 57.1578 44.3984 57.6763 44.2888 58.2238C44.1792 58.7713 44.1855 59.3356 44.3075 59.8805C44.8186 63.0114 46.7671 64.0991 48.9351 63.7448C50.0585 63.5569 50.0633 63.165 50.0697 62.6387L49.7979 61.0227C49.6866 60.3477 49.4874 59.6902 49.2053 59.0668L51.2385 58.7333C51.4914 58.6778 51.7533 58.6765 52.0068 58.7292C52.2604 58.7819 52.4999 58.8876 52.7097 59.0392C52.9196 59.1909 53.095 59.3851 53.2244 59.6092C53.3539 59.8333 53.4345 60.0822 53.4609 60.3395L53.7848 62.2809C54.1251 64.7041 52.8817 66.4584 49.0737 67.0839ZM56.679 52.9425C56.4072 53.0136 56.1235 53.0271 55.8461 52.9823C55.5687 52.9374 55.3038 52.8352 55.0682 52.6822C54.8327 52.5291 54.6318 52.3287 54.4782 52.0935C54.3248 51.8584 54.2221 51.5939 54.1769 51.3168C54.1317 51.0398 54.1449 50.7564 54.2156 50.4847C54.2864 50.2131 54.4132 49.9592 54.5878 49.7393C54.7625 49.5194 54.9812 49.3384 55.23 49.2079C55.4787 49.0774 55.752 49.0002 56.0324 48.9813C56.5582 48.8956 57.0965 49.0222 57.529 49.333C57.9614 49.6439 58.2526 50.1137 58.3383 50.639C58.424 51.1643 58.2974 51.7021 57.9862 52.1341C57.6751 52.5661 57.2048 52.8569 56.679 52.9425ZM60.6009 65.0184C60.0963 65.168 59.5641 65.2006 59.0449 65.1139C58.5257 65.0272 58.0331 64.8234 57.6046 64.5181C57.176 64.2127 56.8228 63.8137 56.5716 63.3516C56.3205 62.8894 56.1782 62.3761 56.1554 61.8507L54.914 54.2649L55.9026 54.0978C58.1493 53.7221 59.0172 54.259 59.3724 56.38L60.0604 60.6329C60.2383 61.6655 60.7735 61.9072 61.8855 61.7191L62.3688 61.6355L62.5677 62.7578C62.8198 64.1832 61.8477 64.8209 60.6009 65.0184ZM69.4565 50.3885C68.8518 50.258 68.2263 50.2504 67.6184 50.366C66.675 50.5225 66.1063 51.1763 66.2212 51.8721L66.4511 53.2412L69.102 52.8032L69.3425 54.2508C69.4671 55.0363 68.832 55.6557 67.8206 55.8226L66.8997 55.9793L68.1516 63.6101L66.9274 63.8079C65.0289 64.1207 64.1284 63.5162 63.8468 61.7656L62.5317 53.7869C61.8541 49.6237 64.1713 48.0617 66.362 47.6965C68.3164 47.3844 69.2137 48.2465 69.4122 49.4472L69.5691 50.3787L69.4565 50.3885ZM71.4007 49.1019C71.9246 48.5405 72.6114 48.1573 73.3647 48.006L73.7802 47.9439L74.239 50.7605L77.609 50.2081L77.8384 51.6108C77.8652 52.1002 77.7101 52.5822 77.4036 52.9647C77.0971 53.3473 76.66 53.6036 76.1763 53.6848L74.7384 53.9136L75.4276 58.0993C75.4317 58.2736 75.477 58.4445 75.5591 58.5984C75.6413 58.7522 75.7581 58.8848 75.9007 58.9855C76.0429 59.0862 76.2072 59.1523 76.3798 59.1785C76.5525 59.2047 76.7283 59.1903 76.8945 59.1363C77.5153 59.0779 78.1172 58.8907 78.6615 58.5868L78.7621 58.588L79.0233 60.1479C79.1798 61.1129 78.4385 62.1454 76.3604 62.4896C75.8167 62.6353 75.2476 62.6588 74.6936 62.5587C74.1402 62.4585 73.6154 62.2371 73.1575 61.9103C72.6996 61.5835 72.3197 61.1594 72.0451 60.6686C71.7709 60.1777 71.6089 59.6322 71.5701 59.0713L70.4258 51.8114C70.3635 51.315 70.4193 50.8109 70.5888 50.3401C70.7582 49.8693 71.0365 49.4451 71.4007 49.1019Z" fill="white"/>
</svg>
