<svg id="Laag_1" data-name="Laag 1" xmlns="http://www.w3.org/2000/svg" xmlns:xlink="http://www.w3.org/1999/xlink" viewBox="0 0 100 100"><defs><style>.cls-1,.cls-10{fill:none;}.cls-2{clip-path:url(#clip-path);}.cls-3{fill:url(#Naamloos_verloop_46);}.cls-4{fill:url(#Naamloos_verloop_39);}.cls-5{fill:url(#Naamloos_verloop_26);}.cls-6{fill:url(#Naamloos_verloop_16);}.cls-7{fill:url(#Naamloos_verloop_13);}.cls-8{fill:url(#Naamloos_verloop_32);}.cls-9{fill:#fff;}.cls-10{stroke:#252e86;stroke-linecap:round;stroke-linejoin:round;stroke-width:6px;}</style><clipPath id="clip-path"><rect class="cls-1" width="100" height="100" rx="10.37"/></clipPath><linearGradient id="Naamloos_verloop_46" x1="75.66" y1="101.31" x2="75.66" y2="-1.31" gradientUnits="userSpaceOnUse"><stop offset="0" stop-color="#223782"/><stop offset="1" stop-color="#0093d3"/></linearGradient><linearGradient id="Naamloos_verloop_39" x1="72.84" y1="101.31" x2="72.84" y2="57.13" gradientUnits="userSpaceOnUse"><stop offset="0" stop-color="#61cdf5"/><stop offset="1" stop-color="#32a1d5"/></linearGradient><linearGradient id="Naamloos_verloop_26" x1="-0.03" y1="64.39" x2="29.5" y2="93.91" gradientUnits="userSpaceOnUse"><stop offset="0" stop-color="#005fbe"/><stop offset="1" stop-color="#0d9fd1"/></linearGradient><linearGradient id="Naamloos_verloop_16" x1="-5.5" y1="7.29" x2="42.8" y2="55.59" gradientUnits="userSpaceOnUse"><stop offset="0" stop-color="#f65f00"/><stop offset="1" stop-color="#fdb700"/></linearGradient><linearGradient id="Naamloos_verloop_13" x1="36.27" y1="-8.13" x2="63.73" y2="19.33" gradientUnits="userSpaceOnUse"><stop offset="0" stop-color="#811c85"/><stop offset="1" stop-color="#ae2078"/></linearGradient><linearGradient id="Naamloos_verloop_32" x1="48.83" y1="101.31" x2="48.83" y2="57.13" gradientUnits="userSpaceOnUse"><stop offset="0" stop-color="#009d23"/><stop offset="1" stop-color="#7eb500"/></linearGradient></defs><g class="cls-2"><polygon class="cls-3" points="62.33 -1.31 100.66 -1.11 100.66 101.31 84.29 101.31 62.33 55 50.66 21.74 62.33 -1.31"/><polygon class="cls-4" points="63.92 57.13 66.55 63.13 88.7 101.31 72.74 101.31 56.98 72.82 63.92 57.13"/><polygon class="cls-5" points="-0.18 64.54 -4.4 98.89 22.09 101.31 40.36 69.89 29.38 54.91 -0.18 64.54"/><path class="cls-6" d="M41.77-1.31H3.1L-1.4,8.32V67.26s13.7,9,21.59,7.2c12.69-2.93,15-17.71,15-17.71L47.59,23.53Z"/><polygon class="cls-7" points="29.38 -1.25 47.22 30.47 52.6 30.47 70.62 -1.44 29.38 -1.25"/><polygon class="cls-8" points="43.27 57.13 22.09 101.31 75.56 101.31 56.04 65.76 43.27 57.13"/></g><path class="cls-9" d="M78,21.46H72l0,0-22,0-22,0,0,0H22c-4.24-.06-7.82,6.18-5.64,9.81l3,5.22h-.14l25,43.32c1,1.88,3.43,2.8,5.79,2.76s4.74-.88,5.79-2.76L80.74,36.49H80.6l3-5.22C85.8,27.64,82.22,21.4,78,21.46Z"/><line class="cls-10" x1="23.79" y1="29.16" x2="33.42" y2="46.74"/><line class="cls-10" x1="43.38" y1="29.16" x2="33.75" y2="46.74"/><line class="cls-10" x1="56.62" y1="29.16" x2="66.25" y2="46.74"/><line class="cls-10" x1="76.21" y1="29.16" x2="66.58" y2="46.74"/><line class="cls-10" x1="40.22" y1="57.26" x2="49.86" y2="74.84"/><line class="cls-10" x1="59.81" y1="57.26" x2="50.18" y2="74.84"/></svg>