<svg width="100" height="100" viewBox="0 0 100 100" fill="none" xmlns="http://www.w3.org/2000/svg">
<rect width="100" height="100" rx="10" fill="#17223C"/>
<rect x="21.5928" y="20.234" width="56.8145" height="59.397" fill="white"/>
<path fill-rule="evenodd" clip-rule="evenodd" d="M47.9029 2.81543C49.336 2.81543 50.7689 2.81543 52.202 2.81543C66.961 3.80702 78.862 10.1333 87.905 21.7941C93.5719 29.5853 96.6652 38.2883 97.1846 47.9029C97.1846 49.301 97.1846 50.6991 97.1846 52.0971C96.1695 67.48 89.4588 79.6956 77.0525 88.7438C69.5412 93.8515 61.2576 96.665 52.202 97.1846C50.7689 97.1846 49.336 97.1846 47.9029 97.1846C32.6521 96.1515 20.4715 89.5107 11.3611 77.2622C6.17822 69.6651 3.32967 61.2767 2.81543 52.0971C2.81543 50.6991 2.81543 49.301 2.81543 47.9029C3.97568 31.6513 11.3155 19.0163 24.8349 9.99797C31.9278 5.647 39.6172 3.25282 47.9029 2.81543ZM26.0932 26.3029C31.5108 26.2854 36.9282 26.3029 42.3456 26.3553C44.9294 28.1032 46.6244 30.4975 47.4311 33.5378C48.3782 39.1578 46.5433 43.6142 41.9262 46.9068C40.2556 47.953 38.4381 48.5822 36.4738 48.7942C33.0138 48.8466 29.5536 48.8641 26.0932 48.8466C26.0932 41.332 26.0932 33.8175 26.0932 26.3029ZM59.3321 26.3029C66.3579 25.6483 70.6744 28.759 72.2816 35.6349C72.3417 36.0908 72.4117 36.5452 72.4913 36.998C72.6413 40.6654 72.6937 44.3354 72.6486 48.0078C71.5991 47.5354 70.5157 47.1334 69.3981 46.8019C65.2788 45.6674 61.2244 44.3392 57.235 42.8175C54.1155 41.7254 52.0708 39.6109 51.101 36.4738C50.3571 32.1195 51.9823 29.0263 55.9767 27.1941C57.0827 26.7955 58.2012 26.4984 59.3321 26.3029ZM49.8952 46.0155C51.812 47.7093 53.9441 49.0899 56.2913 50.1573C59.5548 51.3491 62.8752 52.3626 66.2525 53.1981C72.4855 55.1944 74.9146 59.406 73.5399 65.8331C71.9729 71.0514 68.4603 73.7078 63.002 73.802C56.5198 73.4201 52.2732 70.1346 50.2622 63.9457C49.8246 62.3145 49.6324 60.6543 49.6855 58.9651C49.7686 54.6486 49.8385 50.3322 49.8952 46.0155ZM26.0932 51.6777C29.3439 51.6602 32.5944 51.6777 35.8446 51.7301C41.3667 52.4301 45.089 55.3835 47.0117 60.5903C48.1774 64.8974 47.4084 68.812 44.7049 72.3341C44.4388 72.6352 44.1418 72.8973 43.8136 73.1205C37.9038 73.2066 31.997 73.189 26.0932 73.068C26.0932 65.9379 26.0932 58.8078 26.0932 51.6777Z" fill="#17223C"/>
</svg>
