<?xml version="1.0" encoding="utf-8"?>
<!-- Generator: Adobe Illustrator 27.9.0, SVG Export Plug-In . SVG Version: 6.00 Build 0)  -->
<svg version="1.1" id="Laag_1" xmlns="http://www.w3.org/2000/svg" xmlns:xlink="http://www.w3.org/1999/xlink" x="0px" y="0px"
	 viewBox="0 0 100 100" style="enable-background:new 0 0 100 100;" xml:space="preserve">
<style type="text/css">
	.st0{fill:#FFFFFF;}
	.st1{fill:#E3E3E3;}
	.st2{fill:#AD1375;}
	.st3{fill:#454545;}
</style>
<g>
	<g>
		<path class="st0" d="M10,99.5c-5.2,0-9.5-4.3-9.5-9.5V10.1c0-5.2,4.3-9.5,9.5-9.5h80c5.2,0,9.5,4.3,9.5,9.5V90
			c0,2.5-1,4.9-2.8,6.7c-1.8,1.8-4.2,2.8-6.7,2.8H10z"/>
		<path class="st1" d="M90,1.1c5,0,9,4,9,9V90c0,2.4-0.9,4.7-2.6,6.4S92.4,99,90,99H10c-5,0-9-4-9-9V10.1c0-5,4-9,9-9L90,1.1
			 M90,0.1H10c-5.5,0-10,4.5-10,10V90c0,5.5,4.5,10,10,10h80c5.5,0,10-4.5,10-10V10.1C100,4.6,95.5,0.1,90,0.1L90,0.1z"/>
	</g>
	<g>
		<path class="st2" d="M84.9,55.4c-0.1-0.9-0.1-2.5-0.4-4.1c-1.2-8.1-5.1-14.9-10.5-20.9c-0.8-0.9-1.8-1.2-3-1.1
			c-1.4,0.2-2.4,1-2.9,2.3c-0.5,1.4-0.3,2.7,0.7,3.8c2,2.2,3.8,4.6,5.2,7.2c2.4,4.3,3.7,9,3.6,13.9c0,2.7-0.5,5.4-1.2,8.1
			c-0.6,2.1,0.6,4,2.5,4.6c2,0.5,3.9-0.6,4.5-2.6C84.3,63.2,84.8,59.8,84.9,55.4z M71.1,56.6c0-2.7-0.3-4.8-0.9-6.7
			c-1.2-4.1-3.7-7.4-6.8-10.2c-1.5-1.4-3.8-1.3-5.1,0.2c-1.4,1.5-1.3,3.7,0.2,5.1c0.4,0.4,0.8,0.8,1.3,1.2c2.2,2.2,3.6,4.8,4,8
			c0.3,2.4-0.1,4.8-0.8,7.1c-0.2,0.6-0.3,1.3-0.2,2c0.2,1.7,1.5,3,3.2,3.1c1.6,0.2,3.2-0.8,3.8-2.5C70.6,61.2,71.1,58.6,71.1,56.6z"
			/>
		<path class="st3" d="M38.4,23.7c1.1,0.2,2.2,0.3,3.3,0.6c3.9,0.9,7.4,2.6,9.9,5.9c1.3,1.7,2.2,3.7,2.2,5.9c0,3.2-2.7,5.3-5.7,4.7
			c-0.9-0.2-1.6-0.7-2.1-1.4c-0.6-0.8-1.1-1.7-1.6-2.6c-0.6-0.9-1.2-1.9-1.9-2.8c-1.1-1.5-2.6-2.4-4.5-2.7c-2.8-0.5-5.5-0.5-8.2,0.6
			c-0.8,0.4-1.7,0.9-2.3,1.5c-2.4,2.2-2.2,5.4,0.4,7.3c1.3,1,2.7,1.6,4.3,2c3.5,1,7,1.8,10.6,2.8c2.7,0.8,5.3,1.8,7.7,3.3
			c3.4,2.3,5.3,5.4,5.6,9.5c0.3,3.3-0.2,6.5-2,9.4c-1.8,3-4.5,5.1-7.7,6.5c-4.1,1.8-8.4,2.2-12.9,1.9c-3.6-0.2-7.1-0.9-10.2-2.6
			c-3.9-2.2-6.5-5.4-7.8-9.7c-0.3-1.1-0.5-2.3-0.2-3.5c0.4-1.9,1.6-3.1,3.4-3.5c1.9-0.4,3.5,0.1,4.6,1.7c0.5,0.8,1,1.7,1.4,2.6
			c0.4,0.9,0.8,1.8,1.3,2.6c1.4,2.6,3.7,4.2,6.6,4.6c2.9,0.5,5.8,0.3,8.5-0.9c2-0.9,3.6-2.3,4.3-4.5c0.8-2.5,0-4.9-2-6.6
			c-1.4-1.2-3.2-1.8-4.9-2.2c-2.9-0.8-5.8-1.5-8.7-2.3c-2.7-0.8-5.4-1.7-7.8-3.3c-8.2-5.1-7.6-17.2,0.4-21.9c2.9-1.7,6.1-2.6,9.5-3
			c0.2,0,0.4-0.1,0.6-0.1C34.5,23.7,36.4,23.7,38.4,23.7z"/>
		<path class="st2" d="M84.9,55.4c0,4.3-0.5,7.8-1.5,11.2c-0.6,2-2.5,3.1-4.5,2.6c-2-0.5-3.1-2.5-2.5-4.6c0.7-2.6,1.2-5.3,1.2-8.1
			c0.1-5-1.2-9.6-3.6-13.9c-1.5-2.6-3.3-5-5.2-7.2c-1-1.1-1.2-2.4-0.7-3.8c0.5-1.3,1.5-2.1,2.9-2.3c1.2-0.2,2.2,0.2,3,1.1
			c5.5,6,9.3,12.8,10.5,20.9C84.7,52.9,84.8,54.6,84.9,55.4z"/>
		<path class="st2" d="M71.1,56.6c0,2-0.5,4.7-1.3,7.3c-0.6,1.7-2.1,2.7-3.8,2.5c-1.7-0.2-3-1.4-3.2-3.1c-0.1-0.6,0.1-1.3,0.2-2
			c0.7-2.3,1-4.7,0.8-7.1c-0.4-3.1-1.8-5.7-4-8c-0.4-0.4-0.8-0.8-1.3-1.2c-1.5-1.4-1.6-3.7-0.2-5.1c1.4-1.5,3.6-1.6,5.1-0.2
			c3.2,2.8,5.6,6.1,6.8,10.2C70.8,51.8,71.1,53.8,71.1,56.6z"/>
	</g>
</g>
</svg>
