<svg id="Laag_1" data-name="Laag 1" xmlns="http://www.w3.org/2000/svg" viewBox="0 0 100 100"><defs><style>.cls-1{fill:#dd0080;}.cls-2{fill:#fff;}.cls-3{fill:none;stroke:#fff;stroke-miterlimit:10;stroke-width:6.1px;}</style></defs><rect class="cls-1" width="100" height="100" rx="10.37"/><path class="cls-2" d="M65.17,46.4l-4.06,1.17c-.14-.24-.27-.45-.38-.66a4,4,0,0,0-3.83-2.49c-1.82.13-2.93,1.45-3.57,3.09a6.25,6.25,0,0,0,.6,6c1.65,2.5,4.51,2.56,6.35.2.29-.38.51-.82.83-1.32l4,1.14a8.3,8.3,0,0,1-13.59,3.6c-4.41-3.81-4.16-12.73,2-15.68A8.34,8.34,0,0,1,65.17,46.4Z"/><path class="cls-2" d="M47.49,41.07V44.9c-2.36,0-4.65.08-6.93,0-1.37-.07-1.5.57-1.48,1.66s.07,1.83,1.46,1.72c1.2-.1,2.42,0,3.71,0v3.5H41.73c-3,0-2.59-.32-2.63,2.7,0,1.32,0,2.64,0,4a2.52,2.52,0,0,1-.12.51H34.83V41.07Z"/><circle class="cls-3" cx="50" cy="50" r="31.5"/></svg>