<svg id="Laag_1" data-name="Laag 1" xmlns="http://www.w3.org/2000/svg" xmlns:xlink="http://www.w3.org/1999/xlink" viewBox="0 0 100 100"><defs><style>.cls-1{fill:#0f1110;}.cls-2{fill:#fff;}.cls-3{fill:url(#Naamloos_verloop_2);}</style><linearGradient id="Naamloos_verloop_2" x1="9" y1="1267.98" x2="91" y2="1267.98" gradientTransform="matrix(1, 0, 0, -1, 0, 1316.09)" gradientUnits="userSpaceOnUse"><stop offset="0" stop-color="#b99956"/><stop offset="1" stop-color="#d2bd94"/></linearGradient></defs><rect class="cls-1" width="100" height="100" rx="10.37"/><path class="cls-2" d="M22.52,63.6h1v.27c0,.73-.38,1.15-.85,1.15s-.85-.61-.85-1.81.27-1.85.93-1.85c.35,0,.58.27.58.69v.12h.5a1.3,1.3,0,0,0-.11-.62,1,1,0,0,0-1-.62c-.93,0-1.39.77-1.39,2.36,0,1.43.43,2.16,1.31,2.16a1.09,1.09,0,0,0,.93-.46v.46H24V63.17h-1.5Z"/><polygon class="cls-2" points="29.09 61.47 29.66 61.47 29.66 64.99 29.09 64.99 29.09 65.37 30.71 65.37 30.71 64.99 30.13 64.99 30.13 61.47 30.71 61.47 30.71 61.05 29.09 61.05 29.09 61.47"/><polygon class="cls-2" points="36.31 65.37 36.77 65.37 36.77 63.33 38.16 63.33 38.16 62.9 36.77 62.9 36.77 61.47 38.63 61.47 38.63 61.05 36.31 61.05 36.31 65.37"/><polygon class="cls-2" points="43.03 61.47 44.23 61.47 44.23 65.37 44.73 65.37 44.73 61.47 45.96 61.47 45.96 61.05 43.03 61.05 43.03 61.47"/><path class="cls-2" d="M51.91,65.06c-.62,0-.93-.61-.93-1.81s.31-1.89,1-1.89c.31,0,.58.19.62.65h.5a1.3,1.3,0,0,0-.12-.46,1.06,1.06,0,0,0-1-.62c-.93,0-1.43.77-1.43,2.28s.46,2.24,1.39,2.24A1.14,1.14,0,0,0,53,64.83a1.43,1.43,0,0,0,.12-.54h-.5C52.57,64.83,52.3,65.06,51.91,65.06Z"/><path class="cls-2" d="M58.79,61.05l-1.24,4.32h.5l.35-1.27h1.31l.35,1.27h.5l-1.23-4.32Zm-.23,2.66.54-1.93.54,1.93Z"/><path class="cls-2" d="M67.67,62.28a1.14,1.14,0,0,0-1.2-1.23H65.35v4.32h.51V63.6h.61l1,1.77h.58l-1.16-1.89A1.32,1.32,0,0,0,67.67,62.28Zm-1.43.89h-.42v-1.7h.42c.7,0,.93.27.93.81S66.86,63.17,66.24,63.17Z"/><path class="cls-2" d="M73.66,61.05H72.54v4.32h1c1,0,1.47-.65,1.47-2.16S74.62,61.05,73.66,61.05ZM73.54,65H73V61.47h.5c.74,0,1,.35,1,1.78C74.58,64.52,74.31,65,73.54,65Z"/><path class="cls-3" d="M10.85,59.39a.3.3,0,0,1,0,.3c-.08.12-.12.2-.08.28A.81.81,0,0,1,10.85,59.39ZM23.64,48.8a.49.49,0,0,0,.42-.42.24.24,0,0,0,0-.16s0-.07-.08-.11L23.91,48s0-.08,0-.15a8.56,8.56,0,0,0-1.74,0c-.58,0-1.12.11-1.7.19s-1.12.23-1.7.39-1.16.31-1.73.42a.48.48,0,0,0,.15-.31.57.57,0,0,0,0-.27L17.5,48a1.5,1.5,0,0,1,.42-.66,1.07,1.07,0,0,0,.35-.61,2.62,2.62,0,0,0,.5-.62c.12-.23.27-.47.39-.74a6.49,6.49,0,0,0,1-1.31,3.89,3.89,0,0,1,1.09-1.16c.27-.42.54-.89.81-1.35a11.34,11.34,0,0,1,.88-1.27.45.45,0,0,0,.28,0c.07,0,.11,0,.11.07a.47.47,0,0,1,.5-.23.9.9,0,0,0,.62-.12,1.5,1.5,0,0,1,1.39-.57,12.42,12.42,0,0,1,2.28-.7c.77-.15,1.58-.31,2.4-.5a.23.23,0,0,0,.3.11.71.71,0,0,1,.35-.11.06.06,0,0,0,0-.08s0,0,0,0a.4.4,0,0,0,.43.16.89.89,0,0,0,.46-.16.12.12,0,0,1-.08,0s0,0,0,0c.58-.07,1.2-.15,1.78-.19a7.94,7.94,0,0,0,1.7-.27c.08-.15.11-.27,0-.35a.44.44,0,0,1-.12-.34A2.24,2.24,0,0,0,34,36.4a8.69,8.69,0,0,0-1.66.08,33.89,33.89,0,0,0-4.17.77l-3.79.93a4.37,4.37,0,0,1,.7-1.08,3.18,3.18,0,0,0,.58-1.24,1.25,1.25,0,0,0-.51-.81,4.7,4.7,0,0,0-.73-.5,1.39,1.39,0,0,0-.77.73c-.23.43-.47.82-.66,1.16s-.58.93-.89,1.39-.58.89-.85,1.28c0-.08,0-.16,0-.16s0,0,0-.07-.12.07-.15.15-.08.12-.24.16a16.12,16.12,0,0,0-1.73.5,8.5,8.5,0,0,1-1.78.38.6.6,0,0,1-.46.16.86.86,0,0,0-.47.19.8.8,0,0,0,.23.7,2.43,2.43,0,0,0,.51.42.17.17,0,0,1,.11.16.2.2,0,0,0,.08.15,1.07,1.07,0,0,0,1,.15,5.52,5.52,0,0,1,1-.19q-1.27,2-2.55,3.83c-.85,1.23-1.7,2.51-2.55,3.78a2,2,0,0,0-.5.23.65.65,0,0,0-.35.39.44.44,0,0,0,.19.19c.12,0,.12.12.12.27a25.67,25.67,0,0,0-1.89,3.21c-.62,1.2-1.2,2.43-1.7,3.63-.16.31-.31.62-.47,1s-.31.7-.42,1.05-.23.69-.31,1a1.57,1.57,0,0,0,0,.43v0a1.37,1.37,0,0,0,.08.43c.07,0,.11,0,.11,0s0-.08.12,0c0,.2,0,.31.08.31a.53.53,0,0,1,.31.12v-.16c0-.07,0-.07,0-.07s0,.11,0,.19,0,.11.08.11,0-.23.16-.23,0,.08,0,.16,0,.11.11.07a2.91,2.91,0,0,0,.23-.88c0-.31.12-.62.16-.89.07,0,.15-.08.19-.16s.08-.15,0-.19a.15.15,0,0,1,0,.12s-.08,0,0,0a2.9,2.9,0,0,1,.31-.66.84.84,0,0,0,.12-.62,0,0,0,0,0,0,0h.11c.19-.46.43-.92.62-1.35a9.79,9.79,0,0,1,.66-1.19,2.66,2.66,0,0,1-.39.77,1.59,1.59,0,0,0-.31.77,2.12,2.12,0,0,0,.43-.7,1.59,1.59,0,0,1,.46-.65,1.76,1.76,0,0,1,.15-.62,2.56,2.56,0,0,1,.35-.58c.12-.19.27-.39.39-.58l.35-.58s0-.08,0-.08,0,0,0-.07a2.1,2.1,0,0,1,.34-.54c.12-.16.24-.31.31-.43s.2-.27.31-.42a2.74,2.74,0,0,0,.31-.62.24.24,0,0,0,.16,0,1.18,1.18,0,0,0,.11-.15.55.55,0,0,0,.12-.16s.07-.08.15,0a.83.83,0,0,1-.15.23c0,.08-.12.16-.16.24a.33.33,0,0,0,.23-.24,2.33,2.33,0,0,1,.12-.3,1.22,1.22,0,0,0,.54-.16,1.83,1.83,0,0,1,.54-.15s0-.08,0-.12,0-.12,0-.12c.42-.15.89-.34,1.35-.5s1-.31,1.55-.42a4.19,4.19,0,0,0,.54-.12,2.18,2.18,0,0,0,.27-.15c.07,0,.15-.12.23-.16a2.18,2.18,0,0,1,.42-.11l.89-.12a6.13,6.13,0,0,1,.89-.08C23.14,48.88,23.37,48.84,23.64,48.8ZM11.39,58.27a.87.87,0,0,0,.12-.2.28.28,0,0,0,0-.19A.69.69,0,0,0,11.39,58.27Zm30-6.65c0,.23.07.39.07.5v.08a1.17,1.17,0,0,1-.5.7c-.23.15-.46.31-.66.46a1,1,0,0,1,.24-.19,2.49,2.49,0,0,0,.23-.23,2.62,2.62,0,0,0-.54.34,5.9,5.9,0,0,1-.58.39s0,0,0,0,0-.08-.12,0a1.23,1.23,0,0,1-.61.27c-.27.08-.43.2-.47.39a10.62,10.62,0,0,0-1.58.62,3.24,3.24,0,0,1-1.62.15s-.08,0-.08-.08,0,0,.08-.11c-.08,0-.12,0-.2,0s-.15,0-.23-.08l-.19-.11s-.08-.08,0-.16a.6.6,0,0,1,.42-.15.75.75,0,0,0,.47-.27,19.71,19.71,0,0,0,2-.74,10.1,10.1,0,0,0,1.81-1,2.89,2.89,0,0,0,.43-.31c.11-.11.23-.27.35-.42a1.17,1.17,0,0,0-.7-.31c-.31-.08-.62-.12-.93-.2a4.45,4.45,0,0,1-.85-.27,1.14,1.14,0,0,1-.46-.38,6.85,6.85,0,0,0-.58.38c-.08,0-.19.16-.35.27a6.08,6.08,0,0,0-.5.43,6.08,6.08,0,0,1-.54.39,1.8,1.8,0,0,1-.42.23.35.35,0,0,1-.12.19c-.08.12-.12.12-.08,0l-1.62,1.12a7.51,7.51,0,0,1-1.7.89.37.37,0,0,1-.27.08.53.53,0,0,0-.27.11,1.42,1.42,0,0,1-1.24-.15,1.4,1.4,0,0,1-.58-.89,3.11,3.11,0,0,1,0-1.28,4,4,0,0,1,.62-1.35,3.91,3.91,0,0,0-.54.16,6.91,6.91,0,0,1-1,.81c-.38.27-.77.54-1.15.85s-.74.5-1.12.77a8.11,8.11,0,0,1-1.12.66,1.48,1.48,0,0,0-.31.07,1.1,1.1,0,0,1-.31,0A.64.64,0,0,1,23.6,54a2.64,2.64,0,0,1-.39-.31,1,1,0,0,1-.27-.39c-.15-.07-.15-.19-.15-.31a1.73,1.73,0,0,1,.39-.92,5.2,5.2,0,0,0,.57-.85c.55-.66,1.09-1.28,1.63-1.86a19.13,19.13,0,0,1,1.77-1.7c.35-.31.7-.58,1.05-.88A5.61,5.61,0,0,1,29.36,46a.38.38,0,0,0,.19,0h.23a2,2,0,0,1,.46.85c.12.31.2.62.31.93a.74.74,0,0,0,.35-.35.38.38,0,0,1,.35-.23.31.31,0,0,1,.27.19,1.4,1.4,0,0,1,.19.43c0,.15.12.31.16.46a1.31,1.31,0,0,0,.11.35,5.5,5.5,0,0,0-.58.89,11.94,11.94,0,0,0-.65,1.23c-.24.43-.39.85-.58,1.24a5.33,5.33,0,0,0-.31.89c.07.15.23.19.54.11a10.53,10.53,0,0,0,1.08-.34A8.94,8.94,0,0,0,32.79,52c.47-.27.89-.54,1.24-.77.66-.43,1.35-.89,2.08-1.47a2.27,2.27,0,0,0,.31-.23c0-.08-.11-.16-.15-.24a1.61,1.61,0,0,1,.31-.92,4.15,4.15,0,0,1,.69-.77,6.41,6.41,0,0,1,.89-.66,8.09,8.09,0,0,0,.77-.54s0,.08,0,.08,0,0,0,.07q.69-.35,1.5-.69a4.16,4.16,0,0,1,1.55-.31h.15c0,.08-.11.15-.15.15a1,1,0,0,1,.46.27.66.66,0,0,1,.12.54,5.34,5.34,0,0,0-.85.16,3,3,0,0,0-.7.31,3.24,3.24,0,0,0-.65.46l-.66.54a3.41,3.41,0,0,0-.81.7,4,4,0,0,0-.39.46c0,.08-.11.15-.15.23s0,.08-.08.16a6.52,6.52,0,0,0,.85.27,4.91,4.91,0,0,1,.89.31,2.59,2.59,0,0,1,.81.42,1.59,1.59,0,0,1,.54.66A4.12,4.12,0,0,1,41.41,51.62Zm-13.33-.23s0,0-.12.12a.1.1,0,0,0-.07.11H28s0-.08.12-.08A.29.29,0,0,0,28.08,51.39Zm.7-.42s-.12,0-.16.07-.08,0-.11,0l0,0s0,0,.08,0A1.53,1.53,0,0,1,28.78,51Zm.92-2.4c-.19-.11-.19-.46-.07-1-.08.07-.12.07-.12,0s0-.07,0-.07l-2.16,1.54a2.77,2.77,0,0,1-.47.62c-.15.15-.34.31-.54.54l0,0a1.08,1.08,0,0,0-.27.39,1.13,1.13,0,0,1-.34.42s0,0,0-.07,0,0,0-.08a1.81,1.81,0,0,1-.54.85,5.08,5.08,0,0,0-.7.69,20.8,20.8,0,0,0,2.66-1.77c.85-.7,1.7-1.32,2.52-1.9a0,0,0,0,1,0,0C29.66,48.65,29.7,48.61,29.7,48.57Zm27.23,1.62s0,0,0-.07v0l-.08.15S56.89,50.23,56.93,50.19Zm2.82-4.52s.12,0,.23-.15c-.07.08-.07.12,0,.12s.07,0,.15-.08,0,.08,0,.15.12,0,.16-.07a.34.34,0,0,1,.15-.2.09.09,0,0,1-.08.08.32.32,0,0,0,.27-.27.5.5,0,0,1,.27-.35c-.07.12-.07.16,0,.16s0-.12.07-.16.08,0,.08,0a3.8,3.8,0,0,0,.62-.69c.19-.27.35-.54.54-.81a8.27,8.27,0,0,1,.54-.82,5.43,5.43,0,0,1,.62-.73c0-.12,0-.19,0-.23s0-.08,0-.19a.29.29,0,0,1-.23-.08.87.87,0,0,0-.2-.12h-.11c-.12,0-.2,0-.23.12a.57.57,0,0,1-.35.19,0,0,0,0,0,0,0s0,0-.08,0a.15.15,0,0,0-.12,0s-.07,0-.15,0a.38.38,0,0,1,0,.35,3.29,3.29,0,0,1-.31.39l-.35.34c-.11.12-.15.2-.11.23a1.06,1.06,0,0,1-.2.24.24.24,0,0,0-.07.27s-.12,0-.2.15a.68.68,0,0,0-.11.31.52.52,0,0,0-.23.39.88.88,0,0,1-.27.46c0,.08,0,.15,0,.12s0,0,0,.07-.12,0-.2.27h0c0,.08-.08.2-.11.27a.18.18,0,0,0,0,.2A.07.07,0,0,0,59.75,45.67Zm31.17,7.15a5.73,5.73,0,0,1-1.16.19l-1.23.12s0,0,0,0a0,0,0,0,1,0,0,.81.81,0,0,1-.35.07c-.16,0-.27,0-.31-.07s0,0,0,0v0a.53.53,0,0,0-.23.08c-.08,0-.15,0-.19-.08l-1.66.35a7.74,7.74,0,0,0-1.59.5,5.92,5.92,0,0,1-1.43.43h-.42A2.69,2.69,0,0,1,82,54.4a.49.49,0,0,1-.31-.23,2.2,2.2,0,0,1-.69-.85,3.21,3.21,0,0,1-.35-1.12,5.23,5.23,0,0,1,0-.77,4.72,4.72,0,0,1,0-.73l.12-.82c0-.3.07-.61.11-1a2.43,2.43,0,0,0-1.2.62c-.34.31-.69.65-1.08,1a.13.13,0,0,1-.11,0s0,0,0,0a.92.92,0,0,0-.19.23A1,1,0,0,1,78,51a1,1,0,0,1-.31.31l-.38.27a11.59,11.59,0,0,0-.93,1c-.31.38-.62.73-.93,1.12-.15.19-.27.38-.42.58a1.72,1.72,0,0,1-.54.46s0-.08-.08,0l-.12.12-.11.11s-.08,0-.08-.11a3,3,0,0,0-.27.38,1.32,1.32,0,0,1-.23.35c-.16,0-.27-.08-.31,0a3.37,3.37,0,0,0-.08-.73,26.57,26.57,0,0,1,2.17-4.67h.07s0-.08,0-.16a1.35,1.35,0,0,0,.19-.38.58.58,0,0,1-.23,0,1.28,1.28,0,0,1-.27.16A.5.5,0,0,0,75,50a4.79,4.79,0,0,0-.77.5,1.67,1.67,0,0,1-.62.35c-.08,0-.12,0-.16,0a.32.32,0,0,1-.11.08s0,0,0,.08,0,.07-.12.07,0,0,0,0v-.11A.4.4,0,0,1,73,51s0,0,0,.08a1.35,1.35,0,0,0-.38.19,1.43,1.43,0,0,1-.62.2,1.81,1.81,0,0,1-.5.27,1.16,1.16,0,0,1-.39.07v.08s-.08,0-.08,0,0,0-.07,0l-.12.12c-.08,0-.12,0-.15,0s0,.08-.12.08a.15.15,0,0,1-.12,0s-.07,0-.15,0a5.76,5.76,0,0,0-.81.15,1.17,1.17,0,0,1-.74,0,1.67,1.67,0,0,0-.46.39c-.19.19-.42.46-.69.73s-.54.58-.81.85a5.28,5.28,0,0,1-.89.74h-.08s0,0-.08,0-.31.16-.5.24-.39.11-.58.19a2.94,2.94,0,0,1-.54.08.72.72,0,0,1-.42-.08,3,3,0,0,0-.7-.35.72.72,0,0,1-.46-.5v-.43a1.11,1.11,0,0,1,0-.38,10,10,0,0,1,.38-1.55c0-.07,0-.15.08-.23-.19.12-.31.27-.43.35a.75.75,0,0,1-.42.27l-.23.12a2,2,0,0,0-.2.11l-.73.46c-.31.16-.62.35-.93.55s-.65.34-1,.5-.58.23-.78.31a1.28,1.28,0,0,0-.34.07.51.51,0,0,1-.35,0,2.61,2.61,0,0,1-.66-.23,2.44,2.44,0,0,1-.54-.27.67.67,0,0,1-.38-.5,3.19,3.19,0,0,1-.12-.89,4.06,4.06,0,0,1,.08-.69c-.08,0-.12.11-.2.19a3.62,3.62,0,0,1-.65.42,1.94,1.94,0,0,1-.74.62,4.23,4.23,0,0,1-1,.35,1.4,1.4,0,0,1-.5.15,2.51,2.51,0,0,1-.58,0,3.91,3.91,0,0,1-1.12-.07,3,3,0,0,1-1-.39,1.51,1.51,0,0,1-.69-.7,1.43,1.43,0,0,1-.16-1,8.35,8.35,0,0,1,.2-1c.07-.34.11-.65.15-1a13.16,13.16,0,0,0-1.74,1.16,12.1,12.1,0,0,0-1.54,1.31h-.08a3,3,0,0,1-.77.81,3.47,3.47,0,0,0-.89.81,1.42,1.42,0,0,0-.27.47.58.58,0,0,1-.27.34.92.92,0,0,1-.35.24,1,1,0,0,0-.31.27,1.25,1.25,0,0,0-.34,0c-.08,0-.2.07-.35.15a.8.8,0,0,1-.16-.23,1.86,1.86,0,0,1-.11-.27c-.16.12-.27.15-.39,0a.88.88,0,0,0-.38-.2.08.08,0,0,0,0-.11l-.08-.08A4.08,4.08,0,0,1,42,53.28a3.24,3.24,0,0,1,.5-.89,1.9,1.9,0,0,1,.35-.88c.15-.27.34-.54.46-.78a5.48,5.48,0,0,0,.38-.85,1.32,1.32,0,0,1,.58-.69,3.93,3.93,0,0,0,.31-.7A1,1,0,0,1,45,48a.86.86,0,0,1,.19-.5,2.21,2.21,0,0,0,.39-.42c.15-.31.27-.62.42-.93a4.5,4.5,0,0,1,.54-.89s.08,0,.12-.08l.12-.11c.07-.16.11-.27.15-.35a3.87,3.87,0,0,1,.23-.35h0c.66-1,1.31-1.93,2-2.82a20.92,20.92,0,0,0,1.93-2.93s.08,0,.08,0,0,0,.08,0a5.5,5.5,0,0,0,.3-.5,4.17,4.17,0,0,1,.31-.54,2.3,2.3,0,0,1,.39-.43,1,1,0,0,1,.46-.19h.08a1,1,0,0,1,.58.19c.15.16.35.31.5.47-.11.19-.19.34-.27.5a.79.79,0,0,1-.35.35c-.38.57-.77,1.15-1.15,1.69S51.37,41.15,51,41.7a.5.5,0,0,0-.38.27,1.11,1.11,0,0,0-.16.42,1.94,1.94,0,0,0-.62.7,5.45,5.45,0,0,1-.54.77v.27a3.74,3.74,0,0,0-.85,1c-.23.39-.46.82-.65,1.2a1,1,0,0,0-.39.39,2.36,2.36,0,0,1-.38.5h0s0,0,0,0c-.12.16-.23.35-.35.54s0,.12-.08.12-.07,0-.11.08a3.74,3.74,0,0,1-.47.85,4.76,4.76,0,0,0-.46.81s0,.07,0,.07a.28.28,0,0,0-.15.08,2.57,2.57,0,0,1-.39.73,7.62,7.62,0,0,0-.42.7.7.7,0,0,0-.08.27,2.3,2.3,0,0,1-.16.27,1.21,1.21,0,0,1-.19.35,2.38,2.38,0,0,1-.27.31l-.23.35a.78.78,0,0,0-.12.46c.35-.35.7-.7,1.08-1A12.83,12.83,0,0,0,45.65,51s.12,0,.12,0a.18.18,0,0,1,.12,0A5.22,5.22,0,0,1,47,50a13.77,13.77,0,0,1,1.23-.89l1-.58a1.41,1.41,0,0,1,1-.11,3.59,3.59,0,0,1,.43.19c.15.12.31.19.42.27a3.13,3.13,0,0,1,.31.23.5.5,0,0,1,.16.35,2.19,2.19,0,0,1-.12.7c-.08.19-.12.42-.19.65a1.29,1.29,0,0,0,0,.39.81.81,0,0,1,0,.38,2.55,2.55,0,0,0,0,.74,1.37,1.37,0,0,0,.35.54,4.65,4.65,0,0,0,1.28-.19A5.44,5.44,0,0,0,54,52.16a10.86,10.86,0,0,0,1-.62c.31-.23.66-.5,1-.73.16-.11.31-.27.55-.42a.52.52,0,0,0,.19-.2c.08-.19.19-.38.27-.58l.42-.85a.07.07,0,0,1,0,.12.61.61,0,0,0,0,.23,3.25,3.25,0,0,0,.23-.46.54.54,0,0,1,.31-.39v-.08h0v0c.11-.19.27-.38.42-.61a.94.94,0,0,1,.54-.35.46.46,0,0,1,.47.19c.11.16.23.31.3.43s-.07.3-.23.34c-.38.74-.77,1.51-1.16,2.36a12.05,12.05,0,0,0-.85,2.74,2.27,2.27,0,0,0,1.12-.38,4,4,0,0,1,.74-.35l.85-.39c.31-.15.58-.27.85-.42a5.15,5.15,0,0,0,.69-.47L62,51.2a.31.31,0,0,0,.16-.16A8.31,8.31,0,0,0,64,49.69a3.87,3.87,0,0,1,.35-.23.8.8,0,0,0,.19-.16.85.85,0,0,1,.16-.11l.19-.19.27-.24h0a.39.39,0,0,0,.12-.15,2.75,2.75,0,0,1,.77-.7,1.3,1.3,0,0,0,.19-.15c.12,0,.16-.08.19-.08h.16s0,0,.08-.11,0,0,0,0,0,0,0,.07a.17.17,0,0,0,.15-.19s.08,0,.12-.12a1.43,1.43,0,0,1,.23-.27h0a2.39,2.39,0,0,0,.31-.34.47.47,0,0,1,.31-.27v.07s0,0,0,0,0,0,0-.07,0,0,0,0,0-.08.08-.08a4.73,4.73,0,0,1,.81-.27c.35-.12.66-.19.89-.27a1.8,1.8,0,0,1,.85.31,1.72,1.72,0,0,1,.62.54,1.24,1.24,0,0,1,0,1,3.62,3.62,0,0,1-.16.51,2.18,2.18,0,0,1-.23.46,3.47,3.47,0,0,1-.27.58c-.12.23-.27.42-.39.66s-.27.42-.38.61a3.25,3.25,0,0,0-.27.47s-.08,0-.12,0,0,0-.08.11l.82-.11a5.79,5.79,0,0,0,.85-.24,14.35,14.35,0,0,0,2.54-1.15c.85-.51,1.74-1.09,2.63-1.7a.2.2,0,0,0,.19,0s.08,0,.12,0v.07c.15-.27.27-.46.39-.65s.27-.43.46-.74c0,0,.08,0,.19-.07s.12-.12.08-.12a.91.91,0,0,0,.27-.12c.15-.07.23-.07.23,0a1.11,1.11,0,0,0,.2.39.67.67,0,0,1,.11.43,1.51,1.51,0,0,1-.15.38c-.08.16-.16.35-.24.54s-.19.35-.27.51a1.46,1.46,0,0,1-.23.38c-.15.19-.31.43-.46.62a2.06,2.06,0,0,0-.35.73c-.08-.07-.15,0-.19.12a1,1,0,0,1-.23.42c.42-.38.85-.81,1.31-1.27A9.71,9.71,0,0,1,79,48.3c.15-.12.35-.23.58-.39a3.24,3.24,0,0,1,.77-.34,2.68,2.68,0,0,1,.73-.16.78.78,0,0,1,.58.23,2.94,2.94,0,0,0,.31.47,1.74,1.74,0,0,1,.2.38,2.69,2.69,0,0,1,0,.51,2.36,2.36,0,0,1-.19.77,2.25,2.25,0,0,0,0,.73,2.48,2.48,0,0,1,0,.77,1.31,1.31,0,0,0,0,.35c0,.08,0,.16,0,.31a1.6,1.6,0,0,0,.31.85,1.29,1.29,0,0,0,.54.35l.51,0c.77-.2,1.66-.43,2.62-.66A26.84,26.84,0,0,1,88.8,52a5.79,5.79,0,0,1,1.16,0,2.33,2.33,0,0,1,1,.35.57.57,0,0,0,.08.27A2.3,2.3,0,0,0,90.92,52.82Zm-34.1-2.47h0c-.08,0-.08.07,0,.11A.07.07,0,0,0,56.82,50.35Zm.34-.81s0,.07,0,.15,0,0,0,0v-.08a.31.31,0,0,0-.08.2A.28.28,0,0,1,57,50v0h-.15v.19h0l0,0s0,0,0,0A.74.74,0,0,1,57,50s0,0,0-.08S57.2,49.61,57.16,49.54Zm10,2.12A1.44,1.44,0,0,1,66.4,51a2,2,0,0,1-.16-1.32,10.92,10.92,0,0,0-.81,1.24c-.23.42-.5.89-.81,1.43-.12.35-.19.69-.31,1a5.54,5.54,0,0,0-.12,1.2,5.37,5.37,0,0,0,.89-.7c.27-.27.58-.58.85-.89a7.86,7.86,0,0,1,.66-.61A4.15,4.15,0,0,0,67.21,51.66Zm2.59-4.87a3.56,3.56,0,0,0-.7.62c-.19.2-.39.43-.62.7,0,0,0,0,0,0s0,0,0,0a1.25,1.25,0,0,1-.23.35,1.2,1.2,0,0,0-.19.27.71.71,0,0,0,.23-.23.42.42,0,0,1,.23-.2,3.43,3.43,0,0,0-.27.27,4.05,4.05,0,0,1-.27.39,1.48,1.48,0,0,0-.31.46l-.23.58a1.43,1.43,0,0,0,0,.58.33.33,0,0,0,.2.35c.42-.58.85-1.2,1.31-1.89A7.24,7.24,0,0,0,69.8,46.79Z"/></svg>