<?xml version="1.0" encoding="utf-8"?>
<!-- Generator: Adobe Illustrator 27.9.0, SVG Export Plug-In . SVG Version: 6.00 Build 0)  -->
<svg version="1.1" id="Laag_1" xmlns="http://www.w3.org/2000/svg" xmlns:xlink="http://www.w3.org/1999/xlink" x="0px" y="0px"
	 viewBox="0 0 100 100" style="enable-background:new 0 0 100 100;" xml:space="preserve">
<style type="text/css">
	.st0{fill:#FF4713;}
	.st1{fill:#FFFFFF;}
</style>
<path class="st0" d="M90,100H10c-5.5,0-10-4.5-10-10V10C0,4.5,4.5,0,10,0h80c5.5,0,10,4.5,10,10v80C100,95.5,95.5,100,90,100z"/>
<g>
	<path class="st1" d="M23.1,59.5c-1.5,0.7-2.9,1-4.3,1c-1.9,0-3.7-0.4-5.2-1.3c-1.6-0.9-2.8-2.1-3.7-3.6C9,54,8.6,52.3,8.6,50.3
		c0-1.9,0.5-3.6,1.4-5.1c0.9-1.5,2.2-2.7,3.7-3.6c1.6-0.9,3.4-1.3,5.3-1.3c1.4,0,2.9,0.3,4.3,0.9c1.4,0.6,2.6,1.4,3.6,2.5l-2.9,3.6
		c-0.6-0.8-1.4-1.4-2.2-1.9c-0.9-0.5-1.7-0.7-2.6-0.7c-1,0-1.9,0.2-2.7,0.7c-0.8,0.5-1.4,1.2-1.9,2c-0.5,0.9-0.7,1.8-0.7,2.9
		c0,1.1,0.2,2,0.7,2.9c0.5,0.9,1.1,1.5,1.9,2c0.8,0.5,1.7,0.7,2.7,0.7c0.8,0,1.6-0.2,2.5-0.6c0.9-0.4,1.6-1,2.3-1.7l3,3.2
		C25.8,58,24.6,58.8,23.1,59.5z"/>
	<path class="st1" d="M46,60.1H41v-2.4c-1,1.7-2.6,2.6-4.8,2.7c-1.6,0-2.9-0.5-3.9-1.6c-1-1-1.5-2.4-1.5-4.2v-9.5h4.9v8.1
		c0,0.9,0.2,1.5,0.7,2c0.4,0.5,1,0.7,1.8,0.7c0.9,0,1.6-0.3,2.1-1c0.5-0.6,0.7-1.4,0.7-2.4v-7.4H46V60.1z"/>
	<rect x="52.1" y="39.5" class="st1" width="4.9" height="20.6"/>
	<path class="st1" d="M71,60.1c-0.7,0.2-1.5,0.3-2.2,0.3c-1.5,0-2.7-0.4-3.6-1.3c-0.9-0.9-1.4-2-1.4-3.5v-6.4h-2.1v-3.3h2.1v-4.2
		h4.9v4.2h3.9v3.3h-3.9v5.7c0,1.1,0.4,1.6,1.3,1.6c0.5,0,1.2-0.2,1.9-0.5l0.9,3.5C72.4,59.7,71.8,59.9,71,60.1z"/>
	<polygon class="st1" points="91.4,51.8 85.9,51.8 85.9,57.3 82.2,57.3 82.2,51.8 76.7,51.8 76.7,48.1 82.2,48.1 82.2,42.6 
		85.9,42.6 85.9,48.1 91.4,48.1 	"/>
</g>
</svg>
