<?xml version="1.0" encoding="utf-8"?>
<!-- Generator: Adobe Illustrator 27.9.0, SVG Export Plug-In . SVG Version: 6.00 Build 0)  -->
<svg version="1.1" id="Laag_1" xmlns="http://www.w3.org/2000/svg" xmlns:xlink="http://www.w3.org/1999/xlink" x="0px" y="0px"
	 viewBox="0 0 100 100" style="enable-background:new 0 0 100 100;" xml:space="preserve">
<style type="text/css">
	.st0{fill:#00A87A;}
	.st1{fill:#FFFFFF;}
</style>
<path class="st0" d="M90,100H10c-5.5,0-10-4.5-10-10V10C0,4.5,4.5,0,10,0H90c5.5,0,10,4.5,10,10V90C100,95.5,95.5,100,90,100z"/>
<g>
	<path class="st1" d="M55.1,36c-5.1,0-9.3,4.2-9.3,9.3c0,5.1,4.2,9.3,9.3,9.3c5.1,0,9.3-4.2,9.3-9.3C64.4,40.2,60.2,36,55.1,36
		 M55.1,51.8c-3.6,0-6.5-2.9-6.5-6.5c0-3.6,2.9-6.5,6.5-6.5c3.6,0,6.5,2.9,6.5,6.5C61.6,48.9,58.7,51.8,55.1,51.8 M76.4,36
		c-5.1,0-9.3,4.2-9.3,9.3c0,5.1,4.2,9.3,9.3,9.3c5.1,0,9.3-4.2,9.3-9.3C85.7,40.2,81.6,36,76.4,36 M76.4,51.8
		c-3.6,0-6.5-2.9-6.5-6.5c0-3.6,2.9-6.5,6.5-6.5c3.6,0,6.5,2.9,6.5,6.5C82.9,48.9,80,51.8,76.4,51.8 M33.8,36
		c-3.3,0-6.2,1.8-7.9,4.4C24.2,37.8,21.3,36,18,36c-5.1,0-9.3,4.2-9.3,9.3h2.8c0-3.6,2.9-6.5,6.5-6.5c3.6,0,6.5,2.9,6.5,6.5h2.8
		c0-3.6,2.9-6.5,6.5-6.5c3.6,0,6.5,2.9,6.5,6.5H43C43,40.2,38.9,36,33.8,36 M88.5,54.6h2.8V36h-2.8V54.6z"/>
	<path class="st1" d="M86.4,63.8h4.9v-1.4h-3.3V61h3v-1.4h-3v-1.3h3.2v-1.4h-4.7V63.8z M81.1,63.8h1.5v-6.9h-1.5V63.8z M73.9,58.2h1
		c0.6,0,1.2,0.1,1.2,0.8c0,0.8-0.7,0.8-1.3,0.8h-0.9V58.2z M72.4,63.8h1.5v-2.8h0.7l1.4,2.8H78l-1.8-2.9c1-0.2,1.5-0.9,1.5-1.9
		c0-1.6-1.2-2.1-2.6-2.1h-2.7V63.8z M64,63.8h4.9v-1.4h-3.3V61h3v-1.4h-3v-1.3h3.2v-1.4H64V63.8z M52.4,63.8h1.5v-5.3h0l1.7,5.3h1.2
		l1.8-5.3h0v5.3h1.5v-6.9h-2.3l-1.6,4.5h0l-1.6-4.5h-2.3V63.8z M48.6,56.9h-1.5v4.2c0,0.9-0.6,1.5-1.4,1.5c-0.8,0-1.4-0.6-1.4-1.5
		v-4.2h-1.5v4.3c0,1.6,1,2.8,2.9,2.8c1.9,0,2.9-1.2,2.9-2.8V56.9z M34.9,63.8h1.5v-2.7h2.9v-1.4h-2.9v-1.4h3.1v-1.4h-4.6V63.8z
		 M27.6,58.2h1c0.6,0,1.2,0.1,1.2,0.8c0,0.8-0.7,0.8-1.3,0.8h-0.9V58.2z M26.1,63.8h1.5v-2.8h0.7l1.4,2.8h1.8l-1.8-2.9
		c1-0.2,1.5-0.9,1.5-1.9c0-1.6-1.2-2.1-2.6-2.1h-2.7V63.8z M20.2,61.1h-1.7l0.8-2.2L20.2,61.1z M15.8,63.8h1.7l0.6-1.5h2.7l0.6,1.5
		H23l-3-6.9h-1.3L15.8,63.8z M10.2,58.2H11c0.6,0,1.3,0.1,1.3,0.8c0,0.6-0.5,0.8-1.1,0.8h-1V58.2z M8.7,63.8h1.5v-2.7h1.1
		c1.5,0,2.6-0.5,2.6-2.1c0-1.6-1.2-2.1-2.6-2.1H8.7V63.8z"/>
</g>
</svg>
