<?xml version="1.0" encoding="UTF-8"?>
<svg id="Layer_1" data-name="Layer 1" xmlns="http://www.w3.org/2000/svg" xmlns:xlink="http://www.w3.org/1999/xlink" viewBox="0 0 100 100">
  <defs>
    <style>
      .cls-1 {
        fill: none;
      }

      .cls-2 {
        fill: #fff;
      }

      .cls-3 {
        fill: #8b4aff;
      }

      .cls-4 {
        clip-path: url(#clippath);
      }
    </style>
    <clipPath id="clippath">
      <rect class="cls-1" x="11" y="40" width="78" height="20"/>
    </clipPath>
  </defs>
  <rect class="cls-3" width="100" height="100" rx="15" ry="15"/>
  <g class="cls-4">
    <g>
      <path class="cls-2" d="M51.25,59.51h-3.22v-13.54h3.14v1.81c.83-1.41,2.37-2.25,4-2.2,3.3,0,4.89,2.39,4.89,5.37v8.57h-3.22v-8.01c0-1.67-.75-3-2.78-3-1.83,0-2.8,1.42-2.8,3.2v7.81h0Z"/>
      <path class="cls-2" d="M82.12,59.9c-3.22,0-5.11-2.39-5.11-5.39v-8.54h3.22v7.95c0,1.67.78,3.09,2.72,3.09s2.83-1.25,2.83-3.03v-8.01h3.22v11.07c0,1.11-.06,1.97,0,2.48h-3.05c-.03-.5-.03-1,0-1.5-.67,1.22-2.25,1.89-3.83,1.89"/>
      <path class="cls-2" d="M26.53,45.58c-1.8-.1-3.5.83-4.39,2.39-.75-1.54-2.34-2.49-4.05-2.39-1.61-.04-3.12.76-4,2.11v-1.72h-3.1l.02,13.54h3.19v-8.04c0-1.72,1.08-3,2.8-3,1.83,0,2.61,1.22,2.61,2.78v8.26h3.16v-8.04c-.1-1.55,1.07-2.89,2.62-3,.06,0,.12,0,.19,0,1.8,0,2.61,1.19,2.61,2.78v8.26h3.11v-8.79c0-3.59-2.33-5.14-4.78-5.14"/>
      <path class="cls-2" d="M75.08,40l-3.28,1.07v6.48c-.42-.86-1.61-1.95-3.97-1.95-3.81,0-6.44,3.2-6.44,7.09,0,4.09,2.61,7.15,6.5,7.15,1.6.07,3.12-.72,3.97-2.09v1.75h3.22c-.03-.22,0-1.25,0-2.48v-17.04h0ZM68.26,57.01c-2.19,0-3.64-1.72-3.64-4.31s1.56-4.23,3.66-4.23,3.55,1.61,3.55,4.2-1.47,4.34-3.58,4.34"/>
      <path class="cls-2" d="M39.67,45.63c-4.03,0-6.99,3.03-6.99,7.17s2.97,7.2,6.99,7.2,7.02-3.03,7.02-7.2-2.97-7.17-7.02-7.17M43.15,54.15c-.01.66-.45,1.24-1.08,1.44l-5.67,1.86c-.07.02-.15-.02-.17-.09,0-.01,0-.03,0-.04v-5.85c.01-.66.45-1.24,1.08-1.44l5.67-1.86c.07-.02.15.02.17.09,0,.01,0,.03,0,.04v5.85h0Z"/>
    </g>
  </g>
</svg>