<svg id="Laag_1" data-name="Laag 1" xmlns="http://www.w3.org/2000/svg" xmlns:xlink="http://www.w3.org/1999/xlink" viewBox="0 0 100 100"><defs><style>.cls-1{fill:none;}.cls-2,.cls-5{fill:#fff;}.cls-3{fill:#000268;}.cls-4{clip-path:url(#clip-path);}.cls-5,.cls-6{fill-rule:evenodd;}.cls-6{fill:#ff0007;}</style><clipPath id="clip-path"><rect class="cls-1" y="0.03" width="100" height="100" rx="10.37"/></clipPath></defs><rect class="cls-2" x="1.5" y="1.5" width="97" height="97" rx="8.87"/><path class="cls-3" d="M89.63,3A7.38,7.38,0,0,1,97,10.37V89.63A7.38,7.38,0,0,1,89.63,97H10.37A7.38,7.38,0,0,1,3,89.63V10.37A7.38,7.38,0,0,1,10.37,3H89.63m0-3H10.37A10.41,10.41,0,0,0,0,10.37V89.63A10.41,10.41,0,0,0,10.37,100H89.63A10.41,10.41,0,0,0,100,89.63V10.37A10.41,10.41,0,0,0,89.63,0Z"/><g class="cls-4"><rect class="cls-3" x="51.14" y="0.02" width="50.61" height="99.97"/></g><g id="layer1"><path id="_92186184" data-name=" 92186184" class="cls-5" d="M62,49.87c0,1.62-.8,2.74-2.12,2.74A2.38,2.38,0,0,1,57.74,50c0-1.52.86-2.65,2.15-2.65A2.25,2.25,0,0,1,62,49.87Zm-7.79,9.3h3.52V53.64h0A3.52,3.52,0,0,0,61,55.3c3,0,4.64-2.5,4.64-5.5,0-2.46-1.54-5.14-4.35-5.14a4,4,0,0,0-3.79,2.07h0V44.9H54.22Zm16.22-7.33c0-1,.94-1.34,2.13-1.34.53,0,1,0,1.48.06A2.29,2.29,0,0,1,71.89,53C71.07,53,70.44,52.55,70.44,51.84Zm7.09,3.23a12.22,12.22,0,0,1-.2-2.4V48.88c0-3.11-2.24-4.22-4.84-4.22a10.67,10.67,0,0,0-4.06.72l.06,2.39A6.57,6.57,0,0,1,71.73,47c1.27,0,2.3.38,2.32,1.76a10,10,0,0,0-1.64-.14c-1.87,0-5.25.38-5.25,3.48,0,2.21,1.8,3.2,3.81,3.2a3.48,3.48,0,0,0,3.22-1.84h0c0,.53.06,1.06.08,1.61Zm1.58,4.1a10.62,10.62,0,0,0,2.18.23c3.22,0,4-2.48,5-5L90,44.9H86.49L84.4,51.53h0L82.17,44.9H78.39L82.5,55.3a1.78,1.78,0,0,1-1.77,1.41,4.13,4.13,0,0,1-1.39-.22Z"/><path id="_47303032" data-name=" 47303032" class="cls-6" d="M13.63,49.89c0-1.38.68-2.53,2-2.53a2.23,2.23,0,0,1,2.25,2.4,2.37,2.37,0,0,1-2.25,2.61C14.57,52.37,13.63,51.48,13.63,49.89Zm7.63-5H18.08v1.83h0a4,4,0,0,0-3.45-2.07C11.43,44.66,10,46.93,10,50s1.74,5.12,4.53,5.12a4,4,0,0,0,3.41-1.74h0v.55c0,2-1.09,2.94-3.12,2.94A6.94,6.94,0,0,1,11.43,56l-.18,2.78a11.9,11.9,0,0,0,3.88.64c4.1,0,6.13-1.35,6.13-5.52Zm5.94-4.24H23.69v2.58H27.2ZM23.69,55.07H27.2V44.9H23.69ZM37,44.78a7.26,7.26,0,0,0-1.19-.12,3.13,3.13,0,0,0-3,2.11h0V44.9h-3.2V55.07h3.51v-4.3c0-2,.92-3.18,2.56-3.18a4,4,0,0,1,1.19.12ZM43,52.84c-1.62,0-2.28-1.35-2.28-2.85s.66-2.87,2.28-2.87,2.29,1.35,2.29,2.87S44.66,52.84,43,52.84Zm0,2.46C46.39,55.3,49,53.35,49,50S46.39,44.66,43,44.66s-5.91,2-5.91,5.33S39.68,55.3,43,55.3Z"/></g></svg>