<?xml version="1.0" encoding="utf-8"?>
<!-- Generator: Adobe Illustrator 25.4.0, SVG Export Plug-In . SVG Version: 6.00 Build 0)  -->
<svg version="1.1" id="Laag_1" xmlns="http://www.w3.org/2000/svg" xmlns:xlink="http://www.w3.org/1999/xlink" x="0px" y="0px"
	 viewBox="0 0 100 100" style="enable-background:new 0 0 100 100;" xml:space="preserve">
<style type="text/css">
	.st0{fill:#FFFFFF;}
	.st1{fill:#A8A8A7;}
	.st2{fill:#FCC200;}
	.st3{fill:#FFEC00;}
	.st4{fill:#EA5B25;}
	.st5{fill:#AF182B;}
	.st6{fill:#D41317;}
	.st7{fill:#802E4E;}
	.st8{fill:#822376;}
	.st9{fill:#BDE2F1;}
	.st10{fill:#2E276C;}
	.st11{fill:#006EAA;}
	.st12{fill:#4F5692;}
	.st13{fill:#56256C;}
	.st14{fill:#009EE2;}
	.st15{fill:#AEC90B;}
	.st16{fill:#007841;}
	.st17{fill:#FFED00;}
	.st18{fill:none;}
	.st19{fill:#1F2855;}
	.st20{fill-rule:evenodd;clip-rule:evenodd;fill:#FFFFFF;}
</style>
<path class="st0" d="M10.4,0.5h79.3c5.5,0,9.9,4.4,9.9,9.9v79.3c0,5.5-4.4,9.9-9.9,9.9H10.4c-5.5,0-9.9-4.4-9.9-9.9V10.4
	C0.5,4.9,4.9,0.5,10.4,0.5z"/>
<path class="st1" d="M89.6,1c5.2,0,9.4,4.2,9.4,9.4v79.3c0,5.2-4.2,9.4-9.4,9.4H10.4C5.2,99,1,94.8,1,89.6V10.4C1,5.2,5.2,1,10.4,1
	H89.6 M89.6,0H10.4C4.7,0,0,4.7,0,10.4v79.3C0,95.3,4.7,100,10.4,100h79.3c5.7,0,10.3-4.7,10.4-10.4V10.4C100,4.7,95.3,0,89.6,0z"/>
<path class="st0" d="M88,50c0,21-17,38-38,38S12,71,12,50s17-38,38-38S88,29,88,50z"/>
<path class="st2" d="M49,20.1c0,1.9-1.5,3.4-3.4,3.4c-1.9,0-3.4-1.5-3.4-3.4s1.5-3.4,3.4-3.4c0,0,0,0,0,0C47.5,16.7,49,18.2,49,20.1
	z"/>
<path class="st2" d="M39.8,36.7c0,1.1-0.9,2-2,2s-2-0.9-2-2s0.9-2,2-2S39.8,35.6,39.8,36.7z"/>
<path class="st2" d="M60.7,26.1c0,0.6-0.5,1.1-1.1,1.1s-1.1-0.5-1.1-1.1S59,25,59.6,25S60.7,25.5,60.7,26.1L60.7,26.1z"/>
<path class="st3" d="M36.3,25.5c0,2-1.6,3.6-3.7,3.6c-2,0-3.6-1.6-3.6-3.6c0-2,1.6-3.6,3.6-3.6C34.7,21.8,36.3,23.4,36.3,25.5
	C36.3,25.5,36.3,25.5,36.3,25.5z"/>
<path class="st4" d="M44.5,27c0,1.7-1.4,3.1-3.1,3.1s-3.1-1.4-3.1-3.1c0-1.7,1.4-3.1,3.1-3.1S44.5,25.3,44.5,27L44.5,27z"/>
<path class="st4" d="M64.3,21.5c0,1.6-1.3,2.9-2.9,2.9c-1.6,0-2.9-1.3-2.9-2.9s1.3-2.9,2.9-2.9c0,0,0,0,0,0
	C63,18.5,64.3,19.8,64.3,21.5z"/>
<path class="st4" d="M77.1,40.1c0,1.1-0.9,2.1-2.1,2.1c-1.1,0-2.1-0.9-2.1-2.1c0-1.1,0.9-2.1,2.1-2.1C76.1,38,77.1,38.9,77.1,40.1
	C77.1,40.1,77.1,40.1,77.1,40.1z"/>
<path class="st5" d="M76.6,30.2c0,1.4-1.1,2.5-2.5,2.5s-2.5-1.1-2.5-2.5s1.1-2.5,2.5-2.5S76.6,28.9,76.6,30.2z"/>
<path class="st6" d="M70.5,33.2c0,1.5-1.2,2.7-2.7,2.7c-1.5,0-2.7-1.2-2.7-2.7c0-1.5,1.2-2.7,2.7-2.7S70.5,31.7,70.5,33.2L70.5,33.2
	z"/>
<path class="st6" d="M25,35.9c0,1.5-1.2,2.7-2.7,2.7s-2.7-1.2-2.7-2.7s1.2-2.7,2.7-2.7l0,0C23.8,33.3,25,34.5,25,35.9z"/>
<path class="st7" d="M58.2,28.8c0,1.6-1.3,2.9-2.9,2.9s-2.9-1.3-2.9-2.9c0-1.6,1.3-2.9,2.9-2.9S58.2,27.2,58.2,28.8L58.2,28.8z"/>
<path class="st8" d="M74.5,34.7c0,0.6-0.5,1.1-1.1,1.1s-1.1-0.5-1.1-1.1c0-0.6,0.5-1.1,1.1-1.1c0,0,0,0,0,0
	C74,33.7,74.5,34.1,74.5,34.7z"/>
<path class="st8" d="M37.8,31.3c0,0.9-0.7,1.5-1.5,1.5c-0.9,0-1.5-0.7-1.5-1.5c0-0.8,0.7-1.5,1.5-1.5C37.1,29.7,37.8,30.4,37.8,31.3
	z"/>
<path class="st9" d="M53.6,24.1c0,0.6-0.5,1.1-1.1,1c-0.6,0-1.1-0.5-1-1.1c0-0.6,0.5-1,1.1-1C53.1,23,53.6,23.5,53.6,24.1
	C53.6,24.1,53.6,24.1,53.6,24.1z"/>
<path class="st10" d="M44.3,32.9c0,1-0.9,1.9-1.9,1.9c-1,0-1.9-0.9-1.9-1.9c0-1,0.9-1.9,1.9-1.9C43.5,31,44.3,31.8,44.3,32.9
	C44.3,32.9,44.3,32.9,44.3,32.9z"/>
<path class="st11" d="M58.3,35.7c0,1.1-0.9,2-2,2s-2-0.9-2-2s0.9-2,2-2S58.3,34.5,58.3,35.7z"/>
<path class="st11" d="M50,26.8c0,1.2-1,2.1-2.1,2.1c-1.2,0-2.1-1-2.1-2.1c0-1.2,0.9-2.1,2.1-2.1C49.1,24.6,50,25.6,50,26.8z"/>
<path class="st11" d="M29.9,40.1c0,1.1-0.9,2-2,2s-2-0.9-2-2s0.9-2,2-2S29.9,39,29.9,40.1z"/>
<path class="st12" d="M71,24.9c0,1.4-1.1,2.4-2.5,2.4c-1.4,0-2.4-1.1-2.4-2.5s1.1-2.4,2.5-2.4l0,0C69.9,22.5,71,23.6,71,24.9z"/>
<path class="st13" d="M27.5,30.1c-0.1,1.1-1,2-2.1,1.9s-2-1-1.9-2.1c0-1,0.9-1.9,1.9-1.9c1.1,0,2,0.8,2.1,1.9
	C27.5,30,27.5,30,27.5,30.1z"/>
<path class="st9" d="M63.1,34.5c0,0.8-0.7,1.5-1.5,1.5s-1.5-0.7-1.5-1.5s0.7-1.5,1.5-1.5S63.1,33.7,63.1,34.5z"/>
<path class="st9" d="M82.2,40.7c0,0.8-0.7,1.5-1.5,1.5c-0.8,0-1.5-0.7-1.5-1.5s0.7-1.5,1.5-1.5c0,0,0,0,0,0
	C81.5,39.2,82.2,39.8,82.2,40.7z"/>
<path class="st10" d="M56.5,19c0,1.3-1.1,2.4-2.4,2.4s-2.4-1.1-2.4-2.4c0-1.3,1.1-2.4,2.4-2.4l0,0C55.4,16.6,56.5,17.7,56.5,19z"/>
<path class="st14" d="M52.1,33.5c0,1.5-1.2,2.6-2.6,2.6c-1.5,0-2.6-1.2-2.6-2.6c0-1.5,1.2-2.6,2.6-2.6c0,0,0,0,0,0
	C50.9,30.9,52.1,32,52.1,33.5z"/>
<path class="st15" d="M33.3,34c0,1.5-1.2,2.7-2.7,2.7c-1.5,0-2.7-1.2-2.7-2.7c0-1.5,1.2-2.7,2.7-2.7c0,0,0,0,0,0
	C32.1,31.3,33.3,32.5,33.3,34z"/>
<path class="st15" d="M64,29.3c0,0.9-0.7,1.7-1.7,1.7c-0.9,0-1.7-0.7-1.7-1.7s0.7-1.7,1.7-1.7l0,0C63.2,27.6,64,28.4,64,29.3
	C64,29.3,64,29.3,64,29.3z"/>
<path class="st16" d="M40,20.5c0,1.1-0.9,1.9-1.9,1.9s-1.9-0.9-1.9-1.9c0-1.1,0.9-1.9,1.9-1.9l0,0C39.1,18.6,40,19.5,40,20.5z"/>
<path class="st5" d="M47.6,38.6c0,1.2-1,2.2-2.2,2.2s-2.2-1-2.2-2.2s1-2.2,2.2-2.2c0,0,0,0,0,0C46.6,36.4,47.6,37.4,47.6,38.6
	C47.6,38.6,47.6,38.6,47.6,38.6z"/>
<path class="st4" d="M53.2,40.3c0,1-0.8,1.9-1.9,1.9s-1.9-0.8-1.9-1.9c0-1,0.8-1.9,1.9-1.9l0,0C52.4,38.4,53.2,39.2,53.2,40.3z"/>
<path class="st17" d="M66,37.7c0,0.7-0.5,1.2-1.2,1.2c-0.7,0-1.2-0.5-1.2-1.2c0-0.7,0.5-1.2,1.2-1.2l0,0C65.5,36.5,66,37,66,37.7z"
	/>
<path class="st16" d="M71.8,37.7c0,0.6-0.5,1.1-1.1,1.1c-0.6,0-1.1-0.5-1.1-1.1c0-0.6,0.5-1.1,1.1-1.1c0,0,0,0,0,0
	C71.3,36.5,71.8,37,71.8,37.7L71.8,37.7z"/>
<path class="st16" d="M62.7,40.1c0,1.1-0.9,2-2,2s-2-0.9-2-2s0.9-2,2-2S62.7,39,62.7,40.1z"/>
<path class="st10" d="M68.7,40.9c0,0.7-0.6,1.3-1.3,1.3c-0.7,0-1.3-0.6-1.3-1.3c0-0.7,0.6-1.3,1.3-1.3S68.7,40.1,68.7,40.9
	L68.7,40.9z"/>
<path class="st9" d="M35.6,40.4c0,0.9-0.8,1.7-1.7,1.7c-0.9,0-1.7-0.8-1.7-1.7c0-0.9,0.8-1.7,1.7-1.7S35.6,39.5,35.6,40.4
	C35.6,40.4,35.6,40.4,35.6,40.4z"/>
<path class="st15" d="M41.7,41c0,0.7-0.5,1.2-1.2,1.2s-1.2-0.5-1.2-1.2c0-0.7,0.5-1.2,1.2-1.2S41.7,40.3,41.7,41L41.7,41z"/>
<path class="st2" d="M19.7,41.1c0,0.6-0.5,1.1-1.1,1.1s-1.1-0.5-1.1-1.1c0-0.6,0.5-1.1,1.1-1.1c0,0,0,0,0,0
	C19.2,40,19.7,40.5,19.7,41.1z"/>
<path class="st2" d="M80,35.1c0.1,0.7-0.4,1.3-1.1,1.3c-0.7,0.1-1.3-0.4-1.3-1.1c0-0.1,0-0.1,0-0.2c0.1-0.7,0.7-1.2,1.3-1.1
	C79.5,34,79.9,34.5,80,35.1z"/>
<path class="st2" d="M58.1,63.6c0,1.8-1.5,3.3-3.3,3.3s-3.3-1.5-3.3-3.3c0-1.8,1.5-3.3,3.3-3.3C56.6,60.3,58.1,61.8,58.1,63.6
	C58.1,63.6,58.1,63.6,58.1,63.6z"/>
<path class="st3" d="M46,78.7c0,1.7-1.4,3.1-3.1,3.1c-1.7,0-3.1-1.4-3.1-3.1s1.4-3.1,3.1-3.1c0,0,0.1,0,0.1,0
	C44.7,75.7,46,77,46,78.7z"/>
<path class="st4" d="M61.2,76c0,0.7-0.6,1.3-1.3,1.3s-1.3-0.6-1.3-1.3c0-0.7,0.6-1.3,1.3-1.3C60.6,74.7,61.2,75.3,61.2,76L61.2,76z"
	/>
<path class="st4" d="M40.8,73.2c0,0.9-0.7,1.5-1.6,1.5s-1.5-0.7-1.5-1.6c0-0.9,0.7-1.5,1.5-1.5S40.8,72.4,40.8,73.2L40.8,73.2z"/>
<path class="st4" d="M77.5,68.4c0,1.5-1.2,2.8-2.8,2.8c-1.5,0-2.8-1.2-2.8-2.8c0-1.5,1.2-2.8,2.8-2.8c0,0,0,0,0,0
	C76.2,65.7,77.5,66.9,77.5,68.4z"/>
<circle class="st14" cx="64.6" cy="72.5" r="2.2"/>
<path class="st6" d="M27.8,61.2c0,1.8-1.4,3.2-3.1,3.2c-1.8,0-3.2-1.4-3.2-3.1c0-1.8,1.4-3.2,3.1-3.2c0,0,0,0,0,0
	C26.3,58,27.8,59.4,27.8,61.2z"/>
<path class="st10" d="M61.4,70c0,1.3-1.1,2.4-2.4,2.4s-2.4-1.1-2.4-2.4s1.1-2.4,2.4-2.4S61.4,68.7,61.4,70L61.4,70z"/>
<path class="st6" d="M71.6,71.3c0,0.8-0.6,1.4-1.4,1.4c-0.8,0-1.4-0.6-1.4-1.4c0-0.8,0.6-1.4,1.4-1.4S71.6,70.5,71.6,71.3
	C71.6,71.3,71.6,71.3,71.6,71.3z"/>
<path class="st5" d="M50.7,66.7c0,1.2-0.9,2.1-2.1,2.1s-2.1-0.9-2.1-2.1s0.9-2.1,2.1-2.1c0,0,0,0,0,0C49.7,64.5,50.7,65.5,50.7,66.7
	z"/>
<path class="st7" d="M46.1,61.5c0,1.9-1.5,3.5-3.5,3.5s-3.5-1.5-3.5-3.5c0-1.9,1.5-3.5,3.5-3.5c0,0,0,0,0,0
	C44.5,58,46.1,59.5,46.1,61.5z"/>
<path class="st7" d="M38.8,78.4c0,1.2-1,2.2-2.2,2.2s-2.2-1-2.2-2.2s1-2.2,2.2-2.2c0,0,0,0,0,0C37.8,76.2,38.8,77.2,38.8,78.4
	L38.8,78.4z"/>
<path class="st8" d="M59.5,80.2c0,1.5-1.2,2.7-2.7,2.7s-2.7-1.2-2.7-2.7c0-1.5,1.2-2.7,2.7-2.7l0,0C58.3,77.4,59.5,78.6,59.5,80.2
	C59.5,80.1,59.5,80.1,59.5,80.2z"/>
<path class="st8" d="M61.9,64.2c-0.1,0.7-0.6,1.1-1.3,1.1c-0.6-0.1-1-0.5-1.1-1.1c-0.1-0.7,0.4-1.2,1.1-1.3c0.7-0.1,1.2,0.4,1.3,1.1
	C61.9,64.1,61.9,64.2,61.9,64.2z"/>
<path class="st8" d="M31.1,65c0,0.9-0.7,1.6-1.5,1.6c-0.9,0-1.6-0.7-1.6-1.5s0.7-1.6,1.5-1.6c0,0,0,0,0,0
	C30.4,63.5,31.1,64.1,31.1,65L31.1,65z"/>
<path class="st10" d="M35.8,60c0,1.1-0.9,2-2,2s-2-0.9-2-2s0.9-2,2-2S35.8,58.9,35.8,60z"/>
<path class="st11" d="M52,81.2c0,1.3-1.1,2.4-2.4,2.4s-2.4-1.1-2.4-2.4s1.1-2.4,2.4-2.4S52,79.8,52,81.2L52,81.2z"/>
<path class="st11" d="M47.1,71.7c0,1.2-1,2.2-2.2,2.2s-2.2-1-2.2-2.2c0-1.2,1-2.2,2.2-2.2c0,0,0,0,0,0
	C46.1,69.4,47.1,70.4,47.1,71.7C47.1,71.7,47.1,71.7,47.1,71.7z"/>
<path class="st12" d="M66,78.3c0,1.1-0.9,2-2,2s-2-0.9-2-2s0.9-2,2-2S66,77.2,66,78.3z"/>
<path class="st13" d="M34.1,72.9c0,2-1.6,3.6-3.6,3.6s-3.6-1.6-3.6-3.6c0-2,1.6-3.6,3.6-3.6c0,0,0,0,0,0
	C32.5,69.3,34.1,70.9,34.1,72.9z"/>
<path class="st13" d="M71,64.8c0,2-1.6,3.7-3.7,3.7c-2,0-3.7-1.6-3.7-3.7c0-2,1.6-3.7,3.7-3.7c0,0,0,0,0,0
	C69.4,61.1,71,62.7,71,64.8z"/>
<circle class="st9" cx="18.5" cy="58.9" r="1"/>
<path class="st9" d="M55.4,73.4c0,1.8-1.4,3.3-3.2,3.3s-3.3-1.4-3.3-3.2s1.4-3.3,3.2-3.3c0,0,0,0,0,0C53.9,70.1,55.4,71.6,55.4,73.4
	z"/>
<path class="st15" d="M74.9,62c0,0.7-0.5,1.2-1.2,1.2c-0.7,0-1.2-0.5-1.2-1.2s0.5-1.2,1.2-1.2C74.3,60.8,74.9,61.4,74.9,62L74.9,62z
	"/>
<path class="st16" d="M80.3,64.2c0,0.8-0.6,1.5-1.5,1.5c-0.8,0-1.5-0.6-1.5-1.5c0-0.8,0.6-1.5,1.5-1.5c0,0,0,0,0,0
	C79.6,62.8,80.3,63.4,80.3,64.2z"/>
<path class="st16" d="M70.9,75.6c0,0.8-0.7,1.5-1.5,1.5S68,76.4,68,75.6s0.7-1.5,1.5-1.5l0,0C70.3,74.1,70.9,74.8,70.9,75.6z"/>
<path class="st16" d="M26.3,68.3c0,1.1-0.9,2-2,2s-2-0.9-2-2s0.9-2,2-2C25.4,66.3,26.3,67.2,26.3,68.3z"/>
<path class="st9" d="M77,59c0,0.6-0.4,1.1-1,1.1c-0.6,0-1.1-0.4-1.1-1c0-0.6,0.4-1.1,1-1.1c0,0,0,0,0,0C76.5,58,77,58.4,77,59z"/>
<path class="st4" d="M63.3,59.6c0,0.9-0.7,1.6-1.6,1.7c-0.9,0-1.6-0.7-1.7-1.6c0-0.9,0.7-1.6,1.6-1.7c0,0,0,0,0,0
	C62.6,58,63.3,58.7,63.3,59.6z"/>
<path class="st2" d="M70.8,59.1c0,0.6-0.5,1.1-1.1,1.1c-0.6,0-1.1-0.5-1.1-1.1c0-0.6,0.5-1.1,1.1-1.1c0,0,0,0,0,0
	C70.3,58,70.8,58.5,70.8,59.1z"/>
<path class="st15" d="M51.9,59.4c0,0.8-0.6,1.5-1.4,1.5c-0.8,0-1.5-0.6-1.5-1.4c0-0.8,0.6-1.5,1.4-1.5c0,0,0,0,0,0
	C51.3,58,51.9,58.6,51.9,59.4z"/>
<polygon class="st18" points="75,39.3 75,39.3 75,39.3 "/>
<path class="st0" d="M55.2,27.8c0.5,0,0.8-0.2,0.7-0.5s-0.4-0.5-0.8-0.3s-0.8,0.4-0.7,0.6S54.8,27.8,55.2,27.8z M55.2,29
	c0.6-0.1,1-0.4,1-0.6s-0.5-0.5-1.1-0.5s-1,0.2-1,0.6S54.7,29.1,55.2,29z M55.3,29.1c-0.7,0.1-1.3,0.4-1.3,0.7s0.6,0.6,1.3,0.7
	s1.3-0.2,1.3-0.7S56.1,29,55.3,29.1L55.3,29.1z"/>
<path class="st0" d="M25.2,67.6L25.2,67.6c0.1,0.5-0.1,1-0.4,1.3c-0.5,0.3-1.1,0.4-1.6,0.3H23v-0.1c0.1-0.6,0.4-1.1,0.8-1.5
	C24.2,67.3,24.7,67.3,25.2,67.6L25.2,67.6L25.2,67.6z M23.2,69c0.5,0.1,1,0,1.4-0.2c0.3-0.3,0.4-0.6,0.3-1c-0.3-0.2-0.7-0.2-1.1,0
	C23.6,68.1,23.3,68.5,23.2,69z"/>
<polygon class="st0" points="25.4,67.3 25.5,67.5 23.2,69.2 23.1,69 25.4,67.3 "/>
<polygon class="st0" points="24.7,67.9 24.6,68.1 23.7,67.9 23.8,67.7 24.7,67.9 "/>
<polygon class="st0" points="24,68.4 23.9,68.6 23.3,68.4 23.4,68.2 24,68.4 "/>
<polygon class="st0" points="24.7,68 24.7,68.9 24.5,68.9 24.5,68 24.7,68 "/>
<polygon class="st0" points="24,68.5 24,69.1 23.8,69.1 23.9,68.5 24,68.5 "/>
<path id="drop" class="st0" d="M65.6,73c-0.1-0.6-0.4-1.1-0.8-1.5c-0.1-0.1-0.2-0.1-0.2,0c0,0,0,0,0,0c-0.4,0.4-0.7,0.9-0.8,1.5
	c0.1,0.5,0.5,0.9,1,0.8C65.2,73.8,65.5,73.4,65.6,73z"/>
<polygon class="st18" points="32.7,24.1 32.7,24.1 32.7,24.1 "/>
<path class="st0" d="M33.9,24.2c0-0.2-0.2-0.3-0.5-0.4v-0.1c0,0,0-0.1-0.1-0.1c-0.2-0.1-0.4-0.1-0.6-0.1v-0.3H33
	c-0.1-0.2-0.3-0.2-0.5-0.1c0,0-0.1,0.1-0.1,0.1h0.1v0.3c-0.2,0-0.4,0-0.6,0.1c0,0-0.1,0.1-0.1,0.1V24h1.6c0.2,0,0.3,0.1,0.3,0.2
	s-0.2,0.2-0.4,0.3l0,0c-0.1-0.1,0-0.3,0.1-0.4H32c0.1,0.1,0.1,0.2,0.1,0.4c0,0,0,0.1-0.2,0.2c-0.1,0.1-0.2,0.3-0.2,0.4v2.3
	c0,0,0,0.3,0.5,0.3h1c0.5,0,0.5-0.3,0.5-0.3v-2.3c0-0.2-0.1-0.3-0.2-0.4l-0.1-0.1C33.7,24.6,33.9,24.4,33.9,24.2z"/>
<path class="st0" d="M53.6,18.9c-0.1,0.3,0.3,0.6,0.7,0.7s0.7-0.1,0.7-0.3s-0.1-0.5-0.5-0.6S53.7,18.7,53.6,18.9z M54.6,18.1
	c-0.3,0-0.6,0-0.8,0.1h-0.2h-0.4c-0.2,0-0.4,0-0.5,0.1c-0.1,0-0.1,0.1-0.2,0.2c0,0,0,0.1,0,0.1c0,0-0.1,0.1-0.1,0.1
	c0,0.1,0,0.2,0,0.2c0.1,0.1,0.2,0.2,0.4,0.3l0.3,0.2l0.2,0.1c0.2,0.2,0.4,0.3,0.7,0.5c0.3,0.1,0.6,0.1,0.9,0
	c0.3-0.1,0.5-0.4,0.6-0.7l0,0c0.1-0.3,0-0.6-0.1-0.9C55.2,18.3,54.9,18.1,54.6,18.1L54.6,18.1z M55.2,18.6c0.1,0.2,0.2,0.5,0.1,0.7
	l0,0c-0.1,0.2-0.2,0.4-0.5,0.6c-0.2,0.1-0.5,0.1-0.7,0c-0.2-0.1-0.5-0.3-0.7-0.4l-0.2-0.1L53,19.1c-0.1-0.1-0.2-0.2-0.3-0.2
	c0,0,0-0.1,0-0.1c0,0,0,0,0,0l0.1,0v-0.1c0,0,0-0.1,0.1-0.1c0.1,0,0.3-0.1,0.4-0.1c0.2,0,0.3,0,0.5,0h0.2c0.2-0.1,0.5-0.1,0.8-0.1
	C54.9,18.3,55.1,18.5,55.2,18.6L55.2,18.6z"/>
<path class="st0" d="M59.9,39.5c0.4,0.3,0.7,0.7,0.7,1.2c0-0.7-0.2-1.3-0.7-1.8c0.5,0.4,0.8,1,0.9,1.6c0.2-0.6,0.2-1.2,0-1.8
	c0.3,0.4,0.2,1,0.1,1.8c0.1-0.6,0.4-1.1,0.9-1.3c-0.5,0.4-0.8,1-0.8,1.6c0.1-0.5,0.5-0.9,0.9-1.1c-0.5,0.4-0.8,0.9-0.9,1.6h-0.7
	c-0.2-0.8-0.3-1.8-1.1-2c0.8,0.2,1.1,1,1.3,1.7C60.5,40.4,60.3,39.9,59.9,39.5L59.9,39.5z"/>
<path class="st0" d="M20.7,36.8c-0.1,0,0,0.2,0.1,0.2h2.7c0.1,0,0.3-0.2,0.1-0.2H20.7z M23.5,35c0.1,0,0.1,0,0.1,0.1s0,0,0,0v0.1
	c0,0.1,0,0.1,0,0.2l0,0c0,0.2-0.1,0.4-0.2,0.6l0,0c0.2,0,0.3-0.1,0.4-0.3c0.1-0.1,0.1-0.3,0-0.3c0,0-0.1,0-0.1-0.1l0,0
	c0-0.1,0-0.1,0-0.2h0.1c0.2,0,0.4,0.2,0.3,0.5c0,0.1,0,0.1-0.1,0.2c-0.2,0.2-0.4,0.4-0.7,0.4c-0.1,0.2-0.3,0.3-0.5,0.5h-1.1
	c-0.5-0.4-0.8-0.9-0.8-1.5c0-0.1,0-0.1,0.1-0.1L23.5,35z"/>
<path class="st0" d="M42.3,77.2L42.3,77.2c0.1,0,0.2,0,0.2,0.1c0,0,0,0,0,0.1l0.2,0.8h0.2l-0.2-0.8c0-0.2-0.2-0.3-0.4-0.3
	c0,0,0,0,0,0h-0.1l-0.7,0.3c-0.1,0,0,0.2,0.1,0.2L42.3,77.2z"/>
<path class="st0" d="M44.1,77.9c0-0.1-0.5-0.2-1.1-0.2l0,0l0.1,0.3C43.6,78.1,44.1,78,44.1,77.9z"/>
<path class="st0" d="M44.2,78.1L44.2,78.1c-0.1,0.1-0.2,0.1-0.4,0.1c-0.3,0-0.5,0-0.8,0c-0.2,0-0.5,0-0.7,0l0,0
	c-0.1,0-0.3-0.1-0.4-0.1l0,0c-0.2,0.2-0.2,0.5-0.2,0.8c0,0.5,0.2,1,0.7,1.2c0.2,0.1,0.5,0.2,0.7,0.2c0.8,0,1.4-0.7,1.4-1.5
	C44.5,78.6,44.4,78.3,44.2,78.1z"/>
<path class="st0" d="M42.3,77.8c-0.2,0-0.3,0.1-0.3,0.1S42,78,42.3,78h0.3l-0.1-0.3L42.3,77.8z"/>
<path class="st19" d="M19.2,46.1c0.7,0,1.4,0.2,2,0.6c0.2,0.1,0.2,0.3,0.1,0.5c0,0,0,0,0,0l-0.1,0.3c-0.1,0.2-0.3,0.2-0.5,0.1
	c-0.4-0.3-0.9-0.4-1.4-0.4c-1.1,0-2.1,0.9-2.1,2.1c0,0.1,0,0.1,0,0.2c-0.1,1.2,0.8,2.2,1.9,2.3c0,0,0.1,0,0.1,0
	c0.6,0,1.2-0.3,1.6-0.7v-0.7h-0.6c-0.2,0-0.3-0.1-0.4-0.3c0,0,0,0,0,0v-0.2c0-0.3,0.1-0.4,0.4-0.4h1.2c0.2,0,0.4,0.1,0.4,0.4v2.7
	c0,0.3-0.1,0.4-0.4,0.4h-0.2c-0.2,0-0.3-0.1-0.3-0.3c0,0,0,0,0-0.1v-0.2c0-0.1,0-0.1,0-0.2l0,0c-0.5,0.5-1.1,0.8-1.8,0.7
	c-1.7-0.1-3.1-1.6-3-3.3c0,0,0-0.1,0-0.1c-0.1-1.8,1.2-3.3,3-3.4C19.1,46.1,19.1,46.1,19.2,46.1z"/>
<path class="st19" d="M24.7,48c1.1,0,2,0.9,2,2c0,0.1,0,0.1,0,0.2c0,0.2-0.2,0.4-0.4,0.4c0,0,0,0,0,0h-2.7c0,0.7,0.6,1.3,1.3,1.3
	c0,0,0,0,0,0c0.4,0,0.7-0.1,1-0.3c0.1-0.1,0.3-0.1,0.4,0.1c0,0,0,0,0,0.1l0.1,0.2c0.1,0.2,0.1,0.4-0.1,0.5c0,0,0,0,0,0
	c-0.4,0.3-1,0.5-1.5,0.5c-1.3,0-2.4-1-2.4-2.3c0-0.1,0-0.1,0-0.2c-0.1-1.2,0.8-2.3,2-2.5C24.6,48,24.6,48,24.7,48z M25.6,49.9
	c0-0.7-0.4-1-0.9-1c-0.6,0-1,0.4-1.1,1H25.6z"/>
<path class="st19" d="M27.1,52.4c0-0.2,0.1-0.3,0.2-0.4l1.8-2.5c0.1-0.2,0.2-0.3,0.4-0.4l0,0c-0.1,0-0.3,0-0.4,0h-1.5
	c-0.2,0-0.4-0.1-0.4-0.4v-0.2c0-0.2,0.1-0.4,0.4-0.4h3c0.2,0,0.4,0.1,0.4,0.3v0.1c0,0.2-0.1,0.3-0.2,0.4L29,51.4
	c-0.1,0.2-0.2,0.3-0.4,0.4l0,0c0.1,0,0.3,0,0.4,0h1.6c0.2,0,0.4,0.1,0.4,0.4v0.2c0,0.3-0.1,0.4-0.4,0.4h-3.2
	C27.3,52.8,27.1,52.7,27.1,52.4L27.1,52.4z"/>
<path class="st19" d="M34,48c1.4,0,2.5,1.1,2.5,2.4s-1.1,2.5-2.4,2.5s-2.5-1.1-2.5-2.4c0,0,0,0,0,0C31.5,49.1,32.6,48,34,48
	C33.9,48,34,48,34,48z M34,52c0.8,0,1.3-0.7,1.3-1.4c0,0,0,0,0-0.1c0.1-0.7-0.4-1.4-1.1-1.5c-0.7-0.1-1.4,0.4-1.5,1.1
	c0,0.1,0,0.2,0,0.3C32.7,51.2,33.2,51.9,34,52C34,51.9,34,51.9,34,52L34,52z"/>
<path class="st19" d="M37.2,48.5c0-0.2,0.1-0.4,0.3-0.4h0.3c0.2,0,0.4,0.1,0.4,0.4v0.3c0,0.1,0,0.1,0,0.2l0,0c0.3-0.6,0.9-1,1.6-1
	c1,0,1.5,0.5,1.5,1.8v2.7c0,0.3-0.1,0.4-0.4,0.4h-0.4c-0.2,0-0.4-0.1-0.4-0.4V50c0-0.6-0.1-1-0.7-1c-0.8,0.1-1.3,0.7-1.3,1.5
	c0,0,0,0,0,0.1v1.9c0,0.3-0.1,0.4-0.4,0.4h-0.4c-0.2,0-0.3-0.1-0.3-0.4L37.2,48.5z"/>
<path class="st19" d="M44.2,48c0.5,0,1,0.2,1.3,0.7l0,0c0-0.1,0-0.2,0-0.3v-1.8c0-0.2,0.1-0.4,0.4-0.4h0.4c0.2,0,0.3,0.1,0.3,0.4
	v5.8c0,0.3-0.1,0.4-0.3,0.4h-0.3c-0.2,0-0.3-0.1-0.4-0.3c0,0,0,0,0-0.1v-0.2c0-0.1,0-0.1,0-0.2l0,0c-0.3,0.5-0.8,0.8-1.4,0.8
	c-1.2,0-2-1-2-2.5S43,48,44.2,48z M44.4,52c0.6,0,1.1-0.5,1.1-1.5c0-0.7-0.4-1.5-1.1-1.5s-1.1,0.5-1.1,1.5S43.7,51.9,44.4,52
	L44.4,52z"/>
<path class="st19" d="M47.6,46.6c0-0.2,0.1-0.4,0.3-0.4c0,0,0,0,0.1,0h0.4c0.2,0,0.4,0.1,0.4,0.4v1.9c0,0.1,0,0.3,0,0.4l0,0
	c0.3-0.6,0.9-1,1.5-1c1,0,1.5,0.5,1.5,1.8v2.7c0,0.3-0.1,0.4-0.4,0.4h-0.4c-0.2,0-0.4-0.1-0.4-0.4V50c0-0.6-0.1-1-0.7-1
	c-0.8,0-1.3,0.7-1.3,1.6v1.8c0,0.3-0.1,0.4-0.4,0.4H48c-0.2,0-0.4-0.1-0.4-0.4L47.6,46.6z"/>
<path class="st19" d="M54.8,48c1.1,0,2,0.9,2,2c0,0.1,0,0.2,0,0.3c0,0.2-0.2,0.4-0.4,0.4h-2.7c0,0.7,0.6,1.3,1.3,1.2
	c0.3,0,0.7-0.1,1-0.3c0.1-0.1,0.3-0.1,0.4,0.1c0,0,0,0,0,0.1l0.1,0.2c0.1,0.2,0.1,0.4-0.1,0.5c0,0,0,0,0,0c-0.4,0.3-1,0.5-1.5,0.5
	c-1.3,0-2.4-1-2.4-2.3c0-0.1,0-0.1,0-0.2c-0.1-1.3,0.9-2.3,2.1-2.4C54.7,48,54.7,48,54.8,48z M55.6,49.9c0-0.7-0.4-1-0.9-1
	c-0.6,0-1,0.4-1.1,1H55.6z"/>
<path class="st19" d="M57.5,46.9v-0.3c0-0.2,0.1-0.4,0.4-0.4h0.4c0.2,0,0.3,0.1,0.4,0.3c0,0,0,0,0,0.1v0.3c0,0.2-0.1,0.3-0.3,0.4
	c0,0-0.1,0-0.1,0h-0.4C57.7,47.3,57.5,47.1,57.5,46.9z M57.5,48.5c0-0.2,0.1-0.4,0.4-0.4h0.4c0.2,0,0.3,0.1,0.3,0.4v4
	c0,0.3-0.1,0.4-0.3,0.4h-0.4c-0.2,0-0.4-0.1-0.4-0.4V48.5z"/>
<path class="st19" d="M61.5,48c0.5,0,1,0.2,1.3,0.7l0,0c0-0.1,0-0.2,0-0.3v-1.8c0-0.2,0.1-0.4,0.4-0.4h0.4c0.2,0,0.3,0.1,0.3,0.4
	v5.8c0,0.3-0.1,0.4-0.3,0.4h-0.3c-0.2,0-0.3-0.1-0.4-0.3c0,0,0,0,0-0.1v-0.2c0-0.1,0-0.1,0-0.2l0,0c-0.3,0.5-0.8,0.8-1.4,0.8
	c-1.2,0-2-1-2-2.5S60.3,48,61.5,48z M61.7,52c0.6,0,1.1-0.5,1.1-1.5c0-0.7-0.4-1.5-1.1-1.5s-1.1,0.5-1.1,1.5S61,51.9,61.7,52
	L61.7,52z"/>
<path class="st19" d="M64.7,51.9l0.1-0.2c0.1-0.2,0.3-0.2,0.5-0.1c0.3,0.2,0.6,0.3,1,0.3c0.4,0,0.6-0.2,0.6-0.5
	c0-0.8-2.2-0.5-2.2-2.1c0.1-0.8,0.8-1.4,1.6-1.4c0,0,0,0,0.1,0c0.4,0,0.9,0.1,1.2,0.3c0.2,0.1,0.2,0.3,0.2,0.5c0,0,0,0,0,0L67.7,49
	c-0.1,0.2-0.3,0.2-0.5,0.2C67,49,66.7,49,66.4,49c-0.4,0-0.6,0.2-0.6,0.5c0,0.8,2.2,0.5,2.2,2.1c0,0.8-0.8,1.5-1.6,1.4
	c0,0-0.1,0-0.1,0c-0.5,0-1-0.2-1.5-0.5C64.7,52.3,64.6,52.1,64.7,51.9C64.7,51.9,64.7,51.9,64.7,51.9z"/>
<path class="st19" d="M69,46.6c0-0.2,0.1-0.4,0.4-0.4h1.8c0.9-0.1,1.8,0.5,1.9,1.5c0,0.1,0,0.2,0,0.2c0,0.6-0.3,1.1-0.7,1.4l0,0
	c0.6,0.2,1,0.9,1,1.5c0,1-0.8,1.9-1.8,1.9c-0.1,0-0.2,0-0.3,0h-1.9c-0.2,0-0.4-0.1-0.4-0.4L69,46.6z M71.2,48.9
	c0.4,0,0.8-0.3,0.8-0.8c0,0,0,0,0-0.1c0-0.4-0.2-0.8-0.7-0.8c0,0-0.1,0-0.1,0h-1.1v1.7L71.2,48.9z M71.3,51.8
	c0.5-0.2,0.8-0.7,0.6-1.3c-0.1-0.3-0.3-0.5-0.6-0.6h-1.2v1.9H71.3z"/>
<path class="st19" d="M76.3,48c1.4,0,2.5,1.1,2.5,2.4c0,1.4-1.1,2.5-2.4,2.5s-2.5-1.1-2.5-2.4c0,0,0,0,0-0.1
	C73.9,49.1,74.9,48,76.3,48C76.3,48,76.3,48,76.3,48z M76.3,52c0.8,0,1.3-0.7,1.3-1.4c0,0,0,0,0-0.1c0.1-0.7-0.5-1.4-1.2-1.4
	c-0.7-0.1-1.4,0.5-1.4,1.2c0,0.1,0,0.2,0,0.2C75,51.2,75.6,51.9,76.3,52C76.3,51.9,76.3,51.9,76.3,52L76.3,52z"/>
<path class="st19" d="M79.6,48.5c0-0.2,0.1-0.4,0.3-0.4h0.3c0.2,0,0.3,0.1,0.3,0.4v0.3c0,0.1,0,0.2,0,0.2l0,0c0.3-0.6,0.9-1,1.6-1
	c1,0,1.5,0.5,1.5,1.8v2.7c0,0.3-0.1,0.4-0.4,0.4H83c-0.2,0-0.4-0.1-0.4-0.4V50c0-0.6-0.1-1-0.7-1c-0.8,0.1-1.3,0.7-1.3,1.5
	c0,0,0,0,0,0.1v1.9c0,0.3-0.1,0.4-0.4,0.4h-0.4c-0.2,0-0.3-0.1-0.3-0.4L79.6,48.5z"/>
<path class="st0" d="M26,61.5L26,61.5C26,61.5,26,61.4,26,61.5C26,61.4,26,61.4,26,61.5c-0.1-0.3-0.3-0.7-0.5-1
	c-0.1-0.1-0.2-0.3-0.2-0.4L25.2,60c-0.1-0.1-0.2-0.2-0.3-0.2c-0.1,0-0.2,0-0.3,0c0,0-0.1,0-0.1,0.1c0,0,0,0.1,0.1,0.1
	c0.1,0,0.2,0,0.3,0c0.1,0,0.2,0.1,0.2,0.1l0.1,0.1l0.2,0.4c0.2,0.3,0.4,0.7,0.5,0.9C25.8,61.5,25.9,61.5,26,61.5
	C25.9,61.6,26,61.5,26,61.5z"/>
<path class="st0" d="M24.3,61.5C24.3,61.5,24.3,61.5,24.3,61.5l-0.6-1.3c0,0,0-0.1,0-0.1s0.1,0,0.1,0c0,0,0,0,0,0l0.1,0.2h1.5l0.1,0
	c0,0,0,0,0,0.1c0,0,0,0,0,0.1l-1.1,1C24.4,61.5,24.4,61.5,24.3,61.5L24.3,61.5z M24,60.5l0.4,0.8l0.9-0.8H24z"/>
<path class="st0" d="M23.2,61.5h1.1c0.1,0,0.1,0,0.1-0.1s0-0.1-0.1-0.1h-1.1C23.2,61.3,23.1,61.4,23.2,61.5
	C23.1,61.4,23.2,61.5,23.2,61.5z"/>
<path class="st0" d="M26,62.3L26,62.3c0.5,0,0.9-0.5,0.9-0.9c0-0.5-0.4-0.8-0.9-0.8c0,0,0,0,0,0h-0.1c0,0-0.1,0-0.1,0.1
	c0,0,0,0.1,0.1,0.1h0.1c0.4,0,0.7,0.3,0.8,0.7c0,0.2-0.1,0.4-0.2,0.5c-0.1,0.1-0.3,0.2-0.5,0.2c-0.2,0-0.4,0-0.5-0.2
	c-0.1-0.1-0.2-0.3-0.2-0.5c0-0.2,0-0.4,0.2-0.5c0,0,0-0.1,0-0.1c0,0,0,0,0,0c0,0-0.1,0-0.1,0c0,0,0,0,0,0c-0.2,0.2-0.2,0.4-0.2,0.6
	c0,0.2,0.1,0.4,0.3,0.6C25.6,62.2,25.8,62.3,26,62.3z"/>
<path class="st0" d="M22.4,61L22.4,61c-0.1,0.3-0.1,0.5,0,0.7c0.2,0.5,0.7,0.7,1.1,0.5c0.2-0.1,0.4-0.2,0.5-0.4c0,0,0-0.1,0-0.1
	c0,0,0-0.1,0-0.1c0,0,0,0,0,0c0,0-0.1,0-0.1,0c0,0,0,0,0,0v0.1c-0.2,0.4-0.6,0.5-0.9,0.4c0,0,0,0-0.1,0c-0.2-0.1-0.3-0.2-0.4-0.4
	c-0.1-0.4,0-0.8,0.4-0.9c0,0,0,0,0,0c0.2-0.1,0.4-0.1,0.5,0c0.2,0.1,0.3,0.2,0.4,0.4c0,0,0.1,0,0.1,0c0,0,0-0.1,0-0.1c0,0,0,0,0,0
	c-0.1-0.2-0.2-0.4-0.5-0.5c-0.2-0.1-0.5-0.1-0.7,0C22.7,60.6,22.5,60.8,22.4,61z"/>
<path class="st0" d="M23.2,62.3c0.3,0,0.6-0.2,0.8-0.5c0,0,0-0.1,0-0.1c0,0,0-0.1,0-0.1c0,0,0,0,0,0c0,0-0.1,0-0.1,0v0.1
	c-0.2,0.4-0.6,0.5-1,0.4c0,0,0,0,0,0c-0.4-0.2-0.5-0.6-0.3-1c0,0,0,0,0,0c0.1-0.2,0.2-0.3,0.4-0.4c0,0,0-0.1,0-0.1c0,0,0,0,0,0
	c0,0,0,0-0.1,0c-0.2,0.1-0.4,0.2-0.5,0.4c-0.2,0.4,0,1,0.4,1.2C22.9,62.2,23.1,62.3,23.2,62.3z"/>
<path class="st0" d="M24,60.2C24,60.2,24.1,60.1,24,60.2c0.1-0.1,0.1-0.2,0-0.2c0,0,0,0,0,0h-0.6c0,0-0.1,0-0.1,0.1
	c0,0,0,0.1,0.1,0.1L24,60.2L24,60.2z"/>
<path class="st20" d="M29.5,75.1h1.8v-0.2h-1.8V75.1z M29.9,73.3L29.9,73.3L29.6,71v-0.2c0.6-0.2,1.2-0.2,1.8,0V71l-0.1,0.6h0.1
	c0.2,0,0.4,0.2,0.4,0.4c0,0.2,0,0.4,0,0.7c0,0.2-0.1,0.4-0.3,0.5h-0.1c0,0-0.1,0-0.1,0c0,0,0-0.1,0-0.1c0,0,0,0,0,0h0.1
	c0.1-0.1,0.2-0.2,0.2-0.3c0-0.2,0-0.4,0-0.6c0-0.1-0.1-0.2-0.2-0.2h-0.1L31,73.3h0.1l0.2,1.4h-1.7L29.9,73.3L29.9,73.3z M30.8,73.3
	L30.8,73.3l0.3-2.3h-1.4l0.3,2.3C30,73.3,30.8,73.3,30.8,73.3z M30.4,73.8L30.4,73.8c-0.1,0-0.2,0-0.3,0.1c-0.1,0.1-0.1,0.2-0.1,0.3
	l0,0c0,0.1,0,0.2,0.1,0.2c0.1,0.1,0.2,0.1,0.3,0.1l0,0c0.1,0,0.2,0,0.3-0.1c0.1-0.1,0.1-0.2,0.1-0.2l0,0c0-0.1,0-0.2-0.1-0.3
	C30.6,73.8,30.5,73.8,30.4,73.8z M30.4,73.9L30.4,73.9c-0.1,0-0.2,0.1-0.2,0.2l0,0c0,0.1,0,0.1,0.1,0.2c0,0,0.1,0.1,0.2,0.1l0,0
	c0.1,0,0.1,0,0.2-0.1c0,0,0.1-0.1,0.1-0.2l0,0C30.7,74,30.6,73.9,30.4,73.9z"/>
<g id="drugs">
	<path class="st0" d="M42.6,59.8c0,0.1-0.1,0.2-0.2,0.2c0,0,0,0,0,0h-0.9c-0.1,0-0.2-0.1-0.2-0.2c0,0,0,0,0,0l0,0
		c0-0.1,0.1-0.2,0.2-0.2c0,0,0,0,0,0h0.9C42.5,59.6,42.6,59.7,42.6,59.8C42.6,59.8,42.6,59.8,42.6,59.8z"/>
	<path class="st0" d="M43.9,60.8c0,0.1,0,0.1-0.1,0.1c0,0,0,0,0,0h-0.4c-0.1,0-0.1,0-0.1-0.1c0,0,0,0,0,0l0,0c0-0.1,0-0.1,0.1-0.1
		l0,0h0.4C43.9,60.7,43.9,60.8,43.9,60.8C43.9,60.8,43.9,60.8,43.9,60.8z"/>
	<path class="st0" d="M42.5,60.3h-1c-0.3,0-0.6,0.3-0.6,0.6v0v1.5c0,0.3,0.2,0.6,0.6,0.6c0,0,0,0,0,0h1c0-0.1,0-0.2,0-0.3v-1
		c0-0.3,0.3-0.6,0.6-0.7v-0.1C43,60.6,42.8,60.3,42.5,60.3C42.5,60.3,42.5,60.3,42.5,60.3z"/>
	<path class="st0" d="M43.8,61.2h-0.4c-0.3,0-0.6,0.3-0.6,0.6v0v0.8c0,0.3,0.2,0.6,0.6,0.6c0,0,0,0,0,0h0.4c0.3,0,0.6-0.3,0.6-0.6
		c0,0,0,0,0,0v-0.8C44.4,61.4,44.1,61.2,43.8,61.2L43.8,61.2z"/>
</g>
<polygon class="st0" points="53.4,63.5 53.1,63 53.4,62.4 54,62.4 54.4,63 54,63.5 "/>
<polygon class="st0" points="54.5,62.9 54.2,62.3 54.5,61.8 55.1,61.8 55.5,62.3 55.1,62.9 "/>
<polygon class="st0" points="54.6,64 54.3,63.6 54.6,63.2 55,63.2 55.3,63.6 55,64 "/>
<polygon class="st0" points="55.6,63.5 55.2,63 55.6,62.4 56.2,62.4 56.5,63 56.2,63.5 "/>
<polygon class="st0" points="53.4,64.8 53.1,64.2 53.4,63.6 54,63.6 54.4,64.2 54,64.8 "/>
<polygon class="st0" points="55.6,64.8 55.2,64.2 55.6,63.6 56.2,63.6 56.5,64.2 56.2,64.8 "/>
<polygon class="st0" points="54.5,65.4 54.2,64.8 54.5,64.3 55.1,64.3 55.5,64.8 55.1,65.4 "/>
<path class="st0" d="M44.4,71.1v1.2c0,0.2-0.1,0.3-0.3,0.3c-0.2,0-0.3-0.2-0.3-0.3l0,0c-0.2,0-0.3-0.1-0.3-0.3v-0.5
	c0-0.2,0.1-0.3,0.3-0.3l0,0c0-0.2,0.1-0.4,0.3-0.4C44.3,70.8,44.4,70.9,44.4,71.1L44.4,71.1z M45.4,71.1v1.2c0,0.2,0.1,0.3,0.3,0.3
	c0.1,0,0.3-0.2,0.3-0.3l0,0c0.2,0,0.3-0.1,0.3-0.3l0,0v-0.5c0-0.2-0.1-0.3-0.3-0.3l0,0c0-0.2-0.1-0.4-0.3-0.4
	C45.5,70.8,45.4,70.9,45.4,71.1C45.4,71,45.3,71.1,45.4,71.1L45.4,71.1z M45.3,71.5L45.3,71.5h-0.7l0,0v0.3l0,0h0.7l0,0V71.5z"/>
<path class="st0" d="M54.3,72.4h-0.2v1.9h-0.2h-0.3c-0.5,0-1,0.1-1.3,0.4l-0.1,0.1h2.1V72.4z"/>
<path class="st0" d="M53.6,72c-0.5,0-1,0.1-1.5,0.4v2.1c0.4-0.3,0.9-0.5,1.5-0.4H54v-2.1L53.6,72z M53.8,74h-0.2
	c-0.5,0-0.9,0.1-1.3,0.3v-1.8c0.4-0.2,0.9-0.4,1.3-0.3h0.2V74z"/>
<path class="st0" d="M50,72.4h0.2v1.9h0.2h0.3c0.5,0,1,0.1,1.4,0.4l0.1,0.1H50V72.4z"/>
<path class="st0" d="M50.3,72.1v2.1h0.4c0.5,0,1,0.1,1.5,0.4v-2.1c-0.4-0.3-0.9-0.5-1.5-0.4L50.3,72.1z M50.5,72.2h0.2
	c0.5,0,0.9,0.1,1.3,0.3v1.8c-0.4-0.2-0.9-0.3-1.3-0.3h-0.2V72.2z"/>
<path class="st0" d="M56.3,81.2h-0.6l0,0v0.4l0,0c0.1,0,0.2,0,0.3,0c0.1,0,0.2,0,0.3,0l0,0V81.2C56.3,81.2,56.4,81.2,56.3,81.2z"/>
<path class="st0" d="M57.7,81h-1l0,0v0.6l0,0c0.2,0.1,0.3,0.1,0.5,0.1c0.2,0,0.3,0,0.5-0.1l0,0L57.7,81L57.7,81z"/>
<path class="st0" d="M58,78.6L58,78.6h-1.5l0,0v0.1l0,0c0.1,0.2,0.1,0.4,0.1,0.6V80c0,0,0,0.1,0,0.1l0,0c0,0.3,0,0.6,0,0.7h1.1
	c0-0.1,0-0.4,0-0.7l0,0c0-0.2,0-0.4,0-0.5s0-0.3,0-0.3l0,0c0-0.2,0-0.4,0.1-0.6l0,0L58,78.6z"/>
<path class="st0" d="M55.6,79.8L55.6,79.8L55.6,79.8L55.6,79.8c0,0.1,0,0.1,0,0.1l0,0l0,0l0,0c0,0,0,0,0,0.1l0,0v0.2
	c0,0,0,0.7,0,0.9h0.7c0-0.2,0.1-0.9,0.1-0.9c0,0,0-0.1,0-0.1l0,0l0,0l0,0l0,0l0,0l0,0c0,0,0,0,0-0.1l0,0v-0.1l0,0L55.6,79.8z"/>
<path class="st0" d="M75.3,68.1c0.2-0.2,0.3-0.4,0.3-0.6c0-0.3-0.2-0.5-0.5-0.6h-1c-0.3,0.1-0.4,0.3-0.5,0.6c0,0.3,0.2,0.5,0.4,0.6
	l0,0c-0.4,0.4-0.5,1-0.1,1.5c0.4,0.4,1,0.5,1.5,0.1c0.2-0.2,0.4-0.5,0.4-0.8C75.8,68.6,75.6,68.3,75.3,68.1z M74,67.5
	c0-0.1,0.1-0.3,0.2-0.3h0.9c0.1,0,0.3,0.1,0.2,0.3c0,0.2-0.2,0.4-0.3,0.5c-0.1,0-0.2-0.1-0.3-0.1c-0.1,0-0.3,0-0.4,0.1l0,0
	C74.3,68,74,67.7,74,67.5z"/>
<path class="st0" d="M69,32.2c-0.1-0.1-0.1-0.1-0.2-0.1c-0.1,0-0.2-0.1-0.3,0c-0.1,0-0.3,0-0.4,0.1c-0.1,0.1-0.3,0.1-0.4,0.2
	c-0.1-0.1-0.3-0.2-0.4-0.2C67.2,32,67,32,66.9,32c-0.2,0-0.4,0.1-0.5,0.2c-0.1,0.2-0.2,0.4-0.2,0.6c0,0.2,0.1,0.5,0.2,0.7
	c0.2,0.2,0.3,0.4,0.5,0.6c0.2,0.2,0.5,0.5,0.8,0.7l0,0l0,0c0.3-0.2,0.5-0.4,0.8-0.7c0.2-0.2,0.4-0.4,0.5-0.6
	c0.1-0.2,0.2-0.4,0.2-0.7C69.2,32.5,69.1,32.3,69,32.2z"/>
<path class="st0" d="M73,30.9c-0.2,0-0.4-0.2-0.4-0.4c0-0.2,0.2-0.4,0.4-0.4c0,0,0,0,0,0c0.2,0,0.4,0.2,0.4,0.4
	C73.5,30.7,73.3,30.9,73,30.9C73,30.9,73,30.9,73,30.9z M73,30.2c-0.2,0-0.3,0.1-0.3,0.2c0,0.2,0.1,0.3,0.2,0.3c0,0,0.1,0,0.1,0
	c0.2,0,0.3-0.1,0.3-0.2c0-0.2-0.1-0.3-0.2-0.3C73.1,30.2,73,30.2,73,30.2z"/>
<path class="st0" d="M73.2,30.5c0,0.1-0.1,0.1-0.1,0.1s-0.1-0.1-0.1-0.1c0-0.1,0.1-0.1,0.1-0.1C73.1,30.3,73.2,30.4,73.2,30.5z"/>
<path class="st0" d="M76.1,30h-1.6c0.1-0.1,0.1-0.2,0.1-0.4c0-0.4-0.3-0.7-0.8-0.8c-0.1,0-0.2,0-0.3,0.1h-0.1l0,0L73.5,29l-0.9,0.8
	c-0.2,0.1-0.3,0.4-0.3,0.6c0,0.4,0.3,0.7,0.6,0.8H75L76.1,30z M72.4,30.5c0-0.3,0.2-0.6,0.6-0.6c0,0,0,0,0,0c0.3,0,0.6,0.3,0.6,0.6
	c0,0,0,0,0,0c0,0.3-0.3,0.6-0.6,0.6C72.7,31.1,72.4,30.8,72.4,30.5C72.4,30.5,72.4,30.5,72.4,30.5z M73.4,31l0.2-0.1l0.8-0.7h1.3
	l-0.8,0.9L73.4,31z"/>
<path class="st20" d="M74.2,39.2c0.2-0.2,0.6-0.4,0.9-0.3c0,0.1,0,0.1,0,0.2c-0.2,0.5-0.5,0.8-1,1h-0.2C73.8,39.8,74,39.5,74.2,39.2
	L74.2,39.2z M75.2,38.9c0,0.1,0,0.2,0,0.2c-0.1,0.3-0.2,0.5-0.4,0.7c-0.2,0.2-0.4,0.3-0.7,0.4c-0.1,0-0.2,0-0.2,0
	c0,0.2,0.2,0.4,0.3,0.6c0.2,0.2,0.4,0.3,0.6,0.3c0-0.1,0-0.2,0-0.2c0.1-0.3,0.2-0.5,0.4-0.7c0.2-0.2,0.4-0.3,0.7-0.4
	c0.1,0,0.2,0,0.2,0c0-0.2-0.2-0.4-0.3-0.6C75.7,39.1,75.5,38.9,75.2,38.9L75.2,38.9z M76.2,40c0,0.3-0.1,0.6-0.3,0.9
	c-0.2,0.2-0.6,0.4-0.9,0.3c0-0.1,0-0.1,0-0.2c0.1-0.2,0.2-0.4,0.4-0.6c0.2-0.2,0.4-0.3,0.6-0.4L76.2,40z"/>
<path class="st0" d="M51.1,33.5c0-0.9-0.8-1.6-1.8-1.6c-0.8,0-1.5,0.7-1.6,1.5l0,0v0.2l0,0c0.1,0.9,0.9,1.6,1.8,1.5
	C50.4,35,51.1,34.3,51.1,33.5z M50.1,33.4c0-0.2,0-0.4-0.1-0.6c0.2-0.1,0.3-0.1,0.5-0.3c0.2,0.2,0.3,0.5,0.3,0.8L50.1,33.4z
	 M50,32.7c0-0.2-0.1-0.4-0.2-0.5c0.2,0.1,0.5,0.2,0.6,0.3C50.3,32.6,50.2,32.6,50,32.7L50,32.7z M49.5,32.1c0.1,0,0.3,0.2,0.4,0.6
	c-0.3,0.1-0.5,0.1-0.8,0C49.2,32.3,49.3,32.1,49.5,32.1L49.5,32.1z M48.9,32.7c-0.1,0-0.3-0.1-0.4-0.2c0.2-0.2,0.4-0.3,0.6-0.3
	C49,32.3,48.9,32.5,48.9,32.7L48.9,32.7z M49.5,32.9c0.2,0,0.3,0,0.5,0c0,0.2,0.1,0.3,0,0.5h-1c0-0.2,0-0.3,0-0.5
	C49.1,32.9,49.3,33,49.5,32.9L49.5,32.9z M50,33.6c0,0.2,0,0.4-0.1,0.6c-0.1,0-0.3-0.1-0.4-0.1c-0.1,0-0.3,0-0.4,0.1
	c0-0.2-0.1-0.4-0.1-0.6H50z M49.5,34.3c0.1,0,0.3,0,0.4,0c-0.1,0.4-0.3,0.6-0.4,0.6s-0.3-0.2-0.4-0.6C49.2,34.3,49.3,34.3,49.5,34.3
	L49.5,34.3z M49.2,34.9c-0.2-0.1-0.4-0.2-0.6-0.3c0.1-0.1,0.2-0.1,0.4-0.2C49,34.6,49,34.7,49.2,34.9L49.2,34.9z M50,34.4
	c0.1,0,0.3,0.1,0.4,0.2c-0.2,0.1-0.4,0.2-0.6,0.3C49.9,34.7,50,34.6,50,34.4L50,34.4z M50,34.2c0-0.2,0.1-0.4,0.1-0.6h0.7
	c0,0.3-0.2,0.6-0.4,0.9C50.3,34.3,50.2,34.3,50,34.2L50,34.2z M48.4,32.6c0.1,0.1,0.3,0.2,0.5,0.3c0,0.2-0.1,0.4-0.1,0.6H48
	C48,33.1,48.2,32.8,48.4,32.6L48.4,32.6z M48,33.6h0.7c0,0.2,0,0.4,0.1,0.6c-0.2,0.1-0.3,0.1-0.5,0.2C48.2,34.2,48.1,33.9,48,33.6
	L48,33.6z"/>
<path class="st0" d="M67.5,25.2v1.1c0,0.1,0,0.1,0.1,0.1h0.8v-1.2H67.5z"/>
<path class="st0" d="M68.7,25.2v1.2h0.8c0.1,0,0.1,0,0.1-0.1v-1.1H68.7z"/>
<path class="st0" d="M67.3,24.4V25c0,0.1,0,0.1,0.1,0.1h1v-0.7L67.3,24.4C67.3,24.4,67.3,24.4,67.3,24.4z"/>
<path class="st0" d="M69.7,24.4h-1v0.7h1c0,0,0.1,0,0.1-0.1c0,0,0,0,0,0L69.7,24.4C69.8,24.4,69.7,24.4,69.7,24.4z"/>
<path class="st0" d="M69.5,23.5c-0.1-0.1-0.2-0.2-0.4-0.2c-0.1,0-0.2,0-0.2,0.1c-0.1,0.1-0.2,0.3-0.3,0.5c-0.1-0.2-0.2-0.3-0.3-0.5
	c-0.1-0.1-0.2-0.1-0.2-0.1c-0.2,0-0.3,0.1-0.4,0.2c-0.1,0.1-0.1,0.2,0,0.3c0.1,0.1,0.2,0.2,0.3,0.3c0.1,0.1,0.3,0.1,0.4,0.1
	c0.1,0,0.1,0,0.2,0c0.1,0,0.1,0,0.2,0c0.1,0,0.3,0,0.4-0.1c0.1-0.1,0.2-0.2,0.3-0.3C69.5,23.7,69.5,23.6,69.5,23.5z M68.3,24
	c-0.1,0-0.2,0-0.3-0.1c-0.1-0.1-0.2-0.1-0.2-0.2c0,0,0-0.1,0-0.1c0-0.1,0.1-0.1,0.2-0.1c0,0,0.1,0,0.1,0.1c0.1,0.1,0.2,0.3,0.3,0.5
	L68.3,24z M69.3,23.7c-0.1,0.1-0.1,0.2-0.2,0.2C68.9,24,68.8,24,68.7,24h-0.1c0.1-0.2,0.2-0.4,0.3-0.5c0,0,0.1-0.1,0.1-0.1
	c0.1,0,0.2,0.1,0.2,0.1C69.3,23.6,69.3,23.6,69.3,23.7L69.3,23.7z"/>
<path class="st0" d="M61.4,22.9c-0.1,0-0.2-0.1-0.2-0.2v-0.3c0-0.1,0.1-0.2,0.2-0.2c0.1,0,0.2,0.1,0.2,0.2v0.3
	C61.6,22.8,61.5,22.9,61.4,22.9C61.4,22.9,61.4,22.9,61.4,22.9z M62.6,22.8c0,0-0.1,0-0.1,0L62,22.3c-0.1-0.1-0.1-0.2,0-0.2
	c0,0,0.1,0,0.1,0c0,0,0.1,0,0.1,0l0.4,0.4c0,0,0,0.1,0,0.1c0,0,0,0.1,0,0.1C62.7,22.7,62.6,22.8,62.6,22.8z M60.3,22.8
	c0,0-0.1,0-0.1,0c0,0,0-0.1,0-0.1c0,0,0-0.1,0-0.1l0.4-0.4c0.1-0.1,0.2-0.1,0.2,0c0.1,0.1,0.1,0.2,0,0.2c0,0,0,0,0,0l-0.4,0.4
	C60.4,22.7,60.3,22.8,60.3,22.8z M61.4,22.1c-0.4,0-0.7-0.3-0.7-0.7s0.3-0.7,0.7-0.7c0.4,0,0.7,0.3,0.7,0.7v0
	C62.1,21.8,61.8,22.1,61.4,22.1z M62.4,21.6c-0.1,0-0.2-0.1-0.2-0.2c0-0.1,0.1-0.2,0.2-0.2h0.3c0.1,0,0.2,0.1,0.2,0.2
	c0,0.1-0.1,0.2-0.2,0.2H62.4z M60.1,21.6c-0.1,0-0.2-0.1-0.2-0.2c0-0.1,0.1-0.2,0.2-0.2h0.3c0.1,0,0.2,0.1,0.2,0.2
	c0,0.1-0.1,0.2-0.2,0.2H60.1z M62.1,20.9c0,0-0.1,0-0.1,0c-0.1-0.1-0.1-0.2,0-0.2c0,0,0,0,0,0l0.4-0.4c0.1-0.1,0.2-0.1,0.2,0
	c0,0,0,0.1,0,0.1c0,0,0,0.1,0,0.1l-0.4,0.4C62.2,20.9,62.2,20.9,62.1,20.9L62.1,20.9z M60.7,20.9c0,0-0.1,0-0.1,0l-0.3-0.4
	c-0.1-0.1-0.1-0.2,0-0.2c0,0,0.1,0,0.1,0c0,0,0.1,0,0.1,0l0.4,0.4c0,0,0,0.1,0,0.1c0,0,0,0.1,0,0.1C60.8,20.9,60.7,20.9,60.7,20.9
	L60.7,20.9z M61.4,20.6c-0.1,0-0.2-0.1-0.2-0.2v-0.3c0-0.1,0.1-0.2,0.2-0.2c0.1,0,0.2,0.1,0.2,0.2v0.3
	C61.6,20.5,61.5,20.6,61.4,20.6L61.4,20.6z"/>
<path class="st0" d="M44,19.2c0-0.3-0.1-0.6-0.3-0.6s-0.3,0.2-0.3,0.6c0,0.2,0.1,0.4,0.2,0.5c0.1,0.4,0.1,0.9,0,1.4
	c0,0-0.2,0.5,0.2,0.5c0,0,0.2-0.1,0.1-0.5c-0.1-0.4-0.1-0.9,0-1.3C44,19.6,44,19.4,44,19.2z M44.8,19.3c0-0.8-0.1-0.7-0.1-0.7
	C44.7,18.8,44.7,19.1,44.8,19.3L44.8,19.3L44.8,19.3c-0.1-0.7-0.1-0.7-0.1-0.7C44.7,18.8,44.7,19.1,44.8,19.3L44.8,19.3L44.8,19.3
	c-0.1-0.7-0.1-0.7-0.1-0.7C44.7,18.8,44.7,19.1,44.8,19.3L44.8,19.3L44.8,19.3c-0.1-0.8-0.1-0.7-0.1-0.7c0,0.2-0.1,0.5,0,0.7
	c0,0.2,0,0.3,0.2,0.4c0.1,0.4,0.1,0.9,0,1.3c-0.1,0.4,0.1,0.5,0.1,0.5c0.3,0,0.2-0.5,0.2-0.5c-0.1-0.4-0.1-0.9,0-1.3
	C44.7,19.6,44.7,19.3,44.8,19.3L44.8,19.3z M46.3,18.6c-0.8,0-1.4,0.6-1.4,1.4c0,0.8,0.6,1.4,1.4,1.4s1.4-0.6,1.4-1.4
	C47.7,19.3,47.1,18.6,46.3,18.6C46.3,18.6,46.3,18.6,46.3,18.6L46.3,18.6z M46.3,21.2c-0.6,0-1.2-0.5-1.2-1.2s0.5-1.2,1.2-1.2
	c0.6,0,1.2,0.5,1.2,1.2v0C47.5,20.7,46.9,21.2,46.3,21.2C46.3,21.2,46.3,21.2,46.3,21.2L46.3,21.2z M46.3,19c-0.6,0-1,0.4-1,1
	s0.4,1,1,1s1-0.4,1-1C47.3,19.5,46.9,19,46.3,19C46.3,19,46.3,19,46.3,19L46.3,19z"/>
<path class="st20" d="M67.5,63.4c0-0.3,0.1-0.6,0.4-0.8l0,0C67.9,62.9,68,63.4,67.5,63.4C67.5,63.5,67.5,63.5,67.5,63.4L67.5,63.4z
	 M66.9,66.7c-0.5,0.2-0.9-0.6-1.1-1c-0.3-0.8-0.1-1.7,0.4-1.9c0.3-0.1,0.5,0,0.8,0.1c0.2,0.1,0.4,0.1,0.6,0c0.2-0.1,0.5-0.2,0.8-0.1
	c0.6,0.2,0.8,1.1,0.4,1.9c-0.2,0.4-0.6,1.1-1.1,1C67.5,66.6,67.2,66.6,66.9,66.7z M67.4,63.8c0-0.4-0.2-0.9-0.6-1.1
	c-0.1,0-0.2,0.2-0.1,0.2c0.3,0.1,0.6,0.5,0.6,0.8C67.2,63.8,67.4,63.8,67.4,63.8z"/>
<path class="st15" d="M39.9,67.4c0,1.6-1.3,2.9-2.9,2.9s-2.9-1.3-2.9-2.9c0-1.6,1.3-2.9,2.9-2.9C38.6,64.5,39.9,65.8,39.9,67.4
	C39.9,67.4,39.9,67.4,39.9,67.4z"/>
<path class="st0" d="M37.9,66.1c0-0.1-0.3-0.2-0.3,0s0.2,0.3,0.1,0.6s-0.1,0.2-0.1,0.4c-0.2,0.5-0.7,0.8-1.2,0.8c-0.2,0-0.3,0-0.5,0
	c-0.1,0-0.2,0-0.3,0c0,0-0.1,0-0.1,0V68c0,0.1,0,0.1,0.1,0.2l0.1,0.1c0.6,0.3,1.2,0.3,1.8,0c1-0.5,1.2-1.6,0.7-1.9
	C38.1,66.3,38,66.2,37.9,66.1z"/>
<path class="st6" d="M82.1,59.8c0,1-0.8,1.7-1.7,1.7c-1,0-1.7-0.8-1.7-1.7s0.8-1.7,1.7-1.7C81.3,58,82.1,58.8,82.1,59.8
	C82.1,59.8,82.1,59.8,82.1,59.8z"/>
<path class="st0" d="M80.4,59c-0.2,0-0.5,0.1-0.7,0.3c-0.3,0.4-0.3,1,0,1.3c0.4,0.4,1,0.4,1.3,0c0.4-0.4,0.4-1,0-1.3
	C80.9,59.1,80.7,59,80.4,59z M80.9,60.5c-0.1,0.1-0.3,0.2-0.5,0.2c-0.2,0-0.4-0.1-0.5-0.2c-0.3-0.3-0.3-0.7,0-1
	c0.1-0.1,0.3-0.2,0.5-0.2c0.2,0,0.4,0.1,0.5,0.2C81.2,59.7,81.2,60.2,80.9,60.5L80.9,60.5z"/>
<path class="st0" d="M80.8,59.4L80.8,59.4L80.8,59.4l-0.3,0.4l0,0c0,0-0.1,0-0.1,0c-0.1,0.1-0.1,0.2,0,0.2c0,0,0.1,0.1,0.1,0
	c0,0,0.1,0,0.1,0c0.1-0.1,0.1-0.2,0-0.2L80.8,59.4C80.9,59.4,80.8,59.4,80.8,59.4z"/>
<path class="st0" d="M80.2,58.9h0.4c0,0,0.1,0,0.1-0.1v-0.1c0,0,0-0.1-0.1-0.1h-0.4c0,0-0.1,0-0.1,0.1v0L80.2,58.9
	C80.1,58.9,80.2,58.9,80.2,58.9L80.2,58.9z"/>
<path class="st0" d="M81.4,59.2L81.4,59.2c-0.1-0.1-0.1-0.1-0.2-0.1l-0.1,0.1c0,0,0,0.1,0,0.1l0.1,0.1c0,0,0.1,0,0.1,0c0,0,0,0,0,0
	l0.1-0.1C81.5,59.3,81.5,59.2,81.4,59.2C81.4,59.2,81.4,59.2,81.4,59.2z"/>
<path class="st0" d="M32,33.3l-0.3-0.3c-0.1-0.1-0.1-0.1-0.2-0.1h-0.4c-0.1,0.2-0.3,0.3-0.5,0.3c-0.2,0-0.4-0.1-0.4-0.3h-0.4
	c-0.1,0-0.2,0.1-0.2,0.1l-0.3,0.3L29,33.6l0.5,0.4l0.2-0.3c0,0,0,0.1,0,0.1v1.4h1.8v-1.4c0,0,0,0,0-0.1l0.2,0.3l0.5-0.4L32,33.3z"/>
<path class="st0" d="M41.4,25.8l-0.2-0.4c-0.1-0.1-0.1-0.2-0.2-0.2c-0.1,0-0.1-0.1-0.2,0L40.2,26c0,0,0,0.1,0,0.1c0,0,0,0,0,0
	l0.6,0.4c0,0,0.1,0,0.1,0L41.4,25.8z"/>
<path class="st0" d="M42.6,25.6l-0.2,0.1c-0.1-0.2-0.2-0.4-0.4-0.5h-1.2c0.2,0,0.4,0.1,0.5,0.3l0.4,0.7c0,0-0.2,0.2-0.2,0.2l0.9,0.2
	l0,0c0,0,0,0,0.1,0C42.4,26.5,42.6,25.6,42.6,25.6L42.6,25.6z"/>
<path class="st0" d="M42.5,27.6h0.4c0.1,0,0.2,0,0.3-0.1c0.1-0.1,0.2-0.2,0.2-0.2l-0.5-0.8c0,0-0.1,0-0.1,0l-0.6,0.4
	c0,0,0,0.1,0,0.1c0,0,0,0,0,0L42.5,27.6z"/>
<path class="st0" d="M42.1,28.8v-0.2h0.6c0,0,0.1,0,0.1,0l0.6-1.1c-0.1,0.1-0.3,0.2-0.5,0.2h-0.8v-0.2l0,0L41.4,28l0,0
	c0,0,0,0.1,0,0.1L42.1,28.8L42.1,28.8L42.1,28.8z"/>
<path class="st0" d="M40.4,27.8l-0.2,0.4c0,0.1-0.1,0.2-0.1,0.3c0,0.1,0,0.1,0.1,0.2h0.9c0,0,0.1,0,0.1-0.1c0,0,0,0,0,0v-0.7
	c0,0,0-0.1-0.1-0.1c0,0,0,0,0,0H40.4z"/>
<path class="st0" d="M39.6,26.8l0.2,0.1l-0.3,0.5c0,0,0,0.1,0,0.1l0.6,1.1c-0.1-0.2-0.1-0.4,0-0.5l0.4-0.7l0.2,0.1l0,0l-0.2-0.9l0,0
	c0,0,0,0-0.1,0L39.6,26.8L39.6,26.8L39.6,26.8z"/>
</svg>
