<?xml version="1.0" encoding="utf-8"?>
<!-- Generator: Adobe Illustrator 27.9.0, SVG Export Plug-In . SVG Version: 6.00 Build 0)  -->
<svg version="1.1" id="Laag_1" xmlns="http://www.w3.org/2000/svg" xmlns:xlink="http://www.w3.org/1999/xlink" x="0px" y="0px"
	 viewBox="0 0 100 100" style="enable-background:new 0 0 100 100;" xml:space="preserve">
<style type="text/css">
	.st0{fill:#FFF7EE;}
	.st1{fill:#E3E3E3;}
	.st2{fill:#3A3531;}
	.st3{fill:#D5A686;}
</style>
<g>
	<path class="st0" d="M10,99.5c-5.2,0-9.5-4.3-9.5-9.5V10.1c0-5.2,4.3-9.5,9.5-9.5h80c5.2,0,9.5,4.3,9.5,9.5V90c0,2.5-1,4.9-2.8,6.7
		c-1.8,1.8-4.2,2.8-6.7,2.8H10z"/>
	<path class="st1" d="M90,1.1c5,0,9,4,9,9V90c0,2.4-0.9,4.7-2.6,6.4S92.4,99,90,99H10c-5,0-9-4-9-9V10.1c0-5,4-9,9-9L90,1.1 M90,0.1
		H10c-5.5,0-10,4.5-10,10V90c0,5.5,4.5,10,10,10h80c5.5,0,10-4.5,10-10V10.1C100,4.6,95.5,0.1,90,0.1L90,0.1z"/>
</g>
<g>
	<g>
		<g>
			<path class="st2" d="M18.1,44.4c0,0.1,0,0.1,0,0.2c0,0.6-0.1,1.1-0.1,1.7c0,0.8,0.1,1.5,0.5,2.2c0,0.1,0.1,0.2,0.1,0.2
				c0,0,0.1,0,0.2,0c0,0,0-0.1,0-0.1c0-0.1-0.1-0.2-0.1-0.3c-0.1-0.3-0.3-0.9-0.2-1.4c0,0.1,0,0.1,0.1,0.2c0.1,0.4,0.3,0.7,0.5,1
				c0,0.1,0.1,0.1,0.2,0.1c0-0.2,0-0.4-0.1-0.6c0-0.2,0-0.4-0.1-0.6c0.1,0.1,0.3,0.2,0.4,0.2c0.1-0.1,0-0.3,0-0.4
				c-0.1-0.5-0.2-0.9-0.2-1.4c0-0.2,0-0.4-0.1-0.6c0-0.1,0-0.1,0.1-0.3c0.1,0,0.2,0.2,0.3,0.3c0.3,0.4,0.4,0.9,0.5,1.4
				c0.1,0.4,0.2,0.8,0.3,1.2c0,0.1,0.1,0.2,0.1,0.3c0.4,0.5,0.7,1.2,0.9,1.8c0.3,0.7,0.5,1.4,0.7,2.1c0.2,0.7,0.4,1.4,0.6,2
				c0.2,0.5,0.3,1.1,0.5,1.6c0.1,0.4,0.4,0.8,0.7,1.2c0.2,0.2,0.4,0.4,0.7,0.5c0.5,0.1,1,0.3,1.5,0.6c0.3,0.1,0.6,0.2,0.9,0
				c0.2-0.1,0.5-0.2,0.7-0.3c0.3-0.1,0.5-0.3,0.7-0.6c0.3-0.4,0.6-0.8,0.8-1.2c0.2-0.4,0.2-0.8,0.1-1.2c-0.1-0.2-0.2-0.5-0.4-0.7
				c-0.2-0.3-0.3-0.6-0.4-0.9c0-0.1-0.1-0.2-0.1-0.3C28.3,52,28,51.5,27.8,51c-0.1-0.2-0.2-0.4-0.3-0.6c-0.1-0.3-0.2-0.6-0.3-0.9
				c-0.1-0.2,0-0.2,0.1-0.3c0.1-0.1,0.2-0.1,0.3-0.2c0.6-0.3,1-0.8,1.3-1.5c0.4-0.8,0.4-1.6,0.4-2.5c0-0.7-0.2-1.3-0.3-1.9
				c0-0.1,0-0.2,0.1-0.3c0.3-0.1,0.6-0.2,0.9,0c0.3,0.2,0.6,0.4,0.7,0.8c0,0.1,0.1,0.2,0.1,0.3c0.4,1.1,0.6,2.2,0.8,3.3
				c0.2,1.1,0.5,2.1,0.7,3.2c0.1,0.5,0.2,0.9,0.1,1.4c-0.1,0.3-0.2,0.5-0.2,0.8c-0.2,0.6-0.4,1.3-0.6,2c-0.1,0.4-0.1,0.9-0.1,1.3
				c0,0.5-0.1,0.9-0.1,1.4c0,0.5,0,1,0.1,1.5c0.1,0.5,0.3,1,0.4,1.5c0,0.1,0.1,0.3,0.1,0.5c0,0.2-0.1,0.4-0.2,0.6
				c-0.4,0.3-0.7,0.7-1.1,1.1c-0.7,0.7-1.3,1.4-1.9,2.2c-0.7,0.8-1.5,1.5-2.5,2.1c-0.4,0.2-0.8,0.4-1.1,0.7
				c-0.4,0.3-0.7,0.6-0.9,1.1c-0.2,0.4-0.3,0.9-0.5,1.3c-0.2,0.6-0.4,1.3-0.6,1.9c-0.3,0.7-0.5,1.5-0.9,2.2
				c-0.2,0.3-0.3,0.6-0.4,0.9c-0.1,0.2-0.2,0.3-0.2,0.4c-0.1,0.1-0.1,0.2-0.2,0.3c-0.2,0.5-0.4,0.9-0.7,1.4c-0.2,0.3-0.2,0.7-0.2,1
				c0.1,0.6,0.1,1.3,0.1,1.9c0,0.6-0.1,1.1-0.3,1.6c-0.1,0.4-0.2,0.8-0.3,1.3c-0.1,0.8-0.3,1.7-0.4,2.5c0,0,0,0.1,0,0.1
				c0,0.3,0.2,0.5,0.5,0.4c0.2,0,0.3-0.1,0.5-0.2c0.4-0.2,0.7-0.4,1.1-0.7c0.5-0.3,0.9-0.7,1.3-1.1c0.1-0.1,0.1-0.1,0.2-0.2
				c0.4-0.5,0.6-1.1,0.6-1.8c0-0.6-0.3-1-0.7-1.4c-0.2-0.2-0.3-0.3-0.2-0.6c0.1-0.5,0.3-1,0.5-1.4c0-0.1,0.1-0.2,0.1-0.2
				c0.2-0.5,0.3-0.9,0.2-1.4c0-0.4,0-0.7,0.1-1.1c0.2-0.5,0.3-1,0.5-1.5c0.2-0.5,0.4-0.9,0.6-1.4c0.2-0.4,0.5-0.7,0.8-1
				c0.3-0.3,0.6-0.5,0.8-0.8c0.5-0.5,1.1-1.1,1.6-1.6c0.3-0.3,0.6-0.4,0.9-0.6c0.6-0.3,1.3-0.6,1.9-0.9c1.5-0.7,2.9-1.4,4.4-2.2
				c0.2-0.1,0.5-0.2,0.7-0.4c0.5-0.3,1.1-0.4,1.7-0.4c0.4,0,0.8,0,1.2,0c0,0,0.1,0,0.1,0c0.4,0,0.4,0.1,0.5,0.4
				c0.1,0.7,0.2,1.4,0.4,2c0.2,0.8,0.3,1.6,0.6,2.4c0,0.1,0.1,0.3,0.2,0.4c0.2,0.4,0.2,0.8,0.3,1.3c0.1,0.7,0.2,1.4,0.3,2.1
				c0.1,0.8,0.3,1.5,0.6,2.2c0.1,0.3,0.3,0.7,0.4,1c0.2,0.7,0.3,1.3,0.4,2c0.1,0.8,0.1,1.6,0.2,2.4c0,0.5,0,1.1-0.2,1.6
				c-0.1,0.3-0.2,0.7-0.2,1.1c0,0.6-0.1,1.1-0.1,1.7c0,0.7-0.4,1.2-0.9,1.7c-0.2,0.2-0.5,0.3-0.7,0.5c-0.2,0.2-0.3,0.4-0.5,0.6
				c-0.3,0.4-0.5,0.8-0.8,1.3c-0.2,0.3-0.3,0.5-0.5,0.8c-0.2,0.3-0.1,0.5,0.1,0.7c0.1,0.1,0.1,0.1,0.2,0.1c0.3,0.1,0.6,0.2,1,0.2
				c0,0,0,0,0.1,0h1.3c0.1,0,0.3-0.1,0.4-0.1c0.8-0.2,1.5-0.6,2.1-1.2c0.3-0.2,0.4-0.6,0.5-0.9c0-0.2,0.1-0.4,0.1-0.6
				c0-0.4-0.1-0.7-0.3-1c-0.1-0.1-0.2-0.3-0.2-0.4c-0.1-0.3-0.1-0.6,0.1-0.8c0.2-0.2,0.3-0.4,0.5-0.7c0-0.1,0.1-0.1,0.1-0.2
				c0.2-0.4,0.4-0.7,0.6-1.1c0.1-0.3,0.1-0.6,0.1-0.9c-0.1-0.7-0.3-1.4-0.4-2.1c-0.1-0.6-0.2-1.2-0.2-1.9c-0.2-1.2,0-2.4,0-3.6
				c0-1.1,0-2.3-0.1-3.4c0-0.1,0-0.2,0-0.3c-0.1-0.4,0-0.8,0.1-1.2c0.1-0.9,0.2-1.8,0.2-2.7c0.1-1,0.2-2.1,0.3-3.1
				c0-0.2,0-0.4,0.1-0.6c0-0.1,0-0.1,0-0.2c0-0.3,0.1-0.3,0.4-0.3c0.2,0,0.5,0,0.7-0.1c1.1-0.1,2.2-0.2,3.3-0.3c0.6,0,1.2,0,1.9,0
				c0.5,0,1.1,0,1.6,0c0.7,0,1.3,0,1.9-0.1c0.3,0,0.5-0.1,0.8-0.1c0.7-0.1,1.4-0.3,2-0.4c0.1,0,0.3-0.1,0.4-0.1
				c0.4-0.2,0.9-0.4,1.3-0.6c0.2-0.1,0.4-0.3,0.7-0.4c0.4-0.3,0.9-0.7,1.2-1.1c0.2-0.3,0.5-0.6,0.7-0.9c0-0.1,0.1-0.1,0.2-0.1
				c0.1,0,0.1,0.1,0.1,0.2c0,0.3,0.1,0.7,0.1,1c0.1,0.8,0.3,1.7,0.4,2.5c0,0.3,0.1,0.5,0.1,0.8c0.1,0.6,0.3,1.2,0.4,1.7
				c0.1,0.2,0.2,0.4,0.3,0.6c0.2,0.4,0.5,0.8,0.7,1.2c0.2,0.3,0.5,0.6,0.7,0.8c0.1,0.1,0.2,0.3,0.2,0.4c0,0,0,0,0,0.1
				c0.1,1.2,0,2.3,0,3.5c0,0.3,0,0.7-0.2,1c-0.1,0.1-0.1,0.2-0.2,0.4c-0.1,0.1-0.2,0.3-0.3,0.4c-0.1,0.2-0.3,0.4-0.5,0.6
				c-0.4,0.4-0.8,0.8-1.2,1.2c-0.4,0.4-0.7,0.8-1.1,1.2c-0.3,0.3-0.7,0.6-1.1,0.8c-0.2,0.1-0.4,0.3-0.6,0.4
				c-0.3,0.2-0.5,0.5-0.7,0.8c-0.2,0.4-0.3,0.8-0.5,1.2c-0.2,0.6-0.5,1.1-0.8,1.6c-0.3,0.4-0.6,0.7-0.9,1.1
				c-0.1,0.2-0.3,0.4-0.4,0.6c-0.2,0.3-0.3,0.5-0.4,0.8c-0.3,0.5-0.5,1.1-0.8,1.7c-0.1,0.1-0.1,0.2-0.1,0.3c0,0.2,0,0.3,0.2,0.3
				c0.2,0.1,0.5,0.1,0.7,0.1c0.9,0,1.7-0.1,2.6-0.3c0.5-0.1,0.9-0.4,1.2-0.8c0.2-0.2,0.4-0.4,0.6-0.6c0.2-0.2,0.3-0.5,0.4-0.7
				c0.1-0.3,0-0.6-0.2-0.8c-0.1-0.2-0.3-0.4-0.4-0.5c-0.3-0.4-0.2-0.7,0.1-1c0.2-0.2,0.5-0.4,0.8-0.5c0.2-0.1,0.4-0.2,0.5-0.4
				c0.2-0.3,0.3-0.5,0.4-0.8c0.1-0.2,0.2-0.4,0.3-0.6c0.3-0.6,0.8-1.2,1.3-1.6c0.4-0.4,0.8-0.7,1.1-1.2c0.3-0.3,0.7-0.6,1-0.9
				c0.4-0.4,0.9-0.7,1.3-1.1c0.4-0.4,0.9-0.8,1.3-1.2c0.2-0.2,0.4-0.3,0.6-0.5c0.1-0.1,0.1-0.2,0.1-0.2c0.1-0.3,0.2-0.6,0.3-0.8
				c0,0,0-0.1,0-0.1c0-0.1,0.1-0.1,0.2,0c0.1,0.1,0.1,0.2,0.1,0.3c0.1,0.2,0.1,0.5,0.1,0.7c0.1,0.5,0.3,0.9,0.5,1.4
				c0.2,0.5,0.4,1,0.4,1.6c0,0.3,0,0.6,0,0.9c0,0.5,0,1-0.1,1.5c0,0.3-0.1,0.6-0.1,0.9c0,0.1,0,0.2,0,0.4c0,0.3-0.1,0.6-0.3,0.8
				c-0.1,0.2-0.2,0.4-0.4,0.6c-0.2,0.3-0.2,0.6-0.2,1c0,0.4-0.1,0.7-0.1,1.1c-0.1,0.5-0.3,0.9-0.7,1.2c-0.3,0.3-0.6,0.5-0.9,0.8
				c-0.2,0.1-0.3,0.3-0.4,0.5c-0.3,0.6-0.6,1.2-0.9,1.8c-0.1,0.2-0.1,0.2,0.1,0.3c0.4,0.3,0.9,0.4,1.3,0.5c0.8,0.1,1.7,0.1,2.5-0.2
				c0.3-0.1,0.6-0.3,0.9-0.6c0.2-0.3,0.4-0.5,0.5-0.8c0.1-0.1,0.1-0.2,0.1-0.4c0-0.2,0-0.3,0-0.5c0-0.3-0.1-0.5-0.3-0.8
				c-0.1-0.1-0.2-0.3-0.3-0.4c-0.1-0.2-0.2-0.3,0-0.5c0.1-0.3,0.3-0.5,0.5-0.7c0.3-0.2,0.5-0.5,0.7-0.8c0.2-0.3,0.3-0.6,0.3-0.9
				c0-0.6,0-1.2,0-1.8c0-1-0.1-2,0-3.1c0.1-0.6,0.1-1.2,0.3-1.9c0.1-0.4,0.2-0.8,0.3-1.2c0.2-0.8,0.3-1.7,0.3-2.6
				c0-0.4-0.1-0.7-0.4-1c-0.3-0.2-0.5-0.5-0.8-0.7c-0.4-0.4-0.8-0.7-1.3-1c-0.2-0.2-0.4-0.4-0.5-0.7c-0.2-0.3-0.3-0.5-0.4-0.8
				c-0.2-0.5-0.5-0.9-0.7-1.4C69.8,66,69.8,66,70,65.8c0.3-0.3,0.6-0.6,1-0.9c0.3-0.2,0.5-0.5,0.7-0.7c0.4-0.4,0.7-0.8,1.1-1.2
				c0.3-0.3,0.6-0.6,0.9-1c0.1-0.1,0.2-0.3,0.3-0.4c0.2-0.4,0.5-0.7,0.7-1.2c0.2-0.3,0.3-0.7,0.5-1c0.3-0.7,0.6-1.3,0.8-2
				c0.3-1.3,0.3-2.6,0.2-3.9c-0.1-0.6-0.2-1.2-0.4-1.8c-0.1-0.3-0.2-0.5-0.2-0.8c0,0,0-0.1,0-0.2c0.1,0.2,0.2,0.3,0.3,0.4
				c0.2,0.2,0.3,0.4,0.5,0.6c0.1,0.1,0.2,0.2,0.3,0.3c0.1,0.1,0.2,0.2,0.3,0.3c0.3,0.7,0.5,1.4,0.5,2.1c0,1.5,0,3,0,4.5
				c0,0.4,0,0.9,0,1.3c0,0,0,0.1,0,0.1c0,0.1,0.1,0.1,0.2,0.1c0.1-0.1,0.3-0.1,0.4-0.2c0.3-0.3,0.5-0.7,0.6-1.1
				c0.1-0.3,0.2-0.6,0.3-0.8c0,0,0,0.1,0,0.1c0,1,0.1,2,0.1,2.9c0,0.8,0.1,1.5,0.2,2.3c0,0.9,0.1,1.7,0.4,2.5c0,0.1,0.1,0.3,0.2,0.3
				c0.1,0,0.2-0.2,0.2-0.3c0.1-0.1,0.1-0.2,0.2-0.2c0.1,0.1,0.1,0.2,0.1,0.3c0.2,0.5,0.3,1,0.4,1.5c0.1,0.4,0.3,0.8,0.5,1.2
				c0.1,0.1,0.1,0.2,0.3,0.2c0-0.1,0-0.2-0.1-0.4c-0.1-0.3-0.3-0.6-0.3-0.8c-0.1-0.3-0.2-0.7-0.2-1c-0.3-1.3-0.3-2.7-0.4-4.1
				c0-1,0-1.9,0-2.9c0-0.1,0-0.1,0-0.2c0,0,0,0,0,0c0,0.2,0,0.4,0.1,0.7c0.1,0.9,0.2,1.7,0.3,2.6c0.1,0.7,0.2,1.4,0.3,2.1
				c0.1,0.6,0.2,1.3,0.3,1.9c0.2,0.8,0.5,1.6,0.9,2.3c0.2,0.3,0.4,0.6,0.6,0.9c0.1,0.2,0.3,0.3,0.5,0.4v-0.2c-0.4-0.6-0.7-1.2-1-1.8
				c-0.1-0.2-0.2-0.5-0.2-0.7c0-0.1,0-0.1,0-0.2c0,0,0,0,0,0c0,0,0.1,0.1,0.1,0.1c0.2,0.3,0.4,0.6,0.6,0.9c0.1,0.1,0.2,0.2,0.3,0.4
				c0,0.1,0.1,0.1,0.2,0c0-0.1,0-0.2-0.1-0.4c-0.2-0.5-0.4-0.9-0.6-1.4c-0.4-0.9-0.6-1.8-0.8-2.7c-0.1-0.6-0.1-1.3-0.1-1.9
				c0-0.7,0.1-1.4,0.1-2.2c0.1-0.8,0.2-1.6,0.2-2.5c0.1-0.7,0.1-1.4,0.1-2.1c0-1.5,0-3,0-4.5c0-1-0.2-2-0.6-2.9
				c-0.3-0.6-0.6-1.2-1-1.8c-1-1.2-2.3-1.7-3.8-1.7c-0.8,0-1.6,0.3-2.4,0.6c-0.6,0.2-1.1,0.5-1.7,0.8c-0.5,0.2-0.9,0.2-1.4,0
				c-0.4-0.2-0.9-0.3-1.3-0.5c-1.1-0.4-2.2-0.5-3.3-0.5c-0.4,0-0.8,0-1.1,0c-0.7,0.1-1.5,0.2-2.2,0.3c-1.1,0.2-2.2,0.4-3.2,0.5
				c-1.1,0.2-2.3,0.3-3.4,0.4c-0.5,0-0.9,0.1-1.4,0.1c-0.9,0-1.7-0.1-2.6-0.2c-1.4-0.2-2.8-0.5-4.1-1c-0.5-0.2-1-0.3-1.5-0.5
				c-0.7-0.2-1.3-0.6-1.9-1c-0.5-0.3-0.9-0.7-1.2-1.2c-0.5-0.7-1-1.4-1.5-2c-0.4-0.6-0.9-1.1-1.4-1.6c-0.4-0.4-0.8-0.9-1.2-1.3
				c-0.7-0.7-1.4-1.3-2.2-1.9c-0.6-0.5-1.2-0.9-1.9-1.3c-1.1-0.7-2.2-1.2-3.5-1.5c-0.7-0.2-1.4-0.2-2.2-0.2c-1.1,0-2.2,0.3-3.2,0.5
				c-1,0.2-1.9,0.6-2.7,1.2c-0.6,0.4-1.3,0.8-1.9,1.3c-0.4,0.2-0.7,0.4-1.1,0.7c-0.2,0.1-0.2,0.1-0.4-0.1c-0.3-0.3-0.7-0.7-1-1.1
				c-0.3-0.3-0.6-0.6-0.9-0.9c-0.2-0.2-0.4-0.3-0.7-0.3c-0.3,0-0.4,0-0.3,0.3c0,0.1,0.1,0.2,0.1,0.4c0.1,0.3,0.2,0.7,0.3,1
				c0.1,0.3,0.2,0.7,0.4,1c0,0.1,0.1,0.2,0.1,0.4c-0.1,0-0.2-0.1-0.2-0.2c-0.1-0.1-0.2-0.3-0.3-0.4c-0.2-0.3-0.4-0.6-0.6-0.8
				c-0.3-0.4-0.6-0.6-0.9-0.9c0,0-0.1-0.1-0.1-0.1c-0.1,0-0.2,0-0.2,0.1c0,0.1,0,0.1,0,0.2c0.1,0.3,0.2,0.6,0.3,1
				c0.1,0.5,0.3,1,0.4,1.4c0.2,0.5,0.4,1,0.7,1.5c0.1,0.2,0.2,0.4,0.2,0.7c0,0.1,0.1,0.3,0,0.5c-0.1,0.5-0.2,1-0.3,1.5
				c0,0,0,0.1,0,0.1c0,0.8-0.1,1.5-0.3,2.2c-0.1,0.3-0.1,0.5-0.2,0.8c-0.1,0.4,0,0.9,0.1,1.3c0.1,0.2,0.2,0.4,0.4,0.6
				c0,0.1,0.1,0.1,0.2,0.1c-0.1-0.5-0.2-1-0.2-1.6"/>
		</g>
	</g>
	<path class="st3" d="M54.9,46.5c0,0-4.1-0.1-3.5,17.5c0,0,2.7,0.3,4.5-0.2c0,0-2.6-8.8,2.5-17.2"/>
	<g>
		<path class="st3" d="M56.5,47.1c0,0,6.8-0.4,12.5-3.4c5.3-2.8,9.6-12.4,4-18.2C60.5,12.5,54.5,40,56.5,47.1z M68.6,30.9
			c5.5,7.2-11.5,15.4-11.5,15.4l0.1-0.4C57.2,45.9,63.1,23.6,68.6,30.9z"/>
		<path class="st3" d="M55.3,47c0,0,0.5-6.9-0.6-13.4c-1.1-6-6.3-12.7-10.3-8.6C35.3,34.1,50.9,47.2,55.3,47z M47.5,31.3
			C52.3,27.8,55.1,46,55,46l-0.2-0.2C54.8,45.8,42.8,34.7,47.5,31.3z"/>
	</g>
	<g>
		<path class="st3" d="M56,49.6c-0.5,0-0.8-0.4-0.8-0.8V9.2c0-0.5,0.4-0.8,0.8-0.8c0.5,0,0.8,0.4,0.8,0.8v39.5
			C56.9,49.2,56.5,49.6,56,49.6z"/>
	</g>
</g>
</svg>
