<?xml version="1.0" encoding="utf-8"?>
<!-- Generator: Adobe Illustrator 25.4.0, SVG Export Plug-In . SVG Version: 6.00 Build 0)  -->
<svg version="1.1" id="Laag_1" xmlns="http://www.w3.org/2000/svg" xmlns:xlink="http://www.w3.org/1999/xlink" x="0px" y="0px"
	 viewBox="0 0 100 100" style="enable-background:new 0 0 100 100;" xml:space="preserve">
<style type="text/css">
	.st0{fill:#205C92;}
	.st1{fill:#FFFFFF;}
</style>
<path class="st0" d="M10.4,0h79.3C95.4,0,100,4.6,100,10.4v79.3c0,5.7-4.6,10.4-10.4,10.4H10.4C4.6,100,0,95.4,0,89.6V10.4
	C0,4.6,4.6,0,10.4,0z"/>
<path class="st1" d="M49.4,61.5c0.5-0.1,1-0.2,1.4-0.2s1.2-0.2,1.9-0.3c1.2-0.1,2.2,0.7,2.4,1.9c0.2,1.1,0.5,2.2,0.6,3.4
	c0.3,1.9-0.7,3.8-2.4,4.6c-1.2,0.6-2.4,1.1-3.7,1.2c-1.9,0.4-3.9,0.2-5.7-0.5c-3-1.1-5.2-3.6-5.9-6.8c-0.6-2.3-0.5-4.7,0.5-6.9
	c1.1-2.4,3.1-4.4,5.6-5.3c1.5-0.7,3.2-1,4.9-0.9c0.9,0,1.8,0.3,2.5,0.7c1.1,0.6,1.8,1.7,1.9,3c0,0.4,0.2,0.9,0.2,1.3
	c0,0.1,0,0.2,0,0.2c-0.1,0-0.2,0-0.2,0c-1.2-0.6-2.6-0.9-3.9-0.8c-0.9,0-1.9,0.2-2.8,0.4c-2,0.5-3.4,2.1-3.7,4.1
	c-0.3,2.1,0.3,4.3,1.8,5.8c0.9,0.9,2.2,1.4,3.5,1.3c0.5,0,1.1-0.1,1.6-0.3c0.6-0.2,0.8-0.5,0.7-1.2c-0.2-1.5-0.5-2.9-1-4.3
	L49.4,61.5z"/>
<path class="st1" d="M37.9,33.6c3.8,0,7.1,2.7,7.8,6.5c0.4,1.6,0.3,3.2-0.2,4.8c-0.7,2-2.3,3.6-4.3,4.4c-1.3,0.6-2.7,0.8-4.1,0.8
	c-3.7,0-6.8-2.6-7.5-6.2c-0.4-1.9-0.2-3.9,0.6-5.7c1-2.1,2.9-3.7,5.2-4.2C36.3,33.7,37.1,33.6,37.9,33.6z M34.7,41.5
	c0.1,1,0.4,2,0.9,2.9c0.5,1,1.7,1.6,2.8,1.3c1.1-0.1,2-1,2.2-2.1c0.2-1,0.1-2-0.2-3c-0.2-0.7-0.6-1.4-1.1-1.9c-1-1-2.6-1-3.6,0
	c-0.1,0.1-0.3,0.3-0.4,0.5C34.8,39.9,34.6,40.7,34.7,41.5z"/>
<path class="st1" d="M57,30.5c1-0.1,2-0.3,3-0.4c1.4-0.2,2.6,0.8,2.8,2.2c0,0,0,0,0,0.1c0.2,1,0.4,2.1,0.6,3.2s0.4,1.9,0.5,2.9
	c0.4,1.8,0,3.6-0.9,5.1c-0.8,1.1-1.8,2-3.1,2.5c-1.4,0.6-2.8,0.9-4.3,0.9c-1,0.1-2-0.1-3-0.4c-1.7-0.6-3-1.9-3.6-3.6
	C48.7,42,48.4,41,48.3,40c-0.4-2.1-0.7-4.1-1.1-6.2c-0.1-0.5-0.2-1-0.3-1.5l1.1-0.2c0.6-0.1,1.2-0.2,1.8-0.3
	c0.9-0.2,1.8,0.1,2.4,0.7c0.4,0.5,0.6,1.1,0.7,1.7c0.3,1.9,0.7,3.8,1,5.8c0.1,0.5,0.3,1,0.5,1.5c0.4,0.7,1.2,1.1,2.1,0.9
	c0.2,0,0.4-0.1,0.6-0.1c0.9-0.2,1.5-1,1.5-1.9c0-0.8-0.1-1.7-0.3-2.5c-0.3-1.7-0.6-3.4-0.9-5.1L57,30.8L57,30.5z"/>
<path class="st1" d="M21.2,40.2c0.2-0.6,0.5-1.1,0.7-1.7c0.7-1.8,1.3-3.6,1.6-5.5c0.1-0.5,0.1-0.5,0.6-0.6c0.8-0.1,1.5-0.3,2.3-0.4
	c0.9-0.1,1.8,0.4,2,1.3c0,0.4,0,0.9-0.1,1.3c-0.4,1.6-0.9,3.1-1.6,4.6c-0.7,1.5-1.5,3-2.2,4.5c-0.1,0.1-0.1,0.2-0.1,0.3
	c0.4,2.2,0.8,4.4,1.2,6.7c0.1,0.4,0.1,0.8,0.2,1.2l-1,0.2c-0.5,0.1-1.1,0.2-1.6,0.2c-1.6,0.2-3-0.9-3.3-2.5c0,0,0,0,0-0.1
	c-0.3-1.6-0.5-3.2-0.8-4.8c0-0.2-0.1-0.3-0.2-0.4c-3-2.8-5.6-6-7.6-9.5L11,34.8c0.5-0.1,0.9-0.2,1.3-0.2c0.8-0.2,1.6-0.3,2.4-0.3
	c1,0,2,0.5,2.5,1.3c1.1,1.6,2.3,3.1,3.7,4.4L21.2,40.2z"/>
<path class="st1" d="M75.8,53c0.1,0.7,0.2,1.3,0.3,2c0.1,0.6-0.2,1.3-0.8,1.6c-0.4,0.3-0.9,0.4-1.4,0.5l-0.9,0.2
	c0.1,0.5,0.2,1,0.3,1.5c0.3,1.8,0.6,3.6,1,5.3c0.2,1,0.3,1.9,0.5,2.9c0,0.2,0,0.3-0.2,0.3c-0.8,0.1-1.7,0.3-2.5,0.3
	c-1.4,0.2-2.7-0.9-2.8-2.3c0,0,0,0,0,0c-0.2-1-0.4-2.1-0.6-3.2c-0.3-1.8-0.6-3.6-0.9-5.3c-0.2-1.2-0.5-2.4-0.6-3.6
	c-0.3-1.7,0.2-3.4,1.2-4.8c0.9-1.1,2.1-1.8,3.5-2.1c0.8-0.2,1.7-0.3,2.5-0.1c1,0.2,1.8,1.1,2,2.2c0.1,0.4,0.1,0.8,0.2,1.2
	c0,0.2,0,0.2-0.2,0.2c-0.8-0.2-1.7-0.1-2.5,0.1c-0.8,0-1.4,0.5-1.7,1.3c0,0.4,0,0.8,0.1,1.2c0,0.3,0.1,0.7,0.2,1
	c0,0.2,0.1,0.2,0.2,0.2c1-0.2,2-0.4,3.1-0.5C75.6,53,75.7,53,75.8,53z"/>
<path class="st1" d="M81.8,46.4l0.7,3.7l4.4-0.8c0,0.3,0.1,0.5,0.1,0.8c0.1,0.4,0.2,0.9,0.2,1.3c0,1.1-0.7,2.2-1.8,2.5
	c-0.6,0.1-1.1,0.3-1.7,0.3l-0.5,0.1c0.1,0.6,0.2,1.1,0.3,1.7c0.2,1.2,0.4,2.5,0.7,3.7c0,0.9,0.8,1.5,1.6,1.5c0.2,0,0.3,0,0.5-0.1
	c0.7-0.1,1.5-0.3,2.1-0.7c0.1,0,0.1,0,0.2,0l0.2,0.9c0.1,0.4,0.2,0.9,0.2,1.3c0.1,0.8-0.3,1.6-1,2.1c-0.7,0.5-1.5,0.8-2.4,0.9
	c-1,0.2-2.1,0.2-3.1-0.1c-1.4-0.4-2.6-1.6-3-3c-0.3-0.8-0.5-1.7-0.6-2.6c-0.3-1.7-0.6-3.4-0.9-5.1c-0.2-1.1-0.4-2.3-0.6-3.4
	c-0.2-0.9,0-1.7,0.4-2.5c0.7-1.2,1.8-2.1,3.1-2.5C81.3,46.5,81.5,46.4,81.8,46.4z"/>
<path class="st1" d="M75.3,31.6c-0.1,0-0.3,0-0.4,0c-0.7-0.1-1.5,0-2.2,0.2c-1,0.3-1.6,1.3-1.4,2.3c0.3,1.8,0.6,3.6,0.9,5.4
	c0.2,1.4,0.5,2.8,0.7,4.2c0,0-0.1,0.1-0.1,0.1c-0.8,0.2-1.6,0.3-2.3,0.3c-1.6,0.1-3-1-3.2-2.5c-0.2-0.8-0.3-1.7-0.5-2.6
	c-0.3-1.5-0.5-3-0.8-4.5c-0.7-2.9,1.1-5.8,4-6.5c0.1,0,0.3-0.1,0.4-0.1c0.9-0.2,1.8-0.2,2.7,0c1,0.2,1.7,1,1.8,2
	c0.1,0.5,0.2,1,0.3,1.5C75.2,31.4,75.3,31.5,75.3,31.6z"/>
<path class="st1" d="M57,55.1c0.7-0.1,1.4-0.2,2.1-0.3c0.5-0.1,1-0.1,1.5,0c0.9,0.1,1.6,0.6,1.9,1.5c0.3,0.7,0.5,1.5,0.6,2.2
	c0.3,1.7,0.6,3.5,0.9,5.2c0,0.7,0.7,1.3,1.4,1.3c0,0,0.1,0,0.1,0c0.4,0,0.7-0.1,1.1-0.1l0.4-0.1c0,0.3,0.1,0.6,0.2,0.9
	s0.2,0.8,0.2,1.2c0.1,0.8-0.4,1.6-1.1,2c-0.6,0.3-1.2,0.5-1.8,0.6c-0.9,0.2-1.8,0.1-2.7-0.2c-1.3-0.5-2.3-1.5-2.7-2.9
	c-0.2-0.8-0.4-1.7-0.5-2.6c-0.3-1.8-0.6-3.5-0.9-5.3c-0.2-1-0.4-2.1-0.6-3.1L57,55.1z"/>
<path class="st1" d="M58.9,48c1.3,0,2.5,0.9,2.7,2.2c0.2,0.9-0.1,1.8-0.8,2.4c-1.1,1-2.7,1-3.8,0.1c-1.1-0.9-1.2-2.6-0.3-3.7
	c0.2-0.3,0.5-0.5,0.9-0.7C58,48.2,58.4,48,58.9,48z"/>
</svg>
