<?xml version="1.0" encoding="utf-8"?>
<!-- Generator: Adobe Illustrator 27.9.0, SVG Export Plug-In . SVG Version: 6.00 Build 0)  -->
<svg version="1.1" id="Laag_1" xmlns="http://www.w3.org/2000/svg" xmlns:xlink="http://www.w3.org/1999/xlink" x="0px" y="0px"
	 viewBox="0 0 100 100" style="enable-background:new 0 0 100 100;" xml:space="preserve">
<style type="text/css">
	.st0{fill:#1D1E1C;}
	.st1{fill:#FFFFFF;}
</style>
<g>
	<g>
		<path class="st0" d="M9.6,100.1c-5.3,0-9.6-4.3-9.6-9.6V9.6C0,4.3,4.3,0,9.6,0h80.9c5.3,0,9.6,4.3,9.6,9.6v80.9c0,2.6-1,5-2.8,6.8
			c-1.8,1.8-4.2,2.8-6.8,2.8H9.6z"/>
	</g>
	<g>
		<path class="st1" d="M77.3,68.6c-1.8,0-2.8-1.1-2.8-2.7v-6c0-0.6-0.5-1-1-1c-0.6,0-1,0.5-1,1v5.8c0,2.9,1.8,4.8,4.8,4.8
			c3,0,4.8-1.8,4.8-4.8v-5.8c0-0.6-0.5-1-1-1c-0.6,0-1,0.5-1,1v6C80.1,67.5,79.1,68.6,77.3,68.6L77.3,68.6z M50.5,64.6
			c0-3.1-2.2-5.6-5.6-5.6h-3.1c-0.6,0-1.1,0.5-1.1,1v9.2c0,0.6,0.5,1,1.1,1h3.1C48.3,70.2,50.5,67.7,50.5,64.6L50.5,64.6z
			 M48.4,64.6c0,2.2-1.3,3.7-3.7,3.7h-2v-7.4h2C47.1,60.9,48.4,62.4,48.4,64.6L48.4,64.6z M39.5,69l-4.3-9.6
			c-0.2-0.4-0.4-0.5-0.9-0.5s-0.7,0.2-0.9,0.5L29,69c-0.1,0.1-0.1,0.3-0.1,0.4c0,0.5,0.4,1,1,1c0.4,0,0.7-0.2,0.9-0.6l1-2.1h5l1,2.1
			c0.2,0.4,0.4,0.6,0.9,0.6c0.6,0,1-0.5,1-1C39.6,69.2,39.6,69.1,39.5,69L39.5,69z M36,65.9h-3.5l1.8-4.3L36,65.9L36,65.9z
			 M18.3,64.6c0,3.5,2.4,5.8,5.8,5.8c1.3,0,2.8-0.4,3.8-1.4c0.2-0.2,0.3-0.4,0.3-0.7c0-0.5-0.4-0.9-0.9-0.9c-0.2,0-0.5,0.1-0.7,0.2
			c-0.6,0.5-1.3,0.9-2.5,0.9c-2.2,0-3.7-1.7-3.7-3.9c0-2.3,1.5-3.9,3.7-3.9c1.2,0,1.9,0.4,2.5,0.9c0.2,0.2,0.4,0.2,0.7,0.2
			c0.6,0,0.9-0.4,0.9-0.9c0-0.3-0.1-0.5-0.3-0.7c-1-1-2.5-1.4-3.8-1.4C20.8,58.7,18.3,61,18.3,64.6L18.3,64.6z M52.1,60v9.2
			c0,0.6,0.5,1,1.1,1h6.4c0.5,0,1-0.4,1-0.9c0-0.5-0.4-1-1-1h-5.3v-2.8h2.8c0.5,0,1-0.4,1-0.9c0-0.5-0.4-1-1-1h-2.8v-2.7h5.1
			c0.5,0,1-0.4,1-1c0-0.5-0.4-0.9-1-0.9h-6.1C52.5,58.9,52.1,59.4,52.1,60L52.1,60z M61.2,69c-0.1,0.1-0.1,0.3-0.1,0.4
			c0,0.5,0.4,1,1,1c0.4,0,0.7-0.2,0.9-0.6l1-2.1h5l1,2.1c0.2,0.4,0.4,0.6,0.9,0.6c0.6,0,1-0.5,1-1c0-0.1,0-0.3-0.1-0.4l-4.3-9.6
			c-0.2-0.4-0.4-0.5-0.9-0.5s-0.7,0.2-0.9,0.5L61.2,69L61.2,69z M64.7,65.9l1.8-4.3l1.8,4.3H64.7L64.7,65.9z"/>
		<g>
			<path class="st1" d="M11.7,33.6h5.9c3.3,0,5.2,1.8,5.2,4.8c0,2.4-1.2,3.6-2.2,4c1.4,0.6,2.8,1.8,2.8,4.7c0,3.6-2.4,5.6-5.8,5.6
				h-5.8V33.6z M16.7,41.2c2.1,0,2.7-0.8,2.7-2.5c0-1.7-0.9-2.4-2.6-2.4H15v4.9H16.7z M15,50h2.1c1.7,0,2.7-0.9,2.7-3
				c0-2-0.8-3.1-3.1-3.1H15V50z"/>
			<path class="st1" d="M34.2,44.2H28v5.6h6.9l-0.4,2.9h-9.9V33.6h9.8v3H28v4.7h6.2V44.2z"/>
			<path class="st1" d="M40.6,47.9l-1,4.8h-3.4c0,0,4.4-19.1,4.4-19.1h4.5l4.5,19.1H46l-1-4.8H40.6z M44.4,44.9
				c-0.7-3.7-1.3-6.3-1.6-8.2h-0.1c-0.2,1.8-0.8,4.6-1.5,8.2H44.4z"/>
			<path class="st1" d="M54,33.2v13.2c0,1.6,0.4,3.4,2.5,3.4c2,0,2.5-1.6,2.5-3.4V33.2h3.4v13.2c0,3.4-1.3,6.2-6,6.2
				c-4.6,0-5.9-2.6-5.9-6.2V33.2H54z"/>
			<path class="st1" d="M67.8,36.6h-4.1v-3h11.6v3h-4.1v16.1h-3.4V36.6z"/>
			<path class="st1" d="M81.3,52.7v-6.8c0-0.2,0-0.4-0.1-0.6l-4.8-11.7h3.8c1.1,3,2.4,6.7,3,8.8c0.7-2.3,2-5.9,3-8.8h3.6l-4.9,11.8
				c-0.1,0.1-0.1,0.4-0.1,0.6v6.7H81.3z"/>
			<polygon class="st1" points="27.2,14.3 27.2,17.9 74.5,17.9 74.5,14.3 27.2,14.3 			"/>
			<polygon class="st1" points="27.2,82.1 27.2,85.7 74.5,85.7 74.5,82.1 27.2,82.1 			"/>
		</g>
		<path class="st1" d="M77.3,68.6c-1.8,0-2.8-1.1-2.8-2.7v-6c0-0.6-0.5-1-1-1c-0.6,0-1,0.5-1,1v5.8c0,2.9,1.8,4.8,4.8,4.8
			c3,0,4.8-1.8,4.8-4.8v-5.8c0-0.6-0.5-1-1-1c-0.6,0-1,0.5-1,1v6C80.1,67.5,79.1,68.6,77.3,68.6L77.3,68.6z M50.5,64.6
			c0-3.1-2.2-5.6-5.6-5.6h-3.1c-0.6,0-1.1,0.5-1.1,1v9.2c0,0.6,0.5,1,1.1,1h3.1C48.3,70.2,50.5,67.7,50.5,64.6L50.5,64.6z
			 M48.4,64.6c0,2.2-1.3,3.7-3.7,3.7h-2v-7.4h2C47.1,60.9,48.4,62.4,48.4,64.6L48.4,64.6z M39.5,69l-4.3-9.6
			c-0.2-0.4-0.4-0.5-0.9-0.5s-0.7,0.2-0.9,0.5L29,69c-0.1,0.1-0.1,0.3-0.1,0.4c0,0.5,0.4,1,1,1c0.4,0,0.7-0.2,0.9-0.6l1-2.1h5l1,2.1
			c0.2,0.4,0.4,0.6,0.9,0.6c0.6,0,1-0.5,1-1C39.6,69.2,39.6,69.1,39.5,69L39.5,69z M36,65.9h-3.5l1.8-4.3L36,65.9L36,65.9z
			 M18.3,64.6c0,3.5,2.4,5.8,5.8,5.8c1.3,0,2.8-0.4,3.8-1.4c0.2-0.2,0.3-0.4,0.3-0.7c0-0.5-0.4-0.9-0.9-0.9c-0.2,0-0.5,0.1-0.7,0.2
			c-0.6,0.5-1.3,0.9-2.5,0.9c-2.2,0-3.7-1.7-3.7-3.9c0-2.3,1.5-3.9,3.7-3.9c1.2,0,1.9,0.4,2.5,0.9c0.2,0.2,0.4,0.2,0.7,0.2
			c0.6,0,0.9-0.4,0.9-0.9c0-0.3-0.1-0.5-0.3-0.7c-1-1-2.5-1.4-3.8-1.4C20.8,58.7,18.3,61,18.3,64.6L18.3,64.6z M52.1,60v9.2
			c0,0.6,0.5,1,1.1,1h6.4c0.5,0,1-0.4,1-0.9c0-0.5-0.4-1-1-1h-5.3v-2.8h2.8c0.5,0,1-0.4,1-0.9c0-0.5-0.4-1-1-1h-2.8v-2.7h5.1
			c0.5,0,1-0.4,1-1c0-0.5-0.4-0.9-1-0.9h-6.1C52.5,58.9,52.1,59.4,52.1,60L52.1,60z M61.2,69c-0.1,0.1-0.1,0.3-0.1,0.4
			c0,0.5,0.4,1,1,1c0.4,0,0.7-0.2,0.9-0.6l1-2.1h5l1,2.1c0.2,0.4,0.4,0.6,0.9,0.6c0.6,0,1-0.5,1-1c0-0.1,0-0.3-0.1-0.4l-4.3-9.6
			c-0.2-0.4-0.4-0.5-0.9-0.5s-0.7,0.2-0.9,0.5L61.2,69L61.2,69z M64.7,65.9l1.8-4.3l1.8,4.3H64.7L64.7,65.9z"/>
	</g>
</g>
</svg>
