<?xml version="1.0" encoding="utf-8"?>
<!-- Generator: Adobe Illustrator 25.4.0, SVG Export Plug-In . SVG Version: 6.00 Build 0)  -->
<svg version="1.1" id="Laag_1" xmlns="http://www.w3.org/2000/svg" xmlns:xlink="http://www.w3.org/1999/xlink" x="0px" y="0px"
	 viewBox="0 0 100 100" style="enable-background:new 0 0 100 100;" xml:space="preserve">
<style type="text/css">
	.st0{fill:#FFFFFF;}
	.st1{fill:#002392;}
	.st2{fill:#002382;}
	.st3{fill:#FF8200;}
</style>
<path class="st0" d="M10.4,0.5h79.3c5.5,0,9.9,4.4,9.9,9.9v79.3c0,5.5-4.4,9.9-9.9,9.9H10.4c-5.5,0-9.9-4.4-9.9-9.9V10.3
	C0.5,4.9,4.9,0.5,10.4,0.5z"/>
<path class="st1" d="M89.6,1c5.2,0,9.3,4.2,9.4,9.3v79.3c0,5.2-4.2,9.4-9.4,9.4c0,0,0,0,0,0H10.4C5.2,99,1,94.8,1,89.6c0,0,0,0,0,0
	V10.3C1,5.2,5.2,1,10.4,1H89.6 M89.6,0H10.4C4.7,0,0,4.6,0,10.3v79.3C0,95.3,4.6,100,10.4,100h79.3c5.7,0,10.4-4.7,10.4-10.4V10.3
	C100,4.6,95.3,0,89.6,0z"/>
<g>
	<g>
		<path class="st1" d="M100,58v35.1c0,1.9-7.5,6.9-9.4,6.9H9.4c-1.9,0-9.1-5.9-9.1-7.8L0,58h76.4"/>
		<path class="st0" d="M64.6,75.8v6.7h-2.3v-6.7l-6-9.9l2.3-0.5l4.9,8.3l4.7-8.1h2.6L64.6,75.8z M49.8,68.2l-2.7,7.2h5.4
			C52.6,75.4,49.8,68.2,49.8,68.2z M55.3,82.7l-2-5.3h-7l-1.9,5.1h-2.3l6.7-17.1H51l6.5,16.7L55.3,82.7L55.3,82.7z M36.5,67.6h-2.1
			v6h1.9c2.3,0,3.7-1,3.7-3.1C40.1,68.6,38.9,67.6,36.5,67.6 M36.3,75.7h-1.8v6.9h-2.3v-17h4.5c3.6,0,5.8,1.8,5.8,4.9
			C42.4,73.9,40,75.6,36.3,75.7"/>
		<path class="st2" d="M59.4,17.7l-9.2,24.8l-0.9-5c-2.3-6.2-6.7-12.3-12.5-15L44.6,54h9.9l14.8-36.3H59.4"/>
		<path class="st3" d="M42.1,17.7H27.4l-0.2,1c11.8,3,18.9,10.1,22.1,18.8l-3-16.7C45.8,18.5,44.1,17.8,42.1,17.7"/>
	</g>
</g>
</svg>
