<?xml version="1.0" encoding="utf-8"?>
<!-- Generator: Adobe Illustrator 28.3.0, SVG Export Plug-In . SVG Version: 6.00 Build 0)  -->
<svg version="1.1" id="Laag_1" xmlns="http://www.w3.org/2000/svg" xmlns:xlink="http://www.w3.org/1999/xlink" x="0px" y="0px"
	 viewBox="0 0 100 100" style="enable-background:new 0 0 100 100;" xml:space="preserve">
<style type="text/css">
	.st0{fill:#FA5122;}
	.st1{fill:#FFFFFF;}
</style>
<g>
	<path class="st0" d="M90,100H10c-5.5,0-10-4.5-10-10V10C0,4.5,4.5,0,10,0h80c5.5,0,10,4.5,10,10v80C100,95.5,95.5,100,90,100z"/>
</g>
<g>
	<path class="st1" d="M84,44.4c0-0.7,0-1.4,0-2.1l4.2,0l0,16l-4,0c0-0.8,0-1.7,0-2.5c0,0,0,0-0.1,0c-0.1,0.1-0.1,0.1-0.2,0.2
		c-0.8,1.1-1.8,1.9-3.1,2.3C80,58.7,79,58.8,78,58.7c-2.5-0.3-4.3-1.6-5.6-3.7c-0.7-1.1-1.1-2.3-1.2-3.6c-0.2-2.2,0.2-4.2,1.3-6.1
		c1-1.5,2.3-2.6,4-3.2c2.6-0.8,5.3-0.1,7.2,2.1C83.8,44.3,83.9,44.3,84,44.4C83.9,44.4,84,44.4,84,44.4z M79.7,54.7
		c0.7,0,1.4-0.2,2.1-0.6c2.3-1.4,2.9-4.6,1.2-6.7c-1.6-2-4.5-2.2-6.3-0.4c-1.2,1.2-1.6,2.6-1.2,4.2C75.9,53.3,77.7,54.7,79.7,54.7z"
		/>
	<path class="st1" d="M43.8,58.4h4.3c0-3.2,0-7.3,0-9.4c0-0.3,0-0.6,0.1-0.9c0.2-1.3,1.2-2.1,2.5-2.2c1.3-0.1,2.4,0.7,2.7,1.9
		c0.1,0.4,0.1,0.7,0.1,1.1c0,2.2,0,6.2,0,9.5h4.3c0-3.2,0-7.3,0-9.4c0-0.2,0-0.4,0-0.6c0.1-1.3,1-2.3,2.3-2.5
		c1.1-0.1,2.3,0.4,2.8,1.7c0.2,0.4,0.2,0.9,0.2,1.3c0,2.2,0,6.2,0,9.5h4.3c0-3.1,0-7,0-9c0-0.4,0-0.8-0.1-1.3
		c-0.1-1-0.3-1.9-0.8-2.8c-0.7-1.4-1.8-2.5-3.2-3.1c-1.1-0.4-2.2-0.5-3.3-0.4c-1.8,0.2-3.2,1.1-4.2,2.5c0,0.1-0.1,0.1-0.2,0.2
		c-0.1-0.1-0.1-0.2-0.2-0.2c-0.8-1.2-1.9-1.9-3.2-2.3c-0.9-0.2-1.7-0.3-2.6-0.2c-1.3,0.1-2.4,0.6-3.3,1.4c-1.2,1-1.9,2.3-2.2,3.8
		c-0.2,0.7-0.2,1.4-0.2,2.2c0,2.1,0,4.1,0,6.2C43.8,55.8,43.8,57.1,43.8,58.4z"/>
	<path class="st1" d="M24.9,55.4c0.9,0.7,1.7,1.9,2,3h4.3c0,0,0,0,0-0.1c-1-3.6-2.3-7.6-3.3-11.2c-0.5-1.7-0.9-3.4-1.4-5.1
		c-0.3-1-0.7-2-1.4-2.8c-1.3-1.6-2.9-2.1-4.9-1.6c-1.1,0.3-1.9,0.9-2.6,1.8c-0.6,0.8-1,1.8-1.3,2.8c-0.9,3.1-1.7,6.3-2.6,9.4
		c-0.6,2.1-1.2,4.3-1.8,6.4c0,0.1-0.1,0.2-0.1,0.4c1.5,0,2.9,0,4.3,0c0-0.1,0.1-0.2,0.1-0.3c0.8-2.2,2.3-3.5,4.7-3.8
		C22.4,54,23.7,54.4,24.9,55.4z M17.9,51.8C17.9,51.8,17.8,51.8,17.9,51.8c0-0.3,0.1-0.6,0.2-0.9c0.8-2.8,1.5-5.6,2.3-8.4
		c0.1-0.2,0.1-0.4,0.3-0.6c0.4-0.7,1.3-0.7,1.7,0c0.1,0.2,0.2,0.5,0.3,0.7c0.8,3,1.6,6,2.4,9c0,0.1,0,0.2,0,0.3
		c-0.5-0.4-1.1-0.8-1.7-1c-0.6-0.2-1.2-0.3-1.9-0.3c-0.7,0-1.3,0.1-1.9,0.3C18.9,51.1,18.4,51.4,17.9,51.8z"/>
	<path class="st1" d="M34.5,37.3c0,6,0,15.3,0,21.1h4.3c0-5.8,0-15.1,0-21.1H34.5z"/>
</g>
</svg>
