<?xml version="1.0" encoding="utf-8"?>
<!-- Generator: Adobe Illustrator 25.4.0, SVG Export Plug-In . SVG Version: 6.00 Build 0)  -->
<svg version="1.1" id="Laag_1" xmlns="http://www.w3.org/2000/svg" xmlns:xlink="http://www.w3.org/1999/xlink" x="0px" y="0px"
	 viewBox="0 0 100 100" style="enable-background:new 0 0 100 100;" xml:space="preserve">
<style type="text/css">
	.st0{fill:#14477C;}
	.st1{fill:#6C6B9F;}
	.st2{fill:#B52011;}
	.st3{fill:#0080C1;}
</style>
<path class="st0" d="M10.4,0h79.3C95.4,0,100,4.6,100,10.4v79.3c0,5.7-4.6,10.4-10.4,10.4H10.4C4.6,100,0,95.4,0,89.6V10.4
	C0,4.6,4.6,0,10.4,0z"/>
<polygon class="st1" points="60.1,68.2 39.9,68.2 39.9,31.8 60.1,31.8 "/>
<path class="st2" d="M41.2,50c0-7.1,3.3-13.8,8.8-18.2c-10.1-7.9-24.6-6.2-32.5,3.9s-6.2,24.6,3.9,32.5c8.4,6.6,20.3,6.6,28.7,0
	C44.4,63.8,41.1,57.1,41.2,50"/>
<path class="st3" d="M87.5,50c0,12.8-10.4,23.2-23.2,23.2c-5.2,0-10.3-1.7-14.3-5c10.1-7.9,11.8-22.5,3.9-32.5
	c-1.1-1.4-2.4-2.8-3.9-3.9c10.1-7.9,24.6-6.2,32.5,3.9C85.8,39.7,87.5,44.8,87.5,50"/>
</svg>
