<?xml version="1.0" encoding="UTF-8"?>
<svg id="Laag_1" data-name="Laag 1" xmlns="http://www.w3.org/2000/svg" xmlns:xlink="http://www.w3.org/1999/xlink" viewBox="0 0 100 100">
  <defs>
    <style>
      .cls-1 {
        fill: url(#Naamloos_verloop_3);
      }

      .cls-1, .cls-2, .cls-3, .cls-4 {
        fill-rule: evenodd;
      }

      .cls-2 {
        fill: url(#Naamloos_verloop_4);
      }

      .cls-3 {
        fill: url(#Naamloos_verloop_2);
      }

      .cls-4 {
        fill: url(#Naamloos_verloop_5);
      }

      .cls-5 {
        fill: #fff;
      }
    </style>
    <linearGradient id="Naamloos_verloop_5" data-name="Naamloos verloop 5" x1="-48.67" y1="203.74" x2="-55.93" y2="221.61" gradientTransform="translate(131.29 428.73) scale(1.44 -1.78)" gradientUnits="userSpaceOnUse">
      <stop offset="0" stop-color="#ef2131"/>
      <stop offset="1" stop-color="#fecf2c"/>
    </linearGradient>
    <linearGradient id="Naamloos_verloop_2" data-name="Naamloos verloop 2" x1="-37.91" y1="225.18" x2="-52.7" y2="197.12" gradientTransform="translate(131.21 418.43) scale(1.53 -1.67)" gradientUnits="userSpaceOnUse">
      <stop offset="0" stop-color="#fbc52c"/>
      <stop offset=".26" stop-color="#f87130"/>
      <stop offset=".56" stop-color="#ef52e2"/>
      <stop offset="1" stop-color="#661eec"/>
    </linearGradient>
    <linearGradient id="Naamloos_verloop_3" data-name="Naamloos verloop 3" x1="-8.6" y1="204.01" x2="-1.65" y2="186.57" gradientTransform="translate(51.38 395.84) scale(1.44 -1.78)" gradientUnits="userSpaceOnUse">
      <stop offset="0" stop-color="#78f6d8"/>
      <stop offset=".27" stop-color="#77d1f6"/>
      <stop offset=".55" stop-color="#70a4f3"/>
      <stop offset="1" stop-color="#661eec"/>
    </linearGradient>
    <linearGradient id="Naamloos_verloop_4" data-name="Naamloos verloop 4" x1="-16.03" y1="195.69" x2="-1.36" y2="223.65" gradientTransform="translate(51.29 385.54) scale(1.53 -1.67)" gradientUnits="userSpaceOnUse">
      <stop offset="0" stop-color="#536eed"/>
      <stop offset=".25" stop-color="#54c3ec"/>
      <stop offset=".56" stop-color="#64d769"/>
      <stop offset="1" stop-color="#fecf2c"/>
    </linearGradient>
  </defs>
  <path class="cls-5" d="M10,0h78.79c6.19,0,11.21,5.02,11.21,11.21v77.58c0,6.19-5.02,11.21-11.21,11.21H11.21c-6.19,0-11.21-5.02-11.21-11.21V10C0,4.48,4.48,0,10,0Z"/>
  <g>
    <path class="cls-4" d="M34.96,81.48c14.01,6.7,31.31,3.39,41.76-9.06,12.38-14.76,10.46-36.75-4.3-49.13l-9.81,11.69c11.53,9.67,13.03,26.86,3.36,38.38-7.71,9.19-20.42,12.26-31.01,8.12"/>
    <path class="cls-3" d="M34.96,81.48c14.01,6.7,31.31,3.39,41.76-9.06,1.26-1.5,2.39-3.1,3.38-4.79,1.65-10.25-1.98-21.09-10.51-28.25-2.11-1.78-4.46-3.26-6.97-4.4,11.53,9.67,13.03,26.86,3.35,38.38-7.71,9.19-20.42,12.26-31.01,8.12"/>
    <path class="cls-1" d="M65.04,18.52c-14.01-6.7-31.31-3.38-41.76,9.06-12.38,14.76-10.46,36.75,4.3,49.13l9.81-11.69c-11.53-9.67-13.03-26.86-3.36-38.38,7.71-9.19,20.42-12.26,31.01-8.12"/>
    <path class="cls-2" d="M65.04,18.52c-14.01-6.7-31.31-3.38-41.76,9.06-1.26,1.5-2.39,3.1-3.38,4.79-1.65,10.25,1.98,21.09,10.51,28.25,2.11,1.78,4.46,3.26,6.97,4.4-11.53-9.67-13.03-26.86-3.35-38.38,7.71-9.19,20.42-12.26,31.01-8.12"/>
  </g>
</svg>