<?xml version="1.0" encoding="UTF-8"?>
<svg id="Laag_1" data-name="Laag 1" xmlns="http://www.w3.org/2000/svg" xmlns:xlink="http://www.w3.org/1999/xlink" viewBox="0 0 100 100">
  <defs>
    <style>
      .cls-1 {
        fill: #ff2300;
      }

      .cls-2 {
        fill: none;
      }

      .cls-3 {
        fill: #ff0b00;
      }

      .cls-4 {
        fill: #ffa100;
      }

      .cls-5 {
        fill: #ff4f00;
      }

      .cls-6 {
        fill: #ff9b00;
      }

      .cls-7 {
        fill: #ff0100;
      }

      .cls-8 {
        fill: #ffbd00;
      }

      .cls-9 {
        fill: #ff1f00;
      }

      .cls-10 {
        fill: #ff1700;
      }

      .cls-11 {
        fill: #ffc100;
      }

      .cls-12 {
        fill: #f50;
      }

      .cls-13 {
        fill: #ff0200;
      }

      .cls-14 {
        fill: #ff8700;
      }

      .cls-15 {
        fill: #ffa000;
      }

      .cls-16 {
        fill: #ffad00;
      }

      .cls-17 {
        fill: #ff8a00;
      }

      .cls-18 {
        fill: #ff3c00;
      }

      .cls-19 {
        fill: #fc0;
      }

      .cls-20 {
        fill: #ff3800;
      }

      .cls-21 {
        fill: #ff3900;
      }

      .cls-22 {
        fill: #ff2e00;
      }

      .cls-23 {
        fill: #ff3600;
      }

      .cls-24 {
        fill: #ff6900;
      }

      .cls-25 {
        fill: #ffcb00;
      }

      .cls-26 {
        fill: #ff6d00;
      }

      .cls-27 {
        fill: #ff6700;
      }

      .cls-28 {
        fill: #ff7c00;
      }

      .cls-29 {
        fill: #ff8100;
      }

      .cls-30 {
        fill: #f70;
      }

      .cls-31 {
        fill: #ff4200;
      }

      .cls-32 {
        fill: #ff0600;
      }

      .cls-33 {
        fill: #ff2b00;
      }

      .cls-34 {
        fill: #fa0;
      }

      .cls-35 {
        fill: #ffab00;
      }

      .cls-36 {
        fill: #ff3e00;
      }

      .cls-37 {
        fill: #ff2800;
      }

      .cls-38 {
        fill: #ff0a00;
      }

      .cls-39 {
        fill: #ff1300;
      }

      .cls-40 {
        fill: #ff1600;
      }

      .cls-41 {
        fill: #ff1b00;
      }

      .cls-42 {
        fill: #ff4b00;
      }

      .cls-43 {
        fill: #ff1000;
      }

      .cls-44 {
        fill: #ff0300;
      }

      .cls-45 {
        fill: #ff0400;
      }

      .cls-46 {
        fill: #ffa700;
      }

      .cls-47 {
        fill: #ff9100;
      }

      .cls-48 {
        fill: #ff9200;
      }

      .cls-49 {
        fill: #ff1a00;
      }

      .cls-50 {
        fill: #ff8d00;
      }

      .cls-51 {
        fill: #ff3400;
      }

      .cls-52 {
        fill: #ff7000;
      }

      .cls-53 {
        fill: #ff3d00;
      }

      .cls-54 {
        fill: #ff9a00;
      }

      .cls-55 {
        fill: #ffb900;
      }

      .cls-56 {
        fill: #ff1800;
      }

      .cls-57 {
        fill: #ffa600;
      }

      .cls-58 {
        fill: #ff6400;
      }

      .cls-59 {
        fill: #ff5700;
      }

      .cls-60 {
        fill: #ff2600;
      }

      .cls-61 {
        fill: #ff9300;
      }

      .cls-62 {
        fill: #ffb300;
      }

      .cls-63 {
        fill: #ff5600;
      }

      .cls-64 {
        fill: #ff4c00;
      }

      .cls-65 {
        fill: #ffbe00;
      }

      .cls-66 {
        fill: #ffb000;
      }

      .cls-67 {
        fill: #ff8c00;
      }

      .cls-68 {
        fill: #ff3f00;
      }

      .cls-69 {
        fill: #ff9d00;
      }

      .cls-70 {
        fill: #ff8b00;
      }

      .cls-71 {
        fill: #ff5a00;
      }

      .cls-72 {
        fill: #ff4e00;
      }

      .cls-73 {
        fill: #ffb100;
      }

      .cls-74 {
        fill: #f90;
      }

      .cls-75 {
        fill: #ff7900;
      }

      .cls-76 {
        fill: #ff8600;
      }

      .cls-77 {
        fill: #ffc600;
      }

      .cls-78 {
        fill: #ff6f00;
      }

      .cls-79 {
        fill: #ff2100;
      }

      .cls-80 {
        fill: #ff8400;
      }

      .cls-81 {
        fill: #ff2000;
      }

      .cls-82 {
        fill: #ffc900;
      }

      .cls-83 {
        fill: #ff1400;
      }

      .cls-84 {
        fill: #fb0;
      }

      .cls-85 {
        fill: #ff3500;
      }

      .cls-86 {
        fill: #ff6800;
      }

      .cls-87 {
        fill: #ff3b00;
      }

      .cls-88 {
        fill: #ff9800;
      }

      .cls-89 {
        fill: orange;
      }

      .cls-90 {
        fill: #ff5c00;
      }

      .cls-91 {
        fill: #ff3000;
      }

      .cls-92 {
        fill: #ff4600;
      }

      .cls-93 {
        fill: #ff1500;
      }

      .cls-94 {
        fill: #ff2c00;
      }

      .cls-95 {
        fill: #ffb600;
      }

      .cls-96 {
        fill: #ff8f00;
      }

      .cls-97 {
        fill: #ff6c00;
      }

      .cls-98 {
        fill: #ff7d00;
      }

      .cls-99 {
        fill: #ff9400;
      }

      .cls-100 {
        fill: #ff0f00;
      }

      .cls-101 {
        fill: #ff9f00;
      }

      .cls-102 {
        fill: #ffc300;
      }

      .cls-103 {
        fill: #ff9c00;
      }

      .cls-104 {
        fill: #ffb800;
      }

      .cls-105 {
        fill: #ff6300;
      }

      .cls-106 {
        fill: #fff;
      }

      .cls-107 {
        fill: #f60;
      }

      .cls-108 {
        fill: #ff5800;
      }

      .cls-109 {
        fill: #ffc000;
      }

      .cls-110 {
        fill: #ffa400;
      }

      .cls-111 {
        fill: #ffb700;
      }

      .cls-112 {
        fill: #ff4a00;
      }

      .cls-113 {
        fill: #ff9600;
      }

      .cls-114 {
        fill: #ff7500;
      }

      .cls-115 {
        fill: #ffa300;
      }

      .cls-116 {
        fill: #f80;
      }

      .cls-117 {
        fill: #ff8300;
      }

      .cls-118 {
        fill: #ff4800;
      }

      .cls-119 {
        fill: #ffc800;
      }

      .cls-120 {
        fill: #ff3700;
      }

      .cls-121 {
        fill: #ff2500;
      }

      .cls-122 {
        fill: #ff2900;
      }

      .cls-123 {
        fill: #ff1e00;
      }

      .cls-124 {
        fill: #ff6100;
      }

      .cls-125 {
        fill: #ffc500;
      }

      .cls-126 {
        fill: #ff0500;
      }

      .cls-127 {
        fill: #f40;
      }

      .cls-128 {
        fill: #ff7a00;
      }

      .cls-129 {
        fill: #ff4900;
      }

      .cls-130 {
        fill: #ffae00;
      }

      .cls-131 {
        fill: #ff9700;
      }

      .cls-132 {
        fill: #ffa200;
      }

      .cls-133 {
        fill: #ff7400;
      }

      .cls-134 {
        fill: #ff3100;
      }

      .cls-135 {
        fill: #ff5f00;
      }

      .cls-136 {
        fill: #ffbc00;
      }

      .cls-137 {
        fill: #f30;
      }

      .cls-138 {
        fill: #ff5300;
      }

      .cls-139 {
        fill: #ff4100;
      }

      .cls-140 {
        fill: #ffa800;
      }

      .cls-141 {
        fill: red;
      }

      .cls-142 {
        fill: #ff5100;
      }

      .cls-143 {
        fill: #ff4500;
      }

      .cls-144 {
        fill: #ff8e00;
      }

      .cls-145 {
        fill: #ff4d00;
      }

      .cls-146 {
        fill: #ff7e00;
      }

      .cls-147 {
        fill: #ffb500;
      }

      .cls-148 {
        fill: #ff6b00;
      }

      .cls-149 {
        fill: #ff2700;
      }

      .cls-150 {
        fill: #ff4700;
      }

      .cls-151 {
        fill: #ff6500;
      }

      .cls-152 {
        fill: #ff7f00;
      }

      .cls-153 {
        fill: #ff7200;
      }

      .cls-154 {
        fill: #ff7100;
      }

      .cls-155 {
        fill: #ff8900;
      }

      .cls-156 {
        fill: #ff5d00;
      }

      .cls-157 {
        fill: #ff6200;
      }

      .cls-158 {
        fill: #ff5400;
      }

      .cls-159 {
        fill: #ffbf00;
      }

      .cls-160 {
        fill: #ff7600;
      }

      .cls-161 {
        fill: #ff2d00;
      }

      .cls-162 {
        fill: #ff0900;
      }

      .cls-163 {
        fill: #ff2a00;
      }

      .cls-164 {
        fill: #ff5000;
      }

      .cls-165 {
        fill: #f10;
      }

      .cls-166 {
        fill: #ff0e00;
      }

      .cls-167 {
        fill: #ffc400;
      }

      .cls-168 {
        fill: #ff0800;
      }

      .cls-169 {
        fill: #ffc700;
      }

      .cls-170 {
        fill: #ff8500;
      }

      .cls-171 {
        fill: #ff7b00;
      }

      .cls-172 {
        fill: #ffba00;
      }

      .cls-173 {
        fill: #ffaf00;
      }

      .cls-174 {
        fill: #ff0d00;
      }

      .cls-175 {
        fill: #ff0700;
      }

      .cls-176 {
        fill: #ff8200;
      }

      .cls-177 {
        fill: #ff4000;
      }

      .cls-178 {
        fill: #ffa900;
      }

      .cls-179 {
        fill: #ff5200;
      }

      .cls-180 {
        fill: #ff1900;
      }

      .cls-181 {
        fill: #ff7800;
      }

      .cls-182 {
        fill: url(#Naamloos_verloop_6);
      }

      .cls-183 {
        fill: #ff5e00;
      }

      .cls-184 {
        fill: #f20;
      }

      .cls-185 {
        fill: #ff6a00;
      }

      .cls-186 {
        fill: #ffb200;
      }

      .cls-187 {
        fill: #ff2400;
      }

      .cls-188 {
        fill: #ff3a00;
      }

      .cls-189 {
        fill: #ff1200;
      }

      .cls-190 {
        fill: #ff7300;
      }

      .cls-191 {
        fill: #ffac00;
      }

      .cls-192 {
        fill: #ff9500;
      }

      .cls-193 {
        fill: #ff4300;
      }

      .cls-194 {
        clip-path: url(#clippath);
      }

      .cls-195 {
        fill: #ff9000;
      }

      .cls-196 {
        fill: #ff5900;
      }

      .cls-197 {
        fill: #ff1c00;
      }

      .cls-198 {
        fill: #ff6e00;
      }

      .cls-199 {
        fill: #ff1d00;
      }

      .cls-200 {
        fill: #ff3200;
      }

      .cls-201 {
        fill: #ff6000;
      }
    </style>
    <clipPath id="clippath">
      <path class="cls-2" d="M73.71,47.67l-11.06,16.26-5.67-8.67,6.53-9.8c1.2-1.73,3.8-6.53.8-13.06-2.4-5.33-7.67-7.87-12.33-7.87s-9.67,2.4-12.33,7.87c-3.07,6.33-.4,11.2.73,12.86,0,0,3.67,5.33,6.67,9.8l4.93,7.13,7.4,11.33c.07.07,1.2,1.87,3.27,1.87,1.93,0,3.2-1.8,3.33-1.93l17.33-25.66h-9.6v-.13h0ZM51.91,48.07s-2.87-4.4-4.8-7.47c-2-3.27.2-8.2,4.8-8.2s6.8,4.93,4.8,8.2c-1.87,3.07-4.8,7.47-4.8,7.47Z"/>
    </clipPath>
    <radialGradient id="Naamloos_verloop_6" data-name="Naamloos verloop 6" cx="43.03" cy="-631.06" fx="43.03" fy="-631.06" r=".93" gradientTransform="translate(-2155.09 48272.6) scale(50.49 76.44)" gradientUnits="userSpaceOnUse">
      <stop offset="0" stop-color="#00b4e6"/>
      <stop offset=".2" stop-color="#00b0e3"/>
      <stop offset=".39" stop-color="#01a5db"/>
      <stop offset=".57" stop-color="#0292cd"/>
      <stop offset=".75" stop-color="#0377ba"/>
      <stop offset=".93" stop-color="#0455a1"/>
      <stop offset="1" stop-color="#054696"/>
    </radialGradient>
  </defs>
  <path class="cls-106" d="M10,0h78.79c6.19,0,11.21,5.02,11.21,11.21v77.58c0,6.19-5.02,11.21-11.21,11.21H11.21c-6.19,0-11.21-5.02-11.21-11.21V10C0,4.48,4.48,0,10,0Z"/>
  <g>
    <g id="Shape">
      <g class="cls-194">
        <rect class="cls-141" x="45.11" y="32.4" width="13.6" height="15.66"/>
        <rect class="cls-141" x="44.11" y="31.4" width="15.6" height="17.66"/>
        <rect class="cls-141" x="44.11" y="31.4" width="15.6" height="17.66"/>
        <rect class="cls-141" x="44.11" y="31.4" width="15.6" height="17.66"/>
        <rect class="cls-7" x="44.11" y="31.4" width="15.6" height="17.66"/>
        <rect class="cls-13" x="44.11" y="31.4" width="15.6" height="17.66"/>
        <rect class="cls-44" x="44.11" y="31.4" width="15.6" height="17.66"/>
        <rect class="cls-45" x="44.11" y="31.4" width="15.6" height="17.66"/>
        <rect class="cls-126" x="44.11" y="31.4" width="15.6" height="17.66"/>
        <rect class="cls-32" x="44.11" y="31.4" width="15.6" height="17.66"/>
        <rect class="cls-175" x="44.11" y="31.4" width="15.6" height="17.66"/>
        <rect class="cls-168" x="44.11" y="31.4" width="15.6" height="17.66"/>
        <rect class="cls-162" x="44.11" y="31.4" width="15.6" height="17.66"/>
        <rect class="cls-38" x="44.11" y="31.4" width="15.6" height="17.66"/>
        <rect class="cls-3" x="44.11" y="31.4" width="15.6" height="17.66"/>
        <rect class="cls-174" x="44.11" y="31.4" width="15.6" height="17.66"/>
        <rect class="cls-166" x="44.11" y="31.4" width="15.6" height="17.66"/>
        <rect class="cls-100" x="44.11" y="31.4" width="15.6" height="17.66"/>
        <rect class="cls-43" x="44.11" y="31.4" width="15.6" height="17.66"/>
        <rect class="cls-165" x="44.11" y="31.4" width="15.6" height="17.66"/>
        <rect class="cls-189" x="44.11" y="31.4" width="15.6" height="17.66"/>
        <rect class="cls-39" x="44.11" y="31.4" width="15.6" height="17.66"/>
        <rect class="cls-83" x="44.11" y="31.4" width="15.6" height="17.66"/>
        <rect class="cls-93" x="44.11" y="31.4" width="15.6" height="17.66"/>
        <rect class="cls-40" x="44.11" y="31.4" width="15.6" height="17.66"/>
        <rect class="cls-10" x="44.11" y="31.4" width="15.6" height="17.66"/>
        <rect class="cls-56" x="44.11" y="31.4" width="15.6" height="17.66"/>
        <rect class="cls-56" x="44.11" y="31.4" width="15.6" height="17.66"/>
        <rect class="cls-180" x="44.11" y="31.4" width="15.6" height="17.66"/>
        <rect class="cls-49" x="44.11" y="31.4" width="15.6" height="17.66"/>
        <rect class="cls-41" x="44.11" y="31.4" width="15.6" height="17.66"/>
        <rect class="cls-197" x="44.11" y="31.4" width="15.6" height="17.66"/>
        <rect class="cls-199" x="44.11" y="31.4" width="15.6" height="17.66"/>
        <rect class="cls-123" x="44.11" y="31.4" width="15.6" height="17.66"/>
        <rect class="cls-9" x="44.11" y="31.4" width="15.6" height="17.66"/>
        <rect class="cls-81" x="44.11" y="31.4" width="15.6" height="17.66"/>
        <rect class="cls-79" x="44.11" y="31.4" width="15.6" height="17.66"/>
        <rect class="cls-184" x="44.11" y="31.4" width="15.6" height="17.66"/>
        <rect class="cls-1" x="44.11" y="31.4" width="15.6" height="17.66"/>
        <rect class="cls-187" x="44.11" y="31.4" width="15.6" height="17.66"/>
        <rect class="cls-121" x="44.11" y="31.4" width="15.6" height="17.66"/>
        <rect class="cls-60" x="44.11" y="31.4" width="15.6" height="17.66"/>
        <rect class="cls-149" x="44.11" y="31.4" width="15.6" height="17.66"/>
        <rect class="cls-37" x="44.11" y="31.4" width="15.6" height="17.66"/>
        <rect class="cls-122" x="44.11" y="31.4" width="15.6" height="17.66"/>
        <rect class="cls-163" x="44.11" y="31.4" width="15.6" height="17.66"/>
        <rect class="cls-33" x="44.11" y="31.4" width="15.6" height="17.66"/>
        <rect class="cls-94" x="44.11" y="31.4" width="15.6" height="17.66"/>
        <rect class="cls-161" x="44.11" y="31.4" width="15.6" height="17.66"/>
        <rect class="cls-22" x="44.11" y="31.4" width="15.6" height="17.66"/>
        <rect class="cls-91" x="44.11" y="31.4" width="15.6" height="17.66"/>
        <rect class="cls-134" x="44.11" y="31.4" width="15.6" height="17.66"/>
        <rect class="cls-200" x="44.11" y="31.4" width="15.6" height="17.66"/>
        <rect class="cls-137" x="44.11" y="31.4" width="15.6" height="17.66"/>
        <rect class="cls-51" x="44.11" y="31.4" width="15.6" height="17.66"/>
        <rect class="cls-85" x="44.11" y="31.4" width="15.6" height="17.66"/>
        <rect class="cls-23" x="44.11" y="31.4" width="15.6" height="17.66"/>
        <rect class="cls-120" x="44.11" y="31.4" width="15.6" height="17.66"/>
        <rect class="cls-20" x="44.11" y="31.4" width="15.6" height="17.66"/>
        <rect class="cls-21" x="44.11" y="31.4" width="15.6" height="17.66"/>
        <rect class="cls-188" x="44.11" y="31.4" width="15.6" height="17.66"/>
        <rect class="cls-87" x="44.11" y="31.4" width="15.6" height="17.66"/>
        <rect class="cls-18" x="44.11" y="31.4" width="15.6" height="17.66"/>
        <rect class="cls-53" x="44.11" y="31.4" width="15.6" height="17.66"/>
        <rect class="cls-36" x="44.11" y="31.4" width="15.6" height="17.66"/>
        <rect class="cls-68" x="44.11" y="31.4" width="15.6" height="17.66"/>
        <path class="cls-177" d="M59.71,31.4v17.61h6.34c-2.27,2.56-4.97,4.63-7.97,6.06v-6.01h-13.97v-17.66h15.6Z"/>
        <path class="cls-139" d="M59.71,31.4v17.55h6.29c-2.26,2.55-4.95,4.62-7.94,6.05v-5.93h-13.94v-17.66h15.6Z"/>
        <path class="cls-31" d="M59.71,31.4v17.48h6.23c-2.25,2.54-4.94,4.6-7.92,6.03v-5.85h-13.91v-17.66h15.6Z"/>
        <path class="cls-193" d="M59.71,31.4v17.42h6.18c-2.25,2.54-4.92,4.59-7.89,6.01v-5.77h-13.88v-17.66h15.6Z"/>
        <path class="cls-127" d="M59.71,31.4v17.36h6.12c-2.24,2.53-4.91,4.58-7.87,5.99v-5.68h-13.85v-17.66h15.6Z"/>
        <path class="cls-143" d="M59.71,31.4v17.3h6.07c-2.23,2.52-4.89,4.56-7.85,5.97v-5.6h-13.82v-17.66h15.6Z"/>
        <path class="cls-92" d="M59.71,31.4v17.23h6.01c-2.23,2.51-4.88,4.55-7.82,5.95v-5.52h-13.79v-17.66h15.6Z"/>
        <path class="cls-150" d="M59.71,31.4v17.17h5.96c-2.22,2.5-4.86,4.53-7.8,5.93v-5.44h-13.76v-17.66h15.6Z"/>
        <path class="cls-150" d="M59.71,31.4v17.11h5.9c-2.21,2.5-4.85,4.52-7.77,5.91v-5.36h-13.73v-17.66h15.6Z"/>
        <path class="cls-118" d="M59.71,31.4v17.04h5.84c-2.2,2.49-4.83,4.5-7.74,5.89v-5.26h-13.69v-17.66h15.6Z"/>
        <path class="cls-129" d="M59.71,31.4v16.96h5.77c-2.2,2.48-4.81,4.48-7.71,5.87v-5.17h-13.66v-17.66h15.6Z"/>
        <path class="cls-112" d="M59.71,31.4v16.89h5.71c-2.19,2.47-4.79,4.47-7.68,5.85v-5.07h-13.62v-17.66h15.6Z"/>
        <path class="cls-42" d="M59.71,31.4v16.82h5.64c-2.18,2.46-4.77,4.45-7.65,5.82v-4.98h-13.59v-17.66h15.6Z"/>
        <path class="cls-64" d="M59.71,31.4v16.74h5.58c-2.17,2.45-4.75,4.43-7.62,5.8v-4.88h-13.55v-17.66h15.6Z"/>
        <path class="cls-145" d="M59.71,31.4v16.67h5.51c-4.32,4.88-10.3,7.9-16.9,7.9v-6.9h-4.21v-17.66h15.6Z"/>
        <path class="cls-72" d="M59.71,31.4v16.59h5.45c-4.31,4.86-10.26,7.87-16.83,7.87v-6.8h-4.21v-17.66h15.6Z"/>
        <path class="cls-5" d="M59.71,31.4v16.52h5.38c-4.29,4.84-10.22,7.84-16.77,7.84v-6.7h-4.21v-17.66h15.6Z"/>
        <path class="cls-164" d="M59.71,31.4v16.45h5.32c-4.27,4.82-10.18,7.81-16.7,7.81v-6.59h-4.21v-17.66h15.6Z"/>
        <path class="cls-142" d="M59.71,31.4v16.37h5.25c-4.26,4.81-10.14,7.78-16.63,7.78v-6.49h-4.21v-17.66h15.6Z"/>
        <path class="cls-179" d="M59.71,31.4v16.3h5.19c-4.24,4.79-10.1,7.75-16.57,7.75v-6.38h-4.21v-17.66h15.6Z"/>
        <path class="cls-138" d="M59.71,31.4v16.23h5.12c-4.22,4.77-10.06,7.72-16.5,7.72v-6.28h-4.21v-17.66h15.6Z"/>
        <path class="cls-158" d="M59.71,31.4v16.15h5.05c-4.21,4.75-10.02,7.69-16.44,7.69v-6.18h-4.21v-17.66h15.6Z"/>
        <path class="cls-12" d="M59.71,31.4v16.08h4.99c-4.19,4.73-9.98,7.66-16.37,7.66v-6.07h-4.21v-17.66h15.6Z"/>
        <path class="cls-63" d="M59.71,31.4v16.01h4.92c-4.17,4.71-9.94,7.63-16.31,7.63v-5.97h-4.21v-17.66h15.6Z"/>
        <path class="cls-59" d="M59.71,31.4v15.93h4.86c-4.16,4.69-9.9,7.59-16.24,7.59v-5.86h-4.21v-17.66h15.6Z"/>
        <path class="cls-108" d="M59.71,31.4v15.86h4.79c-4.14,4.67-9.86,7.56-16.18,7.56v-5.76h-4.21v-17.66h15.6Z"/>
        <path class="cls-196" d="M59.71,31.4v15.79h4.73c-4.12,4.65-9.82,7.53-16.11,7.53v-5.66h-4.21v-17.66h15.6Z"/>
        <path class="cls-71" d="M59.71,31.4v15.71h4.66c-4.11,4.64-9.78,7.5-16.05,7.5v-5.55h-4.21v-17.66h15.6Z"/>
        <path class="cls-90" d="M59.71,31.4v15.64h4.6c-4.09,4.62-9.74,7.47-15.98,7.47v-5.45h-4.21v-17.66h15.6Z"/>
        <path class="cls-156" d="M59.71,31.4v15.56h4.53c-4.07,4.6-9.7,7.44-15.92,7.44v-5.34h-4.21v-17.66h15.6Z"/>
        <path class="cls-183" d="M59.71,31.4v15.49h4.47c-4.06,4.58-9.66,7.41-15.85,7.41v-5.24h-4.21v-17.66h15.6Z"/>
        <path class="cls-135" d="M59.71,31.4v15.42h4.4c-4.04,4.56-9.62,7.38-15.79,7.38v-5.13h-4.21v-17.66h15.6Z"/>
        <path class="cls-201" d="M59.71,31.4v15.34h4.34c-4.02,4.54-9.58,7.35-15.72,7.35v-5.03h-4.21v-17.66h15.6Z"/>
        <path class="cls-124" d="M59.71,31.4v15.27h4.27c-4.01,4.52-9.54,7.32-15.66,7.32v-4.93h-4.21v-17.66h15.6Z"/>
        <path class="cls-157" d="M59.71,31.4v15.2h4.21c-3.99,4.5-9.5,7.29-15.59,7.29v-4.82h-4.21v-17.66h15.6Z"/>
        <path class="cls-105" d="M59.71,31.4v15.12h4.14c-3.97,4.49-9.46,7.26-15.53,7.26v-4.72h-4.21v-17.66h15.6Z"/>
        <path class="cls-58" d="M59.71,31.4v15.05h4.08c-3.96,4.47-9.42,7.23-15.46,7.23v-4.61h-4.21v-17.66h15.6Z"/>
        <path class="cls-151" d="M59.71,31.4v14.98h4.01c-3.94,4.45-9.38,7.2-15.4,7.2v-4.51h-4.21v-17.66h15.6Z"/>
        <path class="cls-107" d="M59.71,31.4v14.9h3.95c-3.92,4.43-9.34,7.17-15.33,7.17v-4.41h-4.21v-17.66h15.6Z"/>
        <path class="cls-27" d="M59.71,31.4v14.83h3.88c-3.91,4.41-9.3,7.14-15.27,7.14v-4.3h-4.21v-17.66h15.6Z"/>
        <path class="cls-86" d="M59.71,31.4v14.76h3.82c-3.89,4.39-9.26,7.11-15.2,7.11v-4.2h-4.21v-17.66h15.6Z"/>
        <path class="cls-24" d="M59.71,31.4v14.68h3.75c-3.87,4.37-9.22,7.08-15.14,7.08v-4.09h-4.21v-17.66h15.6Z"/>
        <path class="cls-185" d="M59.71,31.4v14.61h3.69c-3.86,4.35-9.18,7.05-15.07,7.05v-3.99h-4.21v-17.66h15.6Z"/>
        <path class="cls-148" d="M59.71,31.4v14.53h3.62c-3.84,4.33-9.15,7.02-15.01,7.02v-3.89h-4.21v-17.66h15.6Z"/>
        <path class="cls-97" d="M59.71,31.4v14.46h3.56c-3.82,4.32-9.11,6.99-14.94,6.99v-3.78h-4.21v-17.66h15.6Z"/>
        <path class="cls-26" d="M59.71,31.4v14.39h3.49c-3.81,4.3-9.07,6.95-14.87,6.95v-3.68h-4.21v-17.66h15.6Z"/>
        <path class="cls-198" d="M59.71,31.4v14.31h3.43c-3.79,4.28-9.03,6.92-14.81,6.92v-3.57h-4.21v-17.66h15.6Z"/>
        <path class="cls-78" d="M59.71,31.4v14.24h3.36c-3.77,4.26-8.99,6.89-14.74,6.89v-3.47h-4.21v-17.66h15.6Z"/>
        <path class="cls-52" d="M59.71,31.4v14.17h3.29c-3.76,4.24-8.95,6.86-14.68,6.86v-3.37h-4.21v-17.66h15.6Z"/>
        <path class="cls-52" d="M59.71,31.4v14.09h3.23c-3.74,4.22-8.91,6.83-14.61,6.83v-3.26h-4.21v-17.66h15.6Z"/>
        <path class="cls-154" d="M59.71,31.4v14h3.15c-3.72,4.2-8.86,6.79-14.53,6.79v-3.13h-4.21v-17.66h15.6Z"/>
        <path class="cls-153" d="M59.71,31.4v13.91h3.07c-3.7,4.17-8.81,6.76-14.45,6.76v-3h-4.21v-17.66h15.6Z"/>
        <path class="cls-190" d="M59.71,31.4v13.81h2.98c-3.68,4.15-8.76,6.72-14.37,6.72v-2.87h-4.21v-17.66h15.6Z"/>
        <path class="cls-133" d="M59.71,31.4v13.72h2.9c-3.66,4.13-8.71,6.68-14.29,6.68v-2.74h-4.21v-17.66h15.6Z"/>
        <path class="cls-114" d="M59.71,31.4v13.63h2.82c-3.63,4.1-8.66,6.64-14.2,6.64v-2.61h-4.21v-17.66h15.6Z"/>
        <path class="cls-160" d="M59.71,31.4v13.54h2.74c-3.61,4.08-8.61,6.6-14.12,6.6v-2.47h-4.21v-17.66h15.6Z"/>
        <path class="cls-30" d="M59.71,31.4v13.44h2.65c-3.59,4.06-8.56,6.56-14.04,6.56v-2.34h-4.21v-17.66h15.6Z"/>
        <path class="cls-181" d="M59.71,31.4v13.35h2.57c-3.57,4.03-8.51,6.53-13.96,6.53v-2.21h-4.21v-17.66h15.6Z"/>
        <path class="cls-75" d="M59.71,31.4v13.26h2.49c-3.55,4.01-8.46,6.49-13.87,6.49v-2.08h-4.21v-17.66h15.6Z"/>
        <path class="cls-128" d="M59.71,31.4v13.17h2.41c-3.53,3.98-8.41,6.45-13.79,6.45v-1.95h-4.21v-17.66h15.6Z"/>
        <path class="cls-171" d="M59.71,31.4v13.07h2.33c-3.51,3.96-8.36,6.41-13.71,6.41v-1.82h-4.21v-17.66h15.6Z"/>
        <path class="cls-28" d="M59.71,31.4v12.98h2.24c-3.49,3.94-8.31,6.37-13.63,6.37-2.66,0-5.2-.61-7.5-1.71h3.29v-17.64h15.6Z"/>
        <path class="cls-98" d="M59.71,31.4v12.89h2.16c-3.47,3.91-8.26,6.33-13.55,6.33-2.64,0-5.16-.61-7.46-1.7h3.24v-17.52h15.6Z"/>
        <path class="cls-146" d="M59.71,31.4v12.79h2.08c-3.45,3.89-8.21,6.29-13.46,6.29-2.63,0-5.13-.6-7.41-1.69h3.2v-17.4h15.6Z"/>
        <path class="cls-152" d="M59.71,31.4v12.7h2c-3.42,3.87-8.16,6.26-13.38,6.26-2.61,0-5.1-.6-7.37-1.68h3.15v-17.28h15.6Z"/>
        <path class="cls-29" d="M59.71,31.4v12.61h1.91c-3.4,3.84-8.11,6.22-13.3,6.22-2.6,0-5.07-.59-7.32-1.67h3.11v-17.16h15.6Z"/>
        <path class="cls-176" d="M59.71,31.4v12.52h1.83c-3.38,3.82-8.06,6.18-13.22,6.18-2.58,0-5.04-.59-7.28-1.66h3.06v-17.04h15.6Z"/>
        <path class="cls-117" d="M59.71,31.4v12.42h1.75c-3.36,3.79-8.01,6.14-13.13,6.14-2.56,0-5.01-.59-7.23-1.65h3.02v-16.92h15.6Z"/>
        <path class="cls-80" d="M59.71,31.4v12.33h1.67c-3.34,3.77-7.95,6.1-13.05,6.1-2.55,0-4.98-.58-7.18-1.64h2.97v-16.8h15.6Z"/>
        <path class="cls-170" d="M66.67,29c0,11.43-8.21,20.7-18.34,20.7-2.53,0-4.95-.58-7.14-1.63h2.93v-16.67h15.6l6.96-2.4Z"/>
        <path class="cls-76" d="M66.55,29c0,11.36-8.16,20.57-18.23,20.57-2.52,0-4.91-.58-7.09-1.62h2.88v-16.55h15.6l6.84-2.4Z"/>
        <path class="cls-14" d="M66.44,29c0,11.29-8.11,20.44-18.11,20.44-2.5,0-4.88-.57-7.05-1.61h2.84v-16.43h15.6l6.73-2.4Z"/>
        <path class="cls-116" d="M66.32,29c0,11.22-8.06,20.31-17.99,20.31-2.48,0-4.85-.57-7-1.6h2.79v-16.31h15.6l6.61-2.4Z"/>
        <path class="cls-155" d="M66.2,29c0,11.15-8,20.18-17.88,20.18-2.47,0-4.82-.56-6.96-1.59h2.74v-16.19h15.6l6.49-2.4Z"/>
        <path class="cls-17" d="M66.09,29c0,11.07-7.95,20.05-17.76,20.05-2.45,0-4.79-.56-6.91-1.58h2.7v-16.07h15.6l6.38-2.4Z"/>
        <path class="cls-70" d="M65.97,29c0,11-7.9,19.92-17.64,19.92-2.44,0-4.76-.56-6.87-1.57h2.65v-15.95h15.6l6.26-2.4Z"/>
        <path class="cls-67" d="M65.86,29c0,10.93-7.85,19.79-17.53,19.79-2.42,0-4.73-.55-6.82-1.55h2.61v-15.83h15.6l6.14-2.4Z"/>
        <path class="cls-50" d="M65.74,29c0,10.86-7.8,19.65-17.41,19.65-2.4,0-4.69-.55-6.78-1.54h2.56v-15.71h15.6l6.03-2.4Z"/>
        <path class="cls-144" d="M65.62,29c0,10.78-7.74,19.52-17.3,19.52-2.39,0-4.66-.55-6.73-1.53h2.52v-15.59h15.6l5.91-2.4Z"/>
        <path class="cls-96" d="M65.51,29c0,10.71-7.69,19.39-17.18,19.39-2.37,0-4.63-.54-6.69-1.52h2.47v-15.47h15.6l5.8-2.4Z"/>
        <path class="cls-195" d="M65.39,29c0,10.64-7.64,19.26-17.06,19.26-2.36,0-4.6-.54-6.64-1.51h2.43v-15.34h15.6l5.68-2.4Z"/>
        <path class="cls-47" d="M65.27,29c0,10.57-7.59,19.13-16.95,19.13-2.34,0-4.57-.54-6.6-1.5h2.38v-15.22h15.6l5.56-2.4Z"/>
        <path class="cls-47" d="M65.16,29c0,10.49-7.54,19-16.83,19-2.32,0-4.54-.53-6.55-1.49h2.34v-15.1h15.6l5.45-2.4Z"/>
        <path class="cls-48" d="M65.01,29c0,10.4-7.47,18.83-16.68,18.83-2.3,0-4.5-.53-6.49-1.48h2.28v-14.95h15.6l5.3-2.4Z"/>
        <path class="cls-61" d="M64.86,29c0,10.3-7.4,18.66-16.53,18.66-2.28,0-4.46-.52-6.43-1.47h2.22v-14.79h15.6l5.15-2.4Z"/>
        <path class="cls-99" d="M64.71,29c0,10.21-7.33,18.49-16.38,18.49-2.26,0-4.42-.52-6.38-1.45h2.16v-14.63h15.6l4.99-2.4Z"/>
        <path class="cls-192" d="M64.56,29c0,10.12-7.27,18.32-16.23,18.32-2.24,0-4.38-.51-6.32-1.44h2.1v-14.48h15.6l4.84-2.4Z"/>
        <path class="cls-113" d="M64.4,29c0,10.02-7.2,18.15-16.08,18.15-2.22,0-4.33-.51-6.26-1.43h2.04v-14.32h15.6l4.69-2.4Z"/>
        <path class="cls-131" d="M64.25,29c0,9.93-7.13,17.98-15.93,17.98-2.2,0-4.29-.5-6.2-1.41h1.99v-14.16h15.6l4.54-2.4Z"/>
        <path class="cls-88" d="M64.1,29c0,9.84-7.06,17.81-15.78,17.81-4.36,0-8.3-1.99-11.16-5.22h6.94v-10.19h15.6l4.39-2.4Z"/>
        <path class="cls-74" d="M63.95,29c0,9.74-7,17.64-15.63,17.64-4.31,0-8.22-1.97-11.05-5.17h6.84v-10.07h15.6l4.24-2.4Z"/>
        <path class="cls-54" d="M63.8,29c0,9.65-6.93,17.47-15.47,17.47-4.27,0-8.14-1.96-10.94-5.12h6.73v-9.95h15.6l4.09-2.4Z"/>
        <path class="cls-6" d="M63.65,29c0,9.55-6.86,17.3-15.32,17.3-4.23,0-8.06-1.94-10.84-5.07h6.62v-9.83h15.6l3.94-2.4Z"/>
        <path class="cls-103" d="M63.5,29c0,9.46-6.79,17.13-15.17,17.13-4.19,0-7.98-1.92-10.73-5.02h6.52v-9.71h15.6l3.79-2.4Z"/>
        <path class="cls-69" d="M63.35,29c0,9.37-6.73,16.96-15.02,16.96-4.15,0-7.9-1.9-10.62-4.97h6.41v-9.59h15.6l3.64-2.4Z"/>
        <path class="cls-101" d="M63.2,29c0,9.27-6.66,16.79-14.87,16.79-4.11,0-7.82-1.88-10.52-4.92h6.3v-9.47h15.6l3.49-2.4Z"/>
        <path class="cls-15" d="M63.05,29c0,9.18-6.59,16.62-14.72,16.62-4.07,0-7.75-1.86-10.41-4.87h6.2v-9.35h15.6l3.34-2.4Z"/>
        <path class="cls-4" d="M62.9,29c0,9.08-6.52,16.45-14.57,16.45-4.02,0-7.67-1.84-10.3-4.82h6.09v-9.23h15.6l3.19-2.4Z"/>
        <path class="cls-132" d="M62.75,29c0,8.99-6.46,16.28-14.42,16.28-3.98,0-7.59-1.82-10.2-4.77h5.98v-9.11h15.6l3.04-2.4Z"/>
        <path class="cls-115" d="M62.6,29c0,8.9-6.39,16.11-14.27,16.11-3.94,0-7.51-1.8-10.09-4.72h5.88v-8.99h15.6l2.89-2.4Z"/>
        <path class="cls-110" d="M62.45,29c0,8.8-6.32,15.94-14.12,15.94-3.9,0-7.43-1.78-9.98-4.67h5.77v-8.87h15.6l2.73-2.4Z"/>
        <path class="cls-89" d="M62.29,29c0,8.71-6.25,15.77-13.97,15.77-3.86,0-7.35-1.76-9.88-4.62h5.66v-8.75h15.6l2.58-2.4Z"/>
        <path class="cls-57" d="M62.14,29c0,8.61-6.19,15.6-13.82,15.6-3.82,0-7.27-1.75-9.77-4.57h5.56v-8.63h15.6l2.43-2.4Z"/>
        <path class="cls-46" d="M61.99,29c0,8.52-6.12,15.43-13.67,15.43-3.77,0-7.19-1.73-9.66-4.52h5.45v-8.51h15.6l2.28-2.4Z"/>
        <path class="cls-140" d="M61.84,29c0,8.43-6.05,15.26-13.52,15.26-3.73,0-7.11-1.71-9.56-4.47h5.34v-8.38h15.6l2.13-2.4Z"/>
        <path class="cls-178" d="M61.69,29c0,8.33-5.98,15.09-13.37,15.09-3.69,0-7.03-1.69-9.45-4.42h5.24v-8.26h15.6l1.98-2.4Z"/>
        <path class="cls-34" d="M61.54,29c0,8.24-5.92,14.92-13.21,14.92-3.65,0-6.95-1.67-9.34-4.37h5.13v-8.14h15.6l1.83-2.4Z"/>
        <path class="cls-35" d="M61.39,29c0,8.14-5.85,14.75-13.06,14.75-3.61,0-6.87-1.65-9.24-4.32h5.02v-8.02h15.6l1.68-2.4Z"/>
        <path class="cls-35" d="M61.24,29c0,8.05-5.78,14.58-12.91,14.58-3.57,0-6.79-1.63-9.13-4.27h4.92v-7.9h15.6l1.53-2.4Z"/>
        <path class="cls-191" d="M61.02,29c0,7.91-5.68,14.32-12.69,14.32-3.5,0-6.68-1.6-8.97-4.2h4.76v-7.73h15.6l1.3-2.4Z"/>
        <path class="cls-16" d="M60.79,29c0,7.77-5.58,14.07-12.47,14.07-3.44,0-6.56-1.57-8.81-4.12h4.6v-7.55h15.6l1.08-2.4Z"/>
        <path class="cls-130" d="M60.57,29c0,7.63-5.48,13.82-12.24,13.82-3.38,0-6.44-1.55-8.66-4.05h4.44v-7.37h15.6l.86-2.4Z"/>
        <path class="cls-173" d="M60.34,29c0,7.49-5.38,13.57-12.02,13.57-3.32,0-6.32-1.52-8.5-3.97h4.28v-7.19h15.6l.63-2.4Z"/>
        <path class="cls-66" d="M60.12,29c0,7.35-5.28,13.31-11.79,13.31-3.26,0-6.21-1.49-8.34-3.9h4.13v-7.01h15.6l.41-2.4Z"/>
        <path class="cls-73" d="M59.9,29c0,7.21-5.18,13.06-11.57,13.06-3.19,0-6.09-1.46-8.18-3.83h3.97v-6.83h15.6l.19-2.4Z"/>
        <path class="cls-186" d="M59.67,29c0,7.07-5.08,12.81-11.35,12.81-3.13,0-5.97-1.43-8.02-3.75h3.81v-6.65h15.56v-2.4Z"/>
        <path class="cls-62" d="M59.45,29c0,6.93-4.98,12.55-11.12,12.55s-11.12-5.62-11.12-12.55l6.91,2.4h15.34v-2.4Z"/>
        <path class="cls-147" d="M59.23,29c0,6.79-4.88,12.3-10.9,12.3s-10.9-5.51-10.9-12.3l6.68,2.4h15.11v-2.4Z"/>
        <path class="cls-95" d="M59,29c0,6.65-4.78,12.05-10.67,12.05s-10.67-5.39-10.67-12.05l6.46,2.4h14.89v-2.4Z"/>
        <path class="cls-111" d="M58.78,29c0,6.51-4.68,11.8-10.45,11.8s-10.45-5.28-10.45-11.8l6.24,2.4h14.66v-2.4Z"/>
        <path class="cls-104" d="M58.55,29c0,6.38-4.58,11.54-10.23,11.54s-10.23-5.17-10.23-11.54l6.01,2.4h14.44v-2.4Z"/>
        <path class="cls-55" d="M58.33,29c0,6.24-4.48,11.29-10,11.29s-10-5.06-10-11.29l5.79,2.4h14.22v-2.4Z"/>
        <path class="cls-172" d="M58.11,29c0,6.1-4.38,11.04-9.78,11.04s-9.78-4.94-9.78-11.04l5.56,2.4h13.99v-2.4Z"/>
        <path class="cls-84" d="M57.88,29c0,5.96-4.28,10.79-9.55,10.79s-9.55-4.83-9.55-10.79l5.34,2.4h13.77v-2.4Z"/>
        <path class="cls-136" d="M57.66,29c0,5.82-4.18,10.53-9.33,10.53s-9.33-4.72-9.33-10.53l5.12,2.4h13.54v-2.4Z"/>
        <path class="cls-8" d="M57.43,29c0,5.68-4.08,10.28-9.11,10.28s-9.11-4.6-9.11-10.28l4.89,2.4h13.32v-2.4Z"/>
        <path class="cls-8" d="M57.21,29c0,5.54-3.98,10.03-8.88,10.03s-8.88-4.49-8.88-10.03l4.67,2.4h13.1v-2.4Z"/>
        <path class="cls-65" d="M56.83,29c0,5.3-3.81,9.6-8.5,9.6s-8.5-4.3-8.5-9.6l4.29,2.4h12.71v-2.4Z"/>
        <path class="cls-159" d="M56.45,29c0,5.06-3.63,9.16-8.12,9.16s-8.12-4.1-8.12-9.16l3.9,2.4h12.33v-2.4Z"/>
        <path class="cls-109" d="M56.06,29c0,4.82-3.46,8.73-7.74,8.73s-7.74-3.91-7.74-8.73l3.52,2.4h11.95v-2.4Z"/>
        <path class="cls-11" d="M55.68,29c0,4.58-3.29,8.3-7.35,8.3s-7.35-3.72-7.35-8.3l3.14,2.4h11.57v-2.4Z"/>
        <path class="cls-102" d="M55.3,29c0,4.35-3.12,7.87-6.97,7.87s-6.97-3.52-6.97-7.87l2.76,2.4h11.18v-2.4Z"/>
        <path class="cls-167" d="M54.92,29c0,4.11-2.95,7.44-6.59,7.44s-6.59-3.33-6.59-7.44l2.38,2.4h10.8v-2.4Z"/>
        <path class="cls-125" d="M54.53,29c0,3.87-2.78,7.01-6.21,7.01s-6.21-3.14-6.21-7.01l1.99,2.4h10.42v-2.4Z"/>
        <path class="cls-77" d="M54.15,29c0,3.63-2.61,6.57-5.82,6.57s-5.82-2.94-5.82-6.57l1.61,2.4h10.04v-2.4Z"/>
        <path class="cls-169" d="M53.77,29c0,3.39-2.44,6.14-5.44,6.14s-5.44-2.75-5.44-6.14l1.23,2.4h9.66v-2.4Z"/>
        <path class="cls-119" d="M53.39,29c0,3.15-2.27,5.71-5.06,5.71s-5.06-2.56-5.06-5.71l.85,2.4h9.27v-2.4Z"/>
        <path class="cls-119" d="M53,29c0,2.92-2.09,5.28-4.68,5.28s-4.68-2.36-4.68-5.28l.46,2.4h8.89v-2.4Z"/>
        <path class="cls-82" d="M51.84,29c0,2.19-1.57,3.96-3.51,3.96s-3.51-1.77-3.51-3.96v2.4h7.02v-2.4Z"/>
        <path class="cls-25" d="M50.67,29c0,1.46-1.05,2.64-2.34,2.64s-2.34-1.18-2.34-2.64v2.4h4.68v-2.4Z"/>
        <rect class="cls-141" x="36.58" y="24.54" width="46.73" height="50.86"/>
        <path class="cls-141" d="M84.31,29v40.77h.14c-4.62,5.22-10.13,9.44-16.24,12.36v-5.73h-32.63V23.54h48.73v5.46Z"/>
        <path class="cls-141" d="M88.74,29c0,25.19-18.09,45.61-40.41,45.61-5.58,0-10.89-1.28-15.73-3.58h2.98V23.54h48.73v5.46h4.43Z"/>
        <path class="cls-141" d="M78.07,29c0,18.54-13.31,33.57-29.74,33.57-4.11,0-8.02-.94-11.58-2.64-1.78-.85-3.47-1.89-5.05-3.1h3.88V23.54h41.88v-1.3c.4,2.19.6,4.45.6,6.77Z"/>
        <path class="cls-7" d="M78,29c0,18.5-13.28,33.49-29.67,33.49-4.1,0-8-.94-11.55-2.63-1.77-.85-3.46-1.88-5.04-3.09h3.84V23.54h41.81v-1.29c.4,2.18.6,4.44.6,6.75Z"/>
        <path class="cls-13" d="M77.93,29c0,18.46-13.25,33.42-29.6,33.42-4.09,0-7.98-.94-11.52-2.63-1.77-.85-3.45-1.88-5.03-3.08h3.81V23.54h41.75v-1.27c.39,2.18.6,4.43.6,6.73Z"/>
        <path class="cls-44" d="M77.86,29c0,18.41-13.22,33.34-29.54,33.34-4.08,0-7.96-.93-11.5-2.62-1.77-.84-3.45-1.88-5.02-3.07h3.77V23.54h41.68v-1.26c.39,2.17.6,4.42.6,6.72Z"/>
        <path class="cls-45" d="M77.79,29c0,18.37-13.19,33.26-29.47,33.26-4.07,0-7.94-.93-11.47-2.61-1.76-.84-3.44-1.87-5.01-3.07h3.73V23.54h41.61v-1.24c.39,2.17.6,4.41.6,6.7Z"/>
        <path class="cls-126" d="M77.73,29c0,18.33-13.16,33.19-29.4,33.19-4.06,0-7.93-.93-11.44-2.61-1.76-.84-3.43-1.87-4.99-3.06h3.69V23.54h41.55v-1.23c.39,2.16.6,4.4.6,6.69Z"/>
        <path class="cls-32" d="M77.66,29c0,18.29-13.13,33.11-29.33,33.11-4.05,0-7.91-.93-11.42-2.6-1.75-.84-3.42-1.86-4.98-3.05h3.65V23.54h41.48v-1.21c.39,2.16.6,4.39.6,6.67Z"/>
        <path class="cls-175" d="M77.59,29c0,18.24-13.1,33.03-29.26,33.03-4.04,0-7.89-.92-11.39-2.6-1.75-.84-3.41-1.86-4.97-3.05h3.62V23.54h41.41v-1.2c.39,2.15.59,4.38.59,6.66Z"/>
        <path class="cls-168" d="M77.52,29c0,18.2-13.07,32.96-29.2,32.96-4.03,0-7.87-.92-11.36-2.59-1.75-.83-3.41-1.85-4.96-3.04h3.58V23.54h41.35v-1.18c.39,2.15.59,4.37.59,6.64Z"/>
        <path class="cls-162" d="M77.46,29c0,18.16-13.04,32.88-29.13,32.88-4.02,0-7.85-.92-11.34-2.58-1.74-.83-3.4-1.85-4.95-3.03h3.54V23.54h41.28v-1.16c.39,2.14.59,4.36.59,6.63Z"/>
        <path class="cls-38" d="M77.39,29c0,18.12-13.01,32.8-29.06,32.8-4.01,0-7.83-.92-11.31-2.58-1.74-.83-3.39-1.85-4.94-3.02h3.5V23.54h41.22v-1.15c.39,2.14.59,4.35.59,6.61Z"/>
        <path class="cls-3" d="M77.32,29c0,18.07-12.98,32.73-28.99,32.73-4,0-7.82-.92-11.29-2.57-1.73-.83-3.38-1.84-4.92-3.02h3.46V23.54h41.15v-1.13c.39,2.13.59,4.34.59,6.6Z"/>
        <path class="cls-174" d="M77.25,29c0,18.03-12.95,32.65-28.92,32.65-3.99,0-7.8-.91-11.26-2.57-1.73-.83-3.37-1.84-4.91-3.01h3.43V23.54h41.08v-1.12c.39,2.13.59,4.33.59,6.58Z"/>
        <path class="cls-166" d="M77.18,29c0,17.99-12.92,32.57-28.86,32.57-3.98,0-7.78-.91-11.23-2.56-1.73-.82-3.37-1.83-4.9-3h3.39V23.54h41.02v-1.1c.38,2.12.59,4.32.59,6.56Z"/>
        <path class="cls-100" d="M77.12,29c0,17.95-12.89,32.5-28.79,32.5-3.97,0-7.76-.91-11.21-2.55-1.72-.82-3.36-1.83-4.89-3h3.35V23.54h40.95v-1.09c.38,2.12.58,4.31.58,6.55Z"/>
        <path class="cls-43" d="M77.05,29c0,17.9-12.86,32.42-28.72,32.42-3.97,0-7.74-.91-11.18-2.55-1.72-.82-3.35-1.82-4.88-2.99h3.31V23.54h40.88v-1.07c.38,2.11.58,4.3.58,6.53Z"/>
        <path class="cls-165" d="M76.98,29c0,17.86-12.83,32.34-28.65,32.34-3.96,0-7.72-.91-11.15-2.54-1.71-.82-3.34-1.82-4.87-2.98h3.27V23.54h40.82v-1.06c.38,2.11.58,4.29.58,6.52Z"/>
        <path class="cls-189" d="M76.91,29c0,17.82-12.8,32.27-28.58,32.27-3.95,0-7.71-.9-11.13-2.54-1.71-.82-3.33-1.82-4.86-2.97h3.24V23.54h40.75v-1.04c.38,2.1.58,4.28.58,6.5Z"/>
        <path class="cls-39" d="M76.84,29c0,17.78-12.77,32.19-28.52,32.19-3.94,0-7.69-.9-11.1-2.53-1.71-.81-3.33-1.81-4.84-2.97h3.2V23.54h40.68v-1.03c.38,2.1.58,4.27.58,6.49Z"/>
        <path class="cls-83" d="M76.78,29c0,17.74-12.74,32.11-28.45,32.11-3.93,0-7.67-.9-11.07-2.52-1.7-.81-3.32-1.81-4.83-2.96h3.16V23.54h40.62v-1.01c.38,2.09.58,4.25.58,6.47Z"/>
        <path class="cls-93" d="M76.71,29c0,17.69-12.71,32.04-28.38,32.04-3.92,0-7.65-.9-11.05-2.52-1.7-.81-3.31-1.8-4.82-2.95h3.12V23.54h40.55v-.99c.38,2.09.58,4.24.58,6.46Z"/>
        <path class="cls-40" d="M76.64,29c0,17.65-12.68,31.96-28.31,31.96-3.91,0-7.63-.89-11.02-2.51-1.69-.81-3.3-1.8-4.81-2.95h3.08v-31.96h38.83v-6.98c1.43,3.82,2.22,8.03,2.22,12.44Z"/>
        <path class="cls-10" d="M76.57,29c0,17.61-12.65,31.88-28.25,31.88-3.9,0-7.62-.89-10.99-2.51-1.69-.81-3.3-1.79-4.8-2.94h3.05v-31.9h38.77v-6.95c1.43,3.81,2.22,8.01,2.22,12.41Z"/>
        <path class="cls-56" d="M76.5,29c0,17.57-12.62,31.81-28.18,31.81-3.89,0-7.6-.89-10.97-2.5-1.69-.8-3.29-1.79-4.79-2.93h3.01v-31.84h38.71v-6.92c1.43,3.81,2.21,7.99,2.21,12.38Z"/>
        <path class="cls-56" d="M76.44,29c0,17.52-12.59,31.73-28.11,31.73-3.88,0-7.58-.89-10.94-2.49-1.68-.8-3.28-1.79-4.77-2.93h2.97v-31.77h38.65v-6.89c1.42,3.8,2.21,7.97,2.21,12.35Z"/>
        <path class="cls-180" d="M76.36,29c0,17.48-12.55,31.64-28.03,31.64-3.87,0-7.56-.89-10.91-2.49-1.68-.8-3.27-1.78-4.76-2.92h2.93v-31.7h38.57v-6.85c1.42,3.79,2.2,7.95,2.2,12.32Z"/>
        <path class="cls-49" d="M76.28,29c0,17.43-12.52,31.55-27.95,31.55-3.86,0-7.54-.88-10.88-2.48-1.67-.8-3.26-1.78-4.75-2.91h2.88v-31.63h38.5v-6.82c1.41,3.78,2.2,7.93,2.2,12.28Z"/>
        <path class="cls-41" d="M76.2,29c0,17.38-12.48,31.47-27.88,31.47-7.7,0-14.67-3.52-19.71-9.22h6.97v-27.71h38.43v-6.79c1.41,3.76,2.19,7.9,2.19,12.25Z"/>
        <path class="cls-197" d="M76.12,29c0,17.33-12.45,31.38-27.8,31.38-7.68,0-14.63-3.51-19.66-9.19h6.91v-27.65h38.36v-6.75c1.41,3.75,2.18,7.88,2.18,12.21Z"/>
        <path class="cls-199" d="M76.05,29c0,17.28-12.41,31.29-27.72,31.29-7.65,0-14.58-3.5-19.6-9.16h6.86v-27.59h38.29v-6.72c1.4,3.74,2.18,7.86,2.18,12.18Z"/>
        <path class="cls-123" d="M75.97,29c0,17.23-12.38,31.2-27.64,31.2-7.63,0-14.54-3.49-19.55-9.14h6.8v-27.53h38.22v-6.68c1.4,3.73,2.17,7.84,2.17,12.15Z"/>
        <path class="cls-9" d="M75.89,29c0,17.18-12.34,31.11-27.56,31.11-7.61,0-14.5-3.48-19.49-9.11h6.75v-27.46h38.14v-6.65c1.39,3.72,2.17,7.82,2.17,12.11Z"/>
        <path class="cls-81" d="M75.81,29c0,17.14-12.31,31.03-27.49,31.03-7.59,0-14.46-3.47-19.44-9.09h6.69v-27.4h38.07v-6.61c1.39,3.71,2.16,7.79,2.16,12.08Z"/>
        <path class="cls-79" d="M75.74,29c0,17.09-12.27,30.94-27.41,30.94-7.57,0-14.42-3.46-19.38-9.06h6.63v-27.34h38v-6.58c1.39,3.7,2.15,7.77,2.15,12.04Z"/>
        <path class="cls-184" d="M75.66,29c0,17.04-12.24,30.85-27.33,30.85-7.55,0-14.38-3.45-19.33-9.04h6.58v-27.28h37.93v-6.55c1.38,3.69,2.15,7.75,2.15,12.01Z"/>
        <path class="cls-1" d="M75.58,29c0,16.99-12.2,30.76-27.25,30.76-7.53,0-14.34-3.44-19.27-9.01h6.52v-27.21h37.86v-6.51c1.38,3.68,2.14,7.73,2.14,11.97Z"/>
        <path class="cls-187" d="M75.5,29c0,16.94-12.17,30.67-27.17,30.67-7.5,0-14.3-3.43-19.22-8.98h6.47v-27.15h37.78v-6.48c1.38,3.67,2.14,7.7,2.14,11.94Z"/>
        <path class="cls-121" d="M75.42,29c0,16.89-12.13,30.59-27.1,30.59-7.48,0-14.26-3.42-19.16-8.96h6.41v-27.09h37.71v-6.44c1.37,3.66,2.13,7.68,2.13,11.91Z"/>
        <path class="cls-60" d="M75.35,29c0,16.84-12.1,30.5-27.02,30.5-7.46,0-14.22-3.41-19.11-8.93h6.36v-27.03h37.64v-6.41c1.37,3.65,2.12,7.66,2.12,11.87Z"/>
        <path class="cls-149" d="M75.27,29c0,16.8-12.06,30.41-26.94,30.41-7.44,0-14.17-3.4-19.05-8.91h6.3v-26.97h37.57v-6.37c1.36,3.64,2.12,7.64,2.12,11.84Z"/>
        <path class="cls-37" d="M75.19,29c0,16.75-12.03,30.32-26.86,30.32-7.42,0-14.13-3.39-18.99-8.88h6.25v-26.9h37.5v-6.34c1.36,3.63,2.11,7.62,2.11,11.8Z"/>
        <path class="cls-122" d="M75.11,29c0,16.7-11.99,30.23-26.78,30.23-7.4,0-14.09-3.38-18.94-8.86h6.19v-26.84h37.43v-6.31c1.36,3.62,2.1,7.59,2.1,11.77Z"/>
        <path class="cls-163" d="M75.03,29c0,16.65-11.96,30.15-26.71,30.15-7.37,0-14.05-3.37-18.88-8.83h6.14v-26.78h37.35v-6.27c1.35,3.61,2.1,7.57,2.1,11.73Z"/>
        <path class="cls-33" d="M74.96,29c0,16.6-11.92,30.06-26.63,30.06-7.35,0-14.01-3.36-18.83-8.8h6.08v-26.72h37.28v-6.24c1.35,3.6,2.09,7.55,2.09,11.7Z"/>
        <path class="cls-94" d="M74.88,29c0,16.55-11.89,29.97-26.55,29.97-7.33,0-13.97-3.35-18.77-8.78h6.03v-26.65h37.21v-6.2c1.34,3.59,2.09,7.53,2.09,11.67Z"/>
        <path class="cls-161" d="M74.8,29c0,16.5-11.85,29.88-26.47,29.88-7.31,0-13.93-3.34-18.72-8.75h5.97v-26.59h37.14v-6.17c1.34,3.58,2.08,7.51,2.08,11.63Z"/>
        <path class="cls-22" d="M74.72,29c0,16.46-11.82,29.79-26.4,29.79-7.29,0-13.89-3.33-18.66-8.73h5.92v-26.53h37.07v-6.14c1.34,3.56,2.07,7.48,2.07,11.6Z"/>
        <path class="cls-91" d="M74.64,29c0,16.41-11.78,29.71-26.32,29.71-7.27,0-13.85-3.33-18.61-8.7h5.86v-26.47h36.99v-6.1c1.33,3.55,2.07,7.46,2.07,11.56Z"/>
        <path class="cls-134" d="M74.57,29c0,16.36-11.75,29.62-26.24,29.62-7.25,0-13.81-3.32-18.55-8.68h5.81v-26.41h36.92v-6.07c1.33,3.54,2.06,7.44,2.06,11.53Z"/>
        <path class="cls-200" d="M74.49,29c0,16.31-11.71,29.53-26.16,29.53-7.22,0-13.76-3.31-18.5-8.65h5.75v-26.34h36.85v-6.03c1.32,3.53,2.06,7.42,2.06,11.49Z"/>
        <path class="cls-137" d="M74.41,29c0,16.26-11.68,29.44-26.08,29.44-7.2,0-13.72-3.3-18.44-8.62h5.7v-26.28h36.78v-6c1.32,3.52,2.05,7.4,2.05,11.46Z"/>
        <path class="cls-51" d="M74.33,29c0,16.21-11.64,29.36-26.01,29.36-7.18,0-13.68-3.29-18.39-8.6h5.64v-26.22h36.71v-5.96c1.32,3.51,2.04,7.37,2.04,11.43Z"/>
        <path class="cls-85" d="M74.25,29c0,16.16-11.61,29.27-25.93,29.27-7.16,0-13.64-3.28-18.33-8.57h5.59v-26.16h36.64v-5.93c1.31,3.5,2.04,7.35,2.04,11.39Z"/>
        <path class="cls-23" d="M74.18,29c0,16.12-11.57,29.18-25.85,29.18-7.14,0-13.6-3.27-18.28-8.55h5.53v-26.1h36.56v-5.9c1.31,3.49,2.03,7.33,2.03,11.36Z"/>
        <path class="cls-120" d="M74.1,29c0,16.07-11.54,29.09-25.77,29.09-7.12,0-13.56-3.26-18.22-8.52h5.48v-26.03h36.49v-5.86c1.3,3.48,2.03,7.31,2.03,11.32Z"/>
        <path class="cls-20" d="M74.02,29c0,16.02-11.5,29-25.69,29-7.1,0-13.52-3.25-18.17-8.49h5.42v-25.97h36.42v-5.83c1.3,3.47,2.02,7.28,2.02,11.29Z"/>
        <path class="cls-21" d="M73.94,29c0,15.97-11.47,28.92-25.62,28.92-7.07,0-13.48-3.24-18.11-8.47h5.37v-25.91h36.35v-5.79c1.3,3.46,2.01,7.26,2.01,11.26Z"/>
        <path class="cls-188" d="M73.87,29c0,15.92-11.43,28.83-25.54,28.83-7.05,0-13.44-3.23-18.06-8.44h5.31v-25.85h36.28v-5.76c1.29,3.45,2.01,7.24,2.01,11.22Z"/>
        <path class="cls-87" d="M73.79,29c0,15.87-11.4,28.74-25.46,28.74-7.03,0-13.4-3.22-18-8.42h5.26v-25.78h36.2v-5.72c1.29,3.44,2,7.22,2,11.19Z"/>
        <path class="cls-18" d="M73.71,29c0,15.82-11.36,28.65-25.38,28.65-7.01,0-13.35-3.21-17.95-8.39h5.2v-25.72h36.13v-5.69c1.28,3.43,1.99,7.2,1.99,11.15Z"/>
        <path class="cls-53" d="M73.63,29c0,15.78-11.33,28.56-25.3,28.56-6.99,0-13.31-3.2-17.89-8.37h5.15v-25.66h36.06v-5.66c1.28,3.42,1.99,7.17,1.99,11.12Z"/>
        <path class="cls-36" d="M73.55,29c0,15.73-11.29,28.48-25.23,28.48-6.97,0-13.27-3.19-17.84-8.34h5.09v-25.6h35.99v-5.62c1.28,3.41,1.98,7.15,1.98,11.08Z"/>
        <path class="cls-68" d="M73.48,29c0,15.68-11.26,28.39-25.15,28.39-6.94,0-13.23-3.18-17.78-8.31h5.04v-25.54h35.92v-5.59c1.27,3.4,1.98,7.13,1.98,11.05Z"/>
        <path class="cls-177" d="M73.4,29c0,15.63-11.22,28.3-25.07,28.3-6.92,0-13.19-3.17-17.73-8.29h4.98v-25.47h35.85v-5.55c1.27,3.39,1.97,7.11,1.97,11.02Z"/>
        <path class="cls-139" d="M73.32,29c0,15.58-11.19,28.21-24.99,28.21-6.9,0-13.15-3.16-17.67-8.26h4.93v-25.41h35.77v-5.52c1.26,3.38,1.96,7.09,1.96,10.98Z"/>
        <path class="cls-31" d="M73.24,29c0,15.53-11.15,28.12-24.91,28.12-6.88,0-13.11-3.15-17.62-8.24h4.87v-25.35h35.7v-5.48c1.26,3.36,1.96,7.06,1.96,10.95Z"/>
        <path class="cls-193" d="M73.16,29c0,15.48-11.12,28.04-24.84,28.04-6.86,0-13.07-3.14-17.56-8.21h4.82v-25.29h35.63v-5.45c1.26,3.35,1.95,7.04,1.95,10.91Z"/>
        <path class="cls-127" d="M73.09,29c0,15.44-11.08,27.95-24.76,27.95-6.84,0-13.03-3.13-17.51-8.19h4.76v-25.22h35.56v-5.42c1.25,3.34,1.95,7.02,1.95,10.88Z"/>
        <path class="cls-143" d="M73.01,29c0,15.39-11.05,27.86-24.68,27.86-6.82,0-12.99-3.12-17.45-8.16h4.71v-25.16h35.49v-5.38c1.25,3.33,1.94,7,1.94,10.84Z"/>
        <path class="cls-92" d="M72.93,29c0,15.34-11.02,27.77-24.6,27.77-6.79,0-12.94-3.11-17.4-8.13h4.65v-25.1h35.42v-5.35c1.24,3.32,1.93,6.98,1.93,10.81Z"/>
        <path class="cls-150" d="M72.85,29c0,15.29-10.98,27.68-24.53,27.68-6.77,0-12.9-3.1-17.34-8.11h4.6v-25.04h35.34v-5.31c1.24,3.31,1.93,6.95,1.93,10.78Z"/>
        <path class="cls-150" d="M72.77,29c0,15.24-10.95,27.6-24.45,27.6-6.75,0-12.86-3.09-17.29-8.08h4.54v-24.98h35.27v-5.28c1.24,3.3,1.92,6.93,1.92,10.74Z"/>
        <path class="cls-118" d="M72.68,29c0,15.18-10.9,27.49-24.35,27.49-6.73,0-12.81-3.08-17.22-8.05h4.48v-24.9h35.19v-5.24c1.23,3.29,1.91,6.91,1.91,10.7Z"/>
        <path class="cls-129" d="M72.59,29c0,15.13-10.86,27.39-24.26,27.39-6.7,0-12.77-3.07-17.16-8.02h4.41v-24.83h35.1v-5.2c1.23,3.28,1.91,6.88,1.91,10.66Z"/>
        <path class="cls-112" d="M72.5,29c0,15.07-10.82,27.28-24.17,27.28-6.67,0-12.72-3.05-17.09-7.99h4.35v-24.75h35.02v-5.16c1.22,3.26,1.9,6.85,1.9,10.62Z"/>
        <path class="cls-42" d="M72.41,29c0,15.01-10.78,27.18-24.08,27.18-6.65,0-12.67-3.04-17.03-7.96h4.28v-24.68h34.93v-5.12c1.22,3.25,1.89,6.83,1.89,10.58Z"/>
        <path class="cls-64" d="M72.31,29c0,14.95-10.74,27.08-23.99,27.08-6.62,0-12.62-3.03-16.96-7.93h4.22v-24.61h34.85v-5.08c1.21,3.24,1.88,6.8,1.88,10.54Z"/>
        <path class="cls-145" d="M72.22,29c0,14.9-10.7,26.97-23.89,26.97-6.6,0-12.57-3.02-16.9-7.9h4.15v-24.53h34.76v-5.04c1.21,3.23,1.88,6.77,1.88,10.5Z"/>
        <path class="cls-72" d="M72.13,29c0,14.84-10.66,26.87-23.8,26.87-6.57,0-12.52-3.01-16.83-7.87h4.08v-24.46h34.68v-5c1.2,3.21,1.87,6.75,1.87,10.46Z"/>
        <path class="cls-5" d="M72.04,29c0,14.78-10.62,26.76-23.71,26.76-6.55,0-12.47-3-16.77-7.84h4.02v-24.39h34.59v-4.96c1.2,3.2,1.86,6.72,1.86,10.42Z"/>
        <path class="cls-164" d="M71.94,29c0,14.72-10.57,26.66-23.62,26.66-6.52,0-12.43-2.98-16.7-7.81h3.95v-24.31h34.51v-4.91c1.2,3.19,1.86,6.7,1.86,10.38Z"/>
        <path class="cls-142" d="M71.85,29c0,14.67-10.53,26.56-23.53,26.56-6.5,0-12.38-2.97-16.63-7.78h3.89v-24.24h34.42v-4.87c1.19,3.18,1.85,6.67,1.85,10.34Z"/>
        <path class="cls-179" d="M71.76,29c0,14.61-10.49,26.45-23.43,26.45-6.47,0-12.33-2.96-16.57-7.75h3.82v-24.17h34.34v-4.83c1.19,3.16,1.84,6.64,1.84,10.3Z"/>
        <path class="cls-138" d="M71.67,29c0,14.55-10.45,26.35-23.34,26.35-6.45,0-12.28-2.95-16.5-7.72h3.76v-24.09h34.25v-4.79c1.18,3.15,1.83,6.62,1.83,10.26Z"/>
        <path class="cls-158" d="M71.58,29c0,14.49-10.41,26.24-23.25,26.24-6.42,0-12.23-2.94-16.44-7.69h3.69v-24.02h34.17v-4.75c1.18,3.14,1.83,6.59,1.83,10.21Z"/>
        <path class="cls-12" d="M71.48,29c0,14.44-10.37,26.14-23.16,26.14-6.39,0-12.18-2.93-16.37-7.66h3.63v-23.95h34.08v-4.71c1.17,3.13,1.82,6.57,1.82,10.17Z"/>
        <path class="cls-63" d="M71.39,29c0,14.38-10.33,26.03-23.06,26.03-6.37,0-12.14-2.91-16.31-7.63h3.56v-23.87h34v-4.67c1.17,3.11,1.81,6.54,1.81,10.13Z"/>
        <path class="cls-59" d="M71.3,29c0,14.32-10.28,25.93-22.97,25.93-6.34,0-12.09-2.9-16.24-7.59h3.5v-23.8h33.91v-4.63c1.16,3.1,1.81,6.51,1.81,10.09Z"/>
        <path class="cls-108" d="M71.21,29c0,14.26-10.24,25.83-22.88,25.83-6.32,0-12.04-2.89-16.18-7.56h3.43v-23.72h33.83v-4.59c1.16,3.09,1.8,6.49,1.8,10.05Z"/>
        <path class="cls-196" d="M71.11,29c0,14.21-10.2,25.72-22.79,25.72-6.29,0-11.99-2.88-16.11-7.53h3.37v-23.65h33.74v-4.55c1.15,3.08,1.79,6.46,1.79,10.01Z"/>
        <path class="cls-71" d="M71.02,29c0,14.15-10.16,25.62-22.7,25.62-6.27,0-11.94-2.87-16.05-7.5h3.3v-23.58h33.66v-4.51c1.15,3.06,1.78,6.43,1.78,9.97Z"/>
        <path class="cls-90" d="M70.93,29c0,14.09-10.12,25.51-22.6,25.51-6.24,0-11.89-2.86-15.98-7.47h3.24v-23.5h33.57v-4.47c1.14,3.05,1.78,6.41,1.78,9.93Z"/>
        <path class="cls-156" d="M70.84,29c0,14.03-10.08,25.41-22.51,25.41-6.22,0-11.84-2.84-15.92-7.44h3.17v-23.43h33.49v-4.43c1.14,3.04,1.77,6.38,1.77,9.89Z"/>
        <path class="cls-183" d="M70.75,29c0,13.98-10.04,25.31-22.42,25.31-6.19,0-11.8-2.83-15.85-7.41h3.11v-23.36h33.4v-4.39c1.13,3.03,1.76,6.36,1.76,9.85Z"/>
        <path class="cls-135" d="M70.65,29c0,13.92-10,25.2-22.33,25.2-6.17,0-11.75-2.82-15.79-7.38h3.04v-23.28h33.32v-4.35c1.13,3.02,1.75,6.33,1.75,9.81Z"/>
        <path class="cls-201" d="M70.56,29c0,13.86-9.95,25.1-22.23,25.1-6.14,0-11.7-2.81-15.72-7.35h2.98v-23.21h33.23v-4.31c1.13,3,1.75,6.3,1.75,9.77Z"/>
        <path class="cls-124" d="M70.47,29c0,13.8-9.91,24.99-22.14,24.99-6.11,0-11.65-2.8-15.66-7.32h2.91v-23.14h33.15v-4.27c1.12,2.99,1.74,6.28,1.74,9.73Z"/>
        <path class="cls-157" d="M70.38,29c0,13.75-9.87,24.89-22.05,24.89-6.09,0-11.6-2.79-15.59-7.29h2.85v-23.06h33.06v-4.23c1.12,2.98,1.73,6.25,1.73,9.69Z"/>
        <path class="cls-105" d="M70.28,29c0,13.69-9.83,24.79-21.96,24.79-6.06,0-11.55-2.77-15.53-7.26h2.78v-22.99h32.98v-4.19c1.11,2.97,1.73,6.23,1.73,9.65Z"/>
        <path class="cls-58" d="M70.19,29c0,13.63-9.79,24.68-21.87,24.68-6.04,0-11.5-2.76-15.46-7.23h2.72v-22.91h32.89v-4.15c1.11,2.95,1.72,6.2,1.72,9.61Z"/>
        <path class="cls-151" d="M70.1,29c0,13.57-9.75,24.58-21.77,24.58-6.01,0-11.46-2.75-15.4-7.2h2.65v-22.84h32.81v-4.1c1.1,2.94,1.71,6.17,1.71,9.57Z"/>
        <path class="cls-107" d="M70.01,29c0,13.52-9.71,24.47-21.68,24.47-5.99,0-11.41-2.74-15.33-7.17h2.59v-22.77h32.72v-4.06c1.1,2.93,1.7,6.15,1.7,9.53Z"/>
        <path class="cls-27" d="M69.92,29c0,13.46-9.67,24.37-21.59,24.37-5.96,0-11.36-2.73-15.27-7.14h2.52v-22.69h32.64v-4.02c1.09,2.92,1.7,6.12,1.7,9.49Z"/>
        <path class="cls-86" d="M69.82,29c0,13.4-9.62,24.27-21.5,24.27-5.94,0-11.31-2.72-15.2-7.11h2.45v-22.62h32.55v-3.98c1.09,2.9,1.69,6.09,1.69,9.45Z"/>
        <path class="cls-24" d="M69.73,29c0,13.34-9.58,24.16-21.4,24.16-5.91,0-11.26-2.7-15.14-7.08h2.39v-22.55h32.47v-3.94c1.08,2.89,1.68,6.07,1.68,9.4Z"/>
        <path class="cls-185" d="M69.64,29c0,13.29-9.54,24.06-21.31,24.06-5.89,0-11.21-2.69-15.07-7.05h2.32v-22.47h32.38v-3.9c1.08,2.88,1.67,6.04,1.67,9.36Z"/>
        <path class="cls-148" d="M69.55,29c0,13.23-9.5,23.95-21.22,23.95-5.86,0-11.16-2.68-15.01-7.02h2.26v-22.4h32.3v-3.86c1.07,2.87,1.67,6.02,1.67,9.32Z"/>
        <path class="cls-97" d="M69.46,29c0,13.17-9.46,23.85-21.13,23.85-5.83,0-11.12-2.67-14.94-6.99h2.19v-22.33h32.21v-3.82c1.07,2.85,1.66,5.99,1.66,9.28Z"/>
        <path class="cls-26" d="M69.36,29c0,13.11-9.42,23.75-21.04,23.75-5.81,0-11.07-2.66-14.87-6.95h2.13v-22.25h32.13v-3.78c1.06,2.84,1.65,5.96,1.65,9.24Z"/>
        <path class="cls-198" d="M69.27,29c0,13.06-9.38,23.64-20.94,23.64-5.78,0-11.02-2.65-14.81-6.92h2.06v-22.18h32.04v-3.74c1.06,2.83,1.65,5.94,1.65,9.2Z"/>
        <path class="cls-78" d="M69.18,29c0,13-9.34,23.54-20.85,23.54-5.76,0-10.97-2.63-14.74-6.89h2v-22.11h31.96v-3.7c1.06,2.82,1.64,5.91,1.64,9.16Z"/>
        <path class="cls-52" d="M69.09,29c0,12.94-9.29,23.43-20.76,23.43-5.73,0-10.92-2.62-14.68-6.86h1.93v-22.03h31.87v-3.66c1.05,2.8,1.63,5.89,1.63,9.12Z"/>
        <path class="cls-52" d="M68.99,29c0,12.88-9.25,23.33-20.67,23.33-5.71,0-10.87-2.61-14.61-6.83h1.87v-21.96h31.79v-3.62c1.05,2.79,1.62,5.86,1.62,9.08Z"/>
        <path class="cls-154" d="M68.88,29c0,12.81-9.2,23.2-20.55,23.2-5.67,0-10.81-2.6-14.53-6.79h1.79v-21.87h31.68v-3.57c1.04,2.78,1.61,5.83,1.61,9.03Z"/>
        <path class="cls-153" d="M68.76,29c0,12.74-9.15,23.07-20.43,23.07-5.64,0-10.75-2.58-14.45-6.76h1.7v-21.77h31.57v-3.52c1.03,2.76,1.61,5.79,1.61,8.98Z"/>
        <path class="cls-190" d="M68.65,29c0,12.67-9.1,22.94-20.32,22.94-5.61,0-10.69-2.57-14.37-6.72h1.62v-21.68h31.47v-3.47c1.03,2.74,1.6,5.76,1.6,8.93Z"/>
        <path class="cls-133" d="M68.53,29c0,12.59-9.04,22.8-20.2,22.8-5.58,0-10.63-2.55-14.29-6.68h1.54v-21.59h31.36v-3.41c1.02,2.73,1.59,5.73,1.59,8.88Z"/>
        <path class="cls-114" d="M68.41,29c0,12.52-8.99,22.67-20.09,22.67-5.55,0-10.57-2.54-14.2-6.64h1.46v-21.49h31.25v-3.36c1.02,2.71,1.58,5.69,1.58,8.83Z"/>
        <path class="cls-160" d="M68.3,29c0,12.45-8.94,22.54-19.97,22.54-5.51,0-10.51-2.52-14.12-6.6h1.38v-21.4h31.15v-3.31c1.01,2.7,1.57,5.66,1.57,8.77Z"/>
        <path class="cls-30" d="M68.18,29c0,12.38-8.89,22.41-19.85,22.41-5.48,0-10.45-2.51-14.04-6.56h1.29v-21.31h31.04v-3.26c1,2.68,1.56,5.63,1.56,8.72Z"/>
        <path class="cls-181" d="M68.06,29c0,12.3-8.84,22.28-19.74,22.28s-19.74-9.97-19.74-22.28h6.99v-5.46h30.93v-3.21c1,2.67,1.55,5.6,1.55,8.67Z"/>
        <path class="cls-75" d="M67.95,29c0,12.23-8.78,22.15-19.62,22.15s-19.62-9.92-19.62-22.15h6.88v-5.46h30.82v-3.16c.99,2.65,1.54,5.56,1.54,8.62Z"/>
        <path class="cls-128" d="M67.83,29c0,12.16-8.73,22.02-19.5,22.02s-19.5-9.86-19.5-22.02h6.76v-5.46h30.72v-3.11c.99,2.63,1.53,5.53,1.53,8.57Z"/>
        <path class="cls-171" d="M67.72,29c0,12.09-8.68,21.89-19.39,21.89s-19.39-9.8-19.39-21.89h6.64v-5.46h30.61v-3.06c.98,2.62,1.52,5.5,1.52,8.52Z"/>
        <path class="cls-28" d="M67.6,29c0,12.01-8.63,21.75-19.27,21.75s-19.27-9.74-19.27-21.75h6.53v-5.46h30.5v-3.01c.98,2.6,1.51,5.46,1.51,8.47Z"/>
        <path class="cls-98" d="M67.48,29c0,11.94-8.58,21.62-19.16,21.62s-19.16-9.68-19.16-21.62h6.41v-5.46h30.4v-2.95c.97,2.59,1.51,5.43,1.51,8.42Z"/>
        <path class="cls-146" d="M67.37,29c0,11.87-8.52,21.49-19.04,21.49s-19.04-9.62-19.04-21.49h6.29v-5.46h30.29v-2.9c.96,2.57,1.5,5.4,1.5,8.37Z"/>
        <path class="cls-152" d="M67.25,29c0,11.8-8.47,21.36-18.92,21.36s-18.92-9.56-18.92-21.36h6.18v-5.46h30.18v-2.85c.96,2.56,1.49,5.37,1.49,8.31Z"/>
        <path class="cls-29" d="M67.13,29c0,11.72-8.42,21.23-18.81,21.23s-18.81-9.5-18.81-21.23h6.06v-5.46h30.07v-2.8c.95,2.54,1.48,5.33,1.48,8.26Z"/>
        <path class="cls-176" d="M67.02,29c0,11.65-8.37,21.1-18.69,21.1s-18.69-9.45-18.69-21.1h5.95v-5.46h29.97v-2.75c.95,2.52,1.47,5.3,1.47,8.21Z"/>
        <path class="cls-117" d="M66.9,29c0,11.58-8.32,20.97-18.57,20.97s-18.57-9.39-18.57-20.97h5.83v-5.46h29.86v-2.7c.94,2.51,1.46,5.27,1.46,8.16Z"/>
        <path class="cls-80" d="M66.79,29c0,11.51-8.26,20.84-18.46,20.84s-18.46-9.33-18.46-20.84h5.71v-5.46h29.75v-2.65c.93,2.49,1.45,5.23,1.45,8.11Z"/>
        <path class="cls-170" d="M66.67,29c0,11.43-8.21,20.7-18.34,20.7s-18.34-9.27-18.34-20.7h5.6v-5.46h29.65v-2.6c.93,2.48,1.44,5.2,1.44,8.06Z"/>
        <path class="cls-76" d="M66.55,29c0,11.36-8.16,20.57-18.23,20.57s-18.23-9.21-18.23-20.57h5.48v-5.46h29.54v-2.55c.92,2.46,1.43,5.17,1.43,8.01Z"/>
        <path class="cls-14" d="M66.44,29c0,11.29-8.11,20.44-18.11,20.44s-18.11-9.15-18.11-20.44h5.36v-5.46h29.43v-2.49c.92,2.45,1.42,5.13,1.42,7.96Z"/>
        <path class="cls-116" d="M66.32,29c0,11.22-8.06,20.31-17.99,20.31s-17.99-9.09-17.99-20.31h5.25v-5.46h29.33v-2.44c.91,2.43,1.41,5.1,1.41,7.91Z"/>
        <path class="cls-155" d="M66.2,29c0,11.15-8,20.18-17.88,20.18s-17.88-9.03-17.88-20.18h5.13v-5.46h29.22v-2.39c.9,2.41,1.4,5.07,1.4,7.85Z"/>
        <path class="cls-17" d="M66.09,29c0,11.07-7.95,20.05-17.76,20.05s-17.76-8.98-17.76-20.05h5.02v-5.46h29.11v-2.34c.9,2.4,1.4,5.04,1.4,7.8Z"/>
        <path class="cls-70" d="M65.97,29c0,11-7.9,19.92-17.64,19.92s-17.64-8.92-17.64-19.92h4.9v-5.46h29v-2.29c.89,2.38,1.39,5,1.39,7.75Z"/>
        <path class="cls-67" d="M65.86,29c0,10.93-7.85,19.79-17.53,19.79s-17.53-8.86-17.53-19.79h4.78v-5.46h28.9v-2.24c.89,2.37,1.38,4.97,1.38,7.7Z"/>
        <path class="cls-50" d="M65.74,29c0,10.86-7.8,19.65-17.41,19.65s-17.41-8.8-17.41-19.65h4.67v-5.46h28.79v-2.19c.88,2.35,1.37,4.94,1.37,7.65Z"/>
        <path class="cls-144" d="M65.62,29c0,10.78-7.74,19.52-17.3,19.52s-17.3-8.74-17.3-19.52h4.55v-5.46h28.68v-2.14c.88,2.34,1.36,4.9,1.36,7.6Z"/>
        <path class="cls-96" d="M65.51,29c0,10.71-7.69,19.39-17.18,19.39s-17.18-8.68-17.18-19.39h4.43v-5.46h28.58v-2.09c.87,2.32,1.35,4.87,1.35,7.55Z"/>
        <path class="cls-195" d="M65.39,29c0,10.64-7.64,19.26-17.06,19.26s-17.06-8.62-17.06-19.26h4.32v-5.46h28.47v-2.04c.86,2.3,1.34,4.84,1.34,7.5Z"/>
        <path class="cls-47" d="M65.27,29c0,10.57-7.59,19.13-16.95,19.13s-16.95-8.56-16.95-19.13h4.2v-5.46h28.36v-1.98c.86,2.29,1.33,4.8,1.33,7.45Z"/>
        <path class="cls-47" d="M65.16,29c0,10.49-7.54,19-16.83,19s-16.83-8.51-16.83-19h4.09v-5.46h28.25v-1.93c.85,2.27,1.32,4.77,1.32,7.4Z"/>
        <path class="cls-48" d="M65.01,29c0,10.4-7.47,18.83-16.68,18.83s-16.68-8.43-16.68-18.83h3.93v-5.46h28.12v-1.87c.84,2.25,1.31,4.73,1.31,7.33Z"/>
        <path class="cls-61" d="M64.86,29c0,10.3-7.4,18.66-16.53,18.66s-16.53-8.35-16.53-18.66h3.78v-5.46h27.98v-1.8c.84,2.23,1.3,4.69,1.3,7.26Z"/>
        <path class="cls-99" d="M64.71,29c0,10.21-7.33,18.49-16.38,18.49s-16.38-8.28-16.38-18.49h3.63v-5.46h27.84v-1.73c.83,2.21,1.29,4.64,1.29,7.2Z"/>
        <path class="cls-192" d="M64.56,29c0,10.12-7.27,18.32-16.23,18.32s-16.23-8.2-16.23-18.32h3.48v-5.46h27.7v-1.67c.82,2.19,1.28,4.6,1.28,7.13Z"/>
        <path class="cls-113" d="M64.4,29c0,10.02-7.2,18.15-16.08,18.15s-16.08-8.13-16.08-18.15h3.33v-5.46h27.56v-1.6c.81,2.17,1.26,4.56,1.26,7.06Z"/>
        <path class="cls-131" d="M64.25,29c0,9.93-7.13,17.98-15.93,17.98s-15.93-8.05-15.93-17.98h3.18v-5.46h27.42v-1.54c.81,2.15,1.25,4.52,1.25,7Z"/>
        <path class="cls-88" d="M64.1,29c0,9.84-7.06,17.81-15.78,17.81s-15.78-7.97-15.78-17.81h3.03v-5.46h27.28v-1.47c.8,2.13,1.24,4.47,1.24,6.93Z"/>
        <path class="cls-74" d="M63.95,29c0,9.74-7,17.64-15.63,17.64s-15.63-7.9-15.63-17.64h2.88v-5.46h27.14v-1.4c.79,2.11,1.23,4.43,1.23,6.87Z"/>
        <path class="cls-54" d="M63.8,29c0,9.65-6.93,17.47-15.47,17.47s-15.47-7.82-15.47-17.47c0-4.82,1.73-9.19,4.53-12.35v6.89h21.88v-6.89c2.8,3.16,4.53,7.53,4.53,12.35Z"/>
        <path class="cls-6" d="M63.65,29c0,9.55-6.86,17.3-15.32,17.3s-15.32-7.74-15.32-17.3c0-4.78,1.72-9.1,4.49-12.23v6.77h21.67v-6.77c2.77,3.13,4.49,7.45,4.49,12.23Z"/>
        <path class="cls-103" d="M63.5,29c0,9.46-6.79,17.13-15.17,17.13s-15.17-7.67-15.17-17.13c0-4.73,1.7-9.01,4.44-12.11v6.65h21.46v-6.65c2.75,3.1,4.44,7.38,4.44,12.11Z"/>
        <path class="cls-69" d="M63.35,29c0,9.37-6.73,16.96-15.02,16.96s-15.02-7.59-15.02-16.96c0-4.68,1.68-8.92,4.4-11.99v6.53h21.25v-6.53c2.72,3.07,4.4,7.31,4.4,11.99Z"/>
        <path class="cls-101" d="M63.2,29c0,9.27-6.66,16.79-14.87,16.79s-14.87-7.52-14.87-16.79c0-4.64,1.66-8.83,4.36-11.87v6.41h21.03v-6.41c2.69,3.04,4.36,7.23,4.36,11.87Z"/>
        <path class="cls-15" d="M63.05,29c0,9.18-6.59,16.62-14.72,16.62s-14.72-7.44-14.72-16.62c0-4.59,1.65-8.74,4.31-11.75v6.29h20.82v-6.29c2.66,3.01,4.31,7.16,4.31,11.75Z"/>
        <path class="cls-4" d="M62.9,29c0,9.08-6.52,16.45-14.57,16.45s-14.57-7.36-14.57-16.45c0-4.54,1.63-8.65,4.27-11.63v6.17h20.61v-6.17c2.64,2.98,4.27,7.09,4.27,11.63Z"/>
        <path class="cls-132" d="M62.75,29c0,8.99-6.46,16.28-14.42,16.28s-14.42-7.29-14.42-16.28c0-4.49,1.61-8.56,4.22-11.51v6.05h20.39v-6.05c2.61,2.95,4.22,7.01,4.22,11.51Z"/>
        <path class="cls-115" d="M62.6,29c0,8.9-6.39,16.11-14.27,16.11s-14.27-7.21-14.27-16.11c0-4.45,1.6-8.47,4.18-11.39v5.93h20.18v-5.93c2.58,2.91,4.18,6.94,4.18,11.39Z"/>
        <path class="cls-110" d="M62.45,29c0,8.8-6.32,15.94-14.12,15.94s-14.12-7.14-14.12-15.94c0-4.4,1.58-8.39,4.14-11.27v5.81h19.97v-5.81c2.55,2.88,4.14,6.87,4.14,11.27Z"/>
        <path class="cls-89" d="M62.29,29c0,8.71-6.25,15.77-13.97,15.77s-13.97-7.06-13.97-15.77c0-4.35,1.56-8.3,4.09-11.15v5.69h19.75v-5.69c2.53,2.85,4.09,6.8,4.09,11.15Z"/>
        <path class="cls-57" d="M62.14,29c0,8.61-6.19,15.6-13.82,15.6s-13.82-6.98-13.82-15.6c0-4.31,1.55-8.21,4.05-11.03v5.57h19.54v-5.57c2.5,2.82,4.05,6.72,4.05,11.03Z"/>
        <path class="cls-46" d="M61.99,29c0,8.52-6.12,15.43-13.67,15.43s-13.67-6.91-13.67-15.43c0-4.26,1.53-8.12,4-10.91v5.45h19.33v-5.45c2.47,2.79,4,6.65,4,10.91Z"/>
        <path class="cls-140" d="M61.84,29c0,8.43-6.05,15.26-13.52,15.26s-13.52-6.83-13.52-15.26c0-4.21,1.51-8.03,3.96-10.79v5.33h19.11v-5.33c2.45,2.76,3.96,6.58,3.96,10.79Z"/>
        <path class="cls-178" d="M61.69,29c0,8.33-5.98,15.09-13.37,15.09s-13.37-6.75-13.37-15.09c0-4.17,1.5-7.94,3.91-10.67v5.21h18.9v-5.21c2.42,2.73,3.91,6.5,3.91,10.67Z"/>
        <path class="cls-34" d="M61.54,29c0,8.24-5.92,14.92-13.21,14.92s-13.21-6.68-13.21-14.92c0-4.12,1.48-7.85,3.87-10.55v5.09h18.69v-5.09c2.39,2.7,3.87,6.43,3.87,10.55Z"/>
        <path class="cls-35" d="M61.39,29c0,8.14-5.85,14.75-13.06,14.75s-13.06-6.6-13.06-14.75c0-4.07,1.46-7.76,3.83-10.43v4.97h18.48v-4.97c2.36,2.67,3.83,6.36,3.83,10.43Z"/>
        <path class="cls-35" d="M61.24,29c0,8.05-5.78,14.58-12.91,14.58s-12.91-6.53-12.91-14.58c0-4.03,1.45-7.67,3.78-10.31v4.84h18.26v-4.84c2.34,2.64,3.78,6.28,3.78,10.31Z"/>
        <path class="cls-191" d="M61.02,29c0,7.91-5.68,14.32-12.69,14.32s-12.69-6.41-12.69-14.32c0-3.96,1.42-7.54,3.72-10.13v4.67h17.95v-4.67c2.3,2.59,3.72,6.17,3.72,10.13Z"/>
        <path class="cls-16" d="M60.79,29c0,7.77-5.58,14.07-12.47,14.07s-12.47-6.3-12.47-14.07c0-3.89,1.4-7.4,3.65-9.95v4.49h17.63v-4.49c2.26,2.55,3.65,6.06,3.65,9.95Z"/>
        <path class="cls-130" d="M60.57,29c0,7.63-5.48,13.82-12.24,13.82s-12.24-6.19-12.24-13.82c0-3.82,1.37-7.27,3.59-9.77v4.31h17.31v-4.31c2.22,2.5,3.59,5.96,3.59,9.77Z"/>
        <path class="cls-173" d="M60.34,29c0,7.49-5.38,13.57-12.02,13.57s-12.02-6.07-12.02-13.57c0-3.75,1.35-7.14,3.52-9.59v4.13h17v-4.13c2.17,2.45,3.52,5.85,3.52,9.59Z"/>
        <path class="cls-66" d="M60.12,29c0,7.35-5.28,13.31-11.79,13.31s-11.79-5.96-11.79-13.31c0-3.68,1.32-7,3.45-9.41v3.95h16.68v-3.95c2.13,2.41,3.45,5.74,3.45,9.41Z"/>
        <path class="cls-73" d="M59.9,29c0,7.21-5.18,13.06-11.57,13.06s-11.57-5.85-11.57-13.06c0-3.61,1.29-6.87,3.39-9.23v3.77h16.36v-3.77c2.09,2.36,3.39,5.63,3.39,9.23Z"/>
        <path class="cls-186" d="M59.67,29c0,7.07-5.08,12.81-11.35,12.81s-11.35-5.73-11.35-12.81c0-3.54,1.27-6.74,3.32-9.06v3.59h16.05v-3.59c2.05,2.32,3.32,5.52,3.32,9.06Z"/>
        <path class="cls-62" d="M59.45,29c0,6.93-4.98,12.55-11.12,12.55s-11.12-5.62-11.12-12.55c0-3.47,1.24-6.61,3.26-8.88v3.42h15.73v-3.42c2.01,2.27,3.26,5.41,3.26,8.88Z"/>
        <ellipse class="cls-147" cx="48.33" cy="29" rx="10.9" ry="12.3"/>
        <ellipse class="cls-95" cx="48.33" cy="29" rx="10.67" ry="12.05"/>
        <ellipse class="cls-111" cx="48.33" cy="29" rx="10.45" ry="11.8"/>
        <ellipse class="cls-104" cx="48.33" cy="29" rx="10.23" ry="11.54"/>
        <ellipse class="cls-55" cx="48.33" cy="29" rx="10" ry="11.29"/>
        <ellipse class="cls-172" cx="48.33" cy="29" rx="9.78" ry="11.04"/>
        <ellipse class="cls-84" cx="48.33" cy="29" rx="9.55" ry="10.79"/>
        <ellipse class="cls-136" cx="48.33" cy="29" rx="9.33" ry="10.53"/>
        <ellipse class="cls-8" cx="48.33" cy="29" rx="9.11" ry="10.28"/>
        <ellipse class="cls-8" cx="48.33" cy="29" rx="8.88" ry="10.03"/>
        <ellipse class="cls-65" cx="48.33" cy="29" rx="8.5" ry="9.6"/>
        <ellipse class="cls-159" cx="48.33" cy="29" rx="8.12" ry="9.16"/>
        <ellipse class="cls-109" cx="48.33" cy="29" rx="7.74" ry="8.73"/>
        <ellipse class="cls-11" cx="48.33" cy="29" rx="7.35" ry="8.3"/>
        <ellipse class="cls-102" cx="48.33" cy="29" rx="6.97" ry="7.87"/>
        <ellipse class="cls-167" cx="48.33" cy="29" rx="6.59" ry="7.44"/>
        <ellipse class="cls-125" cx="48.33" cy="29" rx="6.21" ry="7.01"/>
        <ellipse class="cls-77" cx="48.33" cy="29" rx="5.82" ry="6.57"/>
        <ellipse class="cls-169" cx="48.33" cy="29" rx="5.44" ry="6.14"/>
        <ellipse class="cls-119" cx="48.33" cy="29" rx="5.06" ry="5.71"/>
        <ellipse class="cls-119" cx="48.33" cy="29" rx="4.68" ry="5.28"/>
        <ellipse class="cls-82" cx="48.33" cy="29" rx="3.51" ry="3.96"/>
        <ellipse class="cls-25" cx="48.33" cy="29" rx="2.34" ry="2.64"/>
        <ellipse class="cls-19" cx="48.33" cy="29" rx="1.17" ry="1.32"/>
      </g>
    </g>
    <path class="cls-182" d="M41.31,63.4l-10.86-15.26s-2.87-4.4-4.8-7.47c-2-3.27.2-8.2,4.8-8.2.6,0,1.07.07,1.6.2l3.8-7c-1.73-.73-3.67-1.13-5.4-1.13-4.6,0-9.67,2.4-12.33,7.87-3.07,6.33-.4,11.2.73,12.86l19,28.2c.2.2,1.4,2,3.4,2s3.2-1.73,3.33-1.93l5.73-8.73-4.93-7.2-4.07,5.8h0Z"/>
  </g>
</svg>