<?xml version="1.0" encoding="UTF-8"?>
<svg id="Laag_1" data-name="Laag 1" xmlns="http://www.w3.org/2000/svg" viewBox="0 0 100 100">
  <defs>
    <style>
      .cls-1 {
        fill: #fff;
        fill-rule: evenodd;
      }

      .cls-2 {
        fill: #05c0c7;
      }
    </style>
  </defs>
  <path class="cls-2" d="M10,0h78.79c6.19,0,11.21,5.02,11.21,11.21v77.58c0,6.19-5.02,11.21-11.21,11.21H11.21c-6.19,0-11.21-5.02-11.21-11.21V10C0,4.48,4.48,0,10,0Z"/>
  <path class="cls-1" d="M37.63,41.09c2.26,1.64,5.53,1.13,7.17-1.13l6.04-8.3c1.64-2.26,1.13-5.53-1.13-7.17-2.26-1.64-5.53-1.13-7.17,1.13l-6.04,8.3c-1.64,2.26-1.13,5.41,1.13,7.17ZM65.05,29.39c-2.26-1.64-5.53-1.13-7.17,1.13l-24.15,33.08c-1.64,2.26-1.13,5.53,1.13,7.17s5.53,1.13,7.17-1.13l24.03-33.08c1.76-2.26,1.26-5.53-1.01-7.17ZM35.36,26.75c1.64-2.26,1.13-5.53-1.13-7.17-2.26-1.64-5.53-1.26-7.17,1.13-1.64,2.26-1.26,5.41,1.13,7.17,2.26,1.64,5.41,1.13,7.17-1.13ZM71.84,72.16c-2.26-1.64-5.53-1.13-7.17,1.13-1.64,2.26-1.13,5.53,1.13,7.17,2.26,1.64,5.53,1.13,7.17-1.13,1.64-2.26,1.13-5.41-1.13-7.17ZM62.41,59.08c-2.26-1.64-5.53-1.13-7.17,1.13l-6.04,8.3c-1.64,2.26-1.13,5.53,1.13,7.17s5.53,1.13,7.17-1.13l6.04-8.3c1.64-2.26,1.13-5.53-1.13-7.17Z"/>
</svg>