<svg id="Laag_1" data-name="Laag 1" xmlns="http://www.w3.org/2000/svg" xmlns:xlink="http://www.w3.org/1999/xlink" viewBox="0 0 100 100"><defs><style>.cls-1{fill:#fff;}.cls-2{fill:#a4a4a3;}.cls-3{fill:url(#Naamloos_verloop_3);}.cls-4{fill:url(#Naamloos_verloop_3-2);}.cls-5{fill:url(#Naamloos_verloop_3-3);}.cls-6{fill:url(#Naamloos_verloop_4);}.cls-7{fill:url(#Naamloos_verloop_5);}</style><linearGradient id="Naamloos_verloop_3" x1="2275.88" y1="464.81" x2="2276.77" y2="464.81" gradientTransform="matrix(24.25, 0, 0, -15.02, -55136.37, 7035.68)" gradientUnits="userSpaceOnUse"><stop offset="0" stop-color="#007940"/><stop offset="0.23" stop-color="#00873f"/><stop offset="0.74" stop-color="#40a737"/><stop offset="1" stop-color="#5cb531"/></linearGradient><linearGradient id="Naamloos_verloop_3-2" x1="2343.6" y1="440.77" x2="2343.91" y2="440.77" gradientTransform="matrix(70.26, 0, 0, -170.72, -164596.07, 75297.87)" xlink:href="#Naamloos_verloop_3"/><linearGradient id="Naamloos_verloop_3-3" x1="2266.44" y1="466.05" x2="2267.42" y2="466.05" gradientTransform="matrix(22.22, 0, 0, -13.77, -50296.91, 6463.91)" xlink:href="#Naamloos_verloop_3"/><linearGradient id="Naamloos_verloop_4" x1="2345.15" y1="440.77" x2="2345.46" y2="440.77" gradientTransform="matrix(70.26, 0, 0, -170.56, -164753.48, 75229.17)" gradientUnits="userSpaceOnUse"><stop offset="0" stop-color="#1f286f"/><stop offset="0.48" stop-color="#004e94"/><stop offset="0.83" stop-color="#0066b1"/><stop offset="1" stop-color="#006fbc"/></linearGradient><linearGradient id="Naamloos_verloop_5" x1="2344.37" y1="440.77" x2="2344.68" y2="440.77" gradientTransform="matrix(70.26, 0, 0, -170.88, -164674.62, 75366.56)" gradientUnits="userSpaceOnUse"><stop offset="0" stop-color="#6c2c2f"/><stop offset="0.17" stop-color="#882730"/><stop offset="0.57" stop-color="#be1833"/><stop offset="0.86" stop-color="#dc0436"/><stop offset="1" stop-color="#e60039"/></linearGradient></defs><rect class="cls-1" x="0.5" y="0.5" width="99" height="99" rx="9.87"/><path class="cls-2" d="M89.63,1A9.38,9.38,0,0,1,99,10.37V89.63A9.38,9.38,0,0,1,89.63,99H10.37A9.38,9.38,0,0,1,1,89.63V10.37A9.38,9.38,0,0,1,10.37,1H89.63m0-1H10.37A10.41,10.41,0,0,0,0,10.37V89.63A10.41,10.41,0,0,0,10.37,100H89.63A10.41,10.41,0,0,0,100,89.63V10.37A10.41,10.41,0,0,0,89.63,0Z"/><path class="cls-1" d="M89.52,68.16A12.28,12.28,0,0,1,77.25,80.43H10.48V31.84A12.28,12.28,0,0,1,22.75,19.57H89.52Z"/><path class="cls-3" d="M67.78,55.7h5.07c.15,0,.48-.05.63-.05a2.27,2.27,0,0,0,1.79-2.27,2.35,2.35,0,0,0-1.79-2.27,2.52,2.52,0,0,0-.63,0H67.78Z"/><path class="cls-4" d="M72.27,23.67a8.79,8.79,0,0,0-8.79,8.79v9.13H75.89a4.8,4.8,0,0,1,.87,0c2.81.15,4.88,1.6,4.88,4.11,0,2-1.4,3.67-4,4v.1c2.85.19,5,1.78,5,4.25,0,2.65-2.42,4.39-5.61,4.39H63.43V76.38h12.9a8.8,8.8,0,0,0,8.79-8.8V23.67Z"/><path class="cls-5" d="M74.64,46.33a2.06,2.06,0,0,0-1.79-2.08c-.1,0-.34,0-.48,0H67.78v4.25h4.59a1.61,1.61,0,0,0,.48,0,2.06,2.06,0,0,0,1.79-2.08Z"/><path class="cls-6" d="M23.67,23.67a8.79,8.79,0,0,0-8.79,8.79V54.15a17.34,17.34,0,0,0,7.58,2c3.05,0,4.69-1.84,4.69-4.35V41.55h7.54V51.74c0,4-2.47,7.2-10.83,7.2a37.09,37.09,0,0,1-9-1.11v18.5h12.9a8.79,8.79,0,0,0,8.79-8.79V23.67Z"/><path class="cls-7" d="M48,23.67a8.79,8.79,0,0,0-8.79,8.79V44c2.22-1.88,6.09-3.09,12.32-2.8a38.92,38.92,0,0,1,6.91,1.06v3.72A16.68,16.68,0,0,0,51.74,44c-4.74-.34-7.59,2-7.59,6s2.85,6.42,7.59,6a17.71,17.71,0,0,0,6.67-1.94v3.72a38.51,38.51,0,0,1-6.91,1.07c-6.23.29-10.1-.92-12.32-2.8V76.43h12.9a8.8,8.8,0,0,0,8.79-8.8v-44Z"/></svg>