<?xml version="1.0" encoding="UTF-8"?>
<svg id="Laag_1" data-name="Laag 1" xmlns="http://www.w3.org/2000/svg" viewBox="0 0 100 100">
  <defs>
    <style>
      .cls-1 {
        fill: #e1362a;
      }

      .cls-2 {
        fill: #fccbbf;
      }
    </style>
  </defs>
  <rect class="cls-1" width="100" height="100" rx="12.52" ry="12.52"/>
  <g id="Yrv0Fn">
    <path class="cls-2" d="M87.05,46.27c-3,2.36-6.23,4.76-9.43,6.91-6.99,4.7-13.43,8.69-21.95,10.11-16.85,2.82-30.24-7.43-42.72-17.03l23.97-9.5c1.8-.38,4.19-.77,6-.39,3.06.63,4.87,5.07,8.73,3.3,4.06-1.87,3.64-3.93,9.36-3.33,9.01,2.26,17.31,6.8,26.03,9.93ZM72.41,48.45c-5.87.09-11.73.19-17.6.3-7.14.13-14.29.2-21.48.03-.66-.02-7.31-.77-7.31-.17,4.43.83,8.86,1.86,13.33,2.56,7.2,1.13,13.44,1.85,20.67,0l12.39-2.7Z"/>
  </g>
</svg>