<?xml version="1.0" encoding="UTF-8"?>
<svg id="Laag_1" data-name="Laag 1" xmlns="http://www.w3.org/2000/svg" viewBox="0 0 100 100">
  <defs>
    <style>
      .cls-1 {
        fill: #2ad03d;
      }

      .cls-2 {
        fill: #fff;
      }

      .cls-3 {
        fill: #18687c;
      }
    </style>
  </defs>
  <rect class="cls-2" width="100" height="100"/>
  <g>
    <g>
      <path class="cls-3" d="M31.78,51.8c-.31-4.25-2.33-8.18-5.47-10.65,2.56-2.07,3.8-5.3,3.36-8.79-.69-5.36-3.81-10.63-10.45-10.28-1.48.07-2.19.49-2.15,1.79-.05,3.23-.05,40.97,0,41.08.21,1.21,1.37,1.93,2.4,2.21.79.21,1.6.31,2.41.31,2.99,0,5.91-1.4,7.76-3.85,2.52-3.34,2.43-7.86,2.14-11.83ZM26.36,51.04c.34,3.32.07,8-1.82,10.24-.58.68-1.26,1.1-2.08,1.27l-.27-18.37c2.26,1.26,3.86,3.87,4.17,6.87ZM22.09,37.68l-.15-10.13c1.79,1.23,2.28,3.95,2.4,5.16.22,2.1-.63,3.93-2.25,4.96Z"/>
      <path class="cls-3" d="M48.13,24.47c-1.12-1.62-2.88-2.53-4.88-2.39-4.35.29-6.57,5.2-7.2,9.7-.11.81.23,1.59.93,2.14.88.68,2.17.89,3.13.5.75-.3,1.22-.92,1.34-1.75.19-1.35.52-3.13,1.48-4.52.42-.61.85-1.18,1.09-1.07.44.21.14,10.31.13,11.97-5.57,1.39-9.47,6.63-9.77,13.19-.17,3.74-.14,7.99,2.36,11.19,2.02,2.59,5.06,4.04,8.21,4.04.87,0,1.75-.11,2.62-.34.9-.26,1.6-.79,1.6-2.04,0-.08.05-17.03.05-17.03l-.09-16.87s.12-5.12-1-6.73ZM43.79,62.71c-.88-.05-1.61-.39-2.21-1.04-2.18-2.35-2.03-8.02-1.64-10.69h0c.38-2.63,2-5.11,4.12-6.43l-.27,18.15Z"/>
      <path class="cls-3" d="M67.9,51.85c-.44-6.06-4.39-11.25-9.67-12.78-.04-2.41-.07-5.12-.11-7.82-.04-2.7-.07-5.4-.11-7.78-.02-1.41-2.38-1.4-2.71-1.4-1.41.02-2.13.37-2.12,1.04.1,6.69-.06,20.45-.06,20.45,0,0,.01,21.3.06,21.41.21,1.21,1.37,1.93,2.4,2.2.79.21,1.6.31,2.41.31,2.99,0,5.91-1.4,7.76-3.83,2.53-3.33,2.43-7.83,2.14-11.79ZM60.65,61.29c-.58.68-1.26,1.1-2.08,1.27l-.27-18.32c2.26,1.26,3.86,3.85,4.17,6.84.34,3.31.07,7.97-1.82,10.2Z"/>
      <path class="cls-3" d="M82.93,60.06V24.83c-.01-.93-.56-1.76-1.51-2.28-1.01-.56-2.62-.62-3.4-.16-.59.35-.9.96-.89,1.71l.31,21.72c-2.28-1.25-3.91-3.84-4.22-6.85-.46-4.43-.38-10.19-.14-14.11.1-1.61-1.46-2.71-2.95-2.8-1.41-.1-2.38.72-2.45,1.99-.16,2.77-.09,6.8-.04,9.21,0,.46.01.93.02,1.41.02,2.5.03,5.09.86,7.47,1.49,4.3,4.92,7.64,9.01,8.81l.31,9.16c.02,1.46.08,2.58-.41,2.37-.2-.08-.26-.15-.51-.45-1.1-1.31-1.47-3.14-1.71-4.91-.22-1.59-1.9-2.36-3.33-2.16-1.38.19-2.18,1.21-1.99,2.54.6,4.28,2.78,9.12,7.13,9.89.32.06.64.08.95.08,1.64,0,3.21-.73,4.19-1.99,1.03-1.11.79-5.42.79-5.42Z"/>
    </g>
    <g>
      <path class="cls-1" d="M20.19,71.61c.81,0,1.52.29,2.05.77.16.14.19.4.04.58-.16.18-.42.19-.59.04-.4-.36-.91-.59-1.5-.59-1.29,0-2.29,1.06-2.29,2.36s1,2.35,2.29,2.35c.59,0,1.1-.23,1.5-.59.17-.14.43-.13.59.04.14.18.12.44-.04.58-.53.48-1.24.77-2.05.77-1.74,0-3.12-1.41-3.12-3.17s1.38-3.16,3.12-3.16Z"/>
      <path class="cls-1" d="M29.85,77.32c.09.22,0,.46-.23.55-.22.08-.46-.03-.54-.24l-.51-1.34h-2.61l-.52,1.34c-.08.21-.31.32-.54.24-.22-.09-.32-.32-.23-.55l2-5.28c.11-.25.28-.4.57-.4h.04c.28,0,.46.15.55.4l2,5.28ZM28.28,75.53l-1.02-2.89-1.02,2.89h2.04Z"/>
      <path class="cls-1" d="M32.57,77.84c-.19,0-.35-.16-.35-.36v-5.45c0-.2.16-.36.35-.36h2.04c1.75,0,2.77,1.34,2.77,3.09s-1.02,3.07-2.77,3.07h-2.04ZM34.61,77.07c1.28,0,1.94-.99,1.94-2.29s-.66-2.32-1.94-2.32h-1.56v4.61h1.56Z"/>
      <path class="cls-1" d="M40.95,75.21v1.86h2.58c.21,0,.39.17.39.39s-.18.38-.39.38h-2.99c-.22,0-.42-.2-.42-.43v-5.3c0-.23.2-.43.42-.43h2.88c.21,0,.39.17.39.38s-.18.39-.39.39h-2.47v1.97h2.13c.21,0,.39.17.39.39s-.18.38-.39.38h-2.13Z"/>
      <path class="cls-1" d="M51.78,77.32c.09.22,0,.46-.23.55-.22.08-.46-.03-.54-.24l-.51-1.34h-2.61l-.52,1.34c-.08.21-.31.32-.54.24-.22-.09-.32-.32-.23-.55l2-5.28c.11-.25.28-.4.57-.4h.04c.28,0,.46.15.55.4l2,5.28ZM50.21,75.53l-1.02-2.89-1.02,2.89h2.04Z"/>
      <path class="cls-1" d="M58.19,72.06c0-.23.18-.42.41-.42s.42.19.42.42v3.67c0,1.34-1.04,2.21-2.25,2.21s-2.25-.87-2.25-2.21v-3.67c0-.23.18-.42.41-.42s.42.19.42.42v3.67c0,.85.66,1.4,1.42,1.4s1.42-.55,1.42-1.4v-3.67Z"/>
      <path class="cls-1" d="M62.66,77.84c-.19,0-.35-.16-.35-.36v-5.45c0-.2.16-.36.35-.36h1.98c1.03,0,1.67.62,1.67,1.59,0,.52-.2,1.06-.78,1.29.69.14,1.11.89,1.11,1.5,0,.96-.67,1.78-1.81,1.78h-2.17ZM64.64,74.24c.55,0,.82-.44.82-.94,0-.54-.36-.85-.91-.85h-1.4v1.79h1.48ZM63.15,74.97v2.09h1.65c.61,0,.98-.49.98-1.01,0-.49-.38-1.08-1.01-1.08h-1.62Z"/>
      <path class="cls-1" d="M72.28,71.61c1.76,0,3.13,1.41,3.13,3.17s-1.37,3.16-3.13,3.16-3.11-1.41-3.11-3.16,1.36-3.17,3.11-3.17ZM72.28,77.13c1.3,0,2.29-1.05,2.29-2.35s-.99-2.36-2.29-2.36-2.28,1.06-2.28,2.36.99,2.35,2.28,2.35Z"/>
      <path class="cls-1" d="M79.36,73.2v4.27c0,.23-.18.42-.41.42s-.42-.19-.42-.42v-5.42c0-.22.19-.41.41-.41h.12c.19,0,.32.06.42.24l2.66,4.41v-4.23c0-.23.18-.42.41-.42s.42.19.42.42v5.44c0,.21-.18.39-.39.39h-.12c-.18,0-.3-.06-.4-.23l-2.69-4.45Z"/>
    </g>
  </g>
</svg>