<svg id="Laag_1" data-name="Laag 1" xmlns="http://www.w3.org/2000/svg" viewBox="0 0 100 100"><defs><style>.cls-1{fill:#1c3b6c;}.cls-2{fill:#e8a306;}.cls-3{fill:#aa8005;}.cls-4{fill:#ffc532;}.cls-5{fill:#edc865;}</style></defs><rect class="cls-1" width="100" height="100" rx="10.37"/><circle class="cls-2" cx="50" cy="50" r="30"/><circle class="cls-3" cx="50" cy="50" r="24.26" transform="translate(-8.49 89.74) rotate(-79.19)"/><path class="cls-2" d="M74.26,50A24.25,24.25,0,0,0,62.81,29.4a24.26,24.26,0,0,0-23,42.6A24.26,24.26,0,0,0,74.26,50Z"/><path class="cls-3" d="M38.39,48a15.67,15.67,0,0,1,1.7-4.35,14.19,14.19,0,0,1,3-3.66,14.38,14.38,0,0,1,9.6-3.46,13.53,13.53,0,0,1,7.12,1.81A11.52,11.52,0,0,1,64.31,43l-4.45,3.07A7.51,7.51,0,0,0,58.43,44a7,7,0,0,0-1.81-1.37,7.69,7.69,0,0,0-2-.73,9.25,9.25,0,0,0-2.06-.24,8.17,8.17,0,0,0-3,.51,7.8,7.8,0,0,0-2.33,1.36,8.61,8.61,0,0,0-1.73,2A10,10,0,0,0,44.44,48H55.2l-1.26,3.11h-10v.46A11.26,11.26,0,0,0,44,53.23h9.83l-1.26,3.11H44.9A9.84,9.84,0,0,0,48,60.16a7.62,7.62,0,0,0,4.64,1.47,9.7,9.7,0,0,0,2.1-.25,8.21,8.21,0,0,0,2.08-.8,7.6,7.6,0,0,0,1.83-1.41A6.37,6.37,0,0,0,60,57.09l4.75,2.73a8.87,8.87,0,0,1-2,3,12.87,12.87,0,0,1-3,2.17,15.89,15.89,0,0,1-7.24,1.8,12.76,12.76,0,0,1-4.65-.84,15,15,0,0,1-3.92-2.24,14.73,14.73,0,0,1-3-3.3,16.44,16.44,0,0,1-2-4H34.49l1.3-3.11h2.35A13.8,13.8,0,0,1,38,51.38v-.29H35.08L36.34,48Z"/><path class="cls-4" d="M36.82,46.4a15.19,15.19,0,0,1,1.7-4.35,14.11,14.11,0,0,1,3-3.65,14.51,14.51,0,0,1,9.6-3.47,13.58,13.58,0,0,1,7.12,1.81,11.52,11.52,0,0,1,4.47,4.7l-4.45,3.07a7.51,7.51,0,0,0-1.43-2.12A7.41,7.41,0,0,0,55.05,41a8.29,8.29,0,0,0-2-.73A9.78,9.78,0,0,0,51,40.06a8.39,8.39,0,0,0-3,.5,7.83,7.83,0,0,0-2.33,1.37,8.33,8.33,0,0,0-1.72,2,9.67,9.67,0,0,0-1.09,2.46H53.62l-1.26,3.11h-10V50a10,10,0,0,0,.13,1.68h9.83L51,54.76H43.33a9.68,9.68,0,0,0,3.09,3.82,7.6,7.6,0,0,0,4.64,1.47,9.24,9.24,0,0,0,2.1-.25,7.86,7.86,0,0,0,2.08-.8,8,8,0,0,0,1.82-1.4,6.67,6.67,0,0,0,1.35-2.08l4.74,2.73a8.94,8.94,0,0,1-2,3,13.19,13.19,0,0,1-3,2.16,14.63,14.63,0,0,1-3.54,1.34,15.51,15.51,0,0,1-3.7.47,12.7,12.7,0,0,1-4.64-.84,14.86,14.86,0,0,1-7-5.55,16.62,16.62,0,0,1-2-4H32.91l1.3-3.11h2.36a12.21,12.21,0,0,1-.13-1.85v-.29H33.5l1.26-3.11Z"/><path class="cls-5" d="M70.25,36.64a24.26,24.26,0,0,1-39.5,28.12,24.26,24.26,0,1,0,39.5-28.12Z"/></svg>