<svg id="Laag_1" data-name="Laag 1" xmlns="http://www.w3.org/2000/svg" viewBox="0 0 100 100"><defs><style>.cls-1{fill:#148cc6;}.cls-2{fill:#fff;}</style></defs><rect class="cls-1" width="100" height="100" rx="10.37"/><path class="cls-2" d="M73.85,65.44h-64V34.56H61.78c0,.17,0,.34,0,.51v25c0,.15,0,.31,0,.47s.1.37.38.36c.44,0,.88,0,1.32,0a.5.5,0,0,0,.56-.56V54.39a2.39,2.39,0,0,1,.35-1.57,2.62,2.62,0,0,1,.67-.66c.26-.17.6-.2.87-.35.66-.38,1.27-.06,1.89.11a1,1,0,0,1,.47.36,3,3,0,0,1,.51,1.65c0,1.42,0,2.85,0,4.28v2.16c0,.46,0,.51.52.51h1.28a.44.44,0,0,0,.46-.44c0-1.32,0-2.64,0-3.95a22.27,22.27,0,0,0-.13-3.91,3.62,3.62,0,0,0-.79-1.81,2.58,2.58,0,0,0-1.58-.86c-1.13-.11-2.31-.32-3.34.44-.28.21-.65.35-.83.62s-.31.18-.42.08a5.27,5.27,0,0,0,.07-.58C64,45.3,64,40.13,64,35c0-.13,0-.26,0-.4h9.81v.3q0,15.14,0,30.28ZM49.28,60.9c0-.41,0-.79,0-1.18s-.07-.51-.46-.52c-.56,0-.58-.07-.58-.64V53.22a3.59,3.59,0,0,0-.44-2,2.62,2.62,0,0,0-1.23-1.07,8.34,8.34,0,0,0-2-.53A9.68,9.68,0,0,0,42,49.9l-.06,0c-.44.23-.88.46-1.31.72a2.3,2.3,0,0,0-1,1.38,3.24,3.24,0,0,0-.13.33,1.79,1.79,0,0,0,0,.76c0,.13.35.2.55.22a8.68,8.68,0,0,0,1,0,.53.53,0,0,0,.6-.51,1.21,1.21,0,0,1,1-1.14,4,4,0,0,1,2.69.15,1.7,1.7,0,0,1,.59,1.94s-.08.05-.11.08c-.5.41-1.15.33-1.73.49s-1,0-1.52.2a12.33,12.33,0,0,0-1.85.57,3.16,3.16,0,0,0-.71.42,3.45,3.45,0,0,0-1,2,3.69,3.69,0,0,0,.26,1.76,1.57,1.57,0,0,0,.36.57,2.09,2.09,0,0,0,1,.84,9.4,9.4,0,0,0,1,.38,4.84,4.84,0,0,0,3.08-.48,3,3,0,0,0,.55-.39l.92-.79a4.11,4.11,0,0,1,.08.42,1.35,1.35,0,0,0,.94,1C47.84,60.93,48.53,60.9,49.28,60.9Zm10-7.76a2.29,2.29,0,0,0-.21-1.35,2.79,2.79,0,0,0-.93-1.16,3,3,0,0,0-1-.54,5.8,5.8,0,0,0-2.18-.43c-.32,0-.65.16-1,.16a3.39,3.39,0,0,0-2.09.82,2.82,2.82,0,0,0-.8.92,3.09,3.09,0,0,0-.29,2.07,2.6,2.6,0,0,0,.55,1.2,4.36,4.36,0,0,0,1.82,1,12.22,12.22,0,0,0,1.39.3l.17,0a10.29,10.29,0,0,0,1.3.41,2.12,2.12,0,0,1,1.07.5,1.05,1.05,0,0,1,.13,1.51,2.54,2.54,0,0,1-1.51.71,3.22,3.22,0,0,1-1.5-.14,1.64,1.64,0,0,1-1.47-1.47c0-.13-.2-.33-.31-.33-.63,0-1.26,0-1.92,0a3.17,3.17,0,0,0,.19,1.44,4.57,4.57,0,0,0,.71,1.11,2.6,2.6,0,0,0,1.23.78,9.56,9.56,0,0,0,1.63.43,6,6,0,0,0,3.38-.47,4.08,4.08,0,0,0,1.07-.63,4.31,4.31,0,0,0,1-2.3,1.25,1.25,0,0,0,0-.47,4.15,4.15,0,0,0-.19-.69,3.46,3.46,0,0,0-.36-.72,3.52,3.52,0,0,0-1.82-1.16,11.06,11.06,0,0,0-2.13-.53,5.56,5.56,0,0,1-1.7-.55,1.28,1.28,0,0,1-.44-1.42,2.61,2.61,0,0,1,2-.78c.14,0,.3.14.46.16a1.37,1.37,0,0,1,.93.28c.23.24.54.4.6.8,0,.18.25.44.4.45C58.05,53.17,58.65,53.14,59.27,53.14Zm-21.51.48a7.3,7.3,0,0,1-.28-.93,3.15,3.15,0,0,0-.9-1.62,4.15,4.15,0,0,0-1.53-1,7,7,0,0,0-2-.4,8.29,8.29,0,0,0-1.08.16,3.87,3.87,0,0,0-1.87.77,4.89,4.89,0,0,0-1.65,2.12,7.12,7.12,0,0,0-.31,1.4A9,9,0,0,0,28,55a10,10,0,0,0,.33,2.6,2,2,0,0,0,.18.69c.28.48.64.93.94,1.41A3.32,3.32,0,0,0,31,60.87a6,6,0,0,0,1.66.31,5.15,5.15,0,0,0,2.13-.29,2.22,2.22,0,0,0,.63-.27,11.82,11.82,0,0,0,1.16-1,3.24,3.24,0,0,0,.6-.86c.19-.42.31-.88.47-1.33s0-.56-.24-.57c-.55,0-1.1,0-1.64,0a.44.44,0,0,0-.31.22,6,6,0,0,0-.23.72,1.79,1.79,0,0,1-1.4,1.25,2.82,2.82,0,0,1-2-.15,2.63,2.63,0,0,1-1.41-2.2,7,7,0,0,1,.19-3.34,2.81,2.81,0,0,1,.41-.81,2.48,2.48,0,0,1,1.08-.84,2.81,2.81,0,0,1,1.81,0,1.87,1.87,0,0,1,.92.57,8.22,8.22,0,0,1,.72,1.32Z"/><path class="cls-2" d="M78.38,34.56c0,.17,0,.34,0,.51V60.42c0,.45,0,.48-.48.48H76.36c-.31,0-.39-.22-.41-.4a9.77,9.77,0,0,1,0-1.21V35.11c0-.18,0-.36,0-.55Z"/><path class="cls-2" d="M81.38,65.44c-.5-.7-.12-1.47-.27-2.25.51,0,1,0,1.38,0a1,1,0,0,0,.87-.58,6.29,6.29,0,0,0,.48-1.13.28.28,0,0,0,0-.18c-.21-.51-.45-1-.65-1.54-.13-.33-.19-.69-.31-1s-.3-.73-.43-1.1-.21-.66-.32-1-.29-.71-.42-1.07-.21-.65-.32-1-.27-.69-.41-1c0-.06,0-.11-.07-.16-.17-.46-.34-.92-.49-1.38s-.18-.65-.29-1-.2-.46-.25-.7,0-.45.39-.45h1.61a.49.49,0,0,1,.55.41c.14.56.34,1.1.52,1.65s.3.94.47,1.41c.22.64.46,1.27.67,1.91.12.36.2.75.32,1.12s.27.8.42,1.2l.17.49c.14-.31.28-.55.37-.81s.18-.75.29-1.11.27-.73.41-1.09c0,0,0-.08,0-.12.19-.71.36-1.42.57-2.12.11-.35.3-.68.43-1s.18-.61.27-.91a6.92,6.92,0,0,1,.33-.86c0-.08.22-.13.33-.13h2.12v.44c-.06,0-.16.05-.18.1-.11.31-.22.63-.31.94s-.18.73-.31,1.08c-.2.54-.45,1.07-.65,1.61s-.35,1-.52,1.44-.35.94-.5,1.42-.37,1.19-.56,1.78a.52.52,0,0,1-.06.13c-.13.32-.29.63-.4,1s-.19.7-.31,1c-.22.58-.51,1.13-.68,1.72a5.74,5.74,0,0,1-.8,1.74,1.85,1.85,0,0,1-.6.58,8.48,8.48,0,0,1-.93.33c-.08,0-.14.13-.21.2Z"/><path class="cls-2" d="M46,55.48a9.73,9.73,0,0,1,0,2.09,2.3,2.3,0,0,1-1.11,1.36,3.17,3.17,0,0,1-2,.47,1.6,1.6,0,0,1-1.44-.88,1.8,1.8,0,0,1-.13-1.17,1.45,1.45,0,0,1,.84-1,3.58,3.58,0,0,1,1.17-.28c.63-.09,1.24-.28,1.86-.43Z"/></svg>