<?xml version="1.0" encoding="UTF-8"?>
<svg id="Laag_1" data-name="Laag 1" xmlns="http://www.w3.org/2000/svg" viewBox="0 0 99.8 100">
  <defs>
    <style>
      .cls-1 {
        fill: #41b6e6;
      }

      .cls-2 {
        fill: #fff;
      }
    </style>
  </defs>
  <path class="cls-2" d="M9.99,0h78.63c6.17,0,11.18,5.02,11.18,11.21v77.58c0,6.19-5.01,11.21-11.19,11.21H11.19c-6.18,0-11.19-5.02-11.19-11.21V10C0,4.48,4.48,0,9.99,0Z"/>
  <path class="cls-1" d="M85.88,52.65c0-5.68-3.2-9.56-10.33-9.55h0s-5.5,0-5.5,0l-.1-.44c7.59-2.17,10.65-6.66,10.65-11.86,0-6.67-5.04-11.39-13.35-11.39h-17.9l-6.02,10.39h14.74c4.17,0,7.83,1.05,7.83,5.81,0,5.68-5.23,7.53-10.57,7.53h-19.73l-6.12,10.57h19.05c6.63,0,8.33,2.87,8.33,6.24,0,4.29-2.75,8.09-10.15,8.09h-25.53l-7.27,12.58h36.11c14.53,0,21.84-6.74,21.84-15.86,0-6.16-3.34-9.32-8.07-10.62l.12-.48h21.97"/>
</svg>