<?xml version="1.0" encoding="UTF-8"?>
<svg id="Laag_1" data-name="Laag 1" xmlns="http://www.w3.org/2000/svg" viewBox="0 0 100 100">
  <defs>
    <style>
      .cls-1 {
        fill: #07a686;
      }

      .cls-2 {
        fill: #fff;
      }

      .cls-3 {
        fill: #025b9c;
      }

      .cls-4 {
        fill: #013760;
      }

      .cls-5 {
        fill: #09a686;
      }
    </style>
  </defs>
  <rect class="cls-2" width="100" height="100" rx="11.542" ry="11.542"/>
  <g>
    <path class="cls-4" d="M71.089,46.324l-4.431,4.369,2.877,2.887c.154.154.316.275.339.47-.561,1.237-1.198,2.322-2.003,3.406-1.185,1.595-2.422,3.058-3.823,4.479l-4.076,4.135c-.116.023-.236-.021-.344-.132l-2.708-2.78,2.317-2.416c2.812-2.932,7.673-7.567,7.601-11.891.114-2.012-.055-3.95-.327-6.011l4.281-.004c.17,1.191.276,2.339.296,3.49h0Z"/>
    <path class="cls-1" d="M42.953,41.021l-3.065,3.027c-.294-.315-.464-.69-.71-1.024-1.208-1.639-3.016-2.465-5.05-2.456l-6.063.027c-2.224.01-4.357-.115-6.453-.544l3.605-3.725,8.418-.014c4.014-.006,7.198,1.36,9.318,4.708h0Z"/>
    <path class="cls-4" d="M50.2,78.277l-3.729,3.854c-2.121-.462-4.042-1.128-5.841-2.287-3.215-2.073-5.082-5.552-5.019-9.333.116-.01.204-.094.306-.198l2.52-2.561c.455.507,1.02.854,1.42,1.411-.207,2.819.444,5.328,2.946,6.984,2.178,1.442,4.804,2.151,7.398,2.131h0Z"/>
    <path class="cls-1" d="M85.345,35.916c-1.65,2.768-4.616,3.853-7.656,4.306-1.969.293-3.874.383-5.873.374l-6.084-.026,4.109-4.231,4.525-.039c1.542-.013,3.01-.209,4.454-.673,1.518-.488,2.67-1.43,3.485-2.729l3.04,3.018h0Z"/>
    <path class="cls-3" d="M43.114,63.159l-3.02,2.936-4.293-4.313c-1.689-1.696-5.008-5.663-5.71-7.865l3.26-3.209c1.151,3.601,4.487,7.057,7.098,9.726l2.666,2.725Z"/>
    <path class="cls-4" d="M39.888,44.048l3.065-3.027c1.236,1.952,1.953,4.091,1.946,6.479-.012,4.009-1.192,7.982-2.473,11.748l-3.292-3.518c.709-2.33,1.316-4.6,1.521-6.994.268-1.683-.148-3.188-.768-4.688h0Z"/>
    <path class="cls-4" d="M59.964,21.723l-4.108-4.235,9.978-.003c2.315,0,4.266,1.078,4.681,3.496.158.918.109,1.83.088,2.782-1.629.409-2.981,1.216-4.187,2.471-.073-1.095-.02-2.088-.033-3.126-.009-.76-.468-1.278-1.238-1.371l-5.182-.013h0Z"/>
    <path class="cls-4" d="M51.379,68.912c1.02.919,2.005,1.904,2.924,2.924-.899.914-1.829,1.705-3.006,2.211-.874.376-1.741.415-2.628-.016-1.076-.523-2.051-1.191-2.905-2.073l-5.671-5.862,3.02-2.936c1.673,1.711,3.311,3.338,4.922,5.062.441.472.849.907,1.335,1.327.44.381,1.164.225,1.505-.219.156-.203.379-.275.503-.418h0Z"/>
    <path class="cls-3" d="M44.034,17.489l-3.795,3.889c-.118.121-.243.196-.246.344l-5.142.023c-.709.073-1.218.547-1.227,1.261l-.04,3.233c-1.19-1.256-2.576-2.078-4.207-2.483-.042-1.001-.049-1.957.141-2.923.451-2.286,2.382-3.352,4.563-3.351l9.952.007Z"/>
    <path class="cls-4" d="M85.345,35.916l-3.04-3.018c.171-.644.937-2.247.641-2.669-.082-.116-.24-.249-.458-.252l-3.141-.032c-.438-.537-.951-1.027-1.473-1.484l2.546-2.718,6.967-.015c.717-.002,1.328.652,1.114,1.384l-1.755,6.005c-.318,1.089-.878,1.921-1.401,2.798h0Z"/>
    <path class="cls-3" d="M58.031,75.56c1.014.938,2.034,1.906,2.928,2.955-.814.938-1.879,1.547-2.975,2.102-3.582,1.814-7.657,2.354-11.514,1.513l3.729-3.854c2.507-.019,6.126-1.145,7.831-2.717h0Z"/>
    <path class="cls-1" d="M19.542,25.748c.036.066.063.167.147.245.844.776,1.559,1.635,2.411,2.338.004.045.012.09.006.135-.527.448-1.037.942-1.472,1.48l-3.06.027c-.305.003-.754.296-.597.679.289.706.322,1.615.708,2.242l-1.262,1.079-4.12-4.125-.802-2.709c-.21-.717.345-1.411,1.092-1.409l6.949.018h0Z"/>
    <polygon class="cls-5" points="55.856 17.487 59.964 21.723 48.794 21.721 44.685 17.489 55.856 17.487"/>
    <path class="cls-4" d="M69.841,36.339l-4.109,4.231c-2.531-.011-4.525,1.434-5.595,3.528-1.101-.934-2.101-2.015-3.106-3.065,1.203-1.912,2.881-3.341,5.044-4.066,1.151-.386,2.338-.643,3.586-.64l4.18.012h0Z"/>
    <path class="cls-3" d="M60.136,44.098c-.772,1.509-.994,3.087-.8,4.769.265,2.294.779,4.484,1.482,6.679.05.156-.028.188-.087.261l-5.409-5.285c-.551-3.648-.165-6.512,1.708-9.49,1.005,1.05,2.005,2.132,3.106,3.065h0Z"/>
    <path class="cls-3" d="M80.419,25.743l-2.546,2.718c-.486.465-1.156.886-1.54,1.483l-3.436.015c-1.502.006-1.953,1.104-2.431,2.152l-3.234-3.127c1.094-2.178,3.61-3.254,5.962-3.25l7.226.01h0Z"/>
    <path class="cls-1" d="M33.35,50.708l-3.26,3.209c-.805-1.443-1.055-3.134-1.191-4.832-.096-2.103.021-4.148.3-6.246l4.277-.004c-.341,2.781-.525,5.134-.126,7.873h0Z"/>
    <path class="cls-3" d="M32.742,28.954c-1.006.731-2.27,2.372-3.28,3.086-.374-1.12-1.054-2.071-2.282-2.076l-3.618-.016c-.012-.171-1.287-1.429-1.456-1.482.006-.045-.002-.09-.006-.135.943-.769,1.794-1.686,2.62-2.588,2.205-.002,3.161-.164,5.222.631,1.338.517,2.13,1.475,2.801,2.58h0Z"/>
    <path class="cls-1" d="M64.38,70.586c-.011,3.026-1.149,6.056-3.421,7.929-.894-1.049-1.914-2.017-2.928-2.955,1.819-1.676,2.313-4.055,2.104-6.402.417-.537.975-.915,1.396-1.383l2.555,2.613c.098.1.2.16.295.198h0Z"/>
    <path class="cls-4" d="M25.216,36.326l-3.605,3.725c-1.414-.289-2.713-.559-3.947-1.26-1.275-.725-2.283-1.663-3.024-2.856-.39.238,2.292-2.399,1.782-1.963l1.262-1.079c.825,1.338,2.034,2.288,3.542,2.735,1.291.383,2.664.7,3.99.698h0Z"/>
    <path class="cls-1" d="M59.974,66.069l-5.671,5.768c-.92-1.02-1.904-2.005-2.924-2.924,1.775-2.042,3.723-3.858,5.543-5.756l2.708,2.78c.108.111.228.156.344.132h0Z"/>
    <path class="cls-4" d="M44.685,17.489l4.109,4.232-8.802.002c.003-.149.128-.224.246-.344l3.795-3.889h.652Z"/>
    <path class="cls-5" d="M60.732,55.807c-.976,1.219-2.072,2.243-3.159,3.448-1.068-3.096-1.773-5.572-2.25-8.732l5.409,5.285h0Z"/>
    <path class="cls-1" d="M69.875,54.049c-.023-.195-.186-.315-.339-.47l-2.877-2.887,4.431-4.369c.104,1.385.03,2.698-.111,4.03-.143,1.347-.577,2.533-1.103,3.696h0Z"/>
    <path class="cls-1" d="M32.742,28.954c.941,1.551,1.307,3.32,1.244,5.126l-4.222-.017c-.041-.73-.131-1.384-.302-2.024,1.01-.715,2.274-2.355,3.28-3.086Z"/>
    <path class="cls-4" d="M70.465,32.111l-.228,1.958-4.247-.007c-.004-1.614.339-3.857,1.24-5.079l3.234,3.127h0Z"/>
    <path class="cls-3" d="M16.422,33.973c.51-.436-2.172,2.201-1.782,1.963-.65-1.048-1.17-2.07-1.522-3.282l-.816-2.806s4.12,4.124,4.12,4.124Z"/>
    <path class="cls-4" d="M64.38,70.586c-.095-.038-.197-.098-.295-.198l-2.555-2.613c.765-.851,1.529-1.624,2.323-2.409.432,1.81.532,3.509.526,5.221h0Z"/>
    <path class="cls-3" d="M38.436,67.752l-2.52,2.561c-.102.104-.19.188-.306.198-.03-1.765.168-3.448.533-5.144.86.819,1.581,1.592,2.294,2.386h0Z"/>
    <path class="cls-4" d="M24.72,25.743c-.825.903-1.676,1.819-2.62,2.588-.853-.703-1.567-1.562-2.411-2.338-.084-.077-.11-.179-.147-.245l5.178-.005h0Z"/>
    <path class="cls-5" d="M77.873,28.462c.522.456,1.035.947,1.473,1.484h-3.013c.384-.598,1.054-1.019,1.54-1.484Z"/>
    <path class="cls-4" d="M23.561,29.948l-2.928-.002c.435-.537.945-1.032,1.472-1.48.169.053,1.444,1.311,1.456,1.482h0Z"/>
  </g>
</svg>