<?xml version="1.0" encoding="utf-8"?>
<!-- Generator: Adobe Illustrator 24.3.0, SVG Export Plug-In . SVG Version: 6.00 Build 0)  -->
<svg version="1.1" id="Layer_1" xmlns="http://www.w3.org/2000/svg" xmlns:xlink="http://www.w3.org/1999/xlink" x="0px" y="0px"
	 viewBox="0 0 580.6 366.7" style="enable-background:new 0 0 580.6 366.7;" xml:space="preserve">
<style type="text/css">
	.st0{filter:url(#Adobe_OpacityMaskFilter);}
	.st1{fill-rule:evenodd;clip-rule:evenodd;fill:#FFFFFF;}
	.st2{mask:url(#mask-2_1_);}
</style>
<defs>
	<filter id="Adobe_OpacityMaskFilter" filterUnits="userSpaceOnUse" x="0" y="0" width="580.6" height="366.7">
		<feColorMatrix  type="matrix" values="1 0 0 0 0  0 1 0 0 0  0 0 1 0 0  0 0 0 1 0"/>
	</filter>
</defs>
<mask maskUnits="userSpaceOnUse" x="0" y="0" width="580.6" height="366.7" id="mask-2_1_">
	<g class="st0">
		<polygon id="path-1_2_" class="st1" points="0.5,0 580.6,0 580.6,366.6 0.5,366.6 		"/>
	</g>
</mask>
<path class="st2" d="M436.9,8.4c-2.9-4.8-8.2-8.1-14.3-8.1c-9.2,0-16.7,7.5-16.7,16.8c0,4.9,2.1,9.3,5.4,12.4l125.9,153.4
	L412.7,333.4h-13.6h-40.2l117.7-137.6c0.1-0.1,0.1-0.2,0.2-0.3l0,0c3.3-3.6,4.7-7.9,4.7-12c0.1-4.2-1.4-8.4-4.7-12l0,0
	c-0.1-0.1-0.1-0.2-0.2-0.3L336,8.7c0,0-0.1-0.1-0.1-0.1c-2.9-4.9-8.3-8.2-14.4-8.2h-98.7c-9.2,0-16.7,7.5-16.7,16.8
	c0,2.8,0.4,5.7,1.9,7.8l130.8,159.2L227.4,318.5c-0.7,0.7-10.3,14.4-27.2,14.4H66.6c-18.1,0-33.1-14.2-33.1-33.1v-233
	c0-16.4,15-33.3,33.5-33.3h83.3c9.8,0,16.7-6.7,16.7-16.5c0-9.8-6.9-17.1-16.7-17.1L66.2,0.3C26.6,0.3,0,33.2,0,66.6v233.3
	c0,35.9,31.5,66.6,66.2,66.6h133.6c6.7,0,12.9-1,18.4-2.6c0.8-0.2,1.6-0.5,2.3-0.7c18.3-6,29.4-18.3,31.6-20.9l125.4-146.9
	c5.9-6.8,6.7-16.6,0.1-23.9l0,0c-0.1-0.1-0.1-0.2-0.2-0.3L258.7,33.6h41.2h13.6l124,149.9L307,341.7c0,0,0,0.2,0.2,0.4
	c-1.2,2.3-1.9,5-1.9,7.8c0,9.3,7.5,16.8,16.7,16.8h98.7c6.1,0,11.5-3.3,14.4-8.2c0,0,0.1-0.1,0.1-0.1l140.5-162.6
	c0.1-0.1,0.1-0.2,0.2-0.3l0,0c6.6-7.3,5.8-17.1-0.1-23.9L436.9,8.4z"/>
</svg>
