<?xml version="1.0" encoding="UTF-8"?>
<svg id="Laag_1" data-name="Laag 1" xmlns="http://www.w3.org/2000/svg" xmlns:xlink="http://www.w3.org/1999/xlink" viewBox="0 0 100 100">
  <defs>
    <style>
      .cls-1 {
        fill: none;
      }

      .cls-2 {
        fill: #a9ca49;
      }

      .cls-3 {
        clip-path: url(#clippath-1);
      }

      .cls-4 {
        clip-path: url(#clippath-2);
      }

      .cls-5 {
        fill: #fff;
      }

      .cls-6 {
        fill: #00aeea;
      }

      .cls-7 {
        clip-path: url(#clippath);
      }
    </style>
    <clipPath id="clippath">
      <rect class="cls-1" y="213.119" width="1040" height="256"/>
    </clipPath>
    <clipPath id="clippath-1">
      <rect class="cls-1" width="100" height="100" rx="11.542" ry="11.542"/>
    </clipPath>
    <clipPath id="clippath-2">
      <rect class="cls-1" width="100" height="73.919" rx="11.588" ry="11.588"/>
    </clipPath>
  </defs>
  <g class="cls-7">
    <image width="1254" height="836" transform="translate(-132.664 -190.438) scale(1.06)" xlink:href="../../../../../../Downloads/iStock-176834848.jpg"/>
  </g>
  <g>
    <rect class="cls-6" width="100" height="100" rx="11.542" ry="11.542"/>
    <g class="cls-3">
      <path class="cls-2" d="M61.531,55.916c-24.534,8.001-48.577,8.321-61.531,1.84v42.244h100V34.074c-8.145,8.401-21.688,16.402-38.469,21.842"/>
    </g>
    <g>
      <path class="cls-5" d="M19.155,72.355v-1.02h0l.136.272.136.272c.136.272.204.408.272.544l1.088,2.04h1.224v-3.673h-.68v3.06h0l-.136-.272-.136-.272c-.136-.204-.204-.408-.272-.612l-.952-1.904h-1.224v3.741h.68v-2.176h-.136Z"/>
      <path class="cls-5" d="M28.676,73.783l.204.748h.748l-1.224-3.741h-1.02l-1.224,3.741h.748l.204-.748h1.564ZM27.928,71.335l.612,1.904h-1.292l.68-1.904Z"/>
      <polygon class="cls-5" points="33.641 71.403 34.661 71.403 34.661 74.531 35.409 74.531 35.409 71.403 36.498 71.403 36.498 70.791 33.641 70.791 33.641 71.403"/>
      <rect class="cls-5" x="40.782" y="70.791" width=".68" height="3.741"/>
      <path class="cls-5" d="M47.447,74.531c.748,0,1.224-.136,1.428-.34.204-.204.272-.748.272-1.632,0-.748-.068-1.292-.272-1.496-.204-.204-.612-.34-1.292-.34-.748,0-1.224.136-1.428.34-.204.204-.272.816-.272,1.7,0,.748.068,1.224.272,1.428.204.272.612.34,1.292.34ZM46.699,71.539c.068-.136.34-.204.816-.204s.748.068.816.204c.068.136.136.476.136,1.088s-.068,1.02-.136,1.088c-.068.136-.34.204-.816.204s-.748-.068-.816-.136c-.068-.136-.136-.408-.136-.952,0-.748.068-1.156.136-1.292Z"/>
      <path class="cls-5" d="M54.248,72.355v-1.02h0l.136.272.136.272c.136.272.204.408.272.544l1.088,2.04h1.224v-3.673h-.68v3.06h0l-.136-.272-.136-.272c-.136-.204-.204-.408-.272-.612l-.952-1.904h-1.224v3.741h.68v-2.176h-.136Z"/>
      <path class="cls-5" d="M62.206,73.783h1.632l.204.748h.748l-1.224-3.741h-1.088l-1.224,3.741h.748l.204-.748ZM63.022,71.335l.612,1.904h-1.292l.68-1.904Z"/>
      <polygon class="cls-5" points="71.455 73.851 69.755 73.851 69.755 70.791 69.007 70.791 69.007 74.531 71.455 74.531 71.455 73.851"/>
      <polygon class="cls-5" points="78.256 73.919 76.352 73.919 76.352 72.899 78.12 72.899 78.12 72.355 76.352 72.355 76.352 71.403 78.188 71.403 78.188 70.791 75.672 70.791 75.672 74.531 78.256 74.531 78.256 73.919"/>
      <path class="cls-5" d="M21.943,81.196v1.292h2.312v.34c0,.748-.136,1.292-.408,1.496s-.884.34-1.768.34c-.952,0-1.564-.136-1.836-.34-.272-.272-.408-.816-.408-1.7v-2.04c0-.952.136-1.496.408-1.768s.884-.408,1.904-.408c.952,0,1.496.068,1.7.204.204.136.34.544.408,1.088h1.768c0-1.156-.204-1.972-.68-2.312s-1.496-.544-3.128-.544c-1.224,0-2.108.136-2.652.34s-.884.68-1.156,1.292c-.204.544-.34,1.768-.34,3.809,0,1.564.272,2.584.748,3.128.544.476,1.564.748,3.128.748,1.7,0,2.856-.204,3.333-.544.476-.408.748-1.224.748-2.584v-1.836h-4.081Z"/>
      <path class="cls-5" d="M31.329,76.843c-1.836,0-3.06.272-3.537.816-.476.544-.748,1.904-.748,4.081,0,1.836.272,2.992.748,3.537s1.564.816,3.197.816c1.836,0,2.992-.272,3.469-.816s.748-1.836.748-3.945c0-1.904-.272-3.128-.748-3.673-.408-.544-1.496-.816-3.128-.816ZM33.165,84.189c-.204.272-.884.476-1.904.476-1.156,0-1.836-.136-2.04-.408-.204-.272-.34-1.088-.34-2.38,0-1.768.068-2.788.272-3.128.204-.272.884-.476,2.04-.476s1.768.136,1.972.408.34,1.156.34,2.72-.136,2.516-.34,2.788Z"/>
      <polygon class="cls-5" points="38.47 76.911 36.77 76.911 36.77 86.025 42.755 86.025 42.755 84.461 38.47 84.461 38.47 76.911"/>
      <polygon class="cls-5" points="45.747 82.284 49.828 82.284 49.828 80.856 45.747 80.856 45.747 78.34 50.032 78.34 50.032 76.911 43.979 76.911 43.979 86.025 45.747 86.025 45.747 82.284"/>
      <path class="cls-5" d="M58.261,85.481c.408-.408.612-1.02.612-1.972,0-1.292-.544-2.04-1.564-2.176h0c.884-.204,1.36-.884,1.36-1.972,0-.952-.204-1.564-.544-1.904-.408-.34-1.088-.476-2.176-.476h-4.489v9.113h4.761c.952-.068,1.632-.204,2.04-.612ZM53.16,78.34h2.448c.816,0,1.224.34,1.224,1.088,0,.544-.068.884-.272,1.02-.204.136-.612.204-1.292.204h-2.108v-2.312h0ZM55.064,84.597h-1.904v-2.584h2.244c.748,0,1.224.068,1.428.204s.272.476.272,1.02-.068.884-.272,1.02c-.204.136-.544.272-1.156.272l-.612.068Z"/>
      <path class="cls-5" d="M64.246,76.843c-1.836,0-3.06.272-3.537.816-.476.544-.748,1.904-.748,4.081,0,1.836.272,2.992.748,3.537.476.544,1.564.816,3.197.816,1.836,0,2.992-.272,3.469-.816.476-.544.748-1.836.748-3.945,0-1.904-.204-3.128-.748-3.673-.408-.544-1.428-.816-3.128-.816ZM66.082,84.189c-.204.272-.884.476-1.904.476-1.156,0-1.768-.136-2.04-.408-.204-.272-.34-1.088-.34-2.38,0-1.768.068-2.788.272-3.128.204-.272.884-.476,2.04-.476s1.768.136,1.972.408c.204.272.272,1.156.272,2.72.068,1.564-.068,2.516-.272,2.788Z"/>
      <path class="cls-5" d="M69.687,86.025h1.768v-7.685h.068l.272.68.272.68c.272.612.476,1.088.612,1.292l2.584,5.033h2.924v-9.113h-1.768v7.617h-.068l-.34-.748-.34-.748c-.272-.612-.544-1.088-.748-1.496l-2.38-4.625h-2.924v9.113h.068Z"/>
      <path class="cls-5" d="M47.311,91.806c0,.136-.068.272-.068.408l-.068.204-.068.204h0l-.068-.204-.068-.204c0-.068-.068-.204-.068-.408l-.272-1.02h-.68l-.272,1.02c-.068.204-.068.34-.068.408l-.068.204-.068.204h0l-.068-.204-.068-.204c0-.136-.068-.272-.068-.408l-.204-1.02h-.544l.476,2.244h.816l.204-1.02c.068-.204.068-.272.068-.408l.068-.204.068-.204h0l.068.204.068.204c0,.068.068.204.068.408l.204,1.02h.816l.476-2.244h-.544l-.068,1.02Z"/>
      <path class="cls-5" d="M50.916,91.806c0,.136-.068.272-.068.408l-.068.204-.068.204h0l-.068-.204-.068-.204c0-.068-.068-.204-.068-.408l-.272-1.02h-.68l-.272,1.02c-.068.204-.068.34-.068.408l-.068.204-.068.204h0l-.068-.204-.068-.204c0-.136-.068-.272-.068-.408l-.204-1.02h-.544l.476,2.244h.816l.204-1.02c.068-.204.068-.272.068-.408l.068-.204.068-.204h0l.068.204.068.204c0,.068.068.204.068.408l.204,1.02h.816l.476-2.244h-.34l-.272,1.02Z"/>
      <path class="cls-5" d="M54.588,91.806c0,.136-.068.272-.068.408l-.068.204-.068.204h0l-.068-.204-.068-.204c0-.068-.068-.204-.068-.408l-.272-1.02h-.68l-.272,1.02c-.068.204-.068.34-.068.408l-.068.204-.068.204h0l-.068-.204-.068-.204c0-.136-.068-.272-.068-.408l-.204-1.02h-.544l.476,2.244h.816l.204-1.02c.068-.204.068-.272.068-.408l.068-.204.068-.204h0l.068.204.068.204c0,.068.068.204.068.408l.204,1.02h.816l.476-2.244h-.544l-.068,1.02Z"/>
      <rect class="cls-5" x="55.813" y="92.418" width=".544" height=".544"/>
      <path class="cls-5" d="M58.533,91.126h0c-.136-.272-.34-.408-.68-.408s-.544.068-.68.272c-.136.136-.204.476-.204.884,0,.476.068.748.204.884s.34.272.68.272.544-.136.68-.34h0v.476c0,.272-.136.408-.476.408-.204,0-.34,0-.34-.068-.068-.068-.068-.136-.068-.272h-.544c0,.272.068.476.204.612s.408.136.748.136c.408,0,.68-.068.816-.204s.204-.408.204-.748v-2.244h-.544v.34ZM58.397,92.418c-.068.068-.204.136-.408.136s-.34-.068-.408-.136c-.068-.068-.068-.272-.068-.612,0-.272,0-.476.068-.544s.204-.136.408-.136.34.068.408.136c.068.068.068.272.068.544.068.34,0,.544-.068.612Z"/>
      <path class="cls-5" d="M60.777,90.718c-.476,0-.748.068-.884.204s-.204.476-.204.884c0,.476.068.816.204.952s.408.204.884.204c.408,0,.68-.068.816-.204s.204-.476.204-.952c0-.408-.068-.748-.204-.884-.068-.136-.34-.204-.816-.204ZM61.185,92.486c-.068.068-.204.136-.408.136s-.408-.068-.408-.136c-.068-.068-.068-.272-.068-.612,0-.272,0-.476.068-.544s.204-.136.408-.136.34.068.408.136c.068.068.068.272.068.544.068.272,0,.476-.068.612Z"/>
      <rect class="cls-5" x="62.546" y="89.834" width=".544" height="3.197"/>
      <path class="cls-5" d="M64.45,90.514c0-.204.136-.34.34-.34h.204v-.408h-.204c-.34,0-.544.068-.68.136-.136.136-.204.272-.204.612v.204h-.34v.408h.34v1.836h.544v-1.768h.544v-.408h-.544v-.272Z"/>
      <path class="cls-5" d="M66.762,90.718c-.34,0-.612.136-.68.34h0v-1.224h-.544v3.197h.544v-.34h0c.136.272.34.408.68.408s.544-.068.68-.272c.136-.136.204-.476.204-.952,0-.408-.068-.68-.204-.884-.136-.204-.34-.272-.68-.272ZM66.966,92.486c-.068.068-.204.136-.408.136s-.34-.068-.408-.136c-.068-.068-.068-.34-.068-.68,0-.408.204-.612.544-.612.204,0,.34.068.408.136.068.068.068.272.068.544s-.068.476-.136.612Z"/>
      <path class="cls-5" d="M69.279,90.718c-.408,0-.748.068-.884.204s-.204.476-.204.884c0,.476.068.816.204.952s.408.204.884.204c.408,0,.68-.068.816-.204s.204-.476.204-.952c0-.408-.068-.748-.204-.884-.136-.136-.408-.204-.816-.204ZM69.687,92.486c-.068.068-.204.136-.408.136s-.408-.068-.408-.136c-.068-.068-.068-.272-.068-.612,0-.272,0-.476.068-.544s.204-.136.408-.136.34.068.408.136c.068.068.068.272.068.544s0,.476-.068.612Z"/>
      <path class="cls-5" d="M72.203,90.718c-.34,0-.612.136-.68.408h0v-.408h-.544v2.244h.544v-1.292c0-.34.204-.476.544-.476.204,0,.34.068.408.272v1.564h.544v-1.496c0-.544-.272-.816-.816-.816Z"/>
      <rect class="cls-5" x="73.767" y="92.418" width=".544" height=".544"/>
      <path class="cls-5" d="M76.216,90.718c-.34,0-.612.136-.68.408h0v-.408h-.544v2.244h.544v-1.292c0-.34.204-.476.544-.476.204,0,.34.068.408.272v1.564h.544v-1.496c0-.544-.272-.816-.816-.816Z"/>
      <rect class="cls-5" x="77.78" y="89.834" width=".544" height="3.197"/>
      <path class="cls-5" d="M80.772,78.544h0c.204-.068.34-.204.34-.408,0-.136-.068-.272-.136-.34-.068-.068-.272-.136-.544-.136-.204,0-.34,0-.476.068v1.632h.272v-.68h.204c.204,0,.34.068.34.272s.068.34.136.408h.272c0-.068-.068-.136-.136-.408,0-.272-.136-.408-.272-.408ZM80.432,78.408h-.204v-.544h.204c.272,0,.408.136.408.272,0,.204-.204.272-.408.272Z"/>
      <path class="cls-5" d="M80.5,76.979h0c-.816,0-1.496.68-1.496,1.496s.68,1.496,1.496,1.496,1.428-.68,1.428-1.496c.068-.816-.612-1.496-1.428-1.496ZM80.5,79.7c-.68,0-1.156-.544-1.156-1.224s.544-1.224,1.156-1.224h0c.68,0,1.156.544,1.156,1.224.068.68-.476,1.224-1.156,1.224Z"/>
    </g>
    <g class="cls-4">
      <g>
        <path class="cls-5" d="M0,19.167v3.386C4.809,17.354,31.6-7.599,100-6.32v-10.477C85.888-15.2,22.263-6.9,0,19.167Z"/>
        <path class="cls-5" d="M65.751,50.146c-27.576,8.958-54.76,7.118-61.923-4.079,4.023.72,11.089-.24,18.449-2.879,10.304-3.679,17.37-9.038,15.8-11.997-1.57-2.959-11.187-2.399-21.492,1.2-6.771,2.399-12.071,5.439-14.524,8.158C1.472,29.511,16.585,15.915,39.45,7.517c21.197-5.439,40.53-3.279,45.535,5.918,5.496,9.837-7.556,24.394-29.441,33.671,1.668-.48,3.337-1.04,5.005-1.68,24.828-9.118,40.236-25.034,34.347-35.671-5.888-10.557-30.716-11.837-55.545-2.799-1.079.4-2.061.8-3.14,1.2C20.707,13.355,8.047,20.714,0,28.392v29.473c12.954,6.478,36.997,7.318,61.531-.68,16.781-5.519,30.324-13.517,38.469-21.834v-4.559c-7.262,7.358-19.333,14.476-34.249,19.355Z"/>
      </g>
    </g>
  </g>
</svg>