<svg id="Laag_1" data-name="Laag 1" xmlns="http://www.w3.org/2000/svg" viewBox="0 0 100 100"><defs><style>.cls-1{fill:#fff;}.cls-2{fill:#a4a4a3;}.cls-3{fill:#27bced;}.cls-4{fill:#204866;}</style></defs><rect class="cls-1" x="0.5" y="0.5" width="99" height="99" rx="9.87"/><path class="cls-2" d="M89.63,1A9.38,9.38,0,0,1,99,10.37V89.63A9.38,9.38,0,0,1,89.63,99H10.37A9.38,9.38,0,0,1,1,89.63V10.37A9.38,9.38,0,0,1,10.37,1H89.63m0-1H10.37A10.41,10.41,0,0,0,0,10.37V89.63A10.41,10.41,0,0,0,10.37,100H89.63A10.41,10.41,0,0,0,100,89.63V10.37A10.41,10.41,0,0,0,89.63,0Z"/><path class="cls-3" d="M56.3,60.61a3.64,3.64,0,0,0,.5-1.24L52.5,48.13s-.77-2.18.94-2.82A2,2,0,0,1,56,46.73c.15.36,2.72,7.23,2.72,7.23l2.48-7.22s.72-2.24,2.7-1.43c1.64.66.79,2.86.79,2.86s-2.54,7.51-4.68,13c-1.27,3.26-2.35,3.58-3.59,3.89-1.66.41-4.81.2-4.81-1.85,0-1.64,1.68-1.73,2.43-1.71.07,0,1.62.14,2.22-.85"/><path class="cls-3" d="M46.31,41.73,42.39,52.57,38.11,41.78s-.63-2-2.43-2a1.86,1.86,0,0,0-2,2c-.05.4,0,16.85,0,16.85a1.73,1.73,0,0,0,1.87,1.73,1.69,1.69,0,0,0,1.87-1.74s0-8.69,0-8.69l3.15,8.69s.47,1.7,1.93,1.67,1.87-1.67,1.87-1.67L47,50v8.67a1.76,1.76,0,0,0,1.91,1.74,1.74,1.74,0,0,0,1.85-1.74V41.8a2,2,0,0,0-2-2,2.7,2.7,0,0,0-2.39,2,.14.14,0,0,0,0,.07"/><path class="cls-3" d="M81.45,67h-14l0,0a26.24,26.24,0,1,1,0-34h5.27a30.48,30.48,0,1,0-3,37.66H81.45Z"/><path class="cls-4" d="M80.81,49.32a4.8,4.8,0,0,0,1.26-3.91c-.2-5.52-5-5.46-6.06-5.48-1.71-.06-2.74,0-5.88,0a2.42,2.42,0,0,0-2.63,2.43v18h8.94c4.78,0,6.56-2.63,6.56-6.31s-2.19-4.73-2.19-4.73m-9.46-5.58h5a1.91,1.91,0,0,1,2,2,1.81,1.81,0,0,1-2,2h-5Zm5.29,12.95H71.35v-5h5.29a2.38,2.38,0,0,1,2.52,2.51,2.29,2.29,0,0,1-2.52,2.54"/></svg>