<?xml version="1.0" encoding="utf-8"?>
<!-- Generator: Adobe Illustrator 25.4.0, SVG Export Plug-In . SVG Version: 6.00 Build 0)  -->
<svg version="1.1" id="Laag_1" xmlns="http://www.w3.org/2000/svg" xmlns:xlink="http://www.w3.org/1999/xlink" x="0px" y="0px"
	 viewBox="0 0 100 100" style="enable-background:new 0 0 100 100;" xml:space="preserve">
<style type="text/css">
	.st0{fill:#C40D18;}
	.st1{fill:#FFFFFF;}
</style>
<path class="st0" d="M89.6,100H10.4C4.7,100,0,95.3,0,89.6V10.4C0,4.7,4.7,0,10.4,0h79.3C95.3,0,100,4.7,100,10.4v79.3
	C100,95.3,95.3,100,89.6,100z"/>
<g>
	<path class="st1" d="M34.4,26.2c-13,0.1-23.6,10.7-23.5,23.7c0,12.7,10.2,23.2,22.9,23.5l31.8,0.4c13,0.4,23.9-9.9,24.3-22.9
		S80,27,67,26.6c-0.3,0-0.5,0-0.8,0L34.4,26.2z"/>
	<path class="st1" d="M65.6,74.3l-31.8-0.4C20.5,73.5,10,62.4,10.4,49.1c0.4-13,11-23.4,24-23.4l31.8,0.4
		C79.5,26.5,90,37.6,89.6,50.9C89.2,63.9,78.6,74.2,65.6,74.3 M34.4,26.2c-13,0.1-23.6,10.7-23.5,23.7c0,12.7,10.2,23.2,22.9,23.5
		l31.8,0.4c13,0.4,23.9-9.9,24.3-22.9S80,27,67,26.6c-0.3,0-0.5,0-0.8,0L34.4,26.2z"/>
	<path class="st0" d="M71.5,48.8l10.4,12.7c4.9-6.8,4.8-16-0.1-22.8L71.5,48.8z"/>
	<path class="st0" d="M41.7,37.2c7.9,0.1,13.8,2.2,14.4,8.8l8.4-8.6L81,37.7c-3.7-4.4-9.1-7-14.8-7.1l-31.8-0.4
		c-5.7-0.1-11.2,2.4-15,6.7L41.7,37.2z"/>
	<path class="st0" d="M28.5,45.4l-2.9,7.7L37,53.3c3.4,0,4.4-1.3,5.2-4s-1.1-3.7-3.4-3.7L28.5,45.4z"/>
	<path class="st0" d="M64.2,62.4l-8.7-11.2c-1.7,7.6-7.1,11-17.1,10.9l-19.9-0.3c3.7,4.7,9.3,7.5,15.3,7.6l31.8,0.4
		c6,0.1,11.7-2.6,15.4-7.2L64.2,62.4z"/>
</g>
</svg>
