<svg id="Laag_1" data-name="Laag 1" xmlns="http://www.w3.org/2000/svg" viewBox="0 0 100 100"><defs><style>.cls-1{fill:#fff;}.cls-2{fill:#a8a8a7;}.cls-3{fill:#d66965;}.cls-4{fill:#006e84;}</style></defs><rect class="cls-1" x="0.5" y="0.5" width="99" height="99" rx="9.87"/><path class="cls-2" d="M89.63,1A9.38,9.38,0,0,1,99,10.37V89.63A9.38,9.38,0,0,1,89.63,99H10.37A9.38,9.38,0,0,1,1,89.63V10.37A9.38,9.38,0,0,1,10.37,1H89.63m0-1H10.37A10.41,10.41,0,0,0,0,10.37V89.63A10.41,10.41,0,0,0,10.37,100H89.63A10.41,10.41,0,0,0,100,89.63V10.37A10.41,10.41,0,0,0,89.63,0Z"/><path class="cls-3" d="M57.55,63.31a.82.82,0,0,1-.35-.39l-2.54-7.18a1.29,1.29,0,0,0-.48-.56,1.09,1.09,0,0,0-.69-.18l-6,.46a.59.59,0,0,1-.47-.14.55.55,0,0,1-.21-.4l-.24-3a.65.65,0,0,1,.15-.45.61.61,0,0,1,.43-.24l4.74-.36a.73.73,0,0,0,.55-.3.6.6,0,0,0,0-.62L49.71,42a1,1,0,0,0-.44-.52,1.11,1.11,0,0,0-.69-.18l-.28,0a1,1,0,0,0-.61.29,1,1,0,0,0-.35.58l-1.05,5.4A.6.6,0,0,1,46,48a.62.62,0,0,1-.49.08l-3.77-.62a.51.51,0,0,1-.4-.24.58.58,0,0,1-.1-.47L43,37.45a.88.88,0,0,1,.3-.46.78.78,0,0,1,.48-.24l8.48-.66a.93.93,0,0,1,.52.14.85.85,0,0,1,.39.38l9.32,25.94v.08a.43.43,0,0,1-.44.51l-4,.31A.85.85,0,0,1,57.55,63.31Z"/><path class="cls-4" d="M83.83,63.16,81.38,31.77A7.36,7.36,0,0,0,73.5,25L22.91,29a7.35,7.35,0,0,0-6.74,7.89l2.45,31.38A7.34,7.34,0,0,0,25.92,75l.58,0L77.09,71A7.35,7.35,0,0,0,83.83,63.16Zm-7,4.57-50.59,4A4,4,0,0,1,21.92,68L19.47,36.59a4,4,0,0,1,.77-2.68l1,12.18.36,0,.89-.07-1-12.47-.06-.69a3.94,3.94,0,0,1,1.64-.55l.09,1.11.74,9.51,3.26-.25-.75-9.51L26.31,32l1.63-.13L28,33,29.37,50.3l2.91-.22L30.93,32.79l-.09-1.12,1.23-.1.09,1.12L33,43.53l.42,0-.84-10.84-.09-1.12,1.23-.1.08,1.12,1,12.64,1.66-.13-1-12.64-.09-1.12,2.31-.18.09,1.12,1,12.64.7,0L41,37a2.83,2.83,0,0,1,.5-1.05l-.31-4-.09-1.12,2.06-.16.09,1.12.23,2.93.17,0,1.09-.08-.23-2.93-.09-1.12L46,30.48l.09,1.12.22,2.92,3.27-.25-.23-2.92-.09-1.12,2.06-.16.09,1.12.22,2.92.42,0a2.66,2.66,0,0,1,.69,0l-.24-3L52.45,30l1.75-.14L54.28,31l.33,4.17a2.76,2.76,0,0,1,.47.73l0,.11,2.67,7.43.56,0-1-12.64-.09-1.11,1-.08.09,1.12.85,10.87,1-.08-.85-10.87-.08-1.12,1.34-.1.09,1.11.8,10.19.42,0-.8-10.19-.08-1.12,1.35-.1.08,1.12,1,12.64,2.13-.17-1-12.64L64.55,29l1.66-.13L66.3,30l.88,11.29.42,0L66.73,30l-.09-1.12,2-.16.08,1.12.85,10.88,1-.08-.85-10.88-.08-1.11,2-.16.09,1.11,1.35,17.3,3.43-.26-1.35-17.3-.07-.89a4,4,0,0,1,1.59.83l.17.16.78,10.15.42,0L77.32,30a3.91,3.91,0,0,1,.76,2l2.45,31.39A4,4,0,0,1,76.83,67.73Z"/></svg>