<?xml version="1.0" encoding="utf-8"?>
<!-- Generator: Adobe Illustrator 28.1.0, SVG Export Plug-In . SVG Version: 6.00 Build 0)  -->
<svg version="1.1" id="Laag_1" xmlns="http://www.w3.org/2000/svg" xmlns:xlink="http://www.w3.org/1999/xlink" x="0px" y="0px"
	 viewBox="0 0 100 100" style="enable-background:new 0 0 100 100;" xml:space="preserve">
<style type="text/css">
	.st0{fill:#FFFFFF;}
	.st1{fill:#E3E3E3;}
	.st2{fill:#FEFEFE;}
	.st3{fill:#4F61DC;}
	.st4{fill:#FD1BCB;}
	.st5{fill:#4F08B0;}
</style>
<path class="st0" d="M96.4,96.4c-1.7,1.7-4,2.6-6.4,2.6H10c-5,0-9-4-9-9V10.1c0-5,4-9,9-9h80c5,0,9,4,9,9V90
	C99,92.4,98.1,94.7,96.4,96.4"/>
<g>
	<path class="st1" d="M90,0.1H10c-5.5,0-10,4.5-10,10V90c0,5.5,4.5,10,10,10h80c5.5,0,10-4.5,10-10V10.1C100,4.6,95.5,0.1,90,0.1z
		 M99.5,90c0,2.5-1,4.9-2.8,6.7s-4.2,2.8-6.7,2.8H10c-5.2,0-9.5-4.3-9.5-9.5V10.1c0-5.2,4.3-9.5,9.5-9.5h80c5.2,0,9.5,4.3,9.5,9.5
		V90z"/>
	<path class="st1" d="M90,0.6H10c-5.2,0-9.5,4.3-9.5,9.5V90c0,5.2,4.3,9.5,9.5,9.5h80c2.5,0,4.9-1,6.7-2.8s2.8-4.2,2.8-6.7V10.1
		C99.5,4.9,95.2,0.6,90,0.6z M99,90c0,2.4-0.9,4.7-2.6,6.4c-1.7,1.7-4,2.6-6.4,2.6H10c-5,0-9-4-9-9V10.1c0-5,4-9,9-9h80c5,0,9,4,9,9
		V90z"/>
	<path class="st2" d="M63.3,81.3c0.1,0,0.1,0,0.2,0c0.3,0,0.6-0.1,0.8-0.2c-0.3,0.1-0.6,0.2-0.8,0.2C63.5,81.3,63.4,81.3,63.3,81.3z
		"/>
	<g>
		<path class="st3" d="M53.7,20.3l19.7,19.7c2.1,2.1,2.1,5.4,0,7.5L41,79.7c-2.1,2.1-5.4,2.1-7.5,0L13.9,60.1
			c-2.1-2.1-2.1-5.4,0-7.5l32.3-32.3C48.3,18.2,51.6,18.2,53.7,20.3z"/>
		<g>
			<path class="st4" d="M52,19.1c0,0,0.1,0,0.1,0.1C52.1,19.1,52,19.1,52,19.1z"/>
			<path class="st4" d="M51.1,18.8C51.1,18.8,51.1,18.8,51.1,18.8C51.1,18.8,51.1,18.8,51.1,18.8z"/>
			<path class="st4" d="M26.7,47.4c-1.1-1.1-1.6-2.6-1.5-4.1C25.1,44.8,25.6,46.3,26.7,47.4L46.3,67L26.7,47.4z"/>
			<path class="st4" d="M73.3,39.9c2.1,2.1,2,5.4,0,7.4L50,70.8l9,9c2.1,2.1,5.4,2.1,7.5,0l19.7-19.7c2.1-2.1,2.1-5.4,0-7.5"/>
		</g>
		<path class="st5" d="M53.7,20.1C52.9,19.4,52,19,51,18.8c-1.6-0.3-3.4,0.1-4.7,1.4L26.7,39.8c-2.1,2.1-2,5.5,0,7.6L50,70.8
			l23.3-23.4c2.1-2.1,2.1-5.5,0-7.5L53.7,20.1z"/>
	</g>
</g>
</svg>
