<svg id="Laag_1" data-name="Laag 1" xmlns="http://www.w3.org/2000/svg" viewBox="0 0 100 100"><defs><style>.cls-1{fill:#1c3b6c;}.cls-2{fill:#fff;}.cls-3{fill:#003163;}</style></defs><rect class="cls-1" width="100" height="100" rx="10.37"/><rect class="cls-2" x="46.97" y="19.39" width="40.55" height="59.32" rx="4.06"/><rect class="cls-3" x="51.87" y="26.25" width="30.72" height="20.44" rx="2.11"/><rect class="cls-3" x="52.49" y="51.91" width="7.48" height="4.88" rx="0.51"/><rect class="cls-3" x="63.49" y="51.91" width="7.48" height="4.88" rx="0.51"/><rect class="cls-3" x="74.5" y="51.91" width="7.48" height="4.88" rx="0.51"/><rect class="cls-3" x="52.49" y="59.88" width="7.48" height="4.88" rx="0.51"/><rect class="cls-3" x="63.49" y="59.88" width="7.48" height="4.88" rx="0.51"/><rect class="cls-3" x="74.5" y="59.88" width="7.48" height="4.88" rx="0.51"/><rect class="cls-3" x="52.51" y="67.86" width="7.48" height="4.88" rx="0.51"/><rect class="cls-3" x="63.51" y="67.86" width="7.48" height="4.88" rx="0.51"/><rect class="cls-3" x="74.52" y="67.86" width="7.48" height="4.88" rx="0.51"/><path class="cls-2" d="M48.56,56.09A5.1,5.1,0,0,1,44.28,60a5.34,5.34,0,0,1-.69.05h-6c-.39,0-.51-.13-.46-.52l.24-2.11a.35.35,0,0,1,.37-.34h.62c.33,0,.46-.14.46-.46v-30a.5.5,0,0,0-.05-.3.65.65,0,0,0-.28-.2s-.11,0-.17,0H27.21a2.08,2.08,0,0,0-2.13,1.81,1.18,1.18,0,0,0,0,.26V55.33A1.74,1.74,0,0,0,26.19,57a.3.3,0,0,0,.29,0,5.18,5.18,0,0,0,1.13-1.16A17.58,17.58,0,0,0,29.24,53a2.85,2.85,0,0,0,.12-.66,15.69,15.69,0,0,1,1.29-4.6,5.24,5.24,0,0,1,1.61-2.09,2.83,2.83,0,0,1,2-.54,1.15,1.15,0,0,1,.76.44,2.94,2.94,0,0,1,.65,1.5,9.54,9.54,0,0,1,0,3,31.49,31.49,0,0,1-.83,3.83,9.25,9.25,0,0,0-.19,1.4c-.15,1.25-.29,2.5-.44,3.75s-.3,2.52-.43,3.79a10,10,0,0,1-.62,2.4,21,21,0,0,1-3.2,6c-.25.32-.53.62-.79.94a.68.68,0,0,0-.13.33c0,.26,0,.52,0,.8h.34a1.27,1.27,0,0,1,1.26,1.26v3.4a1.25,1.25,0,0,1-1.25,1.24q-6.83,0-13.67,0a1.26,1.26,0,0,1-1.24-1.23v-3.4a1.28,1.28,0,0,1,1.1-1.23l.22,0c-.07-.56-.12-1.11-.18-1.65-.15-1.25-.29-2.5-.44-3.75s-.3-2.53-.47-3.79-.34-2.66-.54-4a53.07,53.07,0,0,0-1-5.74c-.07-.26-.22-.49-.3-.75a5.22,5.22,0,0,1-.2-.87,5.9,5.9,0,0,1,.18-2.86,4,4,0,0,1,1.15-1.67c.54-.48,1-1,1.52-1.52,1.35-1.4,2.69-2.82,4.05-4.21.8-.81,1.63-1.59,2.45-2.4a.38.38,0,0,0,.08-.24q0-5.57,0-11.14a5.12,5.12,0,0,1,4.43-5.14,4,4,0,0,1,.69-.05H43.92a4.77,4.77,0,0,1,4.74,4.24l0,.09V55.4C48.65,55.63,48.61,55.86,48.56,56.09Zm-5.21.54c0,.37.1.46.47.44a2.07,2.07,0,0,0,1.89-2V28.2a2.06,2.06,0,0,0-2-2.11c-.27,0-.4.12-.4.41V56.63Z"/></svg>