<svg id="Laag_1" data-name="Laag 1" xmlns="http://www.w3.org/2000/svg" xmlns:xlink="http://www.w3.org/1999/xlink" viewBox="0 0 100 100"><defs><style>.cls-1{fill:none;}.cls-2{clip-path:url(#clip-path);}.cls-3{fill:#313f92;}.cls-4{fill:#fff;}</style><clipPath id="clip-path"><rect class="cls-1" x="120" y="-121.07" width="100" height="100" rx="10.37"/></clipPath></defs><rect class="cls-3" width="100" height="100" rx="10.37"/><rect class="cls-4" x="82.05" y="39.36" width="5.45" height="21.37"/><path class="cls-4" d="M23,38.76A38.36,38.36,0,0,0,12.5,40.55V60.81h5.62V44.3a13.38,13.38,0,0,1,4.94-.86c3.66,0,5.1,2,5.1,5V60.73H33.7V48.47c0-6.56-3.07-9.71-10.73-9.71"/><path class="cls-4" d="M80.52,39.36H73.79l-5.1,6.3L66,42.08a7.5,7.5,0,0,0-5.87-2.81H56.77L65.2,49.91,56.51,60.73h6.64l5.45-6.64L71.75,58a7.42,7.42,0,0,0,5.87,2.73h3.24l-8.77-11Z"/><path class="cls-4" d="M46.89,43.36c2.47,0,4.51,1.11,5.28,3.06l-11.07,2a5.7,5.7,0,0,1,5.79-5M57.45,56.64l-3.66-3a8.16,8.16,0,0,1-6.39,3,6.23,6.23,0,0,1-5.87-3.75L58,50A11.16,11.16,0,0,0,57,45.49a11,11,0,0,0-10.3-6.81c-6.3,0-11.15,4.51-11.15,11.32,0,6.64,4.77,11.32,11.75,11.32a12.21,12.21,0,0,0,10.13-4.68"/></svg>