<?xml version="1.0" encoding="utf-8"?>
<!-- Generator: Adobe Illustrator 25.4.0, SVG Export Plug-In . SVG Version: 6.00 Build 0)  -->
<svg version="1.1" id="Laag_1" xmlns="http://www.w3.org/2000/svg" xmlns:xlink="http://www.w3.org/1999/xlink" x="0px" y="0px"
	 viewBox="0 0 100 100" style="enable-background:new 0 0 100 100;" xml:space="preserve">
<style type="text/css">
	.st0{fill:#FFFFFF;}
	.st1{clip-path:url(#SVGID_00000048461728098751597650000015437295454408290459_);}
	.st2{fill:#008ED7;}
</style>
<path class="st0" d="M10.4,0h79.3C95.4,0,100,4.6,100,10.4v79.3c0,5.7-4.6,10.4-10.4,10.4H10.4C4.6,100,0,95.4,0,89.6V10.4
	C0,4.6,4.6,0,10.4,0z"/>
<g>
	<defs>
		<path id="SVGID_1_" d="M10.4,0h79.3C95.4,0,100,4.6,100,10.4v79.3c0,5.7-4.6,10.4-10.4,10.4H10.4C4.6,100,0,95.4,0,89.6V10.4
			C0,4.6,4.6,0,10.4,0z"/>
	</defs>
	<clipPath id="SVGID_00000032625730340073792830000003135255773874031030_">
		<use xlink:href="#SVGID_1_"  style="overflow:visible;"/>
	</clipPath>
	<g style="clip-path:url(#SVGID_00000032625730340073792830000003135255773874031030_);">
		<path class="st2" d="M85-0.6H21.3c-8.3,0-22-0.8-22,7.5v85.6c0,8.4,11.7,8.7,20,8.7h65.6c8.4,0,15.1,0.7,15.1-7.5V80.2
			c0,0-24.2-10.1-36.5-16.1c-8.3,10-18.9,16.2-29.8,16.2c-18.6,0-25-16.3-16.2-27c2.7-3,6.3-5,10.2-5.8c7.9-2,20.6,1.2,32.4,5.1
			c2.2-4.1,3.9-8.4,5.2-12.9H28.8V36h18.9v-6.7H25v-3.6h22.8v-9.5c0-0.9,0.7-1.6,1.5-1.6c0,0,0,0,0.1,0h9.2v11.1h22.5v3.6H58.6V36
			H77c-1.6,6.9-4.2,13.6-7.8,19.7c5.6,2.1,10.6,3.9,14.3,5.2C97,65.4,100,65.7,100,65.7V9C100,0.7,93.3-0.6,85-0.6z"/>
		<path class="st2" d="M26.4,54.6c-6,5-2.4,14.2,9.7,14.2c7,0,14-4.3,19.5-11.2C47.8,53.9,41.1,51.3,34,52
			C32,52.1,28.4,52.9,26.4,54.6z"/>
	</g>
</g>
</svg>
