<svg id="Laag_1" data-name="Laag 1" xmlns="http://www.w3.org/2000/svg" xmlns:xlink="http://www.w3.org/1999/xlink" viewBox="0 0 100 100"><defs><style>.cls-1{fill:none;clip-rule:evenodd;}.cls-2{fill:#424184;}.cls-3{fill:url(#Naamloos_verloop_90);}.cls-4{fill:#53beb8;}.cls-4,.cls-7{fill-rule:evenodd;}.cls-5{clip-path:url(#clip-path);}.cls-6{fill:url(#Naamloos_verloop_84);}.cls-7{fill:#fafdfa;}</style><linearGradient id="Naamloos_verloop_90" x1="41.1" y1="49.53" x2="79.14" y2="87.58" gradientUnits="userSpaceOnUse"><stop offset="0.22" stop-color="#393671"/><stop offset="1" stop-color="#313f92" stop-opacity="0"/></linearGradient><clipPath id="clip-path"><path class="cls-1" d="M51.55,21a29,29,0,0,0-29,29.05,28.37,28.37,0,0,0,4.07,14.74v.86c0,9.84-7.23,13-7.23,13S29.61,78.78,35,74c0,0,.11-.07.18-.07s.13.07.18.07h0a26.3,26.3,0,0,0,16.16,5,29,29,0,1,0,0-58"/></clipPath><linearGradient id="Naamloos_verloop_84" x1="43.67" y1="40.5" x2="79.29" y2="76.12" gradientUnits="userSpaceOnUse"><stop offset="0" stop-color="#379189"/><stop offset="1" stop-color="#2580a1" stop-opacity="0"/></linearGradient></defs><rect class="cls-2" width="100" height="100" rx="10.37"/><polyline class="cls-3" points="69.03 87.94 104.64 62.08 73.63 31.85 43.95 46.68 19.57 79 30.11 89.49"/><path class="cls-4" d="M51.55,21a29,29,0,0,0-29,29.05,28.37,28.37,0,0,0,4.07,14.74v.86c0,9.84-7.23,13-7.23,13S29.61,78.78,35,74c0,0,.11-.07.18-.07s.13.07.18.07h0a26.3,26.3,0,0,0,16.16,5,29,29,0,1,0,0-58"/><g class="cls-5"><polygon class="cls-6" points="40.59 58.26 66.66 84.19 89.71 65.71 58.7 35.48 42.76 41.41 40.59 58.26"/></g><path class="cls-7" d="M37.76,53.49c-1.14,0-1.69-.51-1.69-1.65,0-1,.55-1.56,1.69-1.56h0v-.8c0-.46,0-1,.05-1.47h-.09c-1.14,0-1.69-.51-1.69-1.64,0-1,.55-1.56,1.69-1.56h.55a14.52,14.52,0,0,1,3.63-6.67,14,14,0,0,1,10.62-4.47,13,13,0,0,1,6.54,1.56c1.9,1,2.83,2.22,2.87,3.63,0,1.81-1.14,3.45-2.78,3.49a5.05,5.05,0,0,1-2.79-.93,6.92,6.92,0,0,0-3.79-1,7.11,7.11,0,0,0-5.7,2.49,9.13,9.13,0,0,0-1.18,1.9h6.45a1.5,1.5,0,0,1,1.69,1.56A1.48,1.48,0,0,1,52.18,48H44.92c0,.51-.09,1-.09,1.47v.8h4.9a1.49,1.49,0,0,1,1.64,1.56,1.47,1.47,0,0,1-1.64,1.65H45.5a8.88,8.88,0,0,0,1.4,2.4,7.77,7.77,0,0,0,9.48,1.51,4.91,4.91,0,0,1,2.79-1c1.64,0,2.78,1.73,2.78,3.45,0,1.44-1,2.66-2.87,3.71a13.49,13.49,0,0,1-6.53,1.52,14,14,0,0,1-10.63-4.47,15.19,15.19,0,0,1-3.75-7.17h-.41Z"/></svg>