<svg id="Laag_1" data-name="Laag 1" xmlns="http://www.w3.org/2000/svg" xmlns:xlink="http://www.w3.org/1999/xlink" viewBox="0 0 100 100"><defs><style>.cls-1{fill:none;}.cls-2{fill:#fff;}.cls-3{clip-path:url(#clip-path);}.cls-4{fill:#006fcf;}.cls-5{fill:#006fb3;}</style><clipPath id="clip-path"><rect class="cls-1" width="100" height="100" rx="10.37"/></clipPath></defs><rect class="cls-2" width="100" height="100" rx="10.37"/><g class="cls-3"><path class="cls-4" d="M84.58,26.57c.87-2.36,1.66-4.38,2.36-6.43A1.4,1.4,0,0,1,88.54,19C92.26,19,96,19,99.7,19c.78,0,1.07-.23,1.06-1-.05-1.84,0-8.68,0-10.52A7.31,7.31,0,0,0,93-.23H6.55c-4.68,0-7.74,3.09-7.74,7.8,0,25.12,0,55.23,0,80.35,0,.89.13,7.8.37,8.66.92,3.24,3.72,5.14,7.48,5.14H75.52c5.86,0,11.73,0,17.59,0,4,0,6.93-2.38,7.45-6.36.29-2.15.1-10.35.2-12.53,0-.94-.28-1.25-1.21-1.24-3.39,0-6.77,0-10.15,0a2.21,2.21,0,0,1-1.94-.88c-1.22-1.51-2.52-2.95-3.86-4.51C82.3,77.7,81.07,79,79.93,80.4a3.1,3.1,0,0,1-2.7,1.23c-10.83,0-21.66,0-32.48,0-1.87,0-1.88,0-1.88-1.85,0-8.61,0-17.22,0-25.83,0-1-.23-1.41-1.32-1.36-2.11.08-4.21,0-6.32,0H31.18c.15-.48.23-.8.36-1.1q7-15.81,13.94-31.63A1.27,1.27,0,0,1,46.85,19q6.32,0,12.63,0a1.36,1.36,0,0,1,1.44,1c.8,1.84,1.66,3.66,2.5,5.49a36,36,0,0,0,.18-5.17c0-1,.3-1.28,1.3-1.27q7.84.07,15.68,0a1.44,1.44,0,0,1,1.61,1.15C82.91,22.19,83.7,24.22,84.58,26.57Z"/><path class="cls-5" d="M94.48,29.38l.34.07v1.28c0,5.26,0,10.53,0,15.79,0,1.18.35,1.51,1.47,1.42a27.22,27.22,0,0,1,3.38,0c.82,0,1.11-.23,1.11-1.08q0-11,0-21.88c0-.79-.24-1.06-1-1-2.67,0-5.34,0-8,0a1.3,1.3,0,0,0-1.46,1c-1.64,4.43-3.33,8.84-5,13.26-.15.4-.33.78-.65,1.51-.34-.8-.54-1.26-.72-1.73-1.66-4.34-3.33-8.69-5-13-.23-.59-.42-1.05-1.22-1-2.78,0-5.57,0-8.35,0-.7,0-.9.27-.9.94q0,11.06,0,22.1c0,.77.29,1,1,1,1.24,0,2.48-.06,3.72,0,.93.05,1.23-.26,1.22-1.21,0-5.41,0-10.83,0-16.24V29.34l.32-.05c.17.39.36.78.51,1.18,2,5.44,4.09,10.88,6.1,16.34a1.4,1.4,0,0,0,1.63,1.13,22.31,22.31,0,0,1,3.27,0,1.47,1.47,0,0,0,1.71-1.18c2-5.42,4-10.83,6.07-16.23C94.12,30.14,94.31,29.76,94.48,29.38Z"/><path class="cls-5" d="M48.15,64.53c0,3.65,0,7.3,0,10.94,0,.62,0,1.1.86,1.09q9.14,0,18.28,0c.63,0,.88-.27.87-.88,0-.9-.06-1.81,0-2.7.11-1.16-.33-1.48-1.47-1.46-3.83.07-7.67,0-11.5,0-.9,0-1.22-.28-1.15-1.16a14.21,14.21,0,0,0,0-2.26c0-.85.31-1.1,1.13-1.09,3.15,0,6.31,0,9.47,0s3.21,0,3.21-3.26c0-1.63,0-1.63-1.6-1.63H55.55c-1.48,0-1.48,0-1.49-1.52,0-.64,0-1.29,0-1.92-.08-.9.3-1.17,1.18-1.16,3.08.05,6.16,0,9.24,0,1.16,0,2.31-.09,3.46-.15.08-1.22.13-2.44.23-3.66.08-1-.34-1.21-1.25-1.2-5.86,0-11.73,0-17.59,0-1,0-1.2.34-1.19,1.24C48.17,57.39,48.15,61,48.15,64.53Z"/><path class="cls-5" d="M67.92,47.92a3.56,3.56,0,0,0-.08-.51c-3.33-7.59-6.65-15.18-10-22.75a1.6,1.6,0,0,0-1.2-.69c-2-.07-4,0-6.08,0a1.38,1.38,0,0,0-1.51,1c-2.53,5.81-5.11,11.6-7.68,17.4-.8,1.8-1.59,3.61-2.48,5.62h3c1.19,0,2.68.36,3.51-.21s1.08-2.13,1.58-3.25a1.2,1.2,0,0,0,.13-.31c.18-.71.67-.91,1.35-.91q5,0,10,0a1.24,1.24,0,0,1,1.34.93,30.33,30.33,0,0,0,1.23,3,1.26,1.26,0,0,0,.84.69C63.84,48,65.83,47.92,67.92,47.92Z"/><path class="cls-5" d="M87.4,64.55,98.63,52.6c-2.34,0-4.41-.06-6.47,0a2.81,2.81,0,0,0-1.71.77c-2,2.07-4,4.22-6,6.33-.24.26-.52.48-.85.79a57.1,57.1,0,0,1-4.33-4.75c-1.88-2.56-4-3.06-7.37-3.2-1,0-2,0-3.26,0,.45.5.69.79,1,1.06,3.15,3.38,6.28,6.78,9.46,10.13.65.68.59,1.09,0,1.74-3.27,3.42-6.5,6.89-9.73,10.34-.16.18-.29.38-.52.68,2.19,0,4.22.06,6.24,0a2.8,2.8,0,0,0,1.73-.74c2-2,3.87-4.1,5.79-6.16.3-.32.64-.6,1.06-1,.42.46.76.86,1.12,1.24,1.87,2,3.73,4,5.61,6,.25.27.59.62.89.63,2.34,0,4.68,0,7.31,0Z"/><path class="cls-5" d="M100.64,70.69V58.44l-6.27,6.19Z"/><path class="cls-4" d="M94.48,29.38c-.17.38-.36.76-.51,1.15-2,5.4-4.08,10.81-6.07,16.23a1.47,1.47,0,0,1-1.71,1.18,22.31,22.31,0,0,0-3.27,0,1.4,1.4,0,0,1-1.63-1.13c-2-5.46-4.06-10.9-6.1-16.34-.15-.4-.34-.79-.51-1.18l-.32.05v1.15c0,5.41,0,10.83,0,16.24,0,1-.29,1.26-1.22,1.21-1.24-.07-2.48,0-3.72,0-.71,0-1-.19-1-1q0-11,0-22.1c0-.67.2-.95.9-.94,2.78,0,5.57,0,8.35,0,.8,0,1,.45,1.22,1,1.64,4.35,3.31,8.7,5,13,.18.47.38.93.72,1.73.32-.73.5-1.11.65-1.51,1.68-4.42,3.37-8.83,5-13.26a1.3,1.3,0,0,1,1.46-1c2.66,0,5.33,0,8,0,.79,0,1,.25,1,1q0,10.94,0,21.88c0,.85-.29,1.12-1.11,1.08a27.22,27.22,0,0,0-3.38,0c-1.12.09-1.49-.24-1.47-1.42.06-5.26,0-10.53,0-15.79V29.45Z"/><path class="cls-4" d="M48.15,64.53c0-3.57,0-7.14,0-10.72,0-.9.21-1.24,1.19-1.24,5.86,0,11.73,0,17.59,0,.91,0,1.33.24,1.25,1.2-.1,1.22-.15,2.44-.23,3.66-1.15.06-2.3.14-3.46.15-3.08,0-6.16,0-9.24,0-.88,0-1.26.26-1.18,1.16.06.63,0,1.28,0,1.92,0,1.5,0,1.52,1.49,1.52H66.26c1.59,0,1.59,0,1.6,1.63,0,3.26,0,3.26-3.21,3.26s-6.32,0-9.47,0c-.82,0-1.18.24-1.13,1.09a14.21,14.21,0,0,1,0,2.26c-.07.88.25,1.17,1.15,1.16,3.83,0,7.67,0,11.5,0,1.14,0,1.58.3,1.47,1.46-.08.89,0,1.8,0,2.7,0,.61-.24.88-.87.88q-9.14,0-18.28,0c-.85,0-.86-.47-.86-1.09C48.16,71.83,48.15,68.18,48.15,64.53Z"/><path class="cls-4" d="M67.92,47.92c-2.09,0-4.08,0-6.06,0a1.26,1.26,0,0,1-.84-.69,30.33,30.33,0,0,1-1.23-3,1.24,1.24,0,0,0-1.34-.93q-5,0-10,0c-.68,0-1.17.2-1.35.91a1.2,1.2,0,0,1-.13.31c-.5,1.12-.72,2.64-1.58,3.25s-2.32.19-3.51.21h-3c.89-2,1.68-3.82,2.48-5.62,2.57-5.8,5.15-11.59,7.68-17.4a1.38,1.38,0,0,1,1.51-1c2,0,4.06,0,6.08,0a1.6,1.6,0,0,1,1.2.69c3.38,7.57,6.7,15.16,10,22.75A3.56,3.56,0,0,1,67.92,47.92ZM53.6,29.09h-.37l-3.71,9.17h7.81C56,35.07,54.82,32.08,53.6,29.09Z"/><path class="cls-4" d="M87.4,64.55l11.17,12c-2.63,0-5,0-7.31,0-.3,0-.64-.36-.89-.63-1.88-2-3.74-4-5.61-6-.36-.38-.7-.78-1.12-1.24-.42.39-.76.67-1.06,1-1.92,2.06-3.81,4.15-5.79,6.16a2.8,2.8,0,0,1-1.73.74c-2,.09-4,0-6.24,0,.23-.3.36-.5.52-.68,3.23-3.45,6.46-6.92,9.73-10.34.62-.65.68-1.06,0-1.74-3.18-3.35-6.31-6.75-9.46-10.13-.26-.27-.5-.56-1-1.06,1.24,0,3.26,0,3.26,0s5.49.64,7.37,3.2a57.1,57.1,0,0,0,4.33,4.75c.33-.31.61-.53.85-.79,2-2.11,3.92-4.26,6-6.33a2.81,2.81,0,0,1,1.71-.77c2.06-.09,4.13,0,6.47,0Z"/><path class="cls-2" d="M53.6,29.09h-.37l-3.71,9.17h7.81C56,35.07,54.82,32.08,53.6,29.09Z"/></g></svg>