<svg id="Laag_1" data-name="Laag 1" xmlns="http://www.w3.org/2000/svg" viewBox="0 0 100 100"><defs><style>.cls-1{fill:#1c3b6c;}.cls-2,.cls-4,.cls-5{fill:none;stroke:#fff;stroke-linecap:round;stroke-miterlimit:10;stroke-width:3.57px;}.cls-3{fill:#fff;}.cls-4{stroke-dasharray:0.95 7.56;}.cls-5{stroke-dasharray:0.95 7.56 0.95 7.56;}.cls-6{fill:#e8a306;}.cls-7{fill:#aa8005;}.cls-8{fill:#ffc532;}.cls-9{fill:#edc865;}</style></defs><rect class="cls-1" width="100" height="100" rx="10.37"/><path class="cls-2" d="M83.5,50A33.5,33.5,0,1,1,45.92,16.75"/><polygon class="cls-3" points="39.26 23.34 44.87 16.86 38.4 11.25 43.53 10.89 50 16.5 44.39 22.97 39.26 23.34"/><path class="cls-2" d="M58.88,17.78l.49.13"/><path class="cls-4" d="M66.32,20.84a35,35,0,0,1,4,2.6"/><path class="cls-5" d="M73.14,25.9a33.45,33.45,0,0,1,7.52,10.79"/><path class="cls-2" d="M82,40.23l.15.48"/><circle class="cls-6" cx="50" cy="50" r="20"/><circle class="cls-7" cx="50" cy="50" r="16.17" transform="translate(-8.49 89.74) rotate(-79.19)"/><path class="cls-6" d="M66.17,50a16.14,16.14,0,0,0-7.63-13.73,16.17,16.17,0,0,0-15.36,28.4A16.19,16.19,0,0,0,66.17,50Z"/><path class="cls-7" d="M42.26,48.65a10.24,10.24,0,0,1,1.14-2.9,9.38,9.38,0,0,1,2-2.43A9.63,9.63,0,0,1,51.81,41a9.09,9.09,0,0,1,4.75,1.2,7.67,7.67,0,0,1,3,3.14l-3,2a5.05,5.05,0,0,0-1-1.41,4.43,4.43,0,0,0-1.2-.91,5.09,5.09,0,0,0-1.35-.49,6,6,0,0,0-1.37-.16,5.32,5.32,0,0,0-2,.34,5.25,5.25,0,0,0-1.56.91A5.7,5.7,0,0,0,47,47a7.08,7.08,0,0,0-.73,1.64h7.17l-.84,2.07H45.93V51A8,8,0,0,0,46,52.15h6.56l-.84,2.07H46.6a6.47,6.47,0,0,0,2.06,2.55,5,5,0,0,0,3.1,1,5.88,5.88,0,0,0,1.4-.17,5,5,0,0,0,1.38-.53,4.92,4.92,0,0,0,1.22-.94,4.46,4.46,0,0,0,.9-1.38l3.16,1.82a6,6,0,0,1-1.36,2,8.65,8.65,0,0,1-2,1.44,9.45,9.45,0,0,1-2.36.9,10.13,10.13,0,0,1-2.47.31,8.52,8.52,0,0,1-3.09-.56,9.88,9.88,0,0,1-4.65-3.7,10.88,10.88,0,0,1-1.33-2.69H39.66l.87-2.07h1.56A9.65,9.65,0,0,1,42,50.92v-.2h-2l.84-2.07Z"/><path class="cls-8" d="M41.21,47.6a10.24,10.24,0,0,1,1.14-2.9,9.38,9.38,0,0,1,2-2.43A9.63,9.63,0,0,1,50.76,40a9.09,9.09,0,0,1,4.75,1.2,7.67,7.67,0,0,1,3,3.14l-3,2a5.05,5.05,0,0,0-1-1.41A4.47,4.47,0,0,0,53.36,44,4.9,4.9,0,0,0,52,43.53a6,6,0,0,0-1.37-.16,5.41,5.41,0,0,0-2,.34,5.32,5.32,0,0,0-1.55.91A5.7,5.7,0,0,0,46,46a6.68,6.68,0,0,0-.73,1.64h7.17l-.84,2.07H44.88V50A8,8,0,0,0,45,51.1h6.56l-.84,2.07H45.55a6.47,6.47,0,0,0,2.06,2.55,5.1,5.1,0,0,0,3.09,1,5.76,5.76,0,0,0,1.4-.17A5.32,5.32,0,0,0,53.49,56a4.92,4.92,0,0,0,1.22-.94,4.46,4.46,0,0,0,.9-1.38l3.16,1.82a6.05,6.05,0,0,1-1.36,2,8.65,8.65,0,0,1-2,1.44,9.85,9.85,0,0,1-2.36.9,10.71,10.71,0,0,1-2.47.31,8.52,8.52,0,0,1-3.09-.56,10,10,0,0,1-2.62-1.5,10.12,10.12,0,0,1-2-2.2,10.88,10.88,0,0,1-1.33-2.69H38.61l.87-2.07H41A9.65,9.65,0,0,1,41,49.87v-.2H39l.84-2.07Z"/><path class="cls-9" d="M63.5,41.09A16.17,16.17,0,0,1,37.17,59.84,16.17,16.17,0,1,0,63.5,41.09Z"/></svg>