<svg id="Laag_1" data-name="Laag 1" xmlns="http://www.w3.org/2000/svg" viewBox="0 0 100 100"><defs><style>.cls-1{fill:#fff;}.cls-2{fill:#a4a4a3;}.cls-3{fill:#e72242;stroke:#e72242;}.cls-3,.cls-4{stroke-miterlimit:10;stroke-width:0.97px;}.cls-4,.cls-5{fill:#a9abaa;}.cls-4{stroke:#a9abaa;}</style></defs><rect class="cls-1" x="0.5" y="0.5" width="99" height="99" rx="9.87"/><path class="cls-2" d="M89.63,1A9.38,9.38,0,0,1,99,10.37V89.63A9.38,9.38,0,0,1,89.63,99H10.37A9.38,9.38,0,0,1,1,89.63V10.37A9.38,9.38,0,0,1,10.37,1H89.63m0-1H10.37A10.41,10.41,0,0,0,0,10.37V89.63A10.41,10.41,0,0,0,10.37,100H89.63A10.41,10.41,0,0,0,100,89.63V10.37A10.41,10.41,0,0,0,89.63,0Z"/><path class="cls-3" d="M17.84,69.47,22.3,44.34H33.81c2.84,0,4.67.54,5.51,1.64s1,3.13.46,6.13-1.4,4.83-2.66,5.87-3.36,1.57-6.32,1.57l-1.11,0H22.43l-1.76,9.9Zm5-12.3h6.72c2.81,0,4.66-.28,5.56-.86s1.52-1.9,1.89-4c.44-2.43.44-4,0-4.61s-1.63-1-3.63-1l-1.08,0H24.71Z"/><path class="cls-4" d="M58.2,67.12l-.42,2.38H40.1l.83-4.7q.69-3.94,2.42-5.16c1.15-.82,3.66-1.45,7.51-1.88q4.62-.52,5.72-1.39c.73-.59,1.31-2.1,1.74-4.55.38-2.14.28-3.53-.31-4.17s-2.07-1-4.43-1c-2.95,0-4.85.26-5.72.78S46.39,49.23,46,51.2l-.29,1.86H43l.24-1.29c.53-3,1.5-5,2.92-6s4-1.48,7.71-1.48q5,0,6.39,1.6t.6,6.27c-.52,3-1.41,5-2.64,6s-3.67,1.68-7.28,2q-4.75.48-5.8,1.32t-1.74,4.76l-.15.84Z"/><path class="cls-4" d="M81.46,44.57l-3,16.8h3.67l-.42,2.38H78.08l-1,5.75H74.29l1-5.75H61.57l.58-3.31,15-15.87Zm-5.73,16.8,2.64-15h-.06l-14,15Z"/><path class="cls-5" d="M30.18,35.1a39.73,39.73,0,0,1,7.46-3.37L37.17,29a52.91,52.91,0,0,0-9.61,4.09Z"/><path class="cls-5" d="M59.81,33.63l9.22-5a50.28,50.28,0,0,0-14.78-2.1h-.06l-2.12,4.23A25.93,25.93,0,0,1,59.81,33.63Z"/><path class="cls-5" d="M25.21,34.49A36.8,36.8,0,0,0,19,39.16h5.13c1.25-1,2.49-1.85,3.69-2.63Z"/><path class="cls-5" d="M51.2,26.57a55.2,55.2,0,0,0-12,1.87l.35,2.73A27.94,27.94,0,0,1,50,30.39Z"/><path class="cls-5" d="M74,30.56,62,35a16.33,16.33,0,0,1,1.69,1.38H81.46S79.45,33.29,74,30.56Z"/></svg>