<svg id="Laag_1" data-name="Laag 1" xmlns="http://www.w3.org/2000/svg" viewBox="0 0 100 100"><defs><style>.cls-1{fill:#430084;}.cls-2{fill:#fefefe;}.cls-3{fill:#00c08b;}</style></defs><rect class="cls-1" width="100" height="100" rx="10.37"/><path class="cls-2" d="M57.6,53.75h1.73c1.74,0,3.48,0,5.22,0a4.22,4.22,0,0,1,4,4.35,4.16,4.16,0,0,1-3.94,4.25c-2.39.06-4.77,0-7.15,0H56.23c.29.34.46.55.65.74,3.11,3.14,6.23,6.26,9.34,9.4a4.3,4.3,0,0,1,1.17,4.36A4.1,4.1,0,0,1,64,80a4,4,0,0,1-3.82-1.17q-4.75-4.73-9.48-9.49a4.73,4.73,0,0,1-.54-.81c-.42.4-.65.61-.87.83-3.17,3.15-6.31,6.34-9.51,9.46a4.3,4.3,0,0,1-6.19-.08,4.38,4.38,0,0,1,.17-6.21q4.59-4.62,9.21-9.2a4.63,4.63,0,0,1,.71-.52l-.13-.27c-.27,0-.54,0-.81,0-2.46,0-4.93,0-7.38-.11A4.14,4.14,0,0,1,31.5,58a4.2,4.2,0,0,1,4.18-4.2c2,0,4,0,6,0a3.37,3.37,0,0,0,.81-.07c-6.12-3.35-9.68-8.37-10-15.37A16.85,16.85,0,0,1,37.6,25a17.57,17.57,0,0,1,24.85.06,17,17,0,0,1,4.9,15.51C66.32,46.59,62.84,50.79,57.6,53.75ZM50,47.33a9.75,9.75,0,1,0-9.79-9.72A9.76,9.76,0,0,0,50,47.33Z"/><path class="cls-3" d="M50,47.33a9.75,9.75,0,1,1,9.77-9.74A9.76,9.76,0,0,1,50,47.33Z"/></svg>