<svg id="Laag_1" data-name="Laag 1" xmlns="http://www.w3.org/2000/svg" xmlns:xlink="http://www.w3.org/1999/xlink" viewBox="0 0 100 100"><defs><style>.cls-1{fill:none;}.cls-2{clip-path:url(#clip-path);}.cls-3{fill:#009dc8;}.cls-4{fill:#0097cc;}.cls-5{fill:#30a4c0;}.cls-6{fill:#df8a4a;}.cls-7{fill:#db8016;}.cls-8{fill:#fff;}</style><clipPath id="clip-path"><rect class="cls-1" width="100" height="100" rx="10.37"/></clipPath></defs><g class="cls-2"><rect class="cls-3" x="-36.65" y="12.75" width="132.33" height="33.6" transform="translate(-12.25 29.56) rotate(-45.05)"/><rect class="cls-4" x="-60.43" y="-10.98" width="132.33" height="33.6" transform="translate(-2.43 5.77) rotate(-45.05)"/><rect class="cls-5" x="-13.23" y="36.13" width="132.33" height="33.6" transform="translate(-21.92 53) rotate(-45.05)"/><rect class="cls-6" x="10.55" y="59.87" width="132.33" height="33.6" transform="translate(-31.74 76.8) rotate(-45.05)"/><rect class="cls-7" x="33.97" y="83.25" width="132.33" height="33.6" transform="translate(-41.42 100.24) rotate(-45.05)"/></g><path class="cls-8" d="M33.36,26.89h4.76a3.34,3.34,0,0,0,.5.18c1.94.51,3.9.93,5.81,1.53a23.35,23.35,0,0,1,3.12,1.5,4,4,0,0,1-.28.43c-2.11,2.12-4.21,4.24-6.36,6.31a1.23,1.23,0,0,1-1,.15,14.53,14.53,0,0,0-6.22-.46,13.63,13.63,0,1,0,13,21.59,1.53,1.53,0,0,0,.2-1.2A23.3,23.3,0,0,1,46,47.28,23,23,0,0,1,62.52,27.81c1.31-.37,2.64-.61,4-.92h4.94c.88.19,1.77.37,2.65.57a22.16,22.16,0,0,1,6.33,2.47,1.42,1.42,0,0,1-.17.3c-2.18,2.18-4.35,4.36-6.55,6.51a1.09,1.09,0,0,1-.86.18c-.93-.14-1.84-.44-2.77-.51A13.54,13.54,0,0,0,55.49,52a12.83,12.83,0,0,0,9.79,11.08c5.52,1.56,10.26,0,14.09-4.29.54-.59,1-1.27,1.5-2C83,59,85.15,61.09,87.28,63.19c.4.4.18.67-.08,1a23.12,23.12,0,0,1-31.8,4.5c-1.07-.79-2-1.68-3.09-2.54l-.42.4A23.16,23.16,0,0,1,13.44,56.09c-.45-1.65-.63-3.38-.94-5.08V48.82c.12-.77.23-1.55.37-2.33,1.62-9,6.69-15.08,15.21-18.28A46.83,46.83,0,0,1,33.36,26.89Z"/></svg>