<svg width="100" height="100" viewBox="0 0 100 100" fill="none" xmlns="http://www.w3.org/2000/svg">
<g clip-path="url(#clip0_201_159)">
<path d="M0 10.4944C0 4.74268 4.74747 0 10.505 0H89.4949C95.2525 0 100 4.74268 100 10.4944V89.5055C100 95.3582 95.2525 100 89.4949 100H10.505C4.74747 100 0 95.3582 0 89.5055L0 10.4944Z" fill="#1D1D1D"/>
<circle cx="31.5928" cy="77.4342" r="4.43421" fill="white"/>
<circle cx="50.4612" cy="77.4342" r="4.43421" fill="white"/>
<circle cx="69.3296" cy="77.4342" r="4.43421" fill="white"/>
<path d="M10.7043 22.3534C10.7043 20.2637 12.4274 18.5405 14.5172 18.5405H43.1871C45.2769 18.5405 47 20.2637 47 22.3534V51.06C47 53.1864 45.2769 54.8729 43.1871 54.8729H14.5172C12.4274 54.8729 10.7043 53.1864 10.7043 51.06L10.7043 22.3534Z" fill="#CC0066"/>
<path d="M53 22.3534C53 20.2637 54.7231 18.5405 56.8129 18.5405H85.4828C87.5726 18.5405 89.2957 20.2637 89.2957 22.3534V51.06C89.2957 53.1864 87.5726 54.8729 85.4828 54.8729H56.8129C54.7231 54.8729 53 53.1864 53 51.06V22.3534Z" fill="#585FFF"/>
</g>
<defs>
<clipPath id="clip0_201_159">
<rect width="100" height="100" fill="white"/>
</clipPath>
</defs>
</svg>
