<?xml version="1.0" encoding="UTF-8"?>
<!-- Generated by Pixelmator Pro 3.2.3 -->
<svg width="1200" height="762" viewBox="0 0 1200 762" xmlns="http://www.w3.org/2000/svg" xmlns:xlink="http://www.w3.org/1999/xlink">
    <path id="Path" fill="#585fff" stroke="none" d="M 1023.974243 762 L 0 762 L 0 176.704956 C 0 79.27179 78.962372 0.009277 176.015045 0.009277 L 1023.974243 0.009277 C 1121.037598 0.009277 1200 79.27179 1200 176.704956 L 1200 585.303406 C 1200 682.738953 1121.037598 762 1023.974243 762 Z"/>
    <path id="path1" fill="#ffffff" stroke="none" d="M 631.051514 276.723083 C 611.394104 264.99054 588.989136 258.694214 566.119019 258.473724 C 543.248352 258.253815 520.727539 264.117981 500.847931 275.470093 C 480.967743 286.822235 464.438019 303.256958 452.938812 323.102875 C 441.440186 342.94873 435.382568 365.497314 435.382568 388.455963 C 435.382568 411.414612 441.440186 433.963745 452.938812 453.809631 C 464.438019 473.655518 480.967743 490.09021 500.847931 501.441772 C 520.727539 512.793884 543.248352 518.658081 566.119019 518.438171 C 588.989136 518.218262 611.394104 511.921326 631.051514 500.189392 L 631.051514 516.872559 L 694.443542 516.872559 L 694.443542 259.743927 L 631.051514 259.743927 L 631.051514 276.723083 Z M 564.86615 454.820709 C 551.793274 454.806396 539.018005 450.901917 528.15564 443.600494 C 517.293274 436.299683 508.830292 425.929474 503.83783 413.801636 C 498.845367 401.673859 497.546143 388.332306 500.105347 375.463898 C 502.665161 362.594879 508.967529 350.776764 518.216431 341.502625 C 527.465332 332.229034 539.245544 325.915497 552.068298 323.360809 C 564.891113 320.806152 578.180786 322.124512 590.257385 327.149994 C 602.334656 332.174957 612.653503 340.681152 619.918823 351.593445 C 627.178223 362.505127 631.051514 375.33316 631.051514 388.455963 C 631.03363 406.063995 624.053467 422.943878 611.643555 435.387299 C 599.233704 447.831329 582.407532 454.820709 564.86615 454.820709 L 564.86615 454.820709 Z"/>
    <path id="path2" fill="#ffffff" stroke="none" d="M 299.804535 175.654663 L 174.585159 175.654663 L 174.585159 516.875549 L 237.977829 516.875549 L 237.977829 413.526489 L 301.10733 413.526489 C 316.722168 413.509827 332.180176 410.398804 346.594482 404.371765 C 361.009277 398.344727 374.095856 389.520508 385.10495 378.404907 C 396.114685 367.288757 404.828888 354.101166 410.748718 339.597015 C 416.668518 325.092834 419.677399 309.558044 419.603149 293.883514 C 419.235443 228.214844 365.193268 175.654663 299.804535 175.654663 Z M 300.182983 349.924438 L 237.977829 349.924438 L 237.977829 239.224609 L 301.10733 239.224609 C 308.431488 239.234741 315.680206 240.708191 322.431702 243.558838 C 329.182587 246.409485 335.300781 250.580902 340.429321 255.829315 C 345.558411 261.077698 349.595032 267.298553 352.304565 274.128601 C 355.014069 280.959259 356.341766 288.262451 356.21048 295.61319 C 355.632477 325.901245 330.355835 349.871552 300.182983 349.871552 L 300.182983 349.924438 Z"/>
    <path id="path3" fill="#ffffff" stroke="none" d="M 1032.588135 519.065857 C 1053.956421 519.065857 1071.279175 501.681305 1071.279175 480.236511 C 1071.279175 458.791168 1053.956421 441.406647 1032.588135 441.406647 C 1011.219788 441.406647 993.897095 458.791168 993.897095 480.236511 C 993.897095 501.681305 1011.219788 519.065857 1032.588135 519.065857 Z"/>
    <path id="path4" fill="#ffffff" stroke="none" d="M 942.029724 258.839874 L 867.6297 452.018738 L 790.990112 259.746918 L 721.645569 259.746918 L 824.120789 516.875549 L 842.625793 516.875549 L 842.287109 517.76178 C 837.463379 530.124939 829.051453 540.748352 818.144531 548.254883 C 807.231689 555.761292 794.328735 559.804871 781.098999 559.860779 L 773.619812 559.860779 L 773.619812 623.496704 L 782.150513 623.496704 C 808.158447 623.383789 833.536621 615.430908 854.988098 600.666382 C 876.439575 585.907837 892.978271 565.01886 902.465332 540.709167 L 1011.023743 258.839874 L 942.029724 258.839874 Z"/>
</svg>
