<svg width="2020" height="1282" viewBox="0 0 2020 1282" fill="none" xmlns="http://www.w3.org/2000/svg">
<path d="M1723.69 1282H0V297.291C0 133.368 132.92 0.0156479 296.292 0.0156479H1723.69C1887.08 0.0156479 2020 133.368 2020 297.291V984.723C2020 1148.65 1887.08 1282 1723.69 1282Z" fill="#585FFF"/>
<path d="M1062.27 465.563C1029.18 445.824 991.465 435.231 952.967 434.86C914.468 434.49 876.558 444.356 843.094 463.455C809.629 482.554 781.804 510.204 762.447 543.593C743.091 576.982 732.894 614.918 732.894 653.544C732.894 692.17 743.091 730.107 762.447 763.496C781.804 796.885 809.629 824.535 843.094 843.633C876.558 862.732 914.468 872.598 952.967 872.228C991.465 871.858 1029.18 861.264 1062.27 841.526V869.594H1168.98V436.997H1062.27V465.563ZM950.858 765.197C928.852 765.173 907.347 758.604 889.062 746.32C870.777 734.037 856.531 716.59 848.127 696.186C839.723 675.782 837.536 653.336 841.844 631.686C846.153 610.035 856.762 590.152 872.331 574.549C887.9 558.947 907.73 548.325 929.315 544.027C950.9 539.729 973.271 541.947 993.6 550.402C1013.93 558.856 1031.3 573.167 1043.53 591.526C1055.75 609.884 1062.27 631.466 1062.27 653.544C1062.24 683.168 1050.49 711.567 1029.6 732.502C1008.71 753.438 980.386 765.197 950.858 765.197V765.197Z" fill="white"/>
<path d="M504.671 295.524H293.885V869.599H400.596V695.723H506.864C533.149 695.695 559.17 690.461 583.434 680.321C607.699 670.181 629.728 655.335 648.26 636.634C666.793 617.932 681.462 595.745 691.427 571.343C701.392 546.941 706.457 520.805 706.332 494.434C705.713 383.952 614.742 295.524 504.671 295.524ZM505.308 588.718H400.596V402.475H506.864C519.193 402.492 531.395 404.971 542.76 409.767C554.124 414.563 564.423 421.581 573.056 430.411C581.69 439.241 588.485 449.707 593.046 461.198C597.607 472.69 599.842 484.977 599.621 497.344C598.648 548.301 556.099 588.629 505.308 588.629V588.718Z" fill="white"/>
<path d="M1738.19 873.284C1774.16 873.284 1803.32 844.036 1803.32 807.957C1803.32 771.877 1774.16 742.629 1738.19 742.629C1702.22 742.629 1673.06 771.877 1673.06 807.957C1673.06 844.036 1702.22 873.284 1738.19 873.284Z" fill="white"/>
<path d="M1585.75 435.476L1460.51 760.483L1331.5 437.002H1214.77L1387.27 869.599H1418.42L1417.85 871.09C1409.73 891.89 1395.57 909.763 1377.21 922.392C1358.84 935.021 1337.12 941.824 1314.85 941.918H1302.26V1048.98H1316.62C1360.4 1048.79 1403.12 1035.41 1439.23 1010.57C1475.34 985.74 1503.18 950.596 1519.15 909.697L1701.89 435.476H1585.75Z" fill="white"/>
</svg>
