<?xml version="1.0" encoding="utf-8"?>
<!-- Generator: Adobe Illustrator 27.2.0, SVG Export Plug-In . SVG Version: 6.00 Build 0)  -->
<svg version="1.1" id="Laag_1" xmlns="http://www.w3.org/2000/svg" xmlns:xlink="http://www.w3.org/1999/xlink" x="0px" y="0px"
	 viewBox="0 0 25 25" style="enable-background:new 0 0 25 25;" xml:space="preserve">
<style type="text/css">
	.st0{fill:#585FFF;}
	.st1{fill:#FFFFFF;}
</style>
<g>
	<g>
		<path class="st0" d="M21.33,20.41H0V8.26c0-2.02,1.65-3.67,3.67-3.67h17.67c2.02,0,3.67,1.65,3.67,3.67v8.48
			C25,18.76,23.35,20.41,21.33,20.41z"/>
	</g>
	<path class="st1" d="M13.15,10.34c-0.4-0.24-0.87-0.38-1.38-0.38c-1.49,0-2.7,1.21-2.7,2.7c0,1.49,1.21,2.7,2.7,2.7
		c0.5,0,0.97-0.14,1.38-0.38v0.35h1.32V9.98h-1.32V10.34z M11.77,14.03c-0.76,0-1.38-0.62-1.38-1.38c0-0.76,0.62-1.38,1.38-1.38
		c0.76,0,1.38,0.62,1.38,1.38C13.15,13.41,12.53,14.03,11.77,14.03z"/>
	<path class="st1" d="M6.25,8.24l-2.61,0v7.08h1.32v-2.15h1.32c1.37,0,2.48-1.12,2.47-2.48C8.73,9.33,7.61,8.24,6.25,8.24z
		 M6.25,11.85h-1.3v-2.3h1.32c0.64,0,1.16,0.53,1.15,1.17C7.41,11.36,6.88,11.85,6.25,11.85z"/>
	<circle class="st1" cx="21.51" cy="14.56" r="0.81"/>
	<path class="st1" d="M19.63,9.96l-1.55,4.01l-1.6-3.99h-1.44l2.13,5.34h0.39l-0.01,0.02c-0.2,0.52-0.71,0.87-1.27,0.87h-0.16v1.32
		h0.18c1.1,0,2.11-0.69,2.51-1.72l2.26-5.85H19.63z"/>
</g>
</svg>
