<?xml version="1.0" encoding="utf-8"?>
<!-- Generator: Adobe Illustrator 27.2.0, SVG Export Plug-In . SVG Version: 6.00 Build 0)  -->
<svg version="1.1" id="Laag_1" xmlns="http://www.w3.org/2000/svg" xmlns:xlink="http://www.w3.org/1999/xlink" x="0px" y="0px"
	 viewBox="0 0 200 200" style="enable-background:new 0 0 200 200;" xml:space="preserve">
<style type="text/css">
	.st0{fill:#585FFF;}
	.st1{fill:#FFFFFF;}
</style>
<g>
	<g>
		<path class="st0" d="M170.71,163.3H-0.07V66.06c0-16.19,13.17-29.36,29.36-29.36h141.42c16.19,0,29.36,13.17,29.36,29.36v67.89
			C200.07,150.13,186.9,163.3,170.71,163.3z"/>
	</g>
	<path class="st1" d="M105.17,82.67c-3.23-1.93-7-3.03-11.03-3.03c-11.91,0-21.6,9.69-21.6,21.6c0,11.91,9.69,21.6,21.6,21.6
		c4.03,0,7.8-1.11,11.03-3.03v2.77h10.57V79.85h-10.57V82.67z M94.15,112.26c-6.08,0-11.03-4.95-11.03-11.03s4.95-11.03,11.03-11.03
		c6.08,0,11.03,4.95,11.03,11.03S100.22,112.26,94.15,112.26z"/>
	<path class="st1" d="M49.94,65.87l-20.88,0v56.7h10.57V105.4h10.53c10.94,0,19.83-8.93,19.76-19.88
		C69.85,74.62,60.84,65.87,49.94,65.87z M50,94.83H39.62V76.44h10.53c5.13,0,9.29,4.22,9.19,9.37C59.25,90.85,55.03,94.83,50,94.83z
		"/>
	<circle class="st1" cx="172.14" cy="116.49" r="6.45"/>
	<path class="st1" d="M157.05,79.7l-12.41,32.1l-12.78-31.95H120.3l17.09,42.72h3.09l-0.06,0.15c-1.62,4.18-5.72,6.99-10.2,6.99
		h-1.25v10.57h1.42c8.82,0,16.88-5.53,20.06-13.75l18.11-46.83H157.05z"/>
</g>
</svg>
