<?xml version="1.0" encoding="utf-8"?>
<!-- Generator: Adobe Illustrator 27.2.0, SVG Export Plug-In . SVG Version: 6.00 Build 0)  -->
<svg version="1.1" id="Laag_1" xmlns="http://www.w3.org/2000/svg" xmlns:xlink="http://www.w3.org/1999/xlink" x="0px" y="0px"
	 viewBox="0 0 80 80" style="enable-background:new 0 0 80 80;" xml:space="preserve">
<style type="text/css">
	.st0{fill:#585FFF;}
	.st1{fill:#FFFFFF;}
</style>
<g>
	<g>
		<path class="st0" d="M68.27,65.3H0V26.43C0,19.96,5.26,14.7,11.73,14.7h56.53C74.74,14.7,80,19.96,80,26.43v27.14
			C80,60.04,74.74,65.3,68.27,65.3z"/>
	</g>
	<path class="st1" d="M42.07,33.07c-1.29-0.77-2.8-1.21-4.41-1.21c-4.76,0-8.63,3.87-8.63,8.63c0,4.76,3.87,8.63,8.63,8.63
		c1.61,0,3.12-0.44,4.41-1.21v1.11h4.23V31.95h-4.23V33.07z M37.66,44.9c-2.43,0-4.41-1.98-4.41-4.41c0-2.43,1.98-4.41,4.41-4.41
		s4.41,1.98,4.41,4.41C42.07,42.93,40.09,44.9,37.66,44.9z"/>
	<path class="st1" d="M19.99,26.36l-8.35,0v22.67h4.23v-6.87h4.21c4.37,0,7.93-3.57,7.9-7.95C27.95,29.85,24.35,26.36,19.99,26.36z
		 M20.01,37.93h-4.15v-7.35h4.21c2.05,0,3.71,1.69,3.67,3.75C23.71,36.34,22.02,37.93,20.01,37.93z"/>
	<circle class="st1" cx="68.84" cy="46.59" r="2.58"/>
	<path class="st1" d="M62.8,31.89l-4.96,12.83l-5.11-12.77h-4.62l6.83,17.08h1.23l-0.02,0.06c-0.65,1.67-2.29,2.8-4.08,2.8h-0.5
		v4.23h0.57c3.53,0,6.75-2.21,8.02-5.5l7.24-18.72H62.8z"/>
</g>
</svg>
