<svg width="100" height="101" viewBox="0 0 100 101" fill="none" xmlns="http://www.w3.org/2000/svg">
<g clip-path="url(#clip0_6251_60928)">
<path d="M89.6305 1.01172H10.3705C4.91944 1.01172 0.500488 5.43067 0.500488 10.8817V90.1417C0.500488 95.5928 4.91944 100.012 10.3705 100.012H89.6305C95.0815 100.012 99.5005 95.5928 99.5005 90.1417V10.8817C99.5005 5.43067 95.0815 1.01172 89.6305 1.01172Z" fill="white"/>
<path d="M89.63 1.51172C92.1143 1.51437 94.496 2.50241 96.2527 4.25905C98.0093 6.01569 98.9974 8.39745 99 10.8817V90.1417C98.9974 92.626 98.0093 95.0077 96.2527 96.7644C94.496 98.521 92.1143 99.5091 89.63 99.5117H10.37C7.88573 99.5091 5.50398 98.521 3.74733 96.7644C1.99069 95.0077 1.00265 92.626 1 90.1417V10.8817C1.00265 8.39745 1.99069 6.01569 3.74733 4.25905C5.50398 2.50241 7.88573 1.51437 10.37 1.51172H89.63ZM89.63 0.511719H10.37C7.62295 0.522254 4.99142 1.61819 3.04894 3.56066C1.10647 5.50313 0.0105353 8.13467 0 10.8817V90.1417C0.0105353 92.8888 1.10647 95.5203 3.04894 97.4628C4.99142 99.4052 7.62295 100.501 10.37 100.512H89.63C92.377 100.501 95.0086 99.4052 96.9511 97.4628C98.8935 95.5203 99.9895 92.8888 100 90.1417V10.8817C99.9895 8.13467 98.8935 5.50313 96.9511 3.56066C95.0086 1.61819 92.377 0.522254 89.63 0.511719V0.511719Z" fill="#A8A8A7"/>
<path fill-rule="evenodd" clip-rule="evenodd" d="M37.1418 45.8409C36.3563 48.2802 36.3149 50.9262 36.9764 53.4069C38.5475 59.3191 43.9223 63.4122 49.9999 63.4122C56.0776 63.4122 61.4523 59.3191 63.0234 53.4069C63.6849 50.9262 63.6436 48.2802 62.858 45.8409L62.8167 45.6755V45.5101C62.734 43.7736 63.8503 42.1612 65.5454 41.6237C67.1992 41.0863 69.0597 41.7478 70.0106 43.2362L70.0933 43.3602L70.1347 43.5256C71.3336 47.3706 71.4577 51.4637 70.3827 55.3501C68.2328 63.4122 61.5764 69.3245 53.5555 70.6889L53.8036 70.6475V76.9732V84.4152C52.5633 84.5392 51.2816 84.6219 49.9999 84.6219C48.7183 84.6219 47.4366 84.5392 46.1962 84.4152C29.0797 82.5134 15.8081 68.0428 15.8081 50.4301C15.8081 31.5357 31.1055 16.2383 49.9999 16.2383C68.8943 16.2383 84.1918 31.5357 84.1918 50.4301C84.1918 66.7611 72.7393 80.4461 57.4006 83.8364V76.2703C68.6462 73.0455 76.8324 62.7094 76.8324 50.4301C76.8324 35.5875 64.8012 23.5562 49.9586 23.5562C35.1159 23.5562 23.0847 35.5875 23.0847 50.4301C23.0847 63.9911 33.0901 75.1954 46.1549 77.0146V70.6889C46.1963 70.6889 33.1727 68.7457 29.5758 55.3914C28.5422 51.5051 28.6249 47.3706 29.8239 43.5669L29.8652 43.4015L29.9479 43.2775C30.8988 41.7891 32.718 41.169 34.4131 41.6651C36.0669 42.2026 37.2245 43.7737 37.1418 45.5515V45.7168V45.8409ZM56.615 38.9777L60.4187 32.3626C56.7804 30.2954 52.5633 29.3858 48.2221 29.6752L47.85 29.7166C44.9559 29.9646 42.1445 30.9155 39.6225 32.3626L43.4262 38.9364C47.4779 36.6624 52.5219 36.6624 56.615 38.9777ZM49.9999 42.6987C54.2584 42.6987 57.7313 46.1716 57.7313 50.4301C57.7313 54.6886 54.2584 58.1615 49.9999 58.1615C45.7415 58.1615 42.2685 54.6886 42.2685 50.4301C42.2685 46.1716 45.7415 42.6987 49.9999 42.6987Z" fill="#00A2E9"/>
</g>
<defs>
<clipPath id="clip0_6251_60928">
<rect width="100" height="100" fill="white" transform="translate(0 0.511719)"/>
</clipPath>
</defs>
</svg>
