<?xml version="1.0" encoding="utf-8"?>
<!-- Generator: Adobe Illustrator 25.4.1, SVG Export Plug-In . SVG Version: 6.00 Build 0)  -->
<svg version="1.1" id="Laag_1" xmlns="http://www.w3.org/2000/svg" xmlns:xlink="http://www.w3.org/1999/xlink" x="0px" y="0px"
	 viewBox="0 0 200 100" style="enable-background:new 0 0 200 100;" xml:space="preserve">
<style type="text/css">
	.st0{fill-rule:evenodd;clip-rule:evenodd;fill:#FF422E;}
</style>
<path class="st0" d="M80,57c0.5-2.5,1.4-4.9,2.6-7.1c0.7-1.3,1.3-2.7,1.5-4.2c0.2-0.6,0.3-1.3,0.3-2c0-6.1-4.9-11-11-11
	c-4.6,0-8.5,2.8-10.1,6.8c-0.5-2-0.8-4-0.7-6.2C62.7,19.8,73.6,9,87.1,9c13.1,0,23.8,10.4,24.5,23.3c0.3,5.5-1.7,10.6-4.6,15.3
	c-3.9,6-8.3,11.6-8.3,19.1c0,10.9,7.1,20.1,16.9,23.2c-2.6,0.7-5.4,1.2-8.2,1.1c-14.9-0.2-27.2-12.1-27.8-27.1
	C79.4,61.5,79.6,59.2,80,57"/>
<path class="st0" d="M122.9,44.5c0-1.3-1.1-2.4-2.4-2.4s-2.4,1.1-2.4,2.4s1.1,2.4,2.4,2.4C121.8,46.8,122.9,45.7,122.9,44.5"/>
<path class="st0" d="M129.9,72.7c-0.2-4.2,2.2-7.9,5.8-9.6V63c-1-0.2-2.1-0.3-3.1-0.3c-8.9,0-16.3,7.2-16.3,16.3
	c0,3.5,1.1,6.8,3,9.4c5-2.3,9.3-6.1,12.1-10.8C130.6,76.2,130,74.5,129.9,72.7"/>
<path class="st0" d="M133.3,34.2c0.6-1.6,1-3.4,1-5.2c0-2.7-0.7-5.1-2-7.2c-0.4,3.4-1.8,6.4-3.8,8.9l-0.1,0.2
	c-0.9-0.4-1.8-0.9-2.8-1.3c-0.7-0.4-1.4-0.8-2-1.2c-2.5-1.4-4.4-3.8-5.2-6.7c-0.4,1.5-0.7,3.2-0.7,4.9c0,5.6,2.8,10.7,7,13.8h0.1
	c0.9,0.7,1.7,1.3,2.5,2.1c3.1,3,5.5,6.9,7,11.1c1.5-2,2.5-4.4,2.9-6.9c0.1-0.8,0.2-1.6,0.2-2.5C137.4,39.9,136.2,36.8,133.3,34.2"/>
</svg>
