<?xml version="1.0" encoding="utf-8"?>
<!-- Generator: Adobe Illustrator 25.4.1, SVG Export Plug-In . SVG Version: 6.00 Build 0)  -->
<svg version="1.1" id="Laag_1" xmlns="http://www.w3.org/2000/svg" xmlns:xlink="http://www.w3.org/1999/xlink" x="0px" y="0px"
	 viewBox="0 0 200 100" style="enable-background:new 0 0 200 100;" xml:space="preserve">
<style type="text/css">
	.st0{fill-rule:evenodd;clip-rule:evenodd;fill:#E1000E;}
</style>
<path class="st0" d="M175.4,60l-7.1-10.9l5.8-8c0.4-0.5,0.1-1.1-0.5-1.1h-2.8c-0.6,0-1,0.3-1.3,0.8l-5.3,8.1V31.2
	c0-0.5-0.4-0.9-0.9-0.9h-2c-0.5,0-0.9,0.4-0.9,0.9v29.1c0,0.5,0.4,0.9,0.9,0.9h2c0.5,0,0.9-0.4,0.9-0.9V49.8l6.3,10.5
	c0.3,0.5,0.7,0.8,1.2,0.8h3.1C175.5,61.2,175.7,60.5,175.4,60L175.4,60z"/>
<path class="st0" d="M157.9,60.2V45.3c0-3.3-2.1-5.4-5.4-5.4c-2.3,0-4.1,0.9-6,3l-0.4-2c-0.1-0.6-0.4-0.8-1-0.8h-1.3
	c-0.5,0-1,0.4-1,0.9v19.2c0,0.5,0.5,0.9,1,0.9h2c0.5,0,0.9-0.4,0.9-0.9V48.4c0-2.9,2.1-5.2,4.7-5.2c1.8,0,2.5,0.9,2.5,2.9v14.1
	c0,0.5,0.5,0.9,1,0.9h2C157.5,61.2,157.9,60.7,157.9,60.2L157.9,60.2z"/>
<path class="st0" d="M140.8,60.2l-0.3-1.3c-0.3-1.3-0.2-2.5-0.2-3.6v-7.6c0-3.5-0.6-8-7.5-8c-1.9,0-4,0.5-5.3,0.8
	c-0.5,0.1-0.8,0.6-0.6,1.1l0.4,1.6c0.1,0.6,0.6,0.9,1.1,0.7c1.2-0.3,2.5-0.8,4.2-0.8c3.1,0,3.8,1.2,3.8,3.7v1l-4.8,0.3
	c-3.5,0.3-6.5,2.1-6.5,6.8c0,3.9,2.1,6.2,5.6,6.2c2.4,0,4.7-0.9,6-3L137,60c0.1,0.6,0.5,0.9,1,0.9h2
	C140.5,61.2,140.8,60.8,140.8,60.2z M136.3,54.2c0,1.6-1.8,4-4.6,4c-1.6,0-2.7-0.9-2.7-3.1c0-3.3,1.9-4,4.6-4.1l2.7-0.1V54.2z"/>
<path class="st0" d="M117.4,45.6L117.4,45.6c3.5-1,5-3.2,5-6.5c0-4.3-2.9-7.3-8-7.3h-8.5c-0.5,0-1,0.4-1,0.9v27.4
	c0,0.5,0.5,0.9,1,0.9h8.9c5.5,0,8.8-3,8.8-8.3C123.6,49.1,121.5,46.1,117.4,45.6z M109,35.3h4.6c3.1,0,4.6,1.6,4.6,4.4
	c0,2.7-1.7,4.4-4.9,4.4H109V35.3z M114.5,57.6H109V47.3h4.7c3.5,0,5.6,2.2,5.6,5.2C119.2,55.7,117.5,57.6,114.5,57.6z"/>
<path class="st0" d="M43.7,60L43.7,60c-1.5-4.2-3-8-3.5-9.1c-0.9-2.1-2.6-4.1-5-4.5c0,0,0.2,0,0.4,0c4.4-0.6,6.4-3.9,6.4-7.2
	c0-2.8-1.6-7.3-8.8-7.3h-7.5c-0.5,0-1,0.4-1,0.9v27.4c0,0.5,0.5,0.9,1,0.9h2.1c0.5,0,0.9-0.4,0.9-0.9V48h2.1c3,0,4.3,1.8,5.3,3.7
	c1.2,2.3,2.1,5.4,3.2,8.8c0.2,0.6,0.6,0.7,1,0.7H43C43.8,61.2,43.9,60.7,43.7,60z M32.5,44.5h-3.9v-9.1H33c3.1,0,4.8,1.9,4.8,4.2
	C37.7,42.7,35.7,44.5,32.5,44.5z"/>
<path class="st0" d="M59.3,50.7c0-8-3.5-10.9-7.9-10.9c-4.8,0-8,4.1-8,10.7c0,7.1,3.4,10.9,9.3,10.9c2.5,0,4-0.4,5.4-1
	c0.5-0.2,0.8-0.7,0.6-1.2l-0.5-1.4C58,57.3,57.6,57,57,57.2c-1.3,0.4-2.4,0.8-4.1,0.8c-3.9,0-5.2-2.3-5.4-6.3h10.9
	C58.8,51.6,59.3,51.2,59.3,50.7z M47.5,48.6c0.4-4.5,2.4-5.6,4-5.6c2.7,0,3.7,2.8,3.8,5.6H47.5z"/>
<path class="st0" d="M71.7,57.5h-3.6c-1.6,0-2.3-0.3-2.3-1.2c0-0.5,0.4-0.9,0.8-1.3c0.7,0.2,1.4,0.3,2.1,0.3c4.8,0,7.9-2.9,7.9-7.7
	c0-1.5-0.7-2.9-1.6-4.2l1.4-0.2c0.5,0,0.9-0.4,0.9-0.9v-1.1c0-0.6-0.4-1-0.9-1h-5c-0.9,0-1.8-0.2-2.7-0.2c-4.7,0-7.8,2.7-7.8,7.6
	c0,2.9,1.2,5.1,3.1,6.3c-1,0.9-1.9,2.1-1.9,3.6c0,2.5,2.2,3.4,4.8,3.4h4.2c2.3,0,3.3,0.9,3.3,2.7c0,1.9-2.1,3.1-4.8,3.1
	c-2.1,0-4.3-0.4-4.7-2.7c-0.1-0.6-0.4-0.9-0.9-0.9L61.9,63c-0.5,0-0.9,0.4-0.9,0.9l0,0c0,4.7,4.4,6.1,8.6,6.1c4,0,8.7-1.8,8.7-6.9
	C78.2,59.5,75.7,57.5,71.7,57.5z M68.8,42.8c2.1,0,3.9,0.8,3.9,4.6c0,3.9-1.9,4.8-3.9,4.8c-2.1,0-3.8-0.7-3.8-4.8
	C64.9,43.5,66.7,42.8,68.8,42.8z"/>
<path class="st0" d="M84.6,32.7c0-1.5-1.2-2.7-2.7-2.7s-2.7,1.2-2.7,2.7l0,0c0,1.5,1.2,2.7,2.7,2.7S84.6,34.2,84.6,32.7"/>
<path class="st0" d="M83.9,60.2V41c0-0.5-0.5-0.9-0.9-0.9h-2c-0.5,0-1,0.4-1,0.9v19.2c0,0.5,0.5,0.9,1,0.9h2
	C83.4,61.2,83.9,60.7,83.9,60.2"/>
<path class="st0" d="M94.4,39.8c-5.2,0-8.5,4.1-8.5,10.8c0,6.8,3.3,10.8,8.5,10.8c5.3,0,8.5-4.1,8.5-10.8
	C102.8,44,99.6,39.8,94.4,39.8z M94.3,58.1c-2.7,0-4.4-2.2-4.4-7.4s1.7-7.4,4.4-7.4c2.7,0,4.4,2.3,4.4,7.4
	C98.7,55.9,97,58.1,94.3,58.1z"/>
</svg>
