<?xml version="1.0" encoding="UTF-8"?>
<svg id="Laag_1" data-name="Laag 1" xmlns="http://www.w3.org/2000/svg" version="1.1" viewBox="0 0 100 100">
  <defs>
    <style>
      .cls-1 {
        fill: #fff;
      }

      .cls-1, .cls-2 {
        stroke-width: 0px;
      }

      .cls-2 {
        fill: #002a60;
      }
    </style>
  </defs>
  <path class="cls-2" d="M90,100H10c-5.5,0-10-4.5-10-10V10C0,4.5,4.5,0,10,0h80c5.5,0,10,4.5,10,10v80c0,5.5-4.5,10-10,10Z"/>
  <path class="cls-1" d="M79.9,72.4v-3.7h-5.5c-.2,0-.3-.1-.4-.4-1-2.5-2.1-5-3.1-7.5-1.1-2.7-2.2-5.3-3.3-8-1.1-2.6-2.2-5.3-3.3-7.9-.9-2.2-1.9-4.5-2.8-6.8-1.1-2.6-2.2-5.3-3.3-7.9-1-2.3-2-4.7-2.9-7-.2-.4-.4-.5-.7-.6h0s-17.7,0-17.7,0v8.7h6c0,.3-.1.4-.2.6-.4,1-.9,2-1.3,3-.8,1.9-1.6,3.8-2.4,5.7-1,2.3-2,4.7-3,7-1,2.4-2,4.8-3.1,7.2-.8,2-1.7,3.9-2.6,5.9-1.1,2.5-2.1,4.9-3.2,7.4-.1.3-.3.5-.5.5h-6.4v8.7h23v-7.7h-5.7c-.1-.1-.1-.3,0-.6.3-.9.7-1.9,1.1-2.8.5-1.4,1.1-2.7,1.6-4.1.3-.7.3-.8,1.1-.8,3.5,0,7,0,10.6,0,2.5,0,5,0,7.5,0,.6,0,.7,0,.9.7.2.5.4,1,.6,1.4.7,1.9,1.5,3.7,2.2,5.6.1.4.2.6,0,.7h-6v7.7h23v-2.7c0-.7,0-1.5,0-2.3ZM43.1,53.3c2.3-6.2,4.7-12.7,7.1-19.1l.3.8c.8,2.1,1.5,4.2,2.3,6.3.9,2.6,1.9,5.1,2.8,7.6.5,1.3,1,2.7,1.4,4,0,.1,0,.3,0,.5-.5.2-13.6.2-14,0Z"/>
</svg>