<?xml version="1.0" encoding="UTF-8"?>
<svg id="Laag_1" xmlns="http://www.w3.org/2000/svg" version="1.1" viewBox="0 0 100 100">
  <!-- Generator: Adobe Illustrator 30.5.1, SVG Export Plug-In . SVG Version: 2.1.4 Build 3)  -->
  <defs>
    <style>
      .st0 {
        fill: #fff;
      }
    </style>
  </defs>
  <path d="M11.5,100h77c6.3,0,11.5-5.1,11.5-11.5V11.5C100,5.1,94.9,0,88.5,0H11.5C5.1,0,0,5.1,0,11.5v77c0,6.3,5.1,11.5,11.5,11.5Z"/>
  <g id="RgRJ1o.tif">
    <g>
      <polygon class="st0" points="12.9 56.6 12.9 56.5 19.6 43.4 22.5 43.4 29.2 56.6 25.5 56.6 21 47.6 19 51.6 21.7 51.6 23 54.4 17.6 54.4 16.5 56.6 12.9 56.6"/>
      <path class="st0" d="M82.5,56.8h-1.6c-1.4,0-2.8-.3-4.2-.8l-1.2-.5,1-2.8c1.7.9,3.7,1.3,5.7,1.3.8,0,1.7-.3,1.7-1.1s-.2-.7-.5-.8-.7-.3-1.1-.4l-2-.5c-1.3-.3-2.9-.8-3.6-2s-.5-1.2-.5-1.9.2-1.7.8-2.4c.9-1.1,2.4-1.6,3.8-1.7h1.5c1.6,0,3.2.4,4.7,1.2l-1,2.7c-1.5-.8-3.5-1.1-5.2-1s-1.4.3-1.4,1,.2.6.5.7l1,.3,2.2.5,1.5.5c1.4.6,2.5,1.6,2.7,3.2s-.5,3-1.9,3.8-1.7.7-2.6.7Z"/>
      <path class="st0" d="M69,56.8h-1.4c-3.3-.3-5.1-2.4-5.3-5.7v-7.7s3.3,0,3.3,0v7.6c0,1.2.6,2.4,1.8,2.7s1.3.2,1.9,0c1.3-.3,1.8-1.6,1.8-2.9v-7.5s3.3,0,3.3,0v7.2c0,3.5-1.8,5.9-5.3,6.2Z"/>
      <path class="st0" d="M58.8,49.7c.8.3,1.4.9,1.8,1.7s.4,2.1,0,3-.9,1.2-1.5,1.6c-.7.3-1.5.6-2.3.6h-8.1s0-13.1,0-13.1h7.8c.7,0,1.3.2,1.9.4.8.4,1.4.9,1.7,1.7.3.8.4,1.7.1,2.5-.2.7-.7,1.2-1.4,1.6ZM57.3,47.3c0-.6-.5-1.1-1.1-1.1h-4.3s0,2.3,0,2.3h4.3c.7,0,1.2-.6,1.1-1.2ZM57.6,52.3c0-.7-.6-1.1-1.3-1.2h-4.5s0,2.7,0,2.7h4.4c.8,0,1.4-.7,1.3-1.5Z"/>
      <path class="st0" d="M38.9,49.6h3.2c.3,0,.6,0,.8-.2,1-.4,1.1-1.7.6-2.5-.3-.4-.8-.6-1.3-.6h-3.9s0,10.3,0,10.3h-3.2s0-13.2,0-13.2h7.2c.9,0,1.7.2,2.5.6,1.1.5,1.8,1.4,2.1,2.6s.2,1.9-.1,2.8c-.4,1.3-1.5,2.1-2.8,2.4l3,4.7h-3.7s-4.4-7-4.4-7Z"/>
      <polygon class="st0" points="33.1 56.6 29.9 56.6 29.9 43.4 33.1 43.4 33.1 56.6"/>
    </g>
  </g>
</svg>