<?xml version="1.0" encoding="UTF-8"?>
<svg id="Laag_1" xmlns="http://www.w3.org/2000/svg" version="1.1" viewBox="0 0 100 100">
  <!-- Generator: Adobe Illustrator 30.5.1, SVG Export Plug-In . SVG Version: 2.1.4 Build 3)  -->
  <defs>
    <style>
      .st0 {
        fill: #fff;
      }

      .st1 {
        fill: #3b61c8;
      }
    </style>
  </defs>
  <path class="st0" d="M11.5,100h77c6.3,0,11.5-5.1,11.5-11.5V11.5C100,5.1,94.9,0,88.5,0H11.5C5.1,0,0,5.1,0,11.5v77c0,6.3,5.1,11.5,11.5,11.5Z"/>
  <g>
    <path class="st1" d="M52.1,36.3c0-2.2-1.8-6.1-7.3-4.4-3.7,1.2-7.8,4.6-9.2,10.3-.9,3.9.4,7.6,4.3,8.2,3.5.5,7.8-3.8,9.5-6.8,1.6-2.7,2.5-5.2,2.6-7.4Z"/>
    <path class="st1" d="M61.1,47c-4.5-.5-8.4,4.4-10.1,7.2-5.1,9-.4,11.3,1.1,11.6,1.8.4,7.2,0,11-5.9,4.4-6.9,2-12.5-2-13Z"/>
    <path class="st1" d="M50,18.9c-17.2,0-34.6,12.3-31.1,31.1,2.8,15.1,15.6,31.1,31.2,31.1s28.4-16,31.1-31.1h0c3.4-18.7-14-31.1-31.1-31.1ZM69.5,57.6c-.8,2.7-3.3,5.5-5.5,7-3.2,2.3-6.6,3-9.6,3-4.9,0-6-3.7-6.2-4.2-.2-.5-.2-1.2-.8-1.2s-.9.9-.9.9l-2.2,4h-7.4l8.3-15.9s.6-1,.2-1.1c-.5-.1-.7,0-1.8.5-1.1.4-5,2.7-9.3.6-4.2-2.1-5-6.8-3.1-11.6,1.5-3.8,6.7-9.5,14.7-9.5s6.4,3.8,6.6,4.8c0,.3.2.6.5.6.7.2,1-1,1-1l2.1-4h7.4l-8.5,16.5s-.4.9.2,1c.5,0,1-.4,2-.8,1-.4,4.6-1.7,7.6-.8,3,.9,7,3.4,4.5,11.5Z"/>
  </g>
</svg>