<?xml version="1.0" encoding="UTF-8"?>
<svg id="Laag_1" data-name="Laag 1" xmlns="http://www.w3.org/2000/svg" viewBox="0 0 100 100">
  <defs>
    <style>
      .cls-1 {
        fill: #fff;
      }

      .cls-2 {
        fill: #b7e0f0;
      }
    </style>
  </defs>
  <path class="cls-1" d="M11.49,100h77.03c6.34,0,11.49-5.14,11.49-11.49V11.49c0-6.34-5.14-11.49-11.49-11.49H11.49C5.14,0,0,5.14,0,11.49v77.03c0,6.34,5.14,11.49,11.49,11.49Z"/>
  <g id="_0SUZ9P" data-name="0SUZ9P">
    <g>
      <path class="cls-2" d="M63.22,56.6l.58-1.09-.47-.11c-1.46.79-2.73,1.66-3.97,2.76-.55.74-1.07,1.48-1.49,2.31l-1.99,3.96c-.19.39-.82.48-1.09.33-.36-.2-.56-.78-.3-1.24l2.98-5.11,1.14-2.04,1.44-2.96-1.14.86-2.25,1.8c-1.83,1.46-4.85,3.35-6.6,1.78l-.37-1.08c-1.95,1.02-4.23,2.46-6.28,1.61-.96-.4-1.16-1.52-1.1-2.49.08-1.36.68-2.42,1.21-3.78-1.19.61-2.22,1.32-3.09,2.22l-2.48,2.58-1.53,1.66c-.33.36-.97.58-1.39.3-.02-.71.33-1.36.78-1.81l1.08-1.08,1.78-1.64c.9-.83,1.57-1.73,2.06-2.91-.19-.1-.59-.18-.79-.11l-3.51,1.14c-.34.11-.57.44-.75.74l-1.11,1.82c-.64,1.05-1.14,2.07-1.59,3.24-.09.24-.42.47-.65.54s-.73-.33-.66-.57c.26-.83.63-1.55,1.09-2.24l2.14-3.19c.2-.29.35-.59.33-.98-.81.63-1.3,1.26-1.91,1.94-1.69,1.9-3.57,3.49-5.78,4.71-1.92,1.06-4.44,1.93-6.55,1.56-1.52-.27-2.92-1.33-3.35-2.82-.19-.65-.2-1.46.33-1.84.48-.35,1.14.12,1.31.65.2.63.28,1.31.68,1.89.65.95,1.99,1.56,3.19,1.27,3.33-.8,6.2-2.68,8.64-5.07l1.72-1.86,2.65-3.04c.38-.43.8-.99,1.29-1.23.12-.06.47.07.52.18.19.48-.08,1.27-.38,1.85l-.82,1.58,3.86-1.54c.4-.16,1.29-.44,1.64-.22.68.45.28,1.25-.05,1.91l1.48-.72c.31-.15.73-.42.94-.7l3.05-4.05,2.46-3.12c1.46-1.85,3.04-3.5,4.76-5.11,1.22-1.14,2.52-2.05,4.01-2.83.31-.02.94-.05,1.23.02,1.41.35.82,2.56-.03,3.9-2.91,4.61-7.24,7.59-11.79,10.34l-1.5.9c-1.18,1.49-2.08,3.07-2.57,4.93-.26.97-.3,2.26.28,2.57.18.09.6.06.79-.01l.65-.23v-1.07c.5-1.39,1.41-2.42,2.55-3.3,1.59-1.22,4.6-1.71,5.32-1.06.16.14.23.67.16.9-.44,1.44-2.45,1.8-2.49,3.33-.01.55.59.9,1.11.78s1.04-.34,1.51-.65c2.39-1.54,4.6-3.25,6.79-5.07l.61-1.43c.64-1.48,1.37-2.86,2.3-4.18s2.1-2.44,3.69-3.05c.41-.16,1.14-.42,1.53-.11.54.44.31,1.27-.04,1.78-1.66,2.41-3.65,4.41-5.9,6.25-.38.31-.93.72-1.17,1.08l-1.95,4.36,3.11-1.87,2.34-1.35c.3-.18,1.07-.28,1.04.27-.05.71-1.43,1.77-1.47,3.13,1.28-.47,2.24-1.24,3.28-2l2.19-1.62c.19-.14.73-.07.9.07s.24.65.14.86l-1.16,2.46c-.09.19-.05.59.07.79,2.42-1.18,4.52-2.67,6.58-4.38.43-.36,1.34-.38,1.5.22.33,1.29-.37,2.35.34,3.32,1.07,1.46,5.23.4,7.35-.48l3.87-1.95,2.52-1.38c.1-.06.5.12.45.21l-.24.43c-2.5,1.49-5.03,2.85-7.71,4-2.43.87-4.63,1.5-7.04.58-1.66-.63-1.14-2.27-1.25-2.8-.02-.11-.32-.09-.5-.09l-3.82,2.63-2.32,1.23c-.44.23-1.23.39-1.65.13-.48-.3-.2-1.08-.04-1.46l.67-1.55c-.65.11-.95.27-1.39.54-1.29.81-3.68,2.09-4.47,1.32-.15-.15-.2-.66-.1-.85ZM52.23,46.08c2.72-1.82,7.13-5.62,7.82-8.69.23-1.01-1.41-.94-2.94.31-.83.68-1.7,1.31-2.46,2.11-2.63,2.77-4.86,5.78-7.02,9.06.96-.31,1.62-.81,2.36-1.3l2.24-1.5ZM66.26,46.72l1.82-1.94c.2-.22.39-.69.3-.98-2.12,0-4.74,3.63-5.4,5.9,1-.64,1.74-1.39,2.49-2.18l.78-.8ZM51.78,53.53c.16-.16.26-.48.21-.73-2.08.19-4.04,1.57-4.55,3.83.96-.21,1.88-.7,2.57-1.37l1.78-1.73Z"/>
      <path d="M65.05,53.92l-2.24.02c-.1-.31.13-.54.49-.55v-1.51c-.81-.15-1.39-.11-2.23.06l.05,1.46c.35.05.56.12.58.5l-2.27.05c-.09-.34.12-.55.59-.54v-3.62c-.3-.11-.54-.33-.47-.59h2c.06.24-.13.45-.38.57-.14.3-.21,1.06,0,1.38s.87.21,1.17.17l.98-.14-.02-1.5c0-.06-.32-.13-.38-.15s-.06-.19-.03-.32l1.9-.04c.09.14.16.26.11.29l-.44.24v3.65c.38.03.64.13.61.57Z"/>
      <path d="M35.45,53.38c.39.07.63.24.59.53l-2.22.02c-.04-.27.13-.39.4-.57.32-.2.32-1.11.09-1.47-.62-.18-1.37-.19-2.01,0-.32.34-.28,1.17-.01,1.49l.36.16c.07.03.04.28.02.39h-2.21c-.02-.1-.05-.37.02-.39l.49-.19c.14-1.12.13-2.48.01-3.63-.26-.1-.48-.3-.42-.54l2.13.03c-.07.24-.19.32-.39.52-.29.28-.36,1.21.03,1.51.29.22,1.75.02,1.96-.11s.44-1.25-.26-1.6c-.07-.03-.23-.11-.2-.14.05-.04.25-.22.32-.22l1.78.05c.06.23-.16.39-.44.46v3.7Z"/>
      <path d="M6.6,53.93v-.43s.46-.17.46-.17c.09-.03.14-.33.14-.45v-2.78c0-.47-.97-.68-.61-.84.08-.03.29-.1.38-.1l1.54-.1c.47-.03,1.29.14,1.62.48.59.63.24,1.52-.51,1.96.76.26,1.21.89.91,1.58-.26.6-.92.87-1.54.86l-2.39-.02ZM8.29,51.18c.45.17.87-.09.98-.35.13-.35.11-.74-.08-1.01-.13-.2-.7-.32-.88-.15-.11.42-.11,1.1-.02,1.52ZM8.26,53.28c.11.18.66.2.85.09.37-.23.41-1.2-.08-1.46-.17-.09-.57-.1-.78,0l.02,1.37Z"/>
      <path d="M90.64,53.31c.05.06.36.13.44.15.1.03.07.34.02.47l-2.05.02c-.08,0-.25-.28-.19-.32l.31-.17c.14-.07.31-.39.32-.55v-2.69c.02-.61-.76-.61-.62-.8.04-.06.24-.23.33-.23h2.43c.48.02,1.04.4,1.13.76.21.87-.08,1.52-.9,1.84.42.79.88,1.35,1.64,1.93-.16.26-.58.41-.88.36-.24-.04-.65-.29-.82-.53l-1.05-1.47c-.31.25-.31,1.02-.1,1.24ZM91.67,50.22c-.01-.21-.34-.52-.52-.59-.15-.07-.62,0-.67.18-.15.53-.06,1.18.13,1.82.29-.06.61-.18.82-.33.24-.18.27-.57.25-1.07Z"/>
      <path d="M81.84,53.89c0,.3-.7.11-.84-.09l-2.3-3.09-.1,1.83c-.01.21.14.68.29.81l.45.14c.09.03.1.23.1.41l-1.99.02c0-.39.25-.54.64-.72v-2.98c0-.28-.45-.67-.63-.9.44-.22,1.25-.24,1.61-.01l2.09,2.72.1-1.98c0-.17-.32-.43-.47-.5l-.3-.15c-.06-.03.24-.23.31-.23l1.58.02c.07.26-.17.49-.47.59l-.05,4.11Z"/>
      <path d="M22.38,53.9c-.45.49-.9-.08-1.13-.43-.66-.97-1.22-1.72-2.05-2.74l-.08,2.22c0,.2.28.46.44.52l.35.14c.07.03-.1.35-.2.35l-1.81-.05c-.06-.29.38-.45.49-.59.43-1.02.19-3.47-.15-3.66l-.26-.15c-.07-.04.08-.34.16-.33l1.3.06,1.84,2.49.17.19c.05.06.32-.1.32-.18l-.07-1.88-.82-.6,1.69-.08s.25.13.28.16c.17.13-.45.32-.47.78l-.07,1.66c-.03.66.11,1.51.05,2.13Z"/>
      <path d="M38.6,52.38c-.13.26-.27.77-.29,1,.39.12.62.1.7.55h-1.98c-.04-.1-.11-.34-.04-.37l.45-.21c.61-1.17,1.21-2.72,1.61-3.95l1.03-.34,1.73,4.28c.2.14.4.28.62.58l-2.34.05c-.06-.13-.13-.26-.08-.29l.37-.25c.23-.16,0-.96-.28-.97l-1.49-.06ZM40.05,51.86c-.23-.69-.3-.89-.64-1.47-.31.55-.4.81-.59,1.46h1.23Z"/>
      <path d="M67.71,52.38c-.13.26-.27.77-.29.99.41.14.59.08.71.55h-1.99c-.04-.11-.11-.35-.04-.38l.46-.21c.61-1.17,1.21-2.72,1.6-3.95l1.03-.34,1.73,4.28c.2.14.4.28.62.58l-2.34.05c-.06-.13-.13-.26-.08-.29l.37-.25c.22-.15,0-.96-.29-.97l-1.49-.06ZM69.15,51.86c-.23-.69-.3-.89-.64-1.47l-.59,1.46h1.23Z"/>
      <path d="M13.23,52.4l-.36.91.72.28v.36s-1.95-.01-1.95-.01c-.26-.35.29-.44.39-.6.31-.46.68-1.24.88-1.78l.8-2.16.98-.38,1.42,3.64c.33.84.97,1.03.9,1.09-.05.04-.25.21-.32.21l-2.04-.05c-.01-.19.27-.43.41-.57.17-.18-.1-.78-.3-.94h-1.52ZM14.71,51.8c-.31-.79-.34-.88-.73-1.47l-.56,1.53,1.3-.06Z"/>
      <path d="M47.96,49.21c.14.17-.15.47-.41.48-.44,1.42.27,3.08-.73,3.94-.54.47-1.32.5-1.99.35s-1.23-.7-1.23-1.46v-2.43c-.01-.25-.31-.5-.58-.56v-.35s2.2,0,2.2,0c.02.13.04.37-.04.38l-.45.08c-.19,1.72-.3,3.84,1.08,3.77,1.26-.06,1.15-2.11.91-3.74l-.44-.07c-.1-.02-.17-.28-.13-.43l1.84.02Z"/>
      <path d="M86.48,52.23c-.15-.28-.43-.51-.65-.48-.42.05-.51.35-.47.78.02.23.06.56.12.71s.44.21.64.22c.48.02.67-.31.9-.66l.18-.29c.05-.08.37.22.35.32l-.26,1.12-3.51-.03c-.02-.34.21-.53.58-.58l.03-3.52c-.07-.06-.27-.2-.36-.24l-.24-.12c-.06-.03.03-.16.11-.28h3.49s-.02.98-.02.98c0,.08-.29.28-.33.21l-.22-.38c-.25-.42-.96-.62-1.38-.2l-.02,1.3c.14.21.8.2.9-.02.09-.2.38-.42.55-.33l.03,1.52-.41-.03Z"/>
      <path d="M52.39,52.72c-.08,1.07-1.11,1.48-2.41,1.26-.23-.04-.52-.11-.63-.23s-.15-.53-.12-.69l.07-.42c.02-.11.33-.13.39-.07l.32.69c.12.25,1.08.32,1.24-.18.05-.17-.11-.54-.25-.65l-1.11-.81c-.54-.4-.81-1.03-.61-1.67.31-1,1.82-1.13,2.96-.6v.96c0,.08-.25.26-.32.22-.45-.26-.26-.86-.99-.97-.31-.05-.85.22-.65.67.38.9,2.21,1.1,2.1,2.48Z"/>
      <path d="M75.47,52.5c-.15.14-.26-.35-.6-.59-.12-.09-.56.03-.64.13v1.26s.59.16.59.16c.07.02.22.12.28.17.07.06-.18.31-.29.31h-2.19c-.03-.09-.07-.38,0-.4l.42-.12c.18-1.2.22-2.53.05-3.74l-.45-.1c-.07-.02-.06-.25-.04-.39h3.48s0,.99,0,.99c0,.05-.15.2-.2.2-.44-.03-.22-.52-.77-.77-.2-.09-.84.03-.85.25l-.06,1.44c.1.08.63.17.76.05l.59-.57c.29.55.29,1.37-.08,1.72Z"/>
      <path d="M26.54,53.91l-2.37.04c-.02-.12-.05-.38.02-.4l.46-.17.13-2.91c.04-.93-.84-1.02-.61-1.16.04-.02.24-.14.29-.14l1.91.05c0,.2-.22.36-.35.49-.5.49-.11,1.31-.15,1.91s-.15,1.22.07,1.74c.26.06.55.17.6.55Z"/>
      <path d="M29.25,53.77c-.69.6-1.6.31-2.07-.38l-1.19-1.76.64-.8c.3-.38.6-.73.8-1.12l-.42-.17c-.07-.03-.04-.33.05-.33l1.94-.03c.09.12.19.27.13.3l-.35.13c-.7.26-1.27,1.06-1.69,1.75.53,1.01,1.17,1.7,2.15,2.42Z"/>
    </g>
  </g>
</svg>