<?xml version="1.0" encoding="UTF-8"?>
<svg id="Laag_1" data-name="Laag 1" xmlns="http://www.w3.org/2000/svg" xmlns:xlink="http://www.w3.org/1999/xlink" viewBox="0 0 100 100">
  <defs>
    <style>
      .cls-1 {
        fill: none;
      }

      .cls-2 {
        fill: #2b9969;
      }

      .cls-3 {
        fill: #fff;
      }

      .cls-4 {
        clip-path: url(#clippath);
      }
    </style>
    <clipPath id="clippath">
      <rect class="cls-3" width="100" height="100" rx="11.484" ry="11.484"/>
    </clipPath>
  </defs>
  <g id="Basis">
    <path class="cls-3" d="M11.484,0h77.032c6.343,0,11.484,5.142,11.484,11.484v77.032c0,6.343-5.142,11.484-11.484,11.484H11.484c-6.343,0-11.484-5.142-11.484-11.484V11.484C0,5.142,5.142,0,11.484,0Z"/>
  </g>
  <g id="Laag_1-2" data-name="Laag 1">
    <g>
      <rect class="cls-3" width="100" height="100" rx="11.484" ry="11.484"/>
      <g class="cls-4">
        <path class="cls-3" d="M11.484,0h77.032c6.343,0,11.484,5.142,11.484,11.484v77.032c0,6.343-5.142,11.484-11.484,11.484H11.484c-6.343,0-11.484-5.142-11.484-11.484V11.484C0,5.142,5.142,0,11.484,0Z"/>
      </g>
    </g>
  </g>
  <g>
    <path class="cls-1" d="M45.013,70.928c-.809.005-1.491.607-1.595,1.41h3.197c-.164-.973-.951-1.41-1.602-1.41Z"/>
    <polygon class="cls-1" points="43.418 72.813 43.418 72.814 43.418 72.814 43.418 72.813 43.418 72.813"/>
    <path class="cls-1" d="M36.148,70.928c-.809.005-1.491.607-1.595,1.41h3.198c-.165-.973-.951-1.41-1.602-1.41Z"/>
    <path class="cls-1" d="M60.881,72.594c0-1.086-.914-1.667-1.617-1.667-.749,0-1.618.619-1.618,1.711,0,.959.771,1.668,1.618,1.668.794,0,1.617-.634,1.617-1.712Z"/>
    <path class="cls-1" d="M54.749,74.306c.794,0,1.618-.634,1.618-1.712,0-1.086-.914-1.667-1.618-1.667-.749,0-1.618.619-1.618,1.711,0,.959.772,1.668,1.618,1.668Z"/>
    <path class="cls-1" d="M21.937,70.927c-.899,0-1.677.656-1.677,1.704,0,.92.674,1.675,1.677,1.675.883,0,1.64-.716,1.64-1.682,0-.906-.697-1.697-1.64-1.697Z"/>
    <path class="cls-1" d="M33.22,55.985c0-1.052-.708-2.342-2.762-2.342h-1.92v4.8h1.246c.741,0,3.436-.034,3.436-2.459Z"/>
    <polygon class="cls-1" points="34.553 72.813 34.553 72.814 34.553 72.814 34.553 72.813 34.553 72.813"/>
    <path class="cls-1" d="M67.366,70.927c-.898,0-1.678.656-1.678,1.704,0,.92.675,1.675,1.678,1.675.884,0,1.64-.716,1.64-1.682,0-.906-.697-1.697-1.64-1.697Z"/>
    <path class="cls-1" d="M26.908,74.306c1.004,0,1.677-.755,1.677-1.675,0-1.048-.779-1.704-1.677-1.704-.943,0-1.639.792-1.639,1.697,0,.965.756,1.682,1.639,1.682Z"/>
    <path class="cls-1" d="M31.625,74.306c1.004,0,1.677-.755,1.677-1.675,0-1.048-.778-1.704-1.677-1.704-.943,0-1.64.792-1.64,1.697,0,.965.756,1.682,1.64,1.682Z"/>
    <path class="cls-1" d="M72.031,70.928c-.809.005-1.491.607-1.594,1.41h3.196c-.164-.973-.95-1.41-1.602-1.41Z"/>
    <polygon class="cls-1" points="70.437 72.813 70.437 72.813 70.437 72.813 70.437 72.813"/>
    <polygon class="cls-1" points="70.437 72.814 70.437 72.814 70.437 72.813 70.437 72.814"/>
    <path class="cls-1" d="M78.269,70.927c-.899,0-1.678.656-1.678,1.704,0,.92.675,1.675,1.678,1.675.883,0,1.639-.716,1.639-1.682,0-.906-.697-1.697-1.639-1.697Z"/>
    <path class="cls-1" d="M84.588,72.594c0-1.086-.913-1.667-1.617-1.667-.749,0-1.618.619-1.618,1.711,0,.959.772,1.668,1.618,1.668.794,0,1.617-.634,1.617-1.712Z"/>
    <polygon class="cls-2" points="71.098 64.517 71.098 53.644 73.489 53.644 73.489 51.964 66.886 51.964 66.886 53.644 69.279 53.644 69.279 64.517 71.098 64.517"/>
    <path class="cls-2" d="M41.64,64.755c3.031,0,6.366-2.274,6.434-6.481h-7.882v1.68h5.811c-1.196,3.088-3.941,3.122-4.295,3.122-2.357,0-4.632-2.035-4.632-4.801,0-2.629,2.02-4.868,4.614-4.868,1.836,0,2.88,1.137,3.402,1.714h2.122c-1.212-2.256-3.47-3.393-5.592-3.393-3.588,0-6.366,2.935-6.366,6.547,0,3.512,2.745,6.481,6.383,6.481Z"/>
    <polygon class="cls-2" points="55.418 53.644 55.418 51.964 48.697 51.964 48.697 64.517 55.418 64.517 55.418 62.837 50.516 62.837 50.516 59.021 55.418 59.021 55.418 57.342 50.516 57.342 50.516 53.644 55.418 53.644"/>
    <polygon class="cls-2" points="58.432 54.814 58.466 54.814 64.63 64.517 66.517 64.517 66.517 51.964 64.698 51.964 64.698 61.515 64.664 61.515 58.601 51.964 56.613 51.964 56.613 64.517 58.432 64.517 58.432 54.814"/>
    <path class="cls-2" d="M28.537,58.699h.034l4.11,5.818h2.274l-3.486-4.681c.809,0,3.571-.526,3.571-3.851,0-1.052-.354-2.205-1.146-2.969-.656-.628-1.566-1.052-3.318-1.052h-3.857v12.553h1.819v-5.818ZM28.538,53.643h1.92c2.055,0,2.762,1.289,2.762,2.342,0,2.425-2.695,2.459-3.436,2.459h-1.246v-4.8Z"/>
    <path class="cls-2" d="M76.095,60.795l8.288.008,4.928,3.816h2.812l-16.03-12.676h-1.968v12.676h1.971v-3.824ZM76.095,54.387l5.959,4.614-5.959.024v-4.637Z"/>
    <path class="cls-2" d="M15.617,60.803l8.287-.008v3.824h1.972v-12.676h-1.969l-16.03,12.676h2.813l4.928-3.816ZM23.904,54.387v4.637l-5.958-.024,5.958-4.614Z"/>
    <polygon class="cls-2" points="67.411 23.129 58.038 23.129 53.201 27.036 62.825 27.036 67.411 23.129"/>
    <polygon class="cls-2" points="61.515 40.79 61.515 37.288 53.05 44.545 56.879 44.545 61.515 40.79"/>
    <polygon class="cls-2" points="61.515 36.476 61.515 32.365 59.565 30.722 44.89 43.136 46.701 44.545 51.991 44.545 61.515 36.476"/>
    <polygon class="cls-2" points="52.697 21.708 51.991 22.317 51.991 27.087 52.697 26.529 52.697 21.708"/>
    <polygon class="cls-2" points="58.882 30.147 56.577 28.204 51.588 28.204 41.812 36.628 41.812 40.739 44.26 42.645 58.882 30.147"/>
    <polygon class="cls-2" points="46.55 28.204 41.812 32.466 41.812 35.36 50.53 28.204 46.55 28.204"/>
    <rect class="cls-2" x="7.902" y="66.762" width="84.222" height=".806"/>
    <rect class="cls-2" x="7.902" y="77.487" width="84.222" height=".806"/>
    <path class="cls-2" d="M8.205,70.557v2.278c0,.438.067.965.36,1.328.179.226.598.618,1.407.618.763,0,1.161-.429,1.31-.739h.015v.64h.494s0,0,0,0v-4.125h-.524v2.18c0,.724-.187.996-.427,1.237-.262.264-.577.332-.869.332-.285,0-.666-.068-.951-.392-.18-.227-.292-.566-.292-1.086v-2.27h-.524Z"/>
    <polygon class="cls-2" points="40.281 69.102 40.281 70.558 39.42 70.558 39.42 71.033 40.281 71.033 40.281 74.683 40.805 74.683 40.805 71.033 41.786 71.033 41.786 70.558 40.805 70.558 40.805 69.102 40.281 69.102"/>
    <path class="cls-2" d="M41.965,74.396c0,.709-.142,1.192-.831,1.214v.521c.232-.007.546-.015.906-.331.449-.4.449-.906.449-1.404v-3.839h-.524v3.839Z"/>
    <polygon class="cls-2" points="50.816 74.027 49.371 70.558 48.81 70.558 50.54 74.683 51.115 74.683 52.845 70.558 52.284 70.558 50.816 74.027"/>
    <path class="cls-2" d="M46.833,71.508c-.38-.65-1.074-1.052-1.827-1.056-1.191.023-2.127,1.004-2.127,2.173,0,1.221.988,2.156,2.134,2.156.943,0,1.73-.626,2.014-1.448h-.554c-.187.512-.719.958-1.468.973-.801,0-1.55-.686-1.588-1.493h0s0,0,0,0c0,0,0,0,0,0h3.729c.023-.4-.037-.86-.314-1.305ZM43.418,72.338c.104-.803.785-1.405,1.595-1.41.651,0,1.438.437,1.602,1.41h-3.197Z"/>
    <rect class="cls-2" x="41.966" y="69.102" width=".524" height=".951"/>
    <path class="cls-2" d="M24.773,70.558v5.574h.524v-2.172h.015c.457.672,1.168.822,1.595.822,1.288,0,2.202-.987,2.202-2.172,0-1.101-.861-2.157-2.202-2.157-.442,0-1.123.151-1.595.83h-.015v-.725h-.524ZM26.908,70.927c.898,0,1.677.656,1.677,1.704,0,.92-.674,1.675-1.677,1.675-.883,0-1.639-.716-1.639-1.682,0-.906.696-1.697,1.639-1.697Z"/>
    <path class="cls-2" d="M37.968,71.508c-.38-.65-1.074-1.052-1.827-1.056-1.191.023-2.126,1.004-2.126,2.173,0,1.221.988,2.156,2.134,2.156.943,0,1.73-.626,2.014-1.448h-.554c-.187.512-.719.958-1.468.973-.801,0-1.55-.686-1.588-1.493h0s0,0,0,0c0,0,0,0,0,0h3.729c.023-.4-.037-.86-.314-1.305ZM37.75,72.338h-3.198c.105-.803.786-1.405,1.595-1.41.651,0,1.438.437,1.602,1.41h0Z"/>
    <path class="cls-2" d="M24.071,74.683v-4.125h-.524v.725h-.015c-.435-.686-1.154-.83-1.595-.83-1.34,0-2.201,1.056-2.201,2.157,0,1.184.913,2.172,2.201,2.172.427,0,1.146-.143,1.595-.822h.015v.724h.524ZM21.937,74.306c-1.003,0-1.677-.755-1.677-1.675,0-1.048.778-1.704,1.677-1.704.943,0,1.64.792,1.64,1.697,0,.965-.756,1.682-1.64,1.682Z"/>
    <rect class="cls-2" x="38.694" y="69.102" width=".524" height="5.581"/>
    <polygon class="cls-2" points="15.003 71.938 15.019 71.938 15.887 74.683 16.479 74.683 18.044 70.558 17.504 70.558 16.202 74.012 16.186 74.012 15.244 71.056 14.786 71.056 13.851 74.012 13.836 74.012 12.548 70.558 12.001 70.558 13.558 74.683 14.15 74.683 15.003 71.938"/>
    <path class="cls-2" d="M85.112,72.617c0-1.132-.936-2.166-2.148-2.166-1.079,0-2.135.891-2.135,2.196,0,1.115.936,2.134,2.135,2.134,1.227,0,2.148-1.04,2.148-2.164ZM81.353,72.639c0-1.092.869-1.711,1.618-1.711.704,0,1.617.581,1.617,1.667,0,1.079-.823,1.712-1.617,1.712-.846,0-1.618-.708-1.618-1.668Z"/>
    <path class="cls-2" d="M54.742,74.781c1.228,0,2.149-1.04,2.149-2.164,0-1.132-.936-2.166-2.149-2.166-1.079,0-2.134.891-2.134,2.196,0,1.115.936,2.134,2.134,2.134ZM54.749,70.927c.704,0,1.618.581,1.618,1.667,0,1.079-.824,1.712-1.618,1.712-.846,0-1.618-.708-1.618-1.668,0-1.092.869-1.711,1.618-1.711Z"/>
    <path class="cls-2" d="M85.517,70.558h0s0,0,0,0v4.125h.523v-2.413c-.004-.308.096-.609.286-.853.202-.241.516-.377.884-.407v-.558c-.443.03-.906.121-1.153.701h-.016v-.595h-.523Z"/>
    <path class="cls-2" d="M80.403,74.683v-5.581h-.525v2.165h-.015c-.441-.648-1.145-.814-1.594-.814-1.34,0-2.201,1.056-2.201,2.157,0,1.184.914,2.172,2.201,2.172.434,0,1.161-.166,1.594-.822h.015v.724h.525ZM78.269,74.306c-1.003,0-1.678-.755-1.678-1.675,0-1.048.779-1.704,1.678-1.704.943,0,1.639.792,1.639,1.697,0,.965-.756,1.682-1.639,1.682Z"/>
    <path class="cls-2" d="M87.221,73.46c-.023.928.689,1.32,1.258,1.32.869,0,1.296-.565,1.289-1.274,0-.852-.689-1.116-1.169-1.275-.3-.097-.733-.248-.733-.685,0-.28.201-.619.621-.619.232,0,.577.143.614.649h.524c.008-.649-.502-1.125-1.115-1.125-.756,0-1.169.567-1.169,1.147,0,.777.667,1.003,1.086,1.146.307.128.816.256.816.822,0,.446-.27.74-.764.74-.187,0-.718-.061-.733-.846h0s-.526,0-.526,0Z"/>
    <polygon class="cls-2" points="90.524 69.102 90.524 70.558 89.663 70.558 89.663 71.033 90.524 71.033 90.524 74.683 91.049 74.683 91.049 71.033 92.03 71.033 92.03 70.558 91.049 70.558 91.049 69.102 90.524 69.102"/>
    <path class="cls-2" d="M73.851,71.508c-.38-.65-1.074-1.052-1.827-1.056-1.191.023-2.127,1.004-2.127,2.173,0,1.221.988,2.156,2.135,2.156.944,0,1.73-.626,2.014-1.448h-.554c-.187.512-.719.958-1.467.973-.801,0-1.55-.686-1.587-1.493h0s0,0,0,0h0s0,0,0,0h3.729c.023-.4-.037-.86-.314-1.305ZM70.437,72.338c.104-.803.785-1.405,1.594-1.41.652,0,1.438.437,1.602,1.41h-3.196Z"/>
    <path class="cls-2" d="M69.501,74.683v-5.581h-.524v2.165h-.015c-.442-.648-1.146-.814-1.595-.814-1.34,0-2.201,1.056-2.201,2.157,0,1.184.914,2.172,2.201,2.172.434,0,1.161-.166,1.595-.822h.015v.724h.524ZM67.366,74.306c-1.002,0-1.678-.755-1.678-1.675,0-1.048.78-1.704,1.678-1.704.944,0,1.64.792,1.64,1.697,0,.965-.756,1.682-1.64,1.682Z"/>
    <path class="cls-2" d="M29.491,70.558v5.574h.524v-2.172h.015c.456.672,1.168.822,1.594.822,1.288,0,2.202-.987,2.202-2.172,0-1.101-.861-2.157-2.202-2.157-.442,0-1.123.151-1.594.83h-.015v-.725h-.524ZM31.625,70.927c.899,0,1.677.656,1.677,1.704,0,.92-.673,1.675-1.677,1.675-.883,0-1.64-.716-1.64-1.682,0-.906.697-1.697,1.64-1.697Z"/>
    <path class="cls-2" d="M61.405,72.617c0-1.132-.936-2.166-2.148-2.166-1.079,0-2.135.891-2.135,2.196,0,1.115.936,2.134,2.135,2.134,1.228,0,2.148-1.04,2.148-2.164ZM57.647,72.639c0-1.092.869-1.711,1.618-1.711.703,0,1.617.581,1.617,1.667,0,1.079-.823,1.712-1.617,1.712-.847,0-1.618-.708-1.618-1.668Z"/>
    <path class="cls-2" d="M61.81,70.558h0s0,0,0,0v4.125h.524v-2.413c0-.332.104-.626.285-.853.202-.241.516-.377.884-.407v-.558c-.442.03-.906.121-1.154.701h-.014v-.595h-.524Z"/>
  </g>
</svg>