<?xml version="1.0" encoding="UTF-8"?>
<svg xmlns="http://www.w3.org/2000/svg" xmlns:xlink="http://www.w3.org/1999/xlink" viewBox="0 0 100 100">
  <defs>
    <style>
      .cls-1 {
        fill: none;
      }

      .cls-2 {
        fill: #00008f;
      }

      .cls-3 {
        fill: #fff;
      }

      .cls-4 {
        fill: #ff1721;
      }

      .cls-5 {
        clip-path: url(#clippath);
      }
    </style>
    <clipPath id="clippath">
      <path class="cls-1" d="M11.484,0h77.032c6.343,0,11.484,5.142,11.484,11.484v77.032c0,6.343-5.142,11.484-11.484,11.484H11.484c-6.343,0-11.484-5.142-11.484-11.484V11.484C0,5.142,5.142,0,11.484,0Z"/>
    </clipPath>
  </defs>
  <g id="Basis">
    <path class="cls-3" d="M11.484,0h77.032c6.343,0,11.484,5.142,11.484,11.484v77.032c0,6.343-5.142,11.484-11.484,11.484H11.484c-6.343,0-11.484-5.142-11.484-11.484V11.484C0,5.142,5.142,0,11.484,0Z"/>
  </g>
  <g id="Laag_1" data-name="Laag 1">
    <g class="cls-5">
      <path class="cls-2" d="M11.484,0h77.032c6.343,0,11.484,5.142,11.484,11.484v77.032c0,6.343-5.142,11.484-11.484,11.484H11.484c-6.343,0-11.484-5.142-11.484-11.484V11.484C0,5.142,5.142,0,11.484,0Z"/>
      <g>
        <path class="cls-4" d="M100,0h-5.617l-38.158,49.385h5.743L100,0Z"/>
        <path class="cls-3" d="M76.41,71.423c1.743,4.876,5.335,17.566,6.763,18.577h-9.429c-.028-1.122-.177-2.238-.443-3.328-.407-1.45-3.817-12.423-3.817-12.423h-14.977l-2.355,3.339s2.829,8.854,3.004,9.288c.305.782,1.655,3.125,1.655,3.125h-9.036s-.235-1.352-.322-1.915c-.071-.455-.856-2.945-.856-2.945,0,0-2.048,2.244-2.606,3.285-.563,1.039-.813,1.576-.813,1.576h-7.069s-.236-1.352-.324-1.915c-.069-.455-.934-3.146-.934-3.146,0,0-1.979,2.403-2.542,3.442-.56,1.04-.801,1.619-.801,1.619h-6.992s1.976-1.881,2.666-2.689c1.165-1.37,5.503-7.04,5.503-7.04l-1.74-6.022h-14.864s-8.475,11.136-8.809,11.48c-.338.339-2.808,3.885-2.863,4.27H0v-2.804c.055-.06.113-.116.174-.169.136-.1,6.425-7.906,12.202-15.604,5.192-6.713,10.063-13.241,10.49-13.864,1.035-1.504,2.527-4.75,2.527-4.75h7.684s.238,2.987.462,3.712c.199.641,4.881,16.002,4.992,16.168l2.589-3.311-4.425-13.622s-1.037-2.563-1.375-2.947h8.976c-.032.824.067,1.648.293,2.441.365,1.123,2.289,8.067,2.289,8.067,0,0,6.122-7.674,6.48-8.226.435-.687.694-1.471.756-2.282h7.479s-1.369,1.001-3.769,4.036c-.806,1.021-8.704,11.059-8.704,11.059,0,0,.69,2.35,1.025,3.519.091.336.155.563.155.587,0,.011.174-.203.473-.587,2.038-2.582,11.307-14.737,11.869-15.777.453-.84,1.12-1.797,1.511-2.837h7.296s.169,2.179.391,2.782l4.568,15.832ZM65.306,59.918c-1.071,2.305-7.378,9.982-7.378,9.982h9.987s-1.936-5.961-2.274-7.305c-.173-.859-.239-1.736-.197-2.611,0-.122-.022-.32-.14-.065ZM26.933,59.918c-1.071,2.305-7.378,9.982-7.378,9.982h9.987s-1.934-5.961-2.272-7.305c-.172-.859-.238-1.736-.196-2.611,0-.122-.024-.32-.141-.065h0ZM41.969,83.196l2.749-3.775c-.253-.272-1.802-4.968-1.802-4.968l-2.658,3.448,1.711,5.295Z"/>
      </g>
    </g>
  </g>
</svg>