<?xml version="1.0" encoding="UTF-8"?>
<svg id="Laag_1" data-name="Laag 1" xmlns="http://www.w3.org/2000/svg" version="1.1" viewBox="0 0 100 100">
  <defs>
    <style>
      .cls-1 {
        fill: #fff;
      }

      .cls-1, .cls-2 {
        stroke-width: 0px;
      }

      .cls-2 {
        fill: #c6562c;
      }
    </style>
  </defs>
  <path class="cls-2" d="M90,100H10c-5.5,0-10-4.5-10-10V10C0,4.5,4.5,0,10,0h80c5.5,0,10,4.5,10,10v80c0,5.5-4.5,10-10,10Z"/>
  <path class="cls-1" d="M59.1,55.1l-2.8-2v-3.3s2.8,1.9,2.8,1.9v3.3s0,0,0,0ZM63.2,54c-.7-3.5-3.1-6.5-3.1-6.5v3.8c2.3,1.6,3.1,2.7,3.1,2.7h0ZM59.1,50.6v-4.3c-1.2.6-3.3,1.8-3.3,1.8l3.3,2.5ZM55.3,48.4l-3.2,1.8,3.3,2.3v-4.1ZM63.3,55.3c-1.7-1.8-3.2-2.8-3.2-2.8v2.8s2.8.9,3.6,2.3c0,0,0-.6-.2-1.4-.1-.6-.2-.9-.2-.9h0ZM56.2,57.6c1.4,1.4,2.7,2.1,2.7,2.1,0,0,0-.3.1-1.7,0-.4,0-1.7,0-1.7l-2.8-2v3.3s0,0,0,0ZM55.4,53.7l-3-2.1c0-.1.5,1.5,1.1,2.7.8,1.5,1.8,2.6,1.8,2.6v-3.1c0,0,0,0,0,0ZM60.6,56.7c.2,0,4,1.4,3.2,4h0s-3.4,7.8-3.4,7.8c-.6,1.2.7,1.2.7,1.2,0,0,1.6,0,1.6,1.5,0,.2,0,.8,0,.8,0,0-.3,0-.6,0h-2.4c-.2.1-.7.6-1.2,1.7-.7,2.1-2.3,2.2-2.3,2.2,0,0-.8-.9-.8-2-.7.9-2.9.8-3.2.6,0-.8.3-2.4,1.1-3.5-.2,0-.7,0-.9,0-.2,0-.8,0-.8,0,0,0,.3-.5.4-.7.3-.6,1.1-1.5,1.4-1.7.3-.2.9-.3,1.7-.4.5,0,1.2-.1,1.4-.3h0s3.3-1.9,3.4-10.9v-.6l.6.2h0ZM62.9,60.9h-2.3c-.9,6-3.2,7.7-3.5,7.8-.3.2-1,.2-1.8.3-.5,0-1.1.2-1.3.3-.4.1-.9,1-.9,1,0,0,.3,0,.5,0,.3,0,1.8-.2,1.8-.2.3,0,.5.3.5.4,0,.3-.1.4-.5.4h0c-.1,0-.3,0-.5,0h-.3c-.1,0-.4.1-.6.4-.3.4-.6,1.2-.8,2,0,.2,0,.5,0,.5,0,0,.3,0,.5,0,1.5,0,2-2,2.2-2.2,0,0,.8-.3.5,1.1-.5,1.5.2,2.3.2,2.3,0,0,.8-.3,1.2-1.6h0c.7-1.7,1.5-2.1,1.6-2.2h0s2.1,0,2.1,0c.1,0,.4,0,.4,0,0,0,0-.1,0-.3,0-.3-.3-.5-.9-.5-.8,0-1.1-.2-1.4-.6-.4-.5-.2-.9,0-1.2l3.3-7.6h0ZM47.2,68.9c1.3-6.7.3-7.8.3-7.8,0,0,.6-4.3,0-7.2-.3-1.5,0-5.2,0-5.2,0,0-.2-.3-.6.2-1.8-.5-3.9.6-4.6.7-.5,0-1.4.1-1.4.1-.2,0-.4.9.5,1.2,1,.4,1.2.5,1.2.5l-.9,1.1s.1.4.6.4c.4,0,.7.3.2,1.1-.7,1.1-2,1.7-2,1.7,0,0-.7.2-1,.2-.3,0-1.4,0-1.4,0v-1.1h1.9l-1.4-3.2h.9l-1.1-2.8h.6l-1.7-3.5-1.7,3.5h.7l-1.1,2.8h.9l-1.4,3.2h1.9v1.1s-.5.3-.6.8c-.1.6.6,1.1.6,1.1,0,0,0,1.8,0,2.2,0,.2-.3.4-.4.4-.2.1-.3.4-.2.6.1.2.3.5.7.6,0,.6,0,2,0,2l-.6.6.7.6-.4.5.9.8.9-.8-.3-.5.6-.6-.6-.6v-2l2.6-.6s1.7,1.4,1.2,2.9c-.4,1.1-2.6,3.4-2.6,3.4-1.7,2.4-.4,3,0,3.9.3.7-.3,1.6-1.5,2.2-.8.6-.6,1.2-.6,1.2h4.1s.2-1,.2-1.4c0-1.1,0-1.8,0-1.8,0-2.6,2.2-2.8,2.2-2.8.4.8.6,1.1,1,1.7.8,1.2.9,2.2.9,2.2-.3.8-.7.7-1.2,1.1-.4.2-.4,1-.4,1h2.9c2.3,0,1.4-1.5,1.4-1.5-1.1-2-.6-4.2-.6-4.2h0ZM37.4,27.3s-6.2-3.5-10.6,1.6v5.6s3.6-5,10-2.6l-1-2.7,1.6-2h0ZM26.9,35.8c.9,2.8,6.5,4.2,7.1,4.3.7,0,2.7,0,2.7,0l6.7-3.1-.4-1.5c-2.1.5-8.4,1.8-14.2-1.8,0,0-1.1.8-2,2.2h0ZM36.9,41s-9.1-1.1-11.3,3.9v5.2l1.1.8c1.8-2.1,4.3-2.3,4.3-2.3v-6.2h8.6s-2.7-1.4-2.7-1.4h0ZM31,49.5s-2.3.2-3.6,2l3.6,2.5v-4.4ZM33.6,67.1s.2-1-.6-1.8c0,0-1.9,1.9-5.6,2.7l1.6,2.8-1.5,4.3c1.1-.3,3.1-1.1,5.1-2.6.2-.7.7-2.3,1-5.5h0ZM33.9,65.3s1-8.5-2.9-10.6l-5.4-3.6v7s.2.9,3,3.1c1.7,1.4,3.3,2.4,4.1,2.9,1,.7,1.1,1.1,1.1,1.1h0ZM40.8,78.8c4.7,2.6,8.7,2.5,8.7,2.5v-33.4l-7.1-3.8h-9.7v11.1c3.5,3.8,1.9,12.6.8,17.3,0,0,2.7,3.8,7.4,6.3h0ZM50,23.3l8.8,4.6-1.7,6.9c2.4.5,7.9,1.8,13.5-1.6-3.8-2.6-8.6,0-8.6,0l1.5-3.9-1.9-2.3s7.5-4.6,12.4,1.5h0v6.9c0,2.9-4.9,4.5-6,4.9,6,.7,7.1,4.4,7.1,4.4v13.8s-.4,1.3-2.7,3.1c-2.2,1.8-4.6,3.1-4.6,3.1.7.7,2.4,2.2,5.4,2.7h.6c0,.1-2,3.6-2,3.6l1.9,5.4s-3.4-.7-6.2-2.6c-8.5,9.9-17.5,9.2-17.5,9.2,0,0-9.9.5-17.6-9.2-2.9,2-6.2,2.6-6.2,2.6l1.9-5.4-2-3.5h.6c3-.6,4.8-2,5.6-2.7-6.1-3.7-7.5-6.3-7.5-6.3v-13.8s1.1-3.7,7.1-4.4c-1-.3-6-1.9-6-4.9v-6.8h0c4.8-6.3,12.4-1.6,12.4-1.6l-1.9,2.3,1.5,3.9s-4.8-2.6-8.6,0c5.6,3.4,11.1,2.1,13.5,1.6l-1.7-6.9,8.8-4.6h0ZM50,47.2l12.2-6.6-6-2.8c-2.3.7-4.2,2.7-5.2,3.8.8.8.8,3.3-1,3.3s-1.8-2.5-1-3.3c-1-1.1-3-3.1-5.2-3.8l-6,2.8,12.2,6.6h0ZM50,41.4c.8-1,3-3.5,5.7-4.4l1.4-5.8-2.5-.7c-.2,1.1-1.3,3.1-4.2,5.1v-7.6l6.9,2.4.2-.6-7.5-3.2-7.5,3.2.2.6,6.9-2.4v7.6c-2.9-2-4-3.9-4.2-5.1l-2.5.7,1.4,5.8c2.7.9,4.9,3.5,5.7,4.4h0ZM50,25.4l7.7,3.4v-.5c.1,0-7.7-4.1-7.7-4.1l-7.9,4.1v.5c.1,0,7.9-3.4,7.9-3.4h0ZM64.2,29.1l-.9,2.8c6.3-2.4,9.9,2.7,9.9,2.7v-5.6c-4.3-5.1-10.5-1.6-10.5-1.6l1.6,1.8h0ZM73.1,35.8c-.8-1.4-2-2.2-2-2.2-5.8,3.6-12.1,2.3-14.2,1.8l-.4,1.5,6.7,3.1s1.9,0,2.7,0c.6,0,6.3-1.5,7.1-4.3h0ZM60.4,42.4h8.5v6.3s2.5.2,4.3,2.3l1.2-.8v-5.2c-2.2-5-11.3-3.9-11.3-3.9l-2.7,1.4h0ZM68.9,53.9l3.6-2.5c-1.4-1.8-3.6-1.9-3.6-1.9v4.4ZM66.4,67.1c.3,3,.9,4.9,1.1,5.5,1.9,1.4,4,2.2,5.1,2.6l-1.5-4.3,1.6-2.8c-1.8-.4-3.3-1.2-4.3-1.9-.5-.4-.7-.6-1-.8,0,0-.9.9-.8,1.8h0ZM74.3,58.2v-7.1l-5.4,3.6c-4,2.4-2.8,10.7-2.8,10.7,0,0,0-.6,1.2-1.3,1.1-.7,1.1-.6,3.7-2.4,2.9-2.1,3.3-3.5,3.3-3.5ZM66.5,72.4c-.8-3.4-2.8-13.5.8-17.4v-11s-9.7,0-9.7,0l-7.2,3.9v33.4s4,0,8.5-2.5c4.8-2.8,7.5-6.3,7.5-6.3h0ZM50,17.1l-7.9,4.8h15.8s-7.9-4.8-7.9-4.8Z"/>
</svg>