<?xml version="1.0" encoding="UTF-8"?>
<svg id="Laag_1" data-name="Laag 1" xmlns="http://www.w3.org/2000/svg" version="1.1" viewBox="0 0 100 100">
  <defs>
    <style>
      .cls-1 {
        fill: #002e5f;
      }

      .cls-1, .cls-2 {
        stroke-width: 0px;
      }

      .cls-2 {
        fill: #fff;
      }
    </style>
  </defs>
  <path class="cls-1" d="M90,100H10c-5.5,0-10-4.5-10-10V10C0,4.5,4.5,0,10,0h80c5.5,0,10,4.5,10,10v80c0,5.5-4.5,10-10,10Z"/>
  <path id="path3131" class="cls-2" d="M62.6,19.4c-3.9-1.6-8.1-2.5-12.6-2.5s-8.7.9-12.6,2.5l7.9,13.6c1.5-.4,3.1-.7,4.7-.7s3.2.2,4.7.7l7.9-13.6ZM29.8,76.2l7.8-13.6c-2.2-2.2-3.9-5-4.7-8.2h-15.7c1.2,8.8,5.8,16.6,12.6,21.8M37.7,37.4l-7.8-13.6c-6.7,5.2-11.4,12.9-12.6,21.8h15.7c.8-3.1,2.5-6,4.7-8.2M37.4,80.6c3.9,1.6,8.1,2.5,12.6,2.5s8.7-.9,12.6-2.5l-7.9-13.6c-1.5.4-3.1.7-4.7.7s-3.2-.2-4.7-.7l-7.9,13.6ZM62.3,62.6l7.8,13.6c6.7-5.2,11.4-12.9,12.6-21.8h-15.7c-.8,3.1-2.5,6-4.7,8.2M82.8,45.6c-1.2-8.8-5.8-16.6-12.6-21.8l-7.8,13.6c2.2,2.2,3.9,5,4.7,8.2h15.7Z"/>
</svg>