<?xml version="1.0" encoding="UTF-8"?>
<svg id="Laag_1" data-name="Laag 1" xmlns="http://www.w3.org/2000/svg" viewBox="0 0 100 100">
  <defs>
    <style>
      .cls-1 {
        fill: #fff;
      }

      .cls-2 {
        fill: #182630;
      }

      .cls-3 {
        fill: #d52819;
      }
    </style>
  </defs>
  <path class="cls-1" d="M11.49,100h77.03c6.34,0,11.49-5.14,11.49-11.49V11.49C100,5.14,94.86,0,88.51,0H11.49C5.14,0,0,5.14,0,11.49v77.03c0,6.34,5.14,11.49,11.49,11.49Z"/>
  <g>
    <g>
      <path class="cls-3" d="M43.41,37.85c-1.22,0-2.42.29-3.5.83.1,6.38,5.91,11,8.86,12.45,3.08-2.94,3.19-7.82.25-10.9-1.46-1.53-3.49-2.39-5.61-2.38"/>
      <path class="cls-3" d="M59.99,38.5v-8.11h-6.89c3.06,1.95,5.46,4.78,6.89,8.11"/>
      <path class="cls-3" d="M56.47,46.95c1.08-1.2,1.96-2.56,2.61-4.03-1.03-5.91-5.27-10.74-11-12.52h-8.17v5.95c1.12-.42,2.31-.64,3.5-.65,5.44,0,9.85,4.4,9.86,9.84,0,1.84-.51,3.65-1.49,5.21,1.76-1,3.34-2.28,4.69-3.79"/>
    </g>
    <g>
      <path class="cls-2" d="M18.3,64.78c0,1.59-.81,3.26-3.14,3.26-1.69.04-3.1-1.29-3.14-2.99,0-.09,0-.18,0-.27,0-2.08,1.2-3.38,3.16-3.38,1.7-.03,3.1,1.33,3.13,3.03,0,.12,0,.23-.01.35M15.18,59.87c-2.59-.07-4.74,1.98-4.81,4.57,0,.11,0,.23,0,.34-.15,2.52,1.77,4.68,4.28,4.83.17,0,.34.01.5,0,2.69-.04,4.83-2.26,4.79-4.95-.04-2.62-2.15-4.73-4.77-4.79"/>
      <path class="cls-2" d="M28.71,66.96c-.59.57-1.4.87-2.22.83h-1.91v-6.15h1.91c1.59-.09,2.94,1.13,3.03,2.71,0,.09,0,.19,0,.28.05.85-.24,1.69-.81,2.32M26.49,60.03h-3.57v9.37h3.57c1.26.05,2.49-.41,3.4-1.28.87-.94,1.33-2.18,1.28-3.46.1-2.45-1.8-4.52-4.25-4.63-.14,0-.29,0-.43,0"/>
      <path class="cls-2" d="M39.95,66.96c-.59.57-1.4.87-2.22.83h-1.91v-6.15h1.91c1.59-.09,2.94,1.13,3.03,2.71,0,.09,0,.19,0,.28.05.85-.24,1.69-.81,2.32M37.73,60.03h-3.57v9.37h3.57c1.26.05,2.49-.41,3.4-1.28.87-.94,1.33-2.18,1.28-3.46.1-2.45-1.8-4.52-4.25-4.63-.14,0-.29,0-.43,0"/>
      <path class="cls-2" d="M52.79,64.78c0,1.59-.81,3.26-3.14,3.26-1.69.04-3.1-1.29-3.14-2.99,0-.09,0-.18,0-.27,0-2.08,1.2-3.38,3.16-3.38,1.7-.03,3.1,1.33,3.13,3.03,0,.12,0,.23-.01.35M49.67,59.87c-2.59-.07-4.74,1.98-4.81,4.57,0,.11,0,.23,0,.34.07,2.64,2.26,4.73,4.91,4.67s4.73-2.26,4.67-4.91c-.07-2.59-2.18-4.66-4.77-4.67"/>
      <path class="cls-2" d="M64.96,63.84h-2.67v-2.28h2.65c1.02,0,1.57.61,1.57,1.22,0,.88-.83,1.06-1.55,1.06M62.29,65.34h2.67c.71,0,1.83.37,1.83,1.32,0,1.12-1.53,1.18-1.83,1.18h-2.64v-2.51h-.03ZM67.06,64.55c.69-.33,1.13-1.04,1.1-1.81,0-1.71-1.2-2.71-3.22-2.71h-4.3v9.37h4.3c2.28,0,3.5-.94,3.5-2.71-.02-.92-.56-1.74-1.39-2.14"/>
      <path class="cls-2" d="M77.76,64.02h-4.64v-3.99h-1.67v9.37h1.67v-3.81h4.64v3.81h1.65v-9.37h-1.65v3.99Z"/>
      <path class="cls-2" d="M82.95,60.05v9.35h1.67v-3.59h4.77v-1.55h-4.77v-2.59h5.01v-1.63h-6.68Z"/>
    </g>
  </g>
</svg>