<svg xmlns="http://www.w3.org/2000/svg" xml:space="preserve" style="enable-background:new 0 0 100 100" viewBox="0 0 100 100"><path d="M31.4 43.5c-1.1 3.5-1.2 7.3-.2 10.8 2.3 8.4 9.9 14.3 18.7 14.3 8.7 0 16.4-5.9 18.7-14.3 1-3.6.9-7.3-.2-10.8l-.1-.2v-.2c-.1-2.5 1.5-4.8 3.9-5.6 2.4-.8 5 .2 6.4 2.3l.1.2.1.2c1.7 5.5 1.9 11.4.4 17-3.1 11.5-12.6 20-24.1 22l.3-.1v19.6a50.68 50.68 0 0 1-11 0C19.8 96 .8 75.2.8 50c0-27.1 21.9-49 49-49s49 21.9 49 49c0 23.4-16.4 43-38.4 47.9V87c16.1-4.6 27.9-19.4 27.9-37 0-21.3-17.2-38.5-38.5-38.5S11.3 28.7 11.3 50c0 19.4 14.4 35.5 33.1 38.1v-9c.1 0-18.6-2.8-23.8-21.9-1.5-5.6-1.4-11.5.4-17V40l.1-.2c1.4-2.1 4-3 6.4-2.3 2.4.8 4 3 3.9 5.6v.4zm27.9-9.9 5.5-9.5a30.9 30.9 0 0 0-17.5-3.8l-.6.1c-4.2.4-8.2 1.7-11.8 3.8l5.5 9.4c5.8-3.3 13-3.3 18.9 0zm-9.5 5.3c6.1 0 11.1 5 11.1 11.1s-5 11.1-11.1 11.1-11.1-5-11.1-11.1 5-11.1 11.1-11.1" style="fill-rule:evenodd;clip-rule:evenodd;fill:#00a2e9"/></svg>
