<?xml version="1.0" encoding="UTF-8"?>
<svg id="Basis" xmlns="http://www.w3.org/2000/svg" viewBox="0 0 100 100">
  <defs>
    <style>
      .cls-1 {
        fill: #f9f9fa;
      }

      .cls-2 {
        fill: #fbfafc;
      }

      .cls-3 {
        fill: #fbfbfc;
      }

      .cls-4 {
        fill: #321464;
      }

      .cls-5 {
        fill: #fcfcfc;
      }
    </style>
  </defs>
  <path class="cls-4" d="M11.484,0h77.032c6.343,0,11.484,5.142,11.484,11.484v77.032c0,6.343-5.142,11.484-11.484,11.484H11.484c-6.343,0-11.484-5.142-11.484-11.484V11.484C0,5.142,5.142,0,11.484,0Z"/>
  <g id="TXJE9u">
    <g>
      <path class="cls-3" d="M31.228,60.366c.559,1.763.555,3.523.008,5.219-1.034,3.21-3.943,5.171-7.3,5.136-4.075-.042-7.582-3.078-7.599-7.267l-.062-15.065,2.213-.007.033,9.745c1.421-1.948,3.504-2.932,5.843-2.852,3.161.108,5.849,2.038,6.865,5.09ZM19.561,66.308c1.427,2.053,3.987,2.726,6.268,1.948,2.199-.751,3.622-2.899,3.611-5.291s-1.468-4.524-3.67-5.25c-2.309-.762-4.853-.024-6.234,2.003-1.343,1.971-1.371,4.582.025,6.591Z"/>
      <path class="cls-3" d="M47.733,70.405l-.08-2.525c-1.396,1.984-3.569,2.941-5.928,2.828-3.151-.15-5.792-2.13-6.756-5.135-.532-1.659-.537-3.394-.032-5.053.994-3.268,3.938-5.281,7.315-5.253,4.22.036,7.641,3.215,7.65,7.49l.016,7.643-2.185.004ZM47.671,62.684c-.158-3.102-2.611-5.338-5.583-5.267-2.992.072-5.296,2.484-5.321,5.529-.025,3.217,2.476,5.724,5.639,5.626,3.084-.095,5.428-2.661,5.264-5.889Z"/>
      <path class="cls-5" d="M28.899,44.422l-.08-2.487c-1.401,1.916-3.552,2.921-5.95,2.79-2.878-.158-5.35-1.814-6.476-4.471-.783-1.848-.859-3.87-.262-5.778,1.022-3.266,3.99-5.249,7.374-5.19,4.185.072,7.56,3.244,7.57,7.482l.019,7.645-2.195.01ZM28.844,36.683c-.167-3.11-2.63-5.331-5.603-5.249s-5.27,2.484-5.299,5.519c-.031,3.218,2.468,5.726,5.623,5.636,3.097-.088,5.452-2.662,5.278-5.907Z"/>
      <path class="cls-2" d="M77.309,62.974l6.941,7.409-2.828.031-6.358-6.712-.044,6.685c-.731.042-1.421.042-2.199.004v-21.996s2.198-.016,2.198-.016l.033,13.909,6.362-6.72,2.85.022-6.954,7.383Z"/>
      <path class="cls-3" d="M49.45,44.734c-4.313.011-7.6-3.339-7.683-7.559-.086-4.397,3.332-7.929,7.737-7.887,4.301.04,7.613,3.484,7.588,7.775-.025,4.247-3.301,7.66-7.642,7.671ZM54.873,36.686c-.166-3.121-2.638-5.344-5.63-5.251-2.953.092-5.242,2.488-5.271,5.517-.031,3.212,2.458,5.715,5.593,5.638,3.115-.076,5.481-2.65,5.308-5.904Z"/>
      <path class="cls-5" d="M64.111,58.279c-1.73-1.174-4.052-1.153-5.746-.018-1.235.827-1.935,2.243-1.943,3.733l-.047,8.393-2.208.012.055-8.715c.019-3.035,2.163-5.489,5.07-6.177,1.642-.388,3.27-.31,4.836.31,2.464.976,4.104,3.282,4.117,5.978l.041,8.604c-.809.016-1.49.043-2.206-.016l-.047-8.389c-.008-1.467-.67-2.864-1.923-3.715Z"/>
      <path class="cls-2" d="M70.769,32.235c-1.687-1.089-3.894-1.07-5.549-.03-1.308.822-2.044,2.284-2.053,3.826l-.049,8.384h-2.2s.044-8.624.044-8.624c.012-2.454,1.399-4.634,3.58-5.712,2.137-1.056,4.65-1.069,6.8-.034,2.185,1.052,3.626,3.209,3.642,5.654l.058,8.708-2.209.005-.042-8.322c-.008-1.529-.683-2.992-2.02-3.856Z"/>
      <polygon class="cls-1" points="37.843 44.406 35.632 44.407 35.632 29.614 37.839 29.603 37.843 44.406"/>
    </g>
  </g>
</svg>