<?xml version="1.0" encoding="UTF-8"?>
<svg id="Basis" xmlns="http://www.w3.org/2000/svg" viewBox="0 0 100 100">
  <defs>
    <style>
      .cls-1 {
        fill: #006643;
      }

      .cls-2 {
        fill: #7b817b;
      }

      .cls-3 {
        fill: #f9df15;
      }

      .cls-4 {
        fill: #fff;
      }
    </style>
  </defs>
  <path class="cls-3" d="M11.484,0h77.032c6.343,0,11.484,5.142,11.484,11.484v77.032c0,6.343-5.142,11.484-11.484,11.484H11.484c-6.343,0-11.484-5.142-11.484-11.484V11.484C0,5.142,5.142,0,11.484,0Z"/>
  <path class="cls-4" d="M11.484,0h77.032c6.343,0,11.484,5.142,11.484,11.484v77.032c0,6.343-5.142,11.484-11.484,11.484H11.484c-6.343,0-11.484-5.142-11.484-11.484V11.484C0,5.142,5.142,0,11.484,0Z"/>
  <g>
    <g>
      <polygon class="cls-2" points="66.816 67.585 75.62 38.18 85.48 67.585 66.816 67.585"/>
      <polygon class="cls-1" points="42.341 18.635 29.663 18.635 14.52 67.585 27.374 67.585 36.002 39.588 43.573 64.239 49.912 43.286 42.341 18.635"/>
      <polygon class="cls-1" points="60.125 18.635 44.982 67.585 57.483 67.585 72.802 18.635 60.125 18.635"/>
    </g>
    <polygon class="cls-2" points="14.52 81.231 15.638 81.231 15.638 77.249 18.368 81.231 19.352 81.231 19.352 75.28 18.278 75.28 18.278 79.262 15.549 75.28 14.52 75.28 14.52 81.231"/>
    <path class="cls-2" d="M22.797,78.904l.761-2.237.761,2.237h-1.521ZM23.021,75.28l-2.237,5.951h1.163l.537-1.342h2.148l.492,1.342h1.163l-2.192-5.951h-1.074Z"/>
    <polygon class="cls-2" points="35.996 80.247 35.996 78.725 38.054 78.725 38.054 77.741 35.996 77.741 35.996 76.309 38.233 76.309 38.233 75.28 34.922 75.28 34.922 81.231 38.233 81.231 38.233 80.247 35.996 80.247"/>
    <polygon class="cls-2" points="41.186 80.247 41.186 75.28 40.067 75.28 40.067 81.231 43.11 81.231 43.11 80.247 41.186 80.247"/>
    <polygon class="cls-2" points="49.239 75.28 47.494 77.786 45.794 75.28 44.765 75.28 44.765 81.231 45.884 81.231 45.884 77.204 47.494 79.531 49.15 77.204 49.15 81.231 50.224 81.231 50.224 75.28 49.239 75.28"/>
    <path class="cls-2" d="M53.669,78.904l.761-2.237.761,2.237h-1.521ZM53.893,75.28l-2.237,5.951h1.163l.537-1.342h2.148l.492,1.342h1.163l-2.192-5.951h-1.074Z"/>
    <polygon class="cls-2" points="67.897 75.28 66.062 77.607 66.062 75.28 64.988 75.28 64.988 81.231 66.062 81.231 66.062 78.725 68.12 81.231 69.463 81.231 66.912 78.144 69.239 75.28 67.897 75.28"/>
    <polygon class="cls-2" points="71.834 80.247 71.834 78.725 73.847 78.725 73.847 77.741 71.834 77.741 71.834 76.309 74.071 76.309 74.071 75.28 70.715 75.28 70.715 81.231 74.071 81.231 74.071 80.247 71.834 80.247"/>
    <path class="cls-2" d="M83.78,77.741c-.984-.268-1.163-.447-1.163-.895,0-.358.313-.626.761-.626s.895.179,1.342.582l.045.045.537-.895-.045-.045c-.537-.492-1.163-.761-1.879-.761-1.074,0-1.79.716-1.79,1.745,0,1.119.626,1.521,1.745,1.79.94.268,1.119.447,1.119.85s-.313.671-.85.671c-.582,0-1.029-.224-1.566-.761l-.045-.045-.626.85.045.045c.626.626,1.342.94,2.192.94,1.163,0,1.879-.716,1.879-1.834-.045-.805-.537-1.342-1.7-1.655"/>
    <path class="cls-2" d="M77.65,78.01h-.626v-1.7h.626c.313,0,.582.089.761.224s.268.358.268.626c0,.224-.089.447-.224.582-.179.179-.447.268-.805.268M78.993,78.681c.179-.134.313-.268.447-.403.134-.179.224-.313.268-.537.045-.179.089-.403.089-.626s-.045-.492-.134-.671c-.089-.224-.179-.403-.358-.582s-.358-.313-.582-.403-.492-.134-.805-.134h-2.013v5.951h1.074v-2.192h.447l1.208,2.192h1.298l-1.342-2.371c.134-.089.268-.134.403-.224"/>
    <path class="cls-2" d="M62.751,79.576c-.492.447-.94.761-1.655.761-1.074,0-1.924-.895-1.924-2.058s.85-2.058,1.924-2.058c.582,0,1.074.224,1.611.716l.716-.805c-.492-.447-1.119-.94-2.327-.94-1.745,0-3.087,1.342-3.087,3.087,0,.85.313,1.611.85,2.192.582.582,1.342.895,2.148.895.984,0,1.7-.313,2.416-1.074l-.671-.716Z"/>
    <path class="cls-2" d="M30.314,79.039h1.611c-.134.761-.984,1.298-1.655,1.298-1.074,0-2.013-.984-2.013-2.103,0-1.163.895-2.058,2.058-2.058.626,0,1.253.313,1.611.85l.134.179.761-.716-.089-.134c-.582-.716-1.476-1.163-2.461-1.163-1.7,0-3.132,1.387-3.132,3.087,0,1.655,1.387,3.042,3.042,3.042s2.863-1.208,2.863-2.863v-.403h-2.774v.984h.045Z"/>
  </g>
</svg>