<?xml version="1.0" encoding="UTF-8"?>
<svg id="Laag_1" xmlns="http://www.w3.org/2000/svg" version="1.1" viewBox="0 0 100 100">
  <!-- Generator: Adobe Illustrator 30.4.0, SVG Export Plug-In . SVG Version: 2.1.4 Build 226)  -->
  <defs>
    <style>
      .st0 {
        fill: #00925c;
      }

      .st1 {
        fill: #fff;
      }
    </style>
  </defs>
  <path class="st0" d="M11.5,100h77c6.3,0,11.5-5.1,11.5-11.5V11.5C100,5.1,94.9,0,88.5,0H11.5C5.1,0,0,5.1,0,11.5v77c0,6.3,5.1,11.5,11.5,11.5Z"/>
  <path class="st1" d="M56.8,11.1c2.7,1.1,13.7,7.1,15.1,9-5.8.8-17,4.1-22.6,7,6.5-1.4,15.4-2.2,21.6-2.5-2.4,3.6-3.7,5.4-7.6,9.6,6.7-4,8.6-4.3,14.7-7.9,2.3,3.4,2.9,11.4,3,17.7,2-4,4.5-19.1,3.4-21.9,3.7-2.4,3.7-3.4,4.7-5.1-3.8.3-5.9.4-7.9,1-5.2-3.2-15.8-6.4-24.5-7.1h0ZM42.1,30.2c-1.7.2-6.4,2.4-9.5,4.8,0,0-2.1-.3-5.6-.1-3.5.2-8.1,1-9.8,1.8,3.4.2,8,1,9.8,2.8,0,0-5.2,4.7-10.3,14.9,0,0,9.3-8.7,13.3-10.9,0,0,2.1,7.1,3.5,10.6,0,0,1.3-8.1,3.4-12.8,0,0,.6-.4,3.6-.7,3-.3,7.1-.5,15.2,1,0,0-7.4-4.7-16.5-5.9.4-1.2,1.6-3.9,2.8-5.4h0ZM15.8,57.9c-.6,5-.8,8.7,0,12.7-2.3.6-3.9,1.1-5.8,2,2.6,1.6,4.8,2.9,7.8,4.3,1.6,3.4,3.2,5.6,5.8,8.2-.6-2.2-.7-4-.5-6.3,3.3,1,6.1,1.5,9.8,1.6-3.6-1.3-6.1-2.9-8.9-5.5.9-2.3,1.8-4.2,3.4-6.5-2.9.4-5,.8-7.5,1.2-2-3.6-2.9-7-4-11.7ZM59.7,73.6c-2.5,1.8-4.7,3.2-7.6,4.5-.1-1.4-.2-2.5-.3-4-1.6,2.2-3,3.9-4.8,5.9-3.1.8-5.5,1.2-8.5,1.2,1.8.9,3.7,1.5,5.6,1.9-1.9,1.7-3.6,3-5.4,4.2,3.1-.7,7.2-2.1,10.3-3.9,1.6,0,3.2,0,4.3-.2-.3-.9-.5-1.7-.7-2.9,2.9-2.2,5-4.2,7.3-6.7h0Z"/>
</svg>