<?xml version="1.0" encoding="UTF-8"?>
<svg id="Basis" xmlns="http://www.w3.org/2000/svg" viewBox="0 0 100 100">
  <defs>
    <style>
      .cls-1 {
        fill: #fff;
      }

      .cls-2 {
        fill: #309cae;
      }

      .cls-3 {
        fill: #07263e;
      }
    </style>
  </defs>
  <path class="cls-1" d="M11.484,0h77.032c6.343,0,11.484,5.142,11.484,11.484v77.032c0,6.343-5.142,11.484-11.484,11.484H11.484c-6.343,0-11.484-5.142-11.484-11.484V11.484C0,5.142,5.142,0,11.484,0Z"/>
  <g>
    <polygon class="cls-3" points="79.671 57.858 74.511 57.859 74.482 51.326 67.851 42.372 67.779 57.861 62.137 57.864 55.818 49.371 55.779 57.856 50.966 57.86 50.96 42.207 56.534 42.188 62.876 50.752 62.997 42.186 73.716 42.2 77.09 46.725 80.46 42.206 86.389 42.218 79.705 51.333 79.671 57.858"/>
    <path class="cls-3" d="M49.307,53.389c-.075,3.041-2.227,4.189-5.014,4.465l-12.599.004-.015-15.723,12.801.098c1.264.01,2.377.604,3.265,1.371.787.954.998,2.172.609,3.434-.305.991-1.251,1.844-2.429,2.217,2.146.483,3.434,2.062,3.382,4.134ZM42.263,48.07c.874-.004,1.312-.727,1.274-1.396-.039-.683-.571-1.237-1.359-1.237l-5.645.002-.029,2.661,5.759-.029ZM42.662,54.228c.968-.071,1.438-.775,1.443-1.511.005-.825-.59-1.38-1.501-1.385l-6.09-.033.037,2.992c2.092-.043,4.061.087,6.112-.062Z"/>
    <path class="cls-2" d="M28.095,50.529l-9.513,3.666c-1.562.602-3.002,1.251-4.766,1.667l3.857-5.369c.311-.418.165-.688-.093-1.042l-3.968-5.441,8.693,3.281c.683.258,1.356.383,1.954.822,1.835.543,3.116,1.158,4.911,1.857-.193.343-.573.481-1.074.558Z"/>
  </g>
</svg>