<?xml version="1.0" encoding="UTF-8"?>
<svg id="Laag_1" data-name="Laag 1" xmlns="http://www.w3.org/2000/svg" viewBox="0 0 100 100">
  <defs>
    <style>
      .cls-1 {
        fill: #5a5a5a;
      }

      .cls-2 {
        fill: #e60000;
      }

      .cls-3 {
        fill: #fff;
      }
    </style>
  </defs>
  <path class="cls-3" d="M11.49,100h77.03c6.34,0,11.49-5.14,11.49-11.49V11.49C100,5.14,94.86,0,88.51,0H11.49C5.14,0,0,5.14,0,11.49v77.03c0,6.34,5.14,11.49,11.49,11.49Z"/>
  <g>
    <path class="cls-1" d="M50.67,56.51v-8.5l-3.62,5.51h-.07l-3.65-5.44v8.43h-2.72v-13.06h3.04l3.4,5.48,3.4-5.48h2.94v13.06h-2.72ZM61.11,56.66c-3.48,0-5.54-1.94-5.54-5.75v-7.46h2.72v7.39c0,2.11,1.12,3.2,2.85,3.2s2.86-1.04,2.86-3.1v-7.48h2.72v7.36c0,3.92-2.15,5.85-5.61,5.85ZM71.62,46.17v2.72h5.71v2.72h-5.71v4.9h-2.72v-13.06h10.06v2.72h-7.34ZM86.27,56.68c-4.03,0-6.76-2.83-6.76-6.65v-.02c-.05-3.65,2.87-6.65,6.52-6.69.07,0,.15,0,.22,0,2.33,0,3.72.63,5.07,1.78l-1.81,2.15c-.99-.84-1.84-1.32-3.33-1.32-2.08,0-3.67,1.84-3.67,4.03v.05c0,2.37,1.59,4.11,3.88,4.11.94.02,1.86-.26,2.65-.78v-1.71h-2.99v-2.72h5.71v5.73c-1.52,1.33-3.47,2.06-5.48,2.05Z"/>
    <path class="cls-2" d="M26.04,40.21c-1.38,0-2.74.29-3.99.85-4.94-2.21-10.73,0-12.94,4.94-2.21,4.94,0,10.73,4.94,12.94,2.54,1.14,5.45,1.14,7.99,0,4.94,2.21,10.73,0,12.94-4.95,2.21-4.94,0-10.73-4.95-12.94-1.26-.56-2.62-.85-3.99-.85ZM22.04,58.84c-4.89,0-8.86-3.96-8.86-8.85,0-4.89,3.96-8.86,8.85-8.86s8.86,3.96,8.86,8.85c0,0,0,.01,0,.02,0,4.88-3.97,8.84-8.85,8.84ZM26.12,50c0,2.25-1.83,4.08-4.08,4.08s-4.08-1.83-4.08-4.08,1.83-4.08,4.08-4.08,4.08,1.83,4.08,4.08Z"/>
  </g>
</svg>