<?xml version="1.0" encoding="UTF-8"?>
<svg id="Laag_1" data-name="Laag 1" xmlns="http://www.w3.org/2000/svg" version="1.1" viewBox="0 0 100 100">
  <defs>
    <style>
      .cls-1 {
        fill: #148ce9;
      }

      .cls-1, .cls-2 {
        stroke-width: 0px;
      }

      .cls-2 {
        fill: #fff;
      }
    </style>
  </defs>
  <path class="cls-1" d="M90,100H10c-5.5,0-10-4.5-10-10V10C0,4.5,4.5,0,10,0h80c5.5,0,10,4.5,10,10v80c0,5.5-4.5,10-10,10Z"/>
  <g id="rrGgd2.tif">
    <g>
      <path class="cls-2" d="M63,36.1c-1.9,3-3.9,6.1-5.8,9.1-.8,1.2-1.5,2.4-2.3,3.6,3,5,5.9,9.9,8.9,15h-8.9c-2.2-3.9-4.5-7.9-6.8-11.8,0,0,0,0-.1,0v11.8h-7.6c-.2-.2-.1-.3-.1-.5,0-8.9,0-17.9,0-26.8,0-.1,0-.3,0-.4,2.5,0,5.1,0,7.6,0,.2.3.2.6.2.9,0,3,0,5.9,0,9,.8-1.3,1.5-2.5,2.2-3.7,1.1-1.9,2.2-3.7,3.3-5.6.1-.2.3-.4.5-.6,3,0,6,0,9,0Z"/>
      <path class="cls-2" d="M37,47.5c-1-5.7-4.4-9.3-9.9-10.9-.4-.1-.8-.2-1.2-.3s-1-.2-1.5-.2h-11.5v27.7h.4c3.5,0,7,0,10.5,0s1.2,0,1.7-.1c3.6-.7,6.6-2.5,8.8-5.4,2.5-3.2,3.3-6.8,2.6-10.8ZM29.3,52c-.5,1.9-1.6,3.1-3.3,3.9-1.7.8-3.4.9-5.3.9v-13.8c2,0,3.8.2,5.6,1,1.7.8,2.7,2.2,3.1,4,.3,1.3.3,2.6,0,3.9Z"/>
      <path class="cls-2" d="M84.7,49.7c-.5-.4-1-.8-1.6-1.2,1-.4,1.6-1.1,2-2,.4-.7.6-1.6.7-2.4.3-2.6-.5-4.7-2.6-6.3-1.3-1.1-2.9-1.6-4.5-1.7h-12.7c0,.2,0,.5,0,.7,0,8.7,0,17.5,0,26.2,0,.2,0,.5,0,.7,0,0,.1,0,.2,0,4.2,0,8.4,0,12.5,0,.9,0,1.8-.2,2.7-.5,2.8-.9,4.6-2.8,5.4-5.6,0-.3,0-.7.3-1v-2.4c-.2-1.9-1.1-3.4-2.5-4.6ZM73.7,42.5c1,0,2,0,2.9,0,1.1.2,1.8,1.2,1.8,2.5,0,1.2-.8,2.1-2,2.2-.9,0-1.8,0-2.7,0v-4.8ZM78.3,56.7c-.5.5-1.2.6-1.8.7-.9,0-1.8,0-2.8,0v-5.5c.4-.1.8,0,1.2,0,.7,0,1.4,0,2.1,0,1,.3,1.7.9,2,1.9.3,1.1,0,2.1-.7,2.9Z"/>
    </g>
  </g>
</svg>