<?xml version="1.0" encoding="UTF-8"?>
<svg id="Laag_1" data-name="Laag 1" xmlns="http://www.w3.org/2000/svg" version="1.1" viewBox="0 0 100 100">
  <defs>
    <style>
      .cls-1 {
        fill: #921f36;
      }

      .cls-1, .cls-2 {
        stroke-width: 0px;
      }

      .cls-2 {
        fill: #fff;
      }
    </style>
  </defs>
  <path class="cls-1" d="M90,100H10c-5.5,0-10-4.5-10-10V10C0,4.5,4.5,0,10,0h80c5.5,0,10,4.5,10,10v80c0,5.5-4.5,10-10,10Z"/>
  <g id="riNqee.tif">
    <path class="cls-2" d="M49.7,54.7c.8-2.2,1.5-4.4,2.3-6.6,3-8.9,6.1-17.9,9.1-26.8,0-.2.1-.3.4-.3,6.1,0,12.2,0,18.3,0,0,0,.2,0,.2,0,0,.2-.1.4-.2.7-6.8,19.1-13.5,38.1-20.2,57.2-.1.3-.2.4-.5.4-12.8,0-25.7,0-38.5,0-.4,0-.4,0-.4-.4,0-1.4,0-2.7,0-4.1,0-.4.1-.4.5-.4,3,0,5.9,0,8.9,0,4,0,7.5-1.5,10.4-4.2,2.5-2.3,4.2-5,5-8.3,1.2-5.1.2-9.8-3-13.9-2.9-3.7-6.8-5.8-11.6-6.2-1.9-.2-3.9,0-5.8,0-1.3,0-2.7,0-4,0-.3,0-.3,0-.3-.3,0-6.7,0-13.3,0-20,0-.4.2-.3.4-.3,6.5,0,13.1,0,19.6,0,3,0,6.1,0,9.1,0,.4,0,.5.1.5.5,0,10.9,0,21.9,0,32.8s0,.3,0,.5h0Z"/>
  </g>
</svg>