<?xml version="1.0" encoding="UTF-8"?>
<svg id="Laag_1" data-name="Laag 1" xmlns="http://www.w3.org/2000/svg" xmlns:xlink="http://www.w3.org/1999/xlink" version="1.1" viewBox="0 0 100 100">
  <defs>
    <style>
      .cls-1 {
        fill: #002e3c;
      }

      .cls-1, .cls-2, .cls-3, .cls-4, .cls-5, .cls-6, .cls-7 {
        stroke-width: 0px;
      }

      .cls-8 {
        clip-path: url(#clippath);
      }

      .cls-2 {
        fill: none;
      }

      .cls-3 {
        fill: url(#Naamloos_verloop_4-2);
      }

      .cls-4 {
        fill: url(#Naamloos_verloop_4-4);
      }

      .cls-5 {
        fill: url(#Naamloos_verloop_4-3);
      }

      .cls-9 {
        clip-path: url(#clippath-1);
      }

      .cls-10 {
        clip-path: url(#clippath-2);
      }

      .cls-6 {
        fill: url(#Naamloos_verloop_4);
      }

      .cls-7 {
        fill: #fff;
      }
    </style>
    <radialGradient id="Naamloos_verloop_4" data-name="Naamloos verloop 4" cx="-1132.5" cy="858.3" fx="-1132.5" fy="858.3" r="2.1" gradientTransform="translate(28272.7 21446.4) scale(24.9 -24.9)" gradientUnits="userSpaceOnUse">
      <stop offset="0" stop-color="#ffdf4f"/>
      <stop offset=".1" stop-color="#ffd137"/>
      <stop offset=".3" stop-color="#ffc31a"/>
      <stop offset=".4" stop-color="#febe10"/>
      <stop offset=".6" stop-color="#fcba12"/>
      <stop offset=".8" stop-color="#f5af15"/>
      <stop offset=".9" stop-color="#ed9f18"/>
      <stop offset=".9" stop-color="#ed9d19"/>
      <stop offset="1" stop-color="#e0861a"/>
    </radialGradient>
    <clipPath id="clippath">
      <path class="cls-2" d="M34.4,21.2h0l-13.1,22.7-4.1,7.1-.5.8h0c0,0,12.5,21.6,12.5,21.6-.2-.5-.5-.9-.6-1.1-.5-1.1-.8-2.8-.7-4.4.2-4.2,2.4-8.3,3.5-10.2,2.6-4.6,7.7-13.3,7.7-13.3,0,0,5.1-8.7,7.7-13.3,1.1-2,3.6-5.9,7.1-8.2,1.3-.9,2.9-1.4,4.2-1.6,1-.2,4.1-.2,7.6-.2h-31.2Z"/>
    </clipPath>
    <radialGradient id="Naamloos_verloop_4-2" data-name="Naamloos verloop 4" cx="-1132.8" cy="859.4" fx="-1132.8" fy="859.4" r="2.1" gradientTransform="translate(28287.5 21438.3) scale(24.9 -24.9)" xlink:href="#Naamloos_verloop_4"/>
    <clipPath id="clippath-1">
      <path class="cls-2" d="M79.5,58.4c-.7,1.1-2,2.1-3.4,2.9-3.8,1.9-8.4,2-10.6,2h-30.8c-2.2,0-6.9-.2-10.6-2-1.4-.7-2.7-1.8-3.4-2.9-.5-.7-1.7-2.8-3.2-5.3l3.1,5.4,11.8,20.4h35.4l15.4-26.7c-1.6,2.9-3.1,5.5-3.7,6.2M16.8,52.1c.2.3.4.7.6,1l-.6-1Z"/>
    </clipPath>
    <radialGradient id="Naamloos_verloop_4-3" data-name="Naamloos verloop 4" cx="-1133.6" cy="858.6" fx="-1133.6" fy="858.6" r="2.1" gradientTransform="translate(28257.7 21447.4) scale(24.9 -24.9)" xlink:href="#Naamloos_verloop_4"/>
    <clipPath id="clippath-2">
      <path class="cls-2" d="M58,21.2c-1.3.2-2.9.7-4.2,1.6-1.5,1-2.8,2.2-3.8,3.5,1.5,1.8,2.6,3.6,3.3,4.7,2.6,4.6,7.7,13.3,7.7,13.3,0,0,5.1,8.7,7.7,13.3,1.1,2,3.3,6,3.5,10.2,0,1.6-.2,3.2-.7,4.4-.3.8-1.8,3.3-3.4,6.2l15.3-26.6-17.7-30.7c-3.5,0-6.6,0-7.6,0Z"/>
    </clipPath>
    <radialGradient id="Naamloos_verloop_4-4" data-name="Naamloos verloop 4" cx="-1132.6" cy="858.5" fx="-1132.6" fy="858.5" r="2.1" gradientTransform="translate(28363.7 21516.8) scale(25 -25)" xlink:href="#Naamloos_verloop_4"/>
  </defs>
  <path class="cls-1" d="M90,100H10c-5.5,0-10-4.5-10-10V10C0,4.5,4.5,0,10,0h80c5.5,0,10,4.5,10,10v80c0,5.5-4.5,10-10,10Z"/>
  <g>
    <path class="cls-7" d="M67.6,78.6h-35.2l-15.4-26.7h0c0,0,.5-.9.5-.9l17.1-29.6h30.8l17.5,30.4h0c0,0-6.9,11.9-6.9,11.9l-8.4,14.6h0v.2ZM50,26c0,0-.2,0-.2,0-1.7,2-2.9,4.1-3.3,4.7l-7.7,13.3-7.7,13.3c-.4.7-1.6,2.8-2.4,5.2v.2c0,0,0,0,.2.2,2.5.5,5,.5,5.8.5h30.7c.8,0,3.2,0,5.8-.5,0,0,.2,0,.2-.2s0-.2,0-.2c-.9-2.4-2-4.6-2.4-5.2l-7.7-13.3-7.7-13.3c-1.1-1.9-2.1-3.4-3.3-4.7,0,0-.2,0-.2,0"/>
    <rect class="cls-6" x="49.9" y="21.2" width="15.7" height="5.2"/>
    <g class="cls-8">
      <rect class="cls-3" x="16.7" y="21.2" width="48.9" height="52.3"/>
    </g>
    <g class="cls-9">
      <rect class="cls-5" x="16.8" y="52.1" width="66.3" height="26.8"/>
    </g>
    <g class="cls-10">
      <rect class="cls-4" x="50" y="21.2" width="33.3" height="57.3"/>
    </g>
  </g>
</svg>