<?xml version="1.0" encoding="UTF-8"?>
<svg xmlns="http://www.w3.org/2000/svg" viewBox="0 0 100 100">
  <defs>
    <style>
      .cls-1 {
        fill: #fff;
      }

      .cls-1, .cls-2 {
        fill-rule: evenodd;
      }

      .cls-2 {
        fill: #52a5df;
      }

      .cls-3 {
        fill: #0d2a50;
      }
    </style>
  </defs>
  <g id="Basis">
    <path class="cls-3" d="M11.484,0h77.032c6.343,0,11.484,5.142,11.484,11.484v77.032c0,6.343-5.142,11.484-11.484,11.484H11.484c-6.343,0-11.484-5.142-11.484-11.484V11.484C0,5.142,5.142,0,11.484,0Z"/>
  </g>
  <g id="Laag_1" data-name="Laag 1">
    <g>
      <path class="cls-1" d="M38.609,60.512h18.119c4.744,0,6.299,1.84,6.299,4.704,0,3.149-2.863,4.54-5.809,4.745,3.026.245,5.889.614,5.889,4.336,0,2.495-1.472,4.907-6.625,4.907h-17.874v-18.692ZM47.567,75.4h4.744c1.759,0,2.29-.737,2.29-1.841,0-1.022-.532-1.759-2.29-1.759h-4.744v3.6ZM47.567,68.364h4.54c1.677,0,2.332-.653,2.332-1.759,0-1.186-.655-1.84-2.209-1.84h-4.663v3.599ZM34.356,78.344c-2.127.655-4.908,1.023-7.403,1.023-8.876,0-15.338-2.496-15.338-9.776,0-6.667,6.299-9.53,14.888-9.53,2.413,0,5.44.245,7.853.982v6.503c-1.759-1.104-3.517-1.759-6.094-1.759-3.231,0-6.585,1.677-6.585,3.968,0,2.331,3.354,3.966,6.585,3.966,2.495,0,4.335-.736,6.094-1.758v6.38h0ZM88.385,78.344c-2.126.655-4.907,1.023-7.403,1.023-8.875,0-15.378-2.496-15.378-9.776,0-6.667,6.298-9.53,14.928-9.53,2.373,0,5.44.245,7.852.982v6.503c-1.84-1.104-3.599-1.759-6.094-1.759-3.273,0-6.585,1.677-6.585,3.968,0,2.331,3.232,3.966,6.585,3.966,2.495,0,4.253-.736,6.094-1.758v6.38h0Z"/>
      <path class="cls-2" d="M51.084,46.646c7.158,0,12.965-5.848,12.965-13.047,0-7.117-5.808-12.966-12.965-12.966-7.198,0-13.007,5.849-13.007,12.966,0,7.199,5.808,13.047,13.007,13.047Z"/>
      <path class="cls-2" d="M60.737,44.151c-2.495,2.659-6.954,5.358-12.516,5.358-4.335,0-8.139-1.677-10.512-3.517-14.151,1.472-24.827,3.6-24.827,3.6v5.726h75.503v-11.821s-12.965-.082-27.648.655h0Z"/>
    </g>
  </g>
</svg>