<?xml version="1.0" encoding="UTF-8"?>
<svg xmlns="http://www.w3.org/2000/svg" viewBox="0 0 100 100">
  <defs>
    <style>
      .cls-1 {
        fill: #fff;
      }

      .cls-2 {
        fill: #e41930;
        fill-rule: evenodd;
      }
    </style>
  </defs>
  <g id="Basis">
    <path class="cls-1" d="M11.484,0h77.032c6.343,0,11.484,5.142,11.484,11.484v77.032c0,6.343-5.142,11.484-11.484,11.484H11.484c-6.343,0-11.484-5.142-11.484-11.484V11.484C0,5.142,5.142,0,11.484,0Z"/>
  </g>
  <g id="Laag_1" data-name="Laag 1">
    <g id="Calque_1" data-name="Calque 1">
      <path class="cls-2" d="M50,24.257c-14.782,0-26.056,11.024-26.056,25.931s11.4,25.555,26.056,25.555,26.056-10.773,26.056-25.555c0-4.259-.877-12.277-5.512-12.277-2.255,0-3.758,1.754-3.758,3.758,0,.501.125,1.002.251,1.378,1.002,2.255,1.378,4.76,1.378,7.266,0,10.773-8.143,18.164-18.54,18.164s-18.54-7.391-18.54-18.164,8.268-18.54,18.665-18.54c1.879,0,3.007.376,4.009.752.626.125,1.002.251,1.754.251,2.255,0,3.382-1.879,3.382-3.883,0-3.508-4.259-4.635-9.145-4.635"/>
    </g>
  </g>
</svg>