<?xml version="1.0" encoding="UTF-8"?>
<svg id="Laag_1" data-name="Laag 1" xmlns="http://www.w3.org/2000/svg" viewBox="0 0 100 100">
  <defs>
    <style>
      .cls-1 {
        fill: #fff;
      }

      .cls-2 {
        fill: #012169;
      }
    </style>
  </defs>
  <path class="cls-1" d="M11.49,100h77.03c6.34,0,11.49-5.14,11.49-11.49V11.49C100,5.14,94.86,0,88.51,0H11.49C5.14,0,0,5.14,0,11.49v77.03c0,6.34,5.14,11.49,11.49,11.49Z"/>
  <path class="cls-2" d="M63.57,76.9h13.55v-26.7c0-14.98-12.15-27.13-27.13-27.13-14.98,0-27.13,12.15-27.13,27.13h0c0,14.58,11.5,26.74,27.13,26.74,0,0,3.44.05,6.8-.88v-12.24c-3.44.82-6.81.63-6.81.63-7.24-.08-13.58-6-13.58-14.19,0-7.53,6.02-13.58,13.58-13.58s13.58,6.05,13.58,13.57c0,.05,0,26.66,0,26.66"/>
</svg>