<?xml version="1.0" encoding="UTF-8"?>
<svg id="Laag_1" data-name="Laag 1" xmlns="http://www.w3.org/2000/svg" xmlns:xlink="http://www.w3.org/1999/xlink" viewBox="0 0 100 100">
  <defs>
    <style>
      .cls-1 {
        fill: #272224;
      }

      .cls-2 {
        fill: #73b0ca;
      }

      .cls-3 {
        fill: #fff;
      }

      .cls-4 {
        clip-path: url(#clippath);
      }

      .cls-5 {
        fill: #262123;
      }
    </style>
    <clipPath id="clippath">
      <rect class="cls-2" width="100" height="100" rx="11.484" ry="11.484"/>
    </clipPath>
  </defs>
  <g id="Basis">
    <path class="cls-3" d="M11.484,0h77.032c6.343,0,11.484,5.142,11.484,11.484v77.032c0,6.343-5.142,11.484-11.484,11.484H11.484c-6.343,0-11.484-5.142-11.484-11.484V11.484C0,5.142,5.142,0,11.484,0Z"/>
  </g>
  <g id="Laag_1-2" data-name="Laag 1">
    <g>
      <rect class="cls-2" width="100" height="100" rx="11.484" ry="11.484"/>
      <g class="cls-4">
        <path class="cls-2" d="M11.484,0h77.032c6.343,0,11.484,5.142,11.484,11.484v77.032c0,6.343-5.142,11.484-11.484,11.484H11.484c-6.343,0-11.484-5.142-11.484-11.484V11.484C0,5.142,5.142,0,11.484,0Z"/>
      </g>
    </g>
  </g>
  <g id="_3G1SL0.tif" data-name="3G1SL0.tif">
    <g>
      <path class="cls-1" d="M75.642,63.777c-2.177-.503-3.98-2.164-3.823-4.551h2.518c.133,1.321.577,2.187,2.038,2.43,1.654.275,3.364.281,4.993-.039,2.651-.521,1.921-3.344,2.009-5.372-1.291-.441-1.218,1.014-3.601,1.56-2.838.651-6.254-.029-7.094-3.206-.179-.677-.259-1.324-.259-2.041l-.006-8.31-3.566.009c-.641.002-1.253.092-1.858.279-1.386.424-1.663,1.855-1.665,3.174l-.013,9.864h-2.612s-.002-15.903-.002-15.903l2.511-.005.107,1.505c1.172.418,1.109-.8,2.838-1.215.702-.208,1.427-.29,2.181-.289l4.702.003.009,10.592c.001,1.426.184,2.987,1.791,3.268,1.526.266,3.094.277,4.617-.005,1.714-.317,1.929-1.925,1.931-3.467l.016-10.382,2.576-.004-.007,16.643c0,.897-.213,1.686-.541,2.466-.604,1.431-1.778,2.412-3.292,2.858-2.114.623-4.344.634-6.495.137Z"/>
      <path class="cls-5" d="M40.806,41.403c4.906,1.065,5.645,7.082,4.738,11.159-.32,1.44-.98,2.732-2.009,3.751-1.345,1.331-3.112,1.711-4.959,1.729-1.718.016-3.269-.428-4.394-1.81-.216-.099-.639-.051-.876-.003l-.093,1.347-2.512.007-.003-21.617c.884-.128,1.748-.121,2.619-.014l.008,7.252c.257.035.601.095.841-.004,1.579-1.847,4.36-2.291,6.64-1.796ZM35.675,55.416c1.652.294,3.261.276,4.869.023,1.178-.186,2.013-.995,2.201-2.221.365-2.391.367-4.873-.006-7.261-.188-1.202-1.012-1.979-2.167-2.159-1.652-.257-3.312-.265-4.948.026-1.083.193-1.802.928-2.033,1.996-.405,1.875-.412,5.761.011,7.621.238,1.048.959,1.777,2.074,1.975Z"/>
      <path class="cls-5" d="M23.873,55.485c1.567-.347,2.118-1.426,2.346-2.876l2.519-.003c-.01,2.691-2.049,4.595-4.58,5.148-3.97.866-8.473-.297-9.666-4.597-1.117-4.029-.422-9.642,4.008-11.36,1.844-.715,3.835-.756,5.722-.237,3.998,1.1,5.221,5.187,4.719,8.947l-12.103.002c-.224,2.001.154,4.291,2.474,4.912,1.481.397,3.054.397,4.56.064ZM26.195,48.36c.149-1.934-.048-3.945-2.148-4.464-1.571-.388-3.244-.4-4.815,0-2.113.537-2.473,2.601-2.373,4.471l9.335-.007Z"/>
      <path class="cls-5" d="M60.91,41.662l.003,15.916-2.513-.014-.068-1.356c-.262.004-.635-.096-.868.026-.676.646-1.409,1.168-2.333,1.447-2.704.815-6.251.272-7.275-2.738-.237-.697-.364-1.377-.364-2.127l-.006-11.141,2.613-.009.011,10.691c.001,1.379.223,2.889,1.763,3.166,1.485.267,3.009.275,4.493.006,1.705-.309,1.925-1.943,1.927-3.468l.011-10.395,2.607-.004Z"/>
    </g>
  </g>
</svg>