<?xml version="1.0" encoding="UTF-8"?>
<svg id="Laag_1" data-name="Laag 1" xmlns="http://www.w3.org/2000/svg" viewBox="0 0 100 100">
  <defs>
    <style>
      .cls-1, .cls-2 {
        fill: #091858;
      }

      .cls-2, .cls-3 {
        fill-rule: evenodd;
      }

      .cls-4 {
        fill: #fff;
      }

      .cls-5, .cls-3 {
        fill: #878787;
      }

      .cls-6 {
        fill: none;
        stroke: #000;
        stroke-miterlimit: 3.86;
        stroke-width: .04px;
      }
    </style>
  </defs>
  <path class="cls-4" d="M11.49,100h77.03c6.34,0,11.49-5.14,11.49-11.49V11.49C100,5.14,94.86,0,88.51,0H11.49C5.14,0,0,5.14,0,11.49v77.03c0,6.34,5.14,11.49,11.49,11.49Z"/>
  <g>
    <path class="cls-2" d="M9.91,48.1h5.2v-.22c0-.75-.21-1.38-.64-1.87-.45-.53-1.07-.8-1.85-.8-.85,0-1.52.28-2.02.85-.47.53-.7,1.21-.7,2.03h0ZM16.82,50.78c0,1.06-.42,1.9-1.24,2.5-.74.55-1.68.82-2.84.82-3.19,0-4.79-1.62-4.79-4.85,0-1.58.35-2.82,1.06-3.71.79-1.01,1.99-1.52,3.58-1.52,1.36,0,2.44.37,3.22,1.11.79.74,1.19,1.75,1.19,3.05,0,.49-.01.88-.04,1.17h-7.16v.57c0,.89.23,1.58.71,2.08.48.52,1.19.78,2.11.78.7,0,1.27-.16,1.7-.49.48-.36.72-.86.74-1.51h1.76Z"/>
    <path class="cls-2" d="M21.63,42.02h-2.18v-1.95h2.18v1.95h0ZM19.62,53.86v-9.61h1.87v9.61h-1.87Z"/>
    <path class="cls-1" d="M26.55,45.84c.25-.56.68-.99,1.3-1.29.56-.27,1.18-.41,1.87-.41,1.41,0,2.46.43,3.13,1.3.33.42.49,1.24.49,2.47v5.96h-1.86v-6.07c0-1.57-.75-2.36-2.25-2.36-.74,0-1.36.18-1.86.55-.55.4-.82.94-.82,1.63v6.25h-1.87v-13.79h1.87v5.77h0Z"/>
    <path class="cls-3" d="M36.43,40.07h1.85v5.64c.99-1.07,2.13-1.61,3.42-1.61,1.47,0,2.58.5,3.32,1.49.64.86.96,2.02.96,3.49s-.34,2.63-1.03,3.52c-.78,1-1.9,1.51-3.37,1.51s-2.53-.52-3.3-1.55l-.08,1.32h-1.9c.09-.59.13-1.23.13-1.92v-11.88h0ZM38.27,49.22c0,1,.22,1.83.66,2.51.52.8,1.28,1.2,2.26,1.2s1.77-.45,2.27-1.35c.41-.72.61-1.6.61-2.64s-.22-1.83-.66-2.5c-.52-.79-1.27-1.19-2.26-1.19s-1.76.44-2.27,1.34c-.41.71-.61,1.59-.61,2.63h0Z"/>
    <path class="cls-3" d="M56.29,53.86h-1.67c-.13-.4-.2-.88-.2-1.46v-.06c-.53,1.17-1.6,1.75-3.24,1.75-.98,0-1.78-.25-2.4-.74-.66-.53-.98-1.24-.98-2.16,0-1.15.52-2.01,1.55-2.59.85-.48,1.92-.72,3.21-.72h1.76v-1.17c0-1.05-.66-1.57-1.99-1.57s-2.01.55-2.05,1.65h-1.79v-.15c0-1.75,1.24-2.63,3.71-2.63,1.28,0,2.22.19,2.85.58.76.47,1.14,1.27,1.14,2.41v5.94c0,.21.03.52.1.92h0ZM54.33,49.09h-1.57c-.82,0-1.49.13-2.01.38-.68.33-1.02.85-1.02,1.55,0,.49.19.89.56,1.19.37.29.82.44,1.35.44,1.8,0,2.7-.87,2.7-2.61v-.96h0Z"/>
    <path class="cls-5" d="M61.15,45.82c.25-.56.69-.99,1.31-1.29.55-.26,1.17-.39,1.86-.39,1.41,0,2.46.43,3.13,1.3.33.42.49,1.23.49,2.45v5.97h-1.86v-6.07c0-1.57-.75-2.36-2.25-2.36-.74,0-1.36.18-1.86.55-.55.4-.82.94-.82,1.63v6.25h-1.87v-7.64c0-.7-.03-1.36-.08-1.97h1.89l.06,1.57h0Z"/>
    <polygon class="cls-5" points="72.88 53.86 71.01 53.86 71.01 40.07 72.88 40.07 72.88 48.18 76.7 44.23 78.98 44.23 74.78 48.38 79.27 53.86 76.99 53.86 72.88 48.71 72.88 53.86 72.88 53.86"/>
    <polygon class="cls-5" points="8.7 59.02 8.7 55.57 10.84 55.57 10.84 55.98 9.16 55.98 9.16 57.03 10.77 57.03 10.77 57.44 9.16 57.44 9.16 58.61 10.88 58.61 10.88 59.02 8.7 59.02 8.7 59.02"/>
    <path class="cls-5" d="M13.18,58.64c-.06.14-.16.25-.31.33-.13.07-.28.1-.45.1-.33,0-.58-.11-.74-.33-.08-.1-.12-.31-.12-.61v-1.51h.44v1.54c0,.39.18.59.53.59.18,0,.32-.05.44-.14.13-.1.19-.24.19-.41v-1.58h.44v1.93c0,.2,0,.36.02.47h-.45v-.38h-.01,0Z"/>
    <path class="cls-5" d="M14.38,59.02v-2.03c0-.14,0-.26-.01-.38h.44v.46c.09-.31.32-.46.69-.46.07,0,.13,0,.18.01v.42c-.1-.02-.18-.03-.24-.03-.41,0-.62.22-.62.65v1.35h-.44Z"/>
    <path class="cls-3" d="M17.23,56.88c-.25,0-.44.1-.58.3-.11.17-.17.39-.17.66s.05.47.16.63c.13.18.31.27.57.27s.44-.1.58-.29c.11-.17.17-.38.17-.65s-.05-.48-.16-.64c-.13-.19-.32-.28-.57-.28h0ZM16.03,57.87c0-.39.1-.7.3-.93.21-.25.51-.37.9-.37s.67.11.88.34c.2.22.3.52.3.9s-.1.71-.31.93c-.22.23-.52.35-.91.35-.36,0-.65-.11-.85-.34-.2-.22-.3-.51-.3-.88h0Z"/>
    <path class="cls-3" d="M19.48,57.77c0,.26.05.48.15.66.12.23.3.34.54.34s.42-.1.54-.3c.1-.17.16-.38.16-.63s-.05-.48-.15-.66c-.12-.22-.3-.34-.54-.34s-.41.1-.54.3c-.1.17-.16.37-.16.62h0ZM19.04,59.93v-2.84c0-.17,0-.32-.03-.47h.45l.02.36c.18-.28.44-.42.78-.42.36,0,.63.12.81.37.17.22.25.51.25.88,0,.38-.08.67-.24.88-.18.24-.45.36-.81.36-.33,0-.59-.14-.79-.41v1.28h-.44Z"/>
    <path class="cls-3" d="M23.77,59.02h-.4c-.03-.1-.05-.22-.05-.36h0c-.12.28-.38.42-.77.42-.23,0-.42-.06-.57-.18-.16-.13-.23-.31-.23-.54,0-.29.12-.5.37-.65.2-.12.46-.18.77-.18h.42v-.29c0-.26-.16-.39-.47-.39s-.48.14-.49.41h-.42v-.04c0-.44.29-.66.88-.66.3,0,.53.05.68.15.18.12.27.32.27.6v1.48c0,.05,0,.13.02.23h0ZM23.3,57.83h-.37c-.2,0-.36.03-.48.09-.16.08-.24.21-.24.39,0,.12.04.22.13.3s.2.11.32.11c.43,0,.64-.22.64-.65v-.24h0ZM23,56.16v-.49h.42v.49h-.42ZM22.23,56.16v-.49h.42v.49h-.42Z"/>
    <path class="cls-3" d="M24.95,56.06h-.52v-.49h.52v.49h0ZM24.47,59.02v-2.4h.44v2.4h-.44Z"/>
    <path class="cls-5" d="M25.49,58.3h.44c0,.15.05.26.15.34.09.07.21.11.36.11.13,0,.25-.03.34-.09.11-.07.16-.17.16-.29,0-.17-.1-.27-.29-.31l-.51-.12c-.42-.1-.64-.31-.64-.63,0-.24.1-.43.31-.57.18-.11.4-.17.66-.17.24,0,.43.04.59.14.19.11.28.28.28.5,0,.03,0,.05,0,.07h-.44v-.02c0-.12-.05-.22-.14-.29-.08-.06-.19-.09-.32-.09-.12,0-.23.03-.32.08-.11.07-.16.15-.16.27,0,.14.12.25.35.31l.55.15c.37.1.55.32.55.64,0,.25-.1.44-.3.58-.17.11-.39.17-.66.17-.65,0-.97-.24-.97-.72v-.06h0Z"/>
    <path class="cls-5" d="M29.88,58.21c-.04.58-.35.87-.94.87-.36,0-.63-.12-.81-.34-.17-.21-.26-.5-.26-.87s.09-.69.26-.92c.19-.26.47-.39.85-.39.26,0,.47.07.63.2.17.15.26.34.26.6h0s-.43,0-.43,0c0-.14-.05-.26-.14-.36-.09-.1-.21-.15-.35-.15-.22,0-.38.1-.48.3-.08.16-.12.36-.12.59,0,.65.2.98.6.98.16,0,.28-.05.37-.15.09-.1.14-.23.14-.39h.43,0Z"/>
    <path class="cls-5" d="M30.94,57.01c.06-.14.16-.25.31-.32.13-.07.28-.1.44-.1.34,0,.58.11.74.33.08.1.12.31.12.62v1.49h-.44v-1.52c0-.39-.18-.59-.54-.59-.18,0-.32.04-.44.14-.13.1-.2.23-.2.41v1.56h-.44v-3.45h.44v1.44h0Z"/>
    <polygon class="cls-5" points="33.15 58.02 33.15 57.62 34.29 57.62 34.29 58.02 33.15 58.02 33.15 58.02"/>
    <polygon class="cls-5" points="35.37 59.02 34.91 59.02 34.91 55.57 35.37 55.57 35.37 59.02 35.37 59.02"/>
    <path class="cls-5" d="M36.14,59.02v-2.03c0-.14,0-.26-.01-.38h.44v.46c.09-.31.32-.46.69-.46.07,0,.13,0,.18.01v.42c-.1-.02-.18-.03-.24-.03-.41,0-.62.22-.62.65v1.35s-.44,0-.44,0Z"/>
    <path class="cls-3" d="M39.76,59.02h-.4c-.03-.1-.05-.22-.05-.36h0c-.12.28-.38.42-.77.42-.23,0-.42-.06-.57-.18-.16-.13-.23-.31-.23-.54,0-.29.12-.5.37-.65.2-.12.46-.18.77-.18h.42v-.29c0-.26-.16-.39-.47-.39s-.48.14-.49.41h-.42v-.04c0-.44.29-.66.88-.66.3,0,.53.05.68.15.18.12.27.32.27.6v1.48c0,.05,0,.13.02.23h0ZM39.29,57.83h-.37c-.2,0-.36.03-.48.09-.16.08-.24.21-.24.39,0,.12.04.22.13.3.09.07.2.11.32.11.43,0,.64-.22.64-.65v-.24h0Z"/>
    <path class="cls-5" d="M40.92,57.01c.06-.14.16-.25.31-.32.13-.07.28-.1.44-.1.34,0,.58.11.74.33.08.1.12.31.12.61v1.5h-.44v-1.52c0-.39-.18-.59-.53-.59-.18,0-.32.04-.44.14-.13.1-.2.23-.2.41v1.56h-.44v-1.91c0-.18,0-.34-.02-.49h.45v.39h.01,0Z"/>
    <path class="cls-3" d="M43.76,56.06h-.52v-.49h.52v.49h0ZM43.28,59.02v-2.4h.44v2.4h-.44Z"/>
    <path class="cls-5" d="M44.3,58.3h.44c0,.15.05.26.15.34.09.07.21.11.36.11.13,0,.25-.03.34-.09.11-.07.16-.17.16-.29,0-.17-.1-.27-.29-.31l-.51-.12c-.42-.1-.64-.31-.64-.63,0-.24.1-.43.31-.57.18-.11.4-.17.66-.17.24,0,.43.04.59.14.19.11.28.28.28.5,0,.03,0,.05,0,.07h-.44v-.02c0-.12-.05-.22-.14-.29-.08-.06-.19-.09-.32-.09-.12,0-.23.03-.32.08-.11.07-.16.15-.16.27,0,.14.12.25.35.31l.55.15c.37.1.55.32.55.64,0,.25-.1.44-.3.58-.17.11-.39.17-.66.17-.65,0-.97-.24-.97-.72v-.06h0Z"/>
    <path class="cls-5" d="M48.69,58.21c-.04.58-.35.87-.94.87-.36,0-.63-.12-.81-.34-.17-.21-.26-.5-.26-.87s.09-.69.26-.92c.19-.26.47-.39.85-.39.26,0,.47.07.63.2.17.15.26.34.26.6h0s-.43,0-.43,0c0-.14-.05-.26-.14-.36-.09-.1-.21-.15-.35-.15-.22,0-.38.1-.48.3-.08.16-.12.36-.12.59,0,.65.2.98.6.98.16,0,.28-.05.37-.15s.14-.23.14-.39h.43,0Z"/>
    <path class="cls-5" d="M49.75,57.01c.06-.14.16-.25.31-.32.13-.07.28-.1.44-.1.34,0,.58.11.74.33.08.1.12.31.12.62v1.49h-.44v-1.52c0-.39-.18-.59-.53-.59-.18,0-.32.04-.44.14-.13.1-.2.23-.2.41v1.56h-.44v-3.45h.44v1.44h0Z"/>
    <path class="cls-3" d="M52.44,57.58h1.24v-.05c0-.19-.05-.34-.15-.47-.11-.13-.26-.2-.44-.2-.2,0-.36.07-.48.21-.11.13-.17.3-.17.51h0ZM54.08,58.25c0,.27-.1.47-.29.62-.18.14-.4.2-.68.2-.76,0-1.14-.4-1.14-1.21,0-.39.08-.7.25-.93.19-.25.47-.38.85-.38.32,0,.58.09.77.28.19.18.28.44.28.76,0,.12,0,.22,0,.29h-1.7v.14c0,.22.06.39.17.52.12.13.28.19.5.19.17,0,.3-.04.4-.12.11-.09.17-.21.18-.38h.42Z"/>
    <polygon class="cls-5" points="56.56 59.02 56.1 59.02 56.1 55.57 56.56 55.57 56.56 57.04 58.26 57.04 58.26 55.57 58.72 55.57 58.72 59.02 58.26 59.02 58.26 57.46 56.56 57.46 56.56 59.02 56.56 59.02"/>
    <path class="cls-3" d="M61.33,59.02h-.4c-.03-.1-.05-.22-.05-.36h0c-.12.28-.38.42-.77.42-.23,0-.42-.06-.57-.18-.16-.13-.23-.31-.23-.54,0-.29.12-.5.37-.65.2-.12.46-.18.77-.18h.42v-.29c0-.26-.16-.39-.47-.39s-.48.14-.49.41h-.42v-.04c0-.44.29-.66.88-.66.31,0,.53.05.68.15.18.12.27.32.27.6v1.48c0,.05,0,.13.02.23h0ZM60.87,57.83h-.37c-.2,0-.36.03-.48.09-.16.08-.24.21-.24.39,0,.12.04.22.13.3s.2.11.32.11c.43,0,.64-.22.64-.65v-.24h0Z"/>
    <path class="cls-5" d="M62.49,57.01c.06-.14.16-.25.31-.32.13-.07.28-.1.44-.1.34,0,.58.11.74.33.08.1.12.31.12.61v1.5h-.44v-1.52c0-.39-.18-.59-.53-.59-.18,0-.32.04-.44.14-.13.1-.2.23-.2.41v1.56h-.44v-1.91c0-.18,0-.34-.02-.49h.45v.39h.01Z"/>
    <path class="cls-3" d="M65.17,57.79c0,.26.05.48.15.66.12.23.3.34.54.34s.42-.1.54-.3c.1-.17.16-.37.16-.62s-.05-.48-.15-.66c-.12-.23-.3-.34-.54-.34s-.42.1-.54.3c-.1.17-.16.37-.16.62h0ZM66.56,59.02l-.02-.36c-.21.28-.47.42-.77.42-.35,0-.62-.12-.81-.37-.17-.22-.26-.51-.26-.88s.08-.66.25-.88c.19-.25.46-.37.81-.37s.6.13.79.4v-1.41h.44v2.97c0,.16,0,.32.03.48h-.45Z"/>
    <path class="cls-3" d="M68.06,57.58h1.24v-.05c0-.19-.05-.34-.15-.47-.11-.13-.26-.2-.44-.2-.2,0-.36.07-.48.21-.11.13-.17.3-.17.51h0ZM69.71,58.25c0,.27-.1.47-.29.62-.18.14-.4.2-.68.2-.76,0-1.14-.4-1.14-1.21,0-.39.09-.7.25-.93.19-.25.47-.38.85-.38.32,0,.58.09.77.28.19.18.28.44.28.76,0,.12,0,.22,0,.29h-1.71v.14c0,.22.06.39.17.52.12.13.28.19.5.19.17,0,.3-.04.4-.12.11-.09.17-.21.18-.38h.42Z"/>
    <polygon class="cls-5" points="70.82 59.02 70.37 59.02 70.37 55.57 70.82 55.57 70.82 59.02 70.82 59.02"/>
    <path class="cls-5" d="M71.39,58.3h.44c0,.15.05.26.15.34.09.07.21.11.36.11.13,0,.25-.03.34-.09.11-.07.16-.17.16-.29,0-.17-.1-.27-.29-.31l-.51-.12c-.42-.1-.64-.31-.64-.63,0-.24.1-.43.31-.57.18-.11.4-.17.66-.17.24,0,.43.04.59.14.19.11.28.28.28.5,0,.03,0,.05,0,.07h-.44v-.02c0-.12-.05-.22-.14-.29-.08-.06-.19-.09-.32-.09-.12,0-.23.03-.32.08-.11.07-.16.15-.16.27,0,.14.12.25.35.31l.55.15c.37.1.55.32.55.64,0,.25-.1.44-.3.58-.17.11-.39.17-.66.17-.65,0-.97-.24-.97-.72v-.06h0Z"/>
    <path class="cls-3" d="M73.91,55.57h.44v1.41c.23-.27.51-.4.81-.4.35,0,.61.12.79.37.15.21.23.51.23.87s-.08.66-.25.88c-.18.25-.45.38-.8.38s-.6-.13-.79-.39l-.02.33h-.45c.02-.15.03-.31.03-.48v-2.97h0ZM74.35,57.86c0,.25.05.46.16.63.12.2.3.3.54.3s.42-.11.54-.34c.09-.18.15-.4.15-.66s-.05-.46-.16-.62c-.12-.2-.3-.3-.54-.3s-.42.11-.54.34c-.1.18-.15.4-.15.66h0Z"/>
    <path class="cls-3" d="M78.64,59.02h-.4c-.03-.1-.05-.22-.05-.36h0c-.12.28-.38.42-.77.42-.23,0-.42-.06-.57-.18-.16-.13-.23-.31-.23-.54,0-.29.12-.5.37-.65.2-.12.46-.18.77-.18h.42v-.29c0-.26-.16-.39-.47-.39s-.48.14-.49.41h-.42v-.04c0-.44.29-.66.88-.66.31,0,.53.05.68.15.18.12.27.32.27.6v1.48c0,.05,0,.13.02.23h0ZM78.17,57.83h-.37c-.2,0-.36.03-.48.09-.16.08-.24.21-.24.39,0,.12.04.22.13.3s.2.11.32.11c.43,0,.64-.22.64-.65v-.24h0Z"/>
    <path class="cls-5" d="M79.8,57.01c.06-.14.16-.25.31-.32.13-.07.28-.1.44-.1.34,0,.58.11.74.33.08.1.12.31.12.61v1.5h-.44v-1.52c0-.39-.18-.59-.53-.59-.18,0-.32.04-.44.14-.13.1-.2.23-.2.41v1.56h-.44v-1.91c0-.18,0-.34-.02-.49h.45v.39h.01Z"/>
    <polygon class="cls-5" points="82.59 59.02 82.15 59.02 82.15 55.57 82.59 55.57 82.59 57.6 83.5 56.61 84.04 56.61 83.04 57.65 84.11 59.02 83.57 59.02 82.59 57.73 82.59 59.02 82.59 59.02"/>
    <path class="cls-3" d="M87.82,57.74l-.63-1.7-.67,1.7h1.3ZM85.98,59.02h-.48l1.47-3.45h.49l1.39,3.45h-.54l-.34-.89h-1.6l-.38.89h0Z"/>
    <path class="cls-5" d="M92.04,58.86c-.45.15-.85.22-1.21.22-.54,0-.96-.16-1.25-.47-.29-.31-.44-.74-.44-1.28s.14-.98.43-1.31c.3-.34.72-.51,1.26-.51.33,0,.6.07.82.2.25.16.38.39.39.71h-.5c0-.18-.09-.32-.26-.42-.15-.09-.31-.13-.51-.13-.39,0-.69.15-.88.44-.17.26-.26.59-.26,1s.1.75.29.99c.21.26.52.39.93.39.18,0,.42-.04.7-.12v-1.03h-.72v-.39h1.21v1.7h0Z"/>
    <polygon class="cls-5" points="91.99 43.97 91.99 50.62 85.35 50.62 85.35 43.97 91.99 43.97 91.99 43.97"/>
    <polygon class="cls-1" points="88.69 47.27 88.69 53.92 82.05 53.92 82.05 47.27 88.69 47.27 88.69 47.27"/>
    <polygon class="cls-6" points="88.69 47.27 88.69 53.92 82.05 53.92 82.05 47.27 88.69 47.27 88.69 47.27"/>
  </g>
</svg>