<?xml version="1.0" encoding="UTF-8"?>
<svg id="Laag_1" data-name="Laag 1" xmlns="http://www.w3.org/2000/svg" version="1.1" viewBox="0 0 100 100">
  <defs>
    <style>
      .cls-1 {
        fill: #e53143;
      }

      .cls-1, .cls-2 {
        stroke-width: 0px;
      }

      .cls-2 {
        fill: #fff;
      }
    </style>
  </defs>
  <path class="cls-1" d="M90,100H10c-5.5,0-10-4.5-10-10V10C0,4.5,4.5,0,10,0h80c5.5,0,10,4.5,10,10v80c0,5.5-4.5,10-10,10Z"/>
  <path class="cls-2" d="M30,52.3h-4.8c-1.5,0-2.7-1-2.7-2.2s1.2-2.2,2.7-2.2h4.8c.4-3.9,1.9-7.5,4.3-10.5l-3.1-3.1c-1-1-1.2-2.5-.3-3.4s2.4-.7,3.4.3l3.1,3.1c3-2.4,6.6-4,10.6-4.5v-4.3c0-1.5,1-2.7,2.2-2.7s2.2,1.2,2.2,2.7v4.3c4,.4,7.8,2.1,10.8,4.5l3-3c1-1,2.5-1.2,3.4-.3s.7,2.4-.3,3.4l-3,3c2.4,3,3.9,6.6,4.3,10.5h3.9c1.5,0,2.7,1,2.7,2.2s-1.2,2.2-2.7,2.2h-3.9c-.4,4-2.1,7.6-4.5,10.6l2.8,3c1,1,1.2,2.5.3,3.4-.9.9-2.4.7-3.4-.3l-3-3c-3,2.4-6.6,3.9-10.5,4.2v4.3c0,1.5-1,2.7-2.2,2.7s-2.2-1.2-2.2-2.7v-4.3c-3.9-.4-7.5-1.9-10.3-4.2l-3.1,3.1c-1,1-2.5,1.2-3.4.3-.9-.9-.7-2.4.3-3.4l3.1-3.1c-2.5-3-4.2-6.6-4.6-10.6h0ZM43.6,48.9c.1-.9.4-1.6.9-2.4l-4.8-4.6c-1.6,1.9-2.7,4.5-2.8,7.2h6.7ZM46.5,44.5c.6-.4,1.3-.7,2.1-.9v-6.7c-2.5.3-4.9,1.3-6.9,3l4.8,4.6h0ZM51.3,43.5c1,.1,2.1.6,2.8,1.2l4.6-4.6c-2.1-1.8-4.8-2.8-7.6-3.1v6.6h.1ZM55.9,46.5c.4.7.7,1.5.9,2.4h6.6c-.3-2.7-1.2-5.1-2.8-7l-4.6,4.6h0ZM56.8,51.4c-.1.9-.6,1.6-1,2.4l4.6,4.6c1.6-1.9,2.7-4.3,3-7h-6.6ZM53.8,55.6c-.7.4-1.6.9-2.7,1v6.6c2.8-.1,5.4-1.3,7.3-3l-4.6-4.6h0ZM48.6,56.5c-.7-.1-1.3-.4-1.9-.7l-4.8,4.6c1.9,1.5,4.2,2.5,6.7,2.8v-6.7h0ZM44.8,54c-.4-.7-.9-1.5-1-2.5h-6.7c.3,2.7,1.3,5.2,3,7.2l4.8-4.6h0Z"/>
</svg>