<?xml version="1.0" encoding="UTF-8"?>
<svg id="Laag_1" xmlns="http://www.w3.org/2000/svg" version="1.1" viewBox="0 0 100 100">
  <!-- Generator: Adobe Illustrator 30.5.1, SVG Export Plug-In . SVG Version: 2.1.4 Build 3)  -->
  <defs>
    <style>
      .st0 {
        fill: #fff;
      }

      .st1 {
        fill: #ce163a;
        fill-rule: evenodd;
      }
    </style>
  </defs>
  <path class="st0" d="M11.5,100h77c6.3,0,11.5-5.1,11.5-11.5V11.5C100,5.1,94.9,0,88.5,0H11.5C5.1,0,0,5.1,0,11.5v77c0,6.3,5.1,11.5,11.5,11.5Z"/>
  <g id="Layer_2">
    <g id="Layer_1-2">
      <path class="st0" d="M25.6,45.5c.6-3.6,2-7,4.1-10.1l-2.7-2.7c-1.8-1.8-1.8-4.7,0-6.4,1.8-1.8,4.6-1.8,6.4,0,0,0,0,0,0,0l2.6,2.6c3-2.1,6.5-3.5,10.1-4.1v-3.6c-.2-2.5,1.7-4.6,4.2-4.8,2.5-.2,4.6,1.7,4.8,4.2,0,.2,0,.4,0,.6v3.5c3.7.7,7.2,2.1,10.3,4.3l2.4-2.4c1.8-1.8,4.6-1.8,6.4,0,0,0,0,0,0,0,1.8,1.8,1.8,4.7,0,6.4l-2.4,2.4c2.1,3,3.5,6.4,4.1,10.1h2.8c2.5-.2,4.7,1.7,4.8,4.2.2,2.5-1.7,4.7-4.2,4.8-.2,0-.4,0-.6,0h-2.8c-.7,3.7-2.1,7.2-4.3,10.3l2.1,2.2c1.8,1.8,1.8,4.7,0,6.4-1.8,1.8-4.6,1.8-6.4,0,0,0,0,0,0,0l-2.2-2.2c-3,2.1-6.4,3.5-10,4.1v3.3c.2,2.5-1.7,4.6-4.2,4.8s-4.6-1.7-4.8-4.2c0-.2,0-.4,0-.6v-3.5c-3.5-.7-6.9-2.1-9.8-4.1l-2.4,2.4c-1.8,1.8-4.6,1.8-6.4,0,0,0,0,0,0,0-1.8-1.8-1.8-4.6,0-6.4l2.4-2.4c-2.2-3.1-3.6-6.6-4.3-10.3h-4.1c-2.5.2-4.7-1.7-4.8-4.2-.2-2.5,1.7-4.7,4.2-4.8.2,0,.4,0,.6,0h3.8"/>
      <path class="st1" d="M35.7,48.3c.3-2.8,1.4-5.4,3.1-7.6l5.4,5.4c-.4.7-.7,1.4-.9,2.2M41.2,38c2.1-1.7,4.6-2.8,7.2-3.1v7.7c-.6.2-1.3.5-1.8.8l-5.4-5.4ZM52,34.8c3,.3,5.8,1.5,8.1,3.4l-5.4,5.4c-.8-.5-1.7-.9-2.7-1.1v-7.6ZM62.6,40.7c1.7,2.2,2.7,4.8,3,7.5h-7.6c-.2-.7-.4-1.4-.8-2.1l5.4-5.5ZM65.6,51.9c-.3,2.7-1.4,5.3-3.1,7.5l-5.4-5.4c.4-.6.7-1.3.9-2.1h7.6ZM59.8,61.9c-2.2,1.8-4.9,2.9-7.8,3.1v-7.6c.8-.2,1.7-.5,2.4-.9l5.4,5.3ZM48.4,65c-2.6-.4-5-1.4-7-3l5.4-5.4c.5.3,1,.5,1.6.7v7.7ZM38.8,59.5c-1.8-2.2-2.9-4.8-3.2-7.6h7.6c.2.8.5,1.6,1,2.2l-5.4,5.4ZM27.6,52.5h-5.4c-1.5.1-2.9-1-3-2.5.2-1.6,1.6-2.7,3.1-2.5,0,0,0,0,0,0h5.4c.5-4.4,2.1-8.5,4.9-12l-3.7-3.7c-1.2-1-1.3-2.7-.4-3.9,1.2-1,2.9-.8,3.9.4l3.6,3.7c3.4-2.8,7.6-4.5,12-5v-5c-.3-1.4.6-2.7,2-3s2.7.6,3,2c0,.3,0,.7,0,1v5c4.4.5,8.6,2.2,12.1,5l3.4-3.4c1-1.2,2.7-1.3,3.9-.4,1,1.2.8,2.9-.4,3.9l-3.3,3.4c2.7,3.4,4.4,7.6,4.9,11.9h4.4c1.5-.1,2.9,1,3,2.5-.2,1.5-1.5,2.7-3,2.5h-4.5c-.5,4.4-2.3,8.6-5.1,12.1l3.3,3.4c1.2.8,1.5,2.4.7,3.6-.8,1.2-2.4,1.5-3.6.7-.3-.2-.5-.4-.7-.7l-3.4-3.4c-3.4,2.7-7.5,4.4-11.9,4.9v5c.3,1.4-.6,2.7-2,3s-2.7-.6-3-2c0-.3,0-.7,0-1v-4.9c-4.3-.5-8.4-2.2-11.8-4.9l-3.6,3.6c-1,1.2-2.7,1.3-3.9.4-1-1.2-.8-2.9.3-3.9l3.6-3.6c-2.8-3.5-4.6-7.7-5.1-12.1"/>
    </g>
  </g>
</svg>