<?xml version="1.0" encoding="UTF-8"?>
<svg xmlns="http://www.w3.org/2000/svg" xmlns:xlink="http://www.w3.org/1999/xlink" viewBox="0 0 100 100">
  <defs>
    <style>
      .cls-1 {
        fill: none;
      }

      .cls-2 {
        fill: #f9df15;
      }

      .cls-3 {
        fill: #010100;
      }

      .cls-4 {
        clip-path: url(#clippath);
      }
    </style>
    <clipPath id="clippath">
      <path class="cls-1" d="M11.484,0h77.032c6.343,0,11.484,5.142,11.484,11.484v77.032c0,6.343-5.142,11.484-11.484,11.484H11.484c-6.343,0-11.484-5.142-11.484-11.484V11.484C0,5.142,5.142,0,11.484,0Z"/>
    </clipPath>
  </defs>
  <g id="Basis">
    <path class="cls-2" d="M11.484,0h77.032c6.343,0,11.484,5.142,11.484,11.484v77.032c0,6.343-5.142,11.484-11.484,11.484H11.484c-6.343,0-11.484-5.142-11.484-11.484V11.484C0,5.142,5.142,0,11.484,0Z"/>
    <path class="cls-2" d="M11.484,0h77.032c6.343,0,11.484,5.142,11.484,11.484v77.032c0,6.343-5.142,11.484-11.484,11.484H11.484c-6.343,0-11.484-5.142-11.484-11.484V11.484C0,5.142,5.142,0,11.484,0Z"/>
  </g>
  <g id="Laag_1" data-name="Laag 1">
    <g class="cls-4">
      <g>
        <path class="cls-3" d="M100.732,36.248v55.445c-9.218,2.619-20.83,2.061-30.159-.271-2.84-.71-5.399-1.706-7.936-3.326l-.123,3.51-12.573-.056c3.343-1.582,6.307-3.464,8.823-6.102,2.566-2.698,4.338-5.855,5.158-9.494.552-2.044.695-4.014.972-6.205,4.743,5.655,13.181,6.836,19.589,3.773,2.403-1.203,4.37-2.845,5.742-5.129,2.097-3.491,1.906-7.718-.526-10.988-1.517-2.04-3.511-3.44-5.871-4.444-6.411-2.574-14.954-1.334-19.426,4.565-.992-5.098-3.263-9.616-6.866-13.326-2.64-2.743-5.64-4.79-9.03-6.555-4.362-2.206-8.896-3.672-13.816-4.712l-.004-26.549h27.514s.017,31.471.017,31.471c12.615-4.724,25.837-5.113,38.515-1.608Z"/>
        <path class="cls-3" d="M-.45,90.013l-.135-37.563-.089-15.172c-.002-.324.117-.579.211-.764,13.48-3.577,28.625-3.785,42.011.719,11.466,3.858,20.283,11.646,20.952,24.406.15,2.863.455,5.606-.001,8.476l-53.593.007c.054,3.01,1.899,5.361,4.495,6.597,2.472,1.176,5.141,1.397,7.909,1.379,3.418-.022,9.939.104,11.911-3.14l28.343.026c-.702,3.506-2.443,6.304-4.72,8.778-5.423,5.607-12.801,7.968-20.368,9.118-4.304.654-8.421.649-12.809.723-8.282.139-16.36-1.018-24.12-3.591ZM32.762,54.988c-.924-2.302-2.657-3.548-4.661-4.528-4.951-2.246-16.403-2.128-18.357,4.546l23.018-.018Z"/>
      </g>
    </g>
  </g>
</svg>