<?xml version="1.0" encoding="UTF-8"?>
<svg id="Laag_1" data-name="Laag 1" xmlns="http://www.w3.org/2000/svg" version="1.1" viewBox="0 0 100 100">
  <defs>
    <style>
      .cls-1 {
        fill: #14cb14;
      }

      .cls-1, .cls-2 {
        stroke-width: 0px;
      }

      .cls-2 {
        fill: #fff;
      }
    </style>
  </defs>
  <path class="cls-1" d="M90,100H10c-5.5,0-10-4.5-10-10V10C0,4.5,4.5,0,10,0h80c5.5,0,10,4.5,10,10v80c0,5.5-4.5,10-10,10Z"/>
  <g id="HaV6MC.tif">
    <g>
      <path class="cls-2" d="M51.1,21.3c-7.2,3.6-12.8,8.9-16.7,15.9-4.1,7.4-5.6,15.3-4.5,23.7.6,4.5,1.9,8.7,4,12.8,0,.1.2.2,0,.5-.5-.4-1.1-.7-1.6-1.1-.5-.4-1-.8-1.5-1.2-5.6-5-8.8-11.3-9.7-18.8,0-.1,0-.3-.2-.4v-.4c.2-.3,0-.6,0-.9,0-.2,0-.5,0-.7,0-.7,0-1.5,0-2.2v-1.2c.2-2.1.6-4.2,1.3-6.2,1.9-5.7,5.3-10.4,10.1-14.1,3.9-3,8.3-4.8,13.1-5.5.8-.1,1.5,0,2.3-.2h.9c.3.2.6,0,.9,0,.5.1,1-.2,1.5.2Z"/>
      <path class="cls-2" d="M21,48.2c.3.8,0,1.5.1,2.3,0,0,0,0-.1,0v-2.3Z"/>
      <path class="cls-2" d="M51.1,21.3c-.5-.3-1.1,0-1.6-.1,0,0,0,0,0,0,0,0,0,0,0,0h1.9c0,.1-.1.2-.3.3Z"/>
      <path class="cls-2" d="M49.6,21s0,0,0,.1c-.3,0-.6.2-.9-.1h.9Z"/>
      <path class="cls-2" d="M21.2,51.2c0,.3.2.6-.1.9v-.9c0,0,0,0,.1,0Z"/>
      <path class="cls-2" d="M21.2,51.2s0,0-.1,0v-.7s0,0,.1,0c0,.2,0,.5,0,.7Z"/>
      <path class="cls-2" d="M59.5,38.6c7.8.3,14.6,4.3,19.2,11.9.2.3.2.6.2.9-.5,8.2-3.9,15.1-10.1,20.6-4.6,4-9.9,6.2-15.9,6.8-3.9.4-7.7,0-11.4-1.1-.3,0-.4-.3-.6-.5-10.6-12-6.1-30.8,8.8-36.9,2.8-1.2,5.7-1.7,9.9-1.7Z"/>
      <path class="cls-2" d="M34.5,48.3c.3-1.5.7-2.9,1.2-4.1,4.2-10.9,11.9-18,23.1-21.5.3,0,.6-.1.9,0,9.3,3.5,15.3,10,18.2,19.5,0,.1,0,.3,0,.5-6.5-6.3-14.1-9.1-23-8-8.9,1.1-15.6,5.8-20.4,13.6Z"/>
    </g>
  </g>
</svg>