<?xml version="1.0" encoding="UTF-8"?>
<svg id="Laag_1" data-name="Laag 1" xmlns="http://www.w3.org/2000/svg" viewBox="0 0 100 100">
  <defs>
    <style>
      .cls-1 {
        fill: #fff;
        fill-rule: evenodd;
      }

      .cls-2 {
        fill: #ff5762;
      }
    </style>
  </defs>
  <path class="cls-2" d="M11.486,99.998h77.029c6.343,0,11.486-5.142,11.486-11.486V11.487C100,5.144,94.858.002,88.514.002H11.486C5.142.002,0,5.144,0,11.487v77.025c0,6.343,5.142,11.486,11.486,11.486Z"/>
  <path class="cls-1" d="M29.668,19.979c-.815,0-1.483.667-1.483,1.483v8.969c0,.815.667,1.483,1.483,1.483h38.249c.667,0,1.26-.445,1.483-1.112l2.372-8.969c.222-.964-.445-1.853-1.483-1.853H29.668ZM39.23,80.021h-9.562c-.815,0-1.483-.667-1.483-1.483v-33.06c0-.815.667-1.483,1.483-1.483h34.246c.964,0,1.705.964,1.483,1.853l-2.372,8.969c-.148.667-.741,1.112-1.483,1.112h-19.273c-.815,0-1.483.667-1.483,1.483v21.126c0,.815-.667,1.483-1.557,1.483Z"/>
</svg>