<?xml version="1.0" encoding="UTF-8"?>
<svg id="Laag_1" data-name="Laag 1" xmlns="http://www.w3.org/2000/svg" version="1.1" viewBox="0 0 100 100">
  <defs>
    <style>
      .cls-1 {
        fill: #005ca8;
      }

      .cls-1, .cls-2, .cls-3 {
        stroke-width: 0px;
      }

      .cls-2 {
        fill: #fff;
      }

      .cls-3 {
        fill: #eb6608;
      }
    </style>
  </defs>
  <path class="cls-1" d="M90,100H10c-5.5,0-10-4.5-10-10V10C0,4.5,4.5,0,10,0h80c5.5,0,10,4.5,10,10v80c0,5.5-4.5,10-10,10Z"/>
  <path class="cls-3" d="M100,90c0,5.5-4.5,10-10,10H10c-5.5,0-10-4.5-10-10"/>
  <g>
    <g>
      <path class="cls-2" d="M22,34.7h-1.7l-.3,1c-1.1-1-2.4-1.4-4.2-1.4-3.5,0-5.8,1.8-5.8,4.7s.3,1.9.9,2.6c.6.7,1.5,1.1,3.3,1.6l.7.2.7.2.7.2c.8.2,1.4.3,1.9.5.7.2,1,.6,1,1.3,0,1.1-1.1,1.9-2.7,1.9s-3.1-.7-3.8-1.6c-.4-.5-.6-1-.8-2.1h-2v5.3h1.7l.4-1.1c1.3,1.1,2.8,1.6,4.8,1.6,3.5,0,5.6-1.8,5.6-4.8s-.8-2.9-2.3-3.6c-.9-.4-1.5-.5-4.3-1.1-2.2-.4-2.9-.9-2.9-1.8s1.1-1.9,2.7-1.9c2.4,0,3.9,1.4,4.2,3.7h2v-5.1h0Z"/>
      <path class="cls-2" d="M30,40.4c1.3,0,2,1.2,2,3.3s-.7,3.6-2,3.6-2-1.1-2-3.4.7-3.5,2.1-3.5M27.9,38.7h-4.8v1.7h.9c.6,0,.8.3.8,1v9.1c0,.7-.2,1-.8,1h-.9v1.7h6.6v-1.7h-1c-.6,0-.8-.3-.8-1v-2.5c.8.9,1.7,1.3,2.9,1.3,2.9,0,4.4-2,4.4-5.7s-1.6-5.1-4.2-5.1-2.4.5-3.2,1.6c0,0,0-1.2,0-1.2Z"/>
      <path class="cls-2" d="M42.4,45.7c0,.8-.9,1.6-1.9,1.6s-1.2-.5-1.2-1.2.3-1,1.4-1.3c.3,0,.5-.2,1.7-.6v1.6ZM46.4,45.1v1.2c0,.7-.1,1-.5,1s-.4-.2-.4-.7v-4.7c0-2.5-1.4-3.4-4.7-3.4s-4.3,1-4.3,2.7.7,1.8,1.7,1.8,1.6-.6,1.6-1.5-.3-.9-1-1.2c.4-.2.7-.3,1.2-.3,1.5,0,2.4.6,2.4,1.6s-.4,1.3-2,1.6h-.4c0,0-.4.2-.4.2h-.4c-.6.2-1,.4-1.4.5-1.1.4-1.7,1.3-1.7,2.6s1.2,2.8,3.1,2.8,2.4-.5,3.3-1.6c.5,1.1,1.3,1.6,2.7,1.6s2.7-.9,2.7-2.9v-1.2h-1.4Z"/>
      <path class="cls-2" d="M53.3,38.7h-4.9v1.7h1c.6,0,.8.3.8,1v4.8c0,.7-.2,1-.8,1h-1v1.7h6.9v-1.7h-1.2c-.6,0-.7-.3-.7-1v-2.5c0-2.2.8-3.7,2-3.7-.4.6-.6.9-.6,1.2,0,.9.7,1.5,1.5,1.5s1.8-.7,1.8-2-.9-2.3-2.1-2.3-1.7.4-2.7,1.7v-1.5h.1Z"/>
      <path class="cls-2" d="M63.6,40.4c1.3,0,2.1,1.3,2.1,3.4s-.9,3.6-2.2,3.6-2-1.2-2-3.4.8-3.6,2.1-3.6M68.7,34.7h-4.9v1.7h.9c.6,0,.8.3.8,1v2.5c-1-1.1-1.7-1.4-2.9-1.4-2.6,0-4.4,2.3-4.4,5.7s1.7,5.1,4.4,5.1,2.4-.5,3.2-1.5v1.2h4.6v-1.7h-.9c-.6,0-.8-.3-.8-1v-11.5h0Z"/>
      <path class="cls-2" d="M77.4,45.7c0,.8-.9,1.6-1.9,1.6s-1.2-.5-1.2-1.2.3-1,1.4-1.3c.3,0,.5-.2,1.7-.6v1.6ZM81.4,45.1v1.2c0,.7-.1,1-.5,1s-.4-.2-.4-.7v-4.7c0-2.5-1.4-3.4-4.8-3.4s-4.3,1-4.3,2.7.7,1.8,1.7,1.8,1.6-.6,1.6-1.5-.3-.9-1-1.2c.4-.2.7-.3,1.2-.3,1.5,0,2.4.6,2.4,1.6s-.4,1.3-2,1.6h-.4c0,0-.4.2-.4.2h-.4c-.6.2-1,.4-1.4.5-1.1.4-1.7,1.3-1.7,2.6s1.2,2.8,3.1,2.8,2.5-.5,3.3-1.6c.5,1.1,1.3,1.6,2.7,1.6s2.7-.9,2.7-2.9v-1.2h-1.4Z"/>
      <rect class="cls-2" x="83.8" y="42.3" width="6.2" height="2.7"/>
    </g>
    <g>
      <path class="cls-2" d="M41.2,67.3v-4.6h2.7c1.7,0,2.6.8,2.6,2.3s-.8,2.3-2.7,2.3h-2.6ZM41.2,60.9v-4.2h2.4c2,0,2.7.6,2.7,2.1s-.8,2.1-2.7,2.1h-2.3,0ZM35.4,54.9v1.7h1.1c.9,0,1.1.3,1.1,1v8.7c0,.7-.3,1-1.1,1h-1.1v1.7h9.7c3.2,0,5.2-1.5,5.2-3.9s-1.1-3.1-3.3-3.5c2-.7,2.9-1.6,2.9-3.1,0-2.3-1.7-3.6-4.9-3.6h-9.6Z"/>
      <path class="cls-2" d="M57.2,65.9c0,.8-.9,1.6-1.9,1.6s-1.2-.5-1.2-1.2.3-1,1.4-1.3c.3,0,.5-.2,1.7-.6v1.6h0ZM61.2,65.3v1.2c0,.7-.1,1-.5,1s-.4-.2-.4-.7v-4.7c0-2.5-1.4-3.4-4.7-3.4s-4.3,1-4.3,2.7.7,1.8,1.7,1.8,1.6-.6,1.6-1.5-.3-.9-1-1.2c.4-.2.7-.3,1.2-.3,1.5,0,2.4.6,2.4,1.6s-.4,1.3-2,1.6h-.4c0,0-.4.2-.4.2h-.4c-.6.2-1,.4-1.4.5-1.1.4-1.7,1.3-1.7,2.6s1.2,2.8,3.1,2.8,2.4-.5,3.3-1.6c.5,1.1,1.3,1.6,2.7,1.6s2.7-.9,2.7-2.9v-1.2h-1.4,0Z"/>
      <path class="cls-2" d="M67.8,58.9h-4.6v1.7h.9c.6,0,.8.3.8,1v4.8c0,.7-.2,1-.8,1h-.9v1.7h6.1v-1.7h-.5c-.6,0-.8-.3-.8-1v-3.2c0-1.8.6-2.6,2-2.6s1.5.6,1.5,2v3.7c0,.7-.2,1-.8,1h-.6v1.7h6.2v-1.7h-.9c-.6,0-.8-.3-.8-1v-4.8c0-1.9-1.3-3-3.4-3s-2.3.4-3.5,1.9v-1.5q0,0,0,0Z"/>
      <path class="cls-2" d="M81.8,54.9h-4.8v1.7h.9c.6,0,.8.3.8,1v8.8c0,.7-.2,1-.8,1h-.9v1.7h6v-1.7h-.3c-.6,0-.8-.2-.8-1v-1l1.3-1,1.6,2.3c0,0,.1.3.1.3,0,.2-.2.3-.6.3h-.5v1.7h6.1v-1.7h-.4c-.4,0-.5-.1-1.1-.9l-2.8-3.9,1.7-1.3c.7-.5,1.1-.6,1.9-.6h.8v-1.7h-6.5v1.7h1c.4,0,.5,0,.5.3s-.1.3-.3.4l-2.8,2.1v-8.5h0Z"/>
    </g>
  </g>
  <rect class="cls-2" x="0" y="80.3" width="99.9" height="9.7"/>
</svg>