<?xml version="1.0" encoding="UTF-8"?>
<svg id="Laag_1" xmlns="http://www.w3.org/2000/svg" version="1.1" viewBox="0 0 100 100">
  <!-- Generator: Adobe Illustrator 30.5.1, SVG Export Plug-In . SVG Version: 2.1.4 Build 3)  -->
  <defs>
    <style>
      .st0 {
        fill: #fff;
      }

      .st1 {
        fill: #4b62a4;
      }
    </style>
  </defs>
  <path class="st0" d="M11.5,100h77c6.3,0,11.5-5.1,11.5-11.5V11.5C100,5.1,94.9,0,88.5,0H11.5C5.1,0,0,5.1,0,11.5v77c0,6.3,5.1,11.5,11.5,11.5Z"/>
  <path class="st1" d="M65.1,81.2c-13.7,6.8-30,3.7-40.3-7.3s-10-16.2-9.4-26.1c1-16.6,14-30.4,30.6-32.2,15.3-1.7,29.3,6.6,35.5,20.5,7.6,16.9.4,36.9-16.4,45.2ZM62.5,26.1c2-2.1,5.8-1.1,7.6.2s3,4,2.7,6.6l3,.2c.5,0,.3,1.5,0,1.9l-3.7,4.6h-2.5c0,0-2.9,3.4-2.9,3.4-.5.6-1.9.8-2.5.5s-1.6-1.6-1.1-2.2c.8-1.2,1.7-2.6,1.2-3.7-.6-.7-1.8.3-2.3.9-1.2,1.5-1.2,2.3-.8,4.2s.2,3.6.2,5.1l-3,3.4,15.4,18.8c0,.3.5,1,.7.8l.6-.7c4.1-4.8,6.1-10.6,6.7-16.9,1.3-13.1-5.4-25.4-16.6-31.4-11.5-6.2-25.6-4.7-35.6,3.8-13.6,11.5-15.1,31.8-3.7,45.3l16.1-19.7-3.1-3.2c0-2.6.1-4.9.5-7.5l-1.3-2.1c-.4-.7-1.6-1.2-2.3-.6,0,1.4.8,2.7,1.4,3.9s-1.6,2.8-2.8,2-2.5-2.3-3.5-3.8l-3-.3-3.5-4.6c-.2-.3-.4-1.4-.3-1.8l3.4-.2c-.5-3,.8-5.6,3-6.9s5.7-1.8,7.5.4l12.3,14.7c4.4-5.3,8-10.1,12.5-14.9ZM32.2,76.7c10.8,7.2,24.8,7.2,35.6,0l-2.3-.8-15.5-16.2-10.9,11.6-4.5,4.7-2.3.8Z"/>
</svg>