<?xml version="1.0" encoding="UTF-8"?>
<svg id="Laag_1" data-name="Laag 1" xmlns="http://www.w3.org/2000/svg" version="1.1" viewBox="0 0 100 100">
  <defs>
    <style>
      .cls-1 {
        fill: #e3e3e3;
      }

      .cls-1, .cls-2, .cls-3, .cls-4, .cls-5 {
        stroke-width: 0px;
      }

      .cls-2 {
        fill: #f60;
      }

      .cls-3 {
        fill: #fefefe;
      }

      .cls-4 {
        fill: #0066b3;
      }

      .cls-5 {
        fill: #fff;
      }
    </style>
  </defs>
  <g>
    <path class="cls-5" d="M96.4,96.4c-1.7,1.7-4,2.6-6.4,2.6H10c-5,0-9-4-9-9V10.1C1,5.1,5,1.1,10,1.1h80c5,0,9,4,9,9v79.9c0,2.4-.9,4.7-2.6,6.4"/>
    <g>
      <path class="cls-1" d="M90,.1H10C4.5.1,0,4.6,0,10.1v79.9c0,5.5,4.5,10,10,10h80c5.5,0,10-4.5,10-10V10.1c0-5.5-4.5-10-10-10ZM99.5,90c0,2.5-1,4.9-2.8,6.7s-4.2,2.8-6.7,2.8H10c-5.2,0-9.5-4.3-9.5-9.5V10.1C.5,4.9,4.8.6,10,.6h80c5.2,0,9.5,4.3,9.5,9.5v79.9Z"/>
      <path class="cls-1" d="M90,.6H10C4.8.6.5,4.9.5,10.1v79.9c0,5.2,4.3,9.5,9.5,9.5h80c2.5,0,4.9-1,6.7-2.8s2.8-4.2,2.8-6.7V10.1c0-5.2-4.3-9.5-9.5-9.5ZM99,90c0,2.4-.9,4.7-2.6,6.4-1.7,1.7-4,2.6-6.4,2.6H10c-5,0-9-4-9-9V10.1C1,5.1,5,1.1,10,1.1h80c5,0,9,4,9,9v79.9Z"/>
      <path class="cls-3" d="M63.3,81.3h.2c.3,0,.6,0,.8-.2-.3,0-.6.2-.8.2h-.2Z"/>
    </g>
  </g>
  <g id="dz_bank_gruppe_logo_outline_en" data-name="dz bank gruppe logo outline en">
    <g id="Group">
      <path id="Shape" class="cls-2" d="M87,66.4h-28.2c-.8,4.1-1.5,7.5-1.7,8.8h29.8c.1,0,.1-8.8.1-8.8ZM13.1,66.4v8.8h29.7l-2-8.8H13.1Z"/>
      <path id="Shape-2" data-name="Shape" class="cls-4" d="M27.6,45.8l-2.1-9h18.4l6,26h.2l3.7-16.6c1.9-7.6,2.6-9.4,13.3-9.4h7.7s-1.6,7-3.5,14.5c-.8,2.8-7.1,2.6-6.8-.1,0-.3.3-2.3.6-3.7.3-2-2-2.4-2.5-.3-.3,1.5-1.7,8.8-3,15.6h27.4V25.5H13.1v37.3h26.9l-3.8-16.9h-8.5Z"/>
    </g>
  </g>
</svg>