<?xml version="1.0" encoding="UTF-8"?>
<svg id="Laag_1" data-name="Laag 1" xmlns="http://www.w3.org/2000/svg" viewBox="0 0 100 100">
  <defs>
    <style>
      .cls-1 {
        fill: #272955;
      }

      .cls-2 {
        fill: #292b4c;
      }

      .cls-3 {
        fill: #252754;
      }

      .cls-4 {
        fill: #fff;
      }
    </style>
  </defs>
  <path class="cls-4" d="M11.49,100h77.03c6.34,0,11.49-5.14,11.49-11.49V11.49C100,5.14,94.86,0,88.51,0H11.49C5.14,0,0,5.14,0,11.49v77.03c0,6.34,5.14,11.49,11.49,11.49Z"/>
  <g>
    <path class="cls-3" d="M15.95,83.78v-29.85c16-6.37,33.58-9.47,51.36-11.03.12,14.02-.78,27.34-3.6,40.91l-47.76-.03Z"/>
    <path class="cls-3" d="M65.8,17.1c.85,6.09,1.31,12.23,1.45,18.77-17.65,2.3-34.6,5.8-51.3,10.61v-29.38s49.85,0,49.85,0Z"/>
    <path class="cls-2" d="M63.84,16.16c.38.59,1.23.57,1.9.44-.04.17.05.36.06.5H15.95v-.93h47.89Z"/>
    <path class="cls-1" d="M77.97,42.91c-.06,1.11.94,1.95,2.44,1.65.39-.08.46-1.11.53-1.53h1.88c.49,1.2.3,2.44.3,3.95l-.05,34.95c0,.44.12.79.28.9.14.11.51.09.7.22,0,.58-.28.85-.9.84l-8.07-.07c-.04-13.84-.32-27.29-1.12-40.97,1.65-.41,2.84.07,4.01.07Z"/>
    <path class="cls-1" d="M84.05,33.55l-10.68,1.48-2.05-18.79c4.35-.09,8.35-.13,12.68.02l.05,17.3Z"/>
    <path class="cls-2" d="M84.04,83.04c-.19-.12-.56-.11-.7-.22-.15-.12-.28-.47-.28-.9l.05-34.95c0-1.51.18-2.75-.3-3.94.47,0,.95,0,1.12.43.09.23.01.63.01,1.08l.1,38.5Z"/>
    <path class="cls-2" d="M80.93,43.02c-.06.42-.13,1.45-.53,1.53-1.5.31-2.5-.54-2.44-1.65.94,0,1.84.11,2.96.11Z"/>
    <path class="cls-1" d="M65.74,16.6c-.67.13-1.52.15-1.9-.44.66,0,1.49-.24,1.9.44Z"/>
  </g>
</svg>