<?xml version="1.0" encoding="UTF-8"?>
<svg id="Laag_1" data-name="Laag 1" xmlns="http://www.w3.org/2000/svg" version="1.1" viewBox="0 0 100 100">
  <defs>
    <style>
      .cls-1 {
        fill: #e3e3e3;
      }

      .cls-1, .cls-2, .cls-3, .cls-4 {
        stroke-width: 0px;
      }

      .cls-2 {
        fill: #fefefe;
      }

      .cls-3 {
        fill: #fff;
      }

      .cls-4 {
        fill: #c30045;
      }
    </style>
  </defs>
  <g>
    <path class="cls-3" d="M96.4,96.4c-1.7,1.7-4,2.6-6.4,2.6H10c-5,0-9-4-9-9V10.1C1,5.1,5,1.1,10,1.1h80c5,0,9,4,9,9v79.9c0,2.4-.9,4.7-2.6,6.4"/>
    <g>
      <path class="cls-1" d="M90,.1H10C4.5.1,0,4.6,0,10.1v79.9c0,5.5,4.5,10,10,10h80c5.5,0,10-4.5,10-10V10.1c0-5.5-4.5-10-10-10ZM99.5,90c0,2.5-1,4.9-2.8,6.7s-4.2,2.8-6.7,2.8H10c-5.2,0-9.5-4.3-9.5-9.5V10.1C.5,4.9,4.8.6,10,.6h80c5.2,0,9.5,4.3,9.5,9.5v79.9Z"/>
      <path class="cls-1" d="M90,.6H10C4.8.6.5,4.9.5,10.1v79.9c0,5.2,4.3,9.5,9.5,9.5h80c2.5,0,4.9-1,6.7-2.8s2.8-4.2,2.8-6.7V10.1c0-5.2-4.3-9.5-9.5-9.5ZM99,90c0,2.4-.9,4.7-2.6,6.4-1.7,1.7-4,2.6-6.4,2.6H10c-5,0-9-4-9-9V10.1C1,5.1,5,1.1,10,1.1h80c5,0,9,4,9,9v79.9Z"/>
      <path class="cls-2" d="M63.3,81.3h.2c.3,0,.6,0,.8-.2-.3,0-.6.2-.8.2h-.2Z"/>
    </g>
  </g>
  <g>
    <path class="cls-4" d="M66.9,23.3h-33.8c-5.4,0-9.8,4.4-9.8,9.8v33.8c0,5.4,4.4,9.8,9.8,9.8h43.6v-43.6c0-5.4-4.4-9.8-9.8-9.8ZM60.6,61.3h-21.3c-2.5,0-3.8-1.9-3.8-3.8s1.3-3.8,3.8-3.8h21.3c2.5,0,3.8,2,3.8,3.8s-1.3,3.8-3.8,3.8ZM60.6,46.3h-21.3c-2.5,0-3.8-1.9-3.8-3.8s1.3-3.8,3.8-3.8h21.3c2.5,0,3.8,2,3.8,3.8s-1.3,3.8-3.8,3.8Z"/>
    <path class="cls-3" d="M60.6,38.7h-21.3c-2.5,0-3.8,1.9-3.8,3.8s1.3,3.8,3.8,3.8h21.3c2.5,0,3.8-1.9,3.8-3.8s-1.3-3.8-3.8-3.8Z"/>
    <path class="cls-3" d="M60.6,53.7h-21.3c-2.5,0-3.8,1.9-3.8,3.8s1.3,3.8,3.8,3.8h21.3c2.5,0,3.8-1.9,3.8-3.8s-1.3-3.8-3.8-3.8Z"/>
  </g>
</svg>