<?xml version="1.0" encoding="UTF-8"?>
<svg id="Laag_1" data-name="Laag 1" xmlns="http://www.w3.org/2000/svg" xmlns:xlink="http://www.w3.org/1999/xlink" version="1.1" viewBox="0 0 100 100">
  <defs>
    <style>
      .cls-1 {
        fill: url(#Naamloos_verloop_8-2);
      }

      .cls-1, .cls-2, .cls-3 {
        stroke-width: 0px;
      }

      .cls-2 {
        fill: url(#Naamloos_verloop_8);
      }

      .cls-3 {
        fill: #fff;
      }
    </style>
    <linearGradient id="Naamloos_verloop_8" data-name="Naamloos verloop 8" x1="84.9" y1="64.2" x2="100" y2="64.2" gradientUnits="userSpaceOnUse">
      <stop offset="0" stop-color="#005c9d"/>
      <stop offset="1" stop-color="#0081bb"/>
    </linearGradient>
    <linearGradient id="Naamloos_verloop_8-2" data-name="Naamloos verloop 8" x1="0" y1="50" y2="50" xlink:href="#Naamloos_verloop_8"/>
  </defs>
  <rect class="cls-3" x="19.9" y="12.2" width="80.1" height="72.9"/>
  <g>
    <path class="cls-2" d="M96.3,59c-.8.2-1.6.3-2.5.4-.9.1-1.7.2-2.6.4-.8.2-1.6.4-2.4.6-.7.2-1.4.6-2.1,1-.6.4-1.1,1-1.4,1.7-.4.8-.6,1.7-.5,2.5,0,.9.2,1.7.5,2.5.3.6.8,1.2,1.4,1.6.7.4,1.4.7,2.1.8.8.2,1.7.2,2.5.2,1.7,0,3.4-.3,4.9-1.1,1.1-.6,2-1.5,2.6-2.6.5-.8.8-1.8,1-2.7v-6.7c-.4.3-.9.6-1.5.8-.7.2-1.5.4-2.2.6Z"/>
    <path class="cls-1" d="M94.6,76.9c-2.3.7-4.7,1.1-7.2,1.1-1.8,0-3.5-.2-5.3-.7-1.6-.4-3-1.2-4.3-2.2-1.2-1-2.2-2.3-2.9-3.7-.7-1.7-1.1-3.5-1-5.3,0-1.9.3-3.8,1.2-5.6.7-1.4,1.8-2.6,3-3.5,1.3-.9,2.7-1.6,4.3-2,1.6-.4,3.2-.8,4.8-1,1.6-.3,3.2-.5,4.8-.6,1.4-.1,2.8-.4,4.2-.7,1.1-.2,2-.7,2.9-1.3.3-.3.6-.7.8-1.1v-3.3c0-.3-.2-.7-.4-1-.4-.7-.9-1.2-1.5-1.6-.7-.4-1.4-.7-2.2-.8-.9-.1-1.8-.2-2.7-.2-1.8-.1-3.5.4-5,1.4-.7.6-1.2,1.3-1.6,2.1s-.6,1.7-.6,2.6h-10.9c0-2.3.7-4.5,1.9-6.4,1.1-1.7,2.6-3.1,4.3-4.1,1.8-1.1,3.8-1.8,5.8-2.2,2.1-.4,4.3-.7,6.5-.7,2,0,4,.1,6,.4,0,0,.1,0,.2,0V10c0-5.5-4.5-10-10-10H10C4.5,0,0,4.5,0,10v80c0,5.5,4.5,10,10,10h80c5.5,0,10-4.5,10-10v-16.3c-1.6,1.4-3.4,2.5-5.4,3.1ZM67.8,77h-12v-23.7h-22v23.7h-12V22h12v21.1h22v-21.1h12v54.9Z"/>
  </g>
</svg>