<?xml version="1.0" encoding="UTF-8"?>
<svg id="Laag_1" data-name="Laag 1" xmlns="http://www.w3.org/2000/svg" version="1.1" viewBox="0 0 100 100">
  <defs>
    <style>
      .cls-1 {
        fill: #e20613;
      }

      .cls-1, .cls-2 {
        stroke-width: 0px;
      }

      .cls-2 {
        fill: #fff;
        fill-rule: evenodd;
      }
    </style>
  </defs>
  <path class="cls-1" d="M90,100H10c-5.5,0-10-4.5-10-10V10C0,4.5,4.5,0,10,0h80c5.5,0,10,4.5,10,10v80c0,5.5-4.5,10-10,10Z"/>
  <path class="cls-2" d="M50,19c4.1,0,7.4,3.3,7.4,7.5s-3.3,7.5-7.4,7.5-7.5-3.3-7.5-7.5,3.3-7.5,7.5-7.5h0ZM23.5,48.4c0-4.9,5.5-10.5,10.4-10.5h32.9c4.5,0,9.5,5.1,9.5,9.6v2.4s-41,0-41,0v3.8h41.1v16.4c0,5.2-5.9,10.9-11.1,10.9h-31.3c-5.3,0-10.5-5.4-10.6-10.4v-1.3s40.9,0,40.9,0v-3.7H23.5v-17.2h0Z"/>
</svg>