<?xml version="1.0" encoding="UTF-8"?>
<svg id="Laag_1" data-name="Laag 1" xmlns="http://www.w3.org/2000/svg" version="1.1" viewBox="0 0 100 100">
  <defs>
    <style>
      .cls-1 {
        fill: #e3000f;
      }

      .cls-1, .cls-2, .cls-3, .cls-4 {
        stroke-width: 0px;
      }

      .cls-2 {
        fill: #e3e3e3;
      }

      .cls-3 {
        fill: #fefefe;
      }

      .cls-4 {
        fill: #fff;
      }
    </style>
  </defs>
  <g>
    <path class="cls-4" d="M96.4,96.4c-1.7,1.7-4,2.6-6.4,2.6H10c-5,0-9-4-9-9V10.1C1,5.1,5,1.1,10,1.1h80c5,0,9,4,9,9v79.9c0,2.4-.9,4.7-2.6,6.4"/>
    <g>
      <path class="cls-2" d="M90,.1H10C4.5.1,0,4.6,0,10.1v79.9c0,5.5,4.5,10,10,10h80c5.5,0,10-4.5,10-10V10.1c0-5.5-4.5-10-10-10ZM99.5,90c0,2.5-1,4.9-2.8,6.7s-4.2,2.8-6.7,2.8H10c-5.2,0-9.5-4.3-9.5-9.5V10.1C.5,4.9,4.8.6,10,.6h80c5.2,0,9.5,4.3,9.5,9.5v79.9Z"/>
      <path class="cls-2" d="M90,.6H10C4.8.6.5,4.9.5,10.1v79.9c0,5.2,4.3,9.5,9.5,9.5h80c2.5,0,4.9-1,6.7-2.8s2.8-4.2,2.8-6.7V10.1c0-5.2-4.3-9.5-9.5-9.5ZM99,90c0,2.4-.9,4.7-2.6,6.4-1.7,1.7-4,2.6-6.4,2.6H10c-5,0-9-4-9-9V10.1C1,5.1,5,1.1,10,1.1h80c5,0,9,4,9,9v79.9Z"/>
      <path class="cls-3" d="M63.3,81.3h.2c.3,0,.6,0,.8-.2-.3,0-.6.2-.8.2h-.2Z"/>
    </g>
  </g>
  <g>
    <path class="cls-1" d="M50.7,36.3h0c-1.1,1.3-6.4,8.2-8.8,11.4-1.9,2.9-11.4,16.2-15.1,21.8h0c-4.3-5.3-6.9-12-6.9-19.4,0-16.8,13.6-30.3,30.3-30.6,7.5,0,14.3,2.7,19.7,7.2h-5.3c-3.7,0-14.3.5-17.3,1.3-.8.3-1.3.8-1.3,1.6s.3,1.1.5,1.1c0,0,4.8,2.9,5.1,3.2.3.3.5.8,0,1.6q0-.3,0,0l-.8.8ZM31.5,74c-2.1,1.6-2.7,1.9-3.2,1.6-.3.3-.5.3-.8.3-.8,0-2.1-1.3-2.9-2.7v-.3h0c.3.3.5.5,1.1.5s.5-.3.8-.3c0,0,1.6-.8,8.8-6.1,5.3-3.7,14.1-10.9,22.1-17.8,9-8,16.8-15.1,17.3-15.7,1.1-.8,2.7-2.4,1.9-4.5h0c.3.5,1.3,1.9,1.6,2.4.8,1.9-.3,3.4-1.3,4.5h0c2.1,4.3,3.4,9,3.4,14.1,0,16.8-13.6,30.3-30.3,30.3-6.9,0-13.3-2.4-18.3-6.4h0Z"/>
    <path class="cls-4" d="M50.4,35.8s-6.1,8.2-8.8,11.7c-2.4,3.5-16.7,23.9-16.7,23.9-.3.3-.3.5-.3.8,0,.8.5,1.3,1.3,1.3s.5-.3.8-.3c0,0,1.6-.8,8.8-6.1,5.3-3.7,14.1-10.9,22.1-17.8,9-8,16.8-15.1,17.3-15.7,1.1-1.1,2.4-2.4,1.6-4.8-.5-1.1-2.4-1.6-4.8-1.9-2.1-.3-5.6-.3-7.2-.3-3.7,0-14.3.5-17.3,1.3-.8.3-1.3.8-1.3,1.6s.3,1.1.5,1.1c0,0,4.8,2.9,5.1,3.2.3.3.5.5,0,1.3-.6.8-1.1.5-1.1.5Z"/>
  </g>
</svg>