<?xml version="1.0" encoding="UTF-8"?>
<svg id="Laag_1" data-name="Laag 1" xmlns="http://www.w3.org/2000/svg" xmlns:xlink="http://www.w3.org/1999/xlink" viewBox="0 0 100 100">
  <defs>
    <style>
      .cls-1 {
        fill: #fff;
      }

      .cls-2 {
        fill: #010100;
      }

      .cls-3 {
        fill: #8f40ff;
      }

      .cls-4 {
        clip-path: url(#clippath);
      }
    </style>
    <clipPath id="clippath">
      <rect class="cls-2" width="100" height="100" rx="11.484" ry="11.484"/>
    </clipPath>
  </defs>
  <g id="Basis">
    <path class="cls-1" d="M11.484,0h77.032c6.343,0,11.484,5.142,11.484,11.484v77.032c0,6.343-5.142,11.484-11.484,11.484H11.484c-6.343,0-11.484-5.142-11.484-11.484V11.484C0,5.142,5.142,0,11.484,0Z"/>
  </g>
  <g id="Laag_1-2" data-name="Laag 1">
    <g>
      <rect class="cls-2" width="100" height="100" rx="11.484" ry="11.484"/>
      <g class="cls-4">
        <path class="cls-2" d="M11.484,0h77.032c6.343,0,11.484,5.142,11.484,11.484v77.032c0,6.343-5.142,11.484-11.484,11.484H11.484c-6.343,0-11.484-5.142-11.484-11.484V11.484C0,5.142,5.142,0,11.484,0Z"/>
      </g>
    </g>
  </g>
  <path class="cls-3" d="M77.958,37.199c-4.392-2.605-35.002-20.781-40.126-23.819-5.661.277-10.722,4.686-12.048,10.18-.726,2.732-.784,5.568-.847,8.364-.104,5.482-.663,36.581-.79,43.429-.755.139-1.516.213-2.283.219-.115-6.635-.674-40.956-.778-46.755-.208-6.018,2.398-11.829,8.064-14.446,2.657-1.268,5.764-1.701,8.675-.991-2.882-.813-6.047-.496-8.808.703-5.937,2.484-8.883,8.491-8.883,14.728-.104,5.897-.669,39.296-.801,46.565-.772-.133-1.539-.329-2.283-.594-.063-5.488-.467-42.922-.513-47.234-.576-11.292,11.102-18.994,21.288-14.175-10.203-5.39-22.418,2.023-22.735,13.552-.058,5.107-.496,40.708-.565,46.663l.046.035s.012.011.035.023c4.364,3.038,10.52,3.251,15.114.519,8.837-4.911,32.004-17.777,41.273-22.925,1.101.646,1.891,1.147,2.15,1.378,0,0,.006,0,.011.006-5.344,3.222-31.975,19.253-36.592,22.038-4.635,2.905-9.874,5.574-15.426,3.683-2.617-.824-5.003-2.479-6.612-4.756,3.072,4.761,9.419,6.94,14.838,5.344,2.732-.738,5.217-2.104,7.667-3.447,4.796-2.652,32.01-17.72,38.005-21.034.496.582.94,1.21,1.332,1.868-5.69,3.418-35.134,21.063-40.103,24.049-5.107,3.194-11.442,3.839-16.544.236-2.427-1.666-4.358-4.139-5.2-7.015.738,2.905,2.594,5.482,5.015,7.275,5.119,3.902,11.794,3.447,17.195.329,5.159-2.859,34.367-19.069,40.726-22.591.271.738.484,1.499.628,2.271-4.721,2.796-36.938,21.864-40.645,24.061-9.494,6.145-22.003-.121-22.919-11.35.438,11.529,12.964,18.4,23.104,12.912,4.45-2.502,35.503-19.922,40.697-22.839v-.098c.45-5.297-2.444-10.739-7.107-13.345-8.67-5.199-31.393-18.827-40.489-24.28.012-1.274.046-2.214.121-2.554v-.012c5.465,3.021,32.661,18.066,37.382,20.677,4.831,2.559,9.765,5.764,10.9,11.517.594,2.675.358,5.574-.813,8.099,2.588-5.038,1.303-11.632-2.796-15.523-2.006-1.994-4.427-3.464-6.82-4.917-4.692-2.83-31.347-18.861-37.215-22.4.259-.721.576-1.418.951-2.087,5.805,3.217,35.809,19.893,40.881,22.706,5.321,2.83,9.045,7.995,8.48,14.209-.23,2.934-1.406,5.845-3.482,8.012,2.145-2.092,3.453-4.986,3.793-7.978.818-6.381-2.911-11.938-8.312-15.057-5.056-3.044-33.699-20.233-39.93-23.974.502-.605,1.055-1.17,1.654-1.683,4.784,2.686,37.405,21.057,41.164,23.167,10.065,5.148,10.901,19.115,1.631,25.525,9.765-6.139,9.454-20.429-.369-26.464h.011ZM68.464,49.788c-2.369,1.418-32.638,19.634-36.984,22.205-.046-2.761-.686-38.08-.738-43.135,2.415,1.337,33.324,18.446,37.722,20.931ZM29.739,26.252c-.167,10.111-.605,36.604-.784,47.205-1.107.628-1.937,1.066-2.271,1.176h-.012c-.115-6.243-.686-37.319-.784-42.708-.196-5.465.11-11.339,4.519-15.201,2.023-1.85,4.646-3.095,7.419-3.349l-.052.023s-.017.006-.04.023c-4.813,2.26-8.076,7.488-8.001,12.832h.006Z"/>
</svg>