<?xml version="1.0" encoding="UTF-8"?>
<svg id="Laag_1" data-name="Laag 1" xmlns="http://www.w3.org/2000/svg" version="1.1" viewBox="0 0 100 100">
  <defs>
    <style>
      .cls-1 {
        fill: #ff6200;
      }

      .cls-1, .cls-2 {
        stroke-width: 0px;
      }

      .cls-2 {
        fill: #fff;
      }
    </style>
  </defs>
  <path class="cls-2" d="M90,100H10c-5.5,0-10-4.5-10-10V10C0,4.5,4.5,0,10,0h80c5.5,0,10,4.5,10,10v80c0,5.5-4.5,10-10,10Z"/>
  <g>
    <path class="cls-1" d="M78.6,38.3c2.1,0,4.2.4,5-.4,4.6-2.1-2.5-3.8-3.3-3.8-2.1-.4-6.2-1.7-4.6,0,0,.9,1.2.9,2.1,1.7.8,0,.8,1.7.8,2.5Z"/>
    <path class="cls-1" d="M100,75.3v-5.6c-4.4-1.7-8.4-2.1-10.5-2.7v3.3c1.7.4,2.5,1.3,4.2,1.7.6.2,3.7,1.9,6.3,3.3Z"/>
    <path class="cls-1" d="M100,66.9v-32.2c0,.6-.1,1.2-.1,1.8-.4,1.7-2.5,2.9-3.7,3.3,0,2.9-.8,4.6-1.2,7.1,0,1.3-.4,2.5-.8,3.7,1.2-.4,1.7-1.2,2.9-1.2-.8,5.4-2.1,4.6-3.3,7.1-.5,1.8-1.3,3.5-2.5,5-.7.7-1.3,1.2-2.1,1.7-1.1.4-.3.8-.3,1.3,3,0,6.7.7,11,2.4Z"/>
    <path class="cls-1" d="M93.6,35.4c1.3,0,2.5-.8,2.9-2.1.4-2.1.8-5.4-.4-7.1-.8-.8-1.2-1.3-3.3-1.7-1.6-.4-3.4,0-4.6,1.3-.8,1.2-2.1,2.9-1.7,4.6,2.9.8,5,2.5,7.1,5Z"/>
    <path class="cls-1" d="M89,59c1.7,0-2.1-1.7-3.7-2.9-.3,0-.7-.1-.8-.4-.8-.8-1.3-2.5-2.9-2.9-.3,0-.4-.1-.4-.4,0-1.2-.4-6.2-.4-6.2.8,1.7,2.5,1.7,3.3,1.7,1.7,0,2.9-.4,3.7-1.7,0-.4.4-1.2.8-1.2.8-.4,1.7-.8,2.1-1.7.4,0,.8-.8.8-.8-3.7-.7-11.6-.7-11.6-.7-1.3.4-2.5,1.7-2.5,2.1,0,0,.8,4.6.8,5,0,2.9.4,2.9.4,5.8,1.3.8,1.7.8,2.5,1.7.4.8.8,1.7,1.3,2.5,1.7.8,3.7,1.7,5,2.9.4.1,1.6-2,1.6-2.9Z"/>
    <path class="cls-1" d="M81.1,67.4c2.1,0,3.3,1.3,5,1.7,0-.1.4-2.1.4-2.6-1.2-.4-2.5-1.3-5-.8q-.4.4-.4,1.7Z"/>
    <path class="cls-1" d="M57.8,66.5c.3.8.5,1.7.8,2.5,1.2-.4,1.7-.8,2.5-1.2,0,0,1.7-.8,2.1-1.3-.8-.4-1.7-.4-2.5-.4s-2,.1-2.9.4Z"/>
    <path class="cls-1" d="M58.2,29.6c-.8-2.9-1.7-2.9-3.3-3.8-.8-.7-1.8-.9-2.9-.8-1.7.4-4.6,1.3-5.4,3.8,0,.4-.4,2.1.8,3.7.8,1.7,2.5,2.9,3.3,3.8,1.2-.1,1.7-2.2,3.8-3.4.8-.8,3.3-2.5,3.3-2.5.4,0,.4-.4.4-.8Z"/>
    <path class="cls-1" d="M65.3,55.7v-1.3c.4-3.8.4-4.6.8-7.1,0-.4.4-2.8.4-3.3,0-.8-.8-1.7-2.1-2.1h-5.4c-2.1,0-3.8,0-5.8.4.8,1.7,2.9,3.3,3.7,4.2.8.8,1.7,1.7,3.3,1.7,1.7-.4,1.7,0,2.5-.4,0,.8.4,2.1,0,2.9,0,.4.4,3.8-1.2,4.2-1.2.4-2.9,1.3-3.7,2.5-.8,1.2-1.3,3.3,0,4.2.8.4,1.7-.8,2.9-1.3,1.3-.4,1.2-1.3,1.7-2.5.8-.8,2.5-1.3,2.9-2.1Z"/>
    <path class="cls-1" d="M95.3,91.9c-.5-1.4-1.1-2.8-1.3-4.2.4,0,1.3,0,1.7.4q1.3,0,2.1.4c0,.3,1.3,2,2.1,3.2.1-.6.2-1.2.2-1.8v-11.8c-4.6-2.8-8.1-4-12.1-5.8-.8.8-1.2,2.1-2.5,2.9-.4.4-3.3-2.1-5-2.9-1.2-.8-3.7-1.2-5.4-1.7-.4,0-.4-.8-.4-1.2-.4-1.3-.8-2.5-.4-2.9,2.1-.8,2.9-2.5,2.9-3.7s1.2.4,2.5,0c.8-.8,1.2-1.7.8-2.5,0-.8-.4-1.7-1.2-1.7-4.1-1.7-8.8-1.7-12.9,0-1.3.4-1.3,2.1-.8,3.3.4,1.7,2.1.8,3.3,0,.4,0-.4,1.3.4,2.5.8,1.7,2.5,2.1,2.5,2.5q0,1.3-.4,2.1c0,.8,0,1.7-.8,2.1-2.5.4-4.6,1.2-7.1,2.1-1.2.4-2.5,1.7-3.7,1.7s-1.7-1.7-2.1-2.1c-.8,0-.8-.4-2.5,0-4.9,2-9.6,4.3-14.2,7.1-.8-.8-.4-2.1-.8-2.9,4.6-2.9,9.5-5.4,14.6-7.5.4-.4,0-1.7-.4-2.5,0,0-2.9-.4-8.3,1.3-3.3.8-7.1,2.9-7.5,2.9-.7-1.2-.8-2.1-.8-3.1,2.5-1.3,5.3-2.4,7.9-3.3,2.9-.8,5.8-.8,8.8-1.3-.4,0-.4-.8-.4-1.3-1.2-2.5-3.3-4.6-5.4-6.7-.8-1.7-1.7-3.7-1.7-4.6.8-.8,1.7.4,2.9.4-.5-1.4-.8-3-.8-4.6q-.4-1.7-.4-3.7c0-2.5.8-3.7.4-4.2-.4-.4-2.1-1.2-2.5-1.2-.8-.4-1.2-.4-1.7-1.3-1.3-2.1-2.5-3.7-2.5-5.8s.8-3.8,1.7-5.8c.4-1.7,2.5-2.5,3.8-3.3,1.3-.8,2.5-.4,3.7-.4,2.9,0,5.4,1.7,7.5,2.9,1.4,1.2,2.5,2.8,2.9,4.6h3.7c2.1.4,4.2.8,6.7,2.1,2.9-2.5,7.9-2.9,10.4-2.9,0-4.6,3.3-7.1,5.8-7.1,2.1-.4,3.3-.8,6.3.4,2.1,1.2,5,5.4,5,5.8,0,.1,0,.2.1.3v-11.5c-.9.8-2,1.7-3.1,1.7s-2.1-.4-3.3-.8c-.9-.9-4.6-2.1-6.7-2.1s-4.2,3.3-7.1,5c-1.2.4-3.7.9-6.2,1.7-1.7.8-2.5,1.2-2.5.4-.4-1.7-.4-3.3-.4-5-1.3-.5-2.9-.5-4.2-1.3-.5,2-1.3,3.8-2.5,5.4-1.7-.8-3.3-1.2-5-2.5-2.1-1.2-7.1-4.2-7.5-5-1.6,1.7-6.6,4.6-9.3,6.3-.8,1.4-1.8,2.9-2.9,4.2l-4.2-1.7c.8-1.7,1.7-2.5,2.5-4.2,1.6-2.6,4.1-4.6,5.8-6.3,4.6-1.6,4.6-2.5,10-3.3,2.1,2.5,7.9,6.3,7.9,6.3,0,.8.4-.4,2.1-5.4,1.2.9,2.1.9,3.3,1.7.7,0,1.2.3,1.7.4.4,0,2.9-1.3,3.3-1.7.9-.5,4.6-1.3,4.6-1.3.4.4-1.3,3.3-1.3,3.7v3.4c.7,0,1.2-.1,1.7-.4,2-.8,2.5-4.6,3.3-7.5,1.2.4,2.1.4,3.3.4,0,1.7-.9,4.2.4,4.2s2.9-1.7,5.4-3.8c3.5,1.4,7.2,3.5,10.5,5.6.3.5.4,1.2.5,1.8v-5.8c0-5.5-4.5-10-10-10H10C4.5,0,0,4.5,0,10v80c0,5.5,4.5,10,10,10h23c-.6-1.4-1.2-2.7-1.9-4,0,0,6.2-2.5,7.9-2.5.4.8.8,2.1,1.7,2.9-.6.7-2.2,2.3-3.4,3.6h25c-.5-.7-.8-1.4-.8-1.9,0-1.2-1.7-3.3.4-3.3,0-.9,2.1.4,2.9.4.9-.1,1.7.4,2.1,1.2.5,1.2,0,2.4.3,3.6h3.8c0-.4-.1-.8-.3-1.1,0-.8-.4-2.1,0-3.3,0-1.2,3.3-1.7,5-2.1.4,2.1.8,4.2.4,5.4-.1.4-.3.8-.5,1.1h3.8c0-.3,0-.7,0-1.1,0-.9-.4-2.5-.4-4.2s.8-1.3,2.1-2.1c.4,0,.8-.4,2.5-.8v6.7c0,.4.2.9.3,1.5h5.8c-1.1-1.8-2.4-4.2-2.4-4.9-.4-1.3-.4-3.7,0-5,0,0,2.5.9,3.3,1.3,2.1,0,.5,3,1.3,3.8.1.8,1.3,3,1.9,4,1.9-.8,3.5-2.1,4.6-3.8-.8-.7-2.8-2.9-3.1-3.5ZM40.3,45c.4.8-.4.8-.4,3.3-.5.8-.9.4-1.7,1.2-.4.5-5,3.8-5.4,4.2-.8.4-1.3.8-2.5,2.1-.4-1.2-.4-2.4-.8-3.7,0-.4,0-3.4.4-4.6,0-.8,3.7-2.1,5.8-2.5.9,0,4.2-.8,4.6,0ZM32.8,29.9c0-1.2,0-2.5.8-3.7.8-1.7,2.9-1.7,4.6-1.2-.4,2.9-.8,3.8-.8,7.1s.8,2.5,1.2,3.3c.4.8.8,1.7.8,2.5s-.4.8-.8,1.2c-1.3.9-1.7.5-2.1,1.3-2.1,1.6-2.9,2.5-4.6,3.7q-.9.9-1.7,2.1s-.4-4.6-.8-7.1c1.7-.8,2.5-1.7,4.2-2.9-.4-2.6-.8-4.2-.8-6.3ZM26.9,64.5q-.4-1.3-.4-3.8c2.1-1.2,2.9-2,5-3.3.8-.8,3.7-1.6,7.9-2.9,0,1.6-.4,2.9-.8,4.6-2.6,1.2-4.9,2.9-6.7,5-1.3,1.6-3.8,4.1-4.6,5.4l-.4-5ZM29,83.5c-.4-1.2-.4-2.4-.8-3.7,0-1.3-.4-5.9-.4-6.7v-2.1c1.7-.8,3.7-2.1,5.3-3-.4,2.1-.8,3-.8,6.3s.9,3.3,1.3,6.2c-.8,1.7-1.3,2.9-2.5,4.2-.4.5-.8,1-1.3,1.3,0-.8-.4-1.7-.8-2.5ZM32.8,92.2c0,.9-1.3,1.7-1.3,1.7,0-1.6-.4-3.7-.4-4.6-.4-.8-.8-1.3-.8-2.1.4-.4,1.3-.8,2.1-1.2.4-.8,2.5-2.1,2.9-2.5,1.3,1.2,1.7,1.6,2.5,3.7-.4.4-2.9,2.5-5,5ZM45.7,93c-.9-.4-1.7-.8-1.7-1.2-.4-1.6-.7-3.3-.8-5,0-1.6.9-3.3,1.7-3.3.8.4,2.1.9,2.5,1.7.8,1.2,0,2.9.3,4.1.5,2,1.7,5.8,1.7,5.8-1.2-.8-2.4-1.3-3.7-2.1ZM56.2,98.1c-.9-1.3-1.3-3-1.7-4.2s-1.3-2-2.1-3.3c.4-.4.8-3.7.8-3.7.5-.4,1.3.4,1.7.4.9.7,1.7,1.4,2.1,2.5.4.8.8,2.9.8,2.9,0,2.9-1.3,3.7-1.6,5.4ZM82.8,82.4c0,.4-.9,2.1-1.7,2.9-1.3-1.6-3.8-3.3-3.8-3.3.4,1.7,0,2.1-.4,4.2,0,.4-2.9.4-2.9.4-2.5-1.2-2.9-2.9-2.9-2.9,0,.4-.4,3.3-2.1,3.3s-2.9,0-2.9-1.3c-.4-1.2-.4-2-.4-3.3v-1.7c-1.2.4-2.1,1.7-2.9,2.5-.4,0-.8-.8-1.2-.8-.8-1.4-1.3-3-1.7-4.6,4.1-2.9,8.3-3.3,12-3.3s8.4.4,11.7,2.5c0,1.7,0,3.7-.8,5.4Z"/>
    <path class="cls-1" d="M69,34.1c0-.8-1.7-.4-2.5,0-.8,0-2.1.8-3.3,1.7-1.2,1.3-2.1,1.7-2.1,2.9h2.1c2.1,0,2.5.8,3.3-.4,1.3-1.7,2.5-2.5,2.5-4.2Z"/>
  </g>
</svg>