<?xml version="1.0" encoding="UTF-8"?>
<svg id="Laag_1" data-name="Laag 1" xmlns="http://www.w3.org/2000/svg" viewBox="0 0 100 100">
  <defs>
    <style>
      .cls-1 {
        fill: #0f4075;
      }

      .cls-2 {
        fill: #fff;
      }

      .cls-3 {
        fill: #0e3f74;
      }

      .cls-4 {
        fill: #0e4074;
      }
    </style>
  </defs>
  <path class="cls-2" d="M11.49,100h77.03c6.34,0,11.49-5.14,11.49-11.49V11.49C100,5.14,94.86,0,88.51,0H11.49C5.14,0,0,5.14,0,11.49v77.03c0,6.34,5.14,11.49,11.49,11.49Z"/>
  <g>
    <path class="cls-4" d="M41.42,49.21c1.61.56,2.47,1.93,2.32,3.55s-1.04,2.91-2.54,3.54c-.97.44-2.02.63-3.12.63h-7.67s0-14.28,0-14.28l8,.02c.99,0,1.91.21,2.77.61,1.18.54,1.91,1.57,2,2.85s-.52,2.45-1.75,3.08ZM39.54,47.53c.41-.52.42-1.29-.02-1.76-.35-.37-.85-.43-1.35-.48h-4.54s0,2.71,0,2.71h4.67c.45-.05.86-.15,1.23-.48ZM39.98,53.54c.54-.74.52-1.75-.05-2.43-.42-.39-.94-.51-1.51-.57h-4.78s0,3.68,0,3.68h4.75c.6-.07,1.16-.21,1.6-.68Z"/>
    <polygon class="cls-3" points="72.45 56.93 69.51 56.94 63.31 48.94 62.31 47.58 62.35 56.94 59.11 56.94 59.11 42.66 62.27 42.66 68.27 50.44 69.24 51.74 69.21 42.65 72.45 42.66 72.45 56.93"/>
    <path class="cls-1" d="M22.15,61.88c.47-.67,1.09-1.29.98-2.05-.48.11-.92.27-1.38.15-.65-.17-1.01-.78-1.09-1.35-.1-.7.23-1.26.86-1.72-1.09-.11-2.13-.34-3.13-.8-.88-.41-1.65-.93-2.32-1.75l2.37-1.85c.79.78,1.72,1.28,2.8,1.49,1.33.26,3.7.27,4.16-.83.19-.46.17-.95-.12-1.31-1.35-1.65-8.34-.61-8.58-5.15-.06-1.14.32-2.18,1.18-2.95,1.53-1.37,3.78-1.7,5.83-1.49,1.85.19,3.54.94,4.87,2.19l-2.39,1.99c-1.47-1.36-3.49-1.81-5.32-1.21-.45.24-.75.57-.76,1.03-.03,1.77,4.03,1.31,6.9,2.87,1.3.71,1.97,1.93,1.93,3.39-.09,3.03-2.64,4.2-5.43,4.38.88.59,1.2,1.54.91,2.5s-.82,1.74-1.54,2.38c-.18.16-.48.17-.73.1Z"/>
    <polygon class="cls-4" points="82.69 47.59 88.72 56.93 84.78 56.94 80.31 50.04 77.67 52.75 77.68 56.94 74.38 56.94 74.38 42.66 77.67 42.65 77.63 48.94 78.74 47.73 83.52 42.65 87.48 42.68 82.69 47.59"/>
    <path class="cls-4" d="M53.78,53.76h-6.02s-1.31,3.18-1.31,3.18h-3.53s6.3-14.29,6.3-14.29h3.2s6.25,14.28,6.25,14.28h-3.62s-1.28-3.17-1.28-3.17ZM52.65,51.04c-.68-1.66-1.31-3.17-1.88-4.78l-1.88,4.79h3.76Z"/>
    <polygon class="cls-3" points="14.77 56.93 11.47 56.94 11.47 42.66 14.77 42.66 14.77 56.93"/>
    <path class="cls-1" d="M12.61,38.15c1.04-.29,2.02.32,2.29,1.29s-.31,1.96-1.28,2.24-1.94-.27-2.24-1.18c-.33-.97.18-2.06,1.24-2.35Z"/>
  </g>
</svg>