<?xml version="1.0" encoding="UTF-8"?>
<svg xmlns="http://www.w3.org/2000/svg" viewBox="0 0 100 100">
  <defs>
    <style>
      .cls-1 {
        fill: #f9df15;
      }

      .cls-2 {
        fill: #fff;
      }

      .cls-3 {
        fill: #03b3d9;
      }
    </style>
  </defs>
  <g id="Basis">
    <path class="cls-1" d="M11.484,0h77.032c6.343,0,11.484,5.142,11.484,11.484v77.032c0,6.343-5.142,11.484-11.484,11.484H11.484c-6.343,0-11.484-5.142-11.484-11.484V11.484C0,5.142,5.142,0,11.484,0Z"/>
    <path class="cls-2" d="M11.484,0h77.032c6.343,0,11.484,5.142,11.484,11.484v77.032c0,6.343-5.142,11.484-11.484,11.484H11.484c-6.343,0-11.484-5.142-11.484-11.484V11.484C0,5.142,5.142,0,11.484,0Z"/>
  </g>
  <g id="Laag_1" data-name="Laag 1">
    <g>
      <path class="cls-3" d="M53.134,31.326c1.02,0,1.749-.875,1.604-1.895l-1.749-9.767c-.146-1.02-1.166-1.895-2.332-1.895h-1.604c-1.02,0-2.041.875-2.332,1.895l-1.749,9.767c-.146,1.02.583,1.895,1.604,1.895h6.56Z"/>
      <path class="cls-3" d="M53.717,37.449c-.583-.875-1.895-1.604-2.916-1.604h-1.604c-1.02,0-2.478.729-2.916,1.604l-24.199,39.505c-.583.875-.292,2.187.437,2.916l2.478,1.895c.875.729,2.041.583,2.624-.292l21.138-29.447c.583-.875,1.604-.875,2.332,0l21.138,29.447c.583.875,1.749,1.02,2.624.292l2.478-1.895c.875-.729,1.02-2.041.437-2.916l-24.053-39.505Z"/>
      <path class="cls-3" d="M39.723,36.137c.583-.875.146-1.895-.875-2.041l-23.907-4.373c-1.166-.146-2.332.583-2.77,1.458l-1.166,2.624c-.437,1.02.146,2.041,1.166,2.478l20.992,7.143c1.02.292,2.332-.146,2.916-1.02l3.644-6.268Z"/>
      <path class="cls-3" d="M63.922,42.405c.583.875,1.895,1.458,2.916,1.02l20.992-6.997c1.02-.292,1.604-1.458,1.166-2.478l-1.166-2.624c-.437-1.02-1.749-1.604-2.77-1.458l-23.907,4.373c-1.02.146-1.458,1.166-.875,2.041l3.644,6.123Z"/>
    </g>
  </g>
</svg>