<?xml version="1.0" encoding="UTF-8"?>
<svg id="Laag_1" data-name="Laag 1" xmlns="http://www.w3.org/2000/svg" version="1.1" viewBox="0 0 100 100">
  <defs>
    <style>
      .cls-1 {
        fill: #0097db;
      }

      .cls-1, .cls-2 {
        stroke-width: 0px;
      }

      .cls-2 {
        fill: #fff;
      }
    </style>
  </defs>
  <path class="cls-1" d="M90,100H10c-5.5,0-10-4.5-10-10V10C0,4.5,4.5,0,10,0h80c5.5,0,10,4.5,10,10v80c0,5.5-4.5,10-10,10Z"/>
  <g>
    <path id="sun" class="cls-2" d="M50.5,44.8c6.9,0,12.5-5.6,12.5-12.5s-5.6-12.5-12.5-12.5-12.5,5.6-12.5,12.5,5.6,12.5,12.5,12.5Z"/>
    <path id="landscape" class="cls-2" d="M86.2,41.7s-12.4-.1-26.5.7c-2.4,2.5-6.6,5.2-12,5.2s-7.8-1.7-10-3.4c-13.7,1.4-23.8,3.5-23.8,3.5v5.5h72.3v-11.6Z"/>
    <path id="C" class="cls-2" d="M80.4,70.8c-3.1,0-6.3-1.6-6.3-3.8s3.1-3.8,6.3-3.8,4.1.7,5.8,1.7v-6.2c-2.3-.7-5.2-1-7.5-1-8.3,0-14.4,2.8-14.4,9.2s6.2,9.4,14.8,9.4,5.1-.4,7-1v-6.1c-1.7.8-3.4,1.6-5.8,1.6Z"/>
    <path id="B" class="cls-2" d="M57.1,67.2h0c2.8-.1,5.5-1.6,5.5-4.7s-1.4-4.5-5.9-4.5h-17.3v17.9h17.1c4.9,0,6.5-2.3,6.5-4.7-.1-3.5-2.8-3.9-5.8-4.1ZM48,62.2h4.4c1.6,0,2.1.6,2.1,1.8s-.7,1.7-2.3,1.7h-4.2v-3.5ZM52.3,72.3h-4.5v-3.5h4.5c1.7,0,2.3.7,2.3,1.8,0,1-.6,1.7-2.3,1.7Z"/>
    <polygon id="K" class="cls-2" points="27.7 58.1 22.6 66.1 22.4 66.1 22.4 58.1 14 58.1 14 76 22.4 76 22.4 69.2 22.6 69.2 27.7 76 37.5 76 30.3 67.4 37.9 58.1 27.7 58.1"/>
  </g>
</svg>