<?xml version="1.0" encoding="UTF-8"?>
<svg id="Laag_1" data-name="Laag 1" xmlns="http://www.w3.org/2000/svg" viewBox="0 0 100 100">
  <defs>
    <style>
      .cls-1 {
        fill: #fff;
      }

      .cls-2 {
        fill: #fbd629;
      }

      .cls-3 {
        fill: #6091bd;
      }
    </style>
  </defs>
  <path class="cls-1" d="M11.49,100h77.03c6.34,0,11.49-5.14,11.49-11.49V11.49C100,5.14,94.86,0,88.51,0H11.49C5.14,0,0,5.14,0,11.49v77.03c0,6.34,5.14,11.49,11.49,11.49Z"/>
  <g>
    <path class="cls-3" d="M74.81,51.71l-3.09-.1-1.11-2.98-1.02,2.97-3.25.28c.76.85,1.6,1.24,2.48,1.91l-.87,3.31,2.63-1.91,2.56,1.99c-.06-1.34-.54-2.14-.84-3.21l2.5-1.83.02,48.31h-24.81s.03-24.66.03-24.66l2.61,1.81-.84-3.36,2.41-1.86-3.1-.17-1.1-3.12.03-34.38,2.61,1.81c-.11-1.13-.5-2.12-.88-3.22l2.57-2.1c-1.2-.52-2.21-.15-3.33-.27-.33-1.1-.44-2.07-1-2.89V-.51s24.8.02,24.8.02v52.2ZM60.75,37.28l2.51,1.62-.99-3.3,2.63-1.94-3.25-.13-1.07-3.2-1.08,3.21-3.01.11,2.3,2.03c-.17,1.12-.82,2.09-.7,3.22.76-.5,1.63-1.87,2.66-1.63ZM67.95,44.85l2.76,1.49c-.36-1.08-.83-2.07-.87-3.24l2.38-1.98-3.17-.11-1.05-3.19-1.09,3.2-3.08.2,2.44,1.97-.83,3.15c.96-.18,1.54-1.5,2.51-1.5ZM67.66,65.37l2.52,1.91c-.18-1.15-.44-2.13-.91-3.28l2.57-2.09-3.21-.33-.99-2.98-1.08,3.08c-1.11.13-2.1-.18-3.3.25.76.88,1.67,1.27,2.53,1.97l-.88,3.37,2.75-1.91ZM60.61,72.51c.92.59,1.48,1.43,2.45,1.63l-.91-3.21,2.47-2.08-3.21-.08-1-3.12-1.04,3.06-3.33.17,2.66,2.2c-.35,1.13-.95,2.1-.74,3.19.85-.66,1.72-1.91,2.65-1.76Z"/>
    <path class="cls-2" d="M50.05,34.72c-.94.44-1.67,1.18-2.64,1.87l.95-3.32c-.81-.84-1.95-1.18-2.5-2.2,1-.08,2.45.35,3.12-.23l1.03-2.79c.55.82.66,1.78,1,2.89,1.12.12,2.13-.24,3.33.27l-2.57,2.1c.38,1.11.77,2.1.88,3.22l-2.61-1.81Z"/>
    <path class="cls-2" d="M32.61,65.48c-.98.08-1.72,1.32-2.65,1.65l.82-3.09-2.64-2.14,3.3-.13,1.02-3.07c.6.89.64,1.94,1.07,3.06l3.28.15-2.52,1.97.79,3.21-2.46-1.61Z"/>
    <path class="cls-2" d="M29.67,55.27l-2.75,1.79.84-3.08-2.58-2.07c.99-.35,2.4.26,3.15-.28l1.15-3,1.05,3.11,3.17.15-2.42,1.94.77,3.27c-.93-.49-1.4-.97-2.38-1.83Z"/>
    <path class="cls-2" d="M74.81,51.71c-.1.11-.11.32,0,.44l-2.5,1.83c.3,1.07.78,1.88.84,3.21l-2.56-1.99-2.63,1.91.87-3.31c-.89-.67-1.72-1.06-2.48-1.91l3.25-.28,1.02-2.97,1.11,2.98,3.09.1Z"/>
    <path class="cls-2" d="M32.14,44.49l-2.53,1.78.72-3.16-2.45-2,3.04-.02,1.15-3.24,1.1,2.96c.28.76,2.1.2,3.04.24-.54,1.01-1.57,1.33-2.41,2.1l.86,3.27-2.52-1.94Z"/>
    <path class="cls-2" d="M39.76,72.29l-2.69,1.91.88-3.11-2.48-2.29c1.02-.1,2.38.35,3.11-.22l1.11-2.92,1.02,3.07,3.21.13-2.5,2.06.91,3.3-2.56-1.93Z"/>
    <path class="cls-2" d="M39.72,37.01l-2.7,1.73.63-3.04c-.25-.76-1.53-1.13-2.16-1.94.82-.34,1.92-.08,2.9-.22l1.15-3.2,1.08,3.24,3.01.11-2.37,1.96.83,3.15c-.93-.47-1.43-.94-2.38-1.79Z"/>
    <polygon class="cls-2" points="50.04 75.81 47.39 77.66 48.36 74.4 45.85 72.39 49.01 72.22 50.02 69.1 51.12 72.22 54.22 72.39 51.81 74.25 52.65 77.61 50.04 75.81"/>
    <path class="cls-2" d="M67.66,65.37l-2.75,1.91.88-3.37c-.86-.7-1.78-1.09-2.53-1.97,1.2-.43,2.19-.13,3.3-.25l1.08-3.08.99,2.98,3.21.33-2.57,2.09c.47,1.14.73,2.13.91,3.28l-2.52-1.91Z"/>
    <path class="cls-2" d="M67.95,44.85c-.98,0-1.55,1.31-2.51,1.5l.83-3.15-2.44-1.97,3.08-.2,1.09-3.2,1.05,3.19,3.17.11-2.38,1.98c.04,1.17.51,2.16.87,3.24l-2.76-1.49Z"/>
    <path class="cls-2" d="M60.61,72.51c-.93-.16-1.8,1.1-2.65,1.76-.21-1.09.39-2.06.74-3.19l-2.66-2.2,3.33-.17,1.04-3.06,1,3.12,3.21.08-2.47,2.08.91,3.21c-.97-.2-1.53-1.04-2.45-1.63Z"/>
    <path class="cls-2" d="M60.75,37.28c-1.03-.23-1.9,1.13-2.66,1.63-.12-1.13.54-2.11.7-3.22l-2.3-2.03,3.01-.11,1.08-3.21,1.07,3.2,3.25.13-2.63,1.94.99,3.3-2.51-1.62Z"/>
  </g>
</svg>