<?xml version="1.0" encoding="UTF-8"?>
<svg id="Laag_1" data-name="Laag 1" xmlns="http://www.w3.org/2000/svg" viewBox="0 0 100 100">
  <defs>
    <style>
      .cls-1 {
        fill: #007e94;
      }

      .cls-2 {
        fill: #ffdb21;
      }

      .cls-3 {
        fill: #f6da40;
      }

      .cls-4 {
        fill: #fff;
      }

      .cls-5 {
        fill: #8dc7e9;
      }

      .cls-6 {
        fill: #006c68;
      }
    </style>
  </defs>
  <path class="cls-4" d="M11.49,100h77.03c6.34,0,11.49-5.14,11.49-11.49V11.49C100,5.14,94.86,0,88.51,0H11.49C5.14,0,0,5.14,0,11.49v77.03c0,6.34,5.14,11.49,11.49,11.49Z"/>
  <g>
    <path class="cls-6" d="M78.91,61.22l-1.68-.8c1.95-4.11,2.94-8.52,2.94-13.1,0-4.14-.82-8.16-2.43-11.95-4.78-11.25-15.73-18.51-27.91-18.51s-23.13,7.26-27.91,18.51l-1.71-.73c5.07-11.93,16.7-19.65,29.62-19.65s24.55,7.72,29.63,19.65c1.72,4.02,2.58,8.28,2.58,12.68,0,4.86-1.05,9.53-3.12,13.91h0Z"/>
    <path class="cls-1" d="M77.47,61.53c-.3-.24-.56-.45-.84-.63l1.06-1.55c.33.23.64.47.98.76l-1.19,1.42Z"/>
    <path class="cls-1" d="M70.89,81.46c-.9,0-1.81-.11-2.71-.32l.41-1.82c.77.19,1.54.27,2.3.27,5.63,0,10.19-4.6,10.19-10.24,0-1.09-.17-2.17-.52-3.22-.21-.62-.45-1.19-.75-1.72-.6-1.1-1.39-2.06-2.35-2.88l1.2-1.42c1.13.96,2.06,2.11,2.78,3.39.34.63.63,1.31.88,2.03.4,1.24.62,2.53.62,3.81,0,6.68-5.42,12.12-12.06,12.12h0Z"/>
    <path class="cls-3" d="M62.58,78.04c-.31-.53-.56-1.13-.79-1.78l1.76-.62c.2.55.41,1.06.67,1.5l-1.64.91h0Z"/>
    <path class="cls-3" d="M61.78,76.27c-.46-1.33-.7-2.69-.7-4.06,0-6.67,5.41-12.12,12.06-12.12,1.32,0,2.65.23,3.93.67.28.1.55.19.81.31,1.22.53,2.36,1.27,3.39,2.21l-1.25,1.37c-.87-.79-1.84-1.41-2.86-1.87-.22-.09-.45-.17-.68-.26-1.09-.38-2.2-.57-3.32-.57-5.63,0-10.2,4.6-10.2,10.24,0,1.15.21,2.31.59,3.43l-1.76.62h0Z"/>
    <path class="cls-5" d="M52.93,85.27c-1.05,0-2.11-.05-3.2-.16-11.68-1.16-21.81-8.64-26.43-19.49-1.72-4.02-2.58-8.28-2.58-12.68,0-16.71,12.46-30.53,29.01-32.17l.18,1.86c-15.57,1.54-27.33,14.58-27.33,30.31,0,4.15.82,8.17,2.43,11.95,4.35,10.23,13.9,17.28,24.9,18.37,1.02.1,2.03.15,3.01.15,4.64,0,9.08-1.03,13.21-3.03l.82,1.68c-4.39,2.14-9.12,3.23-14.02,3.23Z"/>
    <path class="cls-3" d="M66,81.96c-.94-.7-1.78-1.53-2.48-2.47l1.48-1.13c.6.79,1.3,1.49,2.1,2.08l-1.11,1.51Z"/>
    <path class="cls-6" d="M49.82,79.65c-10.52,0-20.4-5.19-26.43-13.88-3.77-5.44-5.77-11.82-5.77-18.46,0-4.39.87-8.66,2.58-12.68l1.71.73c-1.61,3.79-2.42,7.82-2.42,11.95,0,6.27,1.88,12.28,5.44,17.4,5.67,8.18,14.98,13.07,24.9,13.07,4.13,0,8.13-.82,11.9-2.44l.73,1.72c-4.01,1.72-8.26,2.59-12.64,2.59h0Z"/>
    <path class="cls-2" d="M63.51,79.5c-.38-.51-.69-.99-.95-1.45l1.63-.9c.22.38.47.79.8,1.22l-1.49,1.13h0Z"/>
    <path class="cls-5" d="M82.61,65.5l-1.72-.73c1.58-3.75,2.38-7.73,2.38-11.83,0-6.26-1.88-12.28-5.44-17.4-5.68-8.18-14.99-13.07-24.9-13.07-.99,0-2,.05-3.01.15l-.18-1.86c1.08-.11,2.14-.16,3.19-.16,10.52,0,20.4,5.18,26.43,13.87,3.78,5.45,5.77,11.83,5.77,18.46,0,4.35-.85,8.59-2.52,12.56h0Z"/>
    <path class="cls-3" d="M73.14,84.32c-2.59,0-5.04-.82-7.14-2.36l1.11-1.51c1.77,1.31,3.86,2,6.04,2,5.63,0,10.19-4.6,10.19-10.24,0-2.36-.81-4.66-2.3-6.48l1.44-1.17c1.76,2.15,2.72,4.88,2.72,7.67,0,6.67-5.42,12.12-12.07,12.12v-.02Z"/>
    <path class="cls-1" d="M68.17,81.14c-1.45-.34-2.8-.93-4.02-1.74-.45-.31-.92-.67-1.4-1.13-.51-.46-.99-.98-1.39-1.5-1.67-2.15-2.55-4.73-2.55-7.43,0-6.68,5.41-12.12,12.06-12.12,2.44,0,4.8.73,6.8,2.11l-1.05,1.55c-1.71-1.17-3.69-1.79-5.75-1.79-5.63,0-10.2,4.6-10.2,10.24,0,2.29.75,4.46,2.16,6.28.35.45.74.88,1.17,1.27.41.39.81.7,1.18.96,1.03.69,2.16,1.18,3.39,1.46l-.41,1.83Z"/>
    <path class="cls-3" d="M81.04,65.73c-.24-.3-.33-.41-.38-.48,0,0-.04-.03-.1-.09-.11-.09-.29-.25-.56-.5l1.26-1.37c.27.25.43.38.53.48.21.19.27.25.39.4.04.06.11.16.29.38l-1.44,1.18Z"/>
    <path class="cls-1" d="M46.72,85.27c-17.75,0-32.19-14.5-32.19-32.33,0-6.63,1.99-13.02,5.77-18.46,6.03-8.68,15.91-13.87,26.43-13.87,1.05,0,2.13.05,3.2.16,16.53,1.64,29.01,15.46,29.01,32.17,0,2.48-.3,4.96-.86,7.4l-1.82-.42c.53-2.3.81-4.65.81-6.98,0-15.74-11.74-28.77-27.32-30.31-1.02-.11-2.03-.15-3.02-.15-9.91,0-19.22,4.89-24.9,13.07-3.55,5.12-5.44,11.14-5.44,17.39,0,16.81,13.61,30.47,30.34,30.47.99,0,1.99-.04,3.02-.15,4.99-.49,9.84-2.25,13.99-5.08l1.05,1.54c-4.42,3.01-9.56,4.89-14.86,5.41-1.08.11-2.16.16-3.21.16h0Z"/>
    <path class="cls-2" d="M80,64.64c-.87-.79-1.84-1.41-2.87-1.87-.22-.09-.44-.17-.67-.25-1.1-.38-2.2-.57-3.33-.57v-1.88c1.32,0,2.65.24,3.93.67.28.1.55.19.81.31,1.22.52,2.37,1.26,3.39,2.2l-1.25,1.38Z"/>
  </g>
</svg>