<?xml version="1.0" encoding="UTF-8"?>
<svg id="Laag_1" data-name="Laag 1" xmlns="http://www.w3.org/2000/svg" xmlns:xlink="http://www.w3.org/1999/xlink" viewBox="0 0 100 100">
  <defs>
    <style>
      .cls-1 {
        fill-rule: evenodd;
      }

      .cls-2 {
        fill: #fff;
      }

      .cls-3 {
        clip-path: url(#clippath);
      }
    </style>
    <clipPath id="clippath">
      <rect class="cls-2" width="100" height="100" rx="11.484" ry="11.484"/>
    </clipPath>
  </defs>
  <g id="Basis">
    <path class="cls-2" d="M11.484,0h77.032c6.343,0,11.484,5.142,11.484,11.484v77.032c0,6.343-5.142,11.484-11.484,11.484H11.484c-6.343,0-11.484-5.142-11.484-11.484V11.484C0,5.142,5.142,0,11.484,0Z"/>
  </g>
  <g id="Laag_1-2" data-name="Laag 1">
    <g>
      <rect class="cls-2" width="100" height="100" rx="11.484" ry="11.484"/>
      <g class="cls-3">
        <path class="cls-2" d="M11.484,0h77.032c6.343,0,11.484,5.142,11.484,11.484v77.032c0,6.343-5.142,11.484-11.484,11.484H11.484c-6.343,0-11.484-5.142-11.484-11.484V11.484C0,5.142,5.142,0,11.484,0Z"/>
      </g>
    </g>
  </g>
  <path class="cls-1" d="M77.378,49.434c1.472,0,2.793.971,3.254,2.343h-6.498c.461-1.382,1.772-2.343,3.244-2.343h0ZM83.896,52.959c0-1.712-.671-3.324-1.872-4.546-1.211-1.221-2.813-1.902-4.515-1.902h-.08c-1.762.02-3.434.721-4.686,1.972s-1.952,2.914-1.972,4.686c-.02,1.812.671,3.514,1.952,4.816s2.984,2.012,4.786,2.012h.01c2.373,0,4.596-1.272,5.807-3.304l.15-.26-2.663-1.312-.13.22c-.671,1.101-1.822,1.752-3.104,1.752-1.642,0-3.054-1.091-3.494-2.653h9.812v-1.482h0ZM67.206,44.208c-1.161,0-2.103-.941-2.103-2.103s.941-2.103,2.103-2.103,2.103.941,2.103,2.103c.01,1.161-.941,2.103-2.103,2.103M65.594,59.727h3.224v-12.946h-3.224v12.946ZM59.426,40.283h3.224v19.454h-3.224v-19.454ZM53.259,59.727h3.224v-19.444h-3.224v19.444h0ZM44.779,56.803c-1.952,0-3.544-1.592-3.544-3.544s1.592-3.544,3.544-3.544,3.544,1.592,3.544,3.544-1.592,3.544-3.544,3.544h0ZM44.779,46.501c-3.725,0-6.748,3.034-6.748,6.748s3.034,6.748,6.748,6.748,6.748-3.034,6.748-6.748-3.024-6.748-6.748-6.748h0ZM31.012,46.521c-.18-.01-.34-.02-.521-.02-1.622,0-3.164.661-4.275,1.842-1.111-1.171-2.643-1.842-4.255-1.842-3.224,0-5.857,2.623-5.857,5.847v7.379h3.154v-7.289c0-1.342,1.101-2.573,2.393-2.703.09-.01.18-.01.27-.01,1.462,0,2.653,1.191,2.653,2.653v7.359h3.224v-7.299c0-1.332,1.091-2.563,2.393-2.693.09-.01.18-.01.27-.01,1.462,0,2.653,1.181,2.663,2.633v7.379h3.224v-7.289c0-1.482-.551-2.904-1.532-4.005-.981-1.121-2.333-1.802-3.805-1.932"/>
</svg>