<?xml version="1.0" encoding="UTF-8"?>
<svg xmlns="http://www.w3.org/2000/svg" viewBox="0 0 100 100">
  <defs>
    <style>
      .cls-1 {
        fill: #c4d600;
      }

      .cls-2 {
        fill: #84bd00;
      }

      .cls-3 {
        fill: #009644;
      }

      .cls-4 {
        fill: #fff;
      }

      .cls-5 {
        fill: #7fad00;
      }

      .cls-6 {
        fill: #88bc1f;
      }

      .cls-7 {
        fill: #c3d100;
      }

      .cls-8 {
        fill: #00ae53;
      }

      .cls-9 {
        fill: #019544;
      }
    </style>
  </defs>
  <g id="Basis">
    <path class="cls-4" d="M11.484,0h77.032c6.343,0,11.484,5.142,11.484,11.484v77.032c0,6.343-5.142,11.484-11.484,11.484H11.484c-6.343,0-11.484-5.142-11.484-11.484V11.484C0,5.142,5.142,0,11.484,0Z"/>
  </g>
  <g id="Laag_1" data-name="Laag 1">
    <g>
      <path class="cls-7" d="M74.695,26.681c-1.208,4.495-3.034,8.685-5.364,12.442-7.031,11.344-18.657,18.758-31.811,18.758-4.661,0-9.131-.931-13.271-2.639l1.706,6.477,2.741,10.402c4.544,1.692,9.398,2.609,14.441,2.609,18.323,0,34.157-12.076,41.659-29.593l-10.103-18.458h.001Z"/>
      <path class="cls-6" d="M69.331,39.123l-7.583-13.854c-.867,3.158-2.315,6.225-4.267,9.006-5.011,7.138-13.344,12.378-23.704,12.378-3.16,0-6.292-.377-9.237-1.186-3.458-.95-6.657-2.497-9.338-4.738l4.892,18.565c1.509.811,3.482,1.682,5.862,2.426,3.386,1.058,7.595,1.858,12.471,1.858,13.453,0,26.085-8.253,33.557-19.61l-2.652-4.844h-.001Z"/>
      <path class="cls-9" d="M57.481,34.274l-4.208-7.688c-3.209,7.353-8.251,12.623-17.993,12.623-5.261,0-11.257-2.263-13.484-4.151l2.742,10.407,1.305,4.951c3.107.984,6.383,1.512,9.767,1.512,10.936,0,20.441-5.988,24.274-13.261l-2.404-4.393Z"/>
      <path class="cls-5" d="M71.983,43.967l-2.652-4.844c-7.031,11.344-18.657,18.758-31.811,18.758-4.661,0-9.131-.931-13.271-2.639l1.706,6.477c3.386,1.058,7.594,1.858,12.471,1.858,13.453,0,26.085-8.253,33.557-19.61Z"/>
      <path class="cls-1" d="M74.696,26.681c-1.209,4.495-3.034,8.685-5.364,12.442l2.652,4.844c-7.471,11.357-20.103,19.61-33.557,19.61-4.877,0-9.085-.8-12.471-1.858l2.741,10.402c4.544,1.692,9.398,2.609,14.441,2.609,18.322,0,34.157-12.076,41.659-29.593l-10.103-18.458h.001Z"/>
      <path class="cls-8" d="M57.481,34.274l-4.208-7.688c-3.209,7.353-8.251,12.623-17.993,12.623-5.261,0-11.257-2.263-13.484-4.151l2.742,10.407c2.946.81,6.078,1.186,9.237,1.186,10.36,0,18.693-5.24,23.704-12.378h.001Z"/>
      <path class="cls-3" d="M35.611,51.929c10.936,0,20.441-5.988,24.274-13.261l-2.404-4.393c-5.011,7.138-13.344,12.378-23.704,12.378-3.16,0-6.292-.377-9.237-1.186l1.305,4.951c3.107.984,6.383,1.512,9.767,1.512h-.001Z"/>
      <path class="cls-2" d="M61.749,25.27c-.867,3.158-2.315,6.225-4.267,9.006l2.404,4.393c-3.834,7.273-13.338,13.261-24.274,13.261-3.384,0-6.659-.528-9.767-1.512l-1.305-4.951c-3.458-.95-6.657-2.497-9.338-4.738l4.892,18.565c1.509.811,3.482,1.682,5.862,2.426l-1.706-6.476c4.142,1.707,8.611,2.639,13.271,2.639,13.154,0,24.78-7.414,31.811-18.758l-7.583-13.854Z"/>
    </g>
  </g>
</svg>