<svg xmlns="http://www.w3.org/2000/svg" xml:space="preserve" id="Laag_1" x="0" y="0" style="enable-background:new 0 0 100 100" version="1.1" viewBox="0 0 100 100"><style>.st2{fill:url(#SVGID_00000157306266557762088400000009910842984733861781_)}.st3{fill:url(#SVGID_00000035524478062184631020000006365666170362313874_)}.st4{fill:url(#SVGID_00000003100084997290975590000006649683924726597797_)}.st5{fill:url(#SVGID_00000033352181819159838740000006708807670682266808_)}.st6{fill:url(#SVGID_00000127015607706245676300000009741925663690810780_)}.st7{fill:url(#SVGID_00000060002234509041513390000017638761179830980494_)}</style><path d="M90 100.18H10c-5.52 0-10-4.48-10-10v-80c0-5.52 4.48-10 10-10h80c5.52 0 10 4.48 10 10v80c0 5.53-4.48 10-10 10z" style="fill:#fff"/><linearGradient id="SVGID_1_" x1="-212.543" x2="-222.206" y1="262.156" y2="258.639" gradientTransform="matrix(3.125 0 0 -3.125 733.125 860.625)" gradientUnits="userSpaceOnUse"><stop offset=".337" style="stop-color:#f4aa1c"/><stop offset=".847" style="stop-color:#ed8722"/></linearGradient><path d="M45.25 40.79c.74 0 1.63.45 2.08 1.04L61.3 62.78l5.5-27.49H34.55v5.35h10.7v.15z" style="fill:url(#SVGID_1_)"/><linearGradient id="SVGID_00000005974402327407227760000004348089635217789375_" x1="-214.463" x2="-214.463" y1="246.827" y2="266.343" gradientTransform="matrix(3.125 0 0 -3.125 733.125 860.625)" gradientUnits="userSpaceOnUse"><stop offset=".006" style="stop-color:#ec7e23"/><stop offset=".251" style="stop-color:#f09220"/><stop offset=".779" style="stop-color:#f09220"/><stop offset=".994" style="stop-color:#f19c1f"/></linearGradient><path d="M85.37 28.3c3.12 8.77 1.78 18.58-3.42 25.11-2.08 2.53-5.35 5.05-9.21 6.98L70.36 71.7c-.15.74-.89 1.34-1.64 1.34H57.43c-.74 0-1.63-.45-2.08-1.04L41.53 51.04l-1.04 4.9-3.27 15.9c0 .6-.74 1.19-1.49 1.19H34.4c0 9.66 12.78 20.51 34.03 14.56C82.1 80.61 91.46 66.35 91.46 50c-.15-7.88-2.23-15.31-6.09-21.7z" style="fill:url(#SVGID_00000005974402327407227760000004348089635217789375_)"/><linearGradient id="SVGID_00000007387271051378495200000013626425743699132066_" x1="-228.002" x2="-218.089" y1="249.292" y2="257.61" gradientTransform="matrix(3.125 0 0 -3.125 733.125 860.625)" gradientUnits="userSpaceOnUse"><stop offset=".215" style="stop-color:#e66124"/><stop offset=".54" style="stop-color:#e86c24"/><stop offset=".816" style="stop-color:#ed8722"/></linearGradient><path d="M8.54 56.24c0-15.75 10.85-20.95 22.29-20.95h3.86v5.35h-.59c-.74 0-1.49.59-1.63 1.34l-.45 1.63-5.65 28.09c-.15.74.3 1.34 1.04 1.34h6.98c0 9.66 12.78 20.51 34.03 14.56-5.8 2.97-12.33 4.61-19.32 4.61C24.89 92.2 8.54 72.29 8.54 56.24z" style="fill:url(#SVGID_00000007387271051378495200000013626425743699132066_)"/><linearGradient id="SVGID_00000183944071063506892910000006375672554947308164_" x1="-218.06" x2="-210.954" y1="261.435" y2="270.358" gradientTransform="matrix(3.125 0 0 -3.125 733.125 860.625)" gradientUnits="userSpaceOnUse"><stop offset=".515" style="stop-color:#f4aa1c"/><stop offset=".859" style="stop-color:#fcc90a"/></linearGradient><path d="M72.74 60.4c3.86-1.78 7.13-4.31 9.21-6.98 5.35-6.54 6.54-16.35 3.42-25.11-6.24-10.26-16.65-17.84-28.98-19.92-8.32-.59-16.2 1.63-20.36 7.13-1.93 2.53-2.23 5.94-1.34 9.96h32.84c.74 0 1.63.45 2.08 1.04l6.98 10.85c.45.59.59 1.63.45 2.38l-4.3 20.65z" style="fill:url(#SVGID_00000183944071063506892910000006375672554947308164_)"/><linearGradient id="SVGID_00000146498186728395800460000011830215007049985707_" x1="-223.097" x2="-223.097" y1="267.253" y2="272.92" gradientTransform="matrix(3.125 0 0 -3.125 733.125 860.625)" gradientUnits="userSpaceOnUse"><stop offset=".006" style="stop-color:#ec7e23"/><stop offset=".251" style="stop-color:#f09220"/><stop offset=".779" style="stop-color:#f09220"/><stop offset=".994" style="stop-color:#f19c1f"/></linearGradient><path d="M56.39 8.39c-8.32-.59-16.2 1.63-20.36 7.13-1.93 2.53-2.23 5.94-1.34 9.96H16.86c-1.93 0-1.63-.74-.15-2.68 7.73-9.21 19.32-15 32.4-15 2.52 0 4.9.15 7.28.59z" style="fill:url(#SVGID_00000146498186728395800460000011830215007049985707_)"/><linearGradient id="SVGID_00000152222875317348991350000017309507329379566527_" x1="-226.189" x2="-226.189" y1="252.029" y2="261.445" gradientTransform="matrix(3.125 0 0 -3.125 733.125 860.625)" gradientUnits="userSpaceOnUse"><stop offset=".307" style="stop-color:#e76524"/><stop offset=".626" style="stop-color:#df541a"/></linearGradient><path d="m26.37 71.7 5.65-28.09h-4.16c-.74 0-1.49.6-1.63 1.34L20.58 71.7c-.15.74.3 1.34 1.04 1.34h5.65c-.6-.01-1.05-.6-.9-1.34z" style="fill:url(#SVGID_00000152222875317348991350000017309507329379566527_)"/><linearGradient id="SVGID_00000122711647311584312630000017273147403810698898_" x1="-218.933" x2="-218.933" y1="252.043" y2="259.104" gradientTransform="matrix(3.125 0 0 -3.125 733.125 860.625)" gradientUnits="userSpaceOnUse"><stop offset="0" style="stop-color:#f19c1f"/><stop offset=".294" style="stop-color:#e8721b"/></linearGradient><path d="M52.97 73.03h4.46c-.74 0-1.63-.45-2.08-1.04L41.53 51.04l-1.04 4.9 10.25 15.9c.45.6 1.49 1.19 2.23 1.19z" style="fill:url(#SVGID_00000122711647311584312630000017273147403810698898_)"/></svg>
