<svg xmlns="http://www.w3.org/2000/svg" width="100" height="100" fill="none"><g clip-path="url(#a)"><path fill="#A5A5A5" d="M89.63 0H10.37C4.643 0 0 4.643 0 10.37v79.26C0 95.357 4.643 100 10.37 100h79.26c5.727 0 10.37-4.643 10.37-10.37V10.37C100 4.643 95.357 0 89.63 0Z"/><rect width="65.734" height="5.125" x="17.133" y="70.715" fill="#fff" rx=".683"/><rect width="70.327" height="3.573" x="14.837" y="79.297" fill="#fff" rx=".683"/><rect width="11.927" height="4.666" x="23.52" y="34.936" fill="#fff" rx=".683"/><rect width="11.927" height="4.666" x="23.52" y="62.045" fill="#fff" rx=".683"/><path fill="#fff" d="M25.679 34.936h7.61v31.776h-7.61z"/><rect width="11.927" height="4.666" x="43.989" y="34.936" fill="#fff" rx=".683"/><rect width="11.927" height="4.666" x="43.989" y="62.045" fill="#fff" rx=".683"/><path fill="#fff" d="M46.148 34.936h7.61v31.776h-7.61z"/><rect width="11.927" height="4.666" x="64.459" y="34.936" fill="#fff" rx=".683"/><rect width="11.927" height="4.666" x="64.459" y="62.045" fill="#fff" rx=".683"/><path fill="#fff" d="M66.617 34.936h7.61v31.776h-7.61zM49.737 17.183a.683.683 0 0 1 .526 0l31.179 12.982c.69.287.484 1.314-.263 1.314H18.821c-.747 0-.953-1.027-.263-1.314l31.18-12.982Z"/></g><defs><clipPath id="a"><path fill="#fff" d="M0 0h100v100H0z"/></clipPath></defs></svg>
