<?xml version="1.0" encoding="UTF-8"?>
<svg id="Laag_1" data-name="Laag 1" xmlns="http://www.w3.org/2000/svg" version="1.1" viewBox="0 0 100 100">
  <defs>
    <style>
      .cls-1 {
        fill: #fff;
      }

      .cls-1, .cls-2 {
        stroke-width: 0px;
      }

      .cls-2 {
        fill: #ee2425;
      }
    </style>
  </defs>
  <path class="cls-2" d="M90,100H10c-5.5,0-10-4.5-10-10V10C0,4.5,4.5,0,10,0h80c5.5,0,10,4.5,10,10v80c0,5.5-4.5,10-10,10Z"/>
  <path class="cls-1" d="M62.9,24.2c9.9,4.7,17.5,16.7,15.6,29.9-2.2,15.8-16.8,26.8-32.6,24.5-15.8-2.2-26.7-16.8-24.6-32.6,1.8-13.4,12.7-23.5,26.6-24.9-16.4,6.1-22.6,21.1-22.5,21.9,0,.4.2,1.8.6,2.8.4,1.1,1.4,2.6,1.4,2.6,0,0,4.8-20,24.5-27.3.5,0,.9,0,1.2.1-17.6,7.5-23,29.8-23,30.2s.9,1.4,1.6,2.1c.9.9,2.5,2,2.5,2,0,0,4-26.2,21.9-33.8.4,0,.6.1,1,.2-17.7,8.7-18.9,35.5-18.9,36.1,0,.2,1.3,1,2.3,1.5,1.1.6,3.1,1.2,3.1,1.2,0,0-1.5-28.6,16.4-37.9.4.1,1,.4,1,.4-17.2,11.3-12.5,38.3-12.4,38.9,0,.1,1.6.4,2.6.6,1.3.2,3.3.3,3.3.3,0,0-8.1-26.1,8.5-38.8"/>
</svg>