<?xml version="1.0" encoding="UTF-8"?>
<svg id="Laag_1" data-name="Laag 1" xmlns="http://www.w3.org/2000/svg" version="1.1" viewBox="0 0 100 100">
  <defs>
    <style>
      .cls-1 {
        fill: #024da1;
      }

      .cls-1, .cls-2 {
        stroke-width: 0px;
      }

      .cls-2 {
        fill: #fff;
      }
    </style>
  </defs>
  <path class="cls-1" d="M90,100H10c-5.5,0-10-4.5-10-10V10C0,4.5,4.5,0,10,0h80c5.5,0,10,4.5,10,10v80c0,5.5-4.5,10-10,10Z"/>
  <g>
    <path class="cls-2" d="M66.4,58c-21.5,2.5-55.6-9.1-40.4-24.9l-.4,2.1c-8.5,10.7,13.7,20.6,36.2,17l4.6,5.8Z"/>
    <path class="cls-2" d="M75.6,69.3c-18.8,2.9-68.1-10.8-54.8-28.9v2.2c-6.6,13,28.5,22.4,49.5,20.2l5.3,6.6Z"/>
    <path class="cls-2" d="M53.7,42.1l4.5,5.6c-26.7,3.9-47.6-13.5-12.8-28.8v1.2c-30.6,14.5-11.9,25.9,8.3,21.9"/>
    <path class="cls-2" d="M84.5,80.4c-23.4,4-79.4-13.6-67.3-34.7v2.8c-5.4,16.3,41.4,28.8,62.1,25.5l5.2,6.4Z"/>
  </g>
</svg>