<?xml version="1.0" encoding="UTF-8"?>
<svg id="Laag_1" data-name="Laag 1" xmlns="http://www.w3.org/2000/svg" version="1.1" viewBox="0 0 100 100">
  <defs>
    <style>
      .cls-1 {
        fill: #36a18b;
      }

      .cls-1, .cls-2 {
        stroke-width: 0px;
      }

      .cls-2 {
        fill: #fff;
      }
    </style>
  </defs>
  <path class="cls-1" d="M90,100H10c-5.5,0-10-4.5-10-10V10C0,4.5,4.5,0,10,0h80c5.5,0,10,4.5,10,10v80c0,5.5-4.5,10-10,10Z"/>
  <path class="cls-2" d="M74.1,46c-2.9,0-5,1.4-5.9,3.3,0-4.7,1.7-8.7,5.5-8.7s3.5,1.4,3.9,3.7l3.5-.7c-.8-4-3.4-5.9-7.5-5.9s-9,4-9,12.9,3.2,11.8,8.8,11.8,8.1-3.2,8.1-8.3c0-4.1-2.2-8.1-7.4-8.1h0ZM73.4,59.4c-2.9,0-4.8-2.6-5.2-6.1.9-2.9,2.8-4.4,5-4.4s4.6,2.2,4.6,5.2-1.9,5.3-4.4,5.3h0ZM54.3,54.4c-1.1,1.1-3.8,3.2-5.6,4.5h10.9v3.2h-16v-2.9c1.9-1.4,5.7-4.2,8.1-6.6,2.3-2.3,3.8-4.4,3.8-7.5s-1.7-4.3-3.9-4.3-4.2,1.4-4.2,4.1,0,1.3.2,2.1l-3.6-.5c-.2-.6-.2-1.3-.2-1.9,0-3.8,2.6-7,8-7s7.6,2.3,7.6,7.2-3.3,7.8-4.8,9.3l-.3.2ZM18.6,28.5h19.4v3.2h-19.4v-3.2ZM34.4,38v16.5c0,1.4,0,2.3,0,3.2h0c-.4-1-.8-1.8-1.4-2.9l-9.8-16.8h-4.4v24.2h3.5v-16.6h0c0-1.4,0-2.3,0-3.2h0c.4,1,.8,1.8,1.4,2.9l9.8,16.8h4.4v-24.1h-3.5ZM18.6,68.4h19.4v3.1h-19.4v-3.1Z"/>
</svg>