<?xml version="1.0" encoding="UTF-8"?>
<svg id="Laag_1" data-name="Laag 1" xmlns="http://www.w3.org/2000/svg" version="1.1" viewBox="0 0 100 100">
  <defs>
    <style>
      .cls-1 {
        fill: #007858;
      }

      .cls-1, .cls-2 {
        stroke-width: 0px;
      }

      .cls-2 {
        fill: #fff;
      }
    </style>
  </defs>
  <path class="cls-1" d="M90,100H10c-5.5,0-10-4.5-10-10V10C0,4.5,4.5,0,10,0h80c5.5,0,10,4.5,10,10v80c0,5.5-4.5,10-10,10Z"/>
  <g>
    <path class="cls-2" d="M35.3,55.9c0,.8-.7,1.4-1.5,1.4h-2.9c-.8,0-1.5-.7-1.5-1.5v-.5h0v-31.7h0v-.5c0-.8.6-1.5,1.5-1.5h2.9c.8,0,1.5.6,1.5,1.4v32.8h0ZM41.2,57V22.1h0c0-1.3-.6-2.4-1.6-3-.8-.5-1.7-.7-4.2-.7h-6.1c-2.5,0-3.5.2-4.3.7-1,.6-1.6,1.7-1.6,2.8h0v35.2h0c0,1.3.6,2.4,1.6,3.1.8.5,1.7.7,4.3.7h6.1c2.5,0,3.4-.2,4.2-.7,1-.6,1.6-1.7,1.6-2.8h0v-.3Z"/>
    <path class="cls-2" d="M70.3,55.3h0v.5c0,.8-.6,1.5-1.5,1.6h-4.6v-17.5h4.5c.9.1,1.5.8,1.6,1.7v13.6h0c0,0,0,0,0,0ZM70.3,34.7c0,.9-.7,1.6-1.6,1.7h-4.4v-14.6h4.5c.8,0,1.5.7,1.5,1.5v.5h0s0,10.9,0,10.9ZM76.3,57.4v-13.8c0-2.9-2.3-5.3-5.2-5.3h0c2.9,0,5.2-2.4,5.2-5.3v-11.1c.2-1.6-.9-3.1-2.5-3.4-.2,0-.3,0-.5,0h-15.1v42.4h15.1c1.6,0,3-1.3,3-2.9,0-.2,0-.3,0-.5"/>
    <polygon class="cls-2" points="54.2 60.8 55.5 60.8 55.5 57.3 53.6 57.3 53 57.3 51.4 57.3 51.4 50.3 51.4 50.3 51.4 39.9 51.4 36.4 51.4 36.4 51.4 29.3 51.4 26.6 51.4 21.7 51.4 21.7 51.4 18.3 50.9 18.3 45.4 18.3 45.4 26.6 45.4 29.3 45.4 47.5 45.4 50.3 45.4 60.8 50.9 60.8 51.4 60.8 53 60.8 53.6 60.8 54.2 60.8"/>
    <path class="cls-2" d="M67.8,81.7v-3.7l2-2,3.4,5.8h3.2l-4.9-7.5,4.6-4.8h-3.3l-5,5.5v-5.5h-2.5v12.3h2.5ZM53.8,81.7v-8l5,8h2.6v-12.3h-2.3v8.2l-5-8.2h-2.4v12.3h2.3ZM40.7,76.9l1.7-4.6,1.7,4.6h-3.4ZM43.7,69.4h-2.6l-4.7,12.3h2.6l1-2.8h4.9l1.1,2.8h2.7l-5-12.3ZM28.6,76.4c.7,0,1.5,0,2.2.2.3.1.6.3.8.6.2.3.3.6.3.9,0,.4-.1.8-.4,1.1-.2.3-.6.4-.9.5-.6,0-1.1.1-1.7,0h-2.3v-3.3h2ZM28,71.5h2.1c.4,0,.7.2.9.4.2.3.3.6.3.9,0,.4-.1.7-.4,1-.3.3-.6.4-1,.4-.6,0-1.2,0-1.8,0h-1.6v-2.8h1.4ZM24.1,81.7h4.2c1.6,0,2.6,0,3,0,.6,0,1.2-.3,1.7-.6.5-.3.8-.8,1.1-1.3.3-.5.4-1.1.4-1.6s-.2-1.3-.6-1.9c-.4-.5-1.1-.9-1.7-1.1.5-.2,1-.6,1.3-1.1.3-.5.5-1,.5-1.6s-.1-1-.4-1.4c-.2-.4-.6-.8-.9-1-.4-.3-.8-.4-1.3-.5-.7,0-1.5-.1-2.2-.1h-5v12.4Z"/>
    <rect class="cls-2" x="20.6" y="63.9" width="58.7" height="2.5"/>
  </g>
</svg>