<?xml version="1.0" encoding="UTF-8"?>
<svg id="Laag_1" xmlns="http://www.w3.org/2000/svg" version="1.1" viewBox="0 0 100 100">
  <!-- Generator: Adobe Illustrator 30.5.1, SVG Export Plug-In . SVG Version: 2.1.4 Build 3)  -->
  <defs>
    <style>
      .st0 {
        fill: #007e94;
      }

      .st1 {
        fill: #ffdb21;
      }

      .st2 {
        fill: #f6da40;
      }

      .st3 {
        fill: #fff;
      }

      .st4 {
        fill: #8dc7e9;
      }

      .st5 {
        fill: #006c68;
      }
    </style>
  </defs>
  <path class="st3" d="M11.5,100h77c6.3,0,11.5-5.1,11.5-11.5V11.5C100,5.1,94.9,0,88.5,0H11.5C5.1,0,0,5.1,0,11.5v77c0,6.3,5.1,11.5,11.5,11.5Z"/>
  <g>
    <path class="st5" d="M78.9,61l-1.7-.8c1.9-4.1,2.9-8.5,2.9-13s-.8-8.1-2.4-11.9c-4.8-11.2-15.7-18.4-27.8-18.4s-23,7.2-27.8,18.4l-1.7-.7c5.1-11.9,16.6-19.6,29.5-19.6s24.5,7.7,29.5,19.6c1.7,4,2.6,8.2,2.6,12.6s-1,9.5-3.1,13.9h0Z"/>
    <path class="st0" d="M77.5,61.4c-.3-.2-.6-.5-.8-.6l1.1-1.5c.3.2.6.5,1,.8l-1.2,1.4Z"/>
    <path class="st0" d="M70.9,81.2c-.9,0-1.8-.1-2.7-.3l.4-1.8c.8.2,1.5.3,2.3.3,5.6,0,10.2-4.6,10.2-10.2s-.2-2.2-.5-3.2c-.2-.6-.5-1.2-.7-1.7-.6-1.1-1.4-2.1-2.3-2.9l1.2-1.4c1.1,1,2.1,2.1,2.8,3.4.3.6.6,1.3.9,2,.4,1.2.6,2.5.6,3.8,0,6.7-5.4,12.1-12,12.1h0Z"/>
    <path class="st2" d="M62.7,77.8c-.3-.5-.6-1.1-.8-1.8l1.7-.6c.2.6.4,1.1.7,1.5l-1.6.9h0Z"/>
    <path class="st2" d="M61.9,76c-.5-1.3-.7-2.7-.7-4,0-6.6,5.4-12.1,12-12.1s2.6.2,3.9.7c.3,0,.6.2.8.3,1.2.5,2.3,1.3,3.4,2.2l-1.2,1.4c-.9-.8-1.8-1.4-2.9-1.9-.2,0-.5-.2-.7-.3-1.1-.4-2.2-.6-3.3-.6-5.6,0-10.2,4.6-10.2,10.2s.2,2.3.6,3.4l-1.7.6h0Z"/>
    <path class="st4" d="M53.1,85c-1,0-2.1,0-3.2-.2-11.6-1.2-21.7-8.6-26.3-19.4-1.7-4-2.6-8.2-2.6-12.6,0-16.6,12.4-30.4,28.9-32l.2,1.8c-15.5,1.5-27.2,14.5-27.2,30.2s.8,8.1,2.4,11.9c4.3,10.2,13.8,17.2,24.8,18.3,1,0,2,.1,3,.1,4.6,0,9-1,13.2-3l.8,1.7c-4.4,2.1-9.1,3.2-14,3.2Z"/>
    <path class="st2" d="M66.1,81.7c-.9-.7-1.8-1.5-2.5-2.5l1.5-1.1c.6.8,1.3,1.5,2.1,2.1l-1.1,1.5Z"/>
    <path class="st5" d="M50,79.4c-10.5,0-20.3-5.2-26.3-13.8-3.8-5.4-5.8-11.8-5.8-18.4s.9-8.6,2.6-12.6l1.7.7c-1.6,3.8-2.4,7.8-2.4,11.9,0,6.2,1.9,12.2,5.4,17.3,5.7,8.2,14.9,13,24.8,13s8.1-.8,11.9-2.4l.7,1.7c-4,1.7-8.2,2.6-12.6,2.6h0Z"/>
    <path class="st1" d="M63.6,79.2c-.4-.5-.7-1-.9-1.4l1.6-.9c.2.4.5.8.8,1.2l-1.5,1.1h0Z"/>
    <path class="st4" d="M82.6,65.3l-1.7-.7c1.6-3.7,2.4-7.7,2.4-11.8,0-6.2-1.9-12.2-5.4-17.3-5.7-8.2-14.9-13-24.8-13s-2,0-3,.1l-.2-1.8c1.1-.1,2.1-.2,3.2-.2,10.5,0,20.3,5.2,26.3,13.8,3.8,5.4,5.8,11.8,5.8,18.4s-.8,8.6-2.5,12.5h0Z"/>
    <path class="st2" d="M73.2,84.1c-2.6,0-5-.8-7.1-2.3l1.1-1.5c1.8,1.3,3.8,2,6,2,5.6,0,10.2-4.6,10.2-10.2s-.8-4.6-2.3-6.5l1.4-1.2c1.7,2.1,2.7,4.9,2.7,7.6,0,6.6-5.4,12.1-12,12.1h0Z"/>
    <path class="st0" d="M68.2,80.9c-1.4-.3-2.8-.9-4-1.7-.5-.3-.9-.7-1.4-1.1-.5-.5-1-1-1.4-1.5-1.7-2.1-2.5-4.7-2.5-7.4,0-6.7,5.4-12.1,12-12.1s4.8.7,6.8,2.1l-1,1.5c-1.7-1.2-3.7-1.8-5.7-1.8-5.6,0-10.2,4.6-10.2,10.2s.7,4.4,2.2,6.3c.3.5.7.9,1.2,1.3.4.4.8.7,1.2,1,1,.7,2.2,1.2,3.4,1.5l-.4,1.8Z"/>
    <path class="st2" d="M81.1,65.5c-.2-.3-.3-.4-.4-.5,0,0,0,0,0,0-.1,0-.3-.2-.6-.5l1.3-1.4c.3.2.4.4.5.5.2.2.3.2.4.4,0,0,.1.2.3.4l-1.4,1.2Z"/>
    <path class="st0" d="M46.9,85c-17.7,0-32.1-14.4-32.1-32.2s2-13,5.8-18.4c6-8.7,15.8-13.8,26.3-13.8s2.1,0,3.2.2c16.5,1.6,28.9,15.4,28.9,32s-.3,4.9-.9,7.4l-1.8-.4c.5-2.3.8-4.6.8-7,0-15.7-11.7-28.7-27.2-30.2-1-.1-2-.1-3-.1-9.9,0-19.1,4.9-24.8,13-3.5,5.1-5.4,11.1-5.4,17.3,0,16.7,13.6,30.3,30.2,30.3s2,0,3-.1c5-.5,9.8-2.2,13.9-5.1l1,1.5c-4.4,3-9.5,4.9-14.8,5.4-1.1.1-2.2.2-3.2.2h0Z"/>
    <path class="st1" d="M80,64.5c-.9-.8-1.8-1.4-2.9-1.9-.2,0-.4-.2-.7-.2-1.1-.4-2.2-.6-3.3-.6v-1.9c1.3,0,2.6.2,3.9.7.3,0,.6.2.8.3,1.2.5,2.4,1.3,3.4,2.2l-1.2,1.4Z"/>
  </g>
</svg>