<?xml version="1.0" encoding="UTF-8"?>
<svg id="Laag_1" data-name="Laag 1" xmlns="http://www.w3.org/2000/svg" version="1.1" viewBox="0 0 100 100">
  <defs>
    <style>
      .cls-1 {
        fill: #000;
      }

      .cls-1, .cls-2 {
        stroke-width: 0px;
      }

      .cls-2 {
        fill: #fff;
      }
    </style>
  </defs>
  <path class="cls-1" d="M90,100H10c-5.5,0-10-4.5-10-10V10C0,4.5,4.5,0,10,0h80c5.5,0,10,4.5,10,10v80c0,5.5-4.5,10-10,10Z"/>
  <path class="cls-2" d="M61.5,47.6c-1.3-1.1-2.9-1.7-4.7-1.7s-3.4.6-4.7,1.7c-1.3,1.1-2,2.7-2,4.7s.7,3.6,2,4.7c1.3,1.1,2.9,1.7,4.7,1.7s3.4-.6,4.7-1.7c1.3-1.1,2-2.7,2-4.7s-.7-3.6-2-4.7ZM54.4,54.9c-.7-.7-1-1.5-1-2.6s.3-1.9,1-2.5c.7-.7,1.5-1,2.5-1s1.8.3,2.5,1c.7.6,1.1,1.5,1.1,2.5s-.3,1.9-1.1,2.6c-.7.6-1.5.9-2.5.9s-1.8-.3-2.5-.9h0ZM68.1,58.3v-16.7h-3.1v16.7h3.1ZM78.1,46.3v6.7c0,1.6-.9,2.7-2.5,2.7s-2.5-1.1-2.5-2.7v-6.7h-3.1v7.2c0,2.8,1.8,5.2,5.7,5.2h0c3.9,0,5.6-2.5,5.6-5.2v-7.2h-3.1ZM46.9,46.3l-3.1,8.2-3.1-8.2h-3.3l4.9,12.1h2.9l4.9-12.1h-3.3ZM37.4,52c0-1.8-.6-3.2-1.7-4.3-1.1-1.1-2.5-1.7-4.3-1.7s-3.3.6-4.6,1.8c-1.2,1.2-1.8,2.7-1.8,4.6s.6,3.4,1.8,4.6c1.2,1.2,2.7,1.8,4.4,1.8,2.7,0,4.6-1.2,5.7-3.5l-2.3-1.3c-.8,1.5-1.9,2.2-3.4,2.2s-3.1-1.2-3.3-3h9.4v-1.1h0ZM31.4,48.3c1.7,0,2.9,1,3.2,2.5h-6.5c.5-1.4,1.7-2.5,3.3-2.5h0ZM25.1,58.4l-4.2-7.2c2.6-.9,3.9-2.6,3.9-5,0-2.9-2.4-4.8-6.1-4.8h-7.3v17h3.2v-6.9h2.8l4,6.9h3.7ZM18.7,44.1c1.9,0,2.9.8,2.9,2.2s-1,2.2-2.9,2.2h-4.1v-4.5h4.1ZM86.5,58.7c-2,0-3.6-1.6-3.6-3.6v-12.1h3.1v3.3h2.7v2.5h-2.7v6.2c0,.6.5,1,1.1,1h1.6v2.7h-2.1Z"/>
</svg>