<?xml version="1.0" encoding="UTF-8"?>
<svg id="Laag_1" data-name="Laag 1" xmlns="http://www.w3.org/2000/svg" xmlns:xlink="http://www.w3.org/1999/xlink" viewBox="0 0 100 100">
  <defs>
    <style>
      .cls-1 {
        fill: none;
      }

      .cls-2 {
        fill-rule: evenodd;
      }

      .cls-3 {
        fill: #fff;
      }

      .cls-4 {
        clip-path: url(#clippath);
      }
    </style>
    <clipPath id="clippath">
      <rect class="cls-1" width="100" height="100" rx="11.484" ry="11.484"/>
    </clipPath>
  </defs>
  <g id="Basis">
    <path class="cls-3" d="M11.484,0h77.032c6.343,0,11.484,5.142,11.484,11.484v77.032c0,6.343-5.142,11.484-11.484,11.484H11.484c-6.343,0-11.484-5.142-11.484-11.484V11.484C0,5.142,5.142,0,11.484,0Z"/>
  </g>
  <g id="Laag_1-2" data-name="Laag 1">
    <g class="cls-4">
      <path class="cls-3" d="M11.484,0h77.032c6.343,0,11.484,5.142,11.484,11.484v77.032c0,6.343-5.142,11.484-11.484,11.484H11.484c-6.343,0-11.484-5.142-11.484-11.484V11.484C0,5.142,5.142,0,11.484,0Z"/>
    </g>
  </g>
  <path class="cls-2" d="M34.202,31.196h-13.832v55.933h13.832V31.196ZM77.58,34.395c0-11.869-9.665-21.525-21.545-21.525H20.37v11.945h33.969c5.377,0,9.83,4.224,9.929,9.415.049,2.599-.927,5.053-2.747,6.908-1.821,1.856-4.255,2.878-6.852,2.878h-13.233c-.47,0-.852.382-.852.852v10.616c0,.181.056.353.161.498l22.451,31.147h16.434l-22.503-31.232c11.333-.569,20.453-10.091,20.453-21.503Z"/>
</svg>