<?xml version="1.0" encoding="UTF-8"?>
<svg id="Laag_1" data-name="Laag 1" xmlns="http://www.w3.org/2000/svg" version="1.1" viewBox="0 0 100 100">
  <defs>
    <style>
      .cls-1 {
        fill: #fff;
      }

      .cls-1, .cls-2 {
        stroke-width: 0px;
      }

      .cls-2 {
        fill: #123250;
      }
    </style>
  </defs>
  <path class="cls-2" d="M90,100H10c-5.5,0-10-4.5-10-10V10C0,4.5,4.5,0,10,0h80c5.5,0,10,4.5,10,10v80c0,5.5-4.5,10-10,10Z"/>
  <path id="path4261" class="cls-1" d="M13,55.6v-13.9h-2.9v16.6h9.9v-2.7h-7ZM69.6,53.5c0-2.2-1-3.5-2.7-4h0c1.3-.6,2.1-1.7,2.1-3.6s-1.6-4.2-4.8-4.2h-5.8v16.6h5.9c3.8,0,5.3-1.8,5.3-4.8M66.7,53.3c0,1.9-.8,2.5-2.4,2.5h-3.2v-4.9h3.1c1.7,0,2.5.7,2.5,2.4M66.3,46.4c0,1.5-.6,2.2-2.1,2.2h-3v-4.4h2.9c1.5,0,2.2.5,2.2,2.2M78.8,41.7l-2.2,11-.3,1.9h0l-.3-1.9-2.2-11h-3l3.5,16.6h3.6l2.1-10.9.3-2h0l.3,2,2.1,10.9h3.5l3.5-16.6h-2.9l-2.2,11-.3,1.9h0l-.3-1.9-2.2-11h-3.1ZM33.4,53.5c0-2.2-1-3.5-2.7-4h0c1.3-.6,2.1-1.7,2.1-3.6s-1.6-4.2-4.8-4.2h-5.8v16.6h5.9c3.8,0,5.3-1.8,5.3-4.8M30.5,53.3c0,1.9-.8,2.5-2.4,2.5h-3.2v-4.9h3.1c1.7,0,2.5.7,2.5,2.4M30.1,46.4c0,1.5-.6,2.2-2.1,2.2h-3v-4.4h2.9c1.5,0,2.2.5,2.2,2.2M53.8,41.7h-16.6v3.3h16.6v-3.3ZM53.8,48.3h-16.6v3.3h16.6v-3.3ZM53.8,58.3h-16.6v-3.3h16.6v3.3Z"/>
</svg>