<?xml version="1.0" encoding="UTF-8"?>
<svg id="Laag_1" data-name="Laag 1" xmlns="http://www.w3.org/2000/svg" version="1.1" viewBox="0 0 100 100">
  <defs>
    <style>
      .cls-1 {
        fill: #ff6432;
      }

      .cls-1, .cls-2 {
        stroke-width: 0px;
      }

      .cls-2 {
        fill: #fff;
        fill-rule: evenodd;
      }
    </style>
  </defs>
  <path class="cls-1" d="M90,100H10c-5.5,0-10-4.5-10-10V10C0,4.5,4.5,0,10,0h80c5.5,0,10,4.5,10,10v80c0,5.5-4.5,10-10,10Z"/>
  <path class="cls-2" d="M50,21.4s-11-.4-11,9.4,6.9,11.1,10.9,12.8c2.7,1.1,5.4,2.2,8.1,3.3,6.4,2.8,12.5,8.1,12.8,15.8.1,2.7-.2,4-.5,5-.2.8-.3,1.2.2,1.4.4.2,1.1-.6,1.1-.6,0,0,6.9-7.6,7.3-18.7.4-10.2-7.7-27.8-28.8-28.4M50.3,78.6s11.1.4,11.1-9.3-7-11-11-12.7c-4.7-1.9-8.2-3.3-8.2-3.3-6.5-2.8-12.6-8.1-12.9-15.7-.1-2.7.2-3.9.5-4.9.2-.8.3-1.1-.2-1.4-.4-.2-1.1.6-1.1.6,0,0-6.9,7.5-7.3,18.6-.4,10.1,7.8,27.6,29.1,28.2"/>
</svg>