<?xml version="1.0" encoding="UTF-8"?>
<svg id="Laag_1" data-name="Laag 1" xmlns="http://www.w3.org/2000/svg" xmlns:xlink="http://www.w3.org/1999/xlink" viewBox="0 0 100 100">
  <defs>
    <style>
      .cls-1 {
        fill: #14191a;
      }

      .cls-2 {
        fill: #fff;
      }

      .cls-3 {
        clip-path: url(#clippath);
      }
    </style>
    <clipPath id="clippath">
      <rect class="cls-2" width="100" height="100" rx="11.484" ry="11.484"/>
    </clipPath>
  </defs>
  <g id="Basis">
    <path class="cls-2" d="M11.484,0h77.032c6.343,0,11.484,5.142,11.484,11.484v77.032c0,6.343-5.142,11.484-11.484,11.484H11.484c-6.343,0-11.484-5.142-11.484-11.484V11.484C0,5.142,5.142,0,11.484,0Z"/>
  </g>
  <g id="Laag_1-2" data-name="Laag 1">
    <g>
      <rect class="cls-2" width="100" height="100" rx="11.484" ry="11.484"/>
      <g class="cls-3">
        <path class="cls-2" d="M11.484,0h77.032c6.343,0,11.484,5.142,11.484,11.484v77.032c0,6.343-5.142,11.484-11.484,11.484H11.484c-6.343,0-11.484-5.142-11.484-11.484V11.484C0,5.142,5.142,0,11.484,0Z"/>
      </g>
    </g>
  </g>
  <path class="cls-1" d="M79.209,42.021c3.46,0,5.77,2.567,5.77,6.102v9.485h-2.788v-9.345c0-2.05-1.575-3.49-3.513-3.49-2.129,0-3.747,1.631-3.747,3.826v9.009h-2.891v-15.161h2.891v1.479c.903-1.158,2.448-1.904,4.279-1.904ZM63.048,57.549h-2.479c-4.18,0-7.15-3.631-7.15-7.761s3.189-7.768,7.534-7.768c4.61,0,7.772,2.777,7.772,7.101v8.485h-2.698v-8.485c0-2.746-1.881-4.398-5.074-4.398-2.771,0-4.836,2.358-4.836,5.065,0,2.744,1.894,5.059,4.452,5.059h2.479v2.702ZM40.373,46.373l-3.551,11.234h-3.32l-4.7-15.161h3.093l3.335,11.434,3.652-11.434h2.986l3.625,11.434,3.36-11.434h3.094l-4.73,15.161h-3.32l-3.523-11.234ZM21.034,57.979c-3.481,0-5.7-1.888-5.979-4.898l-.035-.372h2.816l.042.292c.226,1.562,1.311,2.366,3.266,2.366,1.933,0,3.04-.872,3.04-2.204,0-1.303-.806-1.749-3.392-2.27-.625-.126-.503-.101-.682-.138-3.188-.667-4.612-1.687-4.612-4.334s2.325-4.398,5.59-4.398c2.96,0,5.244,1.785,5.476,4.509l.032.37h-2.787l-.042-.293c-.18-1.266-1.137-2.002-2.819-2.002-1.622,0-2.649.752-2.649,1.814,0,1.089.744,1.477,3.13,1.926.821.155.703.133.955.185,3.141.64,4.628,1.76,4.628,4.521,0,2.95-2.43,4.929-5.98,4.929Z"/>
</svg>