<?xml version="1.0" encoding="UTF-8"?>
<svg id="Laag_1" data-name="Laag 1" xmlns="http://www.w3.org/2000/svg" xmlns:xlink="http://www.w3.org/1999/xlink" viewBox="0 0 100 100">
  <defs>
    <style>
      .cls-1 {
        fill: #fdfdfe;
      }

      .cls-2 {
        fill: #054bc4;
      }

      .cls-3 {
        fill: #fcfdfe;
      }

      .cls-4 {
        fill: #fff;
      }

      .cls-5 {
        clip-path: url(#clippath);
      }
    </style>
    <clipPath id="clippath">
      <rect class="cls-2" width="100" height="100" rx="11.484" ry="11.484"/>
    </clipPath>
  </defs>
  <g id="Basis">
    <path class="cls-4" d="M11.484,0h77.032c6.343,0,11.484,5.142,11.484,11.484v77.032c0,6.343-5.142,11.484-11.484,11.484H11.484c-6.343,0-11.484-5.142-11.484-11.484V11.484C0,5.142,5.142,0,11.484,0Z"/>
  </g>
  <g id="Laag_1-2" data-name="Laag 1">
    <g>
      <rect class="cls-2" width="100" height="100" rx="11.484" ry="11.484"/>
      <g class="cls-5">
        <path class="cls-2" d="M11.484,0h77.032c6.343,0,11.484,5.142,11.484,11.484v77.032c0,6.343-5.142,11.484-11.484,11.484H11.484c-6.343,0-11.484-5.142-11.484-11.484V11.484C0,5.142,5.142,0,11.484,0Z"/>
      </g>
    </g>
  </g>
  <g id="_8BXLPx.tif" data-name="8BXLPx.tif">
    <g>
      <path class="cls-3" d="M36.966,48.205c1.438,3.395,5.786,3.834,8.66,2.926,2.026-.641,3.299-2.312,3.316-4.466.015-2.045.192-4.007-.111-6.192-1.482,2.895-3.846,4.519-6.875,4.841-6.35.676-11.226-2.836-12.641-9.003-1.37-5.97-.626-13.933,4.641-17.909,1.976-1.492,4.156-2.119,6.576-2.119,3.692,0,6.652,1.917,8.289,5.504.434-1.798.018-3.37.214-5.089l7.816-.005.011,23.168-12.009,17.357c-2.441.261-4.828.089-7.231-.462-3.683-.897-7.241-3.699-7.928-7.546l7.275-1.004ZM43.264,39.327c6.018-.268,6.453-8.073,5.147-12.27-.441-1.419-1.245-2.691-2.473-3.492-1.593-1.038-3.749-1.162-5.448-.299-3.966,2.013-4.211,8.593-2.831,12.385.878,2.413,2.992,3.793,5.606,3.676Z"/>
      <path class="cls-1" d="M54.305,83.717c-6.73-.041-10.882-5.069-11.839-11.228l13.723-19.816c2.159.298,3.979,1.519,5.298,3.209.529.677.751,1.403,1.451,2.139l.05-15.228,8.299.004v40.404s-8.125.007-8.125.007c-.268-1.724.275-3.311-.28-5.04-1.775,3.611-4.73,5.572-8.577,5.548ZM62.197,73.305c1.346-3.368,1.303-7.254-.007-10.55-.934-2.349-3.087-3.627-5.42-3.601-2.354.026-4.35,1.446-5.271,3.811-1.295,3.322-1.274,7.235.126,10.517.978,2.292,3.004,3.586,5.319,3.553,2.296-.032,4.299-1.34,5.254-3.73Z"/>
    </g>
  </g>
</svg>