<?xml version="1.0" encoding="UTF-8"?>
<svg id="Laag_1" data-name="Laag 1" xmlns="http://www.w3.org/2000/svg" viewBox="0 0 100 100">
  <defs>
    <style>
      .cls-1 {
        fill: #fff;
      }
    </style>
  </defs>
  <path class="cls-1" d="M11.49,100h77.03c6.34,0,11.49-5.14,11.49-11.49V11.49C100,5.14,94.86,0,88.51,0H11.49C5.14,0,0,5.14,0,11.49v77.03c0,6.34,5.14,11.49,11.49,11.49Z"/>
  <g>
    <path d="M36.96,54.56c-1.58.24-2.9-.6-3.38-2.03-.9-2.64-.25-6.25,2.26-6.81,1.25-.28,2.42-.02,3.74.43l.02-3.23-1.22-.27-.03-.72h3.32s0,11.55,0,11.55l1.27.25-.02.63h-3.05s-.29-.62-.29-.62c-.78.31-1.67.67-2.61.82ZM39.59,52.75v-5.66c-.89-.13-1.8-.26-2.67-.12-.73.12-1.14.87-1.36,1.5-.26,1.25-.28,2.53.16,3.71.58,1.57,2.22,1.21,3.87.57Z"/>
    <path d="M51.37,54.35c-1.42.54-2.86.11-4.11-.66l-.26.64-1.83-.02v-11.41s-1.18-.24-1.18-.24c-.08-.13-.09-.57-.05-.73h3.28s.02,4.27.02,4.27c2.55-.83,4.96-1.14,5.98,1.35.82,2.36.48,5.92-1.85,6.8ZM51.16,48.1c-.22-.75-.9-1.31-1.69-1.2l-2.23.31v5.57c.88.42,1.78.69,2.7.46,1.59-.39,1.79-3.21,1.22-5.13Z"/>
    <path d="M22.37,51.53c-.26,3.82-5.93,3.48-9.13,2.11v-2.27s1.04.01,1.04.01l.29,1.46c2.23.85,5.53,1.07,5.63-1.3.03-.59-.02-1.38-.51-1.78-1.88-1.56-6.28-.89-6.58-4.49-.14-1.63.83-2.92,2.45-3.32,1.89-.46,3.84-.18,5.74.49l.02,2.04h-1s-.39-1.29-.39-1.29c-1.23-.3-2.57-.46-3.79-.08-.76.23-.98.97-.97,1.67.03,2.44,4.72,1.61,6.56,3.87.65.8.7,1.87.63,2.86Z"/>
    <path d="M86.89,54.35h-4.61s-.01-.7-.01-.7l1.02-.22-3.08-3.05c-.15-.15-.61-.12-.84-.07v3.11s1.13.21,1.13.21v.72s-4.39,0-4.39,0v-.71s1.2-.25,1.2-.25v-10.56s-1.19-.22-1.19-.22c-.09-.11-.09-.59,0-.72h3.25s0,7.24,0,7.24c.33.23.79.05,1.08-.21l2.31-2.09-1.06-.24-.02-.71h4.14s0,.71,0,.71l-1.27.25-2.94,2.55,4.11,4.03,1.19.2v.72Z"/>
    <path d="M67.94,47.43v6.03s1.09.21,1.09.21v.67s-4.32,0-4.32,0l-.04-.65,1.19-.23v-6.6s-1.24-.26-1.24-.26v-.7s3.11.01,3.11.01l.31.5c1.18-.51,2.39-.92,3.62-.82,1.33.12,2.11,1.03,2.11,2.3v5.57s1.26.21,1.26.21v.66s-4.42,0-4.42,0l-.04-.65,1.14-.24-.02-5.41c0-1.42-2.04-1.22-3.75-.61Z"/>
    <path d="M27.84,56.22c-.87,2.1-2.67,2.35-4.79,1.8v-1.94s.96,0,.96,0l.17,1.18c.98.23,1.87-.18,2.29-1.08l.8-1.74-.68-.24-3.16-7.34-1.17-.23c-.09-.11-.1-.57-.04-.72h4.26s.01.71.01.71l-.97.21,2.49,5.93,2.38-5.89-1.2-.26-.02-.7h3.8s.03.69.03.69l-1.27.25-3.9,9.37Z"/>
    <path d="M57.76,54.61c-1.64.12-2.66-1.03-2.76-2.49-.09-1.25.5-2.26,1.73-2.62,1.14-.34,2.28-.38,3.61-.39.01-.48-.02-1.19-.14-1.71-.18-.83-2.25-.73-3.55-.33l-.15.71c-.04.18-.57.17-.81.1l-.02-1.6c2.58-.89,6.66-1.32,6.67,1.46l.03,5.79,1.13.15.06.67h-3.05s-.17-.58-.17-.58c-.82.38-1.64.77-2.6.84ZM60.35,52.77v-2.68c-1.02.01-1.9.07-2.67.54-.53.32-.65.94-.58,1.55.04.39.35.97.88,1.13.78.23,1.78-.07,2.38-.53Z"/>
  </g>
</svg>