<?xml version="1.0" encoding="UTF-8"?>
<svg id="Basis" xmlns="http://www.w3.org/2000/svg" viewBox="0 0 100 100">
  <defs>
    <style>
      .cls-1 {
        fill: #98d39a;
      }

      .cls-2 {
        fill: #fff;
      }

      .cls-3 {
        fill: #8074ff;
      }

      .cls-4 {
        fill: #004b32;
      }
    </style>
  </defs>
  <path class="cls-2" d="M11.484,0h77.032c6.343,0,11.484,5.142,11.484,11.484v77.032c0,6.343-5.142,11.484-11.484,11.484H11.484c-6.343,0-11.484-5.142-11.484-11.484V11.484C0,5.142,5.142,0,11.484,0Z"/>
  <g>
    <path class="cls-3" d="M29.147,32.967c11.392,3.2,23.363.531,32.128-7.401.774-.7,1.983-1.974,2.13-3.022.272-1.951-2.161-3.407-3.701-4.053-9.238-3.876-23.348-1.025-30.714,5.647-3.397,3.078-6.066,7.078.156,8.826l.002.002Z"/>
    <path class="cls-4" d="M81.163,38.039c-2.039-4.616-5.867-10.708-11.656-10.143-4.169.408-13.476,6.766-16.323,9.912-4.223,4.67-4.498,10.967-4.83,16.958-.315,5.683-.631,12.006-.541,17.671.12,7.465.943,12.007,9.878,10.552,13.292-2.163,23.748-14.622,25.666-27.666.854-5.816.177-11.915-2.195-17.284h.002Z"/>
    <path class="cls-1" d="M31.693,37.431c-9.119-1.393-13.887-.178-15.211,9.857-1.626,12.312,7.228,29.728,19.696,33.211,4.528,1.266,5.991-.888,6.691-4.22.255-1.213.385-2.453.408-3.692.141-7.666,1.027-15.542.747-23.157-.344-9.36-3.358-10.629-12.329-12h-.002Z"/>
  </g>
</svg>