<?xml version="1.0" encoding="UTF-8"?>
<svg id="Laag_1" data-name="Laag 1" xmlns="http://www.w3.org/2000/svg" xmlns:xlink="http://www.w3.org/1999/xlink" version="1.1" viewBox="0 0 100 100">
  <defs>
    <style>
      .cls-1 {
        fill: #fff;
        fill-rule: evenodd;
      }

      .cls-1, .cls-2 {
        stroke-width: 0px;
      }

      .cls-2 {
        fill: url(#Naamloos_verloop_3);
      }
    </style>
    <radialGradient id="Naamloos_verloop_3" data-name="Naamloos verloop 3" cx="50" cy="50" fx="50" fy="50" r="63.5" gradientUnits="userSpaceOnUse">
      <stop offset="0" stop-color="#75b449"/>
      <stop offset=".5" stop-color="#006f41"/>
      <stop offset="1" stop-color="#002d26"/>
    </radialGradient>
  </defs>
  <path class="cls-2" d="M90,100H10c-5.5,0-10-4.5-10-10V10C0,4.5,4.5,0,10,0h80c5.5,0,10,4.5,10,10v80c0,5.5-4.5,10-10,10Z"/>
  <path id="Fill-42" class="cls-1" d="M40.7,19c-2.1,1.3-3.1,4.1-3.4,5.2h0c6.8,4.3,11.2,9.9,13.6,13.8h0c1.6,2.6,2.6,4.9,3.1,6.3h0c.5-2,.4-3.9.4-3.9h0c-.2-12.1-4.1-20.4-10.2-21.9h0c-.4-.1-.8-.2-1.2-.2h0c-.8,0-1.6.2-2.3.7M61.1,24.9c-3.4,3-3.8,11.7-4,14.9h0s0,.6,0,.6h0c-.1,2,0,4.4.2,5.6h0c7.5-6.2,10-15.3,10.4-16.5h0c-.4-5.2-3.6-5.6-3.7-5.7h0c-.1,0-.2,0-.3,0h0c-.9,0-1.8.3-2.5,1M29.2,34.1c0,2.1.8,4.3,2.3,6.4h0c1.6,2.1,3.9,3.9,6.7,5h0c8.7,3.7,13.6,1.4,14.8.7h0c-5.4-13.3-15.8-19.4-17.3-20.2h0c-4.1,1.7-6.4,4.6-6.5,8.1M66.7,36.4c-1.5,3-4.1,7.3-8.5,11h0c2.1.4,6.4.4,10.3-5.6h0c1.8-2.8,2.5-5.3,2-7.5h0c-.3-1.6-1.2-2.6-1.8-3.2h0c-.3,1.1-.9,3-2.1,5.3M59.2,50.4c2.2,2,6.8,7,9.3,16.6h0c.6-.8,1.5-2.2,2-3.9h0c.9-3.1,0-5.9-2.6-8.5h0c-3.5-3.5-6.6-4.2-8.5-4.2h0c0,0-.2,0-.2,0M36.4,55.5c-4.6,3-6.9,6.4-6.7,9.9h0c.2,3.1,2.6,6.1,6.3,8h0c1.5-.9,11-7.4,17.2-22.2h0c-.6-.2-1.7-.4-3.4-.4h0c-3,0-7.6.9-13.5,4.7M57.5,55.7s0,.9,0,.9h0c0,3.2,0,11.8,3.1,14.9h0c.8.8,1.7,1.1,2.7,1.1h0s0,0,0,0h0c.1,0,3,.4,3.8-4.1h0c-.4-1.5-3.4-12.4-9.4-17.2h0c-.1.9-.3,2.5-.3,4.4M44,69.6c-2.9,3.2-5.4,5.1-6.2,5.7h0c.4,1.3,2.2,6.3,6.1,6.3h0c4.6,0,7.4-6.4,7.5-6.5h0s0,0,0,0h0s0,0,0,0h0s0,0,0,0c.2-.5,5.4-12,3-22.1h0c-3,7.6-7.3,13.2-10.3,16.6"/>
</svg>