<?xml version="1.0" encoding="UTF-8"?>
<svg id="Laag_1" data-name="Laag 1" xmlns="http://www.w3.org/2000/svg" xmlns:xlink="http://www.w3.org/1999/xlink" viewBox="0 0 100 100">
  <defs>
    <style>
      .cls-1 {
        fill: none;
      }

      .cls-2 {
        fill: #fff;
      }

      .cls-3 {
        fill: url(#Naamloos_verloop_5);
      }

      .cls-4 {
        clip-path: url(#clippath);
      }
    </style>
    <clipPath id="clippath">
      <rect class="cls-1" width="100" height="100" rx="11.484" ry="11.484"/>
    </clipPath>
    <linearGradient id="Naamloos_verloop_5" data-name="Naamloos verloop 5" x1="145.31" y1="612.156" x2="177.232" y2="540.458" gradientTransform="translate(-107.4 -529.935)" gradientUnits="userSpaceOnUse">
      <stop offset="0" stop-color="#e20d18"/>
      <stop offset=".45" stop-color="#e75014"/>
      <stop offset="1" stop-color="#fbba09"/>
    </linearGradient>
  </defs>
  <g id="Basis">
    <path class="cls-2" d="M11.484,0h77.032c6.343,0,11.484,5.142,11.484,11.484v77.032c0,6.343-5.142,11.484-11.484,11.484H11.484c-6.343,0-11.484-5.142-11.484-11.484V11.484C0,5.142,5.142,0,11.484,0Z"/>
  </g>
  <g id="Laag_1-2" data-name="Laag 1">
    <g class="cls-4">
      <path class="cls-2" d="M11.484,0h77.032c6.343,0,11.484,5.142,11.484,11.484v77.032c0,6.343-5.142,11.484-11.484,11.484H11.484c-6.343,0-11.484-5.142-11.484-11.484V11.484C0,5.142,5.142,0,11.484,0Z"/>
    </g>
  </g>
  <g>
    <path id="shape" class="cls-3" d="M84.121,80.718c.122,1.706-1.341,3.291-3.047,3.291h-.731l-60.814-10.115c-2.072-.487-3.656-1.706-3.656-3.778V29.531c0-2.194,1.341-3.412,3.534-3.778l60.936-9.994c2.072-.244,3.778,1.219,3.778,3.412v61.546Z"/>
    <path id="text_in_shape" data-name="text in shape" class="cls-2" d="M66.449,47.934l5.241,6.216h5.728l-7.8-8.653,6.459-6.947h-5.85l-3.656,4.266v-12.797h-4.631v24.131h4.631v-6.216h-.122ZM57.553,54.15v-24.131h-4.631v10.359c-.731-1.462-2.681-2.194-4.509-2.194-4.022,0-7.556,3.169-7.556,8.165,0,4.875,3.534,8.044,7.556,8.044,1.95,0,3.778-.853,4.509-2.316v1.95l4.631.122ZM52.8,46.228c.122,2.072-1.462,3.656-3.534,3.778h-.122c-1.95,0-3.656-1.462-3.656-3.778-.122-1.95,1.462-3.656,3.412-3.656h.244c1.95,0,3.656,1.341,3.656,3.656M29.156,54.15h4.022l6.581-15.6h-4.997l-3.534,9.75-3.656-9.75h-4.997l6.581,15.6ZM63.159,64.387l3.169,3.412h1.706l-3.656-3.9,2.925-3.047h-1.828l-2.316,2.437v-6.216h-1.341v10.725h1.341v-3.412ZM54.871,64.021c0-1.462.975-2.072,1.95-2.072s1.462.731,1.462,1.828v3.9h1.341v-4.022c0-1.95-.975-3.047-2.681-3.047-.731,0-1.706.366-2.194,1.219v-.975h-1.341v6.947h1.341l.122-3.778ZM49.875,64.265c0,1.219-.975,2.316-2.316,2.316-1.219,0-2.316-.975-2.316-2.316,0-1.219.853-2.194,2.072-2.316h.122c1.462,0,2.437,1.097,2.437,2.316h0M49.875,67.8h1.341v-6.947h-1.341v.975c-.609-.731-1.462-1.219-2.437-1.219-1.95,0-3.656,1.584-3.656,3.656,0,1.95,1.584,3.656,3.656,3.656.975,0,1.95-.487,2.437-1.219v1.097ZM36.712,64.265c0-1.219.975-2.316,2.194-2.316h0c1.219,0,2.194.975,2.194,2.072v.122c0,1.219-.975,2.316-2.316,2.316-1.097.122-2.072-.853-2.072-2.194M36.59,66.703c.609.731,1.462,1.219,2.437,1.219,1.95,0,3.656-1.584,3.656-3.656,0-1.95-1.584-3.656-3.656-3.656-.975,0-1.95.366-2.437,1.219v-4.753h-1.219v10.725h1.341l-.122-1.097Z"/>
  </g>
</svg>