<?xml version="1.0" encoding="UTF-8"?>
<svg id="Laag_1" data-name="Laag 1" xmlns="http://www.w3.org/2000/svg" xmlns:xlink="http://www.w3.org/1999/xlink" version="1.1" viewBox="0 0 100 100">
  <defs>
    <style>
      .cls-1 {
        fill: url(#Naamloos_verloop_5);
      }

      .cls-1, .cls-2 {
        stroke-width: 0px;
      }

      .cls-2 {
        fill: #fff;
      }
    </style>
    <linearGradient id="Naamloos_verloop_5" data-name="Naamloos verloop 5" x1="11.6" y1="94.4" x2="92.8" y2=".5" gradientUnits="userSpaceOnUse">
      <stop offset="0" stop-color="#003a58"/>
      <stop offset="1" stop-color="#007392"/>
    </linearGradient>
  </defs>
  <path class="cls-1" d="M90,100H10c-5.5,0-10-4.5-10-10V10C0,4.5,4.5,0,10,0h80c5.5,0,10,4.5,10,10v80c0,5.5-4.5,10-10,10Z"/>
  <path class="cls-2" d="M50,72c-12,0-21.9-10-21.9-22s.4-4.9,1.2-7.2l12.8,24.9c.2.3.3.6.8.6s.6-.3.8-.6l5.9-13.3c.1-.2.2-.3.3-.3.2,0,.2.2.3.3l6,13.3c.2.3.3.6.8.6s.6-.3.8-.6l12.8-24.9c.8,2.2,1.2,4.7,1.2,7.2-.1,12-10,22-22,22ZM50,44.3c-.2,0-.2-.2-.3-.3l-6.8-14.7c4.6-1.7,9.6-1.7,14.2,0l-6.8,14.7c0,.1,0,.3-.2.3ZM42.8,60.3c-.2,0-.2-.2-.3-.3l-11.2-21.5c2-3.2,4.8-5.9,8.1-7.8l7.9,17.1c.2.3.3.4.6.4h4.1c.3,0,.4-.1.6-.4l7.8-17.1c3.3,1.9,6.1,4.6,8.1,7.8l-11.1,21.6c-.1.2-.2.3-.3.3-.2,0-.2-.2-.3-.3l-4.3-9.4c-.2-.3-.3-.4-.6-.4h-4c-.3,0-.4.1-.6.4l-4.3,9.4c-.1.1-.1.2-.2.2ZM50,74.9c13.8,0,24.9-11.1,24.9-24.9s-11.1-24.9-24.9-24.9-24.9,11.1-24.9,24.9,11.1,24.9,24.9,24.9Z"/>
</svg>