<?xml version="1.0" encoding="UTF-8"?>
<svg id="Laag_1" data-name="Laag 1" xmlns="http://www.w3.org/2000/svg" viewBox="0 0 100 100">
  <defs>
    <style>
      .cls-1 {
        fill: #e30557;
      }

      .cls-2 {
        fill: #fdfcfd;
      }

      .cls-3 {
        fill: #fff;
      }

      .cls-4 {
        fill: #5b2581;
      }
    </style>
  </defs>
  <path class="cls-3" d="M11.49,100h77.03c6.34,0,11.49-5.14,11.49-11.49V11.49C100,5.14,94.86,0,88.51,0H11.49C5.14,0,0,5.14,0,11.49v77.03c0,6.34,5.14,11.49,11.49,11.49Z"/>
  <g>
    <path class="cls-4" d="M36.38,48.35c4.31,1.12,6.51,4.46,6.79,8.53s-1.48,7.92-5.28,9.84c-2.06,1.04-4.31,1.71-6.73,1.71l-19.1.05V31.45s18.51.05,18.51.05c1.88,0,3.69.3,5.39.9,3.5,1.05,5.28,4.07,5.47,7.56.2,3.7-1.37,6.92-5.05,8.4ZM32.91,44.48c.8-1.65.79-3.63-.31-5.12-.97-1.02-2.29-1.34-3.69-1.49l-8.6-.03v8.54s8.86,0,8.86,0c1.53-.11,2.88-.68,3.75-1.91ZM34.35,59.89c.96-1.96.81-4.27-.33-6.04-1.12-1.21-2.66-1.8-4.32-1.8l-9.41-.02.03,10.05,9.96-.02c1.64-.23,3.13-.71,4.09-2.17Z"/>
    <g>
      <path class="cls-1" d="M87.93,68.59h-37.32s0-37.18,0-37.18h37.31s0,37.18,0,37.18ZM60.18,63.04h7.07s0-26.09,0-26.09l-10.94.02v5.98s3.85.04,3.85.04l.02,20.06ZM74.31,63.05h7.02s0-26.09,0-26.09h-10.89s0,5.97,0,5.97l3.86.03v20.09Z"/>
      <polygon class="cls-2" points="60.18 63.04 60.16 42.98 56.31 42.94 56.31 36.96 67.24 36.95 67.25 63.05 60.18 63.04"/>
      <polygon class="cls-2" points="74.31 63.05 74.29 42.96 70.43 42.93 70.44 36.95 81.33 36.96 81.33 63.05 74.31 63.05"/>
    </g>
  </g>
</svg>