<?xml version="1.0" encoding="utf-8"?>
<!-- Generator: Adobe Illustrator 27.2.0, SVG Export Plug-In . SVG Version: 6.00 Build 0)  -->
<svg version="1.1" id="Laag_1" xmlns="http://www.w3.org/2000/svg" xmlns:xlink="http://www.w3.org/1999/xlink" x="0px" y="0px"
	 viewBox="0 0 500 500" style="enable-background:new 0 0 500 500;" xml:space="preserve">
<style type="text/css">
	.st0{fill:#585FFF;}
	.st1{fill:#FFFFFF;}
</style>
<g>
	<g>
		<path class="st0" d="M426.66,408.15H0V165.19c0-40.44,32.9-73.34,73.34-73.34h353.31c40.44,0,73.34,32.9,73.34,73.34v169.61
			C500,375.25,467.1,408.15,426.66,408.15z"/>
	</g>
	<path class="st1" d="M262.92,206.72c-8.07-4.81-17.49-7.58-27.54-7.58c-29.75,0-53.96,24.2-53.96,53.96s24.21,53.96,53.96,53.96
		c10.06,0,19.48-2.77,27.54-7.58v6.92h26.41V199.67h-26.41V206.72z M235.37,280.64c-15.19,0-27.54-12.36-27.54-27.55
		s12.36-27.55,27.54-27.55s27.54,12.36,27.54,27.55S250.56,280.64,235.37,280.64z"/>
	<path class="st1" d="M124.92,164.74l-52.18,0V306.4h26.41v-42.91h26.31c27.32,0,49.53-22.31,49.38-49.66
		C174.68,186.58,152.17,164.74,124.92,164.74z M125.08,237.08H99.16v-45.93h26.31c12.81,0,23.2,10.54,22.96,23.41
		C148.18,227.13,137.65,237.08,125.08,237.08z"/>
	<circle class="st1" cx="430.24" cy="291.19" r="16.12"/>
	<path class="st1" d="M392.53,199.29l-31,80.19l-31.93-79.81h-28.88l42.7,106.73h7.71l-0.14,0.37
		c-4.04,10.45-14.29,17.48-25.49,17.48h-3.12v26.41h3.56c22.04,0,42.18-13.81,50.13-34.36l45.23-117H392.53z"/>
</g>
</svg>
