<?xml version="1.0" encoding="utf-8"?>
<!-- Generator: Adobe Illustrator 26.3.1, SVG Export Plug-In . SVG Version: 6.00 Build 0)  -->
<svg version="1.1" id="Laag_1" xmlns="http://www.w3.org/2000/svg" xmlns:xlink="http://www.w3.org/1999/xlink" x="0px" y="0px"
	 viewBox="0 0 1080 1080" style="enable-background:new 0 0 1080 1080;" xml:space="preserve">
<style type="text/css">
	.st0{fill:#EFEFEF;}
	.st1{fill:#020203;}
	.st2{fill:#020203;stroke:#010202;stroke-width:4;stroke-miterlimit:10;}
	.st3{fill:none;}
	.st4{fill:#020203;stroke:#020203;stroke-width:0.5;stroke-miterlimit:10;}
	.st5{fill:none;stroke:#020203;stroke-width:2;stroke-miterlimit:10;}
	.st6{fill:#020203;stroke:#020203;stroke-width:2;stroke-miterlimit:10;}
	.st7{fill:#FFFFFF;stroke:#FFFFFF;stroke-width:0.25;stroke-miterlimit:10;}
</style>
<path class="st0" d="M921,1082.17H159c-87.81,0-159-71.19-159-159V161.17c0-87.81,71.19-159,159-159H921c87.81,0,159,71.19,159,159
	v762.01C1080,1010.99,1008.81,1082.17,921,1082.17z"/>
<path class="st1" d="M759.27,539.91l-16.51,16.88h3.57v32.25H494.01v-32.25h242.23l-21.03-21.5H581.8V409.62
	c0-11.82-9.36-21.5-21.03-21.5H308.44c-11.57,0-21.03,9.67-21.03,21.5v171.99c0,11.82,9.46,21.5,21.03,21.5h164.54v125.66
	c0,11.93,9.46,21.5,21.03,21.5h252.33c11.56,0,21.03-9.57,21.03-21.5V556.78C767.36,549.9,764.21,543.78,759.27,539.91z
	 M308.44,409.62h252.33v32.25H308.44V409.62z M472.98,556.78v24.83H308.44V463.37h252.33v71.91h-66.76
	C482.44,535.28,472.98,544.96,472.98,556.78z M746.34,728.78H494.01V610.53h252.33V728.78z"/>
<rect x="329.5" y="538.62" class="st1" width="105.14" height="21.5"/>
<rect x="308.44" y="409.62" class="st3" width="252.33" height="32.25"/>
<g>
	<path class="st1" d="M672.22,495.62l19.02-19.44l34.75,35.43v-88.23H599.82v-27.5h129.16c13.25,0,24.03,10.99,24.03,24.5v91.23
		l34.75-35.43l19.02,19.44l-67.28,68.79L672.22,495.62z"/>
	<path class="st0" d="M728.99,398.87c11.67,0,21.03,9.67,21.03,21.5v98.57l37.74-38.48l0.63,0.65l14.19,14.51l-43.32,44.29
		l-16.51,16.88l-3.26,3.33l-3.26-3.33l-21.03-21.5l-38.8-39.67l14.82-15.16l37.74,38.48v-98.57H602.82v-21.5H728.99 M728.99,392.87
		H602.82h-6v6v21.5v6h6h120.16v77.89l-27.46-28l-4.29-4.37l-4.28,4.38l-14.82,15.16l-4.1,4.2l4.1,4.2l38.8,39.67l21.03,21.5
		l3.26,3.33l4.29,4.39l4.29-4.39l3.26-3.33l16.51-16.88l43.32-44.29l4.1-4.2l-4.1-4.2l-14.19-14.51l-0.63-0.64l-4.28-4.38
		l-4.29,4.37l-27.46,28v-83.89C756.02,405.21,743.89,392.87,728.99,392.87L728.99,392.87z"/>
</g>
</svg>
