<svg width="1080" height="1080" viewBox="0 0 1080 1080" fill="none" xmlns="http://www.w3.org/2000/svg">
<rect x="1" y="1" width="1078" height="1078" rx="99" fill="white" stroke="#DBDBDB" stroke-width="2"/>
<circle cx="540" cy="540" r="335" fill="#DEDFFF"/>
<path d="M834.956 501.941L811.794 525.621H816.803V570.863H462.832V525.621H802.648L773.145 495.459H585.989V319.162C585.989 302.58 572.859 289 556.487 289H202.502C186.271 289 173 302.566 173 319.162V560.44C173 577.022 186.271 590.602 202.502 590.602H433.33V766.886C433.33 783.622 446.601 797.047 462.832 797.047H816.817C833.034 797.047 846.319 783.622 846.319 766.886V525.607C846.305 515.955 841.886 507.37 834.956 501.941ZM202.502 319.162H556.487V364.404H202.502V319.162ZM433.33 525.607V560.44H202.502V394.566H556.487V495.446H462.832C446.601 495.446 433.33 509.025 433.33 525.607ZM816.817 766.9H462.832V601.011H816.817V766.9Z" fill="#585FFF"/>
<path d="M379.543 500.131H232.046V530.292H379.543V500.131Z" fill="#585FFF"/>
<path d="M712.834 439.807L739.517 412.536L788.266 462.239V338.465H611.267V299.886H792.461C811.049 299.886 826.172 315.303 826.172 334.256V462.239L874.921 412.536L901.604 439.807L807.219 536.31L712.834 439.807Z" fill="#585FFF"/>
<path d="M792.478 304.081C808.85 304.081 821.981 317.647 821.981 334.243V472.523L874.925 418.541L875.808 419.453L895.715 439.808L834.943 501.941L811.782 525.621L807.208 530.293L802.635 525.621L773.133 495.46L718.702 439.808L739.492 418.541L792.436 472.523V334.243H615.479V304.081H792.478ZM792.478 295.664H615.479H607.062V304.081V334.243V342.66H615.479H784.047V451.929L745.525 412.649L739.506 406.518L733.502 412.663L712.712 433.93L706.96 439.822L712.712 445.714L767.143 501.366L796.645 531.527L801.218 536.199L807.237 542.358L813.255 536.199L817.828 531.527L840.989 507.847L901.761 445.714L907.513 439.822L901.761 433.93L881.855 413.575L880.971 412.677L874.967 406.532L868.948 412.663L830.426 451.943V334.257C830.398 312.975 813.381 295.664 792.478 295.664Z" fill="#DEDFFF"/>
<rect x="7.5" y="7.5" width="1065" height="1065" rx="92.5" stroke="#DBDBDB" stroke-width="15"/>
</svg>
