<svg width="1080" height="1080" viewBox="0 0 1080 1080" fill="none" xmlns="http://www.w3.org/2000/svg">
<rect x="1" y="1" width="1078" height="1078" rx="99" fill="white" stroke="#DBDBDB" stroke-width="2"/>
<circle cx="540" cy="540" r="367" fill="#DEDFFF"/>
<path d="M854.143 692.443H225V734.386H854.143V692.443Z" fill="#585FFF"/>
<path d="M854.143 782.323H225V824.266H854.143V782.323Z" fill="#585FFF"/>
<path d="M719.339 422.803C694.522 422.803 674.399 442.926 674.399 467.743C674.399 492.56 694.522 512.683 719.339 512.683C744.156 512.683 764.279 492.56 764.279 467.743C764.279 442.926 744.156 422.803 719.339 422.803Z" fill="#585FFF"/>
<path d="M539.58 557.623C489.945 557.623 449.7 517.377 449.7 467.743C449.7 418.109 489.945 377.863 539.58 377.863C589.214 377.863 629.46 418.109 629.46 467.743C629.394 517.361 589.197 557.574 539.58 557.623ZM539.58 422.803C514.763 422.803 494.64 442.926 494.64 467.743C494.64 492.56 514.763 512.683 539.58 512.683C564.397 512.683 584.52 492.56 584.52 467.743C584.487 442.943 564.38 422.836 539.58 422.803Z" fill="#585FFF"/>
<path d="M359.82 422.803C335.003 422.803 314.88 442.926 314.88 467.743C314.88 492.56 335.003 512.683 359.82 512.683C384.637 512.683 404.76 492.56 404.76 467.743C404.76 442.926 384.637 422.803 359.82 422.803Z" fill="#585FFF"/>
<path d="M809.203 647.503H269.94C245.139 647.438 225.066 627.364 225 602.563V332.94C225.066 308.139 245.139 288.066 269.94 288H809.203C834.004 288.066 854.077 308.139 854.143 332.94V602.58C854.11 627.364 834.02 647.47 809.203 647.503ZM809.203 332.94H269.94V602.58H809.203V332.94Z" fill="#585FFF"/>
<rect x="7.5" y="7.5" width="1065" height="1065" rx="92.5" stroke="#DBDBDB" stroke-width="15"/>
</svg>
