<?xml version="1.0" encoding="utf-8"?>
<!-- Generator: Adobe Illustrator 26.3.1, SVG Export Plug-In . SVG Version: 6.00 Build 0)  -->
<svg version="1.1" id="Laag_1" xmlns="http://www.w3.org/2000/svg" xmlns:xlink="http://www.w3.org/1999/xlink" x="0px" y="0px"
	 viewBox="0 0 1080 1080" style="enable-background:new 0 0 1080 1080;" xml:space="preserve">
<style type="text/css">
	.st0{fill:#EFEFEF;}
	.st1{fill:#020203;}
	.st2{fill:#020203;stroke:#010202;stroke-width:4;stroke-miterlimit:10;}
	.st3{fill:none;}
	.st4{fill:#020203;stroke:#020203;stroke-width:0.5;stroke-miterlimit:10;}
	.st5{fill:none;stroke:#020203;stroke-width:2;stroke-miterlimit:10;}
	.st6{fill:#020203;stroke:#020203;stroke-width:2;stroke-miterlimit:10;}
	.st7{fill:#FFFFFF;stroke:#FFFFFF;stroke-width:0.25;stroke-miterlimit:10;}
</style>
<path class="st0" d="M921,1082.17H159c-87.81,0-159-71.19-159-159V161.17c0-87.81,71.19-159,159-159H921c87.81,0,159,71.19,159,159
	v762.01C1080,1010.99,1008.81,1082.17,921,1082.17z"/>
<rect x="348.17" y="624.31" class="st1" width="383.31" height="27.38"/>
<rect x="348.17" y="679.07" class="st1" width="383.31" height="27.38"/>
<path class="st1" d="M649.35,460.03c-15.12,0-27.38,12.26-27.38,27.38s12.26,27.38,27.38,27.38s27.38-12.26,27.38-27.38
	S664.47,460.03,649.35,460.03z"/>
<path class="st1" d="M539.83,542.17c-30.24,0-54.76-24.52-54.76-54.76s24.52-54.76,54.76-54.76s54.76,24.52,54.76,54.76
	C594.55,517.64,570.06,542.14,539.83,542.17z M539.83,460.03c-15.12,0-27.38,12.26-27.38,27.38s12.26,27.38,27.38,27.38
	s27.38-12.26,27.38-27.38C567.19,472.3,554.94,460.05,539.83,460.03z"/>
<path class="st1" d="M430.31,460.03c-15.12,0-27.38,12.26-27.38,27.38s12.26,27.38,27.38,27.38s27.38-12.26,27.38-27.38
	S445.43,460.03,430.31,460.03z"/>
<path class="st1" d="M704.1,596.93H375.55c-15.11-0.04-27.34-12.27-27.38-27.38V405.28c0.04-15.11,12.27-27.34,27.38-27.38H704.1
	c15.11,0.04,27.34,12.27,27.38,27.38v164.28C731.46,584.66,719.22,596.91,704.1,596.93z M704.1,405.28H375.55v164.28H704.1V405.28z"
	/>
</svg>
