<?xml version="1.0" encoding="utf-8"?>
<!-- Generator: Adobe Illustrator 26.3.1, SVG Export Plug-In . SVG Version: 6.00 Build 0)  -->
<svg version="1.1" id="Laag_1" xmlns="http://www.w3.org/2000/svg" xmlns:xlink="http://www.w3.org/1999/xlink" x="0px" y="0px"
	 viewBox="0 0 1080 1080" style="enable-background:new 0 0 1080 1080;" xml:space="preserve">
<style type="text/css">
	.st0{fill:#EFEFEF;}
	.st1{fill:#020203;}
	.st2{fill:#020203;stroke:#010202;stroke-width:4;stroke-miterlimit:10;}
	.st3{fill:none;}
	.st4{fill:#020203;stroke:#020203;stroke-width:0.5;stroke-miterlimit:10;}
	.st5{fill:none;stroke:#020203;stroke-width:2;stroke-miterlimit:10;}
	.st6{fill:#020203;stroke:#020203;stroke-width:2;stroke-miterlimit:10;}
	.st7{fill:#FFFFFF;stroke:#FFFFFF;stroke-width:0.25;stroke-miterlimit:10;}
</style>
<path class="st0" d="M921,1080H159c-87.81,0-159-71.19-159-159V159C0,71.19,71.19,0,159,0H921c87.81,0,159,71.19,159,159V921
	C1080,1008.81,1008.81,1080,921,1080z"/>
<g>
	<path class="st1" d="M675.26,411.89h-335.5c-15.44,0-27.96,12.52-27.96,27.96v223.67c0,15.44,12.52,27.96,27.96,27.96h335.5
		c15.44,0,27.96-12.52,27.96-27.96V439.85C703.22,424.4,690.7,411.89,675.26,411.89z M675.26,439.85v41.94h-335.5v-41.94H675.26z
		 M339.76,663.51V509.74h335.5v153.77H339.76z"/>
	<path class="st1" d="M415.52,586.63c-4.2,0-8.35,0.87-12.2,2.56c2.46,1.08,4.76,2.47,6.85,4.15c13.15-2.99,26.23,5.24,29.22,18.39
		c2.99,13.15-5.24,26.23-18.39,29.22c-3.56,0.81-7.26,0.81-10.83,0c-2.09,1.68-4.39,3.07-6.85,4.15
		c15.44,6.74,33.42-0.32,40.16-15.76c6.74-15.44-0.32-33.42-15.76-40.16C423.87,587.5,419.72,586.63,415.52,586.63z"/>
	<path class="st1" d="M391.11,617.15c0.02,11.41,7.93,21.29,19.07,23.8c13.15-10.51,15.29-29.68,4.78-42.83
		c-1.41-1.77-3.01-3.37-4.78-4.78C399.04,595.86,391.13,605.74,391.11,617.15z"/>
	<path id="inner-path" class="st3" d="M391.11,617.15c0.02-11.41,7.93-21.29,19.07-23.8c-2.09-1.68-4.39-3.07-6.85-4.15
		c-15.44,6.72-22.5,24.68-15.78,40.12c3.08,7.07,8.72,12.71,15.78,15.78c2.46-1.08,4.76-2.47,6.85-4.15
		C399.04,638.44,391.13,628.56,391.11,617.15z"/>
	<path class="st1" d="M385.01,617.15c0.02-12.13,7.2-23.1,18.32-27.95c-15.44-6.76-33.43,0.28-40.19,15.71
		c-6.76,15.44,0.28,33.43,15.71,40.19c7.8,3.42,16.67,3.42,24.47,0C392.21,640.25,385.02,629.28,385.01,617.15z"/>
</g>
</svg>
