<svg width="1080" height="1080" viewBox="0 0 1080 1080" fill="none" xmlns="http://www.w3.org/2000/svg">
<rect x="1" y="1" width="1078" height="1078" rx="99" fill="white" stroke="#DBDBDB" stroke-width="2"/>
<circle cx="540" cy="540" r="367" fill="#DEDFFF"/>
<path fill-rule="evenodd" clip-rule="evenodd" d="M227.979 405.05L738.3 289.293L731.228 258.093C729.264 249.213 720.308 243.633 711.507 245.598L233.243 353.34C224.364 355.305 218.785 364.186 220.749 373.066C223.184 383.674 225.542 394.441 227.979 405.05ZM223.736 325.049L708.051 216.05C731.15 210.863 754.171 225.401 759.358 248.506L810.115 472.87H779.787L756.764 371.258L246.442 487.016L278.028 626.35L280.857 638.688C281.957 643.64 286.907 646.861 291.935 645.682L295.706 644.818V674.524L295.156 674.688C275.985 679.01 256.892 666.829 252.492 647.733L191.128 376.452C188.535 364.899 190.421 354.055 196.706 343.996C202.992 333.936 212.185 327.649 223.734 325.056L223.736 325.049ZM349.449 480.964C325.8 480.964 306.549 500.298 306.549 523.952V803.092C306.549 826.746 325.8 846 349.449 846H846.023C869.672 846 889 826.668 889 803.092V523.952C889 500.298 869.672 480.964 846.023 480.964H349.449ZM835.572 605.918C835.572 586.978 835.572 568.039 835.572 549.099C835.572 545.406 832.664 542.499 828.972 542.499C786.622 542.499 744.272 542.499 701.922 542.499C698.307 542.499 695.322 545.484 695.322 549.099C695.322 568.039 695.322 586.978 695.322 605.918C695.322 609.533 698.307 612.519 701.922 612.519C744.272 612.519 786.622 612.519 828.972 612.519C832.507 612.519 835.572 609.611 835.572 605.918ZM741.915 778.179C738.222 778.179 735.235 775.193 735.235 771.578V758.376C735.235 754.76 738.222 751.774 741.915 751.774H828.893C832.508 751.774 835.493 754.76 835.493 758.376V771.578C835.493 775.193 832.508 778.179 828.893 778.179H741.915ZM620.522 778.179C616.907 778.179 613.922 775.193 613.922 771.578V758.454C613.922 754.76 616.907 751.853 620.522 751.853H707.579C711.193 751.853 714.179 754.839 714.179 758.454V771.578C714.179 775.193 711.193 778.179 707.579 778.179H620.522ZM499.206 778.179C495.592 778.179 492.607 775.193 492.607 771.578V758.454C492.607 754.76 495.592 751.853 499.206 751.853H586.265C589.878 751.853 592.864 754.839 592.864 758.454V771.578C592.864 775.193 589.878 778.179 586.265 778.179H499.206ZM377.892 778.179C374.279 778.179 371.292 775.193 371.292 771.578V758.454C371.292 754.76 374.279 751.853 377.892 751.853H464.95C468.564 751.853 471.549 754.839 471.549 758.454V771.578C471.549 775.193 468.564 778.179 464.95 778.179H377.892Z" fill="#585FFF"/>
<rect x="7.5" y="7.5" width="1065" height="1065" rx="92.5" stroke="#DBDBDB" stroke-width="15"/>
</svg>
