<?xml version="1.0" encoding="utf-8"?>
<!-- Generator: Adobe Illustrator 26.3.1, SVG Export Plug-In . SVG Version: 6.00 Build 0)  -->
<svg version="1.1" id="Laag_1" xmlns="http://www.w3.org/2000/svg" xmlns:xlink="http://www.w3.org/1999/xlink" x="0px" y="0px"
	 viewBox="0 0 1080 1080" style="enable-background:new 0 0 1080 1080;" xml:space="preserve">
<style type="text/css">
	.st0{fill:#EFEFEF;}
	.st1{fill:#020203;}
	.st2{fill:#020203;stroke:#010202;stroke-width:4;stroke-miterlimit:10;}
	.st3{fill:none;}
	.st4{fill:#020203;stroke:#020203;stroke-width:0.5;stroke-miterlimit:10;}
	.st5{fill:none;stroke:#020203;stroke-width:2;stroke-miterlimit:10;}
	.st6{fill:#020203;stroke:#020203;stroke-width:2;stroke-miterlimit:10;}
	.st7{fill:#FFFFFF;stroke:#FFFFFF;stroke-width:0.25;stroke-miterlimit:10;}
</style>
<path class="st0" d="M921,1082.17H159c-87.81,0-159-71.19-159-159V161.17c0-87.81,71.19-159,159-159H921c87.81,0,159,71.19,159,159
	v762.01C1080,1010.99,1008.81,1082.17,921,1082.17z"/>
<path class="st1" d="M716.57,552.91c-7.53-6.87-17.76-10.73-28.44-10.74H688c-10.72-0.03-21.01,3.84-28.57,10.74l-66.02,59.89
	c-1.51-19.1-19-33.91-40.11-33.97h-94.29c-37.18,0.04-67.31,27.37-67.35,61.09v8.15l-40.41,48.83l21.55,14.66l45.8-55.35v-16.29
	c0.02-20.24,18.1-36.63,40.41-36.66h94.29c7.44,0,13.47,5.47,13.47,12.22s-6.03,12.22-13.47,12.22h-53.88v24.44h66.39
	c14.3,0.04,28.02-5.12,38.1-14.32l74.57-67.63c2.52-2.3,5.95-3.59,9.52-3.58h0.05c7.44,0.02,13.45,5.51,13.42,12.26
	c-0.01,3.22-1.43,6.31-3.94,8.59l-99.87,90.59c-7.56,6.9-17.85,10.77-28.58,10.74h-96.6v24.44h96.6c17.87,0.04,35.02-6.4,47.62-17.9
	l99.87-90.59c15.78-14.31,15.79-37.51,0.02-51.82C716.58,552.92,716.58,552.92,716.57,552.91z"/>
<polygon class="st1" points="615.07,451.58 566.77,493.3 566.77,371.11 539.83,371.11 539.83,493.3 491.52,451.58 472.48,468.86 
	553.3,542.17 634.12,468.86 "/>
</svg>
