<svg width="1080" height="1080" viewBox="0 0 1080 1080" fill="none" xmlns="http://www.w3.org/2000/svg">
<rect x="1" y="1" width="1078" height="1078" rx="99" fill="white" stroke="#DBDBDB" stroke-width="2"/>
<circle cx="540" cy="540" r="357" fill="#DEDFFF"/>
<path d="M249.047 324.239H624.624L624.624 420.239C624.624 420.24 624.624 420.24 624.624 420.241C624.475 430.19 632.458 438.333 642.427 438.333C652.376 438.333 660.407 430.191 660.229 420.24C660.229 420.239 660.229 420.239 660.229 420.238L660.229 324.239H830.916C854.046 324.239 871.655 341.64 871.655 363.391V703.195C871.655 724.946 854.045 742.393 830.916 742.393H660.229V648.823C660.323 638.817 652.18 630.673 642.172 630.824C632.372 630.974 624.521 639.004 624.634 648.824V742.402H249.057C225.983 742.402 208.354 724.955 208.354 703.204V551.072L378.043 551.072C378.044 551.072 378.044 551.072 378.045 551.072C387.995 551.268 396.138 543.275 396.138 533.316C396.138 523.367 387.997 515.327 378.046 515.514H208.345V363.4C208.345 341.64 225.973 324.239 249.047 324.239ZM249.047 288.644C207.378 288.644 172.75 322.007 172.75 363.391V703.195C172.75 744.569 207.388 777.932 249.047 777.932H830.916C872.622 777.932 907.25 744.569 907.25 703.195V363.4C907.25 322.016 872.612 288.653 830.916 288.653L249.047 288.644Z" fill="#585FFF" stroke="#585FFF" stroke-width="0.5"/>
<path d="M764.726 447.309C766.323 447.309 767.882 447.42 769.367 447.661C781.406 449.388 793.639 459.412 801.418 473.419C809.252 487.444 811.387 504.263 807.906 514.464C804.369 524.609 798.512 531.487 776.087 531.375L678.431 530.8C693.19 512.097 707.837 493.579 722.521 474.922C739.6 453.258 753.467 447.262 764.726 447.309ZM520.202 447.309C531.479 447.262 545.291 453.268 562.407 474.932C577.054 493.588 591.701 512.106 606.459 530.809L508.85 531.394C486.369 531.505 480.512 524.627 477.031 514.482C473.495 504.281 475.639 487.462 483.464 473.437C491.298 459.422 503.476 449.397 515.514 447.68C517.018 447.411 518.605 447.309 520.202 447.309ZM520.406 412.316C517.12 412.251 513.788 412.51 510.539 412.993C484.429 416.762 464.621 435.084 452.759 456.303C440.924 477.475 435.903 502.768 443.876 525.918C451.849 549.03 476.168 566.628 509.035 566.48L588.276 565.997C565.164 586.826 546.794 610.746 533.549 635.807C522.634 656.496 553.672 672.888 564.588 652.199C581.175 620.77 607.48 590.994 642.436 568.856C677.429 591.003 703.734 620.779 720.358 652.199C724.563 661.323 735.59 665.064 744.491 660.321C753.393 655.615 756.474 644.411 751.304 635.807C738.05 610.755 719.69 586.835 696.578 565.997L775.911 566.48C808.741 566.628 833.106 549.03 841.08 525.918C849.053 502.768 843.985 477.475 832.141 456.303C820.344 435.084 800.471 416.762 774.361 412.993C748.306 409.16 719.393 422.173 694.972 453.212C677.475 475.452 654.707 504.309 642.473 519.884C630.202 504.309 607.48 475.452 589.974 453.212C568.616 426.09 543.759 412.705 520.415 412.362L520.406 412.316Z" fill="#585FFF"/>
<rect x="7.5" y="7.5" width="1065" height="1065" rx="92.5" stroke="#DBDBDB" stroke-width="15"/>
</svg>
