<svg width="1080" height="1080" viewBox="0 0 1080 1080" fill="none" xmlns="http://www.w3.org/2000/svg">
<rect x="1" y="1" width="1078" height="1078" rx="99" fill="white" stroke="#DBDBDB" stroke-width="2"/>
<circle cx="540" cy="540" r="367" fill="#DEDFFF"/>
<path d="M818.618 612.156L695.035 539.036C691.794 537.118 688.181 536.166 684.553 536.166C680.925 536.166 677.297 537.118 674.071 539.05L550.488 612.171C544.229 615.858 540.378 622.594 540.378 629.879V772.002C540.378 779.287 544.229 786.022 550.488 789.709L674.071 862.83C677.312 864.763 680.925 865.714 684.553 865.714C688.181 865.714 691.809 864.763 695.035 862.83L818.618 789.709C824.877 786.022 828.728 779.287 828.728 772.002V629.879C828.728 622.594 824.877 615.858 818.618 612.156ZM787.544 760.271L684.553 821.2L581.562 760.271V641.624L684.553 580.696L787.544 641.624V760.271Z" fill="#585FFF"/>
<path d="M334.398 391.991C345.771 391.991 354.99 382.772 354.99 371.399C354.99 360.026 345.771 350.807 334.398 350.807C323.025 350.807 313.806 360.026 313.806 371.399C313.806 382.772 323.025 391.991 334.398 391.991Z" fill="#585FFF"/>
<path d="M396.191 391.991C407.564 391.991 416.783 382.772 416.783 371.399C416.783 360.026 407.564 350.807 396.191 350.807C384.818 350.807 375.599 360.026 375.599 371.399C375.599 382.772 384.818 391.991 396.191 391.991Z" fill="#585FFF"/>
<path d="M787.545 289H293.199C270.481 289 252 307.481 252 330.199V742.147C252 764.865 270.481 783.346 293.199 783.346H478.573V742.147H293.199V453.782H787.545V536.165H828.744V330.199C828.73 307.481 810.263 289 787.545 289ZM293.199 412.583V330.199H787.545V412.583H293.199Z" fill="#585FFF"/>
<path d="M687.175 749.952C669.378 749.952 656.012 738.653 650.54 720.424H697.018V710.582H648.459C648.028 707.326 647.805 704.025 647.805 700.739C647.805 699.119 647.849 697.468 647.938 695.818H697.018V685.975H648.979C651.968 668.03 661.647 651.526 687.175 651.526C706.132 651.526 714.398 659.629 722.249 673.62L730.827 668.803C722.918 654.723 712.153 641.684 687.175 641.684C655.908 641.684 637.962 663.212 637.962 700.739C637.962 735.501 658.197 759.795 687.175 759.795C712.168 759.795 722.918 746.756 730.827 732.676L722.249 727.858C714.383 741.849 706.132 749.952 687.175 749.952Z" fill="#585FFF" stroke="#585FFF" stroke-width="8" stroke-miterlimit="10"/>
<rect x="7.5" y="7.5" width="1065" height="1065" rx="92.5" stroke="#DBDBDB" stroke-width="15"/>
</svg>
