<?xml version="1.0" encoding="utf-8"?>
<!-- Generator: Adobe Illustrator 26.3.1, SVG Export Plug-In . SVG Version: 6.00 Build 0)  -->
<svg version="1.1" id="Laag_1" xmlns="http://www.w3.org/2000/svg" xmlns:xlink="http://www.w3.org/1999/xlink" x="0px" y="0px"
	 viewBox="0 0 1080 1080" style="enable-background:new 0 0 1080 1080;" xml:space="preserve">
<style type="text/css">
	.st0{fill:#EFEFEF;}
	.st1{fill:#020203;}
	.st2{fill:#020203;stroke:#010202;stroke-width:4;stroke-miterlimit:10;}
	.st3{fill:none;}
	.st4{fill:#020203;stroke:#020203;stroke-width:0.5;stroke-miterlimit:10;}
	.st5{fill:none;stroke:#020203;stroke-width:2;stroke-miterlimit:10;}
	.st6{fill:#020203;stroke:#020203;stroke-width:2;stroke-miterlimit:10;}
	.st7{fill:#FFFFFF;stroke:#FFFFFF;stroke-width:0.25;stroke-miterlimit:10;}
</style>
<path class="st0" d="M921,1080H159c-87.81,0-159-71.19-159-159V159C0,71.19,71.19,0,159,0H921c87.81,0,159,71.19,159,159V921
	C1080,1008.81,1008.81,1080,921,1080z"/>
<path class="st1" d="M713.28,568.03l-83.12-49.18c-2.18-1.29-4.61-1.93-7.05-1.93s-4.88,0.64-7.05,1.94l-83.12,49.18
	c-4.21,2.48-6.8,7.01-6.8,11.91v95.59c0,4.9,2.59,9.43,6.8,11.91l83.12,49.18c2.18,1.3,4.61,1.94,7.05,1.94s4.88-0.64,7.05-1.94
	l83.12-49.18c4.21-2.48,6.8-7.01,6.8-11.91v-95.59C720.08,575.05,717.49,570.52,713.28,568.03z M692.38,667.65l-69.27,40.98
	l-69.27-40.98v-79.8l69.27-40.98l69.27,40.98V667.65z"/>
<circle class="st1" cx="387.6" cy="406.1" r="13.85"/>
<circle class="st1" cx="429.16" cy="406.1" r="13.85"/>
<path class="st1" d="M692.38,350.68H359.89c-15.28,0-27.71,12.43-27.71,27.71v277.07c0,15.28,12.43,27.71,27.71,27.71h124.68v-27.71
	H359.89V461.51h332.49v55.41h27.71V378.39C720.08,363.11,707.66,350.68,692.38,350.68z M359.89,433.8v-55.41h332.49v55.41H359.89z"
	/>
<path class="st2" d="M624.98,660.85c-11.97,0-20.96-7.6-24.64-19.86h31.26v-6.62h-32.66c-0.29-2.19-0.44-4.41-0.44-6.62
	c0-1.09,0.03-2.2,0.09-3.31h33.01v-6.62h-32.31c2.01-12.07,8.52-23.17,25.69-23.17c12.75,0,18.31,5.45,23.59,14.86l5.77-3.24
	c-5.32-9.47-12.56-18.24-29.36-18.24c-21.03,0-33.1,14.48-33.1,39.72c0,23.38,13.61,39.72,33.1,39.72
	c16.81,0,24.04-8.77,29.36-18.24l-5.77-3.24C643.28,655.4,637.73,660.85,624.98,660.85z"/>
<rect id="_Transparent_Rectangle_" x="570.15" y="574.8" class="st3" width="105.91" height="133.83"/>
</svg>
