<?xml version="1.0" encoding="utf-8"?>
<!-- Generator: Adobe Illustrator 26.3.1, SVG Export Plug-In . SVG Version: 6.00 Build 0)  -->
<svg version="1.1" id="Laag_1" xmlns="http://www.w3.org/2000/svg" xmlns:xlink="http://www.w3.org/1999/xlink" x="0px" y="0px"
	 viewBox="0 0 1080 1080" style="enable-background:new 0 0 1080 1080;" xml:space="preserve">
<style type="text/css">
	.st0{fill:#EFEFEF;}
	.st1{fill:#020203;}
	.st2{fill:#020203;stroke:#010202;stroke-width:4;stroke-miterlimit:10;}
	.st3{fill:none;}
	.st4{fill:#020203;stroke:#020203;stroke-width:0.5;stroke-miterlimit:10;}
	.st5{fill:none;stroke:#020203;stroke-width:2;stroke-miterlimit:10;}
	.st6{fill:#020203;stroke:#020203;stroke-width:2;stroke-miterlimit:10;}
	.st7{fill:#FFFFFF;stroke:#FFFFFF;stroke-width:0.25;stroke-miterlimit:10;}
</style>
<path class="st0" d="M921,1082.17H159c-87.81,0-159-71.19-159-159V161.17c0-87.81,71.19-159,159-159H921c87.81,0,159,71.19,159,159
	v762.01C1080,1010.99,1008.81,1082.17,921,1082.17z"/>
<path class="st1" d="M527.39,454.13c61.25,0,111.37,50.11,111.37,111.37s-50.11,111.37-111.37,111.37s-111.37-50.11-111.37-111.37
	S466.14,454.13,527.39,454.13 M527.39,435.57c-71.46,0-129.93,58.47-129.93,129.93s58.47,129.93,129.93,129.93
	s129.93-58.47,129.93-129.93S598.85,435.57,527.39,435.57z"/>
<polygon class="st1" points="601.63,556.21 536.67,556.21 536.67,491.25 518.11,491.25 518.11,556.21 453.15,556.21 453.15,574.77 
	518.11,574.77 518.11,639.74 536.67,639.74 536.67,574.77 601.63,574.77 "/>
<rect id="_Transparent_Rectangle__00000041267198151580733280000008571960904728259992_" x="378.9" y="417.01" class="st3" width="296.97" height="296.97"/>
</svg>
