<?xml version="1.0" encoding="utf-8"?>
<!-- Generator: Adobe Illustrator 26.3.1, SVG Export Plug-In . SVG Version: 6.00 Build 0)  -->
<svg version="1.1" id="Laag_1" xmlns="http://www.w3.org/2000/svg" xmlns:xlink="http://www.w3.org/1999/xlink" x="0px" y="0px"
	 viewBox="0 0 1080 1080" style="enable-background:new 0 0 1080 1080;" xml:space="preserve">
<style type="text/css">
	.st0{fill:#EFEFEF;}
	.st1{fill:#020203;}
	.st2{fill:#020203;stroke:#010202;stroke-width:4;stroke-miterlimit:10;}
	.st3{fill:none;}
	.st4{fill:#020203;stroke:#020203;stroke-width:0.5;stroke-miterlimit:10;}
	.st5{fill:none;stroke:#020203;stroke-width:2;stroke-miterlimit:10;}
	.st6{fill:#020203;stroke:#020203;stroke-width:2;stroke-miterlimit:10;}
	.st7{fill:#FFFFFF;stroke:#FFFFFF;stroke-width:0.25;stroke-miterlimit:10;}
</style>
<path class="st0" d="M921,1082.17H159c-87.81,0-159-71.19-159-159V161.17c0-87.81,71.19-159,159-159H921c87.81,0,159,71.19,159,159
	v762.01C1080,1010.99,1008.81,1082.17,921,1082.17z"/>
<g>
	<circle class="st1" cx="471.6" cy="716.12" r="21.1"/>
	<path class="st1" d="M563.05,793.5h-182.9c-15.53-0.02-28.12-12.61-28.14-28.14V427.69c0.02-15.53,12.61-28.12,28.14-28.14h182.9
		v28.14h-182.9v337.66h182.9v-56.28h28.14v56.28C591.17,780.89,578.58,793.48,563.05,793.5z"/>
	<path class="st6" d="M567.24,616.75c-17.71,0-31.01-11.25-36.46-29.38h46.25v-9.79h-48.32c-0.43-3.25-0.65-6.52-0.65-9.79
		c0-1.62,0.05-3.25,0.13-4.9h48.84v-9.79h-47.81c2.98-17.86,12.6-34.28,38.01-34.28c18.87,0,27.09,8.06,34.9,21.98l8.54-4.79
		c-7.87-14.02-18.58-26.98-43.44-26.98c-31.12,0-48.97,21.42-48.97,58.76c0,34.6,20.14,58.76,48.97,58.76
		c24.86,0,35.57-12.97,43.44-26.98l-8.54-4.79C594.33,608.69,586.11,616.75,567.24,616.75z"/>
	<path class="st1" d="M569,689.24c-66.97,0-121.44-54.48-121.44-121.45c0-66.97,54.48-121.45,121.44-121.45
		s121.44,54.48,121.44,121.45C690.44,634.76,635.97,689.24,569,689.24z M569,474.48c-51.45,0-93.31,41.86-93.31,93.31
		c0,51.45,41.86,93.31,93.31,93.31c51.45,0,93.31-41.86,93.31-93.31C662.31,516.34,620.45,474.48,569,474.48z"/>
</g>
</svg>
