<svg width="1080" height="1080" viewBox="0 0 1080 1080" fill="none" xmlns="http://www.w3.org/2000/svg">
<rect x="1" y="1" width="1078" height="1078" rx="99" fill="white" stroke="#DBDBDB" stroke-width="2"/>
<circle cx="540" cy="540" r="367" fill="#DEDFFF"/>
<path d="M464.756 802.198C482.467 802.198 496.824 787.841 496.824 770.13C496.824 752.419 482.467 738.062 464.756 738.062C447.045 738.062 432.688 752.419 432.688 770.13C432.688 787.841 447.045 802.198 464.756 802.198Z" fill="#585FFF"/>
<path d="M603.744 887.734H325.768C302.165 887.704 283.03 868.569 283 844.966V331.768C283.03 308.165 302.165 289.03 325.768 289H603.744V331.768H325.768V844.951H603.744V759.416H646.511V844.951C646.481 868.569 627.346 887.704 603.744 887.734Z" fill="#585FFF"/>
<path d="M616.527 619.273C589.611 619.273 569.397 602.175 561.114 574.621H631.406V559.741H557.968C557.315 554.802 556.98 549.832 556.98 544.862C556.98 542.4 557.056 539.923 557.178 537.415H631.406V522.536H558.743C563.272 495.392 577.893 470.437 616.512 470.437C645.191 470.437 657.684 482.686 669.553 503.842L682.533 496.562C670.572 475.255 654.294 455.558 616.512 455.558C569.215 455.558 542.086 488.112 542.086 544.862C542.086 597.448 572.695 634.167 616.512 634.167C654.294 634.167 670.572 614.455 682.533 593.162L669.553 585.882C657.699 607.023 645.206 619.273 616.527 619.273Z" fill="#585FFF" stroke="#585FFF" stroke-width="10" stroke-miterlimit="10"/>
<path d="M612.789 729.277C511.006 729.277 428.222 646.477 428.222 544.695C428.222 442.912 511.022 360.112 612.789 360.112C714.556 360.112 797.356 442.912 797.356 544.695C797.356 646.477 714.571 729.277 612.789 729.277ZM612.789 402.88C534.594 402.88 470.974 466.5 470.974 544.695C470.974 622.89 534.594 686.51 612.789 686.51C690.984 686.51 754.604 622.89 754.604 544.695C754.604 466.5 690.984 402.88 612.789 402.88Z" fill="#585FFF"/>
<rect x="7.5" y="7.5" width="1065" height="1065" rx="92.5" stroke="#DBDBDB" stroke-width="15"/>
</svg>
