<svg width="1080" height="1080" viewBox="0 0 1080 1080" fill="none" xmlns="http://www.w3.org/2000/svg">
<rect x="1" y="1" width="1078" height="1078" rx="99" fill="white" stroke="#DBDBDB" stroke-width="2"/>
<circle cx="529" cy="540.463" r="356" fill="#DEDFFF"/>
<path d="M761.148 735.936C742.876 735.936 729.141 724.322 723.516 705.607L771.258 705.607L771.258 695.497L721.381 695.497C720.938 692.141 720.71 688.771 720.71 685.388C720.71 683.723 720.764 682.031 720.844 680.34L771.258 680.34L771.258 670.217L721.905 670.217C724.979 651.783 734.914 634.84 761.148 634.84C780.629 634.84 789.114 643.164 797.183 657.53L805.99 652.589C797.867 638.116 786.818 624.731 761.148 624.73C729.021 624.73 710.601 646.843 710.601 685.388C710.601 721.1 731.384 746.045 761.148 746.045C786.818 746.045 797.868 732.66 805.99 718.187L797.183 713.246C789.114 727.612 780.629 735.936 761.148 735.936Z" fill="#585FFF" stroke="#585FFF" stroke-width="8" stroke-miterlimit="10"/>
<path d="M574.049 750.499C588.081 743.956 594.151 727.277 587.608 713.245C581.065 699.214 564.386 693.143 550.355 699.686C536.323 706.229 530.252 722.908 536.795 736.94C543.339 750.971 560.018 757.042 574.049 750.499Z" fill="#585FFF"/>
<path d="M438.908 638.271C452.94 631.728 459.011 615.049 452.468 601.018C445.925 586.986 429.246 580.915 415.214 587.458C401.182 594.001 395.112 610.681 401.655 624.712C408.198 638.744 424.877 644.814 438.908 638.271Z" fill="#585FFF"/>
<path d="M506.924 606.554C520.956 600.011 527.026 583.332 520.483 569.3C513.94 555.268 497.261 549.198 483.23 555.741C469.198 562.284 463.127 578.963 469.67 592.994C476.214 607.026 492.893 613.097 506.924 606.554Z" fill="#585FFF"/>
<path d="M574.657 574.967C588.688 568.424 594.759 551.745 588.216 537.713C581.673 523.681 564.994 517.611 550.962 524.154C536.931 530.697 530.86 547.376 537.403 561.407C543.946 575.439 560.625 581.51 574.657 574.967Z" fill="#585FFF"/>
<path d="M472.463 710.244C486.495 703.701 492.565 687.022 486.022 672.99C479.479 658.959 462.8 652.888 448.769 659.431C434.737 665.974 428.666 682.653 435.21 696.685C441.753 710.716 458.432 716.787 472.463 710.244Z" fill="#585FFF"/>
<path d="M540.48 678.526C554.511 671.983 560.582 655.304 554.039 641.273C547.496 627.241 530.817 621.17 516.785 627.713C502.754 634.256 496.683 650.935 503.226 664.967C509.769 678.999 526.448 685.069 540.48 678.526Z" fill="#585FFF"/>
<path d="M608.226 646.939C622.257 640.396 628.328 623.717 621.785 609.686C615.242 595.654 598.563 589.583 584.531 596.126C570.5 602.669 564.429 619.348 570.972 633.38C577.515 647.412 594.194 653.482 608.226 646.939Z" fill="#585FFF"/>
<path d="M531.868 295.744C523.412 289.999 513.44 288.057 504.115 289.724C501.595 290.07 499.233 290.756 496.799 291.699L274.432 395.39C271.39 396.809 268.489 398.561 266.015 400.752C253.516 411.528 249.097 429.469 256.36 445.044L445.881 851.473C454.568 870.102 476.912 878.245 495.54 869.558L664.052 790.98L648.256 757.104L479.744 835.683L290.223 429.253L510.387 326.589L641.694 608.177L666.212 572.346L543.223 308.596C540.687 303.601 536.964 299.145 531.868 295.744Z" fill="#585FFF"/>
<path d="M424.343 180.954L233.989 269.717C220.775 275.879 215.092 291.521 221.248 304.723L266.022 400.739C268.508 398.543 271.397 396.796 274.451 395.371L289.357 388.421L245.134 293.585L376.035 232.545L420.258 327.381L444.131 316.248L399.908 221.412L435.475 204.827L479.698 299.663L496.806 291.686C499.258 290.75 501.619 290.064 504.133 289.706L459.36 193.69C453.192 180.493 437.545 174.798 424.343 180.954Z" fill="#585FFF"/>
<path d="M518.882 389.023L547.075 449.485C554.497 465.4 547.627 484.277 531.711 491.698L402.659 551.876C386.744 559.298 367.867 552.427 360.446 536.512L332.252 476.05C324.83 460.134 331.701 441.258 347.616 433.836L476.656 373.664C492.583 366.237 511.46 373.107 518.882 389.023Z" fill="#585FFF"/>
<path d="M896.251 593.686L769.298 518.583C765.968 516.609 762.249 515.643 758.53 515.643C754.798 515.643 751.079 516.609 747.749 518.596L704.774 544.025L667.41 566.137L620.796 593.713C614.365 597.499 610.418 604.427 610.418 611.918L610.418 757.909C610.418 765.401 614.379 772.315 620.796 776.115L747.75 851.218C751.079 853.205 754.798 854.185 758.53 854.185C762.249 854.185 765.968 853.205 769.298 851.218L896.251 776.115C902.682 772.329 906.643 765.401 906.643 757.91L906.643 611.905C906.643 604.413 902.669 597.499 896.251 593.686ZM864.325 745.84L758.53 808.417L652.736 745.84L652.736 623.975L667.41 615.288L704.774 593.176L758.517 561.384L864.311 623.975L864.311 745.84L864.325 745.84Z" fill="#585FFF"/>
<rect x="7.5" y="7.5" width="1065" height="1065" rx="92.5" stroke="#DBDBDB" stroke-width="15"/>
</svg>
