<?xml version="1.0" encoding="utf-8"?>
<!-- Generator: Adobe Illustrator 26.3.1, SVG Export Plug-In . SVG Version: 6.00 Build 0)  -->
<svg version="1.1" id="Laag_1" xmlns="http://www.w3.org/2000/svg" xmlns:xlink="http://www.w3.org/1999/xlink" x="0px" y="0px"
	 viewBox="0 0 1080 1080" style="enable-background:new 0 0 1080 1080;" xml:space="preserve">
<style type="text/css">
	.st0{fill:#EFEFEF;}
	.st1{fill:#020203;}
	.st2{fill:#020203;stroke:#010202;stroke-width:4;stroke-miterlimit:10;}
	.st3{fill:none;}
	.st4{fill:#020203;stroke:#020203;stroke-width:0.5;stroke-miterlimit:10;}
	.st5{fill:none;stroke:#020203;stroke-width:2;stroke-miterlimit:10;}
	.st6{fill:#020203;stroke:#020203;stroke-width:2;stroke-miterlimit:10;}
	.st7{fill:#FFFFFF;stroke:#FFFFFF;stroke-width:0.25;stroke-miterlimit:10;}
</style>
<path class="st0" d="M921,1080H159c-87.81,0-159-71.19-159-159V159C0,71.19,71.19,0,159,0H921c87.81,0,159,71.19,159,159V921
	C1080,1008.81,1008.81,1080,921,1080z"/>
<path class="st2" d="M605.72,754.95c-13.61,0-23.84-8.65-28.03-22.59h35.56v-7.53H576.1c-0.33-2.5-0.5-5.01-0.5-7.53
	c0-1.24,0.04-2.5,0.1-3.76h37.55V706h-36.76c2.29-13.73,9.69-26.35,29.23-26.35c14.51,0,20.83,6.2,26.84,16.9l6.56-3.68
	c-6.05-10.78-14.28-20.75-33.4-20.75c-23.93,0-37.65,16.47-37.65,45.18c0,26.6,15.48,45.18,37.65,45.18
	c19.12,0,27.35-9.97,33.4-20.75l-6.56-3.68C626.55,748.75,620.23,754.95,605.72,754.95z"/>
<circle class="st1" cx="450.96" cy="685.93" r="20.88"/>
<circle class="st1" cx="395.06" cy="567.63" r="20.88"/>
<circle class="st1" cx="450.96" cy="567.63" r="20.88"/>
<circle class="st1" cx="506.63" cy="567.63" r="20.88"/>
<circle class="st1" cx="395.06" cy="626.78" r="20.88"/>
<circle class="st1" cx="450.96" cy="626.78" r="20.88"/>
<circle class="st1" cx="506.63" cy="626.78" r="20.88"/>
<path class="st3" d="M529.18,549.25H372.74c-4.59,0-8.91-1.67-12.25-4.31v189.7h180.93v-189.7
	C538.08,547.58,533.77,549.25,529.18,549.25z M529.18,549.25H372.74c-4.59,0-8.91-1.67-12.25-4.31v189.7h180.93v-189.7
	C538.08,547.58,533.77,549.25,529.18,549.25z M529.18,549.25H372.74c-4.59,0-8.91-1.67-12.25-4.31v189.7h180.93v-189.7
	C538.08,547.58,533.77,549.25,529.18,549.25z M529.18,549.25H372.74c-4.59,0-8.91-1.67-12.25-4.31v189.7h180.93v-189.7
	C538.08,547.58,533.77,549.25,529.18,549.25z"/>
<path class="st1" d="M565.64,386.55c-3.9-6.54-10.02-10.99-16.84-12.8c-1.81-0.56-3.62-0.84-5.56-0.97H360.49
	c-2.5,0-5.01,0.27-7.37,0.97c-11.83,3.34-20.46,14.06-20.46,26.86v334.02c0,15.31,12.52,27.84,27.83,27.84h138.49v-27.84H360.49
	V400.61h180.94v231.42l27.83-16.47V398.8C569.12,394.63,568.01,390.45,565.64,386.55z"/>
<path class="st1" d="M529.18,275.21H372.74c-10.86,0-19.62,8.77-19.62,19.62v78.91c2.37-0.7,4.87-0.97,7.38-0.97h12.25v-77.94
	h107.58v77.94h19.62v-77.94h29.23v77.94h14.06c1.95,0.14,3.76,0.42,5.57,0.97v-78.91C548.8,283.98,540.03,275.21,529.18,275.21z"/>
<path class="st1" d="M527.51,445.43v49.69c0,13.08-10.58,23.66-23.66,23.66H397.79c-13.08,0-23.66-10.58-23.66-23.66v-49.69
	c0-13.08,10.58-23.66,23.66-23.66h106.05C516.93,421.77,527.51,432.35,527.51,445.43z"/>
<path class="st1" d="M711.87,652.56l-94.56-55.94c-2.48-1.47-5.25-2.19-8.02-2.19c-2.78,0-5.55,0.72-8.03,2.2l-32.01,18.94
	l-27.83,16.47l-34.72,20.54c-4.79,2.82-7.73,7.98-7.73,13.56v108.74c0,5.58,2.95,10.73,7.73,13.56l94.56,55.94
	c2.48,1.48,5.25,2.21,8.03,2.21c2.77,0,5.54-0.73,8.02-2.21l94.56-55.94c4.79-2.82,7.74-7.98,7.74-13.56V666.13
	C719.61,660.55,716.65,655.4,711.87,652.56z M688.09,765.89l-78.8,46.61l-78.8-46.61v-90.77l10.93-6.47l27.83-16.47l40.03-23.68
	l78.8,46.62V765.89z"/>
</svg>
