<?xml version="1.0" encoding="utf-8"?>
<!-- Generator: Adobe Illustrator 26.3.1, SVG Export Plug-In . SVG Version: 6.00 Build 0)  -->
<svg version="1.1" id="Laag_1" xmlns="http://www.w3.org/2000/svg" xmlns:xlink="http://www.w3.org/1999/xlink" x="0px" y="0px"
	 viewBox="0 0 1080 1080" style="enable-background:new 0 0 1080 1080;" xml:space="preserve">
<style type="text/css">
	.st0{fill:#EFEFEF;}
	.st1{fill:#020203;}
	.st2{fill:#020203;stroke:#010202;stroke-width:4;stroke-miterlimit:10;}
	.st3{fill:none;}
	.st4{fill:#020203;stroke:#020203;stroke-width:0.5;stroke-miterlimit:10;}
	.st5{fill:none;stroke:#020203;stroke-width:2;stroke-miterlimit:10;}
	.st6{fill:#020203;stroke:#020203;stroke-width:2;stroke-miterlimit:10;}
	.st7{fill:#FFFFFF;stroke:#FFFFFF;stroke-width:0.25;stroke-miterlimit:10;}
</style>
<path class="st0" d="M921,1082.17H159c-87.81,0-159-71.19-159-159V161.17c0-87.81,71.19-159,159-159H921c87.81,0,159,71.19,159,159
	v762.01C1080,1010.99,1008.81,1082.17,921,1082.17z"/>
<g>
	<path d="M658.68,442.45H355.67c-24.76,0-44.91,20.15-44.91,44.91v156.27c0,24.76,20.15,44.91,44.91,44.91h303.01
		c24.76,0,44.91-20.15,44.91-44.91V487.36C703.6,462.6,683.45,442.45,658.68,442.45z M685.48,643.62c0,14.78-12.02,26.8-26.8,26.8
		H355.67c-14.78,0-26.8-12.02-26.8-26.8V487.36c0-14.77,12.02-26.8,26.8-26.8h193.96v160.77h5.29l39.49-49.03l39.49,49.03h4.32
		V460.56h20.45c14.78,0,26.8,12.03,26.8,26.8V643.62z"/>
	<path d="M658.68,691.04H355.67c-26.14,0-47.41-21.27-47.41-47.41V487.36c0-26.14,21.27-47.41,47.41-47.41h303.01
		c26.14,0,47.41,21.27,47.41,47.41v156.26C706.1,669.77,684.83,691.04,658.68,691.04z M355.67,444.95
		c-23.39,0-42.41,19.03-42.41,42.41v156.26c0,23.39,19.03,42.41,42.41,42.41h303.01c23.39,0,42.41-19.03,42.41-42.41V487.36
		c0-23.39-19.03-42.41-42.41-42.41H355.67z M658.68,672.92H355.67c-16.15,0-29.3-13.14-29.3-29.3V487.36
		c0-16.15,13.14-29.3,29.3-29.3h193.96c1.38,0,2.5,1.12,2.5,2.5v158.27h1.6l38.74-48.1c0.47-0.59,1.19-0.93,1.95-0.93
		s1.47,0.34,1.95,0.93l38.74,48.1h0.63V460.56c0-1.38,1.12-2.5,2.5-2.5h20.45c16.15,0,29.3,13.14,29.3,29.3v156.26
		C687.98,659.78,674.84,672.92,658.68,672.92z M355.67,463.06c-13.4,0-24.3,10.9-24.3,24.3v156.26c0,13.4,10.9,24.3,24.3,24.3
		h303.01c13.4,0,24.3-10.9,24.3-24.3V487.36c0-13.4-10.9-24.3-24.3-24.3h-17.95v158.27c0,1.38-1.12,2.5-2.5,2.5h-4.32
		c-0.76,0-1.47-0.34-1.95-0.93l-37.55-46.62l-37.55,46.62c-0.47,0.59-1.19,0.93-1.95,0.93h-5.29c-1.38,0-2.5-1.12-2.5-2.5V463.06
		H355.67z"/>
</g>
<path class="st2" d="M430.47,610.43c-18.45,0-32.32-11.72-37.99-30.62h48.2V569.6h-50.35c-0.45-3.38-0.67-6.79-0.67-10.21
	c0-1.68,0.05-3.39,0.13-5.1h50.9v-10.21h-49.82c3.1-18.61,13.13-35.72,39.61-35.72c19.66,0,28.23,8.4,36.37,22.91l8.9-4.99
	c-8.2-14.61-19.36-28.12-45.27-28.12c-32.43,0-51.03,22.32-51.03,61.23c0,36.05,20.98,61.23,51.03,61.23
	c25.91,0,37.07-13.51,45.27-28.12l-8.9-4.99C458.69,602.02,450.13,610.43,430.47,610.43z"/>
</svg>
