<svg width="1080" height="1080" viewBox="0 0 1080 1080" fill="none" xmlns="http://www.w3.org/2000/svg">
<rect x="1" y="1" width="1078" height="1078" rx="99" fill="white" stroke="#DBDBDB" stroke-width="2"/>
<circle cx="540" cy="540" r="367" fill="#DEDFFF"/>
<path d="M707.373 582.607H665.436V624.545H707.373V582.607Z" fill="#585FFF"/>
<path d="M791.262 393.859H287.938V330.938H749.325V289H287.938C264.771 289 246 307.786 246 330.938V771.341C246 794.508 264.786 813.279 287.938 813.279H791.262C814.429 813.279 833.2 794.493 833.2 771.341V435.811C833.215 412.645 814.429 393.859 791.262 393.859ZM287.938 771.356V435.811H791.262V498.732H623.497C600.331 498.732 581.56 517.518 581.56 540.67V666.497C581.56 689.664 600.346 708.435 623.497 708.435H791.277V771.356H287.938ZM791.262 540.67V666.497H623.497V540.67H791.262Z" fill="#585FFF"/>
<rect x="7.5" y="7.5" width="1065" height="1065" rx="92.5" stroke="#DBDBDB" stroke-width="15"/>
</svg>
