<?xml version="1.0" encoding="utf-8"?>
<!-- Generator: Adobe Illustrator 26.3.1, SVG Export Plug-In . SVG Version: 6.00 Build 0)  -->
<svg version="1.1" id="Laag_1" xmlns="http://www.w3.org/2000/svg" xmlns:xlink="http://www.w3.org/1999/xlink" x="0px" y="0px"
	 viewBox="0 0 1080 1080" style="enable-background:new 0 0 1080 1080;" xml:space="preserve">
<style type="text/css">
	.st0{fill:#EFEFEF;}
	.st1{fill:#020203;}
	.st2{fill:#020203;stroke:#010202;stroke-width:4;stroke-miterlimit:10;}
	.st3{fill:none;}
	.st4{fill:#020203;stroke:#020203;stroke-width:0.5;stroke-miterlimit:10;}
	.st5{fill:none;stroke:#020203;stroke-width:2;stroke-miterlimit:10;}
	.st6{fill:#020203;stroke:#020203;stroke-width:2;stroke-miterlimit:10;}
	.st7{fill:#FFFFFF;stroke:#FFFFFF;stroke-width:0.25;stroke-miterlimit:10;}
</style>
<path class="st0" d="M921,1080H159c-87.81,0-159-71.19-159-159V159C0,71.19,71.19,0,159,0H921c87.81,0,159,71.19,159,159V921
	C1080,1008.81,1008.81,1080,921,1080z"/>
<rect x="590.62" y="587.14" class="st1" width="28.24" height="28.24"/>
<path class="st1" d="M675.35,460.04H336.42v-42.37h310.69v-28.24H336.42c-15.6,0-28.24,12.65-28.24,28.24v296.56
	c0,15.6,12.65,28.24,28.24,28.24h338.93c15.6,0,28.24-12.65,28.24-28.24V488.29C703.6,472.69,690.95,460.04,675.35,460.04z
	 M336.42,714.24V488.29h338.93v42.37H562.38c-15.6,0-28.24,12.65-28.24,28.24v84.73c0,15.6,12.65,28.24,28.24,28.24h112.98v42.37
	H336.42z M675.35,558.9v84.73H562.38V558.9H675.35z"/>
</svg>
