<?xml version="1.0" encoding="utf-8"?>
<!-- Generator: Adobe Illustrator 27.2.0, SVG Export Plug-In . SVG Version: 6.00 Build 0)  -->
<svg version="1.1" id="Laag_1" xmlns="http://www.w3.org/2000/svg" xmlns:xlink="http://www.w3.org/1999/xlink" x="0px" y="0px"
	 viewBox="0 0 400 400" style="enable-background:new 0 0 400 400;" xml:space="preserve">
<style type="text/css">
	.st0{fill:#585FFF;}
	.st1{fill:#FFFFFF;}
</style>
<g>
	<g>
		<path class="st0" d="M341.33,326.52H0V132.16C0,99.8,26.32,73.48,58.67,73.48h282.65c32.35,0,58.67,26.32,58.67,58.67v135.69
			C400,300.2,373.68,326.52,341.33,326.52z"/>
	</g>
	<path class="st1" d="M210.33,165.37c-6.45-3.85-13.99-6.06-22.04-6.06c-23.8,0-43.17,19.36-43.17,43.17
		c0,23.8,19.36,43.17,43.17,43.17c8.04,0,15.58-2.21,22.04-6.06v5.54h21.13v-85.38h-21.13V165.37z M188.3,224.51
		c-12.15,0-22.04-9.89-22.04-22.04c0-12.15,9.88-22.04,22.04-22.04c12.15,0,22.04,9.89,22.04,22.04
		C210.33,214.63,200.45,224.51,188.3,224.51z"/>
	<path class="st1" d="M99.94,131.79l-41.74,0v113.33h21.13v-34.33h21.04c21.86,0,39.63-17.84,39.5-39.73
		C139.75,149.26,121.73,131.79,99.94,131.79z M100.06,189.66H79.33v-36.74h21.04c10.25,0,18.56,8.43,18.37,18.73
		C118.55,181.7,110.12,189.66,100.06,189.66z"/>
	<circle class="st1" cx="344.19" cy="232.95" r="12.89"/>
	<path class="st1" d="M314.02,159.43l-24.8,64.15l-25.54-63.85h-23.11l34.16,85.38h6.17l-0.11,0.29
		c-3.23,8.36-11.43,13.98-20.39,13.98h-2.49v21.13h2.84c17.63,0,33.74-11.05,40.1-27.49l36.19-93.6H314.02z"/>
</g>
</svg>
