<?xml version="1.0" encoding="utf-8"?>
<!-- Generator: Adobe Illustrator 25.4.1, SVG Export Plug-In . SVG Version: 6.00 Build 0)  -->
<svg version="1.1" id="Laag_1" xmlns="http://www.w3.org/2000/svg" xmlns:xlink="http://www.w3.org/1999/xlink" x="0px" y="0px"
	 viewBox="0 0 200 100" style="enable-background:new 0 0 200 100;" xml:space="preserve">
<style type="text/css">
	.st0{fill:#009779;}
</style>
<path class="st0" d="M74.3,53.5c1.8-2,4-3.6,6.5-4.7c2,7.6,6.1,14.8,11.7,20.4C99,75.9,108,80,117.4,80.4c6.1,0.2,11.9-2,16.2-6.1
	c4.9-6.2,7.6-14.3,7.6-22.4c0-11-4-21.3-11.5-29.4c-3.8-4-8.1-7.4-13-9.9l-1.1,1.8c2.7,1.6,5.2,3.6,7.4,5.8
	c7.6,7.9,11.9,18.2,12.1,29.2c0,1.6,0,4.3-0.2,6.5c-1.3-4.7-3.8-9-7.2-12.6c-1.1-1.3-2.2-2.5-3.8-3.1c-0.2,3.4-0.9,6.7-1.8,10.1
	c1.3,0.9,2.5,2,3.6,3.1c2.9,2.7,4.7,6.5,4.9,10.6c0,2-0.9,4-2.5,5.4c-2.2,1.8-4.9,2.7-7.9,2.7c-4.3-0.2-8.5-1.6-12.1-4
	c5.6-5.6,9.7-12.6,11.5-20.2c0.9-3.4,1.3-6.7,1.3-10.3c0-5.8-1.3-11.7-4.3-16.8C112.9,13.5,105.5,9,97.4,9
	c-10.1,0.2-19.8,4.7-26.5,12.1c-7.6,7.4-12.1,17.7-12.1,28.5c0,1.8,0,3.6,0.2,5.4h2c0-10.8,4.3-20.9,12.1-28.3
	c4-3.8,8.5-7.2,13.7-9.4c-3.6,3.4-6.1,7.9-7.4,12.6c-0.4,1.6-0.7,3.1-0.7,4.7c3.1-1.6,6.3-2.7,9.7-3.4c0.4-4.7,2.5-9,5.6-12.6
	c1.6-1.6,3.6-2.7,5.8-2.7c3.6,0.2,6.7,2.5,8.3,5.6c2,3.8,2.9,8.3,2.5,12.6c-7.6-2.5-15.7-2.5-23.4,0c-6.5,1.6-12.4,4.9-17.1,9.7
	c-4.9,4.7-7.9,11-8.3,17.7c0.2,6.7,3.1,13,8.1,17.5c8.1,7.6,18.6,12.1,29.9,11.9c8.8,0,17.1-2.7,24.3-7.6l-0.4-1.3
	c-5.6,3.1-11.9,4.7-18.4,4.7C95.4,86.9,86,83.8,78.1,78c2,0.7,4.3,1.1,6.5,1.1c4.3,0,8.5-0.9,12.4-2.7c-2.9-2-5.6-4.3-7.9-6.7
	c-2.9,1.1-6.3,2-9.4,2c-3.1,0.2-6.1-0.9-8.3-2.9c-1.3-1.3-2-3.1-2-5.2C69.6,59.8,71.4,56,74.3,53.5z M98.8,43.6
	c3.8,0,7.6,0.7,11.2,1.6c-2,6.3-5.6,11.9-10.3,16.6c-4.5-4.9-7.4-10.8-9-17.3C93.4,43.8,96.1,43.6,98.8,43.6z"/>
</svg>
