<?xml version="1.0" encoding="utf-8"?>
<!-- Generator: Adobe Illustrator 25.4.1, SVG Export Plug-In . SVG Version: 6.00 Build 0)  -->
<svg version="1.1" id="Laag_1" xmlns="http://www.w3.org/2000/svg" xmlns:xlink="http://www.w3.org/1999/xlink" x="0px" y="0px"
	 viewBox="0 0 200 100" style="enable-background:new 0 0 200 100;" xml:space="preserve">
<style type="text/css">
	.st0{fill:#2D8D37;}
</style>
<path class="st0" d="M116.4,9H83.6c0,0-3.8,0-3.8,3.3v75.4c0,0,0,3.3,3.8,3.3h14.3c0-5.1,0-10.3,0-15.4c-0.1-0.4-0.1-1-0.3-1.2
	c-0.5-0.4-1-0.7-1.5-1c-1.7-1.2-3.5-2.5-5-4.5c-1.4-1.8-2.6-4.2-3.2-7.1c-0.4-2.5,0-5.2,1.7-6.9c0.5-0.5,0.5-1.1,0.2-1.8
	c-0.4-0.9-0.8-1.9-1.1-2.9c-0.5-1.7-0.5-4.5,0.9-5.6c0.5-0.6,1.3-0.7,1.7-1.6c-0.7-2.1-1.3-4.9-0.7-7.2c0.4-1.3,1.3-1.6,2-2
	c0.9-0.5,1.7-0.3,1.6-1.6c0-3.6,0.5-7,2.4-8.8c2-1.7,4.6-1.6,6.6,0c2,1.8,2.5,5.2,2.5,8.8c0,0.8,0,0.9,0.5,1.1
	c1.3,0.7,2.7,0.7,3.3,2.5c0.5,2.5,0,5-0.7,7.2c0.4,0.9,1.2,1,1.8,1.6c1.4,1.2,1.5,3.9,0.9,5.6c-0.3,1.1-0.7,2-1.2,2.9
	c-0.3,0.7-0.3,1.4,0.2,1.8c0.4,0.4,0.9,0.9,1.2,1.6c0.7,1.5,0.9,3.5,0.6,5.3c-1.1,5.4-4.5,8.9-8.7,11.6c-0.5,0.3-1,0.7-1.5,1
	c-0.3,0.2-0.3,0.7-0.4,1.2c0,5.1,0,10.3,0,15.4h14.7c0,0,3.8,0,3.8-3.3V12.3C120.2,12.3,120.2,9,116.4,9z"/>
</svg>
