<?xml version="1.0" encoding="utf-8"?>
<!-- Generator: Adobe Illustrator 25.4.1, SVG Export Plug-In . SVG Version: 6.00 Build 0)  -->
<svg version="1.1" id="Laag_1" xmlns="http://www.w3.org/2000/svg" xmlns:xlink="http://www.w3.org/1999/xlink" x="0px" y="0px"
	 viewBox="0 0 200 100" style="enable-background:new 0 0 200 100;" xml:space="preserve">
<style type="text/css">
	.st0{fill:#003C5D;}
</style>
<path class="st0" d="M97.1,52.8v16.6h-7.8c-0.7,0-1.3-0.8-1.3-1.7v-13c0-3.7-0.6-6.5-4.3-6.5c-3.9,0-5,3.2-5,7.2v13.9H71
	c-0.7,0-1.4-0.8-1.4-1.6V42.9c0-0.8,0.7-1.7,1.3-1.7h7.8l-0.1,4.1h0.1c1.5-2.5,4.1-4.6,8.2-4.6C95,40.7,97.1,46,97.1,52.8z"/>
<path class="st0" d="M146.9,40.7c-3.7,0-6.2,1.3-7.7,2.7c0.1-1,0.1-2.4,0.1-3.9V30h-7.8c-0.6,0-1.3,0.9-1.3,1.7v36
	c0,0.9,0.7,1.7,1.4,1.7h7.3v-2.3c2.1,2,4.9,2.9,8.1,2.9c8.2,0,13.3-6.4,13.3-14.7C160.3,47.1,155.1,40.7,146.9,40.7z M145.1,62.4
	c-3.8,0-6.4-3-6.4-7.3c0-4.3,2.6-7.3,6.4-7.3c3.8,0,6.4,3,6.4,7.3C151.5,59.4,148.9,62.4,145.1,62.4z"/>
<path class="st0" d="M67.9,41.2h-9.4c-0.7,0-1.4,0.4-1.9,0.9l-7.7,8.4V30h-7.8c-0.7,0-1.3,0.9-1.3,1.7v36.1c0,0.8,0.5,1.6,1.4,1.6
	H49v-8.5l2.5-2.5l6.2,9.9c0.6,0.8,1.4,1.1,2.3,1.1h8.8L57.6,51.8L67.9,41.2z"/>
<path class="st0" d="M123.6,44.2c-2.2-2.1-5.2-3.3-10.5-3.3c-4.5,0-8.4,1.2-10.9,2.3c-0.6,0.3-0.9,1.1-0.6,1.8l1.9,4.6
	c1.4-0.9,5-2.5,8.6-2.5c3.7,0,5.8,1.5,5.8,4.5v0.6l-7.1,0.3c-5.2,0.2-11,2.3-11,8.6c0,6.3,5.2,9,10.2,9c4.5,0,6.8-2.4,8-3.6l0.1,1.9
	c0,0.5,0.5,1,1.2,1h7.5V53.5C126.8,48.8,125.6,46,123.6,44.2z M117.8,61.6c-0.6,1-2.2,2.6-4.7,2.6s-4.3-1.3-4.3-3.5
	c0-2.1,1.6-3.3,4.4-3.4l4.5-0.3h0.1V61.6z"/>
</svg>
