<?xml version="1.0" encoding="utf-8"?>
<!-- Generator: Adobe Illustrator 25.4.1, SVG Export Plug-In . SVG Version: 6.00 Build 0)  -->
<svg version="1.1" id="Laag_1" xmlns="http://www.w3.org/2000/svg" xmlns:xlink="http://www.w3.org/1999/xlink" x="0px" y="0px"
	 viewBox="0 0 200 100" style="enable-background:new 0 0 200 100;" xml:space="preserve">
<style type="text/css">
	.st0{fill:url(#SVGID_1_);}
	.st1{fill:#009B89;}
	.st2{fill:#F9B800;}
	.st3{fill:#FFFFFF;}
	.st4{fill:url(#SVGID_00000150784577143878931200000004367540183072472992_);}
	.st5{fill:#E43121;}
	.st6{fill:#EF8365;}
	.st7{fill:#B72B18;}
	.st8{fill:#F4AFAB;}
	.st9{fill:#D37784;}
	.st10{fill:#D89D9A;}
	.st11{fill:#F8D0CC;}
	.st12{fill:none;}
	.st13{fill:#F8F8FB;}
	.st14{fill:#F2F1F8;}
	.st15{fill:#DBD9ED;}
	.st16{fill:#2B2B84;}
	.st17{fill:#484292;}
	.st18{fill:#24236F;}
	.st19{fill:#8E87BF;}
	.st20{fill:url(#SVGID_00000145056463011970675100000012031636360375896469_);}
	.st21{fill:#BAB6DA;}
	.st22{fill:#AFA9D3;}
	.st23{fill:#D0CBE5;}
	.st24{fill:#FFDC00;}
	.st25{fill:#DABA84;}
	.st26{fill:#EAC436;}
	.st27{fill:#FFE067;}
	.st28{fill:#E9583C;}
	.st29{fill:#D32F1E;}
	.st30{fill:#C12C1A;}
	.st31{fill:#F8F7FA;}
	.st32{fill:url(#SVGID_00000179630797519066578790000011802749186341474746_);}
	.st33{fill:#A49ECD;}
	.st34{fill:url(#SVGID_00000060746232896388665830000012690350076657499062_);}
	.st35{fill:url(#SVGID_00000119832423212763010950000008692088937197122434_);}
	.st36{fill:#EC6F50;}
	.st37{fill:#A52714;}
	.st38{fill:url(#SVGID_00000089572758912432372240000007909870179460473528_);}
	.st39{fill:url(#SVGID_00000030447561963423018370000016346917545130684071_);}
	.st40{fill:#D0CDE7;}
	.st41{fill:url(#SVGID_00000026863300479895538220000003824330916436113793_);}
	.st42{fill:url(#SVGID_00000052101299282993114000000003646600604595986568_);}
	.st43{fill:#FFCA00;}
	.st44{fill:#FFF7C6;}
	.st45{fill:url(#SVGID_00000052820451887116932830000002210910467983326877_);}
	.st46{fill:url(#SVGID_00000139253242158275469260000016392535693239573675_);}
	.st47{fill:url(#SVGID_00000155107270895310082280000014336604382163872958_);}
	.st48{fill:#1E398D;}
	.st49{fill:#2F2481;}
	.st50{fill:url(#SVGID_00000030467625366387605860000016840503567124618401_);}
	.st51{fill:#5B549E;}
	.st52{fill:url(#SVGID_00000017485647033798218500000014400946249199277959_);}
	.st53{fill:url(#SVGID_00000052798980261251730510000015981555315915835541_);}
	.st54{fill:#D9D7EC;}
	.st55{fill:url(#SVGID_00000001623723778561616310000004749867730934411908_);}
	.st56{fill:#C92D0A;}
	.st57{fill:url(#SVGID_00000042711320356175240700000000379169733547258268_);}
	.st58{fill:#7B73B2;}
	.st59{fill:#655EA4;}
	.st60{fill:url(#SVGID_00000117645814311592567060000012303167150852562108_);}
	.st61{fill:url(#SVGID_00000147205316347718813490000006589581475632463013_);}
	.st62{fill:url(#SVGID_00000173129135257747553490000002919520834128730809_);}
	.st63{fill:#F9D8D4;}
	.st64{fill:url(#SVGID_00000127023466035894821890000003533489469779061144_);}
	.st65{fill-rule:evenodd;clip-rule:evenodd;fill:#FFFFFF;filter:url(#Adobe_OpacityMaskFilter);}
	.st66{mask:url(#a_00000090293354470457377330000015061804619491291264_);fill-rule:evenodd;clip-rule:evenodd;fill:#FF422E;}
	.st67{fill-rule:evenodd;clip-rule:evenodd;fill:#FF422E;}
	.st68{fill-rule:evenodd;clip-rule:evenodd;fill:#E1000E;}
	.st69{fill:#009779;}
	.st70{fill:#2D8D37;}
	.st71{fill:#003C5D;}
	.st72{fill:#D30D47;}
	.st73{fill:#F9BA2E;}
	.st74{fill:#2AAACD;}
	.st75{fill:#55538F;}
	.st76{fill-rule:evenodd;clip-rule:evenodd;fill:#FFFFFF;}
	.st77{fill-rule:evenodd;clip-rule:evenodd;fill:#EF7D00;}
	.st78{fill-rule:evenodd;clip-rule:evenodd;fill:#FF5400;}
	.st79{fill-rule:evenodd;clip-rule:evenodd;fill:#89CC53;}
	.st80{fill-rule:evenodd;clip-rule:evenodd;fill:#238647;}
	.st81{fill-rule:evenodd;clip-rule:evenodd;fill:#2F9B47;}
	.st82{fill-rule:evenodd;clip-rule:evenodd;fill:#62B64F;}
	.st83{fill-rule:evenodd;clip-rule:evenodd;fill:#3DB8AD;}
	.st84{fill-rule:evenodd;clip-rule:evenodd;fill:#3394D7;}
	.st85{fill-rule:evenodd;clip-rule:evenodd;fill:#2872BC;}
	.st86{fill-rule:evenodd;clip-rule:evenodd;fill:#1D5C84;}
	.st87{fill-rule:evenodd;clip-rule:evenodd;fill:#993233;}
	.st88{fill-rule:evenodd;clip-rule:evenodd;fill:#E13030;}
	.st89{fill-rule:evenodd;clip-rule:evenodd;fill:#F28825;}
	.st90{fill-rule:evenodd;clip-rule:evenodd;fill:#F5C836;}
	.st91{fill:url(#SVGID_00000106148284810430097490000010118983674233155992_);}
	.st92{fill:url(#SVGID_00000181066448526403415920000010091978719809085622_);}
	.st93{fill-rule:evenodd;clip-rule:evenodd;fill:#C41A1B;}
	.st94{fill-rule:evenodd;clip-rule:evenodd;fill:#A71815;}
	.st95{fill-rule:evenodd;clip-rule:evenodd;fill:#BF0D0D;}
	.st96{fill-rule:evenodd;clip-rule:evenodd;fill:#C7411B;}
	.st97{opacity:0.45;fill:#4F2644;}
	.st98{fill:#F8B44F;}
	.st99{fill:url(#SVGID_00000005954035901297936850000001997118804000043423_);}
</style>
<g>
	<g>
		<linearGradient id="SVGID_1_" gradientUnits="userSpaceOnUse" x1="69.3797" y1="76.1038" x2="130.6203" y2="76.1038">
			<stop  offset="0" style="stop-color:#C9571A"/>
			<stop  offset="1" style="stop-color:#6D2E2B"/>
		</linearGradient>
		<path class="st0" d="M125.6,61.2c1.3,1.3,2.3,2.7,3.1,4.2c2.4,4.8,1.5,10.2-3.2,14.8c-5.4,5.3-14.7,8.6-25.4,8.6
			c-10.7,0-20-3.3-25.4-8.6c-4.7-4.7-5.6-10-3.2-14.8c0.7-1.5,1.8-2.9,3.1-4.2c-1.5,1.5-2.7,2.8-3.8,4.9c-2.3,4.6-1.6,11.3,3.3,16.1
			c5.6,5.5,14.3,8.8,26.1,8.8c11.9,0,20.6-3.4,25.9-8.8c5.2-5.3,5.4-12.1,3.3-16.2C128.4,64.3,127.2,62.7,125.6,61.2z"/>
	</g>
	<g>
		<defs>
			<path id="SVGID_00000081630986020345189680000002221728826732244125_" d="M116.9,55.6c-5-2.1-10.9-3.2-16.8-3.2
				c-5.9,0-11.8,1.1-16.8,3.2c-5.5,2.3-9.8,5.7-11.8,9.8c-2.4,4.8-1.5,10.2,3.2,14.8c5.4,5.3,14.7,8.6,25.4,8.6
				c10.7,0,20-3.3,25.4-8.6c4.7-4.7,5.6-10,3.2-14.8C126.6,61.3,122.4,57.9,116.9,55.6z"/>
		</defs>
		<use xlink:href="#SVGID_00000081630986020345189680000002221728826732244125_"  style="overflow:visible;fill:#ED7203;"/>
		<clipPath id="SVGID_00000150822564839987685620000011293998354055570096_">
			<use xlink:href="#SVGID_00000081630986020345189680000002221728826732244125_"  style="overflow:visible;"/>
		</clipPath>
	</g>
	<g>
		
			<linearGradient id="SVGID_00000006692705295893562590000010356515551630503079_" gradientUnits="userSpaceOnUse" x1="64.3293" y1="70.7762" x2="102.1787" y2="64.1023">
			<stop  offset="0" style="stop-color:#FFDF7D"/>
			<stop  offset="1" style="stop-color:#ED7203"/>
		</linearGradient>
		<path style="fill:url(#SVGID_00000006692705295893562590000010356515551630503079_);" d="M101,57.9c-1-2-0.8-3.9-0.6-5.5
			c-0.1,0-0.3,0-0.4,0c-5.9,0-11.8,1.1-16.8,3.2c-5.5,2.3-9.8,5.7-11.8,9.8c-2.4,4.8-1.5,10.2,3.2,14.8c0.3,0.3,0.7,0.6,1,1
			C95.6,80,106.1,68.3,101,57.9z"/>
	</g>
	<path class="st76" d="M87.1,58.3c3.7,0.9,7.3,2.1,10.8,3.4c0.7-2.1,1.5-4.3,2.3-6.3c0.9,2.1,1.6,4.2,2.3,6.3
		c3.6-1.3,7.1-2.4,10.8-3.3c-2.6,1.6-4.9,3.3-7.3,5.2c4.9,0.6,9.5,1.4,14.4,2.5c-4.8-0.1-9.4,0.1-14.2,0.4c3.4,2.9,6.3,5.7,9.5,8.8
		c-4.3-2.5-8.4-4.5-12.9-6.7c-0.9,3.8-1.7,7.6-2.5,11.3c-0.8-3.8-1.5-7.4-2.4-11.2c-4.5,2.1-8.6,4.2-13.1,6.5
		c3.2-3.1,6.2-5.8,9.6-8.7c-4.8-0.3-9.4-0.4-14.4-0.4c4.8-1,9.6-1.9,14.5-2.5C92.1,61.7,89.7,59.9,87.1,58.3z M100.3,64.9
		c0-2.8,0-5.6,0-8.3c-0.8,2.3-1.6,4.7-2.3,7C98.8,64,99.6,64.4,100.3,64.9z M89.3,59.2c3,1.3,5.9,2.8,8.7,4.4
		c-0.7,0.1-1.4,0.1-2.1,0.2C93.8,62.2,91.6,60.6,89.3,59.2z M100.3,64.9c5.7,0,11.5,0.3,17.2,0.9c-5-0.9-9.9-1.6-14.9-2.2
		C101.8,64,101.1,64.4,100.3,64.9z M111.3,59.2c-3,1.3-5.9,2.8-8.7,4.4c-0.1-0.4-0.2-0.8-0.3-1.2C105.2,61.2,108.2,60.1,111.3,59.2z
		 M100,64.9c0.1,4,0.3,8.3,0.3,12.2c0.7-3.6,1.5-7.2,2.4-10.8C101.9,65.8,100.8,65.3,100,64.9z M113,73.2c-3.3-2.4-6.8-4.7-10.3-6.9
		c0.7-0.1,1.4-0.1,2.2-0.2C107.6,68.4,110.3,70.7,113,73.2z M100.3,64.9C94.5,65,90,65.2,84.4,65.7c4.9,0,8.6,0.2,13.6,0.6
		C98.8,65.8,99.5,65.3,100.3,64.9z M87.7,73.2c3.4-2.4,6.8-4.7,10.3-6.9c0.1,0.4,0.2,0.9,0.3,1.3C94.7,69.4,91.2,71.2,87.7,73.2z"/>
	<path class="st93" d="M100.3,55.5c0.9,2.1,1.6,4.2,2.3,6.3c3.5-1.3,6.8-2.3,10.4-3.3c0.1-0.1,0.2-0.2,0.4-0.2
		c-3.7,0.9-7.2,2-10.8,3.3c-0.7-2.1-1.5-4.3-2.3-6.3c-0.9,2.1-1.6,4.2-2.3,6.3c-3.6-1.3-7.1-2.5-10.8-3.4c0.1,0.1,0.2,0.2,0.4,0.2
		c3.6,0.9,7,2,10.5,3.3C98.7,59.7,99.4,57.6,100.3,55.5z"/>
	<path class="st94" d="M102.7,66.3c-0.8,3.5-1.6,7.2-2.4,10.8v0.1c0.7-3.6,1.5-7.2,2.3-10.8c2.4,1.5,5.9,3.8,10.3,6.9v-0.2
		C109.6,70.8,106.2,68.5,102.7,66.3z"/>
	<path class="st94" d="M106.4,66.6l-0.2-0.1v0.2c3.3,2.8,5.9,5.3,8.9,8.3c0.1,0.1,0.4,0.2,0.5,0.3C112.5,72,109.6,69.3,106.4,66.6z"
		/>
	<path class="st94" d="M106.1,63.6c4.9,0.6,9.5,1.4,14.4,2.5c-0.2,0-0.6,0-0.8,0c-4.6-1-8.9-1.7-13.5-2.3V63.6z"/>
	<path class="st94" d="M100.3,64.9c5.7,0,11.5,0.3,17.2,0.9v0.2c-5.6-0.6-11.3-0.8-16.9-0.9c0,0-0.1-0.1-0.1-0.1
		C100.4,64.9,100.4,64.9,100.3,64.9c0.1,0,0.2,0,0.2,0"/>
	<path class="st94" d="M102.6,63.6c0.1,0,0.1,0,0.2,0c2.8-1.5,5.6-3,8.5-4.2v-0.1C108.3,60.5,105.4,62,102.6,63.6"/>
	<path class="st95" d="M102.6,63.6c-0.1-0.4-0.2-0.8-0.3-1.2v0.1C102.3,62.9,102.5,63.2,102.6,63.6
		C102.6,63.6,102.6,63.6,102.6,63.6"/>
	<path class="st76" d="M112.2,54.3c0.1,0,0.3,0,0.4,0c0.1,0.1,0.1,0.1,0.2,0.2c-0.6,0.4-1.2,0.8-1.7,1.2c-0.1,0-0.3,0-0.4,0
		c-0.1-0.1-0.1-0.1-0.2-0.2C111,55.1,111.6,54.7,112.2,54.3z"/>
	<path class="st76" d="M127.1,76.4c0.1,0.2,0.2,0.4,0.3,0.5c-0.2,0.1-0.5,0.2-0.6,0.2c-1.6-0.9-3.3-1.7-4.9-2.6
		c-0.1-0.2-0.1-0.4-0.2-0.6c0.2,0,0.3-0.1,0.5-0.1C123.9,74.7,125.5,75.6,127.1,76.4z"/>
	<path class="st76" d="M128.4,66.8c0.1,0.1,0.3,0.2,0.4,0.4c-0.1,0.1-0.2,0.2-0.2,0.3c-1.5-0.2-3.1-0.4-4.6-0.6
		c-0.1-0.1-0.3-0.3-0.5-0.4c0.1-0.1,0.2-0.2,0.3-0.3C125.3,66.4,126.8,66.6,128.4,66.8z"/>
	<path class="st76" d="M122.5,59.1c0.2,0.1,0.3,0.1,0.5,0.2c0,0.1,0,0.3,0,0.4c-1.1,0.2-2.3,0.3-3.4,0.6c-0.1-0.1-0.3-0.2-0.5-0.3
		c0-0.1,0-0.2,0.1-0.3C120.2,59.4,121.4,59.2,122.5,59.1z"/>
	<path class="st76" d="M116.2,84.9c0.2,0,0.5,0.1,0.8,0.1c0.1-0.2,0.1-0.3,0.2-0.5c-1.1-1.4-2.3-2.7-3.5-4.1c-0.2,0-0.5-0.1-0.7-0.1
		c-0.1,0.1-0.2,0.4-0.2,0.5C113.9,82.2,115.1,83.5,116.2,84.9z"/>
	<g>
		<path class="st94" d="M112.6,54.5C112.6,54.6,112.6,54.6,112.6,54.5c0.1,0,0.1,0,0.2-0.1c-0.1-0.1-0.1-0.1-0.2-0.2
			c-0.1,0-0.3,0-0.4,0c-0.6,0.4-1.2,0.8-1.8,1.2c0,0,0.1,0.1,0.1,0.1c0.5-0.4,1.1-0.7,1.6-1.1C112.3,54.5,112.5,54.5,112.6,54.5z"/>
	</g>
	<g>
		<path class="st94" d="M127.2,76.7c0,0.1,0.1,0.2,0.2,0.3c0,0,0.1,0,0.1,0c-0.1-0.2-0.2-0.4-0.3-0.5c-1.6-0.9-3.3-1.7-4.9-2.5
			c-0.2,0-0.3,0.1-0.5,0.1c0,0.1,0.1,0.2,0.1,0.3c0.1,0,0.3-0.1,0.4-0.1C123.9,75,125.5,75.8,127.2,76.7z"/>
	</g>
	<g>
		<path class="st94" d="M128.3,67c0.1,0.1,0.3,0.2,0.4,0.3c0-0.1,0.1-0.1,0.1-0.1c-0.1-0.1-0.3-0.2-0.4-0.4c-1.5-0.2-3-0.4-4.6-0.6
			c-0.1,0.1-0.2,0.2-0.3,0.3c0,0,0.1,0.1,0.1,0.1c0,0,0.1-0.1,0.2-0.2C125.3,66.6,126.8,66.8,128.3,67z"/>
	</g>
	<g>
		<path class="st94" d="M122.9,59.5c0-0.1,0-0.1,0-0.2c-0.2-0.1-0.3-0.1-0.5-0.2c-1.1,0.2-2.2,0.3-3.4,0.6c0,0.1,0,0.2-0.1,0.3
			c0,0,2.3-0.4,3.4-0.6C122.6,59.4,122.8,59.5,122.9,59.5z"/>
	</g>
	<g>
		<path class="st94" d="M113,80.5c-0.1,0.1-0.1,0.3-0.2,0.4c0,0,0,0-0.1-0.1c0-0.1,0.2-0.4,0.2-0.5c0.2,0,0.5,0.1,0.7,0.1
			c1.2,1.3,2.3,2.7,3.5,4.1c0,0.1,0,0.1-0.1,0.2c-0.7-0.9-2.3-2.8-3.5-4.1C113.5,80.6,113.2,80.5,113,80.5z"/>
	</g>
	<path class="st96" d="M77.6,66.3c2-9.1,14.6-11.8,22.6-11.8c7.9,0,20.5,2.7,22.6,11.8c2.5,11.3-14.4,15.5-22.6,15.5
		C92,81.9,75.1,77.7,77.6,66.3z M78.5,66.3c1.9-8.8,14.1-11.4,21.7-11.4c7.6,0,19.8,2.6,21.7,11.4c2.4,10.9-13.9,14.9-21.7,14.9
		C92.3,81.2,76.1,77.1,78.5,66.3z"/>
	<path class="st76" d="M77.7,66.6c2-9.1,14.1-11.8,22.6-11.8c8.4,0,20.5,2.8,22.6,11.8c2.5,11.3-14.4,15.5-22.6,15.5
		C92.1,82.1,75.2,77.9,77.7,66.6z M78.5,66.5c1.9-8.8,14.1-11.4,21.7-11.4c7.6,0,19.8,2.6,21.7,11.4c2.4,10.9-13.9,14.9-21.7,14.9
		C92.4,81.4,76.2,77.4,78.5,66.5z"/>
	<path class="st97" d="M127.2,68.5l-3.7-0.6l-0.5-0.1c-0.6-0.1-1.8-0.8-2.3-1.6c-0.5-0.8-1.8-2.2-2.4-3c-0.9-1.2-3.1-2.3-3.4-2.8
		c-0.3-0.5-0.8-1.3-1-1.7c-0.1-0.3-0.5-0.6-1-0.6c-0.6,0-0.6,0.2-1.1,0.3c-0.5,0-1.1-0.1-1.1-0.1c-0.3-0.1-0.5-0.1-0.7-0.1
		c-0.3,0.5-0.7,0.8-1.8,0.8c-0.1,0-0.1,0-0.2,0c0.1,0.2,1.1,0.4,1.3,0.4c0.2,0,1.1,0.3,1.4,0.3c0.4,0.1,0.4-0.1,1.1,0.3
		c1.2,0.7,2.9,2.6,3.3,4.2c0.2,0.9,1.7,2.4,1.9,3.2c-2.1-0.2-4.8-1.5-4.8-1.5l-0.3-0.2c0,0-1.2-0.6-3.1-0.7
		c-3.6-0.3-4.9-0.8-5.3-0.9c-0.7-0.2-0.6-0.4-1.2-0.4c-0.1,0-0.2,0-0.3,0c-0.1,0.1-0.2,0.3-0.3,0.4c-0.7,0.6-1.1,1.1-1.7,2
		c-0.1,0.2-0.4,0.4-0.7,0.5c0.7-0.2,2-0.5,2-0.5c1.3-0.2,3.2,0.4,3.2,0.4c0.7,0.1,1.9,0.6,1.9,0.6s5.1,1.5,6.3,2.5
		c0.8,0.6,5,2.2,6.1,2.6c1.1,0.4,3.8,1.9,3.8,1.9c0.7,0.6,4.8,2.4,5.9,2.8c1.4-2.5,1.9-5,1.5-7.6l0,0L127.2,68.5z"/>
	<path class="st97" d="M125.3,64.3c-0.4,0-0.8,0.1-0.8,0.1l-1,0.6c-0.1,0.2,0.3,0.5,0.3,0.5s1.3,0.1,1.3,0.4c0.9,0.5,2.9,0.6,4,0.6
		v0c-0.1-0.3-0.3-0.7-0.5-1c-0.2-0.3-0.3-0.7-0.5-1l0,0C128.1,64.4,127.3,64.2,125.3,64.3z"/>
	<path class="st97" d="M117.8,76.7c0,0-0.2-0.3-1.5-0.3c-0.8,0,0.4,1.9,0.4,1.9c0.7,0.5,3.4,1.3,4,1.3c0.6,0.1,2.4,0.6,2.4,0.6
		s1,0.1,2,0.4c0.2-0.1,0.3-0.3,0.5-0.4c0.6-0.6,1.1-1.1,1.6-1.7c-2.2,0-5.4-0.1-7.9-1.3C118.9,76.5,117.8,76.7,117.8,76.7z"/>
	<path class="st98" d="M111,41.4c0,0-0.7-0.7-0.8-0.7c-0.1-0.2,0.2-0.6,0.3-1c-0.1,0-0.2-0.1-0.2-0.1c-0.2-0.7-0.3-1.9,0-2.6
		c0.2-0.3,0.4-0.8,0.2-1.1c-0.6-2.1-1.8-3.9-2.7-6c-0.2-0.5-0.2-0.9-0.2-1.5c-0.7-0.7-1.4-2.7-1.8-3.8c-0.8,2-1.3,4.2-1.3,4.7
		c0,2.2,2.2,3.3,1.5,6.9c-0.1,0.7-0.4,1.7-0.7,2.7c0.5,2.6,0.5,4.4,1.1,7.4c1,0.9,1.8,2.2,2.2,3.7c0.3,1,1.1,3.2,2.1,3.5
		c0.6,0.2-2.2,0.7-3-0.3c-0.8-1-2.1-1.7-2.7-2.7c-0.5-0.8-1.3-2.5-1.8-3.4l-0.6,3.1c0.8,3.4,0.3,4.1-0.4,6.8
		c-0.3,1.2-2.7-4.3-2.7-4.8c0-1.2-0.1-1.6-0.4-2.7c-0.5-1-0.4-2.3-0.4-3.4c0.1-1.8,0.1-5,0.2-5.9c-0.6-1.5-2.1-4.1-2.3-5.6
		c-0.2-2.3,0.2-4.7-0.2-7c-0.4,1.2-0.8,2.6-1.7,3.5c-1.4,1.3-2.6,2.8-3.8,4.3c-0.4,0.6-0.1,0.9-0.7,1.9c-0.7,0.9-0.3,0.5-0.5,1.4
		c0,0.2-0.1,0.3-0.2,0.3c-0.4,0.3-0.7,0.6-1.3,0.3c-1-0.5-1.1-1.2-1.1-2.2c-0.1-1.8,1.2-1.9,2-3c1.5-2.2,2.3-5.8,3.9-7.4
		c0.1-0.3,0.5-1.5,1.2-3.2c0-2.2,0.6-4.1,2.8-5c0.9-0.4,2.1-0.5,2.1-1.7c0-0.1,0-0.5-0.1-0.7c-0.4-0.3-0.6-0.3-0.8-0.5
		c-0.4-0.5-0.7-3.4-0.6-3.6c0.5-2.5,1.7-3.3,3.2-3.3c1.8,0.1,3.2,1,3.1,3.4c-0.1,1.9-2.1,4.4,0.9,5.4c1.1,0.4,1.4,0.1,2.4,1.1
		c1.1,1.1,1.4,3.1,1.6,4.9l1.1,2.6c2.1,3.5,1.3,4.6,2.1,8.1c0.2,0.9,0.5,1.7,0.6,3.7C112.8,39.2,112,41.4,111,41.4z"/>
	
		<linearGradient id="SVGID_00000169527988609756762040000007137090369956748439_" gradientUnits="userSpaceOnUse" x1="90.1565" y1="29.0696" x2="112.0726" y2="50.9858">
		<stop  offset="0" style="stop-color:#2E2C85"/>
		<stop  offset="1" style="stop-color:#282573"/>
	</linearGradient>
	<path style="fill:url(#SVGID_00000169527988609756762040000007137090369956748439_);" d="M89.4,38.8c0.1-0.9,0-0.8,0.6-1.7
		c0.5-0.8,0.3-1.2,0.8-1.9c1.2-1.5,2.3-3,3.7-4.4c0.9-0.9,2.1-4,2.4-5.1c0.1-0.2,0.1-0.2,0.2-0.1c0.2,2.1,0.5,3.8,0.4,5.8
		c-0.2,4.2,0,3.8,1.7,7.7c0.1-1.6,0.5-3.9,1.5-4.7c-1.1,4.1-1.1,10-1.3,11.8c-0.1,0.9-0.3,2.4,0.1,3.2c0.1,0.6,0.2,1.4,0.2,2.1
		c0,0.4,0,7.2,0,7.2L99,62c-0.2,0.9-1.4,2.5-2.3,2.9c-0.3,0.2-0.9,0.5-0.9,0.8c0,0.5,3.2,1.4,4,0.3c0.6-0.9,1-1.3,1.7-2
		c1-1-0.1-2,0-3.3c0.2-2.3,1.2-4.3,1.5-6.5c0.2-1.3,0.2-2.5-0.4-3.9l0.4-4.1c0.5,0.7,0.9,1.9,1.4,2.8c0.8,1.7,0.8,1.8,2.2,3.2
		c0.5,0.5,1,1,1.3,1.6c0.7,1,1.1,2.1,1.1,3.3c-0.5,0.9-0.7,0.8-1.3,1.4c0,0-0.2,0.5,0.4,0.5c2.1,0,1.8-1.1,2.6-2.5
		c0.5-0.9,2-2.3,0.4-2.8c-0.5-0.2-1-0.5-1.3-0.9c-1.1-1.9-1.2-1.8-1.7-3.5c-0.4-1-1.1-1.9-1.9-2.6c-0.5-1.2-0.7-2-0.9-3.3
		c-0.2-1.7-0.4-2.9-0.7-4.6c0.8-3.3,1.2-3.9-0.2-7.1c-0.3-0.7-0.5-1.5-0.5-2.3c0-1,0.6-3.4,1.1-4.6c0.2-0.5,0.5-1,0.8-1.1
		c0.3,1.3,1.5,3.9,2.2,4.5c0,0.5,0,1,0.2,1.5c0.9,2,2.1,3.9,2.7,6.1c0.2,0.7-0.1,1.1-0.3,1.7c-0.1,0.3-0.1,1.1,0,1.7l0.3,0.2
		c-0.1,0.2-0.2,0.7-0.3,1c0,0.3,0.4,0.5,0.4,0.5c0.5-0.1,1.1-1.8,1.1-2.5c-0.1-2.1-0.5-3-0.6-3.6c-0.7-3.5-0.3-4.5-2.3-7.9l-1.1-2.8
		c-0.1-1.4-0.7-4.7-2.5-5.2c-0.3-0.1-0.6-0.1-1.1-0.3c-2.4-0.8-2.4-2.6-1.7-4.6c0.6-1.8,0.7-3.9-2-4.1c-1.6-0.1-2.1,1.1-2.5,2.6
		c0,0.2,0.1,2.5,0.4,3.1c0.7,0.5,1.1,0.4,1,1.6c0,1.1-0.7,1.7-1.7,2c-1.5,0.5-2.3,0.8-2.8,2.4c-0.2,0.5-0.3,1.2-0.3,2.3l0,0.1
		c-0.4,1.1-1,2.3-1.3,3.5c-1.9,1.9-2.8,6.1-4.7,7.9c-1.3,1.2-1.6,1.3-1.2,3.1c0,0.2,0.6,0.7,0.8,0.7C88.9,39.2,89.4,38.9,89.4,38.8z
		"/>
</g>
</svg>
