<svg width="100" height="100" viewBox="0 0 1024 1024" fill="none" xmlns="http://www.w3.org/2000/svg">
	<rect width="1024" height="1024" fill="#1F1F35"/>
	<g clip-path="url(#clip0_4012_60333)">
		<path d="M838.966 838.114C775.368 838.114 714.131 820.329 661.068 786.56C611.046 816.607 553.677 832.421 494.386 832.421C315.612 832.421 170.17 687.708 170.17 509.859C170.17 332.01 315.612 187.298 494.386 187.298C581.291 187.298 661.749 218.95 720.943 276.417C780.624 334.346 813.493 413.611 813.493 499.616C813.493 537.498 806.729 575.111 793.397 611.46C793.372 611.557 793.324 611.63 793.299 611.727C786.876 628.442 783.616 646.202 783.616 664.449C783.616 712.622 812.69 767.753 852.736 795.537C854.829 796.973 856.532 798.797 857.821 800.865C862.152 806.656 863.612 814.247 861.422 821.497C858.405 831.448 849.403 838.114 838.99 838.114H838.966ZM648.927 726.806C652.261 726.806 655.569 727.804 658.44 729.774C694.156 754.372 734.86 769.797 777.68 775.125C747.073 741.672 727.39 694.959 727.39 651.676C727.39 630.875 731.113 610.608 738.46 591.485C749.287 561.949 754.761 531.415 754.761 500.711C754.761 431.104 728.266 367.045 680.167 320.356C632.237 273.814 566.839 248.195 496.016 248.195C350.768 248.195 232.575 365.682 232.575 510.103C232.575 654.523 350.744 772.011 496.016 772.011C547.546 772.011 597.251 757.34 639.755 729.555C642.553 727.731 645.74 726.831 648.927 726.831V726.806Z" fill="#6D3CFF"/>
		<path d="M624.767 526.866C612.651 512.171 596.448 502.852 575.889 498.765C579.782 496.162 584.113 493.145 588.857 489.69C593.407 486.016 597.713 481.686 601.606 476.503C605.498 471.321 608.734 465.263 611.337 458.548C613.941 451.833 615.23 444.267 615.23 436.068C615.23 423.514 613.065 411.86 608.734 401.252C604.404 390.644 598.126 381.569 590.146 374.003C582.142 366.436 572.191 360.597 560.732 356.486C549.273 352.374 536.305 350.208 522.024 350.208H427.698C417.747 350.208 408.891 353.444 401.324 359.94C393.758 366.436 389.865 375.511 389.865 387.627L390.084 388.284V642.601C390.084 654.499 393.977 663.792 401.543 670.288C409.11 676.784 417.99 680.02 427.917 680.02H526.987C547.521 680.02 565.038 677.198 579.758 671.797C594.258 666.396 606.35 659.048 615.668 649.73C624.962 640.436 631.896 629.828 636.202 617.712C640.533 605.596 642.698 593.066 642.698 580.074C642.698 559.321 636.64 541.585 624.743 526.866H624.767ZM463.925 407.821H512.17C530.685 407.821 545.672 422.832 545.672 441.323C545.672 459.813 530.661 474.825 512.17 474.825H463.925V407.821ZM526.841 613.966H464.192V539.152H526.841C554.625 539.152 570.293 556.523 570.293 576.96C570.293 597.397 554.09 613.966 526.841 613.966Z" fill="white"/>
	</g>
	<defs>
		<clipPath id="clip0_4012_60333">
			<rect width="692.26" height="650.816" fill="white" transform="translate(170.17 187.298)"/>
		</clipPath>
	</defs>
</svg>