<?xml version="1.0" encoding="utf-8"?>
<!-- Generator: Adobe Illustrator 25.4.1, SVG Export Plug-In . SVG Version: 6.00 Build 0)  -->
<svg version="1.1" id="Laag_1" xmlns="http://www.w3.org/2000/svg" xmlns:xlink="http://www.w3.org/1999/xlink" x="0px" y="0px"
	 viewBox="0 0 200 100" style="enable-background:new 0 0 200 100;" xml:space="preserve">
<style type="text/css">
	.st0{fill-rule:evenodd;clip-rule:evenodd;fill:#FFFFFF;}
	.st1{fill-rule:evenodd;clip-rule:evenodd;fill:#FF5400;}
</style>
<path class="st0" d="M131.6,87.9c1.4-0.2,2.9-0.2,4-1.2c4.8,0.7,9.6-0.4,13.2-3.1c2-1.6,3.7-3.4,5.2-5.5c1.3-1.8,2.3-3.4,2.9-5.4
	c0.5-1.2,0.9-2.5,1.1-3.8c1.4-6.2,0.6-13-1.4-18.9c-0.4-1.1-0.8-2.1-1.2-3.2c-2.5-5.2-5.9-10.7-11.1-14c-3-1.8-5.7-4.7-7.4-7.7
	c-0.9-0.8-1.5-1.7-2.7-1.9c0.3,0.5,0.6,0.9,0.7,1.6l-0.1,0.1c-1.3,0-2.4-0.7-3.3-1.4l0.9-0.9c-0.4-0.2-0.8-0.2-1.2-0.3
	c-3.6-0.4-6.6,1.2-9.7,2l-0.1,0.2c2,0.9,2.4,3,3.5,4.5c0.3-0.3,0.8-0.1,1.2-0.1c0.6,0,1.1,0.4,1.7,0.3c0-0.5-0.3-0.9-0.3-1.3
	c0.3-0.2,0.7,0,1.1,0c1,0.6,2.9,0,3.5,1.4c-1.2,0.1-2.3,0.3-3.4,0.6c0.1,0.4,0.5,0.9,0.5,1.3c-0.9-0.4-1.9-0.6-3-0.8l-0.1,0
	c1.3,1.6,3,2.5,4.8,3c2.7,0.6,5.1-0.7,7.7-0.2c6.4,2.9,12,9.6,14.4,15.9c0.1,0.3,0.2,0.6,0.3,0.9c2,5.8,2.6,12.6,0.7,18.7
	c-1.1,2.5-1.8,4.8-3.7,6.8c-0.7,0.9-1.7,2-2.5,2.7c-2.7,2.1-6.4,3.5-9.8,2.6c-0.2-0.1-1.2-0.2-1.2-0.6c0.1-0.5,0.4-1.7,0.5-2.2
	c0.6-2.9,0.8-5.9,0.7-9c0-0.1,0-0.3,0-0.4c-0.2-4.4-1.3-8.2-2.9-12c-1-2.2-2.1-4.3-3.6-6.4c-1.9-2.6-4.1-4.7-7-5.8
	c-1.8-0.5-3.9-0.8-5.2,0.7c-1,0.9-1.5,2.2-1.3,3.5c-1.5,1-3.5,1.5-5.3,1.7c-0.5,0-1.2,0.1-1.7,0.1s-1.1-0.1-1.5-0.2
	c-2.3-0.3-4.2-1.4-6-2.8c0-0.9-0.1-1.8-0.1-2.8c-1-0.5-1.8-1.8-1.9-3l0.3-0.1c0.6,0.2,0.8,0.3,1.3,0.6c-0.2-1.4-0.5-2.2-1.2-3.4
	c-0.6-0.3-1.4-0.7-2-1c-0.7-0.5-1.1-1.6-1.2-2.4c0.6,0.6,1.8,0.2,2.3,0.8c-0.8-2.5-0.9-4.8-2.2-7.1c-0.7-1.7-2.3-2.3-3.6-3.6
	c-0.5-0.6-0.7-1.5-1.5-1.6c-0.7-0.2-1-1.4-1.1-1.9c0.4,0.1,0.8,0.5,1.2,0.5c-1-2.7-1.7-5.4-4.5-7.1L89,15.7
	c-1.1,0.2-2.4,0.1-3.5,0.2c0.5-0.7,1.1-1.1,1.8-1.4c-0.8-0.6-0.8-0.6-1.8-0.8c-0.6,0.6-1.9,0.9-2.6,1l-0.1-0.1
	c0-0.6-0.4-1.5,0.6-1.7c-0.9-0.4-1.9-0.2-2.8,0.1c-0.3,0.7-1.1,1.1-1.1,1.9c-0.6,0.6-1.2,1.5-1.8,1.9c0-1.4,0.5-2.5,0.7-3.7
	c-0.8,0.3-1.4,0.6-2.2,1c-1.3-0.7-2-1.2-3.4-1.7c-0.1-0.1-0.6-0.5-0.5-0.3c1.2,0.8,0.4,2.5,0.5,3.7l-1-0.7c-0.4-0.9-1.4-1.5-1.6-2.4
	c-1.2,0.2-1.6,0.3-2.7,0.7l0.8,0.5c0.8,0,0.5,0.8,0.9,1.4c-1.3,0.1-2.4-0.4-3.6-0.6c-0.1-0.1-0.2-0.3-0.4-0.2
	c-0.6,0.2-1.2,0.7-1.7,1.1c-1.2,1.2-2.2,2-2.8,3.7c0.4,0.1,0.9,0.1,1.2,0.3c-0.7,0.4-1.6,1.6-2.2,2c-0.2,0.9-0.2,2-0.2,3
	c-0.5,0.8-1.2,1.5-1.5,2.4c-1.1,3.6-1.4,7.6-1.2,11.5c-0.4,0.3-0.8,0.6-1.2,0.8l0.2,2h0.1c0.2-0.8,1.1-1.2,1.6-1.7H58
	c-0.1,0.8-0.4,3.2-0.4,4.1l-1,0.9c-1,0.9-0.3,1.1-0.4,2.2c0.1,0.3,0.1,0.7,0.3,0.8c0.1-0.4,0.5-0.8,0.8-1.2c0.4-0.1,0.8-0.5,1.2-0.5
	c-0.2,0.9-0.4,3-0.8,3.8c-0.2,0.1-0.4,0.3-0.5,0.4c-0.2,0.2-0.3,0.4-0.4,0.7c0.8,4.2,2.1,8.4,3.5,12.3c-1,1.7-1.5,3.6-2.3,5.3
	c-0.1,0.2-0.2,0.5-0.3,0.7c-0.8,2.1-1.1,4.4-2.1,6.4c-0.4-0.3-0.9-0.5-1.3-0.7c-1.9-0.6-4.2-0.2-5.6,1.2c-1.2-0.2-2.5,0-3.5,0.6
	c-0.7,0.5-1.2,1.2-1.6,1.9c-0.2,0.5-0.3,1.1-0.3,1.7c-0.8,0.5-1.2,1.4-1.5,2.3c-0.4,1.9,0.1,3.6,1.2,5.1l31.3,0l0.7,0.4l3.9,0l1,0.2
	l51.1,0L131.6,87.9z"/>
<path class="st1" d="M156.8,50.2c-0.4-1.1-0.8-2.1-1.2-3.2c-2.5-5.2-5.9-10.8-11.2-14.1c-3-1.8-5.7-4.7-7.4-7.7
	c-0.9-0.8-1.8-1.9-3-2.1c0.3,0.5,0.7,1.1,0.8,1.7l-0.1,0.1c-1.2,0-2.2-0.6-3.1-1.4l0.9-0.9c-0.4-0.2-0.8-0.3-1.2-0.3
	c-3.6-0.4-6.6,1.2-9.7,2l-0.1,0.2c2,0.9,2.4,3,3.5,4.5c0.3-0.3,0.8-0.1,1.2-0.1c0.6,0,1.1,0.4,1.7,0.3c0-0.5-0.2-0.9-0.3-1.3
	c0.3-0.2,0.7,0,1.1,0c1,0.6,2.7-0.1,3.3,1.3c-1.2,0.1-2.3,0.3-3.4,0.6c0.1,0.4,0.5,0.8,0.5,1.2c-0.9-0.4-1.9-0.6-3-0.8l-0.1,0.2
	c1.3,1.6,3.2,2.5,5,3.1c2.7,0.6,5.1-0.7,7.7-0.2c6.4,2.9,11.8,9.6,14.2,16c0.1,0.3,0.2,0.6,0.3,0.9c2,5.8,2.4,12.9,0.4,19
	c-1.1,2.5-2.2,4.9-4.1,6.9c-0.7,0.9-1.5,1.6-2.3,2.3c-2.7,2.1-6,3-9.4,2.1c-0.2-0.1-0.6-0.2-0.6-0.6c0.1-0.5,0.2-1,0.3-1.5
	c0.6-2.9,0.8-5.9,0.7-9c0-0.1,0-0.3,0-0.4c-0.2-4.4-1.1-8.4-2.7-12.2c-1-2.2-2.3-4.6-3.8-6.7c-1.9-2.6-4.2-4.8-7.1-5.9
	c-1.8-0.5-4.1-0.6-5.4,0.9c-1,0.9-1.4,2-1.2,3.3c-1.5,1-3.3,1.5-5.1,1.7c-0.5,0-0.9,0.2-1.4,0.2s-0.9,0-1.3-0.1
	c-2.3-0.3-4.5-1.5-6.3-2.9c0-0.9-0.1-1.8-0.1-2.8c-1-0.5-1.8-1.5-1.9-2.7l0.1-0.1c0.6,0.2,1.1,0.5,1.6,0.8c-0.2-1.4-0.5-2.8-1.2-4
	c-0.6-0.3-1.3-0.5-1.9-0.8c-0.7-0.5-1.1-1.3-1.2-2.1c0.6,0.6,1.7,0.4,2.2,1c-0.8-2.5-0.9-5.3-2.2-7.6c-0.7-1.7-2.5-2.4-3.8-3.7
	c-0.5-0.6-0.7-1.4-1.5-1.5c-0.7-0.2-0.8-1-0.9-1.5c0.4,0.1,0.8,0.4,1.2,0.4c-1-2.7-1.9-5.8-4.7-7.5l-0.5,0.3
	c-1.1,0.2-2.2,0.2-3.3,0.3c0.5-0.7,1.3-1,2-1.3c-0.8-0.6-1.4-0.7-2.4-0.9c-0.6,0.6-1.6,0.9-2.3,1L83,14.5c0-0.6-0.2-1.4,0.8-1.6
	c-0.9-0.4-2.5-0.3-3.4,0c-0.3,0.7-1,1.3-1,2.1c-0.5,0.6-0.9,1.3-1.5,1.7c0-1.4,0.6-2.6,0.8-3.8c-0.8,0.3-1.6,0.7-2.4,1.1
	c-1.3-0.7-2.6-1.5-4-2c-0.1-0.1-0.4-0.1-0.3,0.1c1.2,0.8,0.7,2.4,0.8,3.6l-0.7-0.6c-0.4-0.9-1.4-1.6-1.6-2.6c-1.2,0.2-2,0.6-3.1,1
	l-0.2,0.1c0.8,0,1.5,0.7,2,1.3c-1.3,0.1-2.4-0.4-3.6-0.6c-0.1-0.1-0.2-0.3-0.4-0.2c-0.6,0.2-1.2,0.7-1.7,1.1
	c-1.2,1.2-2.5,2.5-3.1,4.1c0.4,0.1,0.9,0.1,1.2,0.3c-0.7,0.4-1.3,1.1-1.9,1.5c-0.2,0.9-0.2,2-0.3,3c-0.5,0.8-1.2,1.5-1.5,2.3
	C56.8,30,56.5,34,56.7,38c-0.4,0.3-0.8,0.6-1.2,0.8v3.6h0.1c0.2-0.8,1.1-1.2,1.6-1.7h0.2c-0.1,0.8-0.2,1.6-0.2,2.5l-1,0.9
	c-1,0.9-0.2,2.3-0.2,3.4c0.1,0.3,0.1,0.7,0.3,0.8c0.1-0.4,0.5-0.8,0.8-1.2c0.4-0.1,0.8-0.5,1.2-0.5c-0.2,0.9-0.5,1.8-0.9,2.6
	c-0.2,0.1-0.4,0.3-0.5,0.4c-0.2,0.2-0.3,0.4-0.4,0.7c0.8,4.2,2.1,8.4,3.5,12.4c-1,1.7-1.5,3.6-2.4,5.3c-0.1,0.2-0.2,0.5-0.3,0.7
	c-0.8,2.1-1.1,4.4-2.1,6.4c-0.4-0.3-0.9-0.5-1.3-0.7c-1.9-0.6-4.2-0.2-5.6,1.2c-1.2-0.2-2.5,0-3.5,0.6c-0.7,0.5-1.2,1.2-1.6,1.9
	c-0.2,0.5-0.3,1.1-0.3,1.7c-0.8,0.6-1.2,1.4-1.5,2.3C41,84,41.7,86,42.8,87.5h31.5c-0.5-0.5-0.9-1.3-1.2-2c-0.7-1-0.2-2.5-0.3-3.6
	c0.6-1.3,1.3-2.6,2-3.9c0.1-0.3,0.3-0.5,0.4-0.8l1.4-0.6c0.8,0,1.4-0.6,2.1-0.4c1,1,1-1,1.9-1.1c2.2-0.3,4.4-0.1,5.6,1.8
	c0,0.2,0.4,0.2,0.3,0.5c-0.3,0.1-0.6-0.1-0.9-0.1c-1.4-0.3-2.9-1.2-4.3-0.4c-0.1,0.3-0.1,0.6-0.2,1c-0.1,0.3-0.1,0.7-0.2,1
	c0.9,0.2,1.6,0.9,2.3,1.5c0.4-0.9,1.4-1.3,2.2-1.5c0.7,0.2,1.5,0.2,2.1,0.6c1.1,1,0.6,2.8,0.5,4.1c1,0.6,2.1,0.9,3.2,1.4
	c-0.5,0.4-1.1,0.6-1.7,0.8L88,86.3c-0.2-0.1-0.5-0.1-0.6-0.4c-0.6,0.6-1.3,1.4-1.6,2.2h24.4c-0.3-0.7-0.7-1.3-1.1-2
	c-0.5-1.1-0.3-2.5-0.4-3.7l2.3-3.5c1.2,0,2.7-0.5,4-0.2c0.1,0,0.1-0.1,0.2-0.1c0.6-0.4,0.7-1.3,1.6-1.2c1.5-0.4,2.6,0.3,3.8,0.9
	c0,0.1-0.1,0.2-0.1,0.2c-0.5,0.8-1.3-0.1-2,0.1c-0.3,0.3,0.1,0.6,0.2,0.9c0.2,0.3-0.2,0.3-0.4,0.3c-0.4,0.1-0.8,0-1.1-0.3
	c-0.1-0.1,0-0.2-0.2-0.2c-0.3,0.5-0.8,1-0.9,1.6c0.4,0.4,1,0.8,1.2,1.3c0.4,0.6-0.3,1-0.5,1.5c-0.1,0.1-0.2,0.1-0.3,0
	c-0.4-0.2-0.7-0.7-1.1-0.6c-0.4,1.6,0.1,3.2-0.1,4.8c0.7,0.2,1.5,0,2.3,0l0.3-3.3c0.3-2.2,1.6-4,3.1-5.7c1.6-1.1,2.7,1.1,3.9,1.9
	c0.2,0,0.1,0.2,0.2,0.4c0,0.4-0.4,0.5-0.6,0.6c-0.8,0.3-1.3-0.6-1.8-1c-0.4,0.5-0.6,1.1-1.2,1.5l0.2,0.1c0.6,0.6,1.2,1.2,1.3,2
	c-0.1,0.7-0.4,1.4-1.1,1.8c-0.5-0.8-0.9-1.7-1.2-2.6c0,0,0,0.1-0.1,0.1c-1,0.3-1.2,1.4-1.4,2.3c0.1,0.9-0.6,1.2-0.4,2.1h12.7
	c1.4-0.2,2.9-0.2,4-1.2c4.8,0.7,9.6-0.4,13.3-3.1c2-1.6,3.7-3.4,5.2-5.5c1.3-1.8,2.3-3.4,2.9-5.4c0.5-1.2,0.9-2.5,1.1-3.8
	C159.5,62.9,158.8,56,156.8,50.2L156.8,50.2z"/>
<path class="st1" d="M75,83.2c0.7-0.4,1.8-0.6,2-1.6c-0.3-0.2-0.5-0.5-0.9-0.6l-0.7,0.2c0.1-0.4,0.3-0.9,0.4-1.4l2.3-0.8
	c-0.3,1.1-0.4,2.4-0.6,3.6c0.2,1.8,0.5,3.8,1.4,5.3h-2.5C76.2,86.4,74.5,85.2,75,83.2L75,83.2z"/>
<path class="st1" d="M80.5,81.1L80.5,81.1l1.8,1.6l0.2-0.1c-0.1,1.8-0.2,3.6-0.2,5.5h-1.9c-0.4-1.8-1-3.6-0.9-5.5
	C79.9,82.1,80.1,81.5,80.5,81.1L80.5,81.1z"/>
<path class="st1" d="M84.3,82.8c0.3-0.4,0.5-1.2,1.2-1.3c0.5,0,0.9,0.1,1.3,0.4c0.6,0.8,0,1.8-0.2,2.6c-0.3,1.2-0.7,2.4-1.1,3.6
	h-1.8L84.3,82.8L84.3,82.8z"/>
<path class="st1" d="M111.3,82.2c0.4,0.5,0.5,1.2,1.1,1.6c0.5-0.7,0.6-1.8,0.4-2.7l-0.5-0.5c0.7-0.2,1.4-0.2,2-0.3
	c-0.3,0.9-0.8,1.8-0.7,2.9c0,1.6,0.3,3.2,0.4,4.9h-2c-0.7-1.6-1.4-3.1-1.4-4.9C110.9,82.9,111,82.5,111.3,82.2L111.3,82.2z"/>
<path class="st0" d="M119.7,48c0,0.5-0.4,1-0.1,1.4c0.4-0.5,1.1-0.5,1.7-0.7c1.6-0.1,3.1,0.4,4.6,0.7c-0.4-0.6-0.6-1.2-1-1.8
	c-0.8-0.2-2.1,0.4-2.2-0.9c-0.5-0.4-1.3-0.1-1.8-0.1C120.4,47.1,120,47.5,119.7,48L119.7,48z"/>
<path class="st0" d="M65.3,32.6L65.3,32.6L65.3,32.6L65.3,32.6L65.3,32.6z"/>
<path class="st0" d="M71.8,48.5l1.1-1c0.1,0,0.2,0,0.2,0.1l-0.1,2c0.5,0.5,1.2,0.6,1.8,0.7c0.1-0.5,0.5-0.9,0.7-1.4
	c0.2-0.4,0.1-0.9,0.5-1.2l0.1,0.1c0.1,0.6,0.1,1.2,0.4,1.8c0,0.3,0.1,0.6,0.1,0.9c0.8,0,1.5-0.2,2.1-0.5c0-0.7,0.2-1.2,0.3-1.8
	c0.2-0.2-0.2-0.6,0.2-0.6c0.3,0.5,0.7,1.1,0.9,1.7c1-1.1,1.5-2.4,1.7-3.8c-0.3-0.4-0.8-0.4-1.1-0.7c-3-1-6.9-1.2-9.8,0.3
	C70.7,46.2,71,47.5,71.8,48.5L71.8,48.5z"/>
<path class="st0" d="M43.4,81.9c-0.1,1.4,0,2.7,0.1,4c0.3,0.4,0.8,1,1.3,1l0.1-0.9c0.2-1.3-0.5-2.6,0.3-3.7c0.5,0.2,1,0.4,1.4,0.6
	c0.2-1.2-0.1-2.5-1.2-3.3L43.4,81.9L43.4,81.9z"/>
<path class="st0" d="M47.8,80c-0.7,2.1-1.2,4.7-0.4,6.9c0.5-0.3,1-0.6,1.4-1.1c-0.1-1.7-0.3-3.5,0.7-4.9c0.9,0.3,1.5,1.1,1.8,1.9
	c0.6-0.7,0.8-1.8,0.6-2.8c0-0.8-0.9-0.6-1.3-0.9c0.1-0.7,0.1-1.4,0.8-1.8l-2.1,0.2C48.8,78.3,48.2,79.1,47.8,80L47.8,80z"/>
<path class="st0" d="M52.2,86.1c0.1,0.2,0,0.4,0.2,0.5c0.3-1.5,1.5-2.5,2.1-3.8c0.3-0.4,0.3-1.1,0.8-1.4c0.7,0,1.2,0.5,1.9,0.6
	c0.2,0.2-0.1,0.3-0.1,0.5c-0.1,1.2-0.6,2.2-0.5,3.5h0.1c0.9-1,1.6-2.1,2.3-3.2l0.1-1c0.2-1.2-1.2-2-2-2.5l0.8-1l-1.1-0.4
	c-1.2,0.1-2.4,0.6-3.2,1.6C52.5,81.5,52.3,83.7,52.2,86.1L52.2,86.1z"/>
<path class="st0" d="M57,75.6c0.4,0.1,0.8-0.2,1.2,0c1.6,0.6,3.3,1.2,4.6,2.6l1.5,3.7l0.7-2.3l-0.5-1.2c-0.4-0.9-1.5-0.8-2.3-0.9
	c-0.3-0.4,0-0.8,0.1-1.1c0.4-1.3-1.2-1.2-1.8-1.7c0-0.8-0.9-0.5-1.4-0.6L59,73.8c-0.1-0.2-0.4-0.2-0.5,0c0-0.1-0.1-0.1-0.1-0.2
	L58,73.7C57.4,74.2,57.1,74.8,57,75.6L57,75.6z"/>
<path class="st0" d="M58.1,71.5c0.1,0.2,0.2,0.5,0.4,0.6c0.8-0.2,1.6-0.8,2.5-0.4c1.2,1.1,2.4,2.2,3.9,2.7l0.5-0.1
	c0.3,0.1,0.7,0.1,0.9,0.5c0.2,0.5-0.3,0.8-0.5,1.2c0.8,0.6,0.5,1.6,1,2.4l1.3-1.7c-0.3-0.8,0-2-1.2-2.1c-0.4-0.2-0.7-0.6-0.6-1
	c-0.8-0.7-1.7-1-2.5-1.7c-0.6-0.5-1-1.3-1.8-1.4c-0.6-0.3-1.2-0.5-1.8-0.6C59,69.5,58.9,70.9,58.1,71.5L58.1,71.5z"/>
<path class="st0" d="M59.8,67.9l0.2,0.3c0.9-0.1,1.7-0.4,2.6-0.4c0.6,0.4,1.4,0.3,2,0.6c0.5,0.7,1,1.4,1.7,1.8
	c1.4,0.2,2.2,1.8,2.7,2.9v-0.5c0.2-0.8,0-1.7-0.3-2.4c-0.4-0.4-0.9-0.6-1.2-0.9c-0.1-0.2,0-0.3,0.1-0.6c-0.6-0.6-1.4-0.9-2.1-1.4
	c-0.9-1.4-2.8-1-4.2-1.4L59.8,67.9L59.8,67.9z"/>
<path class="st0" d="M59.8,54.9c0.2,0.6,0.4,1.2,0.5,1.8c0.5-1.1,1.5-1.6,2.4-2.5c-0.5-0.3-1.1-0.5-1.7-0.6l0,0
	C60.5,54,59.9,54.3,59.8,54.9L59.8,54.9z"/>
<path class="st0" d="M63,60.7l0.8-0.8c0.8-0.8,1.5-1.8,1.6-2.8c-0.6-0.3-1.3-0.1-1.9,0.1C63.3,58.4,63,59.5,63,60.7L63,60.7z"/>
<path class="st0" d="M63.6,63.3c1.2,0.1,2.4,0.3,3.4-0.4l1-3.2c-0.3,0-0.6-0.2-0.9-0.1C66.4,61.1,65.1,62.5,63.6,63.3L63.6,63.3z"/>
<path class="st0" d="M63.9,51.9c0.8,1.2,2.1,2.5,3.5,2.9c-0.2-1.5-1.4-2.5-2.1-3.8v-0.4c-0.5-0.5-1.1-0.8-1.7-1.1
	C63.5,50.3,63.8,51.1,63.9,51.9L63.9,51.9z"/>
<path class="st0" d="M68.3,63.4c0.9,0.2,2,0,2.8-0.3c1.3-0.3,2-1.7,2.4-2.8h-1.6L70.2,62C69.5,62.4,68.9,62.9,68.3,63.4L68.3,63.4z"
	/>
<path class="st0" d="M68.1,50.3c0.3,1.4,0.9,2.7,1.7,3.8l0.2-2.7L68.1,50.3L68.1,50.3z"/>
<path class="st0" d="M73.9,57.2c0.1-0.9-0.3-1.9-0.4-2.8c-0.5-0.4-1.3-0.3-1.8-0.7C71.8,55.1,72.9,56.3,73.9,57.2L73.9,57.2z"/>
<path class="st0" d="M72.3,66.2c1.1-0.4,2.2-0.7,3.2-1.3c0.7-0.9,1.7-1.8,1.8-2.9c-0.8,0.2-1.5,0-2.3,0.3c-0.5,0.8-0.8,1.8-1.6,2.4
	C73.3,65.4,72.6,65.8,72.3,66.2L72.3,66.2z"/>
<path class="st0" d="M74.1,68.4l1.3,1.7c0.7,0.2,1.6,0.2,2.2-0.2l-0.5-1.6C76.2,68.7,75.1,68.6,74.1,68.4L74.1,68.4z"/>
<path class="st0" d="M76.3,55.8l0.5,2.4c1.2-1,1.5-2.5,1.5-4.1C77.6,54.9,77.1,55.4,76.3,55.8L76.3,55.8z"/>
<path class="st0" d="M79.8,60c0,0.3,0.1,0.7,0.3,0.9c1.4,0.5,1.5,2.2,2.8,2.8c0.8,0.4,1.8-0.1,2.5-0.4c-0.5-0.6-1.2-1.1-1.7-1.7
	c-0.3-0.2-0.7-0.4-0.7-0.9L79.8,60L79.8,60z"/>
<path class="st0" d="M80.9,68.4c0.6,0.7,1.4,1.1,2.3,1.2c-0.1-0.2,0.1,0,0.1-0.1l-1.1-2.3c-0.5,0-1.1,0.1-1.6,0.1
	C80.7,67.6,80.8,68,80.9,68.4L80.9,68.4z"/>
<path class="st0" d="M82.8,57.4c-0.5-1.2-0.7-2.6-0.9-3.8c-0.5,0.6-1.1,1.1-1.6,1.7C80.1,56.6,82,56.9,82.8,57.4L82.8,57.4z"/>
<path class="st0" d="M85,56.2c0.6,0.8,2.1,0.6,2.8,0.3c-0.4-0.6-1.6-1-1.8-1.7c-0.1-1.2-0.4-2.4-0.8-3.5
	C84.6,52.8,83.9,54.6,85,56.2L85,56.2z"/>
<path class="st0" d="M86.1,60c1.8,1.3,3.5,2.8,6,2.3c0.2-0.1,0.5-0.1,0.5-0.3c-0.7-0.5-1.5-0.8-2.3-1.2l-0.9-1.2H89
	C88.1,59.7,87.1,59.9,86.1,60L86.1,60z"/>
<path class="st0" d="M86.1,74.4L86.1,74.4c1.2-0.9,2.4-1.1,3.7-1.5c0.3,0.1,0.1,0.5,0.4,0.6c0.8-0.3,1.7-0.2,2.5-0.5
	c0.9,0,1.7,0.1,2.5,0.5c0.6,0.8,1.7,0.7,2.5,1.2l-0.1-1.2c-1.7-1.9-4.2-2.1-6.6-2l-0.1-0.3c-0.6,0-1.2,0.1-1.7,0.4
	c-0.8,0-1.5,0.4-2.2,0.6C86.6,72.9,86.4,73.7,86.1,74.4L86.1,74.4z"/>
<path class="st0" d="M87.5,52.5c0.7,0.9,1.7,1.6,2.9,1.4c-0.6-0.6-1.3-1.2-1.3-2c0.2-1.6-1.6-1.7-2.4-2.5
	C87,50.4,86.9,51.6,87.5,52.5L87.5,52.5z"/>
<path class="st0" d="M87.4,77.6h0.2c0.9-0.6,2.3-0.1,3.2-0.8c0.5-0.3,0.6,0.4,0.9,0.6c0.9,0.5,1,2.1,2.2,1.8
	c1.5,0.8,1.1,2.6,1.2,3.9l1.4-0.9c-0.1-0.7,0.3-1.5-0.2-2.1c-0.3-0.8-1.3-0.8-1.7-1.5c0.5-0.9-0.7-1.3-0.9-2l0.1-0.1l1.9,0.2
	c0.6,0.4,0.9,1.1,1.1,1.8c1.5,0.2,1.8,1.9,2.4,3c0.3-0.7,0.4-1.5,0.7-2.2c0-0.6-0.8-0.6-1.2-0.9c-0.1-0.9-0.5-1.8-1.3-2.3
	c-1.6-0.4-3.1-1.3-4.9-1.3L91,75.3c-0.8,0.2-1.7-0.1-2.3,0.5C87.7,75.9,87.6,76.9,87.4,77.6L87.4,77.6z"/>
<path class="st0" d="M88.3,70.2l0.3,0.2c0.7-0.3,1.5-0.7,2.2-1c1.2-0.3,2.1,1,3.1,0.2c0.4-0.3,0.7,0.1,1,0.3
	c0.4,0.8,1.4,0.7,2.2,0.9c-0.4-1-0.8-2.4-2.1-2.6c-0.5-0.2-1.1-0.2-1.6-0.5c-1.4-1.5-2.3,1.2-3.8,0.6C89.1,68.9,88.4,69.5,88.3,70.2
	L88.3,70.2z"/>
<path class="st0" d="M88.6,78.9c0.6,0.5,1.2,1.3,2.1,1.2c1.1,0.5,0.6,2,1.2,2.7l0.6-0.6h-0.1l0.1-0.1v0.1c0.2-0.5-0.1-1.5-0.4-2.1
	c-0.4-0.3-0.9,0-1.3-0.2c-0.1-0.6-0.4-0.9-0.8-1.2c-0.3-0.2-0.7,0.1-1,0.1L88.6,78.9L88.6,78.9z"/>
<path class="st0" d="M90.9,57.2c0.6,1,1.7,1.6,2.6,2.3c0.7,0.3,1.7,0.4,2.5,0.2c-0.8-0.6-1.5-1.3-2.1-2.1c-0.2-0.4-0.3-0.8-0.6-1.1
	C92.5,56.7,91.5,56.6,90.9,57.2L90.9,57.2z"/>
<path class="st0" d="M91.9,50.8c0.8,1,2.1,0.6,3.2,0.6v-0.1l-1.8-1.5C92.8,50,92.3,50.4,91.9,50.8L91.9,50.8z"/>
<path class="st0" d="M59.1,34l1,3.2c0-1.8,0.8-3.3,0.6-5.2l0.8-1.1l-1.6,0.5C59.5,32.2,59.1,33,59.1,34L59.1,34z"/>
<path class="st0" d="M59.8,28.5l1.4-0.8v-2.1c-0.6,0.4-0.9,1-1.4,1.4V28.5L59.8,28.5z"/>
<path class="st0" d="M88.7,31.7c-0.3,0.4-0.9,0.6-1.3,0.6c0.7-1.4,1.1-3.3,0.5-4.8c0.4-0.1,0.8-0.2,1.2-0.4l0,0l1-0.9
	c1.3-0.9,0.8-2.6,1.3-3.8c-0.6-1-0.8-2.2-1.8-3h0.1c-0.7-0.9-2-0.8-3-1.3c-1.3-0.4-2.3,0.5-3.3,1.1c-0.4,0.1-0.2,0.6-0.6,0.6
	c-0.2,0.7-0.6,1.4-0.7,2.1c-1.8-0.3-3.7-0.1-5.1,0.9c-0.8-0.6-1.7-0.7-2.5-0.9c-0.6-0.1-1.4,0.1-1.8-0.3c-0.7-0.8-0.8-2.2-2-2.3
	c-0.4-0.1-0.5-0.6-0.5-1c-0.8-0.1-1.4-0.5-2.2-0.6c-1.1-0.5-2,0.3-2.9,0.9c-0.4,0.2-0.8,0.2-1.2,0.4c-0.6,1-1.2,2-1.7,3.1
	c0.1,0.9,0.5,1.7,1,2.5c0.4,1.2,1.7,2.1,2.8,2.5c-0.5,1.8-0.5,3.9,0,5.6l0,0l-0.1,0.1c-0.2,0-0.4,0-0.5-0.1l0,0
	c0.3,1.7,1.1,3.2,2.4,4.5c0.5,0.2,0.4,0.7,0.5,1.1c0.1,0.2,0.1,0.5,0.1,0.6c-2.8-0.1-5.3,0.6-7.5,1.9c-0.6,0.3-0.3,1.1-0.4,1.6
	c1.6-1,3.3-1.8,5.1-2.1c0.8-0.1,1.7-0.2,2.5,0l0.1,1.5c-2.1,1.1-4.4,1.7-6.3,3.6c0,0.5-0.1,1.2,0.1,1.7l1.6-1.3
	c1.6-1.2,3.2-2.2,5-2.9c0.5,0.6,1,1.2,1.6,1.5c1.1-0.7,2.3-1.2,3.5-1.5c0.7-0.4,1.7,0,2.1-0.8l0.3-1.6c-0.1,0-0.1-0.1-0.2-0.1
	c-0.8-0.5-1.4-1.3-1.3-2.3c-0.3,0.1-0.6,0.2-0.9,0.2c-0.3-0.1-0.6-0.1-0.7-0.4c0-0.4-0.2-0.9,0.2-1.2c1.2-0.7,2.7-0.7,4.1-0.6
	c1.1,0.1,2.7,0.1,3,1.4c-0.1,0.4,0,0.8-0.4,1s-0.8,0-1.2-0.2c-0.3,0.9-0.8,1.9-1.7,2.1l0.1,1c0.1,0.5,0.2,1.2,0.9,1.1
	c1.7,0.4,3.2,1.3,4.7,2.2c0.5-0.5,0.9-1.1,1.2-1.6c2.6,0.9,4.9,2.9,7.1,4.7l0.1-1.5c-2.1-1.8-4.4-3.1-6.8-4.2
	c0.1-0.5,0.2-0.9,0.2-1.5c2.8,0.2,5.5,1,7.9,2.4v-1.3c-2.5-1.3-5.1-2.2-8.1-2.2c-0.1-0.2-0.1-0.4-0.1-0.6c1.4-0.2,2.4-1.7,2.8-3
	c0.7-0.8,1.8-1.7,1.5-3c0-0.1,0.1-0.2,0.1-0.3C88.7,32.3,88.8,32,88.7,31.7L88.7,31.7z"/>
<path class="st0" d="M91.1,36.3l1.5-0.5l0.2-0.8c0.4-1.2-0.5-2.1-0.9-3L91.1,36.3L91.1,36.3z"/>
<path class="st0" d="M94.8,41.9c0.7,0.8,1.4,2,2.6,1.6c-0.1-0.5-0.4-0.9-0.6-1.4c-0.3-0.4-0.4-1.4-1.1-1.1c-0.5-0.3-0.6-0.9-0.9-1.3
	C94.7,40.4,94.8,41.3,94.8,41.9L94.8,41.9z"/>
<path class="st0" d="M95.1,47.1c0.3,0.4,0.3,0.9,0.6,1.2c0.5,0.3,1.2,0.3,1.8,0.2c0.5-0.1,0.9,0.5,1.4,0.1c-0.6-0.4-1-1.1-1.6-1.6
	C96.5,46.5,95.8,47,95.1,47.1L95.1,47.1z"/>
<path class="st0" d="M96,55.4c1.2,0.7,2.8,1.4,4.4,1.2c0.2-0.1,0.5-0.1,0.5-0.3c-1-0.4-2.1-1.4-3.2-1.6c-0.6-0.9-1.4,0.2-2.1,0.2
	C95.7,55.1,95.9,55.3,96,55.4L96,55.4z"/>
<path class="st0" d="M99.7,71.2l0.3,0.6c0.3,1.9,1.4,3.6,0.8,5.6c0.5,0.4,0.7,1,1,1.5h0.1c0.4-1.5,0.1-3.2-0.1-4.7
	C102,72.7,100.5,71.9,99.7,71.2L99.7,71.2z"/>
<path class="st0" d="M100,52.9c0.9,0.7,2.4,0.8,3.5,0.4c-0.7-0.4-1.4-0.8-2-1.3L100,52.9L100,52.9z"/>
<path class="st0" d="M104.4,58.4c-0.1,0.7,0.4,1.4,0.9,1.7c0.2-0.4,0.5-0.8,0.5-1.3c-0.2-0.8-0.6-1.5-1.3-2
	C104.5,57.3,104.4,57.8,104.4,58.4L104.4,58.4z"/>
<path class="st0" d="M104.5,66.5c-0.1,0.8,0.8,0.9,1.2,1.4c0.3,0.4-0.2,0.7-0.2,1c0.7,0.9,1.1,1.9,1.1,3c0.3-1.1,0.7-2.1,0.8-3.2
	c-0.1-0.8-1.3-0.6-1.1-1.5c0.4-0.9-0.1-1.8-0.3-2.6c-0.1-0.1-0.2-0.4-0.4-0.3C105.2,65.1,104.4,65.6,104.5,66.5L104.5,66.5z"/>
<path class="st0" d="M106.9,62.3l0.9,1.8c0.4-0.1,0.7-0.4,1-0.7c0.2-0.7-0.4-1.2-0.6-1.8c-0.2-0.4,0-1-0.3-1.4
	c-0.2-0.1-0.5-0.4-0.8-0.3L106.9,62.3L106.9,62.3z"/>
<path class="st0" d="M108.1,57.5c0.7,0.4,1.6,1.1,2,1.9c0.6,1.8,1.6,3.5,2.4,5.2c0.3,1.2,0.5,2.3,0.8,3.5c0.1,0.3,0.1,0.9,0.6,0.9
	c0.1-1.4,0.4-2.7,0.4-4.1c-0.4-0.6-1-0.8-1.6-1.2v-0.1c0.1-0.3,0.3-0.7,0.7-0.6c0.2-0.2,0.6-0.4,0.4-0.7c-0.9-0.9-0.9-2.5-2.4-2.8
	c-0.5-0.2-0.6-0.7-0.7-1.2C110,57.7,109,57.6,108.1,57.5L108.1,57.5z"/>
<path class="st0" d="M109,67.2c0.9,0.8,0.6,2,0.5,3.2c-0.1,0.7,0.7,0.3,1,0.6c0.6,0.8,0.2,2,0,2.9c0.5-0.7,1-1.4,1.4-2.2
	c0-0.3,0.4-0.4,0.4-0.8c0.2-0.5-0.4-0.3-0.7-0.3c-0.2-0.1-0.4-0.2-0.4-0.5c0.5-0.9,0-2-0.1-2.8c-0.2-0.7,0.1-1.7-0.3-2.4
	C110.2,65.7,108.5,65.9,109,67.2L109,67.2z"/>
<path class="st0" d="M110.6,54.5c1.6,1.6,2.7,3.2,4.5,4.8c0-0.7-0.1-1.3-0.1-2c-0.2-0.5-0.7-0.8-1.1-1.2
	C112.6,56,112,54.3,110.6,54.5L110.6,54.5z"/>
<path class="st0" d="M114.8,63c0,0.2,0.1,0.3,0.2,0.5c0.7,1.1,1.4,2.3,1.8,3.5c-0.1-1.3,0.7-3-0.4-4c-0.2-0.4-0.7-0.3-1-0.3
	L114.8,63L114.8,63z"/>
<path class="st0" d="M119,76c0.5,0.2,1.1-0.2,1.6-0.5c0.4-0.1,0.8,0.1,1.2,0.4c0.1,0.3,0,0.6,0.1,0.8C123,77,124,77.4,125,78
	l0.3-0.3c0.1-0.8-0.5-1.3-1.1-1.7c-0.4-0.2-0.9-0.1-1.2-0.4c0.2-0.3,0.2-0.7,0.2-1c-0.6,0-1-0.2-1.4-0.5c-0.3-0.1-0.6-0.3-0.8,0
	C120,74.7,119.9,75.6,119,76L119,76z"/>
<path class="st0" d="M120.3,53.6c0.4-0.1,0.9-0.3,1.3-0.6c1.2-1.1,2.9-0.4,4.3-0.4c-0.3-0.5-0.6-1-1-1.4c-0.5-0.2-1-0.4-1.5-0.4
	c-1.2-0.7-2,0.5-3,1.1C120.2,52.4,120,53.1,120.3,53.6L120.3,53.6z"/>
<path class="st0" d="M120.3,57.3C120.3,57.2,120.3,57.2,120.3,57.3c0.3,0,0.1,0.4,0.4,0.5c0.5-0.2,0.9-0.6,1.3-0.9
	c1.2,0,1.9-1.2,3.1-1.2c2,0.4,3.9,0.7,5.6,1.7c-0.1-1.2-1.1-2.2-2.1-2.7c-0.6-0.2-1,0.1-1.4,0.4c-1.2,0.7-0.6-1.1-1.4-1.1
	c-1.1,0.3-2.2,0.7-3.4,0.6c-0.7,0.3-1.2,0.9-2,0.9C120.2,56.1,120.1,56.8,120.3,57.3L120.3,57.3z"/>
<path class="st0" d="M121.1,61.3c0.4,0.4,1,0.3,1.5,0.4l1.5-0.6c0-0.3-0.5-0.4-0.4-0.7c0.4-0.5,1-0.1,1.5-0.3
	c0.7-0.1,1.5-0.9,2.3-0.3c0,0.1,0,0.2,0,0.3c-0.2,0.6,0.2,0.9,0.6,1.1c0.9,0.2,1.7,1,2.6,0.6c-0.1-0.7-0.3-1.4-0.5-2.1
	c-0.7-0.1-1.2-0.7-1.9-1c-0.3,0.3-0.7,0.5-1.1,0.5c-1.4-0.3-3-1.2-4.4-0.3c-0.5,0.6-1.4,0.4-2.1,0.7C120.9,60.1,121,60.7,121.1,61.3
	L121.1,61.3z"/>
<path class="st0" d="M121.7,71.9c-0.1,0.3-0.4,0.8,0.1,0.9c1.1,0,2.6-0.6,3.5,0.3c0.3,0.2,0.2,0.7,0.1,1l1.5,1.2
	c0.1-0.8,0.4-1.4,0.4-2.2c-0.1-0.6-0.4-1.1-0.9-1.5c-1,0-1.5-1.1-2.6-1c-0.5-0.1-1,0.4-1.6,0.4C122.1,71.3,121.9,71.6,121.7,71.9
	L121.7,71.9z"/>
<path class="st0" d="M122.2,63.5c0.2,0.5,0.5,1.3,0.9,1.3c1.1-0.5,2.6-0.7,3.8-0.2c0.4,0.1,0.4,0.5,0.3,0.8c0.6,0.4,1.3,0.6,2,1
	l-0.2-1.1c0-1.2-1.5-1.3-1.6-2.4c-1.2-0.4-2.5-0.5-3.8-0.2c-0.4,0.4-1,0.3-1.5,0.4C122.1,63.2,122.1,63.3,122.2,63.5L122.2,63.5z"/>
<path class="st0" d="M122.5,69.2c0.7-0.2,1.1-1,1.9-1c1.1,0,2.2,0.5,2.9,1.5c0.4,0.3,0.3,1,0.9,1c-0.2-0.9,0.1-1.7,0.1-2.6
	c-0.7-1.2-2.6-0.3-3.3-1.7l-1.3,0.1c-0.9,0.2-0.7,1.3-0.8,2.1C122.7,68.8,122.4,68.9,122.5,69.2L122.5,69.2z"/>
<path class="st0" d="M129,77c0.5,1.1,1.8,1.9,1.9,3.2c0.3-0.3,0.5-0.7,0.7-1.1c0-0.4-0.4-0.4-0.6-0.6c-0.2-0.5,0.1-0.9,0.2-1.3
	c-0.2-0.7-0.8-1.3-1.4-1.7L129,77L129,77z"/>
<path class="st0" d="M131.2,74.2l1.3,1.7c0.6-0.9,0.6-2.2,0.3-3.2c-0.1-0.2-0.4-0.5-0.7-0.4C131.7,72.9,131.6,73.6,131.2,74.2
	L131.2,74.2z"/>
<path class="st0" d="M126,25.4c0.5,0.2,0.9,0.4,1.5,0.5c0.4-0.2,0.9-0.3,1.3-0.2c0.7,0.4,1.5-0.1,2.2-0.1c-0.7-0.6-1.4-1-2.2-1.4
	C127.8,24.5,127,25.2,126,25.4L126,25.4z"/>
<path class="st0" d="M132.9,27.1c0.9,0.1,1.6,0.9,2.3,1.6c0.8,0.1,1.4,0.7,1.9,1.3l-0.3-0.9c-0.2-0.9-0.8-1.7-1.4-2.4
	C134.5,26.7,133.7,26.8,132.9,27.1L132.9,27.1z"/>
<path class="st1" d="M66.5,19.3l0.5,0.1c1.4,0.7,3.6,1.1,3.8,3.1c-1.4,0.6-2.8,1.3-3.9,2.4C66,24,64.3,24.5,64,23
	C64.2,21.5,64.8,19.7,66.5,19.3L66.5,19.3z"/>
<path class="st1" d="M67.8,28.3c1.6-0.1,3.2,0.1,4.9-0.1c0.4,0.2,0.8,0.5,1,0.9C73.6,31.2,73,33,73,35c-0.7,0.3-1.4,0.9-1.6,1.7
	c-0.7,0.2-1.2,0.6-1.9,0.9c-0.3-0.6-0.2-1.5,0.3-2c0.7-1,2.5-0.7,2.4-2.3c0.5-0.7,0-1.7,0-2.5C72,30.2,71.8,31,71.6,31
	c-0.6,0.1-1.2,0.2-1.7-0.1c-0.4-0.4-0.8-0.7-0.9-1.2c-0.5-0.3-1.1-0.6-1.3-1.2L67.8,28.3L67.8,28.3z"/>
<path class="st1" d="M69.7,39.9c0.8,0.1,1.6-0.2,2.2,0.1c-0.1,0.3-0.5,0.4-0.8,0.4L70,41.1C69.5,41,69.8,40.3,69.7,39.9L69.7,39.9z"
	/>
<path class="st1" d="M72.9,25.1c0.8-0.2,1.6-0.8,2.4-0.5c-0.6,0.6-1,1.4-1.5,2.1l-2.4-0.1C71.6,25.9,72.3,25.4,72.9,25.1L72.9,25.1z
	"/>
<path class="st1" d="M80,24.5c1-0.2,1,1.1,1.9,1.2c0.2,0.2,0.4,0.4,0.3,0.7c-0.5,0.2-1.3,0.1-1.9,0.2c-0.8-0.4-0.3-1.8-1.5-1.7
	c-0.1-0.1-0.2-0.3,0-0.4C79.1,24.4,79.6,24.4,80,24.5L80,24.5z"/>
<path class="st1" d="M79.4,29.3c0.4-0.6,1.1-0.7,1.8-0.8l4.6,0.1c0.2,0.2-0.2,0.3-0.2,0.6c-0.3,0.3-0.7,0.3-0.9,0.6
	c-0.6,0-0.6,0.7-1,1c-0.7,0.7-1.6,0.4-2.4,0.3c-0.3-0.2-0.6-0.5-0.7-0.8l-0.2,0.2c0.3,1,0.2,2.1,0.4,3.1l1.1,0.7
	c0,1.6,1.9,1.2,2.8,2.1c-0.2,0.6-0.6,1.1-1,1.6c-0.7-0.7-1.4-1.1-2.3-1.4c-0.1-1-1.1-1.5-1.7-2c-0.2-1.7-0.2-3.5-0.5-5.2L79.4,29.3
	L79.4,29.3z"/>
<path class="st1" d="M81,40.3h2.1l-0.3,1.1l-2.1-0.9C80.7,40.3,80.9,40.2,81,40.3L81,40.3z"/>
<path class="st1" d="M84.9,20.1l1.6-0.5c0.9,0.4,1.8,1,2.6,1.6c0.7,1.2,0.6,2.9,0.2,4.2c-0.5,0.5-1.5,0-1.9,0.9h-0.1
	c-0.6-1.7-2.3-3.2-3.8-3.9C83.8,21.4,84,20.6,84.9,20.1L84.9,20.1z"/>
</svg>
