<?xml version="1.0" encoding="utf-8"?>
<!-- Generator: Adobe Illustrator 25.4.1, SVG Export Plug-In . SVG Version: 6.00 Build 0)  -->
<svg version="1.1" id="Laag_1" xmlns="http://www.w3.org/2000/svg" xmlns:xlink="http://www.w3.org/1999/xlink" x="0px" y="0px"
	 viewBox="0 0 200 100" style="enable-background:new 0 0 200 100;" xml:space="preserve">
<style type="text/css">
	.st0{fill:#FFFFFF;}
	.st1{fill:url(#SVGID_1_);}
	.st2{fill:#E43121;}
	.st3{fill:#EF8365;}
	.st4{fill:#B72B18;}
	.st5{fill:#F4AFAB;}
	.st6{fill:#D37784;}
	.st7{fill:#D89D9A;}
	.st8{fill:#F8D0CC;}
	.st9{fill:none;}
	.st10{fill:#F8F8FB;}
	.st11{fill:#F2F1F8;}
	.st12{fill:#DBD9ED;}
	.st13{fill:#2B2B84;}
	.st14{fill:#484292;}
	.st15{fill:#24236F;}
	.st16{fill:#8E87BF;}
	.st17{fill:url(#SVGID_00000032606301309386997730000005559817257935588499_);}
	.st18{fill:#BAB6DA;}
	.st19{fill:#AFA9D3;}
	.st20{fill:#D0CBE5;}
	.st21{fill:#FFDC00;}
	.st22{fill:#DABA84;}
	.st23{fill:#EAC436;}
	.st24{fill:#FFE067;}
	.st25{fill:#E9583C;}
	.st26{fill:#D32F1E;}
	.st27{fill:#C12C1A;}
	.st28{fill:#F8F7FA;}
	.st29{fill:url(#SVGID_00000093860397037064819560000007886448979563331262_);}
	.st30{fill:#A49ECD;}
	.st31{fill:url(#SVGID_00000058548370532868202520000001422713901569855130_);}
	.st32{fill:url(#SVGID_00000065061328884093570240000015938239358792880570_);}
	.st33{fill:#EC6F50;}
	.st34{fill:#A52714;}
	.st35{fill:url(#SVGID_00000026882012807599673230000005315190607267550868_);}
	.st36{fill:url(#SVGID_00000152242383397279324890000016629841852239394237_);}
	.st37{fill:#D0CDE7;}
	.st38{fill:url(#SVGID_00000089567260606330529900000012983031581560484514_);}
	.st39{fill:url(#SVGID_00000011740290915174572140000018011583537554601103_);}
	.st40{fill:#FFCA00;}
	.st41{fill:#FFF7C6;}
	.st42{fill:url(#SVGID_00000078748298355053108660000008164881654262334872_);}
	.st43{fill:url(#SVGID_00000137818044967443644400000002494668071838006704_);}
	.st44{fill:url(#SVGID_00000083771744304651240860000001623141301543063681_);}
	.st45{fill:#1E398D;}
	.st46{fill:#2F2481;}
	.st47{fill:url(#SVGID_00000149366504965642090750000009408169379237682108_);}
	.st48{fill:#5B549E;}
	.st49{fill:url(#SVGID_00000056417632754431037600000015910081812767033988_);}
	.st50{fill:url(#SVGID_00000098214799065282126160000004880980202288149418_);}
	.st51{fill:#D9D7EC;}
	.st52{fill:url(#SVGID_00000034799265118185033430000009370370540228669843_);}
	.st53{fill:#C92D0A;}
	.st54{fill:url(#SVGID_00000080914820435173528160000000559262187325846686_);}
	.st55{fill:#7B73B2;}
	.st56{fill:#655EA4;}
	.st57{fill:url(#SVGID_00000011713488094802534190000017944629750532244880_);}
	.st58{fill:url(#SVGID_00000147202167391329440740000011396293846094882478_);}
	.st59{fill:url(#SVGID_00000054255649480255181400000006002946985371896727_);}
	.st60{fill:#F9D8D4;}
	.st61{fill:url(#SVGID_00000120558434140118537240000000701400642654386580_);}
</style>
<path class="st0" d="M140.8,50c0,22.5-18.2,40.7-40.7,40.7S59.4,72.5,59.4,50S77.6,9.3,100.1,9.3C122.5,9.3,140.8,27.5,140.8,50
	L140.8,50z"/>
<circle class="st0" cx="100" cy="50" r="40.9"/>
<linearGradient id="SVGID_1_" gradientUnits="userSpaceOnUse" x1="2214.9712" y1="7004.7095" x2="2236.2383" y2="7004.7095" gradientTransform="matrix(0.7347 0.2075 -0.2075 0.7347 -56.8579 -5557.4243)">
	<stop  offset="0" style="stop-color:#E43121"/>
	<stop  offset="1" style="stop-color:#C12C1A"/>
</linearGradient>
<path class="st1" d="M100,50l15.2-8.4l24.2,19.7L100,50z"/>
<path class="st2" d="M115.1,41.6l24.2,19.7l-2.4-1.3l-21.7-17.8v-0.6H115.1z"/>
<path class="st3" d="M100,50l15.2-8.4l-0.1,0.7l-13.7,7.6L100,50z"/>
<path class="st4" d="M139.3,61.3L100,50l1.4-0.2L136.9,60L139.3,61.3z"/>
<path class="st5" d="M100,50l15.2-8.4l-3.9-30.9L100,50z"/>
<path class="st6" d="M111.3,10.6L100,50l0.9-1.1l10.2-35.6L111.3,10.6z"/>
<path class="st7" d="M115.1,41.6l-3.9-30.9l-0.2,2.7l3.5,27.9L115.1,41.6z"/>
<path class="st8" d="M100,50l15.2-8.4l-0.6-0.3l-13.7,7.6L100,50z"/>
<path class="st9" d="M100,50l8.4,15.2L88.7,89.4L100,50z"/>
<path class="st10" d="M108.4,65.2L88.7,89.4L90,87l17.8-21.8H108.4z"/>
<path class="st11" d="M100,50l8.4,15.2l-0.7-0.1l-7.6-13.7L100,50z"/>
<path class="st12" d="M88.7,89.4L100,50l0.2,1.4L89.9,86.9L88.7,89.4z"/>
<path class="st13" d="M100,50l8.4,15.2l30.9-3.9L100,50z"/>
<path class="st14" d="M139.3,61.3L100,50l1.1,0.9l35.6,10.2L139.3,61.3z"/>
<path class="st15" d="M108.4,65.2l30.9-3.9l-2.7-0.2l-27.9,3.5L108.4,65.2z"/>
<path class="st16" d="M100,50l8.4,15.2l0.3-0.6l-7.6-13.7L100,50z"/>
<linearGradient id="SVGID_00000159451232058547429900000000546981070112885425_" gradientUnits="userSpaceOnUse" x1="2142.4583" y1="7020.4922" x2="2195.8276" y2="7020.4922" gradientTransform="matrix(0.7347 0.2075 -0.2075 0.7347 -56.8579 -5557.4243)">
	<stop  offset="0" style="stop-color:#DBD9ED"/>
	<stop  offset="1" style="stop-color:#8E87BF"/>
</linearGradient>
<path style="fill:url(#SVGID_00000159451232058547429900000000546981070112885425_);" d="M100,50l-15.2,8.4L60.6,38.7L100,50z"/>
<path class="st18" d="M84.8,58.4L60.6,38.7L63,40l21.8,17.8V58.4z"/>
<path class="st19" d="M100,50l-15.2,8.4l0.1-0.7l13.7-7.6L100,50z"/>
<path class="st20" d="M60.6,38.7L100,50l-1.4,0.2L63.1,40L60.6,38.7z"/>
<path class="st21" d="M100,50l-15.2,8.4l3.9,30.9L100,50z"/>
<path class="st22" d="M88.7,89.4L100,50l-1,1.1L88.9,86.7L88.7,89.4z"/>
<path class="st23" d="M84.8,58.4l3.9,30.9l0.2-2.7l-3.5-27.9L84.8,58.4z"/>
<path class="st24" d="M100,50l-15.2,8.4l0.6,0.3l13.7-7.6L100,50z"/>
<path class="st2" d="M100,50l-8.4-15.2l19.7-24.2L100,50z"/>
<path class="st25" d="M91.5,34.8l19.7-24.2l-1.3,2.4L92.2,34.9L91.5,34.8z"/>
<path class="st26" d="M100,50l-8.4-15.2l0.7,0.1l7.6,13.7L100,50z"/>
<path class="st27" d="M111.3,10.6L100,50l-0.2-1.4L110,13.1L111.3,10.6z"/>
<path class="st11" d="M100,50l-8.4-15.2l-30.9,3.9L100,50z"/>
<path class="st28" d="M60.6,38.7L100,50l-1.1-0.9L63.3,39L60.6,38.7z"/>
<path class="st12" d="M91.5,34.8l-30.9,3.9l2.7,0.2l27.9-3.5L91.5,34.8z"/>
<path class="st10" d="M100,50l-8.4-15.2l-0.3,0.6l7.6,13.7L100,50z"/>
<linearGradient id="SVGID_00000114070285904494445260000007027249735771768983_" gradientUnits="userSpaceOnUse" x1="-560.4009" y1="105.0512" x2="-562.8066" y2="104.4067" gradientTransform="matrix(8.6441 0 0 8.6441 4972.2412 -878.0503)">
	<stop  offset="0" style="stop-color:#7B73B2"/>
	<stop  offset="1" style="stop-color:#C5C1E1"/>
</linearGradient>
<path style="fill:url(#SVGID_00000114070285904494445260000007027249735771768983_);" d="M129.5,21.6c-5.1-5.2-11.3-8.9-18.2-11
	l3.9,30.9L129.5,21.6z"/>
<path class="st16" d="M111.3,10.6l3.9,30.9l0.3-1.4l-3.6-29.3C111.7,10.8,111.4,10.7,111.3,10.6L111.3,10.6z"/>
<path class="st30" d="M129,21.2l-13.5,19l-0.3,1.4l14.2-20.1C129.3,21.4,129.2,21.3,129,21.2L129,21.2z"/>
<linearGradient id="SVGID_00000120540684256300648420000008297534475060630170_" gradientUnits="userSpaceOnUse" x1="-560.1931" y1="104.0573" x2="-562.3625" y2="102.8047" gradientTransform="matrix(8.6441 0 0 8.6441 4972.2412 -878.0503)">
	<stop  offset="0" style="stop-color:#6C62A7"/>
	<stop  offset="1" style="stop-color:#CAC9E5"/>
</linearGradient>
<path style="fill:url(#SVGID_00000120540684256300648420000008297534475060630170_);" d="M129.5,21.6c-5.1-5.2-11.3-8.9-18.2-11
	L112,12c6.2,1.9,11.8,5.4,16.4,10L129.5,21.6z"/>
<linearGradient id="SVGID_00000177446462093992373360000005191810287125351817_" gradientUnits="userSpaceOnUse" x1="-561.323" y1="104.6658" x2="-560.0305" y2="106.9046" gradientTransform="matrix(8.6441 0 0 8.6441 4972.2412 -878.0503)">
	<stop  offset="0" style="stop-color:#E43121"/>
	<stop  offset="1" style="stop-color:#A52714"/>
</linearGradient>
<path style="fill:url(#SVGID_00000177446462093992373360000005191810287125351817_);" d="M115.1,41.6l14.2-20.1
	c5,5.1,8.5,11.5,10.3,18.5L115.1,41.6z"/>
<path class="st33" d="M129.5,21.6l-14.3,20l1.1-0.6l13.6-19C129.7,21.9,129.5,21.7,129.5,21.6z"/>
<path class="st34" d="M139.6,39.5L116.3,41l-1.1,0.6l24.5-1.5C139.7,39.9,139.6,39.7,139.6,39.5L139.6,39.5z"/>
<linearGradient id="SVGID_00000097478250103232018430000008247472263546141841_" gradientUnits="userSpaceOnUse" x1="-560.2318" y1="104.0757" x2="-558.9792" y2="106.2452" gradientTransform="matrix(8.6441 0 0 8.6441 4972.2412 -878.0503)">
	<stop  offset="0" style="stop-color:#E74D2C"/>
	<stop  offset="1" style="stop-color:#801F08"/>
</linearGradient>
<path style="fill:url(#SVGID_00000097478250103232018430000008247472263546141841_);" d="M138.5,39.6c-1.7-6.2-4.9-12-9.3-16.8
	l0.3-1.3c5,5.1,8.5,11.5,10.3,18.5L138.5,39.6z"/>
<linearGradient id="SVGID_00000062884686770831741370000006893994201434035365_" gradientUnits="userSpaceOnUse" x1="-560.6322" y1="105.9001" x2="-559.527" y2="108.9368" gradientTransform="matrix(8.6441 0 0 8.6441 4972.2412 -878.0503)">
	<stop  offset="0" style="stop-color:#F2F1F8"/>
	<stop  offset="1" style="stop-color:#BAB6DA"/>
</linearGradient>
<path style="fill:url(#SVGID_00000062884686770831741370000006893994201434035365_);" d="M115.1,41.6l24.5-1.5
	c1.7,6.7,1.7,14-0.3,21.2L115.1,41.6z"/>
<path class="st37" d="M139.7,40.1l-24.5,1.5l1.4,0.4l23.3-1.4C139.8,40.5,139.7,40.3,139.7,40.1z"/>
<path class="st11" d="M139.3,61.3c0.1-0.2,0.1-0.4,0.2-0.6l-22.9-18.6l-1.4-0.4L139.3,61.3z"/>
<linearGradient id="SVGID_00000115495446677769884630000000562302629452155563_" gradientUnits="userSpaceOnUse" x1="-559.4775" y1="107.3242" x2="-558.7373" y2="107.5364" gradientTransform="matrix(8.6441 0 0 8.6441 4972.2412 -878.0503)">
	<stop  offset="0" style="stop-color:#FFFFFF"/>
	<stop  offset="1" style="stop-color:#BAB6DA"/>
</linearGradient>
<path style="fill:url(#SVGID_00000115495446677769884630000000562302629452155563_);" d="M138.6,59.9c1.7-6.5,1.7-13.1,0.2-19.2
	l1-0.6c1.7,6.7,1.7,14-0.3,21.2L138.6,59.9z"/>
<linearGradient id="SVGID_00000142136092372485239810000014306496211844902531_" gradientUnits="userSpaceOnUse" x1="2142.9182" y1="6999.0176" x2="2178.2124" y2="6999.0176" gradientTransform="matrix(0.7347 0.2075 -0.2075 0.7347 -56.8579 -5557.4243)">
	<stop  offset="0" style="stop-color:#FFEF97"/>
	<stop  offset="1" style="stop-color:#FFD430"/>
</linearGradient>
<path style="fill:url(#SVGID_00000142136092372485239810000014306496211844902531_);" d="M71.6,20.6c-5.1,4.8-8.8,11-11,18.1
	l30.9-3.9L71.6,20.6z"/>
<path class="st40" d="M60.6,38.7l30.9-3.9l-1.4-0.3l-29.3,3.6C60.8,38.3,60.7,38.5,60.6,38.7L60.6,38.7z"/>
<path class="st21" d="M71.1,20.9l19,13.5l1.4,0.3l-20-14.2C71.4,20.7,71.3,20.8,71.1,20.9L71.1,20.9z"/>
<path class="st41" d="M71.6,20.6c-5.2,5-8.9,11.2-11,18.1l1.3-0.8c1.9-6.2,5.4-11.8,10-16.4C72.1,21.6,71.6,20.6,71.6,20.6
	L71.6,20.6z"/>
<linearGradient id="SVGID_00000011751338232132118690000010052842644042685375_" gradientUnits="userSpaceOnUse" x1="-566.7838" y1="103.4353" x2="-564.0829" y2="104.4184" gradientTransform="matrix(8.6441 0 0 8.6441 4972.2412 -878.0503)">
	<stop  offset="0" style="stop-color:#F3A185"/>
	<stop  offset="1" style="stop-color:#E43121"/>
</linearGradient>
<path style="fill:url(#SVGID_00000011751338232132118690000010052842644042685375_);" d="M91.5,34.8l-20-14.2
	c5.1-5,11.5-8.5,18.5-10.3L91.5,34.8z"/>
<path class="st2" d="M71.6,20.6l20.1,14.2L91,33.7L72,20.2C71.8,20.3,71.7,20.4,71.6,20.6z M89.5,10.4l1.4,23.3l0.6,1.1l-1.4-24.4
	L89.5,10.4z"/>
<linearGradient id="SVGID_00000070113890153370389440000007354108350073236880_" gradientUnits="userSpaceOnUse" x1="-566.9906" y1="103.9879" x2="-564.7519" y2="102.6954" gradientTransform="matrix(8.6441 0 0 8.6441 4972.2412 -878.0503)">
	<stop  offset="0" style="stop-color:#F3A185"/>
	<stop  offset="1" style="stop-color:#E43121"/>
</linearGradient>
<path style="fill:url(#SVGID_00000070113890153370389440000007354108350073236880_);" d="M89.6,11.6c-6.2,1.7-12,4.9-16.8,9.3
	l-1.3-0.3c5.1-5,11.5-8.5,18.5-10.3L89.6,11.6z"/>
<linearGradient id="SVGID_00000124867787374369336330000017062629822567327371_" gradientUnits="userSpaceOnUse" x1="2169.156" y1="6977.6895" x2="2195.8479" y2="6977.6895" gradientTransform="matrix(0.7347 0.2075 -0.2075 0.7347 -56.8579 -5557.4243)">
	<stop  offset="0" style="stop-color:#4464AB"/>
	<stop  offset="1" style="stop-color:#1D3583"/>
</linearGradient>
<path style="fill:url(#SVGID_00000124867787374369336330000017062629822567327371_);" d="M91.5,34.8l-1.4-24.5
	c6.7-1.7,14-1.7,21.2,0.3L91.5,34.8z"/>
<path class="st45" d="M90.1,10.3l1.5,24.5l0.4-1.4l-1.4-23.3C90.4,10.2,90.3,10.2,90.1,10.3z"/>
<path class="st46" d="M111.3,10.6c-0.2-0.1-0.4-0.1-0.6-0.2L92,33.4l-0.4,1.4L111.3,10.6z"/>
<linearGradient id="SVGID_00000089535588009869507390000012977386190576220559_" gradientUnits="userSpaceOnUse" x1="-564.7693" y1="102.7557" x2="-562.3167" y2="102.7557" gradientTransform="matrix(8.6441 0 0 8.6441 4972.2412 -878.0503)">
	<stop  offset="0" style="stop-color:#4464AB"/>
	<stop  offset="0.373" style="stop-color:#2F4B96"/>
	<stop  offset="0.728" style="stop-color:#223B88"/>
	<stop  offset="1" style="stop-color:#1D3583"/>
</linearGradient>
<path style="fill:url(#SVGID_00000089535588009869507390000012977386190576220559_);" d="M109.9,11.4c-6.5-1.7-13.1-1.7-19.2-0.2
	l-0.6-1c6.7-1.7,14-1.7,21.2,0.3L109.9,11.4z"/>
<path class="st13" d="M70.6,78.5c5,5.1,11.3,8.9,18.2,10.9l-3.9-30.9L70.6,78.5z"/>
<path class="st15" d="M88.7,89.4l-3.9-30.9l-0.3,1.4l3.7,29.3C88.3,89.3,88.5,89.3,88.7,89.4L88.7,89.4z"/>
<path class="st48" d="M70.9,78.8l13.5-19l0.3-1.4L70.6,78.5L70.9,78.8z"/>
<linearGradient id="SVGID_00000039845209809398612980000004834853486029624767_" gradientUnits="userSpaceOnUse" x1="-567.1683" y1="110.9086" x2="-564.8405" y2="111.5762" gradientTransform="matrix(8.6441 0 0 8.6441 4972.2412 -878.0503)">
	<stop  offset="0" style="stop-color:#5B62A1"/>
	<stop  offset="0.152" style="stop-color:#4C5799"/>
	<stop  offset="0.482" style="stop-color:#31438B"/>
	<stop  offset="0.776" style="stop-color:#213782"/>
	<stop  offset="1" style="stop-color:#1B3380"/>
</linearGradient>
<path style="fill:url(#SVGID_00000039845209809398612980000004834853486029624767_);" d="M70.6,78.5c5,5.1,11.3,8.9,18.2,10.9L88,88
	c-6.2-1.9-11.8-5.4-16.4-10L70.6,78.5z"/>
<linearGradient id="SVGID_00000107579900927477145210000012873199783931235771_" gradientUnits="userSpaceOnUse" x1="-566.8314" y1="108.3518" x2="-566.6245" y2="110.7161" gradientTransform="matrix(8.6441 0 0 8.6441 4972.2412 -878.0503)">
	<stop  offset="0" style="stop-color:#FFFFFF"/>
	<stop  offset="1" style="stop-color:#D9D7EC"/>
</linearGradient>
<path style="fill:url(#SVGID_00000107579900927477145210000012873199783931235771_);" d="M84.8,58.4L70.6,78.5
	c-5-5.2-8.5-11.6-10.3-18.5L84.8,58.4z"/>
<path class="st19" d="M70.6,78.5l14.2-20.1L83.7,59L70.1,78C70.3,78.1,70.4,78.3,70.6,78.5z"/>
<path class="st51" d="M60.4,60.4L83.6,59l1.1-0.6l-24.4,1.5C60.3,60.1,60.4,60.3,60.4,60.4L60.4,60.4z"/>
<linearGradient id="SVGID_00000004531098307875139340000010290891482803951495_" gradientUnits="userSpaceOnUse" x1="-568.5286" y1="109.3396" x2="-566.813" y2="109.8315" gradientTransform="matrix(8.6441 0 0 8.6441 4972.2412 -878.0503)">
	<stop  offset="0" style="stop-color:#FFFFFF"/>
	<stop  offset="1" style="stop-color:#D0CDE7"/>
</linearGradient>
<path style="fill:url(#SVGID_00000004531098307875139340000010290891482803951495_);" d="M61.5,60.4c1.7,6.2,4.9,12,9.3,16.8
	l-0.3,1.3c-5-5.2-8.5-11.6-10.3-18.5L61.5,60.4z"/>
<path class="st2" d="M84.8,58.4l-24.5,1.5c-1.7-6.7-1.7-14,0.3-21.2L84.8,58.4z"/>
<path class="st53" d="M60.3,59.9l24.5-1.5L83.4,58l-23.3,1.3C60.2,59.5,60.2,59.7,60.3,59.9z"/>
<path class="st33" d="M60.6,38.7c-0.1,0.2-0.1,0.4-0.2,0.6l23,18.7l1.4,0.4L60.6,38.7z M61.4,40.1c-1.7,6.5-1.7,13.1-0.2,19.2
	l-1,0.6c-1.7-6.9-1.5-14.2,0.4-21.2L61.4,40.1z"/>
<linearGradient id="SVGID_00000143575896003055564640000013294117305158261692_" gradientUnits="userSpaceOnUse" x1="2211.8865" y1="7026.2651" x2="2249.2524" y2="7026.2651" gradientTransform="matrix(0.7347 0.2075 -0.2075 0.7347 -56.8579 -5557.4243)">
	<stop  offset="0" style="stop-color:#D0CDE7"/>
	<stop  offset="1" style="stop-color:#7B73B2"/>
</linearGradient>
<path style="fill:url(#SVGID_00000143575896003055564640000013294117305158261692_);" d="M128.4,79.5c5.1-5,8.9-11.3,10.9-18.2
	l-30.9,3.9L128.4,79.5z"/>
<path class="st55" d="M139.3,61.3l-30.9,3.9l1.4,0.3l29.3-3.7C139.2,61.7,139.2,61.5,139.3,61.3L139.3,61.3z"/>
<path class="st37" d="M128.8,79.1l-19-13.5l-1.4-0.3l20.1,14.2C128.5,79.3,128.7,79.2,128.8,79.1z"/>
<path class="st56" d="M128.4,79.5c5-4.8,8.8-11,10.9-18.2L138,62c-1.9,6.2-5.4,11.8-10,16.4L128.4,79.5z"/>
<linearGradient id="SVGID_00000170997676747813193720000005244505556185288330_" gradientUnits="userSpaceOnUse" x1="-562.7184" y1="109.1143" x2="-561.2583" y2="111.6434" gradientTransform="matrix(8.6441 0 0 8.6441 4972.2412 -878.0503)">
	<stop  offset="0" style="stop-color:#E43121"/>
	<stop  offset="1" style="stop-color:#AF2916"/>
</linearGradient>
<path style="fill:url(#SVGID_00000170997676747813193720000005244505556185288330_);" d="M108.4,65.2l20.1,14.2
	c-5.1,5-11.5,8.5-18.5,10.3L108.4,65.2z"/>
<path class="st2" d="M128.4,79.5l-20.1-14.3l0.6,1.1l19,13.6C128.1,79.7,128.3,79.6,128.4,79.5z M110.4,89.6L109,66.3l-0.6-1.1
	l1.5,24.5C110.1,89.7,110.2,89.6,110.4,89.6z"/>
<linearGradient id="SVGID_00000124147209707651385940000010162668251908185777_" gradientUnits="userSpaceOnUse" x1="-562.5337" y1="112.0266" x2="-560.2951" y2="110.734" gradientTransform="matrix(8.6441 0 0 8.6441 4972.2412 -878.0503)">
	<stop  offset="0" style="stop-color:#E43121"/>
	<stop  offset="1" style="stop-color:#9C2511"/>
</linearGradient>
<path style="fill:url(#SVGID_00000124147209707651385940000010162668251908185777_);" d="M110.3,88.5c6.2-1.7,12-4.9,16.8-9.3
	l1.3,0.3c-5.1,5-11.5,8.5-18.5,10.3L110.3,88.5z"/>
<linearGradient id="SVGID_00000082333602936140561590000013526800136507382172_" gradientUnits="userSpaceOnUse" x1="-563.9647" y1="110.3729" x2="-562.3651" y2="111.9724" gradientTransform="matrix(8.6441 0 0 8.6441 4972.2412 -878.0503)">
	<stop  offset="0" style="stop-color:#F4AFAB"/>
	<stop  offset="1" style="stop-color:#EE8394"/>
</linearGradient>
<path style="fill:url(#SVGID_00000082333602936140561590000013526800136507382172_);" d="M108.4,65.2l1.5,24.5
	c-6.7,1.7-14,1.7-21.2-0.3L108.4,65.2z"/>
<path class="st5" d="M109.9,89.7l-1.5-24.5l-0.4,1.4l1.4,23.3C109.5,89.8,109.7,89.8,109.9,89.7z"/>
<path class="st60" d="M88.7,89.4l0.6,0.2l18.7-23l0.4-1.4L88.7,89.4z"/>
<linearGradient id="SVGID_00000072995847878607617010000014136718893383813048_" gradientUnits="userSpaceOnUse" x1="-564.9273" y1="111.9691" x2="-562.4747" y2="111.9691" gradientTransform="matrix(8.6441 0 0 8.6441 4972.2412 -878.0503)">
	<stop  offset="0" style="stop-color:#F4AFAB"/>
	<stop  offset="1" style="stop-color:#ED788E"/>
</linearGradient>
<path style="fill:url(#SVGID_00000072995847878607617010000014136718893383813048_);" d="M90,88.6c6.5,1.7,13.1,1.7,19.2,0.2l0.6,1
	c-7,1.8-14.2,1.6-21.2-0.3L90,88.6z"/>
</svg>
