<?xml version="1.0" encoding="utf-8"?>
<!-- Generator: Adobe Illustrator 25.4.1, SVG Export Plug-In . SVG Version: 6.00 Build 0)  -->
<svg version="1.1" id="Laag_1" xmlns="http://www.w3.org/2000/svg" xmlns:xlink="http://www.w3.org/1999/xlink" x="0px" y="0px"
	 viewBox="0 0 200 100" style="enable-background:new 0 0 200 100;" xml:space="preserve">
<style type="text/css">
	.st0{fill-rule:evenodd;clip-rule:evenodd;fill:#89CC53;}
	.st1{fill-rule:evenodd;clip-rule:evenodd;fill:#238647;}
	.st2{fill-rule:evenodd;clip-rule:evenodd;fill:#2F9B47;}
	.st3{fill-rule:evenodd;clip-rule:evenodd;fill:#62B64F;}
	.st4{fill-rule:evenodd;clip-rule:evenodd;fill:#3DB8AD;}
	.st5{fill-rule:evenodd;clip-rule:evenodd;fill:#3394D7;}
	.st6{fill-rule:evenodd;clip-rule:evenodd;fill:#2872BC;}
	.st7{fill-rule:evenodd;clip-rule:evenodd;fill:#1D5C84;}
	.st8{fill-rule:evenodd;clip-rule:evenodd;fill:#993233;}
	.st9{fill-rule:evenodd;clip-rule:evenodd;fill:#E13030;}
	.st10{fill-rule:evenodd;clip-rule:evenodd;fill:#F28825;}
	.st11{fill-rule:evenodd;clip-rule:evenodd;fill:#F5C836;}
</style>
<path class="st0" d="M89.9,62.8c-6.3,2.9-13.7,0.1-16.6-6.2c-0.7-1.6-1.1-3.4-1.1-5.2V36.8h5.6v14.6c0,4.2,3.1,7.6,6.9,7.6
	c2,0,4-1,5.2-2.6V62.8z"/>
<path class="st1" d="M45.1,25v13.9c4.2-3.2,9.9-3.7,14.6-1.3v6.5c-1.6-2-4-3.2-6.6-3.2c-4.8,0-8.7,4-8.7,9s3.9,9,8.7,9
	c2.6,0,5-1.2,6.6-3.2v6.5c-4.9,2.5-10.8,1.8-15-1.6L44.4,63h-4.9V50.7l0,0c0-0.2,0-0.5,0-0.7V25H45.1z"/>
<path class="st2" d="M49.7,36.6c7.4-2.1,15.1,2.1,17.2,9.5s-2.1,15.1-9.5,17.2c-2.5,0.7-5.2,0.7-7.7,0v-5.1c1.1,0.5,2.3,0.8,3.5,0.8
	c4.8,0,8.7-4,8.7-9s-3.9-9-8.7-9c-1.2,0-2.4,0.3-3.5,0.8V36.6z"/>
<path class="st3" d="M59.7,37.6c6.9,3.5,9.6,11.8,6.1,18.7c-1.3,2.7-3.5,4.8-6.1,6.1v-6.5c2.8-3.4,2.8-8.3,0-11.7
	C59.7,44.2,59.7,37.6,59.7,37.6z"/>
<path class="st4" d="M79.9,56.8c1.2,1.4,3,2.2,4.9,2.2c3.8,0,6.9-3.4,6.9-7.6V36.8h5.6v14.6c0,6.9-5.6,12.5-12.5,12.5
	c-1.7,0-3.3-0.3-4.9-1V56.8z"/>
<path class="st5" d="M89.9,56.4c1.1-1.4,1.7-3.2,1.7-5.1V36.8h5.6v14.6c0,4.9-2.8,9.3-7.3,11.4C89.9,62.8,89.9,56.4,89.9,56.4z"/>
<path class="st6" d="M120.1,43.2c-1.2-1.4-3-2.2-4.9-2.2c-3.8,0-6.9,3.4-6.9,7.6v14.6h-5.6V48.6c0-6.9,5.6-12.5,12.5-12.5
	c1.7,0,3.3,0.3,4.9,1V43.2z"/>
<path class="st7" d="M110.1,37.2c6.3-2.9,13.7-0.1,16.6,6.2c0.7,1.6,1.1,3.4,1.1,5.2v14.6h-5.6V48.6c0-4.2-3.1-7.6-6.9-7.6
	c-2,0-4,1-5.2,2.6V37.2z"/>
<path class="st8" d="M120.1,37.1c4.6,2,7.6,6.5,7.6,11.5v14.6h-5.5V48.6c0-2-0.7-4-2.1-5.5V37.1z"/>
<path class="st9" d="M150.3,63.4c-7.4,2.1-15.1-2.1-17.2-9.5c-2.1-7.4,2.1-15.1,9.5-17.2c2.5-0.7,5.2-0.7,7.7,0v5.1
	c-1.1-0.5-2.3-0.8-3.5-0.8c-4.8,0-8.7,4-8.7,9s3.9,9,8.7,9c1.2,0,2.4-0.3,3.5-0.8V63.4z"/>
<path class="st10" d="M140.3,37.6c4.9-2.5,10.8-1.8,15,1.6l0.3-2.4h4.9V75h-5.6V61.1c-4.2,3.2-9.9,3.7-14.6,1.3v-6.5
	c1.6,2,4,3.2,6.6,3.2c4.8,0,8.7-4,8.7-9s-3.9-9-8.7-9c-2.6,0-5,1.2-6.6,3.2L140.3,37.6z"/>
<path class="st11" d="M150.3,36.6c1.8,0.5,3.5,1.4,4.9,2.6l0.3-2.4h4.9V75h-5.6V61.1c-1.4,1-2.9,1.8-4.5,2.2v-5.1
	c4.6-2.2,6.5-7.7,4.3-12.2c-0.9-1.9-2.4-3.4-4.3-4.3L150.3,36.6z"/>
</svg>
