<?xml version="1.0" encoding="utf-8"?>
<!-- Generator: Adobe Illustrator 25.4.1, SVG Export Plug-In . SVG Version: 6.00 Build 0)  -->
<svg version="1.1" id="Laag_1" xmlns="http://www.w3.org/2000/svg" xmlns:xlink="http://www.w3.org/1999/xlink" x="0px" y="0px"
	 viewBox="0 0 200 100" style="enable-background:new 0 0 200 100;" xml:space="preserve">
<style type="text/css">
	.st0{fill:#D30D47;}
	.st1{fill:#F9BA2E;}
	.st2{fill:#2AAACD;}
	.st3{fill:#55538F;}
</style>
<path class="st0" d="M85,91c-14.4,0-26-11.6-26-26c0-9.4,5-18,13.1-22.6l4.5,7.9c-5.2,3-8.6,8.6-8.6,14.7c0,9.4,7.6,17,17,17
	c6.9,0,13-4,15.6-10.4l8.4,3.5C104.9,84.8,95.5,91,85,91z"/>
<path class="st1" d="M109,75.1l-8.4-3.5c0.9-2.1,1.4-4.2,1.4-6.6c0-9.4-7.6-17-17-17c-2.9,0-5.9,0.7-8.4,2.2l-4.5-7.9
	c3.9-2.2,8.4-3.4,12.9-3.4c14.4,0,26,11.6,26,26C111,68.5,110.4,71.9,109,75.1z"/>
<path class="st2" d="M106.2,78.6C87,78.6,71.4,63,71.4,43.8S87,9,106.2,9s34.7,15.7,34.7,34.8S125.3,78.6,106.2,78.6z M106.2,18.1
	c-14.2,0-25.7,11.5-25.7,25.7S92,69.5,106.2,69.5S132,58.1,132,43.8S120.3,18.1,106.2,18.1L106.2,18.1z"/>
<path class="st3" d="M106.2,78.6C87,78.6,71.4,63,71.4,43.8c0-2.5,2-4.5,4.5-4.5s4.5,2,4.5,4.5c0,14.2,11.5,25.7,25.7,25.7
	c2.5,0,4.5,2,4.5,4.5C110.6,76.5,108.7,78.6,106.2,78.6z"/>
</svg>
