<?xml version="1.0" encoding="utf-8"?>
<!-- Generator: Adobe Illustrator 25.4.1, SVG Export Plug-In . SVG Version: 6.00 Build 0)  -->
<svg version="1.1" id="Laag_1" xmlns="http://www.w3.org/2000/svg" xmlns:xlink="http://www.w3.org/1999/xlink" x="0px" y="0px"
	 viewBox="0 0 200 100" style="enable-background:new 0 0 200 100;" xml:space="preserve">
<style type="text/css">
	.st0{fill:url(#SVGID_1_);}
	.st1{fill:#FFFFFF;}
</style>
<linearGradient id="SVGID_1_" gradientUnits="userSpaceOnUse" x1="59" y1="51.4646" x2="141.0009" y2="51.4646" gradientTransform="matrix(1 0 0 -1 0 101.4646)">
	<stop  offset="0" style="stop-color:#0063A9"/>
	<stop  offset="1" style="stop-color:#008ECD"/>
</linearGradient>
<path class="st0" d="M129,91H71c-6.6,0-12-5.4-12-12V21c0-6.6,5.4-12,12-12h58c6.6,0,12,5.4,12,12l0,58C141,85.6,135.6,91,129,91z"
	/>
<g>
	<g>
		<path class="st1" d="M141,71.9c-0.3-0.8-0.7-1.7-1-3c-2.5,2.8-6.1,4.9-8.9,5.1c-2.8,0.3-4.9-0.3-5.1-0.3c-5.4-1.3-8-4.5-8.1-9.7
			c-0.1-5.2,2.6-9.3,7.7-10.6c3.2-0.9,6.6-1.2,9.8-1.8c0.6-0.1,1.2-0.2,1.8-0.3c1.3-0.3,2.4-0.8,2.6-2.3c0.2-1.6-0.2-2.9-1.7-3.8
			c-3.7-2.2-8.5-0.6-10.1,3.2c-0.1,0.4-0.6,0.8-1,0.8c-2.5,0.1-5.1,0-7.6,0c-0.6-4,2.1-8.9,6.2-10.5c5.1-2,10.3-2.3,15.4-0.7V71.9
			L141,71.9z M139.7,56.5c-2.7,0.6-5.4,1.2-8,1.8c-0.8,0.2-1.5,0.5-2.2,0.8c-1.9,1-2.7,3.1-2.2,5.2s2,3.2,4.3,3.3
			C137.7,67.7,141.3,62.8,139.7,56.5z"/>
		<path class="st1" d="M73.4,25.9c3.2,0,6.3,0,9.7,0c0,5.9,0,11.8,0,17.8c6.3,0,12.5,0,18.8,0c0-6,0-11.8,0-17.8c3.3,0,6.5,0,9.7,0
			c0,15.6,0,31.2,0,47c-3.1,0-6.3,0-9.7,0c0-6.9,0-13.9,0-20.9c-6.3,0-12.4,0-18.8,0c0,6.9,0,13.9,0,21c-3.4,0-6.5,0-9.8,0
			C73.4,57.3,73.4,41.7,73.4,25.9z"/>
	</g>
</g>
</svg>
