<?xml version="1.0" encoding="utf-8"?>
<!-- Generator: Adobe Illustrator 27.2.0, SVG Export Plug-In . SVG Version: 6.00 Build 0)  -->
<svg version="1.1" id="Laag_1" xmlns="http://www.w3.org/2000/svg" xmlns:xlink="http://www.w3.org/1999/xlink" x="0px" y="0px"
	 viewBox="0 0 100 100" style="enable-background:new 0 0 100 100;" xml:space="preserve">
<style type="text/css">
	.st0{fill:#585FFF;}
	.st1{fill:#FFFFFF;}
</style>
<g>
	<g>
		<path class="st0" d="M85.33,81.63H0V33.04c0-8.09,6.58-14.67,14.67-14.67h70.66c8.09,0,14.67,6.58,14.67,14.67v33.92
			C100,75.05,93.42,81.63,85.33,81.63z"/>
	</g>
	<path class="st1" d="M52.58,41.34c-1.61-0.96-3.5-1.52-5.51-1.52c-5.95,0-10.79,4.84-10.79,10.79c0,5.95,4.84,10.79,10.79,10.79
		c2.01,0,3.9-0.55,5.51-1.52v1.38h5.28V39.93h-5.28V41.34z M47.07,56.13c-3.04,0-5.51-2.47-5.51-5.51c0-3.04,2.47-5.51,5.51-5.51
		c3.04,0,5.51,2.47,5.51,5.51C52.58,53.66,50.11,56.13,47.07,56.13z"/>
	<path class="st1" d="M24.98,32.95l-10.44,0v28.33h5.28V52.7h5.26c5.46,0,9.91-4.46,9.88-9.93C34.94,37.32,30.43,32.95,24.98,32.95z
		 M25.02,47.42h-5.18v-9.19h5.26c2.56,0,4.64,2.11,4.59,4.68C29.64,45.43,27.53,47.42,25.02,47.42z"/>
	<circle class="st1" cx="86.05" cy="58.24" r="3.22"/>
	<path class="st1" d="M78.51,39.86L72.3,55.9l-6.39-15.96h-5.78l8.54,21.35h1.54l-0.03,0.07c-0.81,2.09-2.86,3.5-5.1,3.5h-0.62v5.28
		h0.71c4.41,0,8.44-2.76,10.03-6.87l9.05-23.4H78.51z"/>
</g>
</svg>
