<?xml version="1.0" encoding="utf-8"?>
<!-- Generator: Adobe Illustrator 27.2.0, SVG Export Plug-In . SVG Version: 6.00 Build 0)  -->
<svg version="1.1" id="Laag_1" xmlns="http://www.w3.org/2000/svg" xmlns:xlink="http://www.w3.org/1999/xlink" x="0px" y="0px"
	 viewBox="0 0 1200 1200" style="enable-background:new 0 0 1200 1200;" xml:space="preserve">
<style type="text/css">
	.st0{fill:#585FFF;}
	.st1{fill:#FFFFFF;}
</style>
<g>
	<g>
		<path class="st0" d="M1023.98,979.55H0V396.47c0-97.06,78.96-176.02,176.02-176.02h847.95c97.06,0,176.02,78.96,176.02,176.02
			v407.07C1200,900.59,1121.04,979.55,1023.98,979.55z"/>
	</g>
	<path class="st1" d="M631,496.12c-19.36-11.54-41.97-18.19-66.11-18.19c-71.41,0-129.5,58.09-129.5,129.5
		c0,71.41,58.09,129.5,129.5,129.5c24.13,0,46.74-6.64,66.11-18.19v16.62h63.39V479.2H631V496.12z M564.9,673.54
		c-36.45,0-66.11-29.66-66.11-66.11s29.65-66.11,66.11-66.11c36.45,0,66.11,29.66,66.11,66.11S601.35,673.54,564.9,673.54z"/>
	<path class="st1" d="M299.81,395.37l-125.23,0v339.98h63.39V632.37h63.13c65.57,0,118.88-53.53,118.5-119.19
		C419.24,447.79,365.2,395.37,299.81,395.37z M300.19,568.98h-62.21V458.76h63.13c30.75,0,55.69,25.3,55.1,56.18
		C355.64,545.11,330.36,568.98,300.19,568.98z"/>
	<circle class="st1" cx="1032.57" cy="698.86" r="38.68"/>
	<path class="st1" d="M942.06,478.3l-74.4,192.45L791.03,479.2H721.7l102.48,256.15h18.5l-0.34,0.88
		c-9.7,25.09-34.28,41.94-61.18,41.94h-7.48v63.39h8.53c52.89,0,101.23-33.14,120.31-82.47l108.56-280.8H942.06z"/>
</g>
</svg>
