<?xml version="1.0" encoding="utf-8"?>
<!-- Generator: Adobe Illustrator 27.2.0, SVG Export Plug-In . SVG Version: 6.00 Build 0)  -->
<svg version="1.1" id="Laag_1" xmlns="http://www.w3.org/2000/svg" xmlns:xlink="http://www.w3.org/1999/xlink" x="0px" y="0px"
	 viewBox="0 0 50 50" style="enable-background:new 0 0 50 50;" xml:space="preserve">
<style type="text/css">
	.st0{fill:#585FFF;}
	.st1{fill:#FFFFFF;}
</style>
<g>
	<g>
		<path class="st0" d="M42.67,40.81H0v-24.3c0-4.04,3.29-7.33,7.33-7.33h35.33c4.04,0,7.33,3.29,7.33,7.33v16.96
			C50,37.52,46.71,40.81,42.67,40.81z"/>
	</g>
	<path class="st1" d="M26.29,20.67c-0.81-0.48-1.75-0.76-2.75-0.76c-2.98,0-5.4,2.42-5.4,5.4c0,2.98,2.42,5.4,5.4,5.4
		c1.01,0,1.95-0.28,2.75-0.76v0.69h2.64V19.97h-2.64V20.67z M23.54,28.06c-1.52,0-2.75-1.24-2.75-2.75c0-1.52,1.24-2.75,2.75-2.75
		c1.52,0,2.75,1.24,2.75,2.75C26.29,26.83,25.06,28.06,23.54,28.06z"/>
	<path class="st1" d="M12.49,16.47l-5.22,0v14.17h2.64v-4.29h2.63c2.73,0,4.95-2.23,4.94-4.97C17.47,18.66,15.22,16.47,12.49,16.47z
		 M12.51,23.71H9.92v-4.59h2.63c1.28,0,2.32,1.05,2.3,2.34C14.82,22.71,13.77,23.71,12.51,23.71z"/>
	<circle class="st1" cx="43.02" cy="29.12" r="1.61"/>
	<path class="st1" d="M39.25,19.93l-3.1,8.02l-3.19-7.98h-2.89l4.27,10.67h0.77l-0.01,0.04c-0.4,1.05-1.43,1.75-2.55,1.75h-0.31
		v2.64h0.36c2.2,0,4.22-1.38,5.01-3.44l4.52-11.7H39.25z"/>
</g>
</svg>
