<svg id="Laag_1" data-name="Laag 1" xmlns="http://www.w3.org/2000/svg" viewBox="0 0 100 100"><defs><style>.cls-1{fill:#ff9eb7;}</style></defs><rect class="cls-1" width="100" height="100" rx="10.37"/><path d="M74.36,59l-5.87-1L56,55.82c-3.51-.61-7-1.24-10.55-1.84L35.07,52.21c-2.81-.48-5.62-1-8.43-1.45-.86-.15-1.06-.44-.9-1.35a48.46,48.46,0,0,1,5.17-14.86,50.42,50.42,0,0,1,7.47-10.34,51.17,51.17,0,0,1,7.29-6.33c.65-.47,1-.37,1.58.38q3.28,4.64,6.56,9.26Q61.39,38.23,69,48.93c2,2.8,4,5.6,5.93,8.43a1.39,1.39,0,0,1,.2,1.08C75,58.7,74.53,58.83,74.36,59Zm-2-2.18c-.28-.44-.39-.65-.52-.84L51.29,27c-1.24-1.75-1.25-1.76-2.7-.18s-3.12,2.94-5.53,2.94a3.7,3.7,0,0,0-2.86,1.41,5.31,5.31,0,0,0-1,4.07A5.35,5.35,0,0,1,38,39.31c-1.16,1.39-2.37,2.75-3.46,4.19a5.86,5.86,0,0,0-1,6.21,1.13,1.13,0,0,0,.73.57c3.54.64,7.09,1.24,10.64,1.88A.9.9,0,0,0,46,51.64,8.74,8.74,0,0,1,56.64,48.1a8.44,8.44,0,0,1,5.28,6.09c.19.83.64,1,1.36,1.12,2.48.4,4.94.85,7.42,1.26C71.15,56.65,71.62,56.69,72.31,56.77ZM31.57,49.85a4,4,0,0,0,0-.51A7.58,7.58,0,0,1,32.8,43a48.79,48.79,0,0,1,3.23-4,5.23,5.23,0,0,0,1.43-4.16,6.07,6.07,0,0,1,6-7,4.4,4.4,0,0,0,2.3-1,36,36,0,0,0,2.8-2.73.68.68,0,0,0,0-1c-.68-.92-1.35-1.86-2-2.81-.35-.54-.66-.61-1.14-.18-1.66,1.46-3.43,2.81-5,4.37A46.11,46.11,0,0,0,29.15,43c-.57,1.74-1,3.53-1.42,5.31-.06.26.09.8.23.83C29.11,49.44,30.29,49.62,31.57,49.85Zm16,2.74,12.65,2.17c-.29-2.67-2.7-4.9-5.77-5.47A6.85,6.85,0,0,0,47.54,52.59Z"/><path d="M48.63,44.2a6.42,6.42,0,1,1-.49-12.83,6.58,6.58,0,0,1,6.61,5.91A6.42,6.42,0,0,1,48.63,44.2Zm-.36-1.72a4.68,4.68,0,1,0-4.64-4.65A4.74,4.74,0,0,0,48.27,42.48Z"/><path d="M61.73,47.67a24.58,24.58,0,0,1-2.25-1,7.52,7.52,0,0,1-3.22-3.93c-.2-.52-.22-1,.37-1.3s1,.06,1.19.59a6.46,6.46,0,0,0,4,3.87,1.24,1.24,0,0,1,.61.95C62.42,47.09,62,47.37,61.73,47.67Z"/><path d="M42.61,47.13a5.66,5.66,0,0,0-3.93,1.25c-.21.16-.41.33-.63.48a.77.77,0,0,1-1.13-.16.74.74,0,0,1,0-1.13,7.4,7.4,0,0,1,7-2,1.18,1.18,0,0,1,.65.9c0,.44-.33.76-.86.72Z"/><path d="M27.36,71l-2,1.24c-.3-.26-.54-.63-.84-.7a3.3,3.3,0,0,0-1.73-.06,1.31,1.31,0,0,0-.62,1.15,2.41,2.41,0,0,0,1.07,1.19,10.85,10.85,0,0,0,1.81.67c2.2.87,3.1,2.26,2.81,4.3a4.2,4.2,0,0,1-4,3.56,5.14,5.14,0,0,1-4.71-2L21,78.6a3,3,0,0,0,.81.67,6.16,6.16,0,0,0,2.07.54,1.37,1.37,0,0,0,1.39-1.34,1.34,1.34,0,0,0-1-1.58c-.71-.28-1.46-.48-2.17-.77-1.87-.77-2.79-2.13-2.59-3.8a3.93,3.93,0,0,1,3.28-3.51A4,4,0,0,1,27.36,71Z"/><path d="M30.55,69.27H33V82.35H30.55Z"/><path d="M37.89,82.41H36.26l-.77,0v-9h2.4Z"/><path d="M36.66,68.67a1.58,1.58,0,1,1-1.56,1.6A1.6,1.6,0,0,1,36.66,68.67Z"/><path d="M49.14,75.16l-2.08,1.07c-1.43-1.4-2.92-1.34-3.91-.25a2.41,2.41,0,0,0,.12,3.27c1,1,2.4.84,3.75-.4l2.07,1c-.53,1.64-2.6,2.68-4.73,2.42a4.79,4.79,0,0,1-.63-9.43A4.71,4.71,0,0,1,49.14,75.16Z"/><path d="M59.26,78,53,78.71c.87,1.63,2.4,1.71,4.59.42l1.21,1.56a5.07,5.07,0,0,1-6.22,1,4.87,4.87,0,0,1-2-6.25A4.78,4.78,0,0,1,56.43,73,4.35,4.35,0,0,1,59.26,78Zm-6.44-1.07,3.87-.59A1.82,1.82,0,0,0,54.63,75,2,2,0,0,0,52.82,76.92Z"/><path d="M68.5,82.41H66.86l-.77,0v-9H68.5Z"/><path d="M67.26,68.67a1.58,1.58,0,0,1,0,3.16,1.58,1.58,0,1,1,0-3.16Z"/><path d="M76.1,80.13V82.3A4,4,0,0,1,71.29,79c-.25-2.85-.06-5.74-.06-8.66h2.39c0,1.69,0,3.43,2.37,3.63v2.51l-2.2-.67C73.15,78.4,73.78,79.6,76.1,80.13Z"/><path d="M79.22,79.25a1.58,1.58,0,1,1-1.56,1.6A1.59,1.59,0,0,1,79.22,79.25Z"/></svg>