<svg id="Laag_1" data-name="Laag 1" xmlns="http://www.w3.org/2000/svg" xmlns:xlink="http://www.w3.org/1999/xlink" viewBox="0 0 100 100"><defs><style>.cls-1{fill:url(#Naamloos_verloop_24);}.cls-2{fill:#fff;}</style><linearGradient id="Naamloos_verloop_24" x1="3.05" y1="96.95" x2="96.95" y2="3.05" gradientUnits="userSpaceOnUse"><stop offset="0" stop-color="#55804e"/><stop offset="0.34" stop-color="#508189"/><stop offset="0.59" stop-color="#336a88"/><stop offset="1" stop-color="#133269"/></linearGradient></defs><rect class="cls-1" width="100" height="100" rx="10.37"/><path class="cls-2" d="M30.77,32c8-.5,17,2.95,19.82,11a19.68,19.68,0,0,1,1.11,5.57c0,.24-.06.34-.3.33q-9.24,0-18.48,0c-.16,0-.3,0-.28.3,0,.53,0,1.06,0,1.58s.32.36.65.36c6.07,0,12.13,0,18.2,0,.15,0,.22,0,.2.22a17.58,17.58,0,0,1-1.46,6.43c-4,9.81-16.48,12-25.69,9.25C14.15,64.13,10,51.92,14,42.46,16.52,35.67,23.84,32.19,30.77,32ZM54.38,67H79a8.06,8.06,0,0,0,8.49-6.87c.38-10-8.26-9.24-15.52-9.1-6,0-11.95,0-17.92,0V67Zm0-18.18c5.1,0,10.2,0,15.3,0,6.64-.11,17.2,1.84,17.8-7.58C88,36,82.91,32.4,78,32.93c-8,0-16,0-23.94,0V48.86Z"/></svg>