<?xml version="1.0" encoding="utf-8"?>
<!-- Generator: Adobe Illustrator 25.4.0, SVG Export Plug-In . SVG Version: 6.00 Build 0)  -->
<svg version="1.1" id="Laag_1" xmlns="http://www.w3.org/2000/svg" xmlns:xlink="http://www.w3.org/1999/xlink" x="0px" y="0px"
	 viewBox="0 0 100 100" style="enable-background:new 0 0 100 100;" xml:space="preserve">
<style type="text/css">
	.st0{fill:#24AC71;}
	.st1{fill:url(#SVGID_1_);}
	.st2{fill:url(#SVGID_00000173137733258795352570000016343269092591370172_);}
	.st3{fill:url(#SVGID_00000181084211606998468160000013753206301194192827_);}
	.st4{fill:url(#SVGID_00000030468651331334995800000008345060665451693752_);}
	.st5{fill:#FFFFFF;}
</style>
<path class="st0" d="M10.4,0h79.3C95.4,0,100,4.6,100,10.4v79.3c0,5.7-4.6,10.4-10.4,10.4H10.4C4.6,100,0,95.4,0,89.6V10.4
	C0,4.6,4.6,0,10.4,0z"/>
<linearGradient id="SVGID_1_" gradientUnits="userSpaceOnUse" x1="27.0623" y1="82.8811" x2="63.7823" y2="10.4712" gradientTransform="matrix(1 0 0 -1 0 100)">
	<stop  offset="0" style="stop-color:#003972"/>
	<stop  offset="1" style="stop-color:#003163"/>
</linearGradient>
<path class="st1" d="M17.5,49.2L17.5,49.2v33.3h33.3c17.9-0.4,32.1-15.3,31.7-33.3S67.2,17.1,49.2,17.5
	C31.9,17.9,17.9,31.9,17.5,49.2"/>
<linearGradient id="SVGID_00000064340619338621804540000012502838857037031090_" gradientUnits="userSpaceOnUse" x1="29.8602" y1="57.5205" x2="96.5502" y2="32.3305" gradientTransform="matrix(1 0 0 -1 0 100)">
	<stop  offset="0" style="stop-color:#99BF80"/>
	<stop  offset="1" style="stop-color:#239C70"/>
</linearGradient>
<path style="fill:url(#SVGID_00000064340619338621804540000012502838857037031090_);" d="M47.6,42.6c-1.8,0-3.5,0.7-4.7,1.9
	c-1.3,1.2-2,2.9-2,4.7c0,1.8,0.7,3.5,2,4.7c1.2,1.3,2.9,1.9,4.7,1.9h6.7v-6.6c0-1.8-0.7-3.5-2-4.7C51.1,43.3,49.4,42.6,47.6,42.6
	 M51.5,53.2h-3.9c-1,0-2.1-0.4-2.8-1.2c-1.5-1.6-1.5-4.1,0-5.6c1.5-1.5,3.9-1.6,5.4-0.1c0,0,0.1,0.1,0.1,0.1
	c0.7,0.7,1.2,1.8,1.1,2.8L51.5,53.2z"/>
<linearGradient id="SVGID_00000177463609675269178510000010547933781203529390_" gradientUnits="userSpaceOnUse" x1="32.3213" y1="61.2334" x2="97.1413" y2="36.7434" gradientTransform="matrix(1 0 0 -1 0 100)">
	<stop  offset="0" style="stop-color:#99BF80"/>
	<stop  offset="1" style="stop-color:#239C70"/>
</linearGradient>
<path style="fill:url(#SVGID_00000177463609675269178510000010547933781203529390_);" d="M67.4,43.8c-0.5,0.5-0.8,1.2-0.8,1.9v7.6
	H63c-1,0-2-0.4-2.7-1.1c-0.7-0.7-1.1-1.7-1.1-2.7v-3.7c0-1.5-1.3-2.7-2.7-2.7v6.4c0,1.7,0.7,3.4,1.9,4.5c1.2,1.2,2.9,1.9,4.6,1.8
	h3.7v3.8c0,1.5,1.2,2.7,2.7,2.7V43C68.6,43,67.9,43.2,67.4,43.8z"/>
<linearGradient id="SVGID_00000095336468658480148390000001407884148969698235_" gradientUnits="userSpaceOnUse" x1="26.5068" y1="48.6615" x2="93.2068" y2="23.4715" gradientTransform="matrix(1 0 0 -1 0 100)">
	<stop  offset="0" style="stop-color:#99BF80"/>
	<stop  offset="1" style="stop-color:#239C70"/>
</linearGradient>
<path style="fill:url(#SVGID_00000095336468658480148390000001407884148969698235_);" d="M37.2,44.5c-2.6-2.6-6.8-2.6-9.4,0
	c-1.3,1.2-2,2.9-2,4.7v13.3c1.5,0,2.8-1.2,2.8-2.8v-4h3.9c1.8,0,3.5-0.7,4.7-1.9c2.6-2.5,2.6-6.6,0.1-9.2
	C37.3,44.6,37.2,44.5,37.2,44.5L37.2,44.5z M35.2,52c-0.7,0.8-1.7,1.2-2.8,1.2h-3.9v-4c0-1.1,0.4-2.1,1.1-2.8
	c1.5-1.5,3.9-1.6,5.4-0.1c0,0,0.1,0.1,0.1,0.1C36.8,47.9,36.8,50.4,35.2,52L35.2,52z"/>
<path class="st5" d="M51.2,80.3H19.7V48.8l0,0C20.3,32.1,34.4,19,51.1,19.6c11.8,0.4,22.2,7.7,26.8,18.6
	c6.5,15.4-0.7,33.2-16.1,39.7C58.5,79.3,54.9,80.1,51.2,80.3L51.2,80.3z M20.7,79.3h30c16.2-0.4,29-13.8,28.6-30
	c-0.4-16.2-13.8-29-30-28.6c-15.7,0.4-28.3,13-28.6,28.6V79.3z"/>
<circle class="st5" cx="72.8" cy="54.6" r="1.6"/>
</svg>
