<svg id="Laag_1" data-name="Laag 1" xmlns="http://www.w3.org/2000/svg" viewBox="0 0 100 100"><defs><style>.cls-1{fill:#7dbf90;}.cls-2{fill:#fff;}.cls-3,.cls-4,.cls-5,.cls-6{fill:none;stroke:#fff;stroke-linecap:round;stroke-width:1.82px;}.cls-3,.cls-4,.cls-5{stroke-miterlimit:10;}.cls-4{stroke-dasharray:0.34 2.73;}.cls-5{stroke-dasharray:0.34 2.73 0.34 2.73;}.cls-6{stroke-linejoin:round;}</style></defs><rect class="cls-1" width="100" height="100" rx="10.37"/><path class="cls-2" d="M17.92,63a4.65,4.65,0,0,0-1.82,0,4.35,4.35,0,0,0-3.6,4.4v7a1.35,1.35,0,0,0,.12.65h0a.82.82,0,0,0,.5.39.78.78,0,0,0,.64-.13,1.06,1.06,0,0,0,.41-1V71.55h5.67v2.84a1.39,1.39,0,0,0,.15.67.82.82,0,0,0,.5.39l.19,0a.74.74,0,0,0,.45-.15,1,1,0,0,0,.38-1v-7A4.36,4.36,0,0,0,17.92,63Zm1.91,4.41V70H14.19V67.41A2.65,2.65,0,0,1,15.43,65a2.88,2.88,0,0,1,2.16-.43,2.38,2.38,0,0,1,1,.42h0a2.68,2.68,0,0,1,1.23,2.43Zm18.43,4.24a.79.79,0,0,0-.46-.4.87.87,0,0,0-.63.07,1,1,0,0,0-.49.75l-.07.36v.11a1.9,1.9,0,0,1-2.26,1.52c-.73-.11-1.71-.5-1.71-2.51v-.13h2.21c.27,0,1.08,0,1.08-.8a.73.73,0,0,0-.65-.75,3.85,3.85,0,0,0-.48,0H32.63V66.78a1.35,1.35,0,0,0-.12-.65h0a.82.82,0,0,0-.5-.39.81.81,0,0,0-.64.12,1.06,1.06,0,0,0-.37,1v4.57c0,2.6.94,3.9,3,4.24a3.61,3.61,0,0,0,.73.07A3.53,3.53,0,0,0,38.27,73a2.74,2.74,0,0,0,.08-.37h0a1.48,1.48,0,0,0-.09-1Zm10.81-2.18a5.15,5.15,0,0,0-9.36-1.08,5.06,5.06,0,0,0-.34,4,4.84,4.84,0,0,0,4.71,3.33,5.51,5.51,0,0,0,1.2-.13A5.37,5.37,0,0,0,47,74.87a4.5,4.5,0,0,0,.91-.77,1.26,1.26,0,0,0,.41-.91.76.76,0,0,0-.3-.53.78.78,0,0,0-.62-.15h0a1.27,1.27,0,0,0-.51.29l-.14.18-.21.19h0a3.28,3.28,0,0,1-1.63.91A3.32,3.32,0,0,1,41,72c0-.14-.08-.26-.12-.37h7.24l.15,0h.25a.74.74,0,0,0,.59-.31c.25-.34.24-.85,0-1.85Zm-8.1.28a3.34,3.34,0,0,1,4.18-2.23A3.41,3.41,0,0,1,47.47,70a2.38,2.38,0,0,1,.05.26l-6.66,0a2.75,2.75,0,0,1,.11-.41Zm16.63-1c0-.14-.08-.26-.11-.37l0-.1a3.62,3.62,0,0,0-3.54-2.52,3.94,3.94,0,0,0-.79.07c-1.31.29-2.85,1.23-2.85,4.07v4.49a1.35,1.35,0,0,0,.15.67.82.82,0,0,0,.5.39l.19,0a.74.74,0,0,0,.45-.15,1,1,0,0,0,.34-1V69.9c0-1.5.48-2.23,1.59-2.45a1.9,1.9,0,0,1,1.92.62,2,2,0,0,1,.41.74A3.48,3.48,0,0,0,56.19,70l0,0a.87.87,0,0,0,1,.17c.5-.27.45-.93.34-1.47Z"/><path class="cls-2" d="M67.22,64.43a4.25,4.25,0,0,0-3.37-1.53,4.14,4.14,0,0,0-4.17,4.49v7a1.47,1.47,0,0,0,.15.67.82.82,0,0,0,.5.39l.19,0a.72.72,0,0,0,.45-.15,1,1,0,0,0,.39-1V71.19h2.42a4,4,0,0,0,4.28-3.28,4.1,4.1,0,0,0-.84-3.48Zm-.77,2.65a2.51,2.51,0,0,1-2.68,2.52h0l-2.36,0V67.25a2.52,2.52,0,0,1,.65-2,2.6,2.6,0,0,1,4.42,1.87Zm12.12,3.19a4.79,4.79,0,0,0-.17-1.07,4.73,4.73,0,0,0-2.27-2.81,5.11,5.11,0,0,0-3.95-.4,5,5,0,0,0,0,9.54,5.25,5.25,0,0,0,1.41.18,4.86,4.86,0,0,0,2-.42A4.17,4.17,0,0,0,77,74.37v0a1.4,1.4,0,0,0,.09.66h0a.8.8,0,0,0,.49.39.79.79,0,0,0,.65-.13,1.07,1.07,0,0,0,.39-1v-3.9l0-.19ZM74.41,74a3.27,3.27,0,0,1-4-2.37h0a2.8,2.8,0,0,1-.13-.69A3.37,3.37,0,0,1,72.6,67.5a3.61,3.61,0,0,1,1.07-.16,3.29,3.29,0,0,1,1.9.59A3.33,3.33,0,0,1,77,70.6,3.27,3.27,0,0,1,74.41,74Zm13-7.6-.35.17.35-.17,0,0a.8.8,0,0,0-.49-.39.83.83,0,0,0-.65.12,1.05,1.05,0,0,0-.36,1v4.45a2.64,2.64,0,0,1-.74,2,2.06,2.06,0,0,1-1.64.42,2,2,0,0,1-1.75-2.28V67.09a1.48,1.48,0,0,0-.11-.66.8.8,0,0,0-.49-.39.82.82,0,0,0-.65.12,1.09,1.09,0,0,0-.39,1v4.62a3.56,3.56,0,0,0,2.37,3.68A3.73,3.73,0,0,0,85.82,75v0a2,2,0,0,1-1.53,1.8A1.91,1.91,0,0,1,83,76.72a1.75,1.75,0,0,1-.66-.52l-.24-.31-.16-.18a1.22,1.22,0,0,0-.22-.23l0,0,0,0a.81.81,0,0,0-1.19.56,1.38,1.38,0,0,0,.34,1v0a3.9,3.9,0,0,0,.72.75,3.57,3.57,0,0,0,2.21.72,4.23,4.23,0,0,0,1.06-.14c1.78-.45,2.77-1.88,2.77-4V67.09A1.35,1.35,0,0,0,87.36,66.44Z"/><path class="cls-2" d="M30,68.75a2.74,2.74,0,0,0-.11-.37l0-.1a3.62,3.62,0,0,0-3.54-2.52,3.94,3.94,0,0,0-.79.07c-1.3.29-2.85,1.23-2.85,4.07v4.49a1.43,1.43,0,0,0,.15.66h0a.82.82,0,0,0,.5.39l.19,0a.74.74,0,0,0,.45-.15,1,1,0,0,0,.38-1V73.3l0-1.87h2.35c.78,0,1-.4,1-.74a.78.78,0,0,0-.19-.57,1.08,1.08,0,0,0-.8-.26H24.31c0-1.46.49-2.18,1.59-2.41a1.9,1.9,0,0,1,1.92.62,2.06,2.06,0,0,1,.41.74A3.48,3.48,0,0,0,28.59,70l0,0a.87.87,0,0,0,1,.17c.52-.27.46-.93.35-1.47Z"/><path class="cls-2" d="M25.54,26.07c1-2.41,1.94-3.09,4.18-2.89,0,1.37,0,2.77,0,4.16,0,2.11.9,3,3,3,.43,0,.85,0,1.27,0a2.61,2.61,0,0,0,2.75-2.82c0-1.44,0-2.88,0-4.38h6.51c0,1.48,0,2.92,0,4.35a2.57,2.57,0,0,0,2.78,2.86c3.27.18,4.5-.62,4.28-4.16-.05-1,0-2,0-3a3.13,3.13,0,0,1,2.75,3.17c0,1.62,0,3.25,0,4.87,0,1.05-.4,1.44-1.47,1.5-.28,0-.57,0-.85,0H28.14c0,.36-.07.67-.07,1V50.61c0,1.39.26,1.64,1.69,1.65H47.13c.36,0,.8-.11,1,.06s.91.73.89,1.08a2.06,2.06,0,0,1-.88,1.22c-.22.17-.68.06-1,.06H30.09c-2.84,0-3.5-.43-4.55-3Z"/><path class="cls-2" d="M35.09,25.11c0,.77,0,1.55,0,2.32a1.44,1.44,0,0,1-.1.71c-.75,1-1.83.51-2.75.47-.32,0-.85-.66-.88-1.05-.1-1.61-.05-3.23,0-4.85a1.05,1.05,0,0,1,1.19-1.16h.11c2.33-.13,2.46,0,2.46,2.29Z"/><path class="cls-2" d="M48.65,25.2v2.42a1,1,0,0,1-1,1.07H47.3c-2.34.07-2.42,0-2.42-2.37,0-1.16,0-2.32,0-3.48,0-.85.4-1.26,1.29-1.3,2.36-.11,2.48,0,2.48,2.39Z"/><path class="cls-2" d="M33,40.21c-2.53,0-2.53,0-2.53-2.58s0-2.53,2.55-2.53,2.64,0,2.64,2.66v.31c0,2-.1,2.14-2.13,2.14Z"/><path class="cls-2" d="M40.3,48c-2.63,0-2.63,0-2.63-2.58s0-2.53,2.51-2.53c2.68,0,2.68,0,2.68,2.67C42.86,48,42.86,48,40.3,48Z"/><path class="cls-2" d="M40.15,35.1c2.5,0,2.5,0,2.5,2.46,0,2.65,0,2.65-2.66,2.65-2.45,0-2.45,0-2.45-2.43v-.11C37.54,35.1,37.54,35.1,40.15,35.1Z"/><path class="cls-2" d="M33.18,48c-2.5,0-2.49,0-2.5-2.46s-.24-2.69,2.66-2.66c2.45,0,2.45,0,2.45,2.45v.11C35.83,48.25,35.79,48,33.18,48Z"/><path class="cls-3" d="M74.46,44.37A12.1,12.1,0,1,1,60.29,32.44"/><polygon class="cls-2" points="56.98 35.87 59.76 32.51 56.4 29.74 59 29.49 62.36 32.27 59.58 35.62 56.98 35.87"/><path class="cls-3" d="M65.57,32.73l.17.05"/><path class="cls-4" d="M68.26,33.84a12.15,12.15,0,0,1,1.43.94"/><path class="cls-5" d="M70.72,35.67a12.17,12.17,0,0,1,2.71,3.89"/><path class="cls-3" d="M73.91,40.84,74,41"/><polyline class="cls-6" points="61.77 38.12 61.77 46.31 68.07 46.42"/><path class="cls-2" d="M46.83,35.1c-2.59,0-2.59,0-2.59,2.59s0,2.52,2.57,2.52c.55,0,.72,0,1.06,0a15.25,15.25,0,0,1,1.48-3.07C49.35,35.09,49.29,35.1,46.83,35.1Z"/><path class="cls-2" d="M47.48,42.86H47c-2.6,0-2.6,0-2.6,2.6S44.41,48,47,48c.6,0,.62,0,1,0a12.09,12.09,0,0,1-.5-4.24A8.46,8.46,0,0,1,47.48,42.86Z"/></svg>