<?xml version="1.0" encoding="utf-8"?>
<!-- Generator: Adobe Illustrator 25.4.0, SVG Export Plug-In . SVG Version: 6.00 Build 0)  -->
<svg version="1.1" id="Laag_1" xmlns="http://www.w3.org/2000/svg" xmlns:xlink="http://www.w3.org/1999/xlink" x="0px" y="0px"
	 viewBox="0 0 100 100" style="enable-background:new 0 0 100 100;" xml:space="preserve">
<style type="text/css">
	.st0{fill:#014888;}
	.st1{fill:#FFFFFF;}
	.st2{fill:#ECB200;}
	.st3{fill:#00194F;}
	.st4{enable-background:new    ;}
</style>
<path class="st0" d="M10.4,0h79.3C95.4,0,100,4.6,100,10.4v79.3c0,5.7-4.6,10.4-10.4,10.4H10.4C4.6,100,0,95.4,0,89.6V10.4
	C0,4.6,4.6,0,10.4,0z"/>
<path class="st1" d="M27.8,37.3h-5.5c0.1-0.6,0-1.2-0.3-1.8c-0.3-0.5-1.2-0.7-2.7-0.7c-1-0.1-1.9,0.1-2.8,0.4
	c-0.5,0.3-0.7,0.8-0.7,1.7c-0.1,0.6,0.1,1.2,0.6,1.6c0.4,0.2,0.8,0.3,1.2,0.3l1.1,0.1c2.4,0.2,3.9,0.3,4.4,0.3
	c1.5,0,2.9,0.6,4.1,1.5c0.7,0.7,1.1,1.5,1.2,2.5c0.1,0.7,0.1,1.4,0.1,2.1c0.1,1.3-0.1,2.6-0.5,3.9c-0.6,1.5-2,2.4-4.1,2.8
	c-1.4,0.2-2.7,0.3-4.1,0.2c-2.2,0.1-4.3-0.1-6.4-0.5c-1.4-0.4-2.5-1.4-2.9-2.7c-0.3-1.2-0.5-2.5-0.4-3.8h5.5v0.5
	c0,1,0.3,1.6,0.8,1.8c0.4,0.2,0.9,0.3,1.4,0.3h2c0.7,0,1.3,0,2-0.2c0.5-0.2,0.8-0.5,1-1c0.1-0.3,0.1-0.7,0.1-1c0-1-0.4-1.5-1-1.8
	c-1.2-0.2-2.5-0.3-3.7-0.3c-1.8-0.1-3-0.2-3.6-0.4c-1.4-0.1-2.7-0.9-3.5-2.1c-0.6-1.2-0.9-2.6-0.8-4c0-1.1,0.1-2.2,0.4-3.3
	c0.2-0.8,0.7-1.4,1.4-1.9c1.1-0.7,2.3-1.1,3.5-1.2c1.2-0.1,2.5-0.1,4-0.1c1.6-0.1,3.3,0.1,4.9,0.4c2.4,0.7,3.6,2.5,3.6,5.4
	C27.8,36.5,27.8,36.8,27.8,37.3z"/>
<path class="st1" d="M51.8,52.2V30.4h11c1.2,0,2.3,0.1,3.4,0.4c1.7,0.5,3.1,1.8,3.6,3.5c0.4,1.3,0.5,2.7,0.5,4.1
	c0.1,1.6-0.1,3.2-0.5,4.8c-0.6,1.9-2.4,3.2-4.3,3.3c-0.2,0-1.3,0.1-3.3,0.1h-1h-3.5v5.6L51.8,52.2z M57.7,41.5h3.7
	c0.7,0,1.4-0.1,2.1-0.3c0.4-0.3,0.6-0.7,0.7-1.2c0.1-0.6,0.1-1.1,0.1-1.7c0-0.7,0-1.3-0.2-2c-0.2-0.6-0.8-1.1-1.5-1.2
	c-0.2,0-0.5,0-1.1,0h-3.7V41.5z"/>
<path class="st1" d="M82.9,48.4h-7.9L74,52.2h-6.1l6.6-21.9h8.9L90,52.2h-6L82.9,48.4z M81.8,44.2L79,34.7l-2.7,9.5H81.8z"/>
<path class="st2" d="M43.7,33.4c2.3,0,4.5,1.1,6,2.9l1.3-2.7c-4.5-4.2-11.5-4-15.8,0.5c-0.9,1-1.6,2.1-2.1,3.3h-2.5l-1.5,3.1h3.2
	c0,0.3,0,0.6,0,0.9c0,0.4,0,0.7,0,1.1h-1.6l-1.5,3.1h3.9c2.5,5.6,9.1,8.1,14.8,5.6c0.6-0.3,1.1-0.5,1.6-0.9v-3.8
	c-2.8,3.2-7.7,3.6-10.9,0.7c-0.5-0.5-1-1-1.4-1.6h8.1l1.5-3.1H36c0-0.4,0-0.8,0-1.2c0-0.3,0-0.5,0-0.8h11.7l1.5-3.1H37
	C38.4,34.9,40.9,33.4,43.7,33.4z"/>
<path class="st3" d="M43.7,33.5c2.3,0,4.5,1,6,2.8l0.1,0.1l0.1-0.1l1.3-2.7v-0.1l0,0c-3.8-3.6-9.6-4.1-14-1.2
	c-1.8,1.2-3.2,2.9-4,4.9l0.1,0h-2.6v0l-1.5,3.1L29,40.5h3.3l-0.1-0.1c0,0.3,0,0.6,0,0.9c0,0.4,0,0.7,0.1,1.1l0.1-0.1h-1.7v0
	l-1.5,3.1l-0.1,0.1h4l-0.1-0.1c1.8,4.1,5.8,6.7,10.2,6.6c2.2,0,4.4-0.6,6.2-1.9l0,0v-4.2l-0.2,0.2c-2.8,3.2-7.6,3.5-10.8,0.7
	c-0.5-0.5-1-1-1.4-1.6l-0.1,0.2h8.2v-0.1l1.5-3.1l0.1-0.1H36l0.1,0.1C36,42,36,41.6,36,41.2c0-0.3,0-0.5,0-0.8l-0.1,0.1h11.9v0
	l1.5-3.1l0.1-0.1H37l0.1,0.1C38.5,35,41,33.5,43.7,33.5z M37,37.4h12.2l-0.1-0.1l-1.4,3.1h0.1H35.9v0.1c0,0.3,0,0.5,0,0.8
	c0,0.4,0,0.7,0.1,1.1v0.1h10.8l-0.1-0.1l-1.5,3.1h0.1h-8.3l0.1,0.1c2.4,3.6,7.2,4.7,10.8,2.3c0.6-0.4,1.1-0.9,1.6-1.4l-0.2-0.1v3.8
	v-0.1c-1.8,1.2-3.9,1.8-6.1,1.8c-4.4,0-8.3-2.5-10.1-6.5v-0.1h-4l0.1,0.1l1.5-3.1l-0.1,0.1h1.7v-0.1c0-0.3,0-0.7,0-1s0-0.5,0-0.9
	v-0.1h-3.3l0.1,0.1l1.5-3.1h-0.1h2.5l0,0c0.8-2,2.2-3.7,4-4.8c4.3-2.9,10-2.4,13.8,1.1v-0.1l-1.3,2.7h0.2c-2.7-3.4-7.6-3.9-11-1.2
	C38.1,35.7,37.5,36.5,37,37.4l-0.1,0L37,37.4z"/>
<g class="st4">
	<path class="st1" d="M17.8,61.2v-2.5h1.7v7.4h-1.7v-0.5c-0.4,0.4-0.9,0.6-1.5,0.6c-0.8,0-1.4-0.3-1.9-0.8c-0.5-0.5-0.7-1.2-0.7-2
		c0-0.8,0.2-1.5,0.7-2c0.5-0.5,1.1-0.8,1.9-0.8C16.9,60.7,17.4,60.8,17.8,61.2z M16.6,64.7c0.3,0,0.6-0.1,0.9-0.4s0.3-0.5,0.3-0.9
		c0-0.3-0.1-0.6-0.3-0.9c-0.2-0.2-0.5-0.4-0.9-0.4s-0.6,0.1-0.9,0.4c-0.2,0.2-0.3,0.5-0.3,0.9c0,0.4,0.1,0.7,0.3,0.9
		C16,64.6,16.3,64.7,16.6,64.7z"/>
	<path class="st1" d="M21.9,60.3c-0.3,0-0.5-0.1-0.7-0.3c-0.2-0.2-0.3-0.4-0.3-0.7c0-0.3,0.1-0.5,0.3-0.7c0.2-0.2,0.4-0.3,0.7-0.3
		s0.5,0.1,0.7,0.3c0.2,0.2,0.3,0.4,0.3,0.7c0,0.3-0.1,0.5-0.3,0.7C22.5,60.2,22.2,60.3,21.9,60.3z M22.8,60.8v5.3h-1.7v-5.3H22.8z"
		/>
</g>
<g class="st4">
	<path class="st1" d="M25.9,66.1h-1.7v-5.3h1.6v0.7c0.3-0.5,0.8-0.8,1.4-0.8c0.2,0,0.5,0,0.7,0.1l-0.1,1.6c-0.2-0.1-0.5-0.1-0.7-0.1
		c-0.8,0-1.2,0.5-1.2,1.5V66.1z"/>
</g>
<g class="st4">
	<path class="st1" d="M34.1,63.3c0,0.2,0,0.4-0.1,0.7h-3.8c0.2,0.6,0.6,0.8,1.3,0.8c0.6,0,1.1-0.2,1.6-0.5l0.7,1.2
		c-0.7,0.5-1.5,0.7-2.4,0.7c-0.9,0-1.7-0.3-2.2-0.8c-0.5-0.5-0.8-1.2-0.8-2c0-0.8,0.3-1.5,0.8-2c0.5-0.5,1.2-0.8,2.1-0.8
		c0.8,0,1.4,0.2,2,0.7S34.1,62.5,34.1,63.3z M31.3,62c-0.6,0-1,0.3-1.2,0.8h2.3c-0.1-0.3-0.2-0.5-0.4-0.6C31.8,62.1,31.6,62,31.3,62
		z"/>
	<path class="st1" d="M38,66.2c-0.8,0-1.5-0.3-2.1-0.8c-0.5-0.5-0.8-1.2-0.8-2c0-0.8,0.3-1.5,0.8-2c0.5-0.5,1.2-0.8,2.1-0.8
		c0.6,0,1.1,0.1,1.5,0.4c0.5,0.3,0.8,0.7,1,1.2l-1.4,0.7c-0.3-0.5-0.7-0.7-1.1-0.7c-0.4,0-0.6,0.1-0.9,0.3c-0.2,0.2-0.3,0.5-0.3,0.9
		c0,0.4,0.1,0.6,0.3,0.9s0.5,0.3,0.9,0.3c0.2,0,0.5-0.1,0.7-0.2c0.2-0.1,0.4-0.3,0.5-0.5l1.4,0.8c-0.2,0.4-0.6,0.8-1,1.1
		C39,66.1,38.5,66.2,38,66.2z"/>
	<path class="st1" d="M45.4,64.5l0.5,1.4c-0.5,0.3-1.1,0.4-1.7,0.4c-1.3,0-2-0.7-2-2.2v-1.9h-0.8v-1.4h0.8v-1.9h1.7v1.9h1.7v1.4
		h-1.7v1.7c0,0.6,0.2,0.9,0.7,0.9C44.8,64.7,45.1,64.6,45.4,64.5z"/>
	<path class="st1" d="M54,64.2h-4.2v-1.6H54V64.2z"/>
	<path class="st1" d="M62.2,61.2v-2.5h1.7v7.4h-1.7v-0.5c-0.4,0.4-0.9,0.6-1.5,0.6c-0.8,0-1.4-0.3-1.9-0.8c-0.5-0.5-0.7-1.2-0.7-2
		c0-0.8,0.2-1.5,0.7-2c0.5-0.5,1.1-0.8,1.9-0.8C61.3,60.7,61.8,60.8,62.2,61.2z M61.1,64.7c0.3,0,0.6-0.1,0.9-0.4s0.3-0.5,0.3-0.9
		c0-0.3-0.1-0.6-0.3-0.9c-0.2-0.2-0.5-0.4-0.9-0.4s-0.6,0.1-0.9,0.4c-0.2,0.2-0.3,0.5-0.3,0.9c0,0.4,0.1,0.7,0.3,0.9
		C60.4,64.6,60.7,64.7,61.1,64.7z"/>
	<path class="st1" d="M70.8,63.3c0,0.2,0,0.4-0.1,0.7H67c0.2,0.6,0.6,0.8,1.3,0.8c0.6,0,1.1-0.2,1.6-0.5l0.7,1.2
		c-0.7,0.5-1.5,0.7-2.4,0.7c-0.9,0-1.7-0.3-2.2-0.8c-0.5-0.5-0.8-1.2-0.8-2c0-0.8,0.3-1.5,0.8-2c0.5-0.5,1.2-0.8,2.1-0.8
		c0.8,0,1.4,0.2,2,0.7C70.6,61.8,70.8,62.5,70.8,63.3z M68.1,62c-0.6,0-1,0.3-1.2,0.8h2.3c-0.1-0.3-0.2-0.5-0.4-0.6
		C68.6,62.1,68.4,62,68.1,62z"/>
	<path class="st1" d="M75.3,60.7c0.8,0,1.4,0.3,1.9,0.8c0.5,0.5,0.8,1.2,0.8,2c0,0.8-0.3,1.5-0.8,2c-0.5,0.5-1.1,0.8-1.9,0.8
		c-0.6,0-1.1-0.2-1.5-0.6v0.5h-1.6v-7.4h1.7v2.5C74.2,60.8,74.7,60.7,75.3,60.7z M74.1,64.3c0.2,0.2,0.5,0.4,0.9,0.4
		s0.6-0.1,0.9-0.4c0.2-0.2,0.3-0.5,0.3-0.9c0-0.3-0.1-0.6-0.3-0.9c-0.2-0.2-0.5-0.4-0.9-0.4c-0.3,0-0.6,0.1-0.9,0.4
		c-0.2,0.2-0.3,0.5-0.3,0.9C73.8,63.8,73.9,64.1,74.1,64.3z"/>
	<path class="st1" d="M80.2,60.3c-0.3,0-0.5-0.1-0.7-0.3c-0.2-0.2-0.3-0.4-0.3-0.7c0-0.3,0.1-0.5,0.3-0.7s0.4-0.3,0.7-0.3
		s0.5,0.1,0.7,0.3c0.2,0.2,0.3,0.4,0.3,0.7c0,0.3-0.1,0.5-0.3,0.7C80.7,60.2,80.4,60.3,80.2,60.3z M81,60.8v5.3h-1.7v-5.3H81z"/>
	<path class="st1" d="M86.2,64.5l0.5,1.4c-0.5,0.3-1.1,0.4-1.7,0.4c-1.3,0-2-0.7-2-2.2v-1.9h-0.8v-1.4H83v-1.9h1.7v1.9h1.7v1.4h-1.7
		v1.7c0,0.6,0.2,0.9,0.7,0.9C85.6,64.7,85.9,64.6,86.2,64.5z"/>
</g>
</svg>
