<?xml version="1.0" encoding="utf-8"?>
<!-- Generator: Adobe Illustrator 25.4.0, SVG Export Plug-In . SVG Version: 6.00 Build 0)  -->
<svg version="1.1" id="Laag_1" xmlns="http://www.w3.org/2000/svg" xmlns:xlink="http://www.w3.org/1999/xlink" x="0px" y="0px"
	 viewBox="0 0 100 100" style="enable-background:new 0 0 100 100;" xml:space="preserve">
<style type="text/css">
	.st0{fill:#FF2880;}
	.st1{clip-path:url(#SVGID_00000002369720462483031450000014441625964503191967_);}
	.st2{fill:#FF216F;}
	.st3{fill:#FFFFFF;}
</style>
<path class="st0" d="M10.4,0h79.3C95.4,0,100,4.6,100,10.4v79.3c0,5.7-4.6,10.4-10.4,10.4H10.4C4.6,100,0,95.4,0,89.6V10.4
	C0,4.6,4.6,0,10.4,0z"/>
<g>
	<defs>
		<path id="SVGID_1_" d="M10.4,0h79.3C95.4,0,100,4.6,100,10.4v79.3c0,5.7-4.6,10.4-10.4,10.4H10.4C4.6,100,0,95.4,0,89.6V10.4
			C0,4.6,4.6,0,10.4,0z"/>
	</defs>
	<clipPath id="SVGID_00000162313121990384130170000009994040970797836730_">
		<use xlink:href="#SVGID_1_"  style="overflow:visible;"/>
	</clipPath>
	<g style="clip-path:url(#SVGID_00000162313121990384130170000009994040970797836730_);">
		<polygon class="st2" points="53.8,-7.4 8.3,104.9 -12,82.4 -9.8,-5.5 		"/>
	</g>
</g>
<path class="st3" d="M54.3,53.1l-11.1,8c-1.7,1.2-3.3,2.4-5,3.6c-8.1,5.6-19.3,3.6-24.9-4.5S9.7,41,17.8,35.3s19.3-3.6,24.9,4.5
	c1.3,1.9,2.2,3.9,2.7,6.1c0.1,0.3,0.2,0.6,0.3,1c0.4-0.2,0.7-0.5,1-0.7c5-3.6,10-7.2,15-10.8c11.2-7.9,26.9-0.9,28.2,12.7
	c1,9.4-5.6,18-14.9,19.5c-8.9,1.7-17.9-4.2-20.3-13.1L54.3,53.1z M79.9,50.1c0-4.3-3.4-7.8-7.7-7.9c0,0,0,0,0,0
	c-4.3,0-7.9,3.5-7.9,7.9c0,4.3,3.5,7.9,7.9,7.9c0,0,0,0,0,0C76.5,57.9,79.9,54.3,79.9,50.1C79.9,50,79.9,50,79.9,50.1L79.9,50.1z
	 M35.8,50c0-4.3-3.5-7.9-7.8-7.9c-4.3,0-7.9,3.5-7.9,7.8c0,4.3,3.5,7.9,7.8,7.9C32.2,57.8,35.7,54.3,35.8,50z"/>
</svg>
