<svg id="Laag_1" data-name="Laag 1" xmlns="http://www.w3.org/2000/svg" viewBox="0 0 100 100"><defs><style>.cls-1{fill:#7dbf90;}.cls-2{fill:#fff;}</style></defs><rect class="cls-1" width="100" height="100" rx="10.37"/><path class="cls-2" d="M13.81,42.49a5.15,5.15,0,0,0-2.07,0,4.93,4.93,0,0,0-4.08,5v7.93a1.5,1.5,0,0,0,.14.74v0a1,1,0,0,0,.57.44.91.91,0,0,0,.73-.14,1.23,1.23,0,0,0,.46-1.09v-3.2H16V55.4a1.63,1.63,0,0,0,.17.75.9.9,0,0,0,.57.44.71.71,0,0,0,.21,0,.79.79,0,0,0,.51-.17,1.17,1.17,0,0,0,.43-1.09V47.47A4.91,4.91,0,0,0,13.81,42.49Zm2.17,5V50.4H9.58V47.49A3,3,0,0,1,11,44.73a3.25,3.25,0,0,1,2.44-.49,2.73,2.73,0,0,1,1.13.48h0A3.07,3.07,0,0,1,16,47.49Zm20.88,4.8a.92.92,0,0,0-.52-.45,1,1,0,0,0-.72.08,1.07,1.07,0,0,0-.55.85l-.08.4v.13A2.17,2.17,0,0,1,32.41,55c-.83-.13-1.93-.57-1.93-2.85V52H33c.3,0,1.21,0,1.21-.9a.84.84,0,0,0-.74-.86,4.7,4.7,0,0,0-.53,0H30.48V46.78a1.52,1.52,0,0,0-.14-.74v0a.88.88,0,0,0-.56-.43.86.86,0,0,0-.73.13,1.2,1.2,0,0,0-.43,1.09V52c0,2.95,1.07,4.43,3.47,4.82a4.54,4.54,0,0,0,.82.07,4,4,0,0,0,4-3,3.67,3.67,0,0,0,.09-.43h0a1.72,1.72,0,0,0-.1-1.13Zm12.25-2.47a5.68,5.68,0,0,0-7-4,5.55,5.55,0,0,0-4,7.28,5.5,5.5,0,0,0,5.34,3.77,6.34,6.34,0,0,0,1.35-.15,6,6,0,0,0,2-.83,4.87,4.87,0,0,0,1-.88,1.39,1.39,0,0,0,.46-1,.92.92,0,0,0-.34-.61.88.88,0,0,0-.7-.16h0a1.39,1.39,0,0,0-.57.33l-.17.2-.24.21v0a3.63,3.63,0,0,1-1.85,1A3.76,3.76,0,0,1,40,52.72l-.13-.41H48l.18,0h.27a.89.89,0,0,0,.68-.35c.28-.39.26-1,0-2.1Zm-9.18.32a3.82,3.82,0,0,1,7.36.22,1.59,1.59,0,0,1,.06.3l-7.54-.06a2.6,2.6,0,0,1,.12-.46ZM58.78,49c0-.16-.09-.3-.13-.43l0-.11a4.11,4.11,0,0,0-4-2.86,4.26,4.26,0,0,0-.89.09c-1.48.32-3.23,1.39-3.23,4.61V55.4a1.48,1.48,0,0,0,.17.75.88.88,0,0,0,.57.44.66.66,0,0,0,.21,0,.79.79,0,0,0,.51-.17,1.17,1.17,0,0,0,.39-1.09v-5c0-1.7.54-2.53,1.79-2.78a2.21,2.21,0,0,1,2.19.7,2.15,2.15,0,0,1,.46.84,3.94,3.94,0,0,0,.41,1.35l0,0a1,1,0,0,0,1.17.21c.57-.32.51-1.06.39-1.67Z"/><path class="cls-2" d="M69.68,44.11a4.8,4.8,0,0,0-3.82-1.73c-2.82,0-4.73,2.08-4.73,5.09V55.4a1.46,1.46,0,0,0,.18.75.86.86,0,0,0,.56.44.78.78,0,0,0,.22,0,.8.8,0,0,0,.51-.17A1.2,1.2,0,0,0,63,55.36V51.77h2.74a4.55,4.55,0,0,0,4.86-3.71,4.7,4.7,0,0,0-1-4Zm-.87,3a2.85,2.85,0,0,1-3,2.85h0l-2.67,0V47.3A2.8,2.8,0,0,1,63.8,45,2.75,2.75,0,0,1,66,44.16,2.81,2.81,0,0,1,68.81,47.12Zm13.74,3.61a4.84,4.84,0,0,0-.21-1.22,5.27,5.27,0,0,0-2.57-3.18,5.82,5.82,0,0,0-4.47-.46,5.58,5.58,0,0,0-3.91,4.22,5.52,5.52,0,0,0,4,6.6,6.19,6.19,0,0,0,1.59.2,5.64,5.64,0,0,0,2.28-.47,5.08,5.08,0,0,0,1.5-1v0a1.57,1.57,0,0,0,.1.74h0a.86.86,0,0,0,.56.44.83.83,0,0,0,.73-.14,1.21,1.21,0,0,0,.45-1.09V50.94l0-.21ZM77.83,55a3.71,3.71,0,0,1-4.54-2.68h0a4.57,4.57,0,0,1-.15-.79,3.82,3.82,0,0,1,2.64-3.93A4.24,4.24,0,0,1,77,47.4a3.72,3.72,0,0,1,2.16.68,3.8,3.8,0,0,1,1.58,3A3.71,3.71,0,0,1,77.83,55ZM92.5,46.39l-.39.19.39-.19v0a1,1,0,0,0-.57-.44.88.88,0,0,0-.72.14,1.18,1.18,0,0,0-.42,1.09v5.06a2.93,2.93,0,0,1-.84,2.26,2.23,2.23,0,0,1-1.85.48,2.27,2.27,0,0,1-2-2.58V47.13a1.66,1.66,0,0,0-.13-.75.88.88,0,0,0-.56-.44.86.86,0,0,0-.73.13,1.23,1.23,0,0,0-.45,1.1v5.24a4,4,0,0,0,2.69,4.17,4.24,4.24,0,0,0,3.83-.51v0a2.22,2.22,0,0,1-1.73,2,2.07,2.07,0,0,1-1.52-.1,2,2,0,0,1-.75-.58l-.28-.36-.17-.2a1.57,1.57,0,0,0-.25-.26l0-.05-.05,0a.85.85,0,0,0-.83,0,.89.89,0,0,0-.53.66A1.66,1.66,0,0,0,85,58.36h0a4.72,4.72,0,0,0,.82.86,4,4,0,0,0,2.5.81,5,5,0,0,0,1.21-.15c2-.51,3.13-2.13,3.13-4.55V47.13A1.41,1.41,0,0,0,92.5,46.39Z"/><path class="cls-2" d="M27.51,49a3.68,3.68,0,0,0-.13-.43l0-.11a4.13,4.13,0,0,0-4-2.86,4.19,4.19,0,0,0-.89.09c-1.48.32-3.23,1.39-3.23,4.61V55.4a1.41,1.41,0,0,0,.18.74h0a.86.86,0,0,0,.56.44.71.71,0,0,0,.21,0,.81.81,0,0,0,.52-.17,1.2,1.2,0,0,0,.42-1.09v-1.2l0-2.12h2.67c.87,0,1.09-.45,1.11-.84a.91.91,0,0,0-.21-.64,1.19,1.19,0,0,0-.9-.3H21.05c0-1.65.55-2.47,1.8-2.73a2.19,2.19,0,0,1,2.18.7,2.22,2.22,0,0,1,.46.84,3.94,3.94,0,0,0,.41,1.35l0,0a1,1,0,0,0,1.17.21c.59-.32.52-1.06.4-1.67Z"/></svg>