<?xml version="1.0" encoding="UTF-8"?>
<svg id="Laag_1" data-name="Laag 1" xmlns="http://www.w3.org/2000/svg" viewBox="0 0 100.1 100.1">
  <defs>
    <style>
      .cls-1 {
        fill: #527a42;
      }

      .cls-1, .cls-2 {
        stroke-width: 0px;
      }

      .cls-2 {
        fill: #e7e4e2;
      }
    </style>
  </defs>
  <g id="BG">
    <path class="cls-1" d="M86.4,100H13.6c-7.5,0-13.6-6.1-13.6-13.6V13.6C0,6.1,6.1,0,13.6,0h72.9c7.5,0,13.6,6.1,13.6,13.6v72.9c0,7.5-6.1,13.6-13.6,13.6l-.1-.1Z"/>
  </g>
  <g>
    <g id="PageItem236">
      <path class="cls-2" d="M86.1,45.75l-2.2,2.9-2.2-2.9h-2.5l3.6,4.7v3.9h2v-3.9l3.6-4.7h-2.4.1Z"/>
    </g>
    <g id="PageItem238">
      <path class="cls-2" d="M68.3,45.75v1.7h3.2v6.9h2v-6.9h3.2v-1.7s-8.4,0-8.4,0Z"/>
    </g>
    <g id="PageItem239">
      <path class="cls-2" d="M58.5,49.45h2.9c.9,0,1.3-.3,1.3-1s-.4-1-1.3-1h-2.9v2.1-.1ZM62.8,54.35l-2.1-3.2h-2.2v3.2h-2v-8.6h5.1c2,0,3.1,1,3.1,2.7s-.6,2.2-1.8,2.6l2.3,3.3h-2.4Z"/>
    </g>
    <g id="PageItem240">
      <path class="cls-2" d="M43.3,45.75v8.6h7.8v-1.7h-5.8v-1.8h5v-1.7h-5v-1.7h5.8v-1.7h-7.8Z"/>
    </g>
    <g id="PageItem241">
      <path class="cls-2" d="M37.1,45.75l-2.5,6.4-2.6-6.4h-2.1l3.6,8.6h2l3.6-8.6h-2.1.1Z"/>
    </g>
    <g id="PageItem242">
      <path class="cls-2" d="M23.7,54.35h2v-8.6h-2v8.6Z"/>
    </g>
    <g>
      <g id="PageItem243">
        <path class="cls-2" d="M11.7,54.35h2v-6.6h-2v6.6Z"/>
      </g>
      <g id="PageItem244">
        <path class="cls-2" d="M13.7,47.75h6.6v-2h-6.6v2Z"/>
      </g>
    </g>
  </g>
</svg>