<svg width="100" height="100" viewBox="0 0 100 100" fill="none" xmlns="http://www.w3.org/2000/svg">
<g clip-path="url(#clip0_44_2035)">
<rect width="100" height="100" rx="10" fill="#527A42"/>
<rect width="100" height="50" fill="#255A57"/>
<rect y="50" width="100" height="50" fill="#282828"/>
<g clip-path="url(#clip1_44_2035)">
<path d="M95 22H5V78H95V22Z" fill="#282828"/>
<path d="M95 22H5V50H95V22Z" fill="#255A57"/>
<path d="M56.8189 35.2546C56.7885 35.1255 56.7499 35.016 56.7223 34.9178L56.6919 34.828C56.1841 33.3966 55.0111 32.5546 53.5676 32.5631C53.3137 32.5631 53.0984 32.5827 52.8749 32.6332C51.7212 32.8914 50.355 33.7362 50.355 36.2874V40.3206C50.355 40.6097 50.424 40.7781 50.493 40.9156C50.5813 41.084 50.7469 41.2131 50.9318 41.2636C50.9815 41.2748 51.0395 41.2833 51.0974 41.2833C51.2437 41.2833 51.3817 41.244 51.4976 41.1541C51.8012 40.9465 51.8012 40.5872 51.8012 40.2897V36.2874C51.8012 34.9375 52.2207 34.2807 53.1978 34.0814C53.8519 33.9327 54.4977 34.1516 54.8979 34.6372C55.0939 34.8757 55.2098 35.1031 55.2595 35.3023C55.4058 36.018 55.4831 36.2369 55.5824 36.3745L55.6128 36.4137C55.8281 36.6607 56.2089 36.7309 56.5208 36.5737C56.9652 36.3267 56.9155 35.7402 56.8189 35.2546Z" fill="white"/>
<path d="M21.7858 30.0903C21.2476 29.9808 20.7012 29.9808 20.174 30.0903C18.2503 30.486 17 32.0353 17 34.042V40.3289C17 40.5871 17.0304 40.7667 17.1076 40.9154L17.1187 40.9267C17.207 41.0951 17.3726 41.2242 17.5575 41.2747C17.7535 41.3252 17.9577 41.2859 18.1233 41.1652C18.4462 40.9463 18.4849 40.5702 18.4849 40.3008V37.7692H23.486V40.3204C23.486 40.6292 23.5743 40.806 23.624 40.9154C23.7123 41.0838 23.8779 41.2129 24.0628 41.2635C24.1125 41.2747 24.1705 41.2831 24.2284 41.2831C24.3747 41.2831 24.5127 41.2438 24.6286 41.154C24.9212 40.9547 24.9598 40.6264 24.9598 40.2896V34.0336C24.9488 32.0268 23.7096 30.486 21.7858 30.0903ZM23.475 36.3575H18.4932V34.0532C18.4932 33.0597 18.8354 32.3636 19.5861 31.8697C20.1133 31.4936 20.806 31.3533 21.4905 31.4824C21.8217 31.5413 22.1143 31.6704 22.3682 31.8585L22.3792 31.8697C23.1217 32.3749 23.4722 33.0709 23.4722 34.0532V36.3575H23.475Z" fill="white"/>
<path d="M49.2892 35.9C48.6654 33.5256 46.2808 32.1559 43.8603 32.7706C42.621 33.0877 41.6136 33.854 41.0285 34.9261C40.4434 35.9982 40.3358 37.2808 40.7249 38.5326C41.31 40.3709 42.9798 41.5217 44.8842 41.5217C45.2265 41.5217 45.588 41.4824 45.9386 41.4038C46.4768 41.2859 47.0039 41.0558 47.4731 40.747C47.8236 40.5085 48.119 40.2503 48.2735 40.051C48.5164 39.7535 48.6654 39.5149 48.6351 39.2371C48.6158 39.049 48.5192 38.8806 48.3701 38.7599C48.2128 38.6421 48.0086 38.5915 47.8236 38.6308L47.7933 38.6421C47.6084 38.701 47.4621 38.7824 47.3434 38.9003L47.2164 39.0603L47.0315 39.2286L47.0205 39.2399C46.6092 39.6581 46.1124 39.9443 45.5742 40.0538C44.1197 40.3906 42.6845 39.6075 42.1574 38.1958C42.1187 38.0779 42.0884 37.9685 42.0608 37.8674H48.4474L48.5854 37.8478L48.8007 37.8366C49.0353 37.8169 49.2119 37.7271 49.3279 37.5587C49.5431 37.25 49.5321 36.7925 49.2892 35.9ZM42.0414 36.5146C42.0608 36.3855 42.0994 36.2761 42.138 36.147C42.6348 34.5388 44.2274 33.6743 45.8309 34.1515C46.8356 34.449 47.6194 35.2825 47.8733 36.3266C47.8926 36.4052 47.912 36.4866 47.923 36.5652L42.0414 36.5146Z" fill="white"/>
<path d="M39.7451 37.8562C39.6678 37.6878 39.5105 37.5587 39.3339 37.4998C39.149 37.4408 38.953 37.4689 38.7764 37.5587C38.4341 37.7271 38.3651 38.106 38.3458 38.2351L38.2878 38.5523L38.2768 38.6505C38.0532 39.6328 37.2722 40.1689 36.2758 40.0201C35.63 39.9219 34.7716 39.5739 34.7716 37.7664V37.6485H36.7257C36.9603 37.6485 37.6724 37.6485 37.6724 36.9328C37.6724 36.5764 37.4074 36.2761 37.0955 36.2564C36.9492 36.2368 36.8223 36.2368 36.676 36.2368H34.7716V33.4863C34.7716 33.2281 34.7412 33.0485 34.664 32.8997V32.8885C34.5756 32.7201 34.41 32.591 34.2251 32.5405C34.0292 32.4899 33.8249 32.5292 33.6593 32.6499C33.3668 32.8492 33.3281 33.1776 33.3281 33.5144V37.6148C33.3281 39.95 34.1589 41.1203 36.0246 41.4291C36.2399 41.4683 36.4552 41.488 36.6705 41.488C38.136 41.488 39.367 40.5646 39.7562 39.0939C39.7865 38.9761 39.8058 38.8666 39.8252 38.7571V38.7515C39.8831 38.3221 39.8638 38.0836 39.7451 37.8562Z" fill="white"/>
<path d="M75.3355 36.6157C75.3162 36.2592 75.2665 35.9393 75.1782 35.653C74.8746 34.5809 74.1625 33.6856 73.1772 33.1299C72.1229 32.5433 70.8809 32.4142 69.6913 32.7734C68.1374 33.2393 66.9672 34.5107 66.6443 36.1105C66.1668 38.513 67.4944 40.7583 69.73 41.3449C70.1412 41.4543 70.5607 41.5048 70.9692 41.5048C71.593 41.5048 72.2002 41.3757 72.7466 41.1288C73.1965 40.9211 73.5967 40.6432 73.9086 40.3036V40.3232C73.9086 40.5927 73.9086 40.7499 73.9859 40.9098L73.9969 40.9211C74.0852 41.0895 74.2508 41.2186 74.4358 41.2691C74.6317 41.3196 74.836 41.2803 75.0016 41.1596C75.3052 40.9519 75.3521 40.6039 75.3521 40.2952V36.7841L75.3355 36.6157ZM71.662 40.0005C70.0501 40.3766 68.557 39.4841 68.1264 37.8759V37.8646C68.0574 37.6569 68.0298 37.4464 68.0105 37.2388C67.9222 35.8186 68.7612 34.5388 70.0612 34.129C70.373 34.0308 70.696 33.9803 71.0078 33.9803C71.6123 33.9803 72.1891 34.1599 72.6887 34.5163C73.4394 35.0524 73.8893 35.9253 73.9196 36.9104C73.9776 38.4316 73.0778 39.6749 71.662 40.0005Z" fill="white"/>
<path d="M65.3139 31.3702C64.5908 30.4861 63.5061 29.9809 62.3358 30.0006C60.1389 30.0314 58.654 31.648 58.654 34.0337V40.3205C58.654 40.6096 58.723 40.778 58.792 40.9155C58.8803 41.0839 59.0459 41.213 59.2308 41.2636C59.2805 41.2748 59.3385 41.2832 59.3964 41.2832C59.5427 41.2832 59.6807 41.2439 59.7966 41.1541C60.1002 40.9464 60.1389 40.5984 60.1389 40.2897V37.4381H62.2779C64.2982 37.4381 65.6754 36.366 66.0563 34.4996C66.2826 33.3769 66.0177 32.2459 65.3139 31.3702ZM62.2668 36.018H62.2365L60.1554 35.9871V33.9018C60.1554 32.9672 60.2934 32.5321 60.7323 32.0747C61.1628 31.6172 61.7286 31.3983 62.4021 31.4095C63.7214 31.4404 64.6377 32.403 64.6294 33.753C64.6018 35.0946 63.6358 36.018 62.2668 36.018Z" fill="white"/>
<path d="M83.0797 33.1579C82.9914 32.9895 82.8258 32.8604 82.6409 32.8099C82.4449 32.7594 82.2407 32.7987 82.0751 32.9194C81.7825 33.1187 81.7522 33.4555 81.7522 33.7838V37.7861C81.7522 38.5719 81.5176 39.2062 81.0981 39.5823C80.7282 39.9107 80.2287 40.0398 79.6518 39.9584C78.6555 39.8181 78.109 39.094 78.109 37.9124V33.7642C78.109 33.5172 78.0897 33.3376 78.0124 33.1692C77.9241 33.0008 77.7585 32.8717 77.5735 32.8212C77.3776 32.7706 77.1733 32.8099 77.0077 32.9306C76.7041 33.1383 76.6572 33.4863 76.6572 33.7951V37.9461C76.6572 39.6048 77.3997 40.7751 78.7576 41.2523C79.8036 41.6199 80.9463 41.4403 81.7356 40.8453V40.8762C81.6087 41.749 81.1698 42.2767 80.3887 42.4844C79.9692 42.6023 79.5387 42.5742 79.2075 42.4058C78.9342 42.2655 78.7383 42.1083 78.6223 41.9399L78.4071 41.662L78.2691 41.5021C78.1807 41.3842 78.1117 41.3224 78.0731 41.2944L78.0345 41.2551L77.9958 41.2354C77.7999 41.1175 77.557 41.1063 77.35 41.2046C77.1347 41.3028 76.9801 41.5021 76.9387 41.7322C76.8891 42.0494 77.016 42.3188 77.2423 42.6668L77.2534 42.678C77.419 42.9166 77.6453 43.1552 77.8882 43.3544C78.4153 43.781 79.1081 44 79.8423 44C80.1541 44 80.466 43.9607 80.7807 43.8821C82.3539 43.4751 83.2233 42.1925 83.2233 40.2756V33.7642C83.2343 33.4555 83.146 33.2871 83.0963 33.1776L83.0797 33.1579Z" fill="white"/>
<path d="M32.3624 34.9178L32.3321 34.828C31.8242 33.3966 30.6512 32.5546 29.2078 32.5631C28.9428 32.5631 28.7386 32.5827 28.515 32.6332C27.3613 32.8914 25.9951 33.7362 25.9951 36.2874V40.3206C25.9951 40.6293 26.0834 40.8061 26.1331 40.9072V40.9184C26.2214 41.0868 26.387 41.2159 26.572 41.2664C26.6216 41.2776 26.6796 41.2861 26.7376 41.2861C26.8838 41.2861 27.0218 41.2468 27.1378 41.157C27.4303 40.9577 27.469 40.6209 27.469 40.2925V39.3383L27.4386 37.6599H29.5196C30.2041 37.6599 30.3697 37.3035 30.389 36.9947C30.4001 36.7365 30.3007 36.5765 30.2234 36.4895C30.0772 36.3295 29.8426 36.251 29.5196 36.251H27.4303C27.4414 34.9403 27.8609 34.2947 28.8269 34.0871C29.481 33.9383 30.1268 34.1572 30.527 34.6428C30.723 34.8897 30.8389 35.1087 30.8886 35.3079C31.0349 36.0236 31.1122 36.2425 31.2115 36.3801L31.2419 36.4194C31.4572 36.6663 31.838 36.7365 32.1499 36.5793C32.6081 36.3324 32.5612 35.7458 32.4618 35.2574C32.4314 35.1255 32.4011 35.016 32.3624 34.9178Z" fill="white"/>
<path d="M85.6879 30.6657C85.4837 30.458 85.2298 30.3486 84.9262 30.3486C84.6336 30.3486 84.3797 30.4468 84.1644 30.6657C83.9602 30.8846 83.8525 31.1429 83.8525 31.4404C83.8525 31.7379 83.9602 31.9961 84.1644 32.215C84.3687 32.4339 84.6226 32.5434 84.9262 32.5434C85.2187 32.5434 85.4727 32.4339 85.6879 32.215C85.8922 31.9961 85.9998 31.7379 85.9998 31.4404C85.9998 31.1316 85.9032 30.8734 85.6879 30.6657ZM85.5693 32.1055C85.3926 32.2936 85.1691 32.3834 84.9151 32.3834C84.6612 32.3834 84.4459 32.2936 84.261 32.1055C84.0761 31.9175 83.9878 31.6873 83.9878 31.4291C83.9878 31.1709 84.0844 30.952 84.261 30.764C84.4459 30.5843 84.6612 30.4861 84.9151 30.4861C85.1691 30.4861 85.3843 30.5759 85.5693 30.764C85.7542 30.9436 85.8425 31.1709 85.8425 31.4291C85.8425 31.6986 85.7459 31.9175 85.5693 32.1055Z" fill="white"/>
<path d="M85.4039 31.1736C85.4039 31.0136 85.3349 30.9154 85.219 30.8649C85.15 30.834 85.0424 30.8256 84.8961 30.8256H84.4849V32.0268H84.7001V31.5497H84.8657C84.9817 31.5497 85.0507 31.5609 85.1003 31.589C85.1693 31.6395 85.208 31.7293 85.208 31.8668V32.0156V32.0268H85.4039L85.3929 32.0156C85.3819 32.0044 85.3819 31.9847 85.3819 31.9566V31.777C85.3819 31.7181 85.3515 31.6479 85.3129 31.589C85.2632 31.53 85.1969 31.4907 85.1086 31.4711C85.1859 31.4599 85.2466 31.4402 85.2853 31.4122C85.3653 31.3616 85.4039 31.283 85.4039 31.1736ZM85.0727 31.3813C85.0341 31.4009 84.9651 31.4122 84.8768 31.4122H84.6919V30.9743H84.8685C84.9844 30.9743 85.0727 30.994 85.1224 31.0248C85.1804 31.0557 85.1997 31.1147 85.1997 31.1932C85.1997 31.283 85.15 31.3504 85.0727 31.3813Z" fill="white"/>
<path d="M83 60.2532L79.889 64.3853V67.7468H78.1775V64.3853L75.0665 60.2532H77.1881L79.0812 62.7986L80.9597 60.2532H83ZM65.6761 60.2532V61.7331H68.4187V67.75H70.1156V61.7299H72.8551V60.25L65.6761 60.2532ZM57.1884 61.7331H59.7129C60.4632 61.7331 60.8118 62.0196 60.8118 62.6253C60.8118 63.231 60.4632 63.5174 59.7129 63.5174H57.1884V61.7331ZM62.9011 67.75L60.9527 64.862C61.9963 64.5756 62.5411 63.8155 62.5411 62.6253C62.5411 61.0819 61.6164 60.2563 59.8976 60.2563H55.4915V67.75H57.1884V64.991H59.0596L60.8984 67.7468L62.9011 67.75ZM44.1161 60.2563V67.75H50.8067V66.2701H45.8162V64.7162H50.1044V63.2363H45.8162V61.7299H50.8098V60.25L44.1161 60.2563ZM38.7937 60.2563L36.6105 65.7965L34.4126 60.2542H32.5717L35.6942 67.7479H37.4349L40.5574 60.2542L38.7937 60.2563ZM27.2931 67.7468H28.99V60.2532H27.2931V67.7468ZM17 67.7468H18.6969V61.9709H17V67.7468ZM18.6969 61.972H24.3982V60.2521H18.6969V61.972Z" fill="#E7E4E2"/>
</g>
</g>
<defs>
<clipPath id="clip0_44_2035">
<rect width="100" height="100" rx="10" fill="white"/>
</clipPath>
<clipPath id="clip1_44_2035">
<rect width="90" height="56" fill="white" transform="translate(5 22)"/>
</clipPath>
</defs>
</svg>
