<svg width="100" height="100" xmlns="http://www.w3.org/2000/svg" data-name="Laag 1">
 <g> 
  <path d="m0,10.37c0,-5.63484 4.73516,-10.37 10.37,-10.37l79.26,0c5.63484,0 10.37,4.73516 10.37,10.37l0,79.26c0,5.63484 -4.73516,10.37 -10.37,10.37l-79.26,0c-5.63484,0 -10.37,-4.73516 -10.37,-10.37l0,-79.26z" opacity="undefined" fill="#ffffff"/>
  <path d="m29,55.92l0,0a3.15,3.15 0 0 1 3.15,3.15l0,0l0,11.21l0,0a6.3,6.3 0 0 1 -6.3,-6.3l0,-4.91a3.15,3.15 0 0 1 3.15,-3.15z"/>
  <rect stroke="null" height="38.84992" width="92.44841" y="9.35404" x="3.81433" fill="#255a57"/>
  <path stroke="null" fill="#fff" d="m54.49872,27.89721c-0.02188,-0.09301 -0.05106,-0.17325 -0.07112,-0.24438l-0.02188,-0.06565c-0.37021,-1.04498 -1.22553,-1.65957 -2.27963,-1.65227c-0.18419,0 -0.34103,0.01459 -0.50517,0.05106c-0.84073,0.18784 -1.83829,0.80243 -1.83829,2.66443l0,2.94345c0,0.20973 0.05106,0.33374 0.10213,0.43404a0.52158,0.52158 0 0 0 0.31915,0.25349c0.03647,0.00729 0.07842,0.01459 0.12036,0.01459a0.46687,0.46687 0 0 0 0.29179,-0.09483c0.22249,-0.15137 0.22249,-0.41398 0.22249,-0.631l0,-2.91792c0,-0.9848 0.30638,-1.46443 1.01945,-1.61033c0.47599,-0.10942 0.94832,0.05106 1.24012,0.40486a1.27112,1.27112 0 0 1 0.26261,0.4851c0.1076,0.5234 0.16413,0.68206 0.23708,0.78419l0.02188,0.02736a0.55441,0.55441 0 0 0 0.662,0.11672c0.3228,-0.18055 0.28814,-0.60912 0.21702,-0.96291zm-25.55553,-3.76594a2.9161,2.9161 0 0 0 -1.17629,0c-1.40243,0.28814 -2.3161,1.41884 -2.3161,2.88145l0,4.58661c0,0.18784 0.02371,0.31915 0.08024,0.42675l0.00729,0.00912a0.52158,0.52158 0 0 0 0.32097,0.25532c0.14225,0.03647 0.29179,0.00729 0.41216,-0.08207c0.23708,-0.15866 0.26444,-0.43404 0.26444,-0.62918l0,-1.84741l3.6474,0l0,1.86018c0,0.22614 0.06565,0.35562 0.1003,0.43404a0.52158,0.52158 0 0 0 0.32097,0.25532c0.03647,0.00729 0.07842,0.01459 0.12036,0.01459a0.46687,0.46687 0 0 0 0.29179,-0.09483c0.21337,-0.1459 0.24255,-0.3848 0.24255,-0.631l0,-4.5629c-0.00912,-1.46443 -0.91185,-2.58966 -2.3161,-2.87598zm1.23282,4.5702l-3.63464,0l0,-1.67963c0,-0.72583 0.24985,-1.23282 0.79696,-1.59392a1.81641,1.81641 0 0 1 1.38966,-0.28267c0.24255,0.04377 0.45593,0.1386 0.64012,0.27356l0.00912,0.00912c0.54164,0.36839 0.79696,0.87538 0.79696,1.59392l0,1.67963l0,0l0.00182,0zm18.82972,-0.33191c-0.45593,-1.73252 -2.19391,-2.73191 -3.95926,-2.28327a3.2243,3.2243 0 0 0 -2.06625,1.57203a3.36473,3.36473 0 0 0 -0.22067,2.62978c0.42675,1.34224 1.64316,2.18115 3.03282,2.18115a3.3702,3.3702 0 0 0 1.88936,-0.56535a2.73555,2.73555 0 0 0 0.58358,-0.50699c0.1769,-0.21884 0.28632,-0.3921 0.26444,-0.59453a0.50334,0.50334 0 0 0 -0.5927,-0.44316l-0.02188,0.00912a0.78784,0.78784 0 0 0 -0.32827,0.18784l-0.09119,0.11672l-0.13678,0.12401l-0.00729,0.00729a2.06625,2.06625 0 0 1 -1.05592,0.59453a2.12826,2.12826 0 0 1 -2.5623,-1.59574l4.65773,0l0.10213,-0.01459l0.15684,-0.00729c0.17143,-0.01459 0.29909,-0.08024 0.38298,-0.20243c0.15866,-0.22614 0.14954,-0.55988 -0.02736,-1.21094l0,0.00182zm-5.28691,0.44681c0.01459,-0.09301 0.04195,-0.17325 0.07112,-0.26808a2.13738,2.13738 0 0 1 2.69361,-1.45531a2.18844,2.18844 0 0 1 1.52644,1.75987l-4.29117,-0.03647zm-1.67416,0.97933a0.50699,0.50699 0 0 0 -0.30091,-0.26079a0.53434,0.53434 0 0 0 -0.40669,0.04377c-0.24985,0.12219 -0.29909,0.39939 -0.31368,0.4924l-0.04195,0.23161l-0.00912,0.07295c-0.16413,0.71489 -0.7313,1.10699 -1.45896,0.99756c-0.47052,-0.07112 -1.09787,-0.32462 -1.09787,-1.64316l0,-0.08571l1.42613,0c0.17143,0 0.69118,0 0.69118,-0.5234c0,-0.25897 -0.19331,-0.47781 -0.42128,-0.4924c-0.1076,-0.01459 -0.20061,-0.01459 -0.30638,-0.01459l-1.38966,0l0,-2.00607a0.90456,0.90456 0 0 0 -0.07842,-0.42857l0,-0.00729a0.52158,0.52158 0 0 0 -0.31915,-0.25532a0.48875,0.48875 0 0 0 -0.41398,0.08024c-0.21337,0.1459 -0.24073,0.3848 -0.24073,0.631l0,2.99087c0,1.70334 0.60547,2.55683 1.96777,2.78297c0.15684,0.02918 0.31368,0.04377 0.47052,0.04377c1.06869,0 1.96595,-0.67477 2.25045,-1.74711c0.02188,-0.08571 0.03647,-0.16596 0.05106,-0.2462l0,-0.00365c0.04195,-0.31368 0.02736,-0.48693 -0.05836,-0.65289zm25.96039,-0.90456a3.06564,3.06564 0 0 0 -1.57385,-2.54224a3.25713,3.25713 0 0 0 -2.54224,-0.26079a3.19513,3.19513 0 0 0 -2.22309,2.43464c-0.34833,1.75075 0.62006,3.39026 2.25045,3.81701c0.30091,0.08024 0.60547,0.11672 0.90456,0.11672c0.45593,0 0.89726,-0.09301 1.29483,-0.27356c0.32827,-0.15137 0.62006,-0.3538 0.84985,-0.60182l0,0.01459c0,0.19514 0,0.31003 0.05471,0.42675l0.00912,0.00912a0.52158,0.52158 0 0 0 0.31915,0.25349c0.14407,0.03647 0.29179,0.00729 0.41398,-0.08024c0.22067,-0.15137 0.25532,-0.40486 0.25532,-0.631l0,-2.56048l-0.01277,-0.12219zm-2.67902,2.46929a2.1082,2.1082 0 0 1 -2.57871,-1.55015l0,-0.00912a2.02249,2.02249 0 0 1 -0.08571,-0.45593c-0.06383,-1.03586 0.54711,-1.9696 1.49544,-2.26869c0.22796,-0.07295 0.46504,-0.10942 0.69301,-0.10942c0.43951,0 0.86079,0.13131 1.22553,0.3921c0.54711,0.39027 0.87538,1.02857 0.89726,1.74711c0.04195,1.10881 -0.61459,2.01519 -1.6468,2.2541zm-4.63038,-6.29542a2.73008,2.73008 0 0 0 -2.17203,-0.99939c-1.60486,0.02188 -2.68631,1.20182 -2.68631,2.94163l0,4.58661c0,0.20973 0.05106,0.33374 0.1003,0.43404a0.52158,0.52158 0 0 0 0.32097,0.25349c0.03647,0.00729 0.07842,0.01459 0.12036,0.01459a0.46687,0.46687 0 0 0 0.29179,-0.09483c0.22067,-0.15137 0.24985,-0.40486 0.24985,-0.631l0,-2.07902l1.55927,0c1.47537,0 2.48023,-0.78419 2.75744,-2.14467c0.16413,-0.81884 -0.02918,-1.64316 -0.54164,-2.28145zm-2.22309,3.39026l-0.02188,0l-1.51732,-0.02371l0,-1.52097c0,-0.68206 0.1003,-0.99939 0.41945,-1.3313a1.56656,1.56656 0 0 1 1.21823,-0.48693c0.96291,0.02371 1.63039,0.72583 1.62492,1.71063c-0.02006,0.9775 -0.72401,1.65227 -1.7234,1.65227zm15.18232,-2.08631a0.52158,0.52158 0 0 0 -0.32097,-0.25532a0.48875,0.48875 0 0 0 -0.41216,0.08024c-0.21337,0.1459 -0.23708,0.3921 -0.23708,0.631l0,2.91792c0,0.57447 -0.1696,1.03769 -0.47416,1.31307c-0.27173,0.23708 -0.63465,0.33191 -1.05775,0.27356c-0.72583,-0.10213 -1.1234,-0.631 -1.1234,-1.49361l0,-3.02552a0.99939,0.99939 0 0 0 -0.07112,-0.43404a0.52158,0.52158 0 0 0 -0.31915,-0.25532a0.48875,0.48875 0 0 0 -0.41398,0.08207c-0.22067,0.15137 -0.25532,0.40486 -0.25532,0.62918l0,3.02734c0,1.21094 0.54164,2.06443 1.53191,2.41276c0.76413,0.26808 1.59756,0.13678 2.17203,-0.29726l0,0.02371c-0.09119,0.63647 -0.41216,1.02127 -0.98115,1.17264a1.20729,1.20729 0 0 1 -0.86261,-0.05653a1.13799,1.13799 0 0 1 -0.42675,-0.34103l-0.15684,-0.20061l-0.1003,-0.11854a0.72948,0.72948 0 0 0 -0.14407,-0.15137l-0.02736,-0.02918l-0.02918,-0.01459a0.49969,0.49969 0 0 0 -0.47052,-0.02188a0.52887,0.52887 0 0 0 -0.29909,0.3848c-0.03647,0.23161 0.05471,0.42857 0.22067,0.68206l0.00729,0.00912c0.12219,0.17325 0.28632,0.3465 0.46322,0.4924c0.3848,0.31003 0.88997,0.47052 1.42613,0.47052c0.22796,0 0.45593,-0.02736 0.68389,-0.08571c1.14893,-0.29726 1.78176,-1.23282 1.78176,-2.62978l0,-4.75074c0.00912,-0.22432 -0.05471,-0.3465 -0.09119,-0.42857l-0.01277,-0.01277zm-36.99561,1.28389l-0.02188,-0.06565c-0.37204,-1.04498 -1.22735,-1.65957 -2.27963,-1.65227a2.17021,2.17021 0 0 0 -0.50517,0.05106c-0.84255,0.18784 -1.83829,0.80243 -1.83829,2.66443l0,2.94345c0,0.22432 0.06383,0.3538 0.1003,0.42675l0,0.00912a0.52158,0.52158 0 0 0 0.32097,0.25349c0.03647,0.00729 0.07842,0.01459 0.12036,0.01459a0.46687,0.46687 0 0 0 0.29179,-0.09483c0.21337,-0.1459 0.24073,-0.39027 0.24073,-0.631l0,-0.69483l-0.02188,-1.22553l1.51914,0c0.49787,0 0.62006,-0.25897 0.63282,-0.4851a0.50152,0.50152 0 0 0 -0.12036,-0.36839c-0.10577,-0.11672 -0.2772,-0.17325 -0.51246,-0.17325l-1.52644,0c0.00729,-0.95562 0.31368,-1.42796 1.01763,-1.57933c0.47781,-0.10942 0.94832,0.05106 1.24012,0.40669a1.31671,1.31671 0 0 1 0.26444,0.4851c0.1076,0.52158 0.16413,0.68024 0.23708,0.78054l0.02006,0.02918a0.55441,0.55441 0 0 0 0.66383,0.11672c0.33374,-0.18055 0.29909,-0.60729 0.22614,-0.96474a1.74164,1.74164 0 0 0 -0.07295,-0.2462l0.00365,0zm38.89774,-3.10212a0.75137,0.75137 0 0 0 -0.55441,-0.23161a0.74589,0.74589 0 0 0 -0.55623,0.23161a0.80425,0.80425 0 0 0 -0.22796,0.56535c0,0.21702 0.07842,0.40486 0.22796,0.56535a0.72948,0.72948 0 0 0 0.55623,0.23708a0.75319,0.75319 0 0 0 0.55441,-0.23708a0.80425,0.80425 0 0 0 0.22796,-0.56535a0.74772,0.74772 0 0 0 -0.22796,-0.56535zm-0.08571,1.05045a0.631,0.631 0 0 1 -0.47781,0.20061a0.64012,0.64012 0 0 1 -0.47781,-0.20061a0.68206,0.68206 0 0 1 -0.19878,-0.4924a0.68754,0.68754 0 0 1 0.67659,-0.68936c0.18602,0 0.34286,0.06565 0.47781,0.20243c0.13495,0.13131 0.19878,0.29726 0.19878,0.4851a0.69301,0.69301 0 0 1 -0.20061,0.4924l0.00182,0.00182z"/>
  <path fill="#fff" stroke="null" d="m75.18401,25.02945c0,-0.064 -0.028,-0.103 -0.074,-0.124a0.346,0.346 0 0 0 -0.13,-0.015l-0.164,0l0,0.48l0.086,0l0,-0.19l0.066,0c0.047,0 0.074,0.004 0.094,0.015c0.028,0.02 0.043,0.056 0.043,0.111l0,0.064l0.079,0l-0.005,-0.004c-0.004,-0.005 -0.004,-0.013 -0.004,-0.024l0,-0.072a0.15,0.15 0 0 0 -0.028,-0.075a0.143,0.143 0 0 0 -0.082,-0.047a0.164,0.164 0 0 0 0.071,-0.024c0.032,-0.02 0.048,-0.051 0.048,-0.095zm-0.133,0.083a0.19,0.19 0 0 1 -0.078,0.012l-0.074,0l0,-0.174l0.07,0c0.047,0 0.082,0.008 0.102,0.02c0.023,0.013 0.03,0.036 0.03,0.068c0,0.036 -0.019,0.063 -0.05,0.075l0,-0.001z"/>
  <rect stroke="null" height="38.84992" width="92.44841" y="52.01861" x="3.80138" fill="#282828"/>
  <path stroke="null" fill="#E7E4E2" d="m76.67754,68.91536l-2.42376,3.00631l0,2.44714l-1.33268,0l0,-2.44714l-2.42376,-3.00826l1.65221,0l1.47491,1.85289l1.46711,-1.85094l1.58596,0zm-13.50211,0l0,1.0716l2.13735,0l0,4.38185l1.32293,0l0,-4.37991l2.13735,0l0,-1.07549l-5.59763,0l0,0.00195zm-6.61467,1.0716l1.96784,0c0.58451,0 0.85728,0.21042 0.85728,0.65075c0,0.44228 -0.27277,0.65075 -0.85728,0.65075l-1.96784,0l0,-1.29955l0,-0.00195zm4.45199,4.38185l-1.51582,-2.10228c0.81441,-0.20847 1.23915,-0.76181 1.23915,-1.62883c0,-1.12225 -0.72089,-1.7243 -2.06136,-1.7243l-3.433,0l0,5.4554l1.32099,0l0,-2.00681l1.46127,0l1.43204,2.00681l1.55869,0l-0.00195,0zm-14.63605,-5.4554l0,5.4554l5.2138,0l0,-1.07549l-3.89087,0l0,-1.13005l3.34143,0l0,-1.07549l-3.34143,0l0,-1.09887l3.89087,0l0,-1.07354l-5.2138,0l0,0l0,-0.00195zm-4.14805,0l-1.70286,4.03505l-1.71455,-4.0331l-1.43204,0l2.4335,5.45345l1.35606,0l2.4335,-5.4554l-1.37359,0l0,0zm-8.96244,5.4554l1.32099,0l0,-5.4554l-1.32293,0l0,5.4554l0.00195,0zm-8.02333,0l1.32293,0l0,-4.20455l-1.32488,0l0,4.20455l0.00195,0zm1.32293,-4.20455l4.44225,0l0,-1.25084l-4.44225,0l0,1.25084z"/>
 </g>
</svg>