<svg id="Laag_1" data-name="Laag 1" xmlns="http://www.w3.org/2000/svg" viewBox="0 0 100 100"><defs><style>.cls-1{fill:#ef8a20;}.cls-2{fill:#fff;}</style></defs><rect class="cls-1" width="100" height="100" rx="10.37"/><rect class="cls-2" x="30.07" y="46.57" width="4.04" height="14.09"/><path class="cls-2" d="M34,40.41a2.81,2.81,0,0,0-.86-.57,2.68,2.68,0,0,0-3.74,2.46,2.58,2.58,0,0,0,.21,1,2.79,2.79,0,0,0,.58.85,2.71,2.71,0,0,0,2.95.57,2.68,2.68,0,0,0,1.44-1.42,2.58,2.58,0,0,0,.21-1,2.65,2.65,0,0,0-.21-1A2.84,2.84,0,0,0,34,40.41Z"/><rect class="cls-2" x="37.17" y="40.31" width="4.04" height="20.34"/><rect class="cls-2" x="44.26" y="40.31" width="4.04" height="20.34"/><path class="cls-2" d="M55.3,40.41a2.93,2.93,0,0,0-.86-.57,2.67,2.67,0,0,0-1-.22,2.6,2.6,0,0,0-1,.22,2.69,2.69,0,0,0-.86.57,2.68,2.68,0,0,0-.78,1.89,2.58,2.58,0,0,0,.21,1,2.76,2.76,0,0,0,.57.85,2.69,2.69,0,0,0,.86.57,2.59,2.59,0,0,0,1,.21,2.66,2.66,0,0,0,1-.21,2.93,2.93,0,0,0,.86-.57,3,3,0,0,0,.58-.85,2.58,2.58,0,0,0,.21-1,2.65,2.65,0,0,0-.21-1A2.84,2.84,0,0,0,55.3,40.41Z"/><rect class="cls-2" x="51.36" y="46.57" width="4.04" height="14.09"/><path class="cls-2" d="M70.46,46.68a7.18,7.18,0,0,0-2.23-1.52,7,7,0,0,0-7.48,1.29l-1.33-1.53h-1V60.66h4v-9a2.84,2.84,0,0,1,.23-1.17,2.91,2.91,0,0,1,.65-1,2.85,2.85,0,0,1,1-.65,3,3,0,0,1,1.19-.24,2.83,2.83,0,0,1,1.16.24,3,3,0,0,1,1,.65,2.91,2.91,0,0,1,.65,1,2.84,2.84,0,0,1,.23,1.17v9h4v-9A6.82,6.82,0,0,0,72,48.93,6.93,6.93,0,0,0,70.46,46.68Z"/><polygon class="cls-2" points="90 44.95 85.39 44.95 79.41 52.53 79.41 40.31 75.37 40.31 75.37 60.66 79.41 60.66 79.41 58.65 82.2 54.94 85.39 60.66 90 60.66 84.78 51.51 90 44.95"/><path class="cls-2" d="M18.72,43.21A8.69,8.69,0,0,0,13,45.38a3.89,3.89,0,0,1,2-2v-.81a3.2,3.2,0,0,0-3.2-3.2H10v12.6h0a8.72,8.72,0,1,0,8.72-8.73Zm0,13.41A4.68,4.68,0,0,1,14,51.93v0h9.37v0A4.69,4.69,0,0,1,18.72,56.62Z"/></svg>