<?xml version="1.0" encoding="utf-8"?>
<!-- Generator: Adobe Illustrator 25.4.0, SVG Export Plug-In . SVG Version: 6.00 Build 0)  -->
<svg version="1.1" id="Laag_1" xmlns="http://www.w3.org/2000/svg" xmlns:xlink="http://www.w3.org/1999/xlink" x="0px" y="0px"
	 viewBox="0 0 100 100" style="enable-background:new 0 0 100 100;" xml:space="preserve">
<style type="text/css">
	.st0{fill:#FFFFFF;}
	.st1{fill:#B3B3B2;}
	.st2{fill:#1D345D;}
	.st3{fill:none;stroke:#1D345D;stroke-width:4.13;stroke-miterlimit:10;}
	.st4{fill:#24AC71;}
</style>
<path class="st0" d="M10.4,0.5h79.3c5.5,0,9.9,4.4,9.9,9.9v79.3c0,5.5-4.4,9.9-9.9,9.9H10.4c-5.5,0-9.9-4.4-9.9-9.9V10.4
	C0.5,4.9,4.9,0.5,10.4,0.5z"/>
<path class="st1" d="M89.6,1c5.2,0,9.4,4.2,9.4,9.4v79.3c0,5.2-4.2,9.4-9.4,9.4H10.4C5.2,99,1,94.8,1,89.6V10.4C1,5.2,5.2,1,10.4,1
	H89.6 M89.6,0H10.4C4.7,0,0,4.7,0,10.4v79.3C0,95.3,4.7,100,10.4,100h79.3c5.7,0,10.3-4.7,10.4-10.4V10.4C100,4.7,95.3,0,89.6,0z"/>
<path class="st2" d="M58.4,42.3l0.4-13.2c0-3.7-3-6.6-6.7-6.6H30.4c-3.4,0-6.2,2.8-6.2,6.2v34.6c0,3.7,3,6.7,6.6,6.7c0,0,0,0,0,0
	h7.3c0.3,0,1.4-0.2,1.4-2c0.1-0.9-0.5-1.7-1.4-1.8c-0.1,0-0.2,0-0.3,0h-0.3c-0.3,0-0.5-0.2-0.5-0.5V26.3c0-0.3,0.2-0.5,0.5-0.5h14.7
	c1.5,0,2.7,1.2,2.7,2.7v14.3 M42.3,62.1l-11.1,3.6c0,0.2-0.2,0.4-0.4,0.4c-1.5,0-2.7-1.2-2.7-2.7V28.5c0-1.5,1.2-2.7,2.7-2.7
	c0.2,0,0.4,0.2,0.4,0.4l0,0L42.3,62.1z"/>
<path class="st3" d="M57.3,30.2l-0.9,25.8c0,1.2-0.8,2.3-2,2.6l0,0c-1.9-1-3.5-11.4-9.8-11.9c-0.2,0-3.5,0-3.8,0.6
	s8.6,27.3,11.8,29.1s16.2,1.4,17.2-0.9s5.5-19.8,5.5-19.9c0.2-0.8,1.4-5.7-1.9-8.2l0,0c-0.8-0.7-16.3-16.4-16.3-16.4"/>
<rect x="31.1" y="25.8" class="st4" width="5.8" height="40.2"/>
</svg>
