<svg width="100" height="100" viewBox="0 0 100 100" fill="none" xmlns="http://www.w3.org/2000/svg">
<rect width="100" height="100" rx="10" fill="white"/>
<g clip-path="url(#clip0_532_1248)">
<path fill-rule="evenodd" clip-rule="evenodd" d="M88.5425 40.4375V27.5888C88.5425 20.1697 83.0406 14.1232 76.2901 14.1232H23.7119C16.9579 14.1907 11.4562 20.2373 11.4562 27.5888V40.4374C11.4562 41.7424 12.3952 42.7745 13.5828 42.7745H86.4193C87.6067 42.7745 88.5425 41.7424 88.5425 40.4374V40.4375Z" fill="#34A853"/>
<path fill-rule="evenodd" clip-rule="evenodd" d="M88.5425 51.7076V38.9265C88.5425 31.5039 83.0406 25.4574 76.2901 25.4574H23.7119C16.9579 25.4574 11.4562 31.5039 11.4562 38.9265V51.7751C11.4562 53.0801 12.3952 54.1122 13.5828 54.1122H86.4193C87.6067 54.0411 88.5425 53.0127 88.5425 51.7076Z" fill="#FBBC04"/>
<path fill-rule="evenodd" clip-rule="evenodd" d="M88.5425 63.0456V50.1969C88.5425 42.7745 83.0406 36.7278 76.2901 36.7278H23.7119C16.9579 36.7278 11.4562 42.7745 11.4562 50.1969V63.0456C11.4562 64.3506 12.3952 65.3791 13.5828 65.3791H86.4193C87.6067 65.3117 88.5425 64.2798 88.5425 63.0456Z" fill="#EA4335"/>
<path fill-rule="evenodd" clip-rule="evenodd" d="M60.4721 56.8609L11.4562 44.3561V72.6635C11.4562 80.086 16.958 86.1327 23.7118 86.1327H76.2901C83.0406 86.1327 88.5425 80.086 88.5425 72.6635V43.8065L76.8517 53.1512C72.1017 56.9282 66.161 58.3041 60.4721 56.8608V56.8609Z" fill="#4285F4"/>
</g>
<defs>
<clipPath id="clip0_532_1248">
<rect width="77.3898" height="77.3898" fill="white" transform="translate(11.3051 11.3052)"/>
</clipPath>
</defs>
</svg>
