<svg id="Laag_1" data-name="Laag 1" xmlns="http://www.w3.org/2000/svg" viewBox="0 0 100 100"><defs><style>.cls-1{fill:#fff;}.cls-2{fill:#a8a8a7;}.cls-3{fill:#5f6368;}.cls-4{fill:#4285f4;}.cls-5{fill:#34a853;}.cls-6{fill:#fbbc04;}.cls-7{fill:#ea4335;}</style></defs><rect class="cls-1" x="0.5" y="0.5" width="99" height="99" rx="9.87"/><path class="cls-2" d="M89.63,1A9.38,9.38,0,0,1,99,10.37V89.63A9.38,9.38,0,0,1,89.63,99H10.37A9.38,9.38,0,0,1,1,89.63V10.37A9.38,9.38,0,0,1,10.37,1H89.63m0-1H10.37A10.41,10.41,0,0,0,0,10.37V89.63A10.41,10.41,0,0,0,10.37,100H89.63A10.41,10.41,0,0,0,100,89.63V10.37A10.41,10.41,0,0,0,89.63,0Z"/><path class="cls-3" d="M48,49.67v8.51h-2.7v-21h7.16A6.47,6.47,0,0,1,57.12,39a6.06,6.06,0,0,1,.31,8.58l-.31.31a6.48,6.48,0,0,1-4.64,1.79Zm0-9.93v7.34h4.52A3.54,3.54,0,0,0,55.21,46a3.7,3.7,0,0,0-2.67-6.26Z"/><path class="cls-3" d="M65.28,43.33A6.68,6.68,0,0,1,70,44.93a5.65,5.65,0,0,1,1.73,4.39v8.86H69.16v-2H69a5.16,5.16,0,0,1-4.46,2.46,5.8,5.8,0,0,1-4-1.41A4.5,4.5,0,0,1,59,53.72a4.26,4.26,0,0,1,1.69-3.55,7.12,7.12,0,0,1,4.51-1.32,8,8,0,0,1,4,.88v-.62A3.07,3.07,0,0,0,68,46.72a3.79,3.79,0,0,0-2.6-1,4.16,4.16,0,0,0-3.59,1.91l-2.38-1.5A6.62,6.62,0,0,1,65.28,43.33ZM61.79,53.78a2.16,2.16,0,0,0,.9,1.76,3.22,3.22,0,0,0,2.09.7,4.27,4.27,0,0,0,3-1.26,3.92,3.92,0,0,0,1.34-3,5.44,5.44,0,0,0-3.52-1,4.53,4.53,0,0,0-2.74.79,2.35,2.35,0,0,0-1.11,2Z"/><path class="cls-3" d="M86.58,43.8l-9,20.72H74.77l3.34-7.25L72.18,43.8h2.94l4.29,10.33h0L83.63,43.8Z"/><path class="cls-4" d="M37.1,47.83a13.43,13.43,0,0,0-.2-2.45H25.5V50H32a5.59,5.59,0,0,1-2.41,3.67v3h3.89A11.81,11.81,0,0,0,37.1,47.83Z"/><path class="cls-5" d="M25.5,59.64a11.55,11.55,0,0,0,8-2.92l-3.89-3a7.32,7.32,0,0,1-10.9-3.83h-4V53A12.09,12.09,0,0,0,25.5,59.64Z"/><path class="cls-6" d="M18.72,49.87a7.33,7.33,0,0,1,0-4.63V42.13h-4a12.12,12.12,0,0,0,0,10.85Z"/><path class="cls-7" d="M25.5,40.26a6.55,6.55,0,0,1,4.64,1.81h0l3.45-3.45a11.62,11.62,0,0,0-8.09-3.14,12.08,12.08,0,0,0-10.79,6.65l4,3.11A7.23,7.23,0,0,1,25.5,40.26Z"/></svg>