<svg id="Laag_1" data-name="Laag 1" xmlns="http://www.w3.org/2000/svg" viewBox="0 0 100 100"><defs><style>.cls-1{fill:#fff;}.cls-2{fill:#a8a8a7;}.cls-3,.cls-5,.cls-7{fill:none;stroke-miterlimit:10;stroke-width:3.83px;}.cls-3{stroke:#fdc41f;}.cls-4{fill:#fdc41f;}.cls-5{stroke:#24ac71;}.cls-6{fill:#34a853;}.cls-7{stroke:#1c3b6c;}.cls-8{fill:#1c3b6c;}</style></defs><rect class="cls-1" x="0.5" y="0.5" width="99" height="99" rx="9.87"/><path class="cls-2" d="M89.63,1A9.38,9.38,0,0,1,99,10.37V89.63A9.38,9.38,0,0,1,89.63,99H10.37A9.38,9.38,0,0,1,1,89.63V10.37A9.38,9.38,0,0,1,10.37,1H89.63m0-1H10.37A10.41,10.41,0,0,0,0,10.37V89.63A10.41,10.41,0,0,0,10.37,100H89.63A10.41,10.41,0,0,0,100,89.63V10.37A10.41,10.41,0,0,0,89.63,0Z"/><rect class="cls-3" x="40.29" y="19.69" width="43.71" height="28.35" rx="3.57"/><rect class="cls-4" x="46.49" y="20.46" width="4.17" height="27.59"/><rect class="cls-1" x="23.36" y="29.86" width="54.31" height="35.23" rx="4.43"/><path class="cls-1" d="M52.37,51.07l.49-2.26h1.77v-1.1H53.09l.48-2.26h1.24c.1-.38.18-.76.3-1.12A10.69,10.69,0,0,1,63,36.72a9.82,9.82,0,0,1,6.79.8c.16.08.27.15.22.37-.31,1.42-.61,2.85-.92,4.27a1.15,1.15,0,0,1-.06.17,6,6,0,0,0-9.56,3.11h8.91l-.48,2.25H59.11l.08,1.12H67.7l-.48,2.24H60a5.86,5.86,0,0,0,9.34,1.76c.17.85.34,1.68.5,2.51.13.64.24,1.29.39,1.92a.4.4,0,0,1-.25.55,10.3,10.3,0,0,1-11.7-1.61,11.37,11.37,0,0,1-3.09-4.82c-.07-.23-.16-.31-.41-.3C54,51.08,53.2,51.07,52.37,51.07Z"/><rect class="cls-1" x="31.07" y="30.82" width="5.18" height="34.27"/><rect class="cls-5" x="28.91" y="35" width="43.71" height="28.35" rx="3.57"/><rect class="cls-6" x="35.11" y="35.77" width="4.17" height="27.59"/><rect class="cls-1" x="16" y="45.08" width="50.48" height="35.23" rx="4.43"/><path class="cls-1" d="M41.18,66.29,41.66,64h1.77v-1.1H41.9l.48-2.26h1.23c.11-.38.19-.76.3-1.12a10.71,10.71,0,0,1,7.94-7.61,9.82,9.82,0,0,1,6.79.8c.16.08.27.15.22.37-.31,1.42-.62,2.85-.92,4.28,0,0,0,.1-.07.16a6,6,0,0,0-9.55,3.11h8.91l-.48,2.25H47.91L48,64h8.51L56,66.27H48.82A5.87,5.87,0,0,0,58.16,68c.17.85.33,1.67.5,2.5.13.64.24,1.29.39,1.93a.4.4,0,0,1-.25.54A10.29,10.29,0,0,1,47.1,71.4,11.19,11.19,0,0,1,44,66.58a.36.36,0,0,0-.41-.3C42.81,66.3,42,66.29,41.18,66.29Z"/><rect class="cls-1" x="19.88" y="46.04" width="5.18" height="34.27"/><rect class="cls-7" x="17.74" y="50.25" width="43.71" height="28.35" rx="3.57"/><path class="cls-8" d="M41.09,67.32l.39-1.82h1.43v-.88H41.67l.39-1.82h1c.08-.31.15-.61.24-.9a8.63,8.63,0,0,1,6.39-6.13,7.9,7.9,0,0,1,5.46.65c.13.06.22.12.18.29-.25,1.15-.49,2.3-.74,3.45,0,0,0,.08,0,.13a4.8,4.8,0,0,0-7.69,2.5H54l-.39,1.82H46.51l.07.9h6.85L53,67.31h-5.8a4.72,4.72,0,0,0,7.51,1.42c.14.68.28,1.35.41,2,.1.51.19,1,.31,1.54a.32.32,0,0,1-.2.44,8.28,8.28,0,0,1-9.42-1.3,9.05,9.05,0,0,1-2.48-3.87c-.06-.19-.14-.25-.33-.24C42.4,67.33,41.76,67.32,41.09,67.32Z"/><rect class="cls-8" x="23.95" y="51.02" width="4.17" height="27.59"/></svg>