<svg id="Laag_1" data-name="Laag 1" xmlns="http://www.w3.org/2000/svg" xmlns:xlink="http://www.w3.org/1999/xlink" viewBox="0 0 100 100"><defs><style>.cls-1{fill:none;}.cls-2{clip-path:url(#clip-path);}.cls-3{fill:#ce0e2d;}.cls-4{fill:#fff;}.cls-5{fill:#a4a4a3;}.cls-6{fill:#f1a700;}.cls-7{fill:#37433f;}</style><clipPath id="clip-path"><rect class="cls-1" x="120" y="135" width="100" height="100" rx="10.37"/></clipPath></defs><g class="cls-2"><rect class="cls-3" x="116.33" y="76.78" width="40.68" height="164.99" transform="translate(50.48 -32.08) rotate(16.38)"/></g><rect class="cls-4" x="0.5" y="0.5" width="99" height="99" rx="9.87"/><path class="cls-5" d="M89.63,1A9.38,9.38,0,0,1,99,10.37V89.63A9.38,9.38,0,0,1,89.63,99H10.37A9.38,9.38,0,0,1,1,89.63V10.37A9.38,9.38,0,0,1,10.37,1H89.63m0-1H10.37A10.41,10.41,0,0,0,0,10.37V89.63A10.41,10.41,0,0,0,10.37,100H89.63A10.41,10.41,0,0,0,100,89.63V10.37A10.41,10.41,0,0,0,89.63,0Z"/><path class="cls-6" d="M18.81,18.5v63H56.49l24.7-24.7V18.5ZM60.47,36.89H39.53a4.51,4.51,0,1,1,0-9H60.47a4.51,4.51,0,1,1,0,9Z"/><polygon class="cls-7" points="81.19 56.8 56.49 56.8 56.49 81.5 81.19 56.8"/></svg>