<svg id="Laag_1" data-name="Laag 1" xmlns="http://www.w3.org/2000/svg" viewBox="0 0 100 100"><defs><style>.cls-1{fill:#fff;}.cls-2{fill:#a8a8a7;}.cls-3{fill:#606060;}.cls-4{fill:#ff8100;}</style></defs><rect class="cls-1" x="0.5" y="0.5" width="99" height="99" rx="9.87"/><path class="cls-2" d="M89.63,1A9.38,9.38,0,0,1,99,10.37V89.63A9.38,9.38,0,0,1,89.63,99H10.37A9.38,9.38,0,0,1,1,89.63V10.37A9.38,9.38,0,0,1,10.37,1H89.63m0-1H10.37A10.41,10.41,0,0,0,0,10.37V89.63A10.41,10.41,0,0,0,10.37,100H89.63A10.41,10.41,0,0,0,100,89.63V10.37A10.41,10.41,0,0,0,89.63,0Z"/><path class="cls-3" d="M24.65,69.38l-3.09.37-1.33-8.39h-.14L16,69.76l-4.13-8.41h-.14l-1.26,8.39-3-.37,3.1-17L16,63.6l5.35-11.05h.11C22.55,58.13,23.59,63.72,24.65,69.38Z"/><path class="cls-3" d="M89.68,66.09a5.92,5.92,0,0,1-3.52.9,2.4,2.4,0,0,1-2.11-1.27l4.19-2.6,4.26-2.65c-.13-.24-.23-.43-.34-.61A6.59,6.59,0,0,0,82,58.5a6.23,6.23,0,0,0-.43,9c2.16,2.28,4.82,2.67,7.74,1.81a7.34,7.34,0,0,0,2.48-1.21l-1.27-2.55Zm-5-6.37a3.37,3.37,0,0,1,4,.35l-5.78,3.49A3.64,3.64,0,0,1,84.66,59.72Z"/><path class="cls-3" d="M38.87,62.15a6.76,6.76,0,0,0-6.78-5.44l0-.12a20.54,20.54,0,0,0-2.62.68,6.37,6.37,0,0,0-3.09,9.41,7,7,0,0,0,9.14,2.23A6.36,6.36,0,0,0,38.87,62.15ZM32.15,67a3.78,3.78,0,1,1,4-3.77A3.88,3.88,0,0,1,32.15,67Z"/><path class="cls-3" d="M43.68,58.43a4,4,0,0,1,2.08-1.52c1.79-.38,3.51-.36,4.88,1.1a4.16,4.16,0,0,1,1,2.92c0,2.67,0,5.34,0,8,0,.32-.08.47-.43.48-.86,0-1.71.1-2.61.16v-.52c0-2.49,0-5,0-7.46a3,3,0,0,0-.17-1,2.07,2.07,0,0,0-2.87-1.11,2.9,2.9,0,0,0-1.84,2.93q0,3.2,0,6.39c0,.45-.1.61-.58.62-.79,0-1.58.09-2.41.15,0-.17,0-.31,0-.45,0-3.84,0-7.67,0-11.51,0-.4.09-.56.53-.58.76,0,1.52-.14,2.34-.22V58.4Z"/><path class="cls-3" d="M68.49,57.07l-5.66,9.68H68.5c-.18.87-.32,1.63-.49,2.38a.39.39,0,0,1-.29.24H58.46s0,0-.11-.08L64,59.71H59c.21-.86.4-1.66.61-2.45a.37.37,0,0,1,.29-.18Z"/><path class="cls-3" d="M73.46,66.77h5.67c-.16.85-.29,1.61-.48,2.36,0,.12-.32.24-.49.24H68.94l5.65-9.68H69.66c.19-.83.35-1.59.55-2.34a.44.44,0,0,1,.32-.26c2.83,0,5.66,0,8.59,0Z"/><path class="cls-3" d="M54,69.57V69c0-3.81,0-7.61,0-11.41,0-.43.11-.58.56-.6.79,0,1.58-.14,2.42-.22,0,.21,0,.36,0,.52,0,3.85,0,7.7,0,11.55,0,.4-.12.52-.52.53C55.66,69.43,54.85,69.51,54,69.57Z"/><path class="cls-3" d="M53.61,53.74l1.87-1.93,2,2-1.92,2Z"/><path class="cls-4" d="M50,45.24H40.45c-1,0-.94,0-.94-1V25.71c0-1.71,0-1.47,1.44-1.47,6.35,0,12.7,0,19,0a.63.63,0,0,1,.44.39,2.66,2.66,0,0,1,0,.8V44.36c0,.87,0,.88-.86.88Z"/><path class="cls-4" d="M52.21,38c1.89.83,3.4.54,4.55-.93a3.51,3.51,0,0,0,.32-4.13c-1.1-1.92-2.8-2.3-4.85-1.46.08-.82-.31-.86-.85-.64a1.09,1.09,0,0,1-.24.07c-.69,0-.88.38-.88,1,0,2.48,0,5,0,7.44,0,1.57-.11,1.25,1.29,1,.52-.09.67-.36.64-.85S52.21,38.59,52.21,38Z"/><path class="cls-4" d="M49.63,28.53a7.92,7.92,0,0,0-.79.11c-1.43.31-1.15.27-1.17,1.42,0,1.69,0,3.39,0,5.08a1.38,1.38,0,1,1-2.75-.09c0-1.92,0-3.84,0-5.76v-.81c-.51.1-.92.2-1.34.27s-.63.33-.62.81c0,1.86,0,3.72,0,5.58a3.06,3.06,0,0,0,2.81,3.28,3.16,3.16,0,0,0,3.87-3.3V28.53Z"/><path class="cls-1" d="M52.21,38c0,.61,0,1.07,0,1.54s-.12.76-.64.85c-1.4.25-1.29.57-1.29-1,0-2.48,0-5,0-7.44,0-.66.19-1,.88-1a1.09,1.09,0,0,0,.24-.07c.54-.22.93-.18.85.64,2.05-.84,3.75-.46,4.85,1.46a3.51,3.51,0,0,1-.32,4.13C55.61,38.52,54.1,38.81,52.21,38Z"/><path class="cls-1" d="M55.73,34.78a1.94,1.94,0,0,0-1.81-2,2.05,2.05,0,0,0-1.91,2,2,2,0,0,0,1.87,1.92A1.8,1.8,0,0,0,55.73,34.78Z"/><path class="cls-1" d="M49.63,28.53v6.59a3.16,3.16,0,0,1-3.87,3.3A3.06,3.06,0,0,1,43,35.14c0-1.86,0-3.72,0-5.58,0-.48.14-.74.62-.81s.83-.17,1.34-.27v.81c0,1.92,0,3.84,0,5.76a1.38,1.38,0,1,0,2.75.09c0-1.69,0-3.39,0-5.08,0-1.15-.26-1.11,1.17-1.42A7.92,7.92,0,0,1,49.63,28.53Z"/><path class="cls-4" d="M55.73,34.78a1.8,1.8,0,0,1-1.85,1.88A2,2,0,0,1,52,34.74a2.05,2.05,0,0,1,1.91-2A1.94,1.94,0,0,1,55.73,34.78Z"/></svg>