<svg id="Laag_1" data-name="Laag 1" xmlns="http://www.w3.org/2000/svg" viewBox="0 0 100 100"><defs><style>.cls-1{fill:#ff8200;}.cls-2{fill:#fff;}</style></defs><rect class="cls-1" width="100" height="100" rx="10.37"/><path d="M40.74,12.5s0,.06.08.06l.23,0a1.21,1.21,0,0,1,.53.06h.07c.27,0,.54,0,.8.09s.83.19,1.24.29c.23.05.46.11.68.18s.39.14.59.22.41.14.61.23c.36.15.72.31,1.07.49s.73.43,1.09.66a9.53,9.53,0,0,1,2.14,1.92,10.6,10.6,0,0,1,1.35,2.08,12,12,0,0,1,.65,1.63c.11.36.19.72.28,1.08,0,.19.09.39.13.58v0l.09.79c0,.25.06.5.07.74s0,.75,0,1.12v13c0,.36,0,.73,0,1.09a4.4,4.4,0,0,1,0,.51c0,.1,0,.19,0,.28,0,.26,0,.52-.09.78-.08.42-.18.83-.29,1.24A11.43,11.43,0,0,1,51.57,43a10.73,10.73,0,0,1-2.65,3.86,10.81,10.81,0,0,1-1.32,1,10.36,10.36,0,0,1-1.5.82c-.34.15-.67.31-1,.44s-.72.23-1.09.34l-.75.21-.54.1-.65.12-.08,0-.58.06a11.8,11.8,0,0,1-1.46.09H25.6a1.08,1.08,0,0,1-1-.6.86.86,0,0,1-.12-.42V13.66a1.15,1.15,0,0,1,.14-.6,1,1,0,0,1,.59-.5s0,0,.05-.06ZM32.33,31.29V43.12c0,.09,0,.18,0,.28a1,1,0,0,0,.89.89h.15l6.43,0a3.09,3.09,0,0,0,.68-.09c.23,0,.46-.14.68-.21a3.88,3.88,0,0,0,1.15-.62,4.45,4.45,0,0,0,1-1.08,5.81,5.81,0,0,0,.53-.94,5,5,0,0,0,.31-.87c0-.19.1-.37.14-.57a3.25,3.25,0,0,0,.08-.43,8,8,0,0,0,.14-.83c0-.46.06-.92.06-1.38V25.31c0-.47,0-.94-.06-1.4a1,1,0,0,0,0-.17L44.42,23a5.25,5.25,0,0,0-.09-.55c-.09-.29-.19-.58-.29-.87a5,5,0,0,0-.72-1.37A4.36,4.36,0,0,0,42,19a4.79,4.79,0,0,0-1.8-.64,7.85,7.85,0,0,0-1.08-.08H33.6a2.24,2.24,0,0,0-.52.05,1,1,0,0,0-.74.89c0,.09,0,.19,0,.28Z"/><path class="cls-2" d="M23.43,85.18a.48.48,0,0,0,.11-.09.5.5,0,0,1,.43-.24h52a1.23,1.23,0,0,1,.33,0,.55.55,0,0,1,.3.26v2a.69.69,0,0,1-.36.27,1.29,1.29,0,0,1-.39,0H24.09a.64.64,0,0,1-.55-.28s-.07,0-.11-.06Z"/><path class="cls-2" d="M71.86,12.5s.09.07.14.07a2.82,2.82,0,0,1,.64.14,4,4,0,0,1,1,.4,4.47,4.47,0,0,1,1.47,1.3,6.1,6.1,0,0,1,.59,1.06,3.62,3.62,0,0,1,.17.56c.08.28.14.56.21.84,0,0,0,0,0,0A9.42,9.42,0,0,1,76.1,18a4.94,4.94,0,0,1-.11.86,7.21,7.21,0,0,1-.3.93A4.41,4.41,0,0,1,74.87,21,5.64,5.64,0,0,1,73,22.33a6.43,6.43,0,0,1-.92.35,1.92,1.92,0,0,1-.58.11c-.59,0-1.17,0-1.76,0-1.22.09-2.45,0-3.67.08-.63,0-1.25,0-1.87,0l-1.49.05a1,1,0,0,1-.23-.05h-.17c-.72,0-1.44,0-2.16,0-1-.06-2.06,0-3.08,0a1.87,1.87,0,0,1-.41-.09c-.25-.08-.5-.18-.74-.27a5.74,5.74,0,0,1-1.24-.68,4.84,4.84,0,0,1-1.37-1.41,4,4,0,0,1-.5-1.07c-.06-.21-.1-.43-.15-.64a5.4,5.4,0,0,1,0-1.39,3.78,3.78,0,0,1,.13-.67c0-.13,0-.25.08-.38a5.08,5.08,0,0,1,.39-1.07A4.44,4.44,0,0,1,54,14a4.34,4.34,0,0,1,1.56-1.08,5,5,0,0,1,.75-.24l.38-.06s.08-.05.12-.07h1.54c0,.09.09.06.15.07a4.71,4.71,0,0,1,.52.09,7.79,7.79,0,0,1,.85.31,3.85,3.85,0,0,1,1,.6,6.32,6.32,0,0,1,1.07,1.24c.35.51.68,1,1,1.54.2.31.38.63.55,1,.28.51.55,1,.83,1.57a1.4,1.4,0,0,0,.12-.18c.26-.5.51-1,.79-1.49.41-.72.82-1.43,1.3-2.11a12.13,12.13,0,0,1,1-1.27,3.86,3.86,0,0,1,1.51-1l.51-.16.58-.13c.08,0,.17,0,.22-.08ZM66.3,20.43h.94l3.92-.06a1,1,0,0,0,.35-.05c.17,0,.33-.13.49-.19a2.86,2.86,0,0,0,1.24-1,2.43,2.43,0,0,0,.43-1.61c0-.23-.07-.45-.11-.68a2.81,2.81,0,0,0-.32-.85,2.18,2.18,0,0,0-1.91-1.12,3.14,3.14,0,0,0-1.29.15,2.35,2.35,0,0,0-.7.37,3.59,3.59,0,0,0-.59.7,22.41,22.41,0,0,0-1.42,2.29c-.31.57-.61,1.14-.91,1.72A1.47,1.47,0,0,0,66.3,20.43Zm-3.89,0-.5-1c-.41-.78-.83-1.55-1.29-2.29a14.45,14.45,0,0,0-1-1.45,2.29,2.29,0,0,0-1.6-.79,4.85,4.85,0,0,0-.66,0,2.36,2.36,0,0,0-.74.14,2,2,0,0,0-1.13.94,2.73,2.73,0,0,0-.32.77,2.94,2.94,0,0,0-.14.88V18a2,2,0,0,0,.18.79,2.37,2.37,0,0,0,.69.91,3.59,3.59,0,0,0,.9.54,2.1,2.1,0,0,0,.82.2c.32,0,.63,0,.94,0l3.62,0Z"/><path d="M61.43,29.24v6.15h8.43a.85.85,0,0,1,.42.07.82.82,0,0,1,.49.71c0,.31,0,.61,0,.92v1.57a.87.87,0,0,1-.33.75.94.94,0,0,1-.5.19H61.43v6.2H72a1.88,1.88,0,0,1,.34,0,.84.84,0,0,1,.63.48.74.74,0,0,1,.08.39c0,.82,0,1.65,0,2.47a.9.9,0,0,1-.6.85l-.11,0H56.62a1,1,0,0,1-.47-.07.91.91,0,0,1-.46-.57,2.12,2.12,0,0,1,0-.5V26a1.2,1.2,0,0,1,.14-.62.82.82,0,0,1,.74-.43c1.73,0,3.46,0,5.19,0,3.38,0,6.76,0,10.14,0a.86.86,0,0,1,.71.34.65.65,0,0,1,.16.38c0,.09,0,.18,0,.27v2.31a1,1,0,0,1-.09.51.86.86,0,0,1-.75.48,1.47,1.47,0,0,1-.21,0H61.43Z"/><path d="M27.52,77.64v3.63a.83.83,0,0,1-.29.65.72.72,0,0,1-.51.22c-.73,0-1.45,0-2.17,0a.86.86,0,0,1-.79-.77c0-.1,0-.2,0-.3V66.27c0-.12,0-.25,0-.37a.81.81,0,0,1,.6-.69c.14,0,.28,0,.43,0,.59,0,1.19,0,1.79,0a1,1,0,0,1,.5.12.82.82,0,0,1,.43.76v8.17a.58.58,0,0,0,.13-.1c.29-.46.58-.92.88-1.37l.76-1.16.87-1.35a1.57,1.57,0,0,1,.84-.66,2.3,2.3,0,0,1,.74-.13h2.05a.66.66,0,0,1,.39.11.43.43,0,0,1,.09.65l-1.38,1.91-1.41,1.95-1.17,1.61c-.1.14-.11.15,0,.3.25.33.51.65.77,1,.59.74,1.19,1.48,1.77,2.23l1.77,2.24a.4.4,0,0,1-.1.66.38.38,0,0,1-.19,0H31.67a1.85,1.85,0,0,1-.88-.27,2.07,2.07,0,0,1-.62-.63l-.94-1.34-.87-1.21c-.23-.33-.46-.65-.7-1a.87.87,0,0,0-.09-.11Z"/><path d="M54.23,70.54a.76.76,0,0,0,.08-.15,1.1,1.1,0,0,1,.65-.85,1.45,1.45,0,0,1,.47-.09c.47,0,.94,0,1.4,0a.89.89,0,0,1,.88.58,1,1,0,0,1,0,.18c0,.1,0,.21,0,.32V81.1a1,1,0,0,1-.08.55.83.83,0,0,1-.71.49c-.59,0-1.17,0-1.76,0a.92.92,0,0,1-.81-.55,1.61,1.61,0,0,1-.09-.29c0-.06-.05-.11-.07-.16l-.63.48a3.92,3.92,0,0,1-1.15.59,3.05,3.05,0,0,1-1.08.17c-.18,0-.36,0-.54,0a6.17,6.17,0,0,1-1-.14,3,3,0,0,1-.72-.23,2.75,2.75,0,0,1-1.38-1.29,3.8,3.8,0,0,1-.41-1.26c0-.3-.09-.6-.13-.91a1.37,1.37,0,0,1,0-.29c0-1.64,0-3.27,0-4.9a4.67,4.67,0,0,1,.13-1.11c0-.15,0-.3.09-.45A3.62,3.62,0,0,1,48,70.57a2.64,2.64,0,0,1,1-.86c.16-.08.33-.12.49-.2a5.54,5.54,0,0,1,.8-.21h0a8.19,8.19,0,0,1,1.31,0,5.21,5.21,0,0,1,.69.1,4.94,4.94,0,0,1,1.11.47A4.21,4.21,0,0,1,54.23,70.54ZM54,75.82c0-.82,0-1.65,0-2.47a.37.37,0,0,0-.13-.29,3.6,3.6,0,0,0-.67-.49,1.69,1.69,0,0,0-1-.26H52a.87.87,0,0,0-.61.28,1.34,1.34,0,0,0-.31.78,5.31,5.31,0,0,0,0,.69q0,1.74,0,3.48a3.23,3.23,0,0,0,.11,1,.86.86,0,0,0,.47.61,1.61,1.61,0,0,0,1.2,0,3.29,3.29,0,0,0,1.05-.65.44.44,0,0,0,.14-.34C54,77.43,54,76.62,54,75.82Z"/><path d="M42,70.53a1.77,1.77,0,0,0,.06-.17,1.11,1.11,0,0,1,.67-.83,1.08,1.08,0,0,1,.44-.08c.47,0,.94,0,1.42,0a.87.87,0,0,1,.86.57.34.34,0,0,1,.05.17c0,.13,0,.25,0,.38V81.05c0,.11,0,.21,0,.32a.86.86,0,0,1-.79.77c-.58,0-1.16,0-1.73,0a1,1,0,0,1-.83-.55,1.23,1.23,0,0,1-.09-.29L42,81.12l-.07,0a4.68,4.68,0,0,1-1.7,1c-.15,0-.32,0-.47.1a4.27,4.27,0,0,1-1.13.07,5.37,5.37,0,0,1-1-.14,3,3,0,0,1-.94-.34,2.78,2.78,0,0,1-1.25-1.37,4.91,4.91,0,0,1-.3-.89,5.06,5.06,0,0,1-.1-.68A24.43,24.43,0,0,1,35,76.11c0-.94,0-1.88,0-2.82a4.27,4.27,0,0,1,.08-.87A5,5,0,0,1,35.52,71a2.76,2.76,0,0,1,1.13-1.21,2.31,2.31,0,0,1,.58-.25c.2-.06.4-.1.6-.15a4.85,4.85,0,0,1,1-.1,3.26,3.26,0,0,1,.88,0,4.16,4.16,0,0,1,1.82.81C41.69,70.23,41.84,70.37,42,70.53Zm-.26,5.29V73.35a.29.29,0,0,0-.12-.27c-.15-.11-.28-.24-.43-.35a2,2,0,0,0-.84-.39,1.73,1.73,0,0,0-.9,0,.92.92,0,0,0-.58.66,2.24,2.24,0,0,0-.1.77v3.91a2.75,2.75,0,0,0,.1.85.92.92,0,0,0,.38.56,2,2,0,0,0,.34.13,1.46,1.46,0,0,0,1-.06,3.25,3.25,0,0,0,.9-.52.6.6,0,0,0,.26-.55C41.74,77.36,41.76,76.59,41.76,75.82Z"/><path d="M71.52,69.45h.24c.56,0,1.11,0,1.66,0a.92.92,0,0,1,.78.37.61.61,0,0,1,.14.34c0,.46,0,.92,0,1.38a.84.84,0,0,1-.6.64,4.56,4.56,0,0,1-.73,0H71.54a1,1,0,0,0,0,.16c0,1.83,0,3.66,0,5.5a2,2,0,0,0,.23.94,1.06,1.06,0,0,0,.88.57,9.78,9.78,0,0,0,1.08,0,.63.63,0,0,1,.65.34,1.28,1.28,0,0,1,.1.43q0,.57,0,1.14a1,1,0,0,1-.68,1l-.06,0c-.23,0-.46.07-.69.08-.5,0-1,0-1.5,0a8.19,8.19,0,0,1-.82-.13,2.81,2.81,0,0,1-.81-.24,3,3,0,0,1-1.5-1.35A5.36,5.36,0,0,1,68,79.56c0-.17,0-.35-.1-.52A7.76,7.76,0,0,1,67.74,78a2.23,2.23,0,0,1,0-.37V72.25l-.41-.08a.84.84,0,0,1-.62-.61,4.67,4.67,0,0,1,0-1.18.85.85,0,0,1,.5-.82,1.67,1.67,0,0,1,.44-.11,2,2,0,0,1,.35,0c0-.22.06-.42.09-.62,0-.37.09-.75.14-1.13,0-.13,0-.26,0-.39a1.2,1.2,0,0,1,.22-.63.93.93,0,0,1,.74-.37H70.7a.86.86,0,0,1,.82.83c0,.69,0,1.37,0,2.06Z"/><path d="M45.59,55V52.14a.7.7,0,0,1,.16-.48.53.53,0,0,1,.43-.22h1.57a.64.64,0,0,1,.57.58c0,.05,0,.1,0,.15,0,3.57,0,7.15,0,10.72a.68.68,0,0,1-.23.58.51.51,0,0,1-.32.14H46.47a.66.66,0,0,1-.56-.39,2.53,2.53,0,0,1-.12-.33,1.09,1.09,0,0,0-.17.13,3.09,3.09,0,0,1-1,.6,2.08,2.08,0,0,1-.81.15h-.66a3,3,0,0,1-.65-.13,2.28,2.28,0,0,1-.56-.23,2.05,2.05,0,0,1-.86-1,4.59,4.59,0,0,1-.24-1A8.51,8.51,0,0,1,40.75,60c0-.8,0-1.61,0-2.41a6.66,6.66,0,0,1,.14-1.26,2.61,2.61,0,0,1,.48-1.09,1.76,1.76,0,0,1,.74-.58,3.07,3.07,0,0,1,.9-.24,3.83,3.83,0,0,1,.76,0,4.94,4.94,0,0,1,.65.12,3.15,3.15,0,0,1,1.11.56Zm0,4V57.48c0-.35,0-.36-.27-.55a1.57,1.57,0,0,0-1.21-.36.6.6,0,0,0-.46.3,1.46,1.46,0,0,0-.17.64c0,1,0,1.93,0,2.9a2.07,2.07,0,0,0,.09.66.61.61,0,0,0,.38.42,1.18,1.18,0,0,0,.94-.05,2.35,2.35,0,0,0,.52-.32.38.38,0,0,0,.18-.35Z"/><path d="M62.9,70.79c.07-.05.11-.06.13-.09a3.76,3.76,0,0,1,1.52-1.21,2.82,2.82,0,0,1,1-.24.76.76,0,0,1,.51.11.44.44,0,0,1,.2.3c0,.21,0,.42,0,.63q0,.6,0,1.2a3.07,3.07,0,0,1-.05.53.53.53,0,0,1-.31.37.72.72,0,0,1-.35.08,3,3,0,0,0-1.44.33,2.23,2.23,0,0,0-.89.75.33.33,0,0,0,0,.14,1.09,1.09,0,0,0,0,.18v7.27a1,1,0,0,1-.08.51.83.83,0,0,1-.71.49c-.73,0-1.47,0-2.2,0a.85.85,0,0,1-.77-.73c0-.11,0-.22,0-.32V70.53c0-.09,0-.18,0-.28a.82.82,0,0,1,.51-.72.9.9,0,0,1,.4-.08c.47,0,.95,0,1.42,0a1.06,1.06,0,0,1,1,.64,1.93,1.93,0,0,1,.1.43C62.89,70.59,62.89,70.67,62.9,70.79Z"/><path d="M62.86,55.25a.88.88,0,0,1,.44-.64.92.92,0,0,1,.39-.11c.35,0,.69,0,1,0a.7.7,0,0,1,.64.44.23.23,0,0,1,0,.11.75.75,0,0,1,0,.15q0,3.87,0,7.74a.67.67,0,0,1-.17.47.52.52,0,0,1-.42.2H63.57a.7.7,0,0,1-.6-.37,1.6,1.6,0,0,1-.12-.35,1.09,1.09,0,0,0-.17.13,2.93,2.93,0,0,1-1,.6,2.12,2.12,0,0,1-.78.15h-.39a3.05,3.05,0,0,1-1-.15,2.22,2.22,0,0,1-.75-.38,2.1,2.1,0,0,1-.7-1.07,4.79,4.79,0,0,1-.23-1.46V57.49A5.94,5.94,0,0,1,58,56.23a2.44,2.44,0,0,1,.54-1.12,2,2,0,0,1,.86-.56,4.65,4.65,0,0,1,.72-.16,2.91,2.91,0,0,1,.72,0,2.94,2.94,0,0,1,.67.13A2.88,2.88,0,0,1,62.86,55.25Zm-.2,3.82c0-.59,0-1.18,0-1.76a.27.27,0,0,0-.12-.25,2.55,2.55,0,0,0-.39-.28,1.72,1.72,0,0,0-.47-.19,1.88,1.88,0,0,0-.53,0,.51.51,0,0,0-.44.29,1.41,1.41,0,0,0-.16.64c0,1,0,2,0,3a2.1,2.1,0,0,0,.09.61.6.6,0,0,0,.35.38,1.16,1.16,0,0,0,.95-.05,4.25,4.25,0,0,0,.58-.35.34.34,0,0,0,.14-.3C62.65,60.21,62.66,59.64,62.66,59.07Z"/><path d="M37.21,62.87a1.68,1.68,0,0,1-.21.18,3.17,3.17,0,0,1-1.07.61,2.35,2.35,0,0,1-.53.09,5.29,5.29,0,0,1-.89,0,2.19,2.19,0,0,1-2.1-1.58,7.78,7.78,0,0,1-.17-.81,5.81,5.81,0,0,1-.05-1c0-.9,0-1.8,0-2.7a6,6,0,0,1,.13-1.34,2.7,2.7,0,0,1,.49-1.09,1.74,1.74,0,0,1,.74-.57,3,3,0,0,1,.88-.24,5.34,5.34,0,0,1,.69,0,3.09,3.09,0,0,1,.74.12,3.05,3.05,0,0,1,1.36.8c0-.09.07-.17.11-.26a.74.74,0,0,1,.5-.46,1.51,1.51,0,0,1,.42,0h.82a.78.78,0,0,1,.44.15.54.54,0,0,1,.23.43s0,.1,0,.15c0,2.56,0,5.13,0,7.7a.65.65,0,0,1-.22.54.52.52,0,0,1-.33.14H37.91a.66.66,0,0,1-.57-.39C37.29,63.11,37.26,63,37.21,62.87ZM37,59.07c0-.55,0-1.09,0-1.63a.52.52,0,0,0-.25-.49c-.08-.05-.16-.12-.24-.16a1.81,1.81,0,0,0-.48-.2,1.91,1.91,0,0,0-.48,0,.57.57,0,0,0-.53.37,1.4,1.4,0,0,0-.13.57c0,.91,0,1.81,0,2.71A2.76,2.76,0,0,0,35,61a.65.65,0,0,0,.39.46,1.18,1.18,0,0,0,.94-.05,3,3,0,0,0,.51-.31.39.39,0,0,0,.19-.38C37,60.19,37,59.63,37,59.07Z"/><path d="M52,59.55a1,1,0,0,0,0,.16c0,.25,0,.5,0,.75a1.65,1.65,0,0,0,.15.69.78.78,0,0,0,.64.49,2.81,2.81,0,0,0,.71,0,.83.83,0,0,0,.68-.77.53.53,0,0,1,.57-.55h1.55a.55.55,0,0,1,.59.59,2.17,2.17,0,0,1-.27,1,3.24,3.24,0,0,1-1.54,1.41,5.05,5.05,0,0,1-.82.3,3.2,3.2,0,0,1-.62.09h-1a3.52,3.52,0,0,1-.91-.14,3.29,3.29,0,0,1-1-.41,2.94,2.94,0,0,1-.9-.82,3.34,3.34,0,0,1-.39-.75,4.54,4.54,0,0,1-.23-1.56c0-.79,0-1.59,0-2.39a3.54,3.54,0,0,1,.52-1.78,2.91,2.91,0,0,1,1.09-1,3.15,3.15,0,0,1,.65-.29,4.88,4.88,0,0,1,.86-.19,7.37,7.37,0,0,1,.82,0,5.19,5.19,0,0,1,1,.13,3.1,3.1,0,0,1,.8.25,3,3,0,0,1,1,.73,3,3,0,0,1,.64,1,2.57,2.57,0,0,1,.18.83c0,.45,0,.89,0,1.34,0,.13,0,.25,0,.37a.66.66,0,0,1-.57.53H52ZM52,58l2.28-.07a2.23,2.23,0,0,0-.23-1,.82.82,0,0,0-.42-.38,1.16,1.16,0,0,0-.56-.09,1.08,1.08,0,0,0-.72.31,1.2,1.2,0,0,0-.32.67A5,5,0,0,0,52,58Z"/><path d="M71.2,62.88a3.2,3.2,0,0,1-1,.68,2.1,2.1,0,0,1-.82.2c-.26,0-.53,0-.79,0A2.36,2.36,0,0,1,67,63a2.28,2.28,0,0,1-.45-1,5.61,5.61,0,0,1-.15-1.47V55.18a.62.62,0,0,1,.3-.57.71.71,0,0,1,.38-.12c.45,0,.91,0,1.36,0a.68.68,0,0,1,.69.7v5.13a3.85,3.85,0,0,0,0,.48,1,1,0,0,0,.14.47.54.54,0,0,0,.41.28,1.18,1.18,0,0,0,.82-.16,3.12,3.12,0,0,0,.4-.32.35.35,0,0,0,.15-.33v-5.4c0-.11,0-.22,0-.32a.6.6,0,0,1,.39-.47,1.48,1.48,0,0,1,.47-.06h1a1,1,0,0,1,.49.08.52.52,0,0,1,.32.33,1.57,1.57,0,0,1,0,.37c0,2.52,0,5,0,7.57a.83.83,0,0,1-.13.51.56.56,0,0,1-.47.25H71.9a.62.62,0,0,1-.61-.49l0-.07A.64.64,0,0,0,71.2,62.88Z"/><path d="M23.62,59.17c0-.49,0-.86,0-1.22a3.82,3.82,0,0,1,.09-1,3.14,3.14,0,0,1,2.1-2.37,4.07,4.07,0,0,1,1.08-.22l.24,0,.48,0,.66,0a3,3,0,0,1,.65.13,4.83,4.83,0,0,1,.5.16,2.81,2.81,0,0,1,1.14.81,2.56,2.56,0,0,1,.55,1,3.28,3.28,0,0,1,.15,1.08.55.55,0,0,1-.51.55c-.34,0-.69,0-1,0s-.49,0-.73,0a.42.42,0,0,1-.37-.31,1.63,1.63,0,0,1-.08-.44.89.89,0,0,0-.61-.86,1.26,1.26,0,0,0-1.21.24,1.24,1.24,0,0,0-.29.61,6.39,6.39,0,0,0-.07,1.45q0,.64,0,1.29a3.36,3.36,0,0,0,.09.7,1,1,0,0,0,1.34.77.81.81,0,0,0,.62-.42,1.38,1.38,0,0,0,.12-.34c0-.18.05-.36.08-.53a.51.51,0,0,1,.43-.38h1.71a.61.61,0,0,1,.51.52,4.09,4.09,0,0,1-.05.78,3.47,3.47,0,0,1-.39,1,3,3,0,0,1-.67.74,3.27,3.27,0,0,1-.88.48,5.29,5.29,0,0,1-1,.24,6.06,6.06,0,0,1-1.41.05,5.58,5.58,0,0,1-.69-.13,2.79,2.79,0,0,1-.89-.32,3.09,3.09,0,0,1-1.41-1.51,4.87,4.87,0,0,1-.23-.83A13.91,13.91,0,0,1,23.62,59.17Z"/></svg>