<svg id="Laag_1" data-name="Laag 1" xmlns="http://www.w3.org/2000/svg" viewBox="0 0 100 100"><defs><style>.cls-1{fill:#1d3855;}.cls-2{fill:#ecb800;stroke:#ecb800;stroke-miterlimit:10;stroke-width:0.25px;}</style></defs><rect class="cls-1" width="100" height="100" rx="10.37"/><path class="cls-2" d="M7.66,55.41c.95.08,1-.54,1-1.13,0-2.86,0-5.71,0-8.57,0-.67-.14-.76-1.18-1,.1-.06.16-.12.22-.12,2,0,4,0,5.94.1a5.15,5.15,0,0,1,3.07,1.17A5.46,5.46,0,0,1,18.26,52a5.28,5.28,0,0,1-4.86,3.7c-.81.07-1.63,0-2.45,0L8,55.62l-.29,0ZM10,49.78h0c0,1.33,0,2.67,0,4,0,1,.23,1.24,1.21,1.35a9.88,9.88,0,0,0,2.43,0,4,4,0,0,0,2.87-1.71,5.75,5.75,0,0,0-.7-6.79c-1.53-1.51-3.44-1.66-5.43-1.51-.38,0-.41.29-.41.6C10,47.08,10,48.43,10,49.78Z"/><path class="cls-2" d="M32.44,44.63h3.11a.39.39,0,0,1,0,.11c-.86.23-.92.3-.92,1.22,0,2.81,0,5.61,0,8.42a6.15,6.15,0,0,1-.13,1.32c-3.07-2.79-5.81-5.89-8.71-9,0,.32,0,.49,0,.67.06,2.16.1,4.33.19,6.49.08,1.59.2,1.41,1.28,1.73H24s0-.11.06-.11c.91-.24,1-.31,1-1.27,0-2.88,0-5.75,0-8.63,0-.37,0-.74.07-1.11l.16-.08,8.62,9.28V53c-.05-2.23-.09-4.46-.14-6.7C33.71,45,33.66,45,32.44,44.63Z"/><path class="cls-2" d="M82.22,44.37c2.84,3.05,5.67,6.11,8.58,9.23,0-.64,0-1.17,0-1.69,0-1.84-.06-3.68-.11-5.51,0-1.39,0-1.39-1.33-1.76h3.13l0,.06a1.76,1.76,0,0,1-.3.1.68.68,0,0,0-.62.71c0,.35,0,.7,0,1,0,2.84,0,5.69,0,8.53a1.64,1.64,0,0,1-.11.61c-3.07-2.79-5.82-5.88-8.68-9a3,3,0,0,0,0,.38c.06,2.17.12,4.33.19,6.5,0,.24,0,.48.05.72.08.84.21,1,1.06,1.12a.23.23,0,0,1,.2.16H80.9c0-.07,0-.12.07-.12.94-.3,1-.31,1-1.43,0-2.87,0-5.75,0-8.63v-1Z"/><path class="cls-2" d="M73.45,55.82A5.48,5.48,0,0,1,67.81,50a5.65,5.65,0,0,1,5.88-5.67,5.35,5.35,0,0,1,5.66,5.5A5.75,5.75,0,0,1,73.45,55.82ZM78,50.31a6.79,6.79,0,0,0-1.06-3.6c-1.81-2.62-5.89-2.46-7.17.35a6.14,6.14,0,0,0,.74,6.61,4,4,0,0,0,4.08,1.52,3.69,3.69,0,0,0,3.06-2.84C77.83,51.69,77.88,51,78,50.31Z"/><path class="cls-2" d="M47.11,44.69c.12-.06.16-.11.2-.11,1.48,0,3,0,4.43.09A2.66,2.66,0,0,1,54,48.77a17,17,0,0,1-1.31,1.89l.56.74c.73.9,1.46,1.8,2.21,2.69a3.29,3.29,0,0,0,2.68,1.34,3.61,3.61,0,0,1-3.57-.59c-.9-1.07-1.75-2.2-2.58-3.33a1.29,1.29,0,0,0-1.16-.6c-1.32,0-1.32,0-1.31,1.29,0,.75,0,1.49.07,2.23s.17.87.94,1a.36.36,0,0,1,.28.16H47.4c1.05-.17.88-1,.89-1.69q0-4.05,0-8.1C48.3,45.05,48.21,45,47.11,44.69Zm3.8,5.79A1.77,1.77,0,0,0,53,48.94c.64-2.32-.67-4-2.92-3.88-.43,0-.61.16-.59.62,0,1.12,0,2.25,0,3.37C49.52,50.41,49.52,50.41,50.91,50.48Z"/><path class="cls-2" d="M58.1,44.68a1.83,1.83,0,0,1,.34-.1c1.25,0,2.51,0,3.75.06A2.28,2.28,0,0,1,64.36,46a2.41,2.41,0,0,1-.45,2.53c-.21.29-.45.56-.68.86l.55.27a3.14,3.14,0,0,1,1.89,3.22,3.23,3.23,0,0,1-2.75,2.69,5.89,5.89,0,0,1-1,.09H58.45a1.15,1.15,0,0,1,0-.21c.79-.28.85-.32.86-1.22q0-4.23,0-8.46c0-.72-.16-.87-.87-1Zm2.49,5.12v3.86a2.59,2.59,0,0,0,0,.62c.06.2.13.48.29.57a2.63,2.63,0,0,0,2.35.16,1.75,1.75,0,0,0,1.15-1.59A3.19,3.19,0,0,0,60.59,49.8Zm1-.45c1.23,0,1.84-.55,1.86-1.77a3.91,3.91,0,0,0-.17-1.22A1.87,1.87,0,0,0,61.07,45c-.36,0-.51.17-.5.55,0,.94,0,1.87,0,2.81S60.36,49.32,61.55,49.35Z"/><path class="cls-2" d="M38.24,44.58h6L44,46.35c-.09-.07-.14-.09-.15-.12-.26-.89-.41-1-1.33-1l-1.56,0c-.27,0-.38.09-.38.36,0,1.19,0,2.39,0,3.58,0,.26.09.38.37.38.71,0,1.42,0,2.13,0a4,4,0,0,0,.88-.27l-.18,2c-.21-.35-.32-.74-.58-.9a2.42,2.42,0,0,0-1.06-.17c-.5,0-1.15-.17-1.44.07s-.11.91-.11,1.39c0,.83,0,1.66,0,2.49s.29,1,1.06,1a13.26,13.26,0,0,0,1.41,0c.77,0,1-.28,1.25-1a2.88,2.88,0,0,1,.13-.31l.15,0c-.09.55-.15,1.1-.29,1.63,0,.13-.37.25-.56.25-.89,0-1.78,0-2.66,0h-2.3l-.52,0c.17-.1.21-.16.26-.16.59,0,.73-.4.74-.87,0-1.51.07-3,.08-4.52,0-1.27,0-2.53,0-3.79S39.37,45,38.24,44.58Z"/><path class="cls-2" d="M21.18,44.25V47h.24v-2.8h.25V47h.24V44.18h.23V47h.24V44.24h.21c0,.84,0,1.68.11,2.51a2,2,0,0,1-.51,1.66,1.4,1.4,0,0,0-.2,1c.15,1.71.34,3.41.52,5.12,0,.44.08.9-.39,1.14a.8.8,0,0,1-.66,0C21,55.4,21,55,21.09,54.5c.2-1.79.39-3.58.53-5.37a1.54,1.54,0,0,0-.39-1,1.34,1.34,0,0,1-.37-1c.05-.69,0-1.39.07-2.08,0-.27,0-.54.05-.81Z"/></svg>