<svg id="Laag_1" data-name="Laag 1" xmlns="http://www.w3.org/2000/svg" xmlns:xlink="http://www.w3.org/1999/xlink" viewBox="0 0 100 100"><defs><style>.cls-1{fill:#fff;}.cls-2{fill:#a8a8a7;}.cls-3{fill:url(#Bancontact_blauw_rgb);}.cls-4{fill:url(#Bancontact_geel_rgb);}</style><linearGradient id="Bancontact_blauw_rgb" x1="18.09" y1="58.78" x2="47.35" y2="47.91" gradientUnits="userSpaceOnUse"><stop offset="0" stop-color="#005ab5"/><stop offset="1" stop-color="#1e3764"/></linearGradient><linearGradient id="Bancontact_geel_rgb" x1="52.42" y1="51.39" x2="83.49" y2="40.79" gradientUnits="userSpaceOnUse"><stop offset="0" stop-color="#f7a500"/><stop offset="1" stop-color="#ffd400"/></linearGradient></defs><rect class="cls-1" x="0.5" y="0.5" width="99" height="99" rx="9.87"/><path class="cls-2" d="M89.63,1A9.38,9.38,0,0,1,99,10.37V89.63A9.38,9.38,0,0,1,89.63,99H10.37A9.38,9.38,0,0,1,1,89.63V10.37A9.38,9.38,0,0,1,10.37,1H89.63m0-1H10.37A10.41,10.41,0,0,0,0,10.37V89.63A10.41,10.41,0,0,0,10.37,100H89.63A10.41,10.41,0,0,0,100,89.63V10.37A10.41,10.41,0,0,0,89.63,0Z"/><path id="blue-symbol" class="cls-3" d="M25.89,66.07C38,66.07,44,58,50,50H10V66.07Z"/><path id="yellow-symbol" class="cls-4" d="M74.11,33.93C62.05,33.93,56,42,50,50H90V33.93Z"/></svg>