<svg width="100" height="100" viewBox="0 0 100 100" fill="none" xmlns="http://www.w3.org/2000/svg">
<rect width="100" height="100" rx="10" fill="white"/>
<path d="M16.8839 57.8299C15.898 57.8299 15.0776 57.6871 14.4228 57.4089C13.768 57.1307 13.2788 56.7624 12.9401 56.3038C12.6014 55.8527 12.4283 55.364 12.4057 54.8528C12.4057 54.7701 12.4358 54.7025 12.5036 54.6348C12.5713 54.5671 12.6466 54.5371 12.7369 54.5371H14.6034C14.7389 54.5371 14.8443 54.5596 14.9195 54.6122C14.9948 54.6573 15.0625 54.725 15.1228 54.8002C15.198 54.9505 15.3109 55.0934 15.4539 55.2287C15.5969 55.364 15.7851 55.4768 16.0259 55.5595C16.2592 55.6422 16.5528 55.6873 16.8839 55.6873C17.4559 55.6873 17.8925 55.5971 18.1785 55.4242C18.4645 55.2513 18.615 55.0032 18.615 54.7025C18.615 54.4769 18.5397 54.2965 18.3817 54.1536C18.2236 54.0183 17.9677 53.8905 17.6215 53.7778C17.2678 53.665 16.8011 53.5447 16.2216 53.4319C15.469 53.2741 14.8292 53.0711 14.3024 52.8155C13.7755 52.5674 13.3691 52.2366 13.0982 51.8231C12.8197 51.4171 12.6842 50.9059 12.6842 50.2894C12.6842 49.688 12.8573 49.1467 13.196 48.6731C13.5347 48.1995 14.0164 47.8311 14.626 47.5604C15.2357 47.2973 15.9657 47.162 16.8011 47.162C17.486 47.162 18.0806 47.2522 18.5999 47.4326C19.1193 47.6131 19.5558 47.8461 19.9095 48.1468C20.2633 48.4475 20.5342 48.7558 20.7149 49.0866C20.8955 49.4174 20.9933 49.7406 21.0009 50.0564C21.0009 50.1391 20.9708 50.2067 20.9181 50.2744C20.8654 50.3345 20.7901 50.3721 20.6848 50.3721H18.7279C18.6225 50.3721 18.5247 50.3496 18.4494 50.312C18.3666 50.2744 18.2989 50.2067 18.2387 50.1165C18.1785 49.8985 18.0204 49.7106 17.772 49.5452C17.5237 49.3873 17.1925 49.3046 16.7861 49.3046C16.3496 49.3046 16.0109 49.3798 15.77 49.5301C15.5292 49.688 15.4088 49.9211 15.4088 50.2368C15.4088 50.4323 15.4765 50.6052 15.612 50.7555C15.7474 50.9059 15.9657 51.0337 16.2818 51.139C16.5904 51.2442 17.0194 51.357 17.5613 51.4773C18.4569 51.6427 19.187 51.8532 19.7364 52.1088C20.2859 52.3644 20.6998 52.6877 20.9557 53.0861C21.2191 53.4846 21.3471 53.9883 21.3471 54.5897C21.3471 55.2588 21.1514 55.8377 20.7675 56.3188C20.3837 56.8 19.8568 57.1758 19.187 57.439C18.5322 57.6946 17.7645 57.8299 16.8839 57.8299Z" fill="#00358E"/>
<path d="M23.2061 57.6796C23.1007 57.6796 23.0104 57.642 22.9426 57.5668C22.8749 57.4916 22.8373 57.4089 22.8373 57.3112V47.6883C22.8373 47.583 22.8749 47.4928 22.9426 47.4251C23.0104 47.3575 23.1007 47.3199 23.2061 47.3199H27.3531C28.1735 47.3199 28.8885 47.4477 29.4906 47.6958C30.1002 47.9514 30.5744 48.3273 30.9131 48.831C31.2518 49.3347 31.4249 49.9737 31.4249 50.7405C31.4249 51.4998 31.2518 52.1238 30.9131 52.62C30.5744 53.1162 30.1002 53.4771 29.4906 53.7176C28.881 53.9507 28.1735 54.071 27.3531 54.071H25.5919V57.3112C25.5919 57.4089 25.5543 57.4991 25.479 57.5668C25.4038 57.6345 25.3135 57.6796 25.2081 57.6796H23.2061ZM25.5468 52.0261H27.2778C27.6993 52.0261 28.038 51.9209 28.2939 51.7028C28.5423 51.4848 28.6702 51.154 28.6702 50.7105C28.6702 50.3346 28.5649 50.0188 28.3466 49.7632C28.1283 49.5076 27.7746 49.3798 27.2778 49.3798H25.5468V52.0261Z" fill="#00358E"/>
<path d="M33.2237 57.6796C33.1183 57.6796 33.028 57.642 32.9603 57.5668C32.8926 57.4916 32.8549 57.4089 32.8549 57.3112V47.6883C32.8549 47.583 32.8926 47.4928 32.9603 47.4251C33.028 47.3575 33.1108 47.3199 33.2237 47.3199H37.2503C38.5373 47.3199 39.5383 47.6131 40.2759 48.1995C41.006 48.7859 41.3748 49.6204 41.3748 50.6954C41.3748 51.3946 41.2092 51.9885 40.8705 52.4697C40.5318 52.9508 40.0878 53.3192 39.5383 53.5673L41.5705 57.2059C41.6006 57.2661 41.6156 57.3187 41.6156 57.3713C41.6156 57.4465 41.5855 57.5217 41.5178 57.5894C41.45 57.6495 41.3823 57.6871 41.2995 57.6871H39.3276C39.1394 57.6871 39.004 57.642 38.9137 57.5442C38.8233 57.454 38.7631 57.3638 38.718 57.2886L37.0321 54.0334H35.5193V57.3187C35.5193 57.4164 35.4816 57.5067 35.4064 57.5743C35.3311 57.642 35.2408 57.6871 35.1354 57.6871H33.2237V57.6796ZM35.5193 51.9208H37.2202C37.6869 51.9208 38.0331 51.8081 38.2664 51.5825C38.4997 51.357 38.6126 51.0488 38.6126 50.6654C38.6126 50.2819 38.4997 49.9737 38.2814 49.7331C38.0632 49.5001 37.7094 49.3798 37.2202 49.3798H35.5193V51.9208Z" fill="#00358E"/>
<path d="M42.4962 57.6795C42.4209 57.6795 42.3457 57.6494 42.2779 57.5818C42.2102 57.5216 42.1801 57.4465 42.1801 57.3638C42.1801 57.3111 42.1876 57.2736 42.1951 57.2284L45.6799 47.7258C45.71 47.6206 45.7702 47.5228 45.868 47.4401C45.9583 47.3574 46.0938 47.3123 46.2594 47.3123H48.4496C48.6151 47.3123 48.7506 47.3499 48.8409 47.4401C48.9312 47.5228 48.999 47.6206 49.0291 47.7258L52.4988 57.2284C52.5213 57.266 52.5289 57.3111 52.5289 57.3638C52.5289 57.4389 52.4988 57.5141 52.431 57.5818C52.3708 57.6419 52.288 57.6795 52.2052 57.6795H50.3838C50.2333 57.6795 50.1279 57.6419 50.0527 57.5668C49.9774 57.4916 49.9323 57.4239 49.9097 57.3638L49.3301 55.8527H45.3713L44.8068 57.3638C44.7842 57.4239 44.7391 57.4916 44.6713 57.5668C44.6036 57.6419 44.4832 57.6795 44.3176 57.6795H42.4962ZM45.9809 53.7251H48.7356L47.3582 49.8158L45.9809 53.7251Z" fill="#00358E"/>
<path d="M55.547 57.6795C55.4491 57.6795 55.3588 57.6419 55.2911 57.5668C55.2158 57.4916 55.1782 57.4089 55.1782 57.3111V54.1311L51.7386 47.7935C51.7311 47.7634 51.716 47.7408 51.7085 47.7108C51.701 47.6807 51.6935 47.6581 51.6935 47.6281C51.6935 47.5454 51.7236 47.4777 51.7913 47.41C51.859 47.3424 51.9343 47.3123 52.0246 47.3123H53.8761C54.0266 47.3123 54.1395 47.3499 54.2223 47.4251C54.3051 47.5003 54.3653 47.5679 54.3954 47.6281L56.5179 51.4472L58.6478 47.6281C58.6779 47.5679 58.7306 47.5003 58.8209 47.4251C58.9037 47.3499 59.0241 47.3123 59.1671 47.3123H61.0186C61.109 47.3123 61.1842 47.3424 61.2444 47.41C61.3046 47.4702 61.3347 47.5454 61.3347 47.6281C61.3347 47.6581 61.3347 47.6807 61.3272 47.7108C61.3197 47.7333 61.3122 47.7634 61.3046 47.7935L57.8651 54.1311V57.3111C57.8651 57.4089 57.8274 57.4991 57.7522 57.5668C57.6769 57.6419 57.5866 57.6795 57.4812 57.6795H55.547V57.6795Z" fill="#00358E"/>
<path d="M62.968 57.6796C62.8626 57.6796 62.7723 57.642 62.7046 57.5668C62.6368 57.4916 62.5992 57.4089 62.5992 57.3112V47.6883C62.5992 47.583 62.6368 47.4928 62.7046 47.4251C62.7723 47.3575 62.8626 47.3199 62.968 47.3199H67.115C67.9354 47.3199 68.6504 47.4477 69.2525 47.6958C69.8621 47.9514 70.3363 48.3273 70.675 48.831C71.0137 49.3347 71.1868 49.9737 71.1868 50.7405C71.1868 51.4998 71.0137 52.1238 70.675 52.62C70.3363 53.1162 69.8621 53.4771 69.2525 53.7176C68.6429 53.9507 67.9354 54.071 67.115 54.071H65.3538V57.3112C65.3538 57.4089 65.3162 57.4991 65.2409 57.5668C65.1657 57.642 65.0754 57.6796 64.97 57.6796H62.968V57.6796ZM65.3087 52.0261H67.0397C67.4612 52.0261 67.7999 51.9209 68.0558 51.7028C68.3042 51.4848 68.4321 51.154 68.4321 50.7105C68.4321 50.3346 68.3268 50.0188 68.1085 49.7632C67.8902 49.5076 67.5365 49.3798 67.0397 49.3798H65.3087V52.0261V52.0261Z" fill="#00A9CE"/>
<path d="M71.3147 57.6796C71.2395 57.6796 71.1642 57.6495 71.0965 57.5818C71.0287 57.5217 70.9986 57.4465 70.9986 57.3638C70.9986 57.3112 71.0062 57.2736 71.0137 57.2285L74.4984 47.7259C74.5285 47.6206 74.5887 47.5229 74.6866 47.4402C74.7769 47.3575 74.9123 47.3124 75.0779 47.3124H77.2681C77.4337 47.3124 77.5692 47.35 77.6595 47.4402C77.7498 47.5229 77.8175 47.6206 77.8476 47.7259L81.3173 57.2285C81.3399 57.2661 81.3474 57.3112 81.3474 57.3638C81.3474 57.439 81.3173 57.5142 81.2496 57.5818C81.1893 57.642 81.1066 57.6796 81.0238 57.6796H79.2024C79.0519 57.6796 78.9465 57.642 78.8712 57.5668C78.796 57.4916 78.7508 57.424 78.7282 57.3638L78.1487 55.8527H74.1898L73.6253 57.3638C73.6028 57.424 73.5576 57.4916 73.4899 57.5668C73.4221 57.642 73.3017 57.6796 73.1361 57.6796H71.3147ZM74.7919 53.7252H77.5466L76.1693 49.8158L74.7919 53.7252Z" fill="#00A9CE"/>
<path d="M84.3655 57.6796C84.2676 57.6796 84.1773 57.642 84.1096 57.5668C84.0343 57.4916 83.9967 57.4089 83.9967 57.3112V54.1311L80.5571 47.7935C80.5496 47.7635 80.5345 47.7409 80.527 47.7108C80.5195 47.6883 80.512 47.6582 80.512 47.6281C80.512 47.5454 80.5421 47.4778 80.6098 47.4101C80.6775 47.3424 80.7528 47.3124 80.8431 47.3124H82.6946C82.8451 47.3124 82.958 47.35 83.0408 47.4251C83.1236 47.5003 83.1838 47.568 83.2139 47.6281L85.3364 51.4472L87.4663 47.6281C87.4964 47.568 87.5491 47.5003 87.6394 47.4251C87.7222 47.35 87.8427 47.3124 87.9857 47.3124H89.8371C89.9275 47.3124 90.0027 47.3424 90.0629 47.4101C90.1231 47.4703 90.1533 47.5454 90.1533 47.6281C90.1533 47.6582 90.1533 47.6808 90.1457 47.7108C90.1382 47.7334 90.1307 47.7635 90.1231 47.7935L86.6836 54.1311V57.3112C86.6836 57.4089 86.646 57.4992 86.5707 57.5668C86.4954 57.642 86.4051 57.6796 86.2997 57.6796H84.3655V57.6796Z" fill="#00A9CE"/>
<path d="M28.2036 64.6487C27.9176 64.6487 27.6692 64.596 27.4735 64.4833C27.2778 64.3705 27.1273 64.2126 27.022 64.0096C26.9166 63.8067 26.8639 63.5736 26.8564 63.318C26.8564 63.1676 26.8488 63.0098 26.8488 62.8368C26.8488 62.6714 26.8488 62.5136 26.8564 62.3557C26.8639 62.0926 26.9241 61.8595 27.022 61.6565C27.1273 61.4535 27.2778 61.3032 27.4735 61.1904C27.6692 61.0777 27.9101 61.025 28.1961 61.025C28.4294 61.025 28.6251 61.0626 28.7907 61.1303C28.9562 61.1979 29.0917 61.2882 29.1971 61.3859C29.3024 61.4911 29.3777 61.5889 29.4304 61.6941C29.4831 61.7994 29.5057 61.8821 29.5132 61.9572C29.5132 61.9873 29.5057 62.0099 29.4906 62.0324C29.468 62.0475 29.4454 62.0625 29.4078 62.0625H29.2949C29.2648 62.0625 29.2422 62.055 29.2272 62.0399C29.2121 62.0249 29.1971 62.0024 29.1896 61.9648C29.1594 61.8595 29.0992 61.7618 29.024 61.664C28.9487 61.5663 28.8358 61.4911 28.7079 61.431C28.5724 61.3708 28.4068 61.3408 28.2036 61.3408C27.9025 61.3408 27.6617 61.4235 27.4735 61.5814C27.2854 61.7392 27.1875 62.0174 27.1725 62.3933C27.165 62.694 27.165 62.9947 27.1725 63.2954C27.1875 63.6713 27.2854 63.942 27.4735 64.1074C27.6617 64.2728 27.9025 64.3555 28.2036 64.3555C28.3993 64.3555 28.5799 64.3179 28.738 64.2427C28.896 64.1675 29.0164 64.0547 29.1143 63.8969C29.2046 63.739 29.2498 63.5435 29.2498 63.303V63.0323H28.3692C28.3391 63.0323 28.309 63.0248 28.2864 63.0022C28.2638 62.9797 28.2563 62.9496 28.2563 62.9195V62.8519C28.2563 62.8143 28.2638 62.7842 28.2864 62.7692C28.309 62.7466 28.3315 62.7391 28.3692 62.7391H29.4454C29.4831 62.7391 29.5132 62.7466 29.5282 62.7692C29.5508 62.7917 29.5583 62.8143 29.5583 62.8519V63.2954C29.5583 63.5661 29.5057 63.7991 29.4003 64.0021C29.2949 64.2051 29.1369 64.363 28.9337 64.4833C28.738 64.5885 28.4896 64.6487 28.2036 64.6487Z" fill="#00358E"/>
<path d="M30.7023 64.596C30.6722 64.596 30.6421 64.5885 30.6196 64.5659C30.597 64.5434 30.5894 64.5208 30.5894 64.4833V61.1904C30.5894 61.1528 30.597 61.1227 30.6196 61.1077C30.6421 61.0852 30.6647 61.0776 30.7023 61.0776H32.6667C32.7044 61.0776 32.7345 61.0852 32.7495 61.1077C32.7721 61.1303 32.7796 61.1528 32.7796 61.1904V61.2656C32.7796 61.2957 32.7721 61.3257 32.7495 61.3483C32.7269 61.3708 32.7044 61.3784 32.6667 61.3784H30.9056V62.6639H32.5538C32.5915 62.6639 32.6216 62.6714 32.6366 62.694C32.6592 62.7165 32.6667 62.7391 32.6667 62.7767V62.8519C32.6667 62.8819 32.6592 62.912 32.6366 62.9346C32.614 62.9571 32.5915 62.9646 32.5538 62.9646H30.9056V64.2953H32.7044C32.742 64.2953 32.7721 64.3028 32.7871 64.3254C32.8097 64.3479 32.8173 64.3705 32.8173 64.4081V64.4833C32.8173 64.5133 32.8097 64.5434 32.7871 64.5659C32.7646 64.5885 32.742 64.596 32.7044 64.596H30.7023Z" fill="#00358E"/>
<path d="M34.8795 64.6486C34.6085 64.6486 34.3752 64.6035 34.1871 64.5208C33.9989 64.4306 33.8484 64.3179 33.7505 64.1825C33.6527 64.0472 33.5925 63.8969 33.5925 63.7465C33.5925 63.7164 33.6 63.6939 33.6226 63.6788C33.6452 63.6563 33.6677 63.6488 33.6978 63.6488H33.7957C33.8258 63.6488 33.8559 63.6563 33.8709 63.6788C33.886 63.7014 33.901 63.7239 33.901 63.7465C33.9161 63.8367 33.9537 63.9344 34.029 64.0247C34.0967 64.1149 34.2021 64.1976 34.3451 64.2577C34.4806 64.3179 34.6612 64.3479 34.8795 64.3479C35.2106 64.3479 35.4515 64.2878 35.602 64.1675C35.7525 64.0472 35.8278 63.8893 35.8278 63.6864C35.8278 63.551 35.7902 63.4458 35.7074 63.3631C35.6321 63.2804 35.5117 63.2052 35.3461 63.1451C35.1881 63.0774 34.9773 63.0097 34.729 62.927C34.4881 62.8519 34.2924 62.7692 34.1419 62.6865C33.9838 62.6038 33.8709 62.506 33.8032 62.3858C33.7279 62.2655 33.6978 62.1151 33.6978 61.9347C33.6978 61.7618 33.743 61.6114 33.8333 61.4761C33.9236 61.3408 34.0591 61.2355 34.2322 61.1528C34.4053 61.0701 34.6161 61.0325 34.8644 61.0325C35.0601 61.0325 35.2332 61.0626 35.3837 61.1152C35.5343 61.1679 35.6547 61.243 35.7525 61.3257C35.8504 61.4159 35.9256 61.5062 35.9708 61.6114C36.0235 61.7167 36.0461 61.8144 36.0536 61.9121C36.0536 61.9347 36.0461 61.9572 36.031 61.9798C36.016 62.0023 35.9859 62.0099 35.9482 62.0099H35.8504C35.8353 62.0099 35.8128 62.0023 35.7902 61.9873C35.7676 61.9723 35.7525 61.9497 35.745 61.9046C35.7224 61.7392 35.6396 61.5964 35.4816 61.4911C35.3235 61.3784 35.1203 61.3257 34.872 61.3257C34.6236 61.3257 34.4204 61.3708 34.2623 61.4686C34.1043 61.5663 34.029 61.7167 34.029 61.9272C34.029 62.0625 34.0666 62.1677 34.1344 62.2579C34.2021 62.3482 34.315 62.4158 34.4655 62.4835C34.6161 62.5511 34.8117 62.6188 35.0526 62.694C35.301 62.7767 35.5117 62.8519 35.6773 62.9346C35.8429 63.0173 35.9633 63.115 36.0461 63.2278C36.1289 63.3405 36.1665 63.4909 36.1665 63.6788C36.1665 63.8818 36.1138 64.0547 36.016 64.1976C35.9106 64.3404 35.7676 64.4457 35.5794 64.5208C35.3687 64.6111 35.1429 64.6486 34.8795 64.6486Z" fill="#00358E"/>
<path d="M37.2352 64.596C37.2051 64.596 37.175 64.5885 37.1524 64.5659C37.1299 64.5434 37.1223 64.5208 37.1223 64.4833V61.1904C37.1223 61.1528 37.1299 61.1227 37.1524 61.1077C37.175 61.0852 37.1976 61.0776 37.2352 61.0776H38.462C38.6954 61.0776 38.8986 61.1152 39.0717 61.1979C39.2448 61.2806 39.3803 61.3934 39.4781 61.5513C39.5759 61.7016 39.6211 61.8971 39.6211 62.1226C39.6211 62.3482 39.5759 62.5436 39.4781 62.694C39.3803 62.8519 39.2448 62.9646 39.0717 63.0398C38.8986 63.1225 38.6954 63.1601 38.462 63.1601H37.446V64.4908C37.446 64.5208 37.4385 64.5509 37.4159 64.5735C37.3933 64.596 37.3707 64.6035 37.3331 64.6035H37.2352V64.596ZM37.4385 62.8519H38.4319C38.7255 62.8519 38.9437 62.7917 39.0867 62.6639C39.2297 62.5361 39.2975 62.3557 39.2975 62.1151C39.2975 61.8745 39.2297 61.6941 39.0867 61.5663C38.9437 61.4385 38.7255 61.3784 38.4319 61.3784H37.4385V62.8519Z" fill="#00358E"/>
<path d="M40.6447 64.596C40.6146 64.596 40.5845 64.5885 40.5619 64.5659C40.5393 64.5434 40.5318 64.5208 40.5318 64.4833V61.1904C40.5318 61.1528 40.5393 61.1227 40.5619 61.1077C40.5845 61.0852 40.6071 61.0776 40.6447 61.0776H41.8188C42.1725 61.0776 42.451 61.1603 42.6618 61.3257C42.8725 61.4911 42.9779 61.7467 42.9779 62.0926C42.9779 62.3632 42.9101 62.5737 42.7747 62.7391C42.6392 62.897 42.451 63.0097 42.2177 63.0624L43.0306 64.4381C43.0381 64.4607 43.0456 64.4757 43.0456 64.4908C43.0456 64.5208 43.0381 64.5434 43.0155 64.5584C42.9929 64.581 42.9703 64.5885 42.9478 64.5885H42.8876C42.8349 64.5885 42.7972 64.5735 42.7671 64.5434C42.737 64.5133 42.7145 64.4833 42.6994 64.4532L41.8941 63.1075H40.8554V64.4833C40.8554 64.5133 40.8479 64.5434 40.8253 64.5659C40.8027 64.5885 40.7802 64.596 40.7425 64.596H40.6447ZM40.8554 62.8068H41.7962C42.0898 62.8068 42.308 62.7466 42.451 62.6263C42.594 62.506 42.6618 62.3256 42.6618 62.0926C42.6618 61.852 42.594 61.6791 42.451 61.5588C42.308 61.4385 42.0898 61.3784 41.7962 61.3784H40.8554V62.8068Z" fill="#00358E"/>
<path d="M44.1219 64.596C44.0918 64.596 44.0617 64.5885 44.0391 64.5659C44.0165 64.5434 44.009 64.5208 44.009 64.4833V61.1904C44.009 61.1528 44.0165 61.1227 44.0391 61.1077C44.0617 61.0852 44.0843 61.0776 44.1219 61.0776H46.0863C46.1239 61.0776 46.154 61.0852 46.1691 61.1077C46.1917 61.1303 46.1992 61.1528 46.1992 61.1904V61.2656C46.1992 61.2957 46.1917 61.3257 46.1691 61.3483C46.1465 61.3708 46.1239 61.3784 46.0863 61.3784H44.3251V62.6639H45.9734C46.011 62.6639 46.0411 62.6714 46.0562 62.694C46.0788 62.7165 46.0863 62.7391 46.0863 62.7767V62.8519C46.0863 62.8819 46.0788 62.912 46.0562 62.9346C46.0336 62.9571 46.011 62.9646 45.9734 62.9646H44.3251V64.2953H46.1239C46.1615 64.2953 46.1917 64.3028 46.2067 64.3254C46.2293 64.3479 46.2368 64.3705 46.2368 64.4081V64.4833C46.2368 64.5133 46.2293 64.5434 46.2067 64.5659C46.1841 64.5885 46.1615 64.596 46.1239 64.596H44.1219Z" fill="#00358E"/>
<path d="M47.3582 64.596C47.3281 64.596 47.298 64.5885 47.2754 64.566C47.2529 64.5434 47.2453 64.5209 47.2453 64.4833V61.1829C47.2453 61.1528 47.2529 61.1228 47.2754 61.1002C47.298 61.0776 47.3206 61.0701 47.3582 61.0701H47.4561C47.4862 61.0701 47.5163 61.0776 47.5389 61.1002C47.5614 61.1228 47.569 61.1453 47.569 61.1829V64.4833C47.569 64.5133 47.5614 64.5434 47.5389 64.566C47.5163 64.5885 47.4937 64.596 47.4561 64.596H47.3582Z" fill="#00358E"/>
<path d="M48.871 64.596C48.8409 64.596 48.8108 64.5885 48.7883 64.5659C48.7657 64.5434 48.7581 64.5208 48.7581 64.4833V61.1904C48.7581 61.1528 48.7657 61.1227 48.7883 61.1077C48.8108 61.0852 48.8334 61.0776 48.871 61.0776H49.9473C50.3011 61.0776 50.5795 61.1303 50.7827 61.2355C50.986 61.3408 51.129 61.4911 51.2118 61.6941C51.2945 61.8971 51.3397 62.1452 51.3472 62.4384C51.3472 62.5887 51.3547 62.7241 51.3547 62.8368C51.3547 62.9496 51.3548 63.0849 51.3472 63.2353C51.3397 63.5435 51.2945 63.7991 51.2118 64.0021C51.129 64.2051 50.986 64.3554 50.7903 64.4532C50.5946 64.5509 50.3236 64.6035 49.9774 64.6035H48.871V64.596ZM49.0818 64.2953H49.9473C50.2183 64.2953 50.429 64.2577 50.5871 64.1901C50.7451 64.1149 50.858 64.0021 50.9257 63.8442C50.9935 63.6864 51.0311 63.4759 51.0311 63.2127C51.0311 63.115 51.0386 63.0248 51.0386 62.9496C51.0386 62.8744 51.0386 62.7992 51.0386 62.7241C51.0386 62.6489 51.0386 62.5662 51.0311 62.4609C51.0236 62.0926 50.9408 61.8219 50.7752 61.6415C50.6096 61.4686 50.3236 61.3784 49.9247 61.3784H49.0818V64.2953V64.2953Z" fill="#00358E"/>
<path d="M54.0868 64.596C54.0567 64.596 54.0266 64.5885 54.004 64.5659C53.9815 64.5434 53.9739 64.5208 53.9739 64.4833V61.1904C53.9739 61.1528 53.9815 61.1227 54.004 61.1077C54.0266 61.0852 54.0492 61.0776 54.0868 61.0776H55.404C55.6373 61.0776 55.833 61.1227 55.9835 61.2054C56.134 61.2881 56.2394 61.4009 56.3146 61.5362C56.3824 61.6716 56.42 61.8219 56.42 61.9798C56.42 62.1226 56.3974 62.2504 56.3523 62.3482C56.3071 62.4534 56.2469 62.5361 56.1792 62.5963C56.1114 62.6564 56.0437 62.709 55.976 62.7391C56.1114 62.8068 56.2319 62.912 56.3297 63.0624C56.4275 63.2127 56.4877 63.3856 56.4877 63.6037C56.4877 63.7691 56.4501 63.9344 56.3673 64.0848C56.2921 64.2352 56.1716 64.363 56.0136 64.4607C55.8555 64.5584 55.6674 64.6035 55.4341 64.6035H54.0868V64.596ZM54.29 62.6038H55.3362C55.5846 62.6038 55.7727 62.5511 55.9007 62.4384C56.0286 62.3256 56.0964 62.1753 56.0964 61.9723C56.0964 61.7768 56.0286 61.6264 55.9007 61.5212C55.7727 61.4159 55.5846 61.3708 55.3362 61.3708H54.29V62.6038ZM54.29 64.2953H55.3814C55.6297 64.2953 55.8254 64.2276 55.9609 64.0998C56.0964 63.972 56.1641 63.8066 56.1641 63.6037C56.1641 63.4007 56.0964 63.2353 55.9609 63.1C55.8254 62.9722 55.6297 62.9045 55.3814 62.9045H54.29V64.2953Z" fill="#00358E"/>
<path d="M57.6242 64.596C57.5941 64.596 57.564 64.5885 57.5414 64.5659C57.5188 64.5434 57.5113 64.5208 57.5113 64.4833V61.1904C57.5113 61.1528 57.5188 61.1227 57.5414 61.1077C57.564 61.0852 57.5866 61.0776 57.6242 61.0776H59.5886C59.6262 61.0776 59.6563 61.0852 59.6714 61.1077C59.694 61.1303 59.7015 61.1528 59.7015 61.1904V61.2656C59.7015 61.2957 59.694 61.3257 59.6714 61.3483C59.6488 61.3708 59.6262 61.3784 59.5886 61.3784H57.8274V62.6639H59.4757C59.5133 62.6639 59.5434 62.6714 59.5585 62.694C59.5811 62.7165 59.5886 62.7391 59.5886 62.7767V62.8519C59.5886 62.8819 59.5811 62.912 59.5585 62.9346C59.5359 62.9571 59.5133 62.9646 59.4757 62.9646H57.8274V64.2953H59.6262C59.6639 64.2953 59.694 64.3028 59.709 64.3254C59.7316 64.3479 59.7391 64.3705 59.7391 64.4081V64.4833C59.7391 64.5133 59.7316 64.5434 59.709 64.5659C59.6864 64.5885 59.6639 64.596 59.6262 64.596H57.6242Z" fill="#00358E"/>
<path d="M61.6283 64.596C61.5982 64.596 61.568 64.5885 61.5455 64.5659C61.5229 64.5434 61.5154 64.5208 61.5154 64.4833V61.3784H60.5144C60.4843 61.3784 60.4541 61.3708 60.4316 61.3483C60.409 61.3257 60.4015 61.3032 60.4015 61.2656V61.1904C60.4015 61.1528 60.409 61.1227 60.4316 61.1077C60.4541 61.0852 60.4767 61.0776 60.5144 61.0776H62.825C62.8626 61.0776 62.8927 61.0852 62.9077 61.1077C62.9303 61.1303 62.9378 61.1528 62.9378 61.1904V61.2656C62.9378 61.2957 62.9303 61.3257 62.9077 61.3483C62.8852 61.3708 62.8626 61.3784 62.825 61.3784H61.8315V64.4908C61.8315 64.5208 61.8239 64.5509 61.8014 64.5735C61.7788 64.596 61.7562 64.6035 61.7186 64.6035H61.6283V64.596Z" fill="#00358E"/>
<path d="M63.1787 64.596C63.1486 64.596 63.126 64.5885 63.1109 64.5659C63.0884 64.5434 63.0808 64.5208 63.0808 64.4983C63.0808 64.4832 63.0808 64.4607 63.0884 64.4456L64.3603 61.1829C64.3754 61.1528 64.3904 61.1227 64.413 61.1077C64.4356 61.0927 64.4657 61.0851 64.5033 61.0851H64.6764C64.7141 61.0851 64.7442 61.0927 64.7667 61.1077C64.7893 61.1227 64.8044 61.1528 64.8194 61.1829L66.0914 64.4456C66.0989 64.4682 66.0989 64.4832 66.0989 64.4983C66.0989 64.5283 66.0914 64.5509 66.0688 64.5659C66.0462 64.5885 66.0237 64.596 66.0011 64.596H65.9032C65.8731 64.596 65.843 64.5885 65.828 64.5659C65.8129 64.5509 65.7979 64.5283 65.7903 64.5208L65.4742 63.7164H63.6905L63.3744 64.5208C63.3744 64.5359 63.3593 64.5509 63.3443 64.5659C63.3292 64.581 63.2991 64.596 63.269 64.596H63.1787V64.596ZM63.826 63.4157H65.3689L64.6012 61.431L63.826 63.4157Z" fill="#00358E"/>
<path d="M67.0623 64.596C67.0322 64.596 67.0021 64.5885 66.9795 64.566C66.9569 64.5434 66.9494 64.5209 66.9494 64.4833V61.1829C66.9494 61.1528 66.9569 61.1228 66.9795 61.1002C67.0021 61.0776 67.0247 61.0701 67.0623 61.0701H67.1601C67.1902 61.0701 67.2204 61.0776 67.2429 61.1002C67.2655 61.1228 67.273 61.1453 67.273 61.1829V64.2953H69.0116C69.0493 64.2953 69.0794 64.3028 69.0944 64.3254C69.117 64.3479 69.1245 64.3705 69.1245 64.4081V64.4833C69.1245 64.5133 69.117 64.5434 69.0944 64.566C69.0718 64.5885 69.0493 64.596 69.0116 64.596H67.0623Z" fill="#00358E"/>
<path d="M70.0804 64.596C70.0503 64.596 70.0202 64.5885 69.9976 64.5659C69.975 64.5434 69.9675 64.5208 69.9675 64.4833V61.1904C69.9675 61.1528 69.975 61.1227 69.9976 61.1077C70.0202 61.0852 70.0427 61.0776 70.0804 61.0776H72.0448C72.0824 61.0776 72.1125 61.0852 72.1275 61.1077C72.1501 61.1303 72.1576 61.1528 72.1576 61.1904V61.2656C72.1576 61.2957 72.1501 61.3257 72.1275 61.3483C72.105 61.3708 72.0824 61.3784 72.0448 61.3784H70.2836V62.6639H71.9319C71.9695 62.6639 71.9996 62.6714 72.0146 62.694C72.0372 62.7165 72.0448 62.7391 72.0448 62.7767V62.8519C72.0448 62.8819 72.0372 62.912 72.0146 62.9346C71.9921 62.9571 71.9695 62.9646 71.9319 62.9646H70.2836V64.2953H72.0824C72.12 64.2953 72.1501 64.3028 72.1652 64.3254C72.1877 64.3479 72.1953 64.3705 72.1953 64.4081V64.4833C72.1953 64.5133 72.1877 64.5434 72.1652 64.5659C72.1426 64.5885 72.12 64.596 72.0824 64.596H70.0804Z" fill="#00358E"/>
<path d="M73.3092 64.596C73.2791 64.596 73.249 64.5885 73.2264 64.5659C73.2038 64.5434 73.1963 64.5208 73.1963 64.4833V61.1904C73.1963 61.1528 73.2038 61.1227 73.2264 61.1077C73.249 61.0852 73.2716 61.0776 73.3092 61.0776H73.4146C73.4447 61.0776 73.4748 61.0852 73.4898 61.1002C73.5049 61.1152 73.5199 61.1303 73.5199 61.1378L75.3789 63.972V61.1904C75.3789 61.1528 75.3865 61.1227 75.409 61.1077C75.4316 61.0852 75.4542 61.0776 75.4918 61.0776H75.5822C75.6198 61.0776 75.6499 61.0852 75.6649 61.1077C75.6875 61.1303 75.695 61.1528 75.695 61.1904V64.4833C75.695 64.5133 75.6875 64.5434 75.6649 64.5659C75.6424 64.5885 75.6198 64.596 75.5822 64.596H75.4693C75.4391 64.596 75.409 64.5885 75.394 64.5735C75.3789 64.5584 75.3714 64.5434 75.3639 64.5359L73.5124 61.7091V64.4833C73.5124 64.5133 73.5049 64.5434 73.4823 64.5659C73.4597 64.5885 73.4371 64.596 73.3995 64.596H73.3092Z" fill="#00358E"/>
<path d="M36.3171 42.4934C35.9407 42.4934 35.6397 42.1852 35.6397 41.8168V34.344C35.6397 33.9681 35.9483 33.6674 36.3171 33.6674C36.6934 33.6674 36.9944 33.9756 36.9944 34.344V41.8168C36.9944 42.1852 36.6858 42.4934 36.3171 42.4934Z" fill="url(#paint0_linear_40_559)"/>
<path d="M39.0341 43.3354C38.6577 43.3354 38.3567 43.0272 38.3567 42.6588V35.8626C38.3567 35.4867 38.6653 35.186 39.0341 35.186C39.4104 35.186 39.7114 35.4942 39.7114 35.8626V42.6588C39.7114 43.0272 39.4104 43.3354 39.0341 43.3354Z" fill="url(#paint1_linear_40_559)"/>
<path d="M41.7511 43.809C41.3748 43.809 41.0737 43.5008 41.0737 43.1324V37.0204C41.0737 36.6445 41.3823 36.3438 41.7511 36.3438C42.1274 36.3438 42.4285 36.652 42.4285 37.0204V43.1324C42.436 43.5083 42.1274 43.809 41.7511 43.809Z" fill="url(#paint2_linear_40_559)"/>
<path d="M44.4757 43.9744C44.0993 43.9744 43.7983 43.6662 43.7983 43.2978V37.8623C43.7983 37.4864 44.1069 37.1857 44.4757 37.1857C44.852 37.1857 45.153 37.494 45.153 37.8623V43.2978C45.153 43.6662 44.852 43.9744 44.4757 43.9744Z" fill="url(#paint3_linear_40_559)"/>
<path d="M47.1927 43.824C46.8163 43.824 46.5153 43.5158 46.5153 43.1474V38.3886C46.5153 38.0127 46.8239 37.712 47.1927 37.712C47.569 37.712 47.87 38.0202 47.87 38.3886V43.1474C47.8776 43.5158 47.569 43.824 47.1927 43.824Z" fill="url(#paint4_linear_40_559)"/>
<path d="M49.9172 43.403C49.5409 43.403 49.2398 43.0948 49.2398 42.7264V38.6517C49.2398 38.2758 49.5484 37.9751 49.9172 37.9751C50.2935 37.9751 50.5946 38.2833 50.5946 38.6517V42.7264C50.5946 43.0948 50.286 43.403 49.9172 43.403Z" fill="url(#paint5_linear_40_559)"/>
<path d="M52.6343 42.7264C52.2579 42.7264 51.9569 42.4182 51.9569 42.0498V38.6517C51.9569 38.2758 52.2655 37.9751 52.6343 37.9751C53.0106 37.9751 53.3116 38.2833 53.3116 38.6517V42.0498C53.3116 42.4182 53.0106 42.7264 52.6343 42.7264Z" fill="url(#paint6_linear_40_559)"/>
<path d="M55.3588 41.7867C54.9825 41.7867 54.6814 41.4785 54.6814 41.1101V38.3962C54.6814 38.0203 54.99 37.7195 55.3588 37.7195C55.7351 37.7195 56.0362 38.0278 56.0362 38.3962V41.1101C56.0362 41.4785 55.7276 41.7867 55.3588 41.7867Z" fill="url(#paint7_linear_40_559)"/>
<path d="M58.0758 40.5763C57.6995 40.5763 57.3984 40.2681 57.3984 39.8997V37.8623C57.3984 37.4864 57.707 37.1857 58.0758 37.1857C58.4521 37.1857 58.7532 37.494 58.7532 37.8623V39.8997C58.7532 40.2756 58.4521 40.5763 58.0758 40.5763Z" fill="url(#paint8_linear_40_559)"/>
<path d="M60.7929 39.0577C60.4165 39.0577 60.1155 38.7495 60.1155 38.3811V37.0204C60.1155 36.6445 60.4241 36.3438 60.7929 36.3438C61.1692 36.3438 61.4702 36.652 61.4702 37.0204V38.3811C61.4778 38.7495 61.1692 39.0577 60.7929 39.0577Z" fill="url(#paint9_linear_40_559)"/>
<path d="M63.5174 37.2233C63.1411 37.2233 62.84 36.9151 62.84 36.5467V35.8701C62.84 35.4942 63.1486 35.1935 63.5174 35.1935C63.8937 35.1935 64.1948 35.5017 64.1948 35.8701V36.5467C64.1948 36.9151 63.8937 37.2233 63.5174 37.2233Z" fill="url(#paint10_linear_40_559)"/>
<path d="M66.2344 35.0206C65.8581 35.0206 65.557 34.7123 65.557 34.344C65.557 33.9681 65.8656 33.6674 66.2344 33.6674C66.6107 33.6674 66.9118 33.9756 66.9118 34.344C66.9193 34.7123 66.6107 35.0206 66.2344 35.0206Z" fill="url(#paint11_linear_40_559)"/>
<defs>
<linearGradient id="paint0_linear_40_559" x1="35.7062" y1="38.0782" x2="66.8248" y2="38.0782" gradientUnits="userSpaceOnUse">
<stop stop-color="#00358E"/>
<stop offset="1" stop-color="#00A9CE"/>
</linearGradient>
<linearGradient id="paint1_linear_40_559" x1="35.7062" y1="39.2602" x2="66.8248" y2="39.2602" gradientUnits="userSpaceOnUse">
<stop stop-color="#00358E"/>
<stop offset="1" stop-color="#00A9CE"/>
</linearGradient>
<linearGradient id="paint2_linear_40_559" x1="35.7062" y1="40.0753" x2="66.8248" y2="40.0753" gradientUnits="userSpaceOnUse">
<stop stop-color="#00358E"/>
<stop offset="1" stop-color="#00A9CE"/>
</linearGradient>
<linearGradient id="paint3_linear_40_559" x1="35.7062" y1="40.578" x2="66.8248" y2="40.578" gradientUnits="userSpaceOnUse">
<stop stop-color="#00358E"/>
<stop offset="1" stop-color="#00A9CE"/>
</linearGradient>
<linearGradient id="paint4_linear_40_559" x1="35.7062" y1="40.7682" x2="66.8248" y2="40.7682" gradientUnits="userSpaceOnUse">
<stop stop-color="#00358E"/>
<stop offset="1" stop-color="#00A9CE"/>
</linearGradient>
<linearGradient id="paint5_linear_40_559" x1="35.7062" y1="40.6867" x2="66.8248" y2="40.6867" gradientUnits="userSpaceOnUse">
<stop stop-color="#00358E"/>
<stop offset="1" stop-color="#00A9CE"/>
</linearGradient>
<linearGradient id="paint6_linear_40_559" x1="35.7063" y1="40.347" x2="66.8248" y2="40.347" gradientUnits="userSpaceOnUse">
<stop stop-color="#00358E"/>
<stop offset="1" stop-color="#00A9CE"/>
</linearGradient>
<linearGradient id="paint7_linear_40_559" x1="35.7063" y1="39.7493" x2="66.8248" y2="39.7493" gradientUnits="userSpaceOnUse">
<stop stop-color="#00358E"/>
<stop offset="1" stop-color="#00A9CE"/>
</linearGradient>
<linearGradient id="paint8_linear_40_559" x1="35.7062" y1="38.8797" x2="66.8248" y2="38.8797" gradientUnits="userSpaceOnUse">
<stop stop-color="#00358E"/>
<stop offset="1" stop-color="#00A9CE"/>
</linearGradient>
<linearGradient id="paint9_linear_40_559" x1="35.7062" y1="37.6978" x2="66.8248" y2="37.6978" gradientUnits="userSpaceOnUse">
<stop stop-color="#00358E"/>
<stop offset="1" stop-color="#00A9CE"/>
</linearGradient>
<linearGradient id="paint10_linear_40_559" x1="35.7062" y1="36.2033" x2="66.8248" y2="36.2033" gradientUnits="userSpaceOnUse">
<stop stop-color="#00358E"/>
<stop offset="1" stop-color="#00A9CE"/>
</linearGradient>
<linearGradient id="paint11_linear_40_559" x1="35.7062" y1="34.342" x2="66.8248" y2="34.342" gradientUnits="userSpaceOnUse">
<stop stop-color="#00358E"/>
<stop offset="1" stop-color="#00A9CE"/>
</linearGradient>
</defs>
</svg>
