<svg id="Laag_1" data-name="Laag 1" xmlns="http://www.w3.org/2000/svg" viewBox="0 0 100 100"><defs><style>.cls-1{fill:#fff;}.cls-2{fill:#a8a8a7;}.cls-3{fill:#4f82bc;}.cls-4{fill:#0c4580;}.cls-5{fill:#006c9d;}</style></defs><rect class="cls-1" x="0.5" y="0.5" width="99" height="99" rx="9.87"/><path class="cls-2" d="M89.63,1A9.38,9.38,0,0,1,99,10.37V89.63A9.38,9.38,0,0,1,89.63,99H10.37A9.38,9.38,0,0,1,1,89.63V10.37A9.38,9.38,0,0,1,10.37,1H89.63m0-1H10.37A10.41,10.41,0,0,0,0,10.37V89.63A10.41,10.41,0,0,0,10.37,100H89.63A10.41,10.41,0,0,0,100,89.63V10.37A10.41,10.41,0,0,0,89.63,0Z"/><path class="cls-3" d="M59.77,42.5a.53.53,0,0,1-.3-.11.41.41,0,0,1,0-.57l4-4.28a.4.4,0,0,1,.58.54l-4,4.29A.41.41,0,0,1,59.77,42.5Z"/><path class="cls-3" d="M58.48,37.81a.29.29,0,0,1-.25-.1.39.39,0,0,1-.06-.56l3.68-4.56a.38.38,0,0,1,.57,0,.39.39,0,0,1,0,.56l-3.68,4.54A.38.38,0,0,1,58.48,37.81Z"/><path class="cls-3" d="M51.53,40.07a.36.36,0,0,1-.25-.08.4.4,0,0,1-.06-.57l3.72-4.53a.37.37,0,0,1,.54-.06.39.39,0,0,1,.08.56l-3.72,4.52A.35.35,0,0,1,51.53,40.07Z"/><path class="cls-3" d="M84.64,39.85l-.16,0a.4.4,0,0,1-.23-.5l2.12-5.47a.41.41,0,0,1,.53-.24.42.42,0,0,1,.23.51L85,39.6A.37.37,0,0,1,84.64,39.85Z"/><path class="cls-3" d="M80.22,37.42a.44.44,0,0,1-.41-.35l-.94-5.77a.39.39,0,0,1,.33-.46.41.41,0,0,1,.47.35l1,5.76a.42.42,0,0,1-.34.45S80.26,37.42,80.22,37.42Z"/><circle class="cls-3" cx="71.74" cy="34.65" r="2.36"/><circle class="cls-3" cx="69.12" cy="27.21" r="2.36"/><circle class="cls-3" cx="79.01" cy="31.03" r="2.36"/><circle class="cls-3" cx="72.62" cy="50.29" r="2.36"/><circle class="cls-3" cx="72.85" cy="60.56" r="2.36"/><circle class="cls-4" cx="63.66" cy="67.35" r="2.36"/><circle class="cls-3" cx="56.9" cy="73.53" r="2.36"/><circle class="cls-3" cx="48.53" cy="77.25" r="2.36"/><circle class="cls-3" cx="39.43" cy="78.08" r="2.36"/><circle class="cls-4" cx="30.51" cy="75.98" r="2.36"/><circle class="cls-3" cx="22.74" cy="71.13" r="2.36"/><circle class="cls-3" cx="16.94" cy="64.06" r="2.36"/><circle class="cls-4" cx="13.69" cy="55.49" r="2.36"/><circle class="cls-3" cx="13.36" cy="46.34" r="2.36"/><circle class="cls-3" cx="15.97" cy="37.57" r="2.36"/><circle class="cls-3" cx="21.22" cy="30.08" r="2.36"/><circle class="cls-3" cx="28.63" cy="24.68" r="2.36"/><circle class="cls-3" cx="37.35" cy="21.92" r="2.36"/><circle class="cls-3" cx="46.5" cy="22.07" r="2.36"/><circle class="cls-3" cx="55.13" cy="25.17" r="2.36"/><circle class="cls-4" cx="87.01" cy="33.68" r="1.99"/><circle class="cls-5" cx="62.34" cy="32.22" r="1.99"/><circle class="cls-3" cx="78" cy="40.52" r="1.99"/><circle class="cls-3" cx="66.58" cy="54.4" r="1.99"/><circle class="cls-3" cx="62.28" cy="61.37" r="1.99"/><circle class="cls-3" cx="57.51" cy="67.45" r="1.99"/><circle class="cls-3" cx="51.04" cy="71.68" r="1.99"/><circle class="cls-3" cx="43.56" cy="73.6" r="1.99"/><circle class="cls-4" cx="35.87" cy="73.06" r="1.99"/><circle class="cls-5" cx="28.74" cy="70.08" r="1.99"/><circle class="cls-3" cx="22.96" cy="64.98" r="1.99"/><circle class="cls-4" cx="19.1" cy="58.28" r="1.99"/><circle class="cls-3" cx="17.58" cy="50.7" r="1.99"/><circle class="cls-5" cx="18.56" cy="43.05" r="1.99"/><circle class="cls-3" cx="21.95" cy="36.11" r="1.99"/><circle class="cls-4" cx="27.36" cy="30.6" r="1.99"/><circle class="cls-5" cx="34.25" cy="27.12" r="1.99"/><circle class="cls-3" cx="41.89" cy="26.03" r="1.99"/><circle class="cls-3" cx="49.48" cy="27.43" r="1.99"/><circle class="cls-3" cx="63.66" cy="23.3" r="1.99"/><circle class="cls-3" cx="86.86" cy="26.55" r="1.67"/><circle class="cls-3" cx="63.72" cy="37.46" r="1.69"/><circle class="cls-4" cx="70.24" cy="43.28" r="1.67"/><circle class="cls-3" cx="61.62" cy="50.21" r="1.69"/><circle class="cls-3" cx="60.47" cy="56.64" r="1.67"/><circle class="cls-4" cx="57.31" cy="62.39" r="1.67"/><circle class="cls-3" cx="52.5" cy="66.81" r="1.67"/><circle class="cls-3" cx="46.54" cy="69.46" r="1.67"/><circle class="cls-3" cx="40.02" cy="70.06" r="1.67"/><circle class="cls-3" cx="33.67" cy="68.56" r="1.67"/><circle class="cls-4" cx="28.12" cy="65.09" r="1.67"/><circle class="cls-3" cx="23.97" cy="60.05" r="1.67"/><circle class="cls-3" cx="21.65" cy="53.91" r="1.67"/><circle class="cls-4" cx="21.42" cy="47.41" r="1.69"/><circle class="cls-3" cx="23.27" cy="41.12" r="1.69"/><circle class="cls-3" cx="27.03" cy="35.78" r="1.67"/><circle class="cls-3" cx="32.31" cy="31.91" r="1.67"/><circle class="cls-4" cx="38.54" cy="29.94" r="1.67"/><circle class="cls-3" cx="45.08" cy="30.08" r="1.67"/><circle class="cls-3" cx="51.24" cy="32.28" r="1.69"/><circle class="cls-3" cx="64.42" cy="43.42" r="1.42"/><circle class="cls-3" cx="78" cy="54.97" r="1.42"/><circle class="cls-5" cx="58.19" cy="52.92" r="1.42"/><circle class="cls-5" cx="56.34" cy="58.12" r="1.42"/><circle class="cls-3" cx="52.93" cy="62.46" r="1.42"/><circle class="cls-4" cx="48.32" cy="65.46" r="1.42"/><circle class="cls-3" cx="42.98" cy="66.87" r="1.42"/><circle class="cls-5" cx="37.49" cy="66.46" r="1.42"/><circle class="cls-3" cx="32.4" cy="64.33" r="1.42"/><circle class="cls-5" cx="28.27" cy="60.67" r="1.42"/><circle class="cls-3" cx="25.51" cy="55.92" r="1.4"/><circle class="cls-5" cx="24.42" cy="50.51" r="1.42"/><circle class="cls-3" cx="25.14" cy="45.03" r="1.42"/><circle class="cls-4" cx="27.53" cy="40.09" r="1.42"/><circle class="cls-4" cx="31.41" cy="36.15" r="1.42"/><circle class="cls-3" cx="36.34" cy="33.68" r="1.42"/><circle class="cls-5" cx="41.79" cy="32.88" r="1.42"/><circle class="cls-4" cx="47.21" cy="33.89" r="1.42"/><circle class="cls-3" cx="55.44" cy="34.59" r="1.42"/><circle class="cls-4" cx="79.42" cy="22.81" r="2.36"/></svg>