<?xml version="1.0" encoding="utf-8"?>
<!-- Generator: Adobe Illustrator 25.4.0, SVG Export Plug-In . SVG Version: 6.00 Build 0)  -->
<svg version="1.1" id="Laag_1" xmlns="http://www.w3.org/2000/svg" xmlns:xlink="http://www.w3.org/1999/xlink" x="0px" y="0px"
	 viewBox="0 0 100 100" style="enable-background:new 0 0 100 100;" xml:space="preserve">
<style type="text/css">
	.st0{fill:#279DD5;}
	.st1{fill:url(#SVGID_1_);}
	.st2{fill:url(#SVGID_00000023992028925036703590000001618683203092532107_);}
	.st3{fill:url(#SVGID_00000106140985662247802760000013570472612795414929_);}
	.st4{fill:url(#SVGID_00000052811833985610361280000010923571562647666095_);}
	.st5{opacity:0.72;}
	.st6{fill:#0092B1;}
	.st7{fill:url(#SVGID_00000039822384345707986940000010197010743021664654_);}
	.st8{fill:#1D1D1B;}
	.st9{fill:#FFFFFF;}
</style>
<g>
	<g>
		<path class="st0" d="M89.6,100H10.4C4.7,100,0,95.3,0,89.6V10.4C0,4.7,4.7,0,10.4,0h79.3C95.3,0,100,4.7,100,10.4v79.3
			C100,95.3,95.3,100,89.6,100z"/>
	</g>
	<g>
		<g>
			<g>
				<linearGradient id="SVGID_1_" gradientUnits="userSpaceOnUse" x1="21.44" y1="62.4501" x2="81.8855" y2="62.4501">
					<stop  offset="0" style="stop-color:#AE7300"/>
					<stop  offset="0.4993" style="stop-color:#FFF251"/>
					<stop  offset="1" style="stop-color:#B27A00"/>
				</linearGradient>
				<path class="st1" d="M23.1,64.3c2,1.9,4.2,3.5,6.6,4.7c1.2,0.6,2.4,1.1,3.6,1.3c0.6,0.1,1.2,0.2,1.8,0.3c0.6,0,1.2,0,1.9,0
					c5.2-0.2,10.3-1.6,15.3-3.6c4.9-1.9,9.7-4.4,14.4-7.1c4.7-2.7,9.3-5.7,13.9-8.7c-3.5,4.3-7.7,8-12.2,11.4
					c-4.5,3.3-9.4,6.2-14.7,8.2c-5.3,2.1-11,3.4-16.8,3c-1.4-0.1-3-0.3-4.4-0.9c-1.4-0.5-2.7-1.3-3.9-2.2
					C26.3,68.9,24.4,66.7,23.1,64.3z"/>
			</g>
			<g>
				
					<linearGradient id="SVGID_00000034062806753422927840000003367892702352724368_" gradientUnits="userSpaceOnUse" x1="19.4672" y1="61.9715" x2="25.9928" y2="61.9715">
					<stop  offset="0" style="stop-color:#AE7300"/>
					<stop  offset="0.4993" style="stop-color:#FFF251"/>
					<stop  offset="1" style="stop-color:#B27A00"/>
				</linearGradient>
				<path style="fill:url(#SVGID_00000034062806753422927840000003367892702352724368_);" d="M25.2,57.5c0.2,1,0.2,1.9,0,2.9
					c-0.2,1-0.5,1.9-1,2.8c-0.5,0.9-1.1,1.7-1.9,2.3c-0.8,0.6-1.7,1.1-2.7,1.1c0.8-0.6,1.4-1.2,1.9-1.9c0.5-0.7,1-1.4,1.4-2.2
					C23.8,60.9,24.5,59.2,25.2,57.5z"/>
			</g>
			<g>
				
					<linearGradient id="SVGID_00000034801755915108264550000015753462035085627533_" gradientUnits="userSpaceOnUse" x1="83.2419" y1="46.2453" x2="83.2419" y2="54.1367">
					<stop  offset="0" style="stop-color:#AE7300"/>
					<stop  offset="0.4993" style="stop-color:#FFF251"/>
					<stop  offset="1" style="stop-color:#B27A00"/>
				</linearGradient>
				<path style="fill:url(#SVGID_00000034801755915108264550000015753462035085627533_);" d="M87.6,53.4c-1.1,0.3-2.1,0.3-3.2,0.2
					c-1.1-0.1-2.2-0.4-3.2-1c-0.5-0.3-1-0.7-1.4-1.1c-0.4-0.5-0.7-1.1-0.8-1.7c-0.2-1.2,0-2.4,0.6-3.3c0.1,1.1,0.3,2.1,0.6,2.9
					c0.4,0.8,0.9,1.4,1.7,1.9C83.5,52.3,85.5,52.8,87.6,53.4z"/>
			</g>
		</g>
		
			<radialGradient id="SVGID_00000153679779234877507430000005133169049824319111_" cx="47.3313" cy="53.6206" r="12.8554" gradientUnits="userSpaceOnUse">
			<stop  offset="0.5311" style="stop-color:#0092B1"/>
			<stop  offset="0.7304" style="stop-color:#00E0FF"/>
			<stop  offset="1" style="stop-color:#B4F7F5"/>
		</radialGradient>
		<circle style="fill:url(#SVGID_00000153679779234877507430000005133169049824319111_);" cx="47.3" cy="53.6" r="12.9"/>
		<g class="st5">
			<g>
				<path class="st6" d="M41.8,59.4c-0.2,0.3-0.3,0.5-0.5,0.8c-0.2,0-0.4,0-0.5,0c-0.2,1.1,0.7,0.9,1.2,1.2c0.1-0.4,0.3-0.8,0.3-1.2
					C42.3,59.9,42,59.6,41.8,59.4c0.2-0.2,0.3-0.4,0.5-0.6c0.1,0,0.1,0,0.2,0.1c0,0.6,0,1.3,0,1.9c0.1,0,0.1,0.1,0.2,0.1
					c0.2-0.2,0.4-0.5,0.5-0.7c0.3,0.3,0.7,0.5,1,0.8c-0.2,0.7,0.6,0.7,0.7,1.1c-0.1,0.4-0.1,0.7-0.2,1.1c0.5-0.2,0.9-0.4,1.2-0.5
					c0.2,0.5,0.3,0.9,0.4,1.4c1.2-0.1,2-1,1.7-2.6c0.3,0.4,0.6,0.8,0.9,1.1c0.2-0.3,0.3-0.4,0.5-0.7c0,0.1,0,0.2,0,0.3
					c0,0.5,0.1,0.8,0.7,0.6c0.4-0.1,0.7-0.2,0.5-0.7c-0.1-0.4,0-0.8,0-1.1c0,0,0.1,0.1,0.1,0.1c0.2-0.2,0.5-0.4,0.7-0.6
					c0.1-0.1,0.2-0.4,0.2-0.4c0.2,0,0.4,0.1,0.5,0.3c0.2,0.1,0.3,0.4,0.4,0.4c0.8-0.3,1,0.6,1.6,0.8c-0.3,0-0.5-0.1-0.8-0.1
					c0.1,0.3,0.2,0.6,0.3,0.9c0.6,0,1.1,0,1.6,0c0-0.2-0.1-0.3-0.1-0.5c0.2,0,0.3,0,0.4,0c-0.1-0.8-0.3-1.5-0.4-2.3
					c0,0,0.1,0,0.1,0.1c1.2,0.4,1.9,0,2.1-1.3c0.1-0.5,0.1-1.3,0.5-1.6c0.5-0.4,0.4-0.9,0.3-1.3c0-0.4-0.3-0.8-0.5-1.4
					c-0.8,0.4-1.5,0.8-2.2,1.2c0.1,0.7,1.6,0.9,0.7,2c-0.4-0.1-0.8-0.2-1.3-0.4c0.2,0.3,0.3,0.5,0.5,0.8c-0.3-0.1-0.4-0.1-0.6-0.1
					c-0.1,0.1-0.2,0.2-0.3,0.4c0.4,0.2,0.8,0.4,1.2,0.5c-0.1,0.1-0.1,0.2-0.2,0.2c-0.2,0-0.5,0.1-0.6,0c-0.3-0.3-0.6-0.7-0.9-1
					c-0.5-0.8,0.4-1.5,0-2.2c0.1-0.1,0.2-0.1,0.2-0.2c0.1,0.2,0.2,0.4,0.2,0.6c0,0,0.1-0.1,0.1-0.1c0-0.2,0-0.4,0-0.6
					c-0.3-0.1-0.7-0.1-0.5-0.7c0.1-0.7,0-1.4-0.1-2.1c-0.1-0.3-0.4-0.7-0.6-1c-0.3-0.5-0.2-1.2-1-1.5c-0.1,0-0.1-0.3-0.2-0.5
					c-0.1-0.5-1-1.3-1.4-1.3c-0.6,0-0.9-0.2-0.8-1.1c-0.4,1-0.9,0.4-1.5,0.4c0.1-0.5,0.2-1.1,0.3-1.8c0.8,0.7,1.6,0.1,2-1.2
					c-0.4-0.3-0.7-0.8-1.2-0.8c-0.7-0.1-1.4-0.1-2-0.4c-0.8-0.3-1.5,0.1-1.5,0.9c0,0.7,0.4,1.3,1,1.6c0.2,0.1,0.3,0.3,0.5,0.5
					c-0.4,0.2,0,1.1-0.7,0.9c-0.7-0.1-1.2,0-1.7,0.4c0,0-0.2,0-0.3,0c0.2-0.5,0.2-0.5-0.6-1.1c0,0.3,0,0.9-0.1,0.9
					c-0.5,0.1-0.6,0.8-1.1,0.9c-0.2,0.1-0.3,0.3-0.4,0.3c-0.3,0-0.7-0.1-1-0.2c0.3,0.7,0.6,1.4-0.4,1.7c-0.1,0.1-0.2,0.3-0.3,0.5
					c-0.1,0-0.3-0.1-0.6-0.2c0.3,0.4,0.5,0.7,0.7,1c0,0.1,0,0.3-0.1,0.3c-0.6,0.3-0.6,0.5-0.3,0.9c-0.1,0.6-0.3,1.2-0.4,1.7
					c0,0-0.2,0.1-0.3,0.1c0.6,0.7,1.1,1.4,1.5,2c-0.1,0.3-0.2,0.6-0.3,0.9c-0.5-0.1-0.9,0-1.1,0.6c0,0.1-0.3,0.3-0.4,0.3
					c-0.5,0.1-1,0.2-1.5,0.3c0.5-1.4,0.7-1.7,1.3-1.3c0.1-0.2,0.1-0.5,0.2-0.7c-0.1,0-0.2-0.1-0.2-0.1c0,0.2-0.1,0.3-0.1,0.5
					c-0.5-0.4-0.8-1-1.4-0.5c0.3,0.1,0.6,0.2,0.9,0.4c-0.5,0.3-0.9,0.5-1.3,0.8c0,0-0.1-0.1-0.1-0.1c0.2-0.2,0.3-0.5,0.4-0.7
					c-0.2,0-0.5-0.1-0.7-0.1c-0.3,0.1-0.6,0.2-0.9,0.4c-0.1,0,0,0.3,0,0.3c0.2,0.1,0.5,0.1,0.7,0.1c0,0,0,0.1,0.1,0.1
					c-0.2,0.1-0.4,0.2-0.8,0.4c0.6,0.3,1,0.5,1.5,0.8c-0.2,0.3-0.4,0.6-0.6,0.9c0.2,0.2,0.5,0.5,0.6,0.5c0.6-0.2,0.9,0.2,1.3,0.6
					c0-0.3-0.1-0.5-0.1-0.7c-0.1-0.5,0.4-1,0.5-1c0.8-0.1,1.2-0.6,1.6-1.1c0.2-0.2,0.4-0.4,0.7-0.5c0.1,0.1,0.1,0.1,0.2,0.2
					c-0.2,0.5-0.3,1-0.5,1.6C41.6,59.4,41.7,59.4,41.8,59.4z M55.6,47.2c-0.1,0-0.2,0-0.3-0.1c-0.2-0.1-0.3-0.3-0.5-0.4
					c-0.1-0.1-0.2-0.3-0.4-0.3c-0.2,0-0.4,0-0.5,0.2c-0.6,0.8-1.1,1.6-1.6,2.4C53.5,48.5,54.6,48,55.6,47.2z M43.4,47.3
					c0-0.1,0.1-0.1,0.1-0.2c-0.2-0.8-0.5-1.5-0.7-2.3c-0.1-0.5-0.4-0.6-0.9-0.3c-0.2,0.1-0.4,0.2-0.8,0.4
					C41.8,45.7,42.6,46.5,43.4,47.3z M51.9,61.1c0.4,0.4,0.8,0.9,1.2,1.3C52.9,61,52.8,60.9,51.9,61.1z M40.5,46.6
					c-0.3,0.4,0,1,0.9,1.4C41,47.5,41.5,46.6,40.5,46.6z M37.8,55.3c-0.4,0.1-0.8,0.2-1.3,0.3C37.5,56.1,37.6,56.1,37.8,55.3z
					 M51.4,62.5c-0.3,1-0.3,1,0.7,1C51.8,63.1,51.6,62.8,51.4,62.5z M40.4,48.5c0.1-0.1,0.2-0.1,0.3-0.2c-0.4-0.5-0.7-0.9-1.1-1.4
					c-0.1,0-0.1,0.1-0.2,0.1C39.8,47.6,40.1,48.1,40.4,48.5z M54.8,49.2c0,0.1,0,0.2,0,0.3c0,0.1,0,0.2-0.1,0.2
					c0.8,0.2,0.9,0.1,0.8-0.5C55.3,49.2,55.1,49.2,54.8,49.2z M56.5,50c-0.9,0.2-1.3,0.5-1.5,1.2C55.6,50.7,56,50.4,56.5,50z"/>
				<path class="st6" d="M41.8,59.4c-0.1,0-0.2,0-0.3,0c0.2-0.5,0.4-1,0.5-1.6c-0.1-0.1-0.1-0.1-0.2-0.2c-0.2,0.2-0.5,0.3-0.7,0.5
					c-0.4,0.5-0.9,1-1.6,1.1c-0.1,0-0.6,0.5-0.5,1c0,0.2,0.1,0.3,0.1,0.7c-0.5-0.3-0.8-0.8-1.3-0.6c-0.1,0-0.3-0.3-0.6-0.5
					c0.2-0.3,0.4-0.7,0.6-0.9c-0.4-0.2-0.9-0.5-1.5-0.8c0.4-0.2,0.6-0.3,0.8-0.4c0-0.1,0-0.1-0.1-0.1c-0.2,0-0.5-0.1-0.7-0.1
					c0,0,0-0.3,0-0.3c0.3-0.2,0.6-0.3,0.9-0.4c0.2,0,0.5,0.1,0.7,0.1c-0.1,0.2-0.3,0.5-0.4,0.7c0,0,0.1,0.1,0.1,0.1
					c0.4-0.3,0.8-0.5,1.3-0.8c-0.3-0.1-0.7-0.3-0.9-0.4c0.5-0.5,0.8,0.1,1.4,0.5c0-0.2,0.1-0.3,0.1-0.5c0.1,0,0.2,0.1,0.2,0.1
					c-0.1,0.2-0.1,0.4-0.2,0.7c-0.7-0.3-0.9-0.1-1.3,1.3c0.5-0.1,1-0.2,1.5-0.3c0.2,0,0.4-0.2,0.4-0.3c0.1-0.7,0.6-0.7,1.1-0.6
					c0.1-0.3,0.2-0.5,0.3-0.9c-0.5-0.6-1-1.3-1.5-2c0.1,0,0.3-0.1,0.3-0.1c0.1-0.6,0.2-1.1,0.4-1.7c-0.3-0.4-0.3-0.5,0.3-0.9
					c0.1,0,0.1-0.3,0.1-0.3c-0.2-0.3-0.4-0.6-0.7-1c0.3,0.1,0.4,0.1,0.6,0.2c0.1-0.2,0.2-0.4,0.3-0.5c1-0.4,0.7-1,0.4-1.7
					c0.4,0.1,0.7,0.2,1,0.2c0.1,0,0.3-0.2,0.4-0.3c0.5-0.2,0.5-0.8,1.1-0.9c0.1,0,0.1-0.6,0.1-0.9c0.8,0.6,0.9,0.7,0.6,1.1
					c0.1,0,0.2,0.1,0.3,0c0.5-0.4,1-0.5,1.7-0.4c0.7,0.2,0.3-0.7,0.7-0.9c-0.2-0.2-0.3-0.4-0.5-0.5c-0.7-0.3-1-0.8-1-1.6
					c0-0.8,0.7-1.2,1.5-0.9c0.7,0.3,1.4,0.2,2,0.4c0.4,0.1,0.8,0.6,1.2,0.8c-0.4,1.3-1.2,2-2,1.2c-0.1,0.7-0.2,1.2-0.3,1.8
					c0.5,0,1.1,0.6,1.5-0.4c-0.1,0.9,0.2,1.1,0.8,1.1c0.5,0,1.3,0.8,1.4,1.3c0,0.2,0.1,0.5,0.2,0.5c0.7,0.3,0.7,1,1,1.5
					c0.2,0.3,0.5,0.6,0.6,1c0.1,0.7,0.3,1.4,0.1,2.1c-0.1,0.6,0.2,0.6,0.5,0.7c0,0.2,0,0.4,0,0.6c0,0-0.1,0.1-0.1,0.1
					c-0.1-0.2-0.2-0.4-0.2-0.6c-0.1,0.1-0.2,0.1-0.2,0.2c0.3,0.8-0.6,1.5,0,2.2c0.3,0.4,0.6,0.7,0.9,1c0.1,0.1,0.4,0,0.6,0
					c0.1-0.1,0.1-0.2,0.2-0.2c-0.4-0.2-0.8-0.4-1.2-0.5c0.1-0.1,0.2-0.2,0.3-0.4c0.2,0,0.3,0.1,0.6,0.1c-0.2-0.3-0.3-0.4-0.5-0.8
					c0.5,0.2,0.9,0.3,1.3,0.4c0.9-1-0.6-1.3-0.7-2c0.7-0.4,1.4-0.7,2.2-1.2c0.2,0.5,0.5,0.9,0.5,1.4c0,0.4,0.2,0.8-0.3,1.3
					c-0.4,0.3-0.4,1-0.5,1.6c-0.2,1.2-1,1.6-2.1,1.3c-0.1,0-0.1-0.1-0.1-0.1c0.1,0.7,0.2,1.5,0.4,2.3c-0.1,0-0.2,0-0.4,0
					c0,0.2,0.1,0.3,0.1,0.5c-0.5,0-1.1,0-1.6,0c-0.1-0.3-0.2-0.6-0.3-0.9c0.3,0,0.5,0.1,0.8,0.1c-0.6-0.1-0.8-1-1.6-0.8
					c-0.1,0-0.2-0.3-0.4-0.4c-0.2-0.1-0.4-0.2-0.5-0.3c0,0-0.1,0.3-0.2,0.4c-0.2,0.2-0.4,0.4-0.7,0.6c0,0-0.1-0.1-0.1-0.1
					c0,0.4-0.1,0.8,0,1.1c0.2,0.5-0.1,0.6-0.5,0.7c-0.6,0.1-0.7-0.2-0.7-0.6c0-0.1,0-0.2,0-0.3c-0.2,0.2-0.3,0.4-0.5,0.7
					c-0.3-0.4-0.5-0.7-0.9-1.1c0.3,1.7-0.5,2.5-1.7,2.6c-0.1-0.4-0.3-0.8-0.4-1.4c-0.4,0.2-0.7,0.3-1.2,0.5c0.1-0.4,0.1-0.7,0.2-1.1
					c-0.1-0.3-0.9-0.3-0.7-1.1c-0.3-0.3-0.7-0.5-1-0.8c-0.2,0.2-0.4,0.5-0.5,0.7c-0.1,0-0.1-0.1-0.2-0.1c0-0.6,0-1.3,0-1.9
					c-0.1,0-0.1,0-0.2-0.1C42.1,59,42,59.2,41.8,59.4C41.8,59.4,41.8,59.4,41.8,59.4z"/>
				<path class="st6" d="M55.6,47.2c-1,0.8-2.1,1.3-3.3,1.7c0.6-0.8,1.1-1.6,1.6-2.4c0.1-0.1,0.4-0.2,0.5-0.2c0.1,0,0.2,0.2,0.4,0.3
					c0.2,0.1,0.3,0.3,0.5,0.4C55.4,47.2,55.5,47.2,55.6,47.2z"/>
				<path class="st6" d="M43.4,47.3c-0.8-0.8-1.6-1.6-2.3-2.4c0.4-0.2,0.6-0.3,0.8-0.4c0.4-0.3,0.7-0.2,0.9,0.3
					c0.2,0.8,0.5,1.5,0.7,2.3C43.5,47.2,43.4,47.3,43.4,47.3z"/>
				<path class="st6" d="M41.8,59.4c0.2,0.2,0.5,0.5,0.5,0.7c0,0.4-0.2,0.8-0.3,1.2c-0.5-0.3-1.4-0.1-1.2-1.2c0.1,0,0.3,0,0.5,0
					C41.5,59.9,41.6,59.7,41.8,59.4C41.8,59.4,41.8,59.4,41.8,59.4z"/>
				<path class="st6" d="M51.9,61.1c0.9-0.2,1,0,1.2,1.3C52.8,61.9,52.4,61.5,51.9,61.1z"/>
				<path class="st6" d="M40.5,46.6c1,0,0.4,0.9,0.9,1.4C40.6,47.6,40.3,47,40.5,46.6z"/>
				<path class="st6" d="M37.8,55.3c-0.2,0.8-0.3,0.9-1.3,0.3C36.9,55.5,37.3,55.4,37.8,55.3z"/>
				<path class="st6" d="M51.4,62.5c0.2,0.3,0.4,0.6,0.7,1C51.1,63.5,51.1,63.5,51.4,62.5z"/>
				<path class="st6" d="M40.4,48.5c-0.3-0.5-0.6-1-0.9-1.5c0.1,0,0.1-0.1,0.2-0.1c0.4,0.5,0.7,0.9,1.1,1.4
					C40.6,48.4,40.5,48.5,40.4,48.5z"/>
				<path class="st6" d="M54.8,49.2c0.3,0,0.5,0,0.8,0c0.1,0.6-0.1,0.7-0.8,0.5c0-0.1,0-0.2,0.1-0.2C54.7,49.4,54.7,49.3,54.8,49.2z
					"/>
				<path class="st6" d="M56.5,50c-0.5,0.4-1,0.8-1.5,1.2C55.2,50.5,55.6,50.2,56.5,50z"/>
			</g>
		</g>
		
			<radialGradient id="SVGID_00000039828345537197626540000016779253238030490776_" cx="47.3313" cy="53.6206" r="12.8554" gradientUnits="userSpaceOnUse">
			<stop  offset="0" style="stop-color:#1D1D1B"/>
			<stop  offset="0.2536" style="stop-color:#1D201F;stop-opacity:0.9272"/>
			<stop  offset="1" style="stop-color:#2580A1;stop-opacity:0"/>
		</radialGradient>
		<circle style="fill:url(#SVGID_00000039828345537197626540000016779253238030490776_);" cx="47.3" cy="53.6" r="12.9"/>
		<circle class="st8" cx="47.3" cy="53.6" r="5.6"/>
		<g>
			<g>
				<path class="st9" d="M19.8,63.7c-0.5-0.3-1.1-0.6-1.4-1.1c-0.5-0.6-0.2-1.2,0.4-1.7c0.5,0.3,0.9,0.8,1.4,1
					c0.3,0.1,0.8,0.1,1-0.1c0.4-0.3,0.7-0.8,0.3-1.4c-0.4-0.5-0.8-1.1-1.3-1.5c-0.4-0.4-1-0.7-1.6-1.1c0,0.5,0,0.9,0,1.4
					c0,1.6-1,2.7-2.7,2.7c-2.2,0-5.3-1.9-5.8-4.2c-0.3-1.1-0.2-2.3,0.4-3.3c0.8-1.2,2.5-1.5,3.5-0.4c0.5,0.5,0.6,1.5,0.3,2.1
					c-0.3,0.7-0.7,1-1.5,0.9c0.1-0.2,0.3-0.4,0.3-0.6c0-0.4,0-1-0.3-1.3c-0.1-0.2-0.8-0.4-1-0.3c-0.4,0.2-0.8,0.7-0.8,1.1
					c0,0.7,0.3,1.4,0.6,2c0.9,1.2,2.2,2,3.7,2.4c1,0.2,1.8-0.1,2.1-0.9c0.3-0.7-0.1-1.7-0.9-2.2c-0.1-0.1-0.3-0.1-0.4-0.2
					c-0.3-0.2-1-0.2-0.7-0.9c0.3-0.7,0.8-1,1.5-0.7c1.9,0.7,3.7,1.7,5,3.4c1,1.4,1,3-0.1,4.2c-0.3,0.3-0.7,0.5-1.1,0.7
					C20.4,63.7,20.1,63.7,19.8,63.7z"/>
				<path class="st9" d="M90,46.8c-1,1-1.9,2-2.9,3c-0.6,0.6-1.2,1.2-0.9,2.2c-0.9-0.4-1.5-1.1-1.3-1.7c0.2-0.5,0.5-1,0.9-1.4
					c0.7-0.7,1.4-1.3,2.1-2c0.2-0.2,0.2-0.5,0.3-0.7C88,46.1,87.7,46,87.5,46c-1.2,0-2.1,0.6-3,1.3c-0.6,0.5-1.1,1.2-1.7,1.8
					c-0.1-0.1-0.1-0.3-0.3-0.4c-0.7-0.5-0.8-0.9-0.2-1.5c0.2-0.3,0.5-0.5,0.7-0.7c1.3-1.1,2.6-2.2,3.9-3.2c0.3,0.4,0,1.1-0.5,2
					c1.3-0.1,2.6-0.6,3.6,0.6C90,46.2,90,46.5,90,46.8z"/>
				<path class="st9" d="M47.3,38.8c-0.7,0.3-1.1-0.4-1.7-0.8c-0.2,0.4-0.5,0.9-0.7,1.2c-0.9,1.3-2.6,1.3-3.4,0c-1-1.8-1-3.6,0-5.4
					c0.5-0.7,1.4-1.2,2.5-1.2c-0.2,0.2-0.2,0.4-0.4,0.6c-1.4,1.2-1.6,2.8-1,4.4c0.1,0.4,0.6,0.9,1,1c0.6,0.1,0.9-0.5,1-1
					c0.1-0.8,0.2-1.6,0.1-2.4c-0.3-2.5-1-5-2-7.3c0.9-0.2,1.6,0.1,2,1.1c0.4,1,0.6,2.1,0.9,3.1C46.2,34.3,46.7,36.5,47.3,38.8z"/>
				<path class="st9" d="M78.7,37.2c1.3,0.2,1.6,0.9,1.1,1.9c-0.8,1.6-1.7,3.3-2.5,5c-0.1,0.2-0.1,0.3-0.2,0.6
					c-0.9-0.6-1-1.5-0.8-2.5c-0.4,0.2-0.7,0.4-1,0.5c-0.7,0.3-1.4,0.5-2-0.1c-0.6-0.5-0.4-1.2-0.3-1.9c0.1-0.5,0.4-1,0.7-1.4
					c0.6-1.1,1.3-2.3,1.9-3.4c1,0.1,1.5,1,1,2c-0.4,0.7-0.8,1.3-1.2,1.9c-0.2,0.3-0.4,0.7-0.6,1c-0.1,0.2,0,0.5,0,0.7
					c0.2,0,0.5,0,0.7-0.1c1.4-0.8,2.3-2.1,3-3.5C78.5,37.7,78.6,37.5,78.7,37.2z"/>
				<path class="st9" d="M65.4,34.1c-0.5,0-0.8,0.1-1.1,0.1c-0.1-1,0.2-1.4,1.1-1.5c0.2,0,0.5-0.2,0.7-0.4c0.5-0.7,0.9-1.5,1.5-2.1
					c0.9-1.1,2.3-1.2,3.3-0.5c0.7,0.5,0.8,1.4,0.3,2.1c-0.4,0.6-1.2,0.7-1.9,0.2c0.2-0.2,0.4-0.4,0.5-0.7c0.1-0.3,0-0.6,0-0.9
					c-0.3,0-0.6,0-0.8,0.1c-0.8,0.6-1.2,1.5-1.6,2.5c0.5,0,0.9,0,1.3,0c0.2,1.1-0.1,1.4-1.1,1.3c-0.6-0.1-0.8,0.2-1,0.7
					c-0.5,2-1.3,3.9-1.2,5.9c-0.8-0.2-1.3-0.7-1.2-1.6c0.2-1.5,0.5-2.9,0.8-4.4C65.2,34.7,65.3,34.5,65.4,34.1z"/>
				<path class="st9" d="M19.7,47.5c0-0.6-0.2-1.3,0.7-1.5c0.1,0,0.2-0.3,0.3-0.5c0.5-1,1.4-1.3,2.5-0.9c1.8,0.6,3.3,2.8,3.3,4.6
					c0,1.8-1.8,3-3.5,2.5C21.2,51.4,19.7,49.4,19.7,47.5z M25.2,49.4c0-1.2-1.8-3.3-3-3.4c-0.6-0.1-1.1,0.6-1,1.2
					c0.2,1.4,1,2.5,2.3,3.2C24.3,50.9,25.2,50.3,25.2,49.4z"/>
				<path class="st9" d="M57.6,34.5c0.3,0.2,0.7,0.4,0.7,0.5c0,0.4,0,1-0.2,1.1c-0.8,0.3-0.6,1-0.6,1.5c0,0.3,0.1,0.5,0.1,0.8
					c-1.2,0.6-1.7,0.1-1.9-1.8c-0.8,0-1.7,0-2.5,0c-1,0-1.3-0.5-0.9-1.5c0.6-1.2,1.2-2.5,1.8-3.7c0.3-0.8,0.6-1.6,0.8-2.4
					c1.2,0.5,1.5,1.1,1,2.2c-0.6,1.2-1.2,2.4-1.9,3.6c-0.1,0.1-0.1,0.3-0.2,0.4c0.1,0.1,0.2,0.1,0.2,0.1c2-0.3,2-0.3,2-2.3
					c0-0.1,0-0.3,0-0.4C57.3,32.3,57.5,32.5,57.6,34.5z"/>
				<path class="st9" d="M35.7,40.9c0,2.2-1.1,3.3-2,3.6c-1.2,0.3-2.4-0.1-3.3-1.3c-1-1.3-1.6-2.8-0.9-4.4c0.2-0.4,0.2-1,0.9-0.8
					c0.1,0,0.2-0.1,0.3-0.2c1.1-1.1,2.1-1.2,3.2-0.1C35.1,38.7,35.6,40,35.7,40.9z M34.4,42.1c-0.2-1.6-0.7-2.6-1.7-3.4
					c-0.7-0.6-1.4-0.3-1.6,0.5c-0.3,1.4,0,2.6,1,3.6c0.4,0.4,0.9,0.9,1.5,0.5C34.1,42.9,34.2,42.4,34.4,42.1z"/>
			</g>
		</g>
	</g>
</g>
</svg>
