<svg id="Laag_1" data-name="Laag 1" xmlns="http://www.w3.org/2000/svg" viewBox="0 0 100 100"><defs><style>.cls-1{fill:#0e100e;}.cls-2{fill:#fff;}.cls-3{fill:#c83178;}</style></defs><rect class="cls-1" width="100" height="100" rx="10.37"/><path class="cls-2" d="M79.39,41.46c2.54-4,9.31-3.44,9.5,1.72.11,3.39,0,6.8.06,10.2,0,1.08-.77.75-1.33.79s-1.27.1-1.26-.9c0-2.55,0-5.1,0-7.65.08-2.12-.16-4.37-2.37-4.55a3.49,3.49,0,0,0-4,2.57,8.62,8.62,0,0,0-.22,2c0,2.48-.06,5,0,7.44,0,1.11-.53,1.14-1.37,1.15s-1.26-.17-1.23-1.15c.07-2.77,0-5.55,0-8.32,0-2.45-.82-3.59-2.6-3.68a3.68,3.68,0,0,0-4,3.6c-.1,2.84-.05,5.7,0,8.54,0,.69-.16,1-.92,1-1.62,0-1.62.06-1.78-2a2.29,2.29,0,0,0-.42.31,5.26,5.26,0,0,1-4.57,2.07c-2.78-.06-4.67-1.6-4.82-4.34-.19-3.39-.12-6.8-.11-10.2,0-1.21,1-.63,1.61-.73s1,0,1,.79c0,2.85,0,5.69,0,8.54,0,2.19.75,3.3,2.44,3.68A3.89,3.89,0,0,0,67.48,50,7.52,7.52,0,0,0,68,47.45q.11-3.44,0-6.88c0-1,.22-1.34,1.23-1.28.83.06,1.64-.06,1.4,1.18a3.82,3.82,0,0,0,.09.66C72.92,38.21,77.66,37.74,79.39,41.46Z"/><path class="cls-2" d="M11.34,43.84c0-3.07,0-6.14,0-9.21,0-.81.23-1.1,1.08-1.09,2.81.05,5.63,0,8.45.05a6,6,0,0,1,5.85,8.14,5.24,5.24,0,0,1-4.43,3.88,47.86,47.86,0,0,1-6.88.24c-1.15,0-1.46.33-1.41,1.44.08,2,0,3.92,0,5.88,0,1.13-.64,1-1.36,1s-1.37.08-1.34-1C11.38,50.05,11.34,46.94,11.34,43.84Zm6.5-.27v0c1,0,1.93.05,2.89,0,5-.12,4.94-7.44,0-7.59-2-.09-3.92,0-5.88-.05-.62,0-.87.23-.86.85q0,3,0,6c0,.61.23.88.85.86C15.85,43.56,16.85,43.57,17.84,43.57Z"/><path class="cls-2" d="M44.89,41.77c1.12-2.08,3-2.6,5.1-2.45.71,0,.86-.29.88-.93,0-4.52,1.23-5.16,5.65-5.07.44.14,1.21.25,1.23.45.13,1.47-1.44,1.56-2.54,1.49-1.57,0-1.82.78-1.77,2.17,0,2.17-.11,1.9,1.81,1.87.74,0,1.15.11,1.15,1,0,1.17-.87,1-1.65,1-1-.15-1.36.21-1.34,1.27.07,3.44,0,6.88,0,10.31,0,.43-.14,1.18-.36,1.23a4.63,4.63,0,0,1-2,0c-.14,0-.23-.64-.24-1,0-3.55,0-7.1,0-10.64,0-1-.31-1.19-1.21-1.18-3.05,0-4.87,1.77-5,5-.1,2.25-.09,4.51,0,6.76,0,1.1-.47,1.16-1.33,1.17S42,54.09,42,53q.09-6.27,0-12.53c0-1.07.44-1.21,1.33-1.2,1.91-.06,1.16,1,1.3,2.34Z"/><path class="cls-2" d="M39.72,54.24c-1.55,0-1.88-.3-2.39-2-.22.17-.42.3-.59.46-2.05,2-4.48,2.18-7,1.32A4,4,0,0,1,27,50a3.65,3.65,0,0,1,2.75-3.74,55.49,55.49,0,0,1,5.77-1.13c1.93-.28,2.42-2,1.3-3.41-1.16-1.18-2.61-1.09-4.06-.87A2.7,2.7,0,0,0,30.31,43a1.78,1.78,0,0,1-2.33.71,1,1,0,0,1-.11-.7,4.35,4.35,0,0,1,3-3.68,8.59,8.59,0,0,1,7.31.49,3.09,3.09,0,0,1,1.49,2C39.79,45.92,39.72,50.05,39.72,54.24Zm-2.5-7.72c-2.19.55-4.36.43-6.37,1.38A2.47,2.47,0,0,0,30.62,52c2.16,1.67,6.25,0,6.58-2.65A23.18,23.18,0,0,0,37.22,46.52Z"/><path class="cls-3" d="M15.58,61a2.09,2.09,0,0,1,.69,1.37h-.79a1.51,1.51,0,0,0-1.64-1.27,1.77,1.77,0,0,0-1.42.63,3,3,0,0,0-.53,1.92,2.87,2.87,0,0,0,.48,1.72,1.71,1.71,0,0,0,1.45.65,1.53,1.53,0,0,0,1.35-.69,2.67,2.67,0,0,0,.37-1h.79a2.7,2.7,0,0,1-.7,1.6,2.48,2.48,0,0,1-1.91.77A2.52,2.52,0,0,1,12,66.06a3.95,3.95,0,0,1-.23-4.79,2.52,2.52,0,0,1,2.08-.93A2.42,2.42,0,0,1,15.58,61Z"/><path class="cls-3" d="M20.69,60.51h.92l2.19,6h-.9l-.61-1.8H19.91l-.65,1.8h-.84ZM22,64.06l-.91-2.66-1,2.66Z"/><path class="cls-3" d="M26.13,60.51h2.41a2.24,2.24,0,0,1,1.9.88,3.29,3.29,0,0,1,.6,2,4.18,4.18,0,0,1-.35,1.73,2.21,2.21,0,0,1-2.16,1.37h-2.4Zm2.25,5.32a2,2,0,0,0,.66-.08,1.49,1.49,0,0,0,.77-.62,2.66,2.66,0,0,0,.34-.93,3.7,3.7,0,0,0,.06-.63,3,3,0,0,0-.44-1.74,1.6,1.6,0,0,0-1.4-.62H27v4.62Z"/><path class="cls-3" d="M33.79,60.51h4.37v.74H34.58v1.83h3.31v.69H34.58v2h3.64v.72H33.79Z"/><path class="cls-3" d="M42.62,60.51h.92l2.18,6h-.89l-.61-1.8H41.84l-.65,1.8h-.84ZM44,64.06,43,61.4l-1,2.66Z"/><path class="cls-3" d="M48.9,60.51v3.72a2.12,2.12,0,0,0,.25,1.09,1.3,1.3,0,0,0,1.24.66,1.46,1.46,0,0,0,1.42-.71,2.19,2.19,0,0,0,.2-1V60.51h.83v3.38a3.91,3.91,0,0,1-.3,1.71,2.53,2.53,0,0,1-4.16,0,3.91,3.91,0,0,1-.3-1.71V60.51Z"/><path class="cls-3" d="M55.64,60.51h.79v3l3-3h1.14L58,62.94l2.63,3.59H59.57l-2.16-3-1,.93v2.1h-.79Z"/><path class="cls-3" d="M64.54,60.51h.92l2.19,6h-.89l-.61-1.8H63.76l-.65,1.8h-.84Zm1.34,3.55L65,61.4l-1,2.66Z"/><path class="cls-3" d="M71.7,60.51h.92l2.18,6h-.89l-.61-1.8H70.92l-.65,1.8h-.84ZM73,64.06l-.92-2.66-1,2.66Z"/><path class="cls-3" d="M77.2,60.51h2.74a2.72,2.72,0,0,1,1.11.2,1.42,1.42,0,0,1,.84,1.42,1.61,1.61,0,0,1-.23.89,1.66,1.66,0,0,1-.62.55,1.27,1.27,0,0,1,.53.38,1.39,1.39,0,0,1,.2.76l0,.8a2.75,2.75,0,0,0,.06.52.54.54,0,0,0,.26.37v.13h-1a1.67,1.67,0,0,1-.06-.2,3.13,3.13,0,0,1,0-.48l-.05-1a.84.84,0,0,0-.43-.79,1.78,1.78,0,0,0-.71-.11H78v2.58H77.2Zm2.65,2.76a1.51,1.51,0,0,0,.88-.23,1,1,0,0,0,.33-.83.89.89,0,0,0-.46-.88,1.48,1.48,0,0,0-.65-.12H78v2.06Z"/><path class="cls-3" d="M89,60.51v.72h-2v5.3H86.1v-5.3h-2v-.72Z"/></svg>