<svg id="Laag_1" data-name="Laag 1" xmlns="http://www.w3.org/2000/svg" viewBox="0 0 100 100"><defs><style>.cls-1{fill:#00303e;}.cls-2{fill:#00e25e;}</style></defs><rect class="cls-1" width="100" height="100" rx="10.37"/><path class="cls-2" d="M54.54,33.17,44.48,23.11c0,.34,0,.66,0,1,0,2.69,0,5.38,0,8.07,0,.8-.23,1.06-1,1.05-3.87,0-7.74,0-11.6,0-.75,0-1-.19-1-1q.06-5.41,0-10.85c0-.71.19-1,.94-1q18.22,0,36.46,0c.8,0,1,.29,1,1,0,3.58,0,7.17,0,10.76,0,.75-.22,1-1,1-3.34,0-6.68,0-10,0-.7,0-.9.21-.89.9,0,4.67,0,9.33,0,14,0,1-.29,1.22-1.21,1.21q-5.43-.06-10.86,0c-.85,0-1.13-.25-1.09-1.11.08-1.51-.35-3.19.18-4.49s2-2.23,3-3.3c2.15-2.18,4.33-4.33,6.49-6.5C54.1,33.64,54.32,33.4,54.54,33.17Z"/><path class="cls-2" d="M83,71.12c1-3.17,1.9-6.17,2.77-9.19.22-.76.57-1.06,1.36-1s1.83,0,2.91,0c-.14.53-.22.87-.33,1.21-1.7,5.51-3.42,11-5.11,16.53-.21.67-.52.95-1.24.9-.95-.06-1.9,0-3,0l1.46-4.67c-.12-.08-.16-.14-.21-.14C80,74.65,80,74.65,79.6,73.18Q78,67.63,76.44,62.06c-.09-.31-.15-.63-.25-1.09,1.26,0,2.4,0,3.52,0,.23,0,.52.48.61.79.82,2.87,1.61,5.76,2.41,8.64C82.78,70.6,82.84,70.78,83,71.12Z"/><path class="cls-2" d="M15.45,67c0-2.16,0-4.33,0-6.49,0-.84-.27-1.07-1.07-1-1.2.06-2.41,0-3.62,0-.54,0-.79-.18-.77-.75,0-.75,0-1.49,0-2.23,0-.24.41-.63.63-.63,4.51,0,9,0,13.55,0,.2,0,.4.37.59.58,0,0,0,.12,0,.19.09,2.84.09,2.83-2.74,2.85-.85,0-2-.21-2.47.24s-.19,1.56-.19,2.39c0,3.8,0,7.6,0,11.41,0,1-.31,1.28-1.23,1.18a7.77,7.77,0,0,0-1.67,0c-.9.1-1.11-.32-1.09-1.13C15.47,71.41,15.45,69.22,15.45,67Z"/><path class="cls-2" d="M42.7,73.41A5.2,5.2,0,0,1,38,75,4.56,4.56,0,0,1,34,70.5c-.06-2.94,0-5.87,0-8.81,0-.58.25-.72.77-.76,2.91-.19,2.91-.2,2.91,2.69v4.82c0,.18,0,.37,0,.55.07,1.63,1,2.66,2.38,2.65a2.55,2.55,0,0,0,2.48-2.7c0-2.22,0-4.45,0-6.67,0-1.33,0-1.33,1.31-1.33,2.35,0,2.35,0,2.35,2.31,0,3.49,0,7,0,10.47,0,.75-.18,1.1-1,1a7,7,0,0,0-1.29,0C43,74.79,42.34,74.7,42.7,73.41Z"/><path class="cls-2" d="M59.18,64.7c-1,.22-2,.45-3,.62-.13,0-.36-.19-.46-.34a2.36,2.36,0,0,0-3-1.14,1.58,1.58,0,0,0-.94,1c0,.23.48.78.85.9,1,.34,2.09.52,3.13.8A4.48,4.48,0,0,1,59,68.66,4.15,4.15,0,0,1,57.43,74a7.48,7.48,0,0,1-8-.36A7.43,7.43,0,0,1,48,71.52c-.25-.45-.2-1,.56-1a4.21,4.21,0,0,0,1-.24c.84-.25,1.52-.44,2,.7s2.68,1.26,3.59.62.69-1.32-.24-1.67-1.78-.49-2.67-.73c-.39-.1-.78-.18-1.16-.31-2.07-.7-3-1.93-3-3.94a4,4,0,0,1,3-3.85,7.58,7.58,0,0,1,4.91,0A4.53,4.53,0,0,1,59.18,64.7Z"/><path class="cls-2" d="M66.19,56.87c0,1.22,0,2.2,0,3.18,0,.61.15.88.82.9,2,0,2,.07,1.94,2,0,1.3,0,1.3-1.38,1.31s-1.37,0-1.37,1.34,0,3,0,4.45c0,1,.33,1.33,1.32,1.37,1.65.07,1.65.07,1.65,1.73a2.82,2.82,0,0,1,0,.92c-.08.23-.33.57-.52.58a16.55,16.55,0,0,1-3.15,0c-2-.32-3-1.69-3.08-3.89,0-1.85,0-3.71,0-5.56,0-.7-.22-.91-.91-.91-1.33,0-1.33,0-1.33-1.31v-.75c0-1.25,0-1.29,1.28-1.27.71,0,1-.2,1-1,0-2.08,0-2.08,2-2.65Z"/><path class="cls-2" d="M74.88,65.4c0,2.72,0,5.44,0,8.16,0,.85-.2,1.2-1.13,1.19-2.66,0-2.66,0-2.66-2.62,0-5,0-10.07,0-15.11,0-.86.2-1.19,1.12-1.17,2.67,0,2.67,0,2.67,2.69Z"/><path class="cls-2" d="M27.75,60.94v1.5a4.14,4.14,0,0,1,3.74-1.51c.54,0,.81.2.75.77,0,.22,0,.44,0,.65,0,.68.21,1.55-.12,2s-1.22.28-1.86.39A3,3,0,0,0,28,67.8q-.07,3,0,5.93c0,.78-.27,1-1,1-2.77,0-2.77,0-2.77-2.69,0-3.31,0-6.62,0-9.92,0-1,.32-1.28,1.24-1.21C26.15,61,26.92,60.94,27.75,60.94Z"/></svg>