<svg id="Laag_1" data-name="Laag 1" xmlns="http://www.w3.org/2000/svg" viewBox="0 0 100 100"><defs><style>.cls-1{fill:#fd0;}.cls-2{fill:#009ee7;}.cls-3{fill:#f60073;}.cls-4{fill:#0a0;}</style></defs><rect class="cls-1" width="100" height="100" rx="10.37"/><path class="cls-2" d="M60.54,68.37l-.67-.15a6.91,6.91,0,0,1-5-3.74,7.18,7.18,0,0,1-.8-3.12,7.49,7.49,0,0,1,2.7-6.25,6.65,6.65,0,0,1,3.36-1.51,7.82,7.82,0,0,1,4.72.55,7.07,7.07,0,0,1,3,2.72,7.73,7.73,0,0,1,1,4.77,7.31,7.31,0,0,1-1.76,4.24,7,7,0,0,1-2.66,1.91,6.64,6.64,0,0,1-1.85.48,1.48,1.48,0,0,0-.27.1Zm5.33-6.76a12.46,12.46,0,0,0-.57-3.83,5.22,5.22,0,0,0-1.84-2.66,3.62,3.62,0,0,0-4.75.41A6.1,6.1,0,0,0,57.19,59a10.4,10.4,0,0,0,.39,4.7,5.74,5.74,0,0,0,1.8,2.8,3.54,3.54,0,0,0,3.9.55A3.78,3.78,0,0,0,65,65.32,9,9,0,0,0,65.87,61.61Z"/><path class="cls-2" d="M85.5,54.4a2.16,2.16,0,0,1-.34.17c-.24.07-.51.09-.75.17-.55.18-.68.64-.73,1.16-.35,3.21-.12,6.43-.18,9.64,0,.81,0,1.61,0,2.41,0,.21-.08.32-.3.31a1.92,1.92,0,0,1-.48,0,.74.74,0,0,1-.41-.21c-1.08-1.29-2.14-2.59-3.22-3.89l-3.22-3.89L73.61,57.5a1,1,0,0,0-.21-.18,1.48,1.48,0,0,0,0,.24c0,1.81,0,3.62,0,5.43q0,1.44.15,2.88a1.44,1.44,0,0,0,1.65,1.33.46.46,0,0,1,.43.7.5.5,0,0,1-.36.15c-1.33,0-2.66,0-4,0h-.69a.27.27,0,0,1-.32-.3.76.76,0,0,1,0-.34.45.45,0,0,1,.26-.21c.13,0,.27,0,.4,0,.85-.21,1.12-.57,1.2-1.46.3-3.08.11-6.17.15-9.25a1.91,1.91,0,0,0-1.75-1.84l-.13,0a.44.44,0,1,1-.1-.88c1.06,0,2.12,0,3.18,0a.8.8,0,0,1,.48.23c.64.73,1.26,1.48,1.89,2.21l3.23,3.75,3.06,3.61a1.22,1.22,0,0,0,.19.12c0-.08.09-.15.09-.23,0-1.52,0-3.05,0-4.57,0-1-.09-2.05-.17-3.07a1.21,1.21,0,0,0-1.15-1.11c-.25-.05-.51-.07-.77-.1s-.3-.13-.26-.51c0-.2.07-.34.34-.34h4.76c.23,0,.31.13.36.31Z"/><path class="cls-3" d="M24.22,40l.47.1a6.7,6.7,0,0,1,2.95,1.16,3.45,3.45,0,0,1,1.41,2.78,4.37,4.37,0,0,1-2.35,4.09,8,8,0,0,1-3.41,1.07c-2.65.28-5.3.07-7.95.14-.16,0-.32,0-.48,0s-.37-.1-.36-.35,0-.22,0-.32.11-.3.32-.31a7.79,7.79,0,0,0,1-.09,1.22,1.22,0,0,0,1-1,7.28,7.28,0,0,0,.07-.93q0-5.67,0-11.32a5.69,5.69,0,0,0-.06-.83,1.12,1.12,0,0,0-1-1.12c-.26,0-.52-.08-.77-.11s-.29-.11-.28-.31c0-.72-.07-.64.62-.63,2.18,0,4.36,0,6.54,0a16.32,16.32,0,0,1,3.05.27,3.7,3.7,0,0,1,2.26,6,4.86,4.86,0,0,1-2.72,1.53l-.25.06ZM20,44.26c0,.6,0,1.66.09,2.7a1.36,1.36,0,0,0,1.18,1.27,4.15,4.15,0,0,0,.93.05,3.28,3.28,0,0,0,3.07-2.16,4.88,4.88,0,0,0,.2-2.34,3.07,3.07,0,0,0-2.09-2.66,8.48,8.48,0,0,0-3.16-.42c-.19,0-.22.12-.22.28Zm.81-4.6a5,5,0,0,0,2.09-.32,2.46,2.46,0,0,0,1.67-1.89,5.17,5.17,0,0,0,0-2.18,2.59,2.59,0,0,0-.69-1.33,3.29,3.29,0,0,0-3.33-.73.58.58,0,0,0-.46.53c0,.2,0,.41,0,.61l0,5c0,.2.09.27.27.28Z"/><path class="cls-3" d="M71.73,32c1.16,0,2.31,0,3.46,0,.21,0,.32.09.31.3v0c0,.58,0,.58-.57.65a3.55,3.55,0,0,0-.47.08,1.14,1.14,0,0,0-1.06,1.18c-.05.65-.05,1.31-.06,2,0,1.2,0,2.39,0,3.59,0,.23.12.31.33.17a11.22,11.22,0,0,0,1.41-1.05,35.09,35.09,0,0,0,4.22-4.65,4.52,4.52,0,0,0,.34-.51.38.38,0,0,0-.23-.6,7.3,7.3,0,0,0-.81-.18.56.56,0,0,1-.42-.86c0-.08.24-.12.37-.12h6c.3,0,.35.05.36.36v.21c0,.26-.11.36-.36.41A11.36,11.36,0,0,0,83,33.3a6.88,6.88,0,0,0-2.59,1.8c-1.24,1.22-2.46,2.46-3.69,3.69a.28.28,0,0,0,0,.44c1.13,1.47,2.23,3,3.38,4.42q1.35,1.73,2.78,3.39a3.53,3.53,0,0,0,2.26,1.36.31.31,0,0,1,.28.31V49c0,.24-.11.34-.34.34-1.46,0-2.91,0-4.36,0a.72.72,0,0,1-.48-.29c-.63-.77-1.24-1.56-1.84-2.36-1.24-1.64-2.45-3.29-3.7-4.92a4.89,4.89,0,0,0-.81-.76.48.48,0,0,0-.39-.05c-.07,0-.08.23-.08.36,0,1.59,0,3.19,0,4.79a9.42,9.42,0,0,0,.06,1.06,1.22,1.22,0,0,0,1.08,1.12l.85.1c.31,0,.39.15.36.61,0,.27-.12.36-.41.36l-6.72,0-.22,0c-.07,0-.16,0-.2,0-.22-.21-.11-.47-.09-.71,0-.08.19-.19.3-.21.28-.06.57-.06.85-.12a1.07,1.07,0,0,0,.91-.87,5.67,5.67,0,0,0,.11-1q0-5.69,0-11.37a6.32,6.32,0,0,0-.12-1.15,1,1,0,0,0-.75-.78c-.34-.08-.68-.13-1-.18s-.41-.1-.41-.45c0-.51,0-.51.53-.51h3.29Z"/><path class="cls-3" d="M49.58,40.39a9.33,9.33,0,0,1-1.77,5.89,8.13,8.13,0,0,1-3,2.49,9.14,9.14,0,0,1-3.88.95,9.4,9.4,0,0,1-4.1-.67,8.45,8.45,0,0,1-4.79-5.17A9.3,9.3,0,0,1,31.75,39a8.57,8.57,0,0,1,4.65-6.33,9.41,9.41,0,0,1,4.84-1,8.42,8.42,0,0,1,7.37,4.6A7.7,7.7,0,0,1,49.58,40.39Zm-14.36-.53a11.92,11.92,0,0,0,.69,4.54,6.59,6.59,0,0,0,2.37,3.35,4.27,4.27,0,0,0,4.69.4,4.92,4.92,0,0,0,2.38-3,13,13,0,0,0-.08-8.35,6.1,6.1,0,0,0-2.07-3,4.45,4.45,0,0,0-3.69-.93,4.69,4.69,0,0,0-3.32,2.75A9.1,9.1,0,0,0,35.22,39.86Z"/><path class="cls-3" d="M57.91,49.35H51.78c-.54,0-.56,0-.55-.54,0-.33.08-.38.4-.41s.78-.08,1.16-.15a1.18,1.18,0,0,0,.94-1,5,5,0,0,0,.07-.87c0-3.73,0-7.46,0-11.19a9.2,9.2,0,0,0-.06-1c-.07-.64-.48-1-1.24-1.1l-.61-.07a.31.31,0,0,1-.33-.36c0-.58,0-.59.56-.59H63.57c.33,0,.39.06.42.38l.24,3.19c0,.4,0,.45-.4.5l-.13,0c-.39.06-.42,0-.54-.36a12.27,12.27,0,0,0-.63-1.55,1.69,1.69,0,0,0-1.51-1c-1.2-.06-2.41-.06-3.61-.06-.27,0-.42.15-.45.43a5.23,5.23,0,0,0,0,.56c0,1.78,0,3.57,0,5.35,0,.2.07.31.27.31,1,0,2,0,3,0s1.41-.45,1.61-1.48c.1-.49.37-.66.85-.49a.36.36,0,0,1,.19.27c0,1.57,0,3.14,0,4.71a.31.31,0,0,1-.34.35c-.55,0-.62,0-.73-.57a1.55,1.55,0,0,0-.63-1.16,2.41,2.41,0,0,0-.88-.25,13.3,13.3,0,0,0-1.41-.06H57.3c-.33,0-.36,0-.36.35,0,1.54,0,3.08,0,4.63a6.86,6.86,0,0,0,.12,1.19,1,1,0,0,0,.83.84,5.77,5.77,0,0,0,1.17.15c.89,0,1.78,0,2.66-.1a2.13,2.13,0,0,0,1.66-1,20.31,20.31,0,0,0,1.07-1.94.66.66,0,0,1,1-.17.29.29,0,0,1,0,.24c-.27,1.28-.55,2.56-.83,3.84,0,.23-.23.28-.43.28H57.91Z"/><path class="cls-2" d="M48.15,60.32l.65.18a4.82,4.82,0,0,1,2,.91,3,3,0,0,1,1,3.27,3.88,3.88,0,0,1-2.34,2.63,7.91,7.91,0,0,1-3.14.68c-1.67.05-3.35,0-5,.06h-1c-.28,0-.37-.09-.38-.36,0-.42,0-.48.36-.51a5.52,5.52,0,0,0,.71-.1,1,1,0,0,0,.87-1c0-.34,0-.67,0-1V56.38a7.75,7.75,0,0,0-.07-1,.73.73,0,0,0-.52-.65c-.31-.08-.62-.14-.94-.2s-.29-.12-.26-.53c0-.21.1-.32.34-.32,1.92,0,3.85,0,5.78,0a9.43,9.43,0,0,1,2.79.37,3.06,3.06,0,0,1,1.73,4.36,3.62,3.62,0,0,1-2.37,1.69l-.2.06S48.19,60.25,48.15,60.32ZM49,64.24a2.76,2.76,0,0,0-1.93-3,9,9,0,0,0-2.3-.26c-.18,0-.25.11-.25.28,0,.33,0,.65,0,1,0,1.22,0,2.43,0,3.64a1.14,1.14,0,0,0,1.23,1.22,3.87,3.87,0,0,0,.59,0,2.57,2.57,0,0,0,2-1A3,3,0,0,0,49,64.24Zm-4.46-6.6h0v2c0,.25.1.36.33.35.54,0,1.07-.07,1.6-.15a2.08,2.08,0,0,0,1.8-1.84,7.06,7.06,0,0,0,0-1.3A2.15,2.15,0,0,0,47,54.93a2.93,2.93,0,0,0-1.85-.17c-.38.09-.49.19-.55.58a2.69,2.69,0,0,0,0,.4Z"/><path class="cls-4" d="M35.74,54.84c0-.23,0-.47,0-.7s.09-.3.31-.3a7.15,7.15,0,0,0,.8,0c.21,0,.29.09.3.29s0,.32,0,.48q0,6.61,0,13.22c0,.09,0,.24-.1.28s-.22-.07-.29-.14c-1.27-1.5-9.07-10.85-9.18-10.93V58.6c0,3,0,6,0,9,0,.24-.08.33-.3.33h-.79c-.25,0-.28-.09-.29-.36s0-.53,0-.8c0-4.09,0-12.67,0-12.86s0-.19.09-.24.17,0,.22.11c.32.36.61.72.92,1.08,1.48,1.74,7.82,9.26,7.82,9.26l.54.6S35.74,57.83,35.74,54.84Z"/><path class="cls-4" d="M18.83,53.85h3.8c.58,0,.58,0,.58.59v.48c0,.2-.1.28-.28.28H17c-.21,0-.42,0-.64,0s-.29.07-.29.26c0,1.29,0,2.59,0,3.88,0,.19,0,.37,0,.56s0,.37.32.37H22c.36,0,.4,0,.4.39v.56c0,.31,0,.35-.32.35H16.48c-.41,0-.41,0-.41.44,0,1.07,0,2.15,0,3.23,0,.38,0,.75,0,1.12s.09.34.33.34h6.77c.23,0,.33.09.33.32s0,.46,0,.69-.12.34-.34.34H15c-.43,0-.46-.06-.44-.48,0-.77,0-1.54,0-2.3V54.65a3.93,3.93,0,0,0,0-.49c0-.23.06-.32.29-.32h3.94Z"/></svg>