<svg id="Laag_1" data-name="Laag 1" xmlns="http://www.w3.org/2000/svg" viewBox="0 0 100 100"><defs><style>.cls-1{fill:#fff;}.cls-2{fill:#a8a8a7;}.cls-3{fill:#d68000;}.cls-3,.cls-4{fill-rule:evenodd;}.cls-4{fill:#333e47;}</style></defs><rect class="cls-1" x="0.5" y="0.5" width="99" height="99" rx="9.87"/><path class="cls-2" d="M89.63,1A9.38,9.38,0,0,1,99,10.37V89.63A9.38,9.38,0,0,1,89.63,99H10.37A9.38,9.38,0,0,1,1,89.63V10.37A9.38,9.38,0,0,1,10.37,1H89.63m0-1H10.37A10.41,10.41,0,0,0,0,10.37V89.63A10.41,10.41,0,0,0,10.37,100H89.63A10.41,10.41,0,0,0,100,89.63V10.37A10.41,10.41,0,0,0,89.63,0Z"/><path class="cls-3" d="M82.31,62.39c-8.76,6.47-21.45,9.9-32.39,9.9A58.64,58.64,0,0,1,10.35,57.2c-.82-.74-.08-1.75.9-1.18a79.61,79.61,0,0,0,39.59,10.5A78.85,78.85,0,0,0,81,60.35c1.48-.63,2.72,1,1.27,2Z"/><path class="cls-3" d="M86,58.23c-1.12-1.43-7.41-.68-10.23-.34-.86.1-1-.65-.22-1.19,5-3.52,13.23-2.5,14.18-1.32s-.25,9.42-5,13.35c-.72.61-1.41.29-1.09-.51,1.06-2.64,3.43-8.55,2.31-10Z"/><path class="cls-4" d="M62.52,53.59V52.28c0-.37.18-.62.57-.6a8.52,8.52,0,0,0,2.47.06,2.87,2.87,0,0,0,2-1.79c.57-1.3.94-2.34,1.18-3l-7.18-17.8c-.13-.3-.16-.86.44-.86h2.51a.77.77,0,0,1,.78.6l5.21,14.46,5-14.46a.79.79,0,0,1,.79-.6h2.36c.6,0,.57.56.45.86L72,47.48c-.92,2.45-2.15,6.34-4.91,7a7.33,7.33,0,0,1-4.17-.2.8.8,0,0,1-.36-.7Z"/><path class="cls-4" d="M59.17,46.14a.6.6,0,0,1-.6.6H56.8a.69.69,0,0,1-.7-.6l-.17-1.2A10.43,10.43,0,0,1,53,46.65a7.28,7.28,0,0,1-6.52-.3,5.21,5.21,0,0,1-2.25-4.5A5.49,5.49,0,0,1,45.66,38,7.08,7.08,0,0,1,51.05,36a16.93,16.93,0,0,1,4.72.62V34.16c0-2.46-1-3.53-3.78-3.53a18.14,18.14,0,0,0-5.92,1,.55.55,0,0,1-.57-.59V29.66a.87.87,0,0,1,.59-.75,18,18,0,0,1,6.25-1.2c3.12,0,6.83.7,6.83,5.51V46.14Zm-3.4-3.54V38.94a19.3,19.3,0,0,0-3.92-.46,4.5,4.5,0,0,0-3.21,1,3,3,0,0,0-.74,2.07A2.78,2.78,0,0,0,49,44a4.54,4.54,0,0,0,3.67.17,8,8,0,0,0,3.08-1.58Z"/><path class="cls-4" d="M33.06,30.68c3.93,0,5,3.09,5,6.63,0,2.39-.42,4.51-1.65,5.73A4.49,4.49,0,0,1,32.9,44.2a8.49,8.49,0,0,1-4.57-1.73V32.36a8.13,8.13,0,0,1,4.73-1.68ZM27.73,54.22H25.36a.6.6,0,0,1-.6-.6V28.9a.6.6,0,0,1,.6-.6h1.82a.69.69,0,0,1,.69.6l.19,1.3a9.33,9.33,0,0,1,6-2.48c5.85,0,7.77,4.81,7.77,9.82,0,5.35-2.94,9.66-7.91,9.66a8.36,8.36,0,0,1-5.56-2.12v8.54a.6.6,0,0,1-.6.6Z"/></svg>