<svg id="Laag_1" data-name="Laag 1" xmlns="http://www.w3.org/2000/svg" viewBox="0 0 100 100"><defs><style>.cls-1{fill:#0a0;}.cls-2{fill:#fff;}</style></defs><rect class="cls-1" width="100" height="100" rx="10.37"/><path class="cls-2" d="M35.9,74.85l-.67.38-1.95,1.13-.86.5-1.12.64c-.67.38-1.33.79-2,1.15A1.12,1.12,0,0,1,28,78.09a1.52,1.52,0,0,1,0-1.2l.53-2c.17-.66.35-1.32.53-2,.09-.36.19-.72.27-1.08a6.83,6.83,0,0,0,.25-1,2.27,2.27,0,0,0-.25-1.3,2.55,2.55,0,0,0-.65-.7c-.46-.34-.92-.69-1.37-1s-.69-.58-1-.88-.62-.55-.92-.84-.79-.78-1.16-1.19-.59-.65-.87-1-.52-.64-.77-1c-.41-.53-.79-1.08-1.16-1.64-.08-.11-.15-.23-.22-.34-.4-.63-.77-1.29-1.12-2-.24-.48-.47-1-.68-1.44-.08-.19-.15-.37-.23-.55-.27-.67-.51-1.35-.72-2s-.35-1.28-.5-1.93-.24-1.33-.32-2a22.59,22.59,0,0,1,.08-6c.1-.65.22-1.29.37-1.93s.34-1.32.56-2,.48-1.34.75-2l0-.06c.31-.66.62-1.32,1-1.95a26.41,26.41,0,0,1,2.67-4l.35-.43c.45-.53.92-1,1.4-1.53l.54-.53c.5-.5,1-1,1.56-1.42l.48-.39a32,32,0,0,1,3.91-2.7c.54-.32,1.09-.62,1.64-.9l.38-.2c.65-.32,1.3-.62,2-.9a35,35,0,0,1,4-1.41c.71-.2,1.43-.39,2.15-.55s1.2-.26,1.8-.37,1.46-.24,2.2-.32c1.2-.15,2.4-.23,3.61-.27h1.9c1.41,0,2.82.15,4.22.33.66.09,1.32.19,2,.31s1.32.27,2,.43,1.33.33,2,.54a36.13,36.13,0,0,1,4,1.46c.66.29,1.3.61,2,.93l0,0c.65.35,1.3.7,1.93,1.09a30.78,30.78,0,0,1,4,2.82l.11.09c.62.54,1.24,1.08,1.82,1.67l.3.3c.47.47.91,1,1.35,1.49l-.77.34-.88.39-2,.87-1.72.77-.25.1-2,.89-4,1.77-3.95,1.76-2,.88-1.23.55-.77.34-2,.89-1.63.73-.33.15-2,.88-4,1.77-3,1.36a5.11,5.11,0,0,1-.93.32,3.38,3.38,0,0,1-2-.25c-.15-.07-.29-.16-.43-.24L39.27,46,38,45.08l-.75-.53-1.92-1.38-.05,0-1.4-1a1.89,1.89,0,0,0-.6-.26,1.12,1.12,0,0,0-1.15,1.33c.56,1.31,1.18,2.6,1.76,3.9l.93,2,.36.8c.18.39.36.77.53,1.16l.9,2,.57,1.26c.11.24.22.49.34.73a13,13,0,0,0,1,2.08,3.49,3.49,0,0,0,.62.47,2.25,2.25,0,0,0,2.11-.1l.68-.4,1.25-.72,4-2.29,1.71-1,.28-.16,2-1.14,1.12-.65.87-.5q1-.58,2-1.14l.6-.35,1.39-.81,4-2.29,1.51-.87.45-.26,2-1.15,1-.6.94-.53q2-1.17,4-2.32l1.87-1.09.15-.08L75,38l1.39-.81.56-.32c.63-.35,1.23-.74,1.88-1,.22.46.51.89.76,1.35.35.66.69,1.34,1,2,.09.19.17.39.25.59.19.46.36.92.51,1.39.21.64.39,1.28.55,1.92s.27,1.32.37,2a19,19,0,0,1,.2,2c0,.66.05,1.33,0,2s-.07,1.32-.14,2-.19,1.31-.32,2-.31,1.31-.5,2a24.09,24.09,0,0,1-1.61,4,25.94,25.94,0,0,1-2.51,4c-.17.22-.34.44-.52.65q-.54.66-1.11,1.29c-.28.29-.55.58-.83.86s-.84.8-1.27,1.19l-.69.59c-.56.47-1.15.93-1.75,1.36l-.27.19c-.65.46-1.31.89-2,1.3l-.8.47L67,71.5c-.65.34-1.32.65-2,.94l-1,.4L63,73.25c-.63.24-1.28.45-1.93.65s-1.37.38-2.06.55-1.18.26-1.77.39l-.13,0c-.66.11-1.32.22-2,.31s-1.32.16-2,.21-1.33.09-2,.1-1.33,0-2,0-1.32,0-2-.09-1.33-.11-2-.2S44,75,43.42,74.94l-.64-.11c-.51-.11-1-.21-1.53-.33-.68-.16-1.34-.34-2-.52a3.13,3.13,0,0,0-2,.13"/></svg>