<svg id="Laag_1" data-name="Laag 1" xmlns="http://www.w3.org/2000/svg" viewBox="0 0 100 100"><defs><style>.cls-1{fill:#1c3b6c;}.cls-2{fill:#e8a306;}.cls-3{fill:#aa8005;}.cls-4{fill:#ffc532;}.cls-5{fill:#edc865;}.cls-6{fill:#fff;stroke:#fff;stroke-miterlimit:10;stroke-width:0.75px;}</style></defs><rect class="cls-1" width="100" height="100" rx="10.37"/><circle class="cls-2" cx="50" cy="50" r="11.2"/><circle class="cls-3" cx="50" cy="50" r="9.06" transform="translate(-8.49 89.74) rotate(-79.19)"/><path class="cls-2" d="M59.06,50a9,9,0,0,0-4.28-7.69,9.06,9.06,0,0,0-8.6,15.9A9.05,9.05,0,0,0,59.06,50Z"/><path class="cls-3" d="M45.67,49.24a5.56,5.56,0,0,1,.63-1.62,5.29,5.29,0,0,1,1.13-1.36A5.48,5.48,0,0,1,51,45a5.06,5.06,0,0,1,2.66.68,4.25,4.25,0,0,1,1.67,1.75l-1.66,1.15a2.87,2.87,0,0,0-.53-.79,2.47,2.47,0,0,0-.68-.51,3,3,0,0,0-.75-.28,4.11,4.11,0,0,0-.77-.08,3,3,0,0,0-1.1.19,2.87,2.87,0,0,0-.87.5,3.4,3.4,0,0,0-.65.76,3.5,3.5,0,0,0-.4.91h4l-.47,1.17H47.72v.17a4.23,4.23,0,0,0,.05.63h3.67L51,52.37H48.1a3.57,3.57,0,0,0,1.15,1.42,2.81,2.81,0,0,0,1.73.55,3.68,3.68,0,0,0,.79-.09,3,3,0,0,0,.77-.3,2.89,2.89,0,0,0,.69-.53,2.63,2.63,0,0,0,.5-.77l1.77,1a3.34,3.34,0,0,1-.76,1.1,4.94,4.94,0,0,1-1.11.81,5.6,5.6,0,0,1-1.33.5,5.54,5.54,0,0,1-1.38.17,4.7,4.7,0,0,1-1.73-.31,5.56,5.56,0,0,1-2.61-2.07,6.54,6.54,0,0,1-.74-1.5H44.21l.48-1.16h.88a5.12,5.12,0,0,1,0-.69v-.11h-1.1l.47-1.17Z"/><path class="cls-4" d="M45.08,48.66A5.8,5.8,0,0,1,45.71,47a5.29,5.29,0,0,1,2.72-2.3,5.32,5.32,0,0,1,2-.35,5,5,0,0,1,2.65.67,4.21,4.21,0,0,1,1.67,1.76L53.09,48a2.67,2.67,0,0,0-.53-.79,2.47,2.47,0,0,0-.68-.51,3,3,0,0,0-.75-.28,4.11,4.11,0,0,0-.77-.08,3,3,0,0,0-1.1.19,2.7,2.7,0,0,0-.87.51,3.14,3.14,0,0,0-.65.75,3.77,3.77,0,0,0-.4.92h4l-.47,1.16H47.13V50a4.23,4.23,0,0,0,0,.63h3.67l-.47,1.16H47.51a3.65,3.65,0,0,0,1.15,1.42,2.83,2.83,0,0,0,1.73.55,3.61,3.61,0,0,0,.79-.09,2.68,2.68,0,0,0,.77-.3,2.84,2.84,0,0,0,.69-.52,2.61,2.61,0,0,0,.5-.78l1.77,1a3.24,3.24,0,0,1-.76,1.1A4.94,4.94,0,0,1,53,55a6.13,6.13,0,0,1-2.71.68,4.71,4.71,0,0,1-1.73-.32,5.61,5.61,0,0,1-1.47-.84A5.29,5.29,0,0,1,46,53.28a6.19,6.19,0,0,1-.75-1.5H43.62l.49-1.16H45a5.12,5.12,0,0,1,0-.69v-.11h-1.1l.47-1.16Z"/><path class="cls-5" d="M57.56,45a9.06,9.06,0,0,1-14.75,10.5A9.06,9.06,0,1,0,57.56,45Z"/><path class="cls-6" d="M64.49,17.5h-29a4.41,4.41,0,0,0-4.39,4.39V78.11a4.41,4.41,0,0,0,4.39,4.39h29a4.41,4.41,0,0,0,4.39-4.39V21.89a4.41,4.41,0,0,0-4.39-4.39ZM45.37,20.66h9.26a.54.54,0,0,1,.54.54.53.53,0,0,1-.54.52H45.37a.53.53,0,0,1-.54-.52.54.54,0,0,1,.54-.54ZM50,80.31a2.2,2.2,0,1,1,2.19-2.2A2.19,2.19,0,0,1,50,80.31Zm15.82-5.94H34.17V24.46H65.82Zm0,0"/><path class="cls-1" d="M50,80.65h0a2.54,2.54,0,1,1,2.53-2.54A2.53,2.53,0,0,1,50,80.65"/><path class="cls-1" d="M44.48,20.66H55.19a.62.62,0,0,1,.62.62.61.61,0,0,1-.62.61H44.48a.61.61,0,0,1-.62-.61.62.62,0,0,1,.62-.62"/></svg>