<svg width="100" height="100" viewBox="0 0 100 100" fill="none" xmlns="http://www.w3.org/2000/svg">
<rect width="100" height="100" rx="10" fill="#002B29"/>
<path d="M49.826 19.1678H36.8156C22.7324 19.1678 21.3093 30.4478 22.3582 36.0879L26.286 44.1852L33.516 47.3663H55.834C59.6584 46.4023 66.0119 42.0163 66.0119 32.1838C66.0119 22.3513 55.834 19.1678 49.826 19.1678Z" fill="#188571"/>
<path d="M22.1973 64.1221V32.5666C22.1973 44.7687 35.6595 46.9074 42.3906 46.4514H58.1599C74.4763 46.4514 78.1216 58.2319 77.9048 64.1221C77.9048 77.2834 64.2998 80.746 57.4974 80.8322H37.7645C24.1577 80.8322 21.7168 69.6922 22.1973 64.1221Z" fill="#209F86"/>
</svg>
