<svg width="100" height="100" viewBox="0 0 100 100" fill="none" xmlns="http://www.w3.org/2000/svg">
<rect width="100" height="100" rx="10" fill="#CC0066"/>
<rect x="11.5543" y="11.5543" width="76.8914" height="76.8914" rx="3.93642" fill="#CC0066"/>
<rect x="24.4534" y="64.2914" width="50.4879" height="3.93642" rx="0.524856" fill="white"/>
<rect x="22.6896" y="70.8826" width="54.0154" height="2.7445" rx="0.524856" fill="white"/>
<rect x="29.3592" y="36.8105" width="9.16094" height="3.58386" rx="0.524856" fill="white"/>
<rect x="29.3592" y="57.6323" width="9.16094" height="3.58386" rx="0.524856" fill="white"/>
<rect x="31.0172" y="36.8105" width="5.84507" height="24.4058" fill="white"/>
<rect x="45.0808" y="36.8105" width="9.16094" height="3.58386" rx="0.524856" fill="white"/>
<rect x="45.0808" y="57.6323" width="9.16094" height="3.58386" rx="0.524856" fill="white"/>
<rect x="46.7388" y="36.8105" width="5.84507" height="24.4058" fill="white"/>
<rect x="60.8025" y="36.8105" width="9.16094" height="3.58386" rx="0.524856" fill="white"/>
<rect x="60.8025" y="57.6323" width="9.16094" height="3.58386" rx="0.524856" fill="white"/>
<rect x="62.4604" y="36.8105" width="5.84507" height="24.4058" fill="white"/>
<path d="M49.4956 23.1749C49.6247 23.1211 49.77 23.1211 49.8991 23.1749L73.8468 33.1463C74.3765 33.3669 74.2188 34.1557 73.6451 34.1557H25.7497C25.1759 34.1557 25.0182 33.3669 25.5479 33.1463L49.4956 23.1749Z" fill="white"/>
<path d="M51.989 59.8093V47.6407C51.989 47.3897 52.1667 47.1739 52.413 47.1257L64.4912 44.7598C64.5562 44.7471 64.623 44.7468 64.6882 44.7589L77.4109 47.1288C77.6595 47.1751 77.8397 47.392 77.8397 47.6448V59.7643C77.8397 59.7942 77.837 59.8248 77.8319 59.8542C75.8802 71.0518 68.4483 75.9185 64.7839 77.03C64.6573 77.0684 64.5226 77.052 64.4056 76.9903C55.3006 72.1898 52.3331 63.5514 51.989 59.8093ZM51.989 59.8093H52.7763V59.7724M51.989 59.8093L52.773 59.7372C52.7741 59.7489 52.7752 59.7606 52.7763 59.7724M52.7763 59.7724V47.8567M52.7763 59.7724C53.1162 63.3195 55.9621 71.5963 64.6717 76.2403M52.7763 47.8567L64.5933 45.5421M52.7763 47.8567V47.6407C52.7763 47.7662 52.6875 47.8741 52.5644 47.8982L52.7763 47.8567ZM64.6717 76.2403C64.6325 76.2529 64.5937 76.2649 64.5554 76.2766C64.6414 76.2505 64.7201 76.2661 64.7727 76.2939C64.739 76.2761 64.7053 76.2582 64.6717 76.2403ZM64.6717 76.2403C68.1232 75.1381 75.1722 70.4791 77.0524 59.7413M77.0524 59.7413V59.7643C77.0524 59.7486 77.0537 59.7339 77.0563 59.7191C77.055 59.7265 77.0537 59.7339 77.0524 59.7413ZM77.0524 59.7413V47.8629M77.0524 47.8629L77.2668 47.9028C77.1425 47.8797 77.0524 47.7712 77.0524 47.6448V47.8629ZM77.0524 47.8629L64.5933 45.5421M64.5933 45.5421L64.6425 45.5324C64.61 45.5388 64.5766 45.5389 64.544 45.5329L64.5933 45.5421Z" fill="white" stroke="black" stroke-width="1.57457"/>
<path d="M51.989 59.8093V47.6407C51.989 47.3897 52.1667 47.1739 52.413 47.1257L64.4912 44.7598C64.5562 44.7471 64.623 44.7468 64.6882 44.7589L77.4109 47.1288C77.6595 47.1751 77.8397 47.392 77.8397 47.6448V59.7643C77.8397 59.7942 77.837 59.8248 77.8319 59.8542C75.8802 71.0518 68.4483 75.9185 64.7839 77.03C64.6573 77.0684 64.5226 77.052 64.4056 76.9903C55.3006 72.1898 52.3331 63.5514 51.989 59.8093ZM51.989 59.8093H52.7763V59.7724M51.989 59.8093L52.773 59.7372C52.7741 59.7489 52.7752 59.7606 52.7763 59.7724M52.7763 59.7724V47.8567M52.7763 59.7724C53.1162 63.3195 55.9621 71.5963 64.6717 76.2403M52.7763 47.8567L64.5933 45.5421M52.7763 47.8567V47.6407C52.7763 47.7662 52.6875 47.8741 52.5644 47.8982L52.7763 47.8567ZM64.6717 76.2403C64.6325 76.2529 64.5937 76.2649 64.5554 76.2766C64.6414 76.2505 64.7201 76.2661 64.7727 76.2939C64.739 76.2761 64.7053 76.2582 64.6717 76.2403ZM64.6717 76.2403C68.1232 75.1381 75.1722 70.4791 77.0524 59.7413M77.0524 59.7413V59.7643C77.0524 59.7486 77.0537 59.7339 77.0563 59.7191C77.055 59.7265 77.0537 59.7339 77.0524 59.7413ZM77.0524 59.7413V47.8629M77.0524 47.8629L77.2668 47.9028C77.1425 47.8797 77.0524 47.7712 77.0524 47.6448V47.8629ZM77.0524 47.8629L64.5933 45.5421M64.5933 45.5421L64.6425 45.5324C64.61 45.5388 64.5766 45.5389 64.544 45.5329L64.5933 45.5421Z" fill="white" stroke="black" stroke-width="1.57457"/>
<path fill-rule="evenodd" clip-rule="evenodd" d="M64.9144 48.8809L64.7809 48.856C64.7157 48.8438 64.6489 48.8442 64.5838 48.8569L56.1013 50.5184C55.855 50.5667 55.6774 50.7825 55.6774 51.0335V60.129C55.9226 62.7961 58.0326 69.4476 64.4987 72.893C64.6155 72.9552 64.7518 72.9713 64.8777 72.9307C64.8899 72.9267 64.9021 72.9227 64.9144 72.9187V48.8809Z" fill="black"/>
</svg>
