<svg id="Laag_1" data-name="Laag 1" xmlns="http://www.w3.org/2000/svg" xmlns:xlink="http://www.w3.org/1999/xlink" viewBox="0 0 100 100"><defs><style>.cls-1{fill:none;}.cls-2{fill:#fff;}.cls-3{fill:#a4a4a3;}.cls-4{clip-path:url(#clip-path);}.cls-5{fill:#1d1e1b;}.cls-6{fill:#0088d9;}.cls-7{fill:#001679;}.cls-8{fill:#c9006b;}.cls-9{fill:#fd3900;}.cls-10{fill:#ffd800;}.cls-11{fill:#22ac00;}</style><clipPath id="clip-path"><rect class="cls-1" width="100" height="100" rx="10.37"/></clipPath></defs><rect class="cls-2" x="0.5" y="0.5" width="99" height="99" rx="9.87"/><path class="cls-3" d="M89.63,1A9.38,9.38,0,0,1,99,10.37V89.63A9.38,9.38,0,0,1,89.63,99H10.37A9.38,9.38,0,0,1,1,89.63V10.37A9.38,9.38,0,0,1,10.37,1H89.63m0-1H10.37A10.41,10.41,0,0,0,0,10.37V89.63A10.41,10.41,0,0,0,10.37,100H89.63A10.41,10.41,0,0,0,100,89.63V10.37A10.41,10.41,0,0,0,89.63,0Z"/><g class="cls-4"><polygon class="cls-5" points="50 89.57 -6.53 69.61 -6.53 115.44 50 115.44 106.53 115.44 106.53 69.61 50 89.57"/></g><path class="cls-6" d="M74.72,33.39,80,43c.47.86.3,1.21-.6,1.58-1.65.67-3.28,1.4-4.91,2.11-1.1.48-2.18,1-3.29,1.46a1.14,1.14,0,0,1-.78-.1q-5.58-2.82-11.15-5.69a.85.85,0,0,1-.38-.68c.38-4.19.78-8.36,1.2-12.54a1.22,1.22,0,0,1,.49-.75c2-1.39,4.06-2.75,6.09-4.12.48-.32.95-.65,1.44-1s1-.22,1.34.47Z"/><path class="cls-7" d="M74.79,62.86l-5.57,9.41c-.5.84-.89.87-1.66.28-1.42-1.07-2.87-2.1-4.32-3.14-1-.71-2-1.37-2.93-2.1A1,1,0,0,1,60,66.6q-.42-6.25-.79-12.5a.87.87,0,0,1,.4-.67Q65.3,50.72,71,48.08a1.15,1.15,0,0,1,.89,0c2.22,1,4.43,2.08,6.65,3.13.52.25,1,.49,1.56.75s.68.71.28,1.39Z"/><path class="cls-8" d="M49.13,77.07H38.19c-1,0-1.2-.32-1.09-1.29.2-1.77.35-3.54.51-5.32.1-1.19.17-2.4.31-3.59a1,1,0,0,1,.45-.63q5.16-3.54,10.36-7a.89.89,0,0,1,.78,0q5.22,3.51,10.41,7.08a1.23,1.23,0,0,1,.42.79c.25,2.44.46,4.88.69,7.32,0,.58.11,1.15.15,1.73s-.27.95-1,.95Z"/><path class="cls-9" d="M23.54,62.2l-5.26-9.59c-.47-.85-.29-1.2.61-1.57,1.64-.68,3.27-1.4,4.9-2.12,1.1-.48,2.19-1,3.3-1.45a1.06,1.06,0,0,1,.77.09c3.72,1.88,7.45,3.78,11.15,5.69a.89.89,0,0,1,.38.69q-.57,6.27-1.2,12.53a1.22,1.22,0,0,1-.49.75c-2,1.39-4.06,2.75-6.09,4.12-.48.33-.95.66-1.44,1s-1,.22-1.33-.46Q26.19,67,23.54,62.2Z"/><path class="cls-10" d="M23.47,32.74Q26.26,28,29,23.33c.5-.84.89-.87,1.66-.28,1.42,1.07,2.88,2.1,4.32,3.14,1,.7,2,1.37,2.94,2.09a1.05,1.05,0,0,1,.3.72q.42,6.24.79,12.49a.89.89,0,0,1-.4.68q-5.68,2.7-11.4,5.35a1.25,1.25,0,0,1-.89,0c-2.22-1-4.43-2.09-6.65-3.14-.52-.24-1-.48-1.56-.74s-.68-.72-.28-1.39Q20.66,37.47,23.47,32.74Z"/><path class="cls-11" d="M49.14,18.53c3.64,0,7.28,0,10.93,0,1,0,1.2.32,1.09,1.28-.2,1.77-.35,3.55-.5,5.32-.11,1.2-.18,2.4-.31,3.59a1.06,1.06,0,0,1-.46.63c-3.44,2.36-6.89,4.72-10.36,7a.83.83,0,0,1-.78,0q-5.22-3.51-10.41-7.08a1.21,1.21,0,0,1-.42-.79c-.25-2.44-.46-4.88-.68-7.32-.06-.57-.12-1.15-.16-1.72s.27-.95,1.05-.95C41.8,18.52,45.47,18.53,49.14,18.53Z"/></svg>