<svg width="100" height="100" viewBox="0 0 100 100" fill="none" xmlns="http://www.w3.org/2000/svg">
<rect width="100" height="100" rx="10" fill="white"/>
<path d="M50.5614 60.1147L49.3575 64.7109H49.3356L47.9418 60.1147H47.1837L45.7907 64.7109H45.7679L44.5641 60.1147H43.6945L45.3441 65.775H46.1689L47.5518 61.1313H47.5737L48.9566 65.775H49.7813L51.4309 60.1147H50.5614Z" fill="#082240"/>
<path d="M33.2699 43.6372C33.2699 43.9441 33.2224 44.2894 33.1293 44.6749C32.5556 47.0268 31.1043 47.9859 28.1193 47.9859H25.9993C26.0971 47.5867 27.5083 41.805 27.5685 41.5547H30.0667C31.5052 41.5547 32.4333 41.8424 32.9018 42.4343C33.1484 42.7449 33.2699 43.1422 33.2699 43.6372ZM35.2328 43.3806C35.2328 42.6279 35.0373 42.0114 34.6427 41.5145C33.8819 40.5555 32.4095 40.0887 30.1397 40.0887C30.1388 40.0887 26.7885 40.0796 26.7885 40.0796H7.09766V41.5986H25.4303C25.328 42.0205 21.953 55.8931 21.953 55.8931H24.0767C24.0767 55.8931 25.5609 49.809 25.6239 49.5505H27.6471C31.9601 49.5505 34.2409 48.0864 35.0419 44.8009C35.1689 44.2821 35.2328 43.809 35.2328 43.3806Z" fill="#082240"/>
<path d="M56.9431 62.9446C56.9431 62.6304 56.8965 62.3363 56.8043 62.0622C56.7111 61.7882 56.5796 61.5507 56.4088 61.3489C56.238 61.147 56.0316 60.9881 55.7895 60.8712C55.5484 60.7543 55.2753 60.6958 54.9702 60.6958C54.6651 60.6958 54.392 60.7543 54.1509 60.8712C53.9098 60.9881 53.7052 61.147 53.538 61.3489C53.3709 61.5507 53.2412 61.7882 53.148 62.0622C53.0548 62.3363 53.0092 62.6304 53.0092 62.9446C53.0092 63.2588 53.0557 63.5538 53.148 63.8278C53.2412 64.1018 53.3709 64.3393 53.538 64.5412C53.7061 64.743 53.9098 64.902 54.1509 65.0189C54.392 65.1358 54.6651 65.1943 54.9702 65.1943C55.2753 65.1943 55.5475 65.1358 55.7895 65.0189C56.0307 64.902 56.2371 64.743 56.4088 64.5412C56.5796 64.3393 56.7111 64.1018 56.8043 63.8278C56.8965 63.5538 56.9431 63.2597 56.9431 62.9446ZM57.746 62.9446C57.746 63.372 57.6775 63.7675 57.5396 64.1302C57.4026 64.4928 57.2108 64.807 56.9651 65.0737C56.7194 65.3395 56.428 65.5477 56.09 65.6966C55.7521 65.8455 55.3785 65.9204 54.9702 65.9204C54.5683 65.9204 54.1993 65.8455 53.8604 65.6966C53.5225 65.5477 53.2311 65.3404 52.9854 65.0737C52.7397 64.807 52.5479 64.4928 52.4109 64.1302C52.2739 63.7675 52.2054 63.372 52.2054 62.9446C52.2054 62.518 52.2739 62.1225 52.4109 61.759C52.5479 61.3964 52.7397 61.0813 52.9854 60.8155C53.2302 60.5497 53.5225 60.3423 53.8604 60.1925C54.1993 60.0427 54.5683 59.9688 54.9702 59.9688C55.3785 59.9688 55.7521 60.0427 56.09 60.1925C56.428 60.3423 56.7194 60.5488 56.9651 60.8155C57.2108 61.0822 57.4017 61.3955 57.5396 61.759C57.6766 62.1225 57.746 62.518 57.746 62.9446Z" fill="#082240"/>
<path d="M59.9675 60.1148C59.9821 60.2682 59.9912 60.4198 59.9958 60.5687C59.9994 60.7176 60.0013 60.8692 60.0013 61.0227H60.0232C60.1054 60.8692 60.2095 60.7286 60.3356 60.5989C60.4616 60.4701 60.6032 60.3596 60.7594 60.2664C60.9156 60.1741 61.0809 60.1011 61.2553 60.049C61.4298 59.9969 61.6033 59.9705 61.7741 59.9705C62.4437 59.9705 62.9369 60.1623 63.2566 60.545C63.5763 60.9277 63.7361 61.4748 63.7361 62.1836V65.776H63.0008V62.643C63.0008 62.0146 62.9004 61.5324 62.6994 61.1981C62.4985 60.8638 62.1267 60.6957 61.5842 60.6957C61.5467 60.6957 61.4435 60.7121 61.2718 60.7441C61.101 60.777 60.9201 60.8647 60.7311 61.0108C60.542 61.1551 60.373 61.3734 60.2232 61.6639C60.0743 61.9543 60.0003 62.3571 60.0003 62.8732V65.776H59.2651V61.3616C59.2651 61.209 59.2596 61.0154 59.2477 60.7815C59.2368 60.5477 59.224 60.3258 59.2094 60.1166H59.9675V60.1148Z" fill="#082240"/>
<path d="M69.6384 62.5097C69.6384 61.9699 69.4895 61.5324 69.1926 61.1981C68.8949 60.8638 68.4793 60.6957 67.944 60.6957C67.7066 60.6957 67.4755 60.746 67.2526 60.8474C67.0297 60.9488 66.8343 61.083 66.6671 61.2529C66.5 61.4228 66.3657 61.6155 66.2652 61.8338C66.1648 62.0512 66.1145 62.2768 66.1145 62.5106H69.6384V62.5097ZM66.0926 63.1628C66.1145 63.445 66.1775 63.7108 66.2817 63.9611C66.3858 64.2114 66.5228 64.426 66.6936 64.6078C66.8644 64.7896 67.0617 64.932 67.2846 65.0371C67.5074 65.1421 67.7486 65.1942 68.0098 65.1942C68.4035 65.1942 68.7432 65.0955 69.0291 64.8973C69.315 64.7 69.5324 64.4726 69.6813 64.2141L70.2494 64.7229C69.938 65.1503 69.5936 65.4563 69.2182 65.6417C68.8437 65.8272 68.44 65.9194 68.0089 65.9194C67.6216 65.9194 67.2636 65.8445 66.9329 65.6956C66.6013 65.5468 66.3173 65.3394 66.0798 65.0727C65.8423 64.806 65.6542 64.4918 65.5162 64.1292C65.3792 63.7666 65.3107 63.3711 65.3107 62.9436C65.3107 62.517 65.3783 62.1215 65.5117 61.758C65.6459 61.3954 65.8314 61.0803 66.0688 60.8145C66.3063 60.5487 66.5858 60.3413 66.9055 60.1916C67.2252 60.0418 67.5705 59.9678 67.9422 59.9678C68.3359 59.9678 68.6894 60.0445 69.0008 60.197C69.3132 60.3505 69.5753 60.5542 69.7873 60.8081C69.9992 61.062 70.1608 61.3607 70.2723 61.7032C70.3837 62.0457 70.4403 62.4111 70.4403 62.7975V63.1601H66.0926V63.1628Z" fill="#082240"/>
<path d="M72.6681 60.1148C72.6827 60.2682 72.6918 60.4198 72.6964 60.5687C72.7001 60.7176 72.7019 60.8692 72.7019 61.0227H72.7238C72.806 60.8692 72.9101 60.7286 73.0362 60.5989C73.1622 60.4701 73.3038 60.3596 73.46 60.2664C73.6162 60.1741 73.7815 60.1011 73.956 60.049C74.1304 59.9969 74.304 59.9705 74.4748 59.9705C75.1443 59.9705 75.6375 60.1623 75.9572 60.545C76.2769 60.9277 76.4367 61.4748 76.4367 62.1836V65.776H75.7015V62.643C75.7015 62.0146 75.601 61.5324 75.4 61.1981C75.1991 60.8638 74.8273 60.6957 74.2848 60.6957C74.2473 60.6957 74.1441 60.7121 73.9724 60.7441C73.8016 60.777 73.6208 60.8647 73.4317 61.0108C73.2426 61.1551 73.0736 61.3734 72.9238 61.6639C72.775 61.9543 72.701 62.3571 72.701 62.8732V65.776H71.9657V61.3616C71.9657 61.209 71.9602 61.0154 71.9492 60.7815C71.9383 60.5477 71.9255 60.3258 71.9109 60.1166H72.6681V60.1148Z" fill="#082240"/>
<path d="M65.9027 45.5747H68.5487L68.8858 44.2356H66.2388C66.3301 43.8739 66.8444 41.8289 66.8444 41.8289H64.9445C64.9445 41.8289 64.3992 43.9982 64.3398 44.2356H63.0063L62.6711 45.5747H64.0028C63.8996 45.9857 62.2655 52.4909 62.2655 52.4909C62.102 53.1403 62.0208 53.6974 62.0208 54.1651C62.0208 54.7414 62.145 55.1835 62.3943 55.5005C62.7113 55.9033 63.2118 56.0987 63.9261 56.0987C64.6047 56.0987 65.1655 55.8951 65.6259 55.695L65.7319 55.6484L65.7355 54.2528L65.4661 54.4117C65.2158 54.5597 64.8806 54.7287 64.5052 54.7287C64.3481 54.7287 64.2375 54.6812 64.1572 54.5798C64.0457 54.4382 63.99 54.198 63.99 53.8619C63.99 53.4152 64.0896 52.7959 64.286 52.0113C64.286 52.0122 65.678 46.468 65.9027 45.5747Z" fill="#082240"/>
<path d="M58.9224 43.9827C58.2876 43.9827 57.5743 44.1617 56.8582 44.4996C56.2791 44.7718 55.7137 45.1262 55.1712 45.4815C55.2826 45.0787 55.5155 44.2366 55.5155 44.2366H53.528L50.6115 55.8449H52.5945C52.5945 55.8449 54.7327 47.3257 54.7601 47.2206C55.384 46.6352 56.154 46.1465 56.6317 45.9044C57.1806 45.6377 57.6702 45.5025 58.0849 45.5025C58.7781 45.5025 59.0065 45.7537 59.1289 45.9711C59.3362 46.3986 59.1809 47.1887 58.9827 47.976L57.0071 55.8449H58.99L61.0735 47.5485C61.3877 46.2963 61.3685 45.4669 61.0114 44.8613C60.6643 44.2777 59.9619 43.9827 58.9224 43.9827Z" fill="#082240"/>
<path d="M41.2731 45.801L41.463 46.044L42.0997 44.4629L42.0047 44.3807C41.8595 44.2556 41.7133 44.1697 41.5297 44.1031C41.3178 44.0236 41.0639 43.9834 40.7753 43.9834C40.3314 43.9834 39.8902 44.1085 39.386 44.3771C39.0599 44.5634 38.7731 44.7954 38.4991 45.0356C38.5804 44.7488 38.7256 44.2373 38.7256 44.2373H36.7792L33.8627 55.8456H35.8019C35.8019 55.8456 37.9639 47.2332 37.9876 47.141C38.4553 46.6304 38.9183 46.2084 39.3285 45.9253C39.7824 45.6184 40.1304 45.4814 40.4538 45.4814C40.6739 45.4814 40.831 45.5106 40.999 45.5827C41.1141 45.6412 41.2036 45.7124 41.2731 45.801Z" fill="#082240"/>
<path d="M48.4331 50.0402C47.6522 53.1512 46.3241 54.7953 44.5932 54.7953C43.9575 54.7953 43.5163 54.6145 43.2222 54.2418C42.6705 53.5413 42.6486 52.1556 43.1583 50.1261C43.9292 47.0553 45.3038 45.3637 47.0283 45.3637C47.6001 45.3637 48.0385 45.5518 48.3308 45.9236C48.6304 46.3045 48.7811 46.8863 48.7811 47.6453C48.7811 48.3112 48.6651 49.115 48.4331 50.0402ZM50.1065 45.139C49.5228 44.3973 48.571 44.021 47.2777 44.021C44.227 44.021 42.1709 46.046 41.1689 50.0384C40.5743 52.4068 40.6638 54.0409 41.4448 55.0328C42.022 55.7654 42.9893 56.1371 44.322 56.1371C47.3681 56.1371 49.4187 54.1203 50.4188 50.1444C51.0025 47.8198 50.8956 46.1428 50.1065 45.139Z" fill="#082240"/>
<path d="M75.1388 50.0402C74.357 53.1512 73.0289 54.7953 71.2989 54.7953C70.6623 54.7953 70.222 54.6145 69.9279 54.2418C69.3753 53.5413 69.3543 52.1556 69.8631 50.1261C70.634 47.0553 72.0086 45.3637 73.7331 45.3637C74.3058 45.3637 74.7433 45.5518 75.0356 45.9236C75.3352 46.3045 75.4859 46.8863 75.4859 47.6453C75.4868 48.3112 75.3708 49.115 75.1388 50.0402ZM92.9015 44.0219H74.0026C73.9962 44.0219 73.9898 44.021 73.9834 44.021C73.9779 44.021 73.9724 44.0219 73.9669 44.0219H73.8372V44.0274C70.8678 44.0932 68.8611 46.1108 67.8746 50.0384C67.28 52.4068 67.3695 54.0409 68.1505 55.0328C68.7277 55.7654 69.6959 56.1371 71.0286 56.1371C74.0747 56.1371 76.1253 54.1203 77.1254 50.1444C77.668 47.9842 77.6132 46.3839 76.9692 45.3628H92.9024V44.0219H92.9015Z" fill="#082240"/>
</svg>
