<svg width="100" height="100" viewBox="0 0 100 100" fill="none" xmlns="http://www.w3.org/2000/svg">
<rect width="100" height="100" rx="10" fill="white"/>
<path d="M81.706 15.1119C81.6816 15.0944 81.6584 15.077 81.634 15.0596C78.893 13.0921 75.5829 12.1479 72.1741 12.386L20.0152 16.0329C16.1465 16.3035 12.6158 18.0642 10.0711 20.991C7.52751 23.9179 6.27432 27.66 6.54494 31.5287L8.65178 61.6528C8.92239 65.5216 10.6831 69.0523 13.6099 71.597C13.9804 71.9188 14.3649 72.2207 14.7598 72.5006L18.366 75.1022C20.2231 76.4356 22.3416 77.2997 24.5762 77.6435L25.0512 84.9965L28.7295 87.6504L41.971 76.7886L79.9847 74.1301C83.8535 73.8595 87.3842 72.0988 89.9289 69.172C92.4725 66.2452 93.7257 62.503 93.455 58.6343L91.3482 28.5102C91.0776 24.6414 89.3169 21.1107 86.39 18.566C86.0195 18.2442 85.6351 17.9423 85.2402 17.6624L81.706 15.1119Z" fill="#33B579"/>
<path d="M25.4949 73.8627L24.0664 73.9626C16.7191 74.476 10.3243 68.9174 9.81093 61.5701L7.70409 31.4472C7.19073 24.1 12.7494 17.7051 20.0966 17.1917L72.2554 13.5448C79.6027 13.0315 85.9975 18.5901 86.5109 25.9373L88.6177 56.0615C89.1311 63.4087 83.5724 69.8035 76.2252 70.3169L37.8421 73.001L26.064 82.6629L25.4949 73.8627Z" fill="white"/>
<path d="M72.3355 14.7029C79.0544 14.2325 84.8813 19.2987 85.3517 26.0176L87.4586 56.1417C87.9289 62.8606 82.8628 68.6875 76.1439 69.1579L37.3915 71.8675L27.0768 80.3286L26.5785 72.6236L23.985 72.8048C17.2661 73.2752 11.4392 68.209 10.9688 61.4901L8.862 31.366C8.39162 24.6471 13.4578 18.8202 20.1767 18.3498L72.3355 14.7029ZM72.1741 12.3858L20.0152 16.0327C16.1465 16.3034 12.6158 18.0641 10.0711 20.9909C7.52751 23.9177 6.27432 27.6599 6.54494 31.5286L8.65178 61.6527C8.92239 65.5215 10.6831 69.0522 13.6099 71.5969C16.5368 74.1405 20.2789 75.3936 24.1476 75.123L24.4124 75.1044L24.7597 80.4796L25.0524 84.9964L28.5518 82.1253L38.2939 74.1335L76.3076 71.475C80.1764 71.2043 83.7071 69.4436 86.2518 66.5168C88.7954 63.59 90.0486 59.8478 89.7779 55.9791L87.6688 25.855C87.3982 21.9863 85.6374 18.4555 82.7106 15.9108C79.785 13.3673 76.0428 12.1152 72.1741 12.3858Z" fill="#33B579"/>
<path fill-rule="evenodd" clip-rule="evenodd" d="M41.0024 25.6788C25.4086 28.1555 16.4558 32.6796 16.4558 32.6796L16.6442 58.9166C16.6442 58.9166 24.7309 53.1535 41.9941 50.9934C59.2561 48.8334 71.4116 51.7091 71.4116 51.7091L69.7645 24.4477C69.7645 24.4464 54.9988 23.456 41.0024 25.6788ZM48.6129 37.8763C48.8118 42.6385 46.012 46.6224 42.3618 46.7754C38.7103 46.9272 35.5899 43.1893 35.3924 38.4271C35.1935 33.6648 37.9933 29.681 41.6435 29.5292C45.295 29.3774 48.4154 33.1153 48.6129 37.8763Z" fill="#34B67A"/>
<path fill-rule="evenodd" clip-rule="evenodd" d="M78.6559 32.6613L79.8661 60.1425C79.8661 60.1425 68.4549 56.5054 49.8323 57.8072C34.5735 58.8748 24.6695 64.6785 24.6695 64.6785L24.7585 58.5215C24.7585 58.5215 36.8748 54.6424 48.9453 53.7985C61.0158 52.9546 74.6158 55.409 74.6158 55.409L73.5089 32.155L78.6559 32.6613Z" fill="#34B67A"/>
<path d="M41.1202 33.5428L41.1149 32.6545L43.0238 32.6427L43.029 33.531L43.4791 33.5284C43.8624 33.5258 44.1934 33.6514 44.4721 33.9039C44.7547 34.1603 44.8973 34.4704 44.8986 34.8354L44.9104 36.7783L42.9963 36.7901L42.9871 35.3143L41.1751 35.3247L41.1843 36.845C41.1869 37.2624 41.4904 37.4691 42.0936 37.4665C42.8838 37.4612 43.5432 37.6666 44.0743 38.0814C44.6395 38.5262 44.9234 39.1189 44.9287 39.8594L44.9405 41.8415C44.9431 42.2065 44.8044 42.5205 44.5244 42.7835C44.2484 43.036 43.9187 43.1629 43.5353 43.1655L43.08 43.1681L43.0853 44.0512L41.183 44.063L41.1777 43.1799L40.7224 43.1825C40.3391 43.1851 40.0081 43.0621 39.7294 42.8122C39.4468 42.5519 39.3042 42.2392 39.3016 41.8755L39.2898 39.9392L41.2039 39.9274L41.2131 41.3966L43.0251 41.3862L43.0159 39.8711C43.0133 39.4538 42.7098 39.2471 42.1066 39.2497C41.3164 39.2549 40.657 39.0482 40.1258 38.6296C39.5607 38.1847 39.2768 37.5947 39.2715 36.8581L39.2597 34.8708C39.2571 34.5057 39.3958 34.1944 39.6758 33.934C39.9518 33.6776 40.2815 33.5481 40.6649 33.5467L41.1202 33.5428Z" fill="#34B67A"/>
</svg>
