<svg width="100" height="100" viewBox="0 0 100 100" fill="none" xmlns="http://www.w3.org/2000/svg">
<rect width="100" height="100" rx="10" fill="white"/>
<path fill-rule="evenodd" clip-rule="evenodd" d="M85.3462 50C85.3462 71.1314 68.2158 88.2618 47.0844 88.2618C33.4157 88.2618 21.421 81.0943 14.6538 70.3127L14.9889 70.4539C18.2051 73.6701 22.3362 74.5666 23.9998 74.6128H47.1509L48.26 64.9087H29.545C25.0073 64.9087 23.9078 62.4912 23.9111 60.7473H23.9108V53.263H25.3923V53.2638H43.2693L44.9329 43.4211H23.9998V32.7466H47.1509L49.0917 22.2108H20.7837C27.6401 15.7195 36.8973 11.7383 47.0844 11.7383C68.2158 11.7383 85.3462 28.8687 85.3462 50Z" fill="#F72717"/>
</svg>
