<svg id="Laag_1" data-name="Laag 1" xmlns="http://www.w3.org/2000/svg" viewBox="0 0 100 100"><defs><style>.cls-1{fill:#891715;}.cls-2{fill:#fff;}</style></defs><rect class="cls-1" width="100" height="100" rx="10.37"/><path class="cls-2" d="M82.77,44.45l.06-.24a4.91,4.91,0,0,1,3.83-3.87,3.69,3.69,0,0,1,1.62,0,5.37,5.37,0,0,1,2.94,1.48,4.08,4.08,0,0,1,1.18,2.45A14.71,14.71,0,0,1,92.48,46c0,3.39,0,6.79,0,10.19,0,1,0,2,0,3,0,.13,0,.25,0,.39A6.3,6.3,0,0,1,88.32,58a6.88,6.88,0,0,1-2.24-3.79H86a2.26,2.26,0,0,1,0,.26l0,2a3.15,3.15,0,0,1-2.58,3,3.22,3.22,0,0,1-3.73-2.19,5,5,0,0,1-.14-1.44c0-.5,0-1,0-1.5a1.7,1.7,0,0,0,0-.21.45.45,0,0,0-.11.26,8.86,8.86,0,0,1-.64,1.67,6.19,6.19,0,0,1-4,3.22,8.31,8.31,0,0,1-1.68.29c0-.11,0-.21,0-.3V45.16a4.86,4.86,0,0,1,9.39-1.78c.1.27.16.56.24.83l.07.24Z"/><path class="cls-2" d="M42.6,40.24V39.9c0-1.24,0-2.48,0-3.72a3.3,3.3,0,0,1,.9-2.37A3.22,3.22,0,0,1,47,32.89a3.17,3.17,0,0,1,2.32,2.65,4.1,4.1,0,0,1,.06.86c0,3.69,0,7.37,0,11.06v5.07A7.21,7.21,0,0,1,49,54.89a6.27,6.27,0,0,1-1.53,2.53,7.12,7.12,0,0,1-2.72,1.8,6.22,6.22,0,0,1-3.93,0,6.07,6.07,0,0,1-3.46-2.51A6.64,6.64,0,0,1,36.27,53V49.9c0-1.15,0-2.3,0-3.44a6.46,6.46,0,0,1,5.46-6.1Z"/><path class="cls-2" d="M13,49.94H10.85a3.46,3.46,0,0,1-1.48-.32,3.11,3.11,0,0,1-1.85-2.86c0-1.31,0-2.62,0-3.93,0-.73,0-1.46,0-2.19,0-.1,0-.2,0-.31l.47,0c2,0,3.95,0,5.92,0a6.66,6.66,0,0,1,4.18,1.39A6.37,6.37,0,0,1,20.55,46a10,10,0,0,1,0,1.34c0,1.64,0,3.28,0,4.92A16.56,16.56,0,0,1,20.52,54a5.93,5.93,0,0,1-1.61,3.45,6.4,6.4,0,0,1-3.73,2c-.2,0-.41,0-.61.07l-.32.06v1.08c0,1,0,2.09,0,3.13a3.3,3.3,0,0,1-2.77,3.25,3.32,3.32,0,0,1-3.92-2.77,2.73,2.73,0,0,1,0-.5c0-2.48,0-5,0-7.42a6.5,6.5,0,0,1,5.24-6.3L13,50Z"/><path class="cls-2" d="M65.2,45.64a6.74,6.74,0,0,1,6.53-5.25,1,1,0,0,1,0,.17.48.48,0,0,1,0,.12q0,4.86,0,9.71c0,1,0,2,0,3A6.56,6.56,0,0,1,59.4,56.14a5.87,5.87,0,0,1-.71-2.59c0-.87,0-1.75,0-2.62q0-3.65,0-7.29a3.26,3.26,0,0,1,3.05-3.29,3.31,3.31,0,0,1,3.47,2.87c0,.68,0,1.36,0,2Z"/><path class="cls-2" d="M35,50.1V53a6.31,6.31,0,0,1-.83,3.24A6.39,6.39,0,0,1,29,59.54a6.52,6.52,0,0,1-6.95-4.85,6.38,6.38,0,0,1-.2-1.63c0-2.11,0-4.22,0-6.32A6.53,6.53,0,0,1,34.77,45.3,5.8,5.8,0,0,1,35,46.74V50.1Z"/><path class="cls-2" d="M57.37,50v6.19a3.37,3.37,0,0,1-4.48,3.22,3.31,3.31,0,0,1-2.25-2.79,2.17,2.17,0,0,1,0-.36V43.83a3.37,3.37,0,0,1,6.67-.73,2.9,2.9,0,0,1,.06.66Q57.38,46.86,57.37,50Z"/><path class="cls-2" d="M57.37,36.11A3.37,3.37,0,1,1,54,32.73,3.34,3.34,0,0,1,57.37,36.11Z"/><path class="cls-2" d="M86.93,65.32l.12.27.54,1.13a.81.81,0,0,1,.07.22.26.26,0,0,1-.17.3.28.28,0,0,1-.36-.08A.78.78,0,0,1,87,67c-.22-.46-.45-.91-.65-1.38a.32.32,0,0,0-.39-.23h-.24c0,.09,0,.16,0,.24v1.22a1.27,1.27,0,0,1,0,.2.3.3,0,0,1-.31.25.28.28,0,0,1-.29-.26,1.77,1.77,0,0,1,0-.23c0-1.16,0-2.33,0-3.49a1.33,1.33,0,0,1,0-.2.29.29,0,0,1,.3-.29c.42,0,.83,0,1.25,0a1.22,1.22,0,0,1,1,1A1.26,1.26,0,0,1,87,65.25S87,65.29,86.93,65.32Zm-1.19-.58H86c.18,0,.36,0,.54,0a.61.61,0,0,0,.55-.57.63.63,0,0,0-.44-.74,3.68,3.68,0,0,0-.94,0v1.12C85.73,64.59,85.74,64.65,85.74,64.74Z"/><path class="cls-2" d="M47.5,64.94c0-.6,0-1.2,0-1.81,0-.33.1-.41.44-.41h.84A1.23,1.23,0,0,1,50.07,64c0,.64,0,1.28,0,1.91a1.21,1.21,0,0,1-1.22,1.24c-.32,0-.65,0-1,0a.34.34,0,0,1-.39-.39c0-.31,0-.61,0-.92v-.92Zm.64-1.6a28.56,28.56,0,0,0,0,3.23c.22,0,.45,0,.68,0a.64.64,0,0,0,.61-.64c0-.65,0-1.3,0-2a.62.62,0,0,0-.56-.62C48.65,63.32,48.4,63.34,48.14,63.34Z"/><path class="cls-2" d="M69.71,64.67l.15-.21,1-1.47a1.71,1.71,0,0,1,.11-.14.3.3,0,0,1,.41-.07.3.3,0,0,1,.1.4c0,.06-.08.12-.11.17-.25.37-.5.74-.75,1.09a.3.3,0,0,0,0,.35c.31.62.61,1.24.91,1.86,0,0,0,.1.07.16a.29.29,0,0,1-.14.4.31.31,0,0,1-.41-.14c0-.06-.06-.11-.08-.16l-.7-1.45-.14-.25-.42.62a.49.49,0,0,0,0,.22c0,.29,0,.59,0,.89a.28.28,0,0,1-.31.3A.28.28,0,0,1,69,67a1.77,1.77,0,0,1,0-.23c0-1.19,0-2.38,0-3.57V63a.3.3,0,0,1,.31-.28.29.29,0,0,1,.3.28c0,.34,0,.68,0,1v.63Z"/><path class="cls-2" d="M44,66.13H42.58c-.08.27-.16.54-.25.8a.29.29,0,0,1-.35.25.28.28,0,0,1-.27-.33,1.09,1.09,0,0,1,0-.17c.38-1.22.77-2.44,1.16-3.66.08-.26.2-.35.41-.34s.28.09.35.31l.48,1.53.66,2.11a1.09,1.09,0,0,0,0,.17c0,.19,0,.33-.17.38a.32.32,0,0,1-.41-.2c-.08-.19-.13-.39-.19-.58S44.05,66.24,44,66.13Zm-.68-2.24h0l-.5,1.61h1Z"/><path class="cls-2" d="M60.06,66.17H58.63c-.06.19-.13.39-.19.59s0,.18-.08.27a.32.32,0,0,1-.38.18.28.28,0,0,1-.21-.35,1.41,1.41,0,0,1,.06-.22c.37-1.18.74-2.36,1.12-3.54a.76.76,0,0,1,.08-.21.34.34,0,0,1,.34-.19.35.35,0,0,1,.32.22.58.58,0,0,1,.05.14l1.14,3.64a.53.53,0,0,1,0,.17.27.27,0,0,1-.19.34.29.29,0,0,1-.38-.17c-.07-.17-.12-.35-.18-.53S60.1,66.29,60.06,66.17Zm-.19-.64-.49-1.59h-.06l-.49,1.59Z"/><path class="cls-2" d="M81.63,66.19c-.45,0-.87,0-1.3,0-.1,0-.14.06-.17.15s-.13.44-.2.66a.31.31,0,0,1-.23.24.29.29,0,0,1-.39-.32,1.46,1.46,0,0,1,0-.2c.38-1.21.77-2.41,1.15-3.62.08-.27.18-.35.39-.35a.33.33,0,0,1,.36.27c.12.36.23.72.34,1.09l.81,2.57c0,.08,0,.15.06.22a.27.27,0,0,1-.19.34.28.28,0,0,1-.38-.15,4.66,4.66,0,0,1-.16-.49C81.72,66.47,81.68,66.35,81.63,66.19ZM81,64h0l-.49,1.58a2.42,2.42,0,0,0,1,0Z"/><path class="cls-2" d="M76.18,66.19H74.75c0,.17-.11.36-.16.54a2.47,2.47,0,0,1-.1.29.31.31,0,0,1-.4.21.28.28,0,0,1-.19-.39l.34-1.09c.29-.89.57-1.78.85-2.67.06-.18.14-.33.36-.34a.34.34,0,0,1,.39.28c.16.49.31,1,.47,1.48.22.73.45,1.46.68,2.19l.06.19a.28.28,0,0,1-.18.35.29.29,0,0,1-.4-.17c-.08-.19-.13-.39-.19-.58S76.21,66.29,76.18,66.19ZM75.51,64h-.07L75,65.56h1Z"/><path class="cls-2" d="M66.11,64.56c0,.48,0,1,0,1.43a1.24,1.24,0,0,1-1,1.22,1.28,1.28,0,0,1-1.45-.69,1.52,1.52,0,0,1-.12-.51c0-1,0-1.91,0-2.86a1.09,1.09,0,0,1,0-.18.28.28,0,0,1,.29-.26.3.3,0,0,1,.31.28c0,.18,0,.36,0,.53v2.4a.67.67,0,1,0,1.34,0c0-.46,0-.92,0-1.37V63.24a1,1,0,0,1,0-.17c0-.23.12-.36.31-.36s.3.14.3.37v1.48Z"/><path class="cls-2" d="M53.54,63.36v1.21l.24,0c.29,0,.58,0,.87,0a.3.3,0,0,1,.25.48.29.29,0,0,1-.29.12H53.54c0,.46,0,.91,0,1.38h1.63a.29.29,0,0,1,.33.28.29.29,0,0,1-.26.32H53.33c-.32,0-.42-.09-.42-.41,0-1.21,0-2.43,0-3.64,0-.29.1-.4.38-.4h1.86a.28.28,0,0,1,.3.18.29.29,0,0,1-.22.41.65.65,0,0,1-.2,0H53.71Z"/><path class="cls-2" d="M36.83,64.9v-1a1.21,1.21,0,0,1,.82-1.19,1.41,1.41,0,0,1,1.5.37.92.92,0,0,1,.24.65c0,.2-.1.3-.26.32a.28.28,0,0,1-.34-.23.85.85,0,0,1-.06-.17.69.69,0,0,0-1.1-.23.54.54,0,0,0-.18.41c0,.71,0,1.42,0,2.14a.58.58,0,0,0,.51.57.66.66,0,0,0,.76-.37c0-.08.05-.17.08-.24a.3.3,0,0,1,.58.06.84.84,0,0,1-.12.56,1.3,1.3,0,0,1-1.35.59,1.16,1.16,0,0,1-1-.85,1.42,1.42,0,0,1-.06-.46c0-.32,0-.64,0-1Z"/><path class="cls-2" d="M91,63.4h-.63a.3.3,0,0,1-.24-.46.28.28,0,0,1,.28-.14h1.78a.32.32,0,0,1,.31.15.3.3,0,0,1-.26.45h-.61c0,.11,0,.2,0,.29,0,1,0,2.06,0,3.08a1.76,1.76,0,0,1,0,.23.3.3,0,0,1-.6,0,1.69,1.69,0,0,1,0-.23c0-1,0-2.05,0-3.08Z"/></svg>