<?xml version="1.0" encoding="utf-8"?>
<!-- Generator: Adobe Illustrator 28.0.0, SVG Export Plug-In . SVG Version: 6.00 Build 0)  -->
<svg version="1.1" id="Laag_1" xmlns="http://www.w3.org/2000/svg" xmlns:xlink="http://www.w3.org/1999/xlink" x="0px" y="0px"
	 viewBox="0 0 100 100" style="enable-background:new 0 0 100 100;" xml:space="preserve">
<style type="text/css">
	.st0{fill:#FFFFFF;}
	.st1{fill:#E3E3E3;}
	.st2{fill:#102F76;}
	.st3{fill:#713DFF;}
</style>
<g>
	<g>
		<path class="st0" d="M10.45,99.4c-5.24,0-9.5-4.26-9.5-9.51V9.9c0-5.24,4.26-9.51,9.5-9.51h79.93c5.24,0,9.5,4.26,9.5,9.51v79.99
			c0,2.53-0.98,4.92-2.77,6.71c-1.79,1.8-4.18,2.79-6.72,2.79H10.45z"/>
		<path class="st1" d="M90.38,0.9c4.96,0,9,4.04,9,9.01v79.99c0,2.4-0.93,4.66-2.63,6.36s-3.96,2.64-6.36,2.64H10.45
			c-4.96,0-9-4.04-9-9.01V9.9c0-4.96,4.04-9.01,9-9.01L90.38,0.9 M90.38-0.1H10.45c-5.52,0-10,4.48-10,10.01v79.99
			c0,5.52,4.48,10.01,10,10.01h79.94c5.52,0,10-4.48,9.99-10.01V9.9C100.38,4.38,95.9-0.1,90.38-0.1L90.38-0.1z"/>
	</g>
</g>
<g>
	<path class="st2" d="M18.05,32.72L18.05,32.72c-2.27,0-4.09,1.82-4.09,4.09V58.5c0,2.27,1.82,4.09,4.09,4.09s4.09-1.82,4.09-4.09
		V36.81C22.17,34.54,20.32,32.72,18.05,32.72"/>
	<path class="st2" d="M18.05,30.14c2.27,0,4.09-1.82,4.09-4.09s-1.82-4.09-4.09-4.09s-4.09,1.82-4.09,4.09S15.79,30.14,18.05,30.14"
		/>
	<path class="st2" d="M42.32,32.67c-3.94,0-6.49,1.49-8.05,2.95c-0.49-0.44-1.04-0.83-1.62-1.2c-0.31-0.24-0.63-0.42-0.99-0.55
		c-0.44-0.18-0.94-0.26-1.46-0.26c-2.27,0-4.12,1.85-4.12,4.12c0,1.56,0.86,2.92,2.14,3.6c0.03,0,0.05,0.03,0.08,0.03
		c0.29,0.16,0.47,0.34,0.63,0.49c1.04,1.07,1.41,2.97,1.51,4.14c0,0.31,0.03,0.6,0.03,0.81v11.7c0,2.27,1.85,4.12,4.12,4.12
		c2.27,0,4.12-1.85,4.12-4.12V46.66l0,0v-1.8l0,0v-0.03l0,0c0.03-2.19,1.8-3.96,3.99-3.96c2.19,0,3.99,1.77,3.99,3.96l0,0v0.03l0,0
		v1.72c0,0.03,0.03,0.08,0.03,0.13V58.5c0,2.27,1.82,4.09,4.09,4.09c2.27,0,4.09-1.82,4.09-4.09V46.61c0-1.62-0.29-6.8-3.78-10.45
		C48.89,33.89,45.86,32.67,42.32,32.67"/>
	<path class="st2" d="M85.61,41.79c0.13-0.16,0.26-0.31,0.36-0.47c0.05-0.08,0.13-0.16,0.18-0.26c0.16-0.21,0.29-0.42,0.44-0.65
		c0-0.03,0.03-0.05,0.05-0.05c0.24-0.31,0.42-0.63,0.55-0.99v-0.03c0.78-1.64,1.2-3.52,1.2-5.58c0-3.94-1.49-6.49-2.95-8.05
		c-1.88-1.88-4.12-3.8-10.74-3.8H62.56c-2.27,0-4.12,1.85-4.12,4.12s1.85,4.12,4.12,4.12h13.66c2.19,0.03,3.96,1.8,3.96,3.99
		c0,2.03-1.51,3.7-3.47,3.96c-0.47,0.03-0.99,0.03-1.54,0.03h-0.7c-0.03,0-0.08,0.03-0.13,0.03H62.57c-2.27,0-4.09,1.82-4.09,4.09
		v0.05c0,2.27,1.85,4.12,4.12,4.12h13.66c2.19,0.03,3.96,1.8,3.96,3.99s-1.77,3.99-3.96,3.99H74.5c-0.03,0-0.08,0.03-0.13,0.03
		H62.59c-2.27,0-4.09,1.82-4.09,4.09c0,2.27,1.82,4.09,4.09,4.09h11.88c1.62,0,6.8-0.29,10.45-3.78c2.29-2.22,3.52-5.24,3.52-8.78
		c0-3.94-1.49-6.49-2.95-8.05C85.5,41.92,85.55,41.84,85.61,41.79"/>
</g>
<g>
	<path class="st3" d="M14.85,77.7L14.85,77.7c0.29,0,0.53-0.24,0.53-0.53v-6.79c0-0.29-0.24-0.53-0.53-0.53l0,0
		c-0.29,0-0.53-0.24-0.53-0.53v-1.2c0-0.29,0.24-0.53,0.53-0.53h5.02c2.57,0,3.93,1.52,3.93,3.49c0,0.95-0.57,1.82-1.33,2.26v0.11
		c0.88,0.42,1.72,1.35,1.72,2.72c0,2.41-1.86,3.8-3.94,3.8h-5.4c-0.29,0-0.53-0.24-0.53-0.53v-1.2
		C14.32,77.93,14.55,77.7,14.85,77.7L14.85,77.7z M19.84,72.51c0.8,0,1.33-0.57,1.33-1.29c0-0.73-0.57-1.26-1.33-1.26h-1.38
		c-0.29,0-0.53,0.24-0.53,0.53v1.49c0,0.29,0.24,0.53,0.53,0.53H19.84z M19.89,77.59c0.9,0,1.61-0.58,1.61-1.5s-0.73-1.49-1.63-1.49
		h-1.42c-0.29,0-0.53,0.24-0.53,0.53v1.93c0,0.29,0.24,0.53,0.53,0.53L19.89,77.59L19.89,77.59z"/>
	<path class="st3" d="M25.6,76.9v-5.55c0-0.39,0.32-0.71,0.71-0.71h1.1c0.43,0,0.77,0.35,0.77,0.77v4.66c0,0.85,0.52,1.5,1.29,1.61
		c0.98,0.14,1.84-0.66,1.84-1.65v-4.65c0-0.41,0.33-0.74,0.74-0.74h1.11c0.41,0,0.74,0.33,0.74,0.74v8.01
		c0,0.32-0.26,0.58-0.58,0.58h-1.15c-0.47,0-0.85-0.38-0.85-0.85l0,0h-0.18l0,0c-0.42,0.6-1.19,1.08-2.26,1.08
		C26.91,80.19,25.6,78.72,25.6,76.9L25.6,76.9z"/>
	<path class="st3" d="M36.75,76.93l0.02,0c0.44-0.08,0.88,0.11,1.15,0.47c0.32,0.43,0.89,0.62,1.52,0.62c0.78,0,1.17-0.3,1.17-0.74
		c0-1.54-4.88-0.25-4.88-3.96c0-1.61,1.49-2.9,3.56-2.9c1.2,0,2.18,0.34,2.85,0.99c0.64,0.63,0.34,1.71-0.52,1.95l0,0
		c-0.42,0.11-0.87-0.01-1.16-0.34c-0.28-0.31-0.68-0.48-1.14-0.48c-0.62,0-1.04,0.27-1.04,0.67c0,1.45,4.94,0.25,4.94,3.82
		c0,1.88-1.47,3.17-3.89,3.17c-1.38,0-2.61-0.47-3.32-1.45C35.51,78.05,35.91,77.08,36.75,76.93L36.75,76.93z"/>
	<path class="st3" d="M60.76,75.31c0-2.92,2.16-4.9,4.76-4.9c2.87,0,4.65,2.12,4.65,4.88l0,0c0,0.36-0.29,0.66-0.66,0.66h-6.1l0,0
		c0.02,1.22,0.92,1.96,2.14,1.96c0.75,0,1.48-0.26,1.88-0.86c0.1-0.15,0.29-0.22,0.46-0.18l1.49,0.34c0.27,0.06,0.42,0.36,0.3,0.61
		c-0.78,1.72-2.44,2.37-4.09,2.37C62.75,80.19,60.77,78.12,60.76,75.31L60.76,75.31z M67.2,74.23c0.2,0,0.35-0.2,0.28-0.39
		c-0.27-0.74-1.02-1.29-1.96-1.29c-1.01,0-1.7,0.59-1.98,1.27c-0.08,0.19,0.06,0.41,0.27,0.41H67.2z"/>
	<path class="st3" d="M73.03,76.88L73.03,76.88c0.32-0.06,0.65,0.08,0.8,0.37c0.29,0.53,0.92,0.77,1.62,0.77
		c0.78,0,1.17-0.3,1.17-0.74c0-1.54-4.88-0.25-4.88-3.96c0-1.61,1.49-2.9,3.56-2.9c1.46,0,2.59,0.5,3.24,1.46
		c0.35,0.52,0.06,1.22-0.54,1.38l-0.07,0.02c-0.56,0.15-1.15-0.01-1.59-0.39c-0.27-0.22-0.62-0.35-1-0.35
		c-0.62,0-1.04,0.27-1.04,0.67c0,1.45,4.94,0.25,4.94,3.82c0,1.88-1.47,3.17-3.89,3.17c-1.2,0-2.29-0.35-3.01-1.09
		C71.57,78.35,71.98,77.07,73.03,76.88L73.03,76.88z"/>
	<path class="st3" d="M81.8,76.93L81.8,76.93c0.46-0.08,0.9,0.12,1.19,0.49c0.32,0.41,0.89,0.61,1.51,0.61
		c0.78,0,1.17-0.3,1.17-0.74c0-1.54-4.88-0.25-4.88-3.96c0-1.61,1.49-2.9,3.56-2.9c1.2,0,2.18,0.34,2.85,0.99
		c0.67,0.66,0.34,1.71-0.52,1.95l0,0c-0.42,0.11-0.87-0.01-1.16-0.34c-0.28-0.31-0.68-0.48-1.14-0.48c-0.62,0-1.04,0.27-1.04,0.67
		c0,1.45,4.94,0.25,4.94,3.82c0,1.88-1.47,3.17-3.89,3.17c-1.38,0-2.61-0.47-3.32-1.45C80.55,78.05,80.96,77.08,81.8,76.93
		L81.8,76.93z"/>
</g>
<path class="st3" d="M47.01,70.24L47.01,70.24c-0.75,0-1.35,0.6-1.35,1.35v7.15c0,0.75,0.6,1.35,1.35,1.35
	c0.75,0,1.35-0.6,1.35-1.35v-7.15C48.37,70.84,47.76,70.24,47.01,70.24"/>
<path class="st3" d="M47.01,69.39c0.75,0,1.35-0.6,1.35-1.35s-0.6-1.35-1.35-1.35c-0.75,0-1.35,0.6-1.35,1.35
	S46.26,69.39,47.01,69.39"/>
<path class="st3" d="M55.04,69.96c-1.32,0-2.18,0.5-2.7,0.99c-0.16-0.15-0.35-0.28-0.54-0.4c-0.11-0.08-0.21-0.14-0.33-0.18
	c-0.15-0.06-0.32-0.09-0.49-0.09c-0.76,0-1.38,0.62-1.38,1.38c0,0.53,0.29,0.98,0.72,1.21c0.01,0,0.02,0.01,0.03,0.01
	c0.1,0.05,0.16,0.11,0.21,0.16c0.35,0.36,0.47,1,0.51,1.39c0,0.11,0.01,0.2,0.01,0.27v3.93c0,0.76,0.62,1.38,1.38,1.38
	s1.38-0.62,1.38-1.38v-3.97l0,0v-0.6l0,0v-0.01l0,0c0.01-0.74,0.6-1.33,1.34-1.33c0.74,0,1.34,0.59,1.34,1.33l0,0v0.01l0,0v0.58
	c0,0,0.01,0.03,0.01,0.04v3.95c0,0.76,0.61,1.37,1.37,1.37c0.76,0,1.37-0.61,1.37-1.37v-3.99c0-0.54-0.1-2.28-1.27-3.51
	C57.25,70.37,56.23,69.96,55.04,69.96"/>
<g>
	<path class="st3" d="M14.85,77.7L14.85,77.7c0.29,0,0.53-0.24,0.53-0.53v-6.79c0-0.29-0.24-0.53-0.53-0.53l0,0
		c-0.29,0-0.53-0.24-0.53-0.53v-1.2c0-0.29,0.24-0.53,0.53-0.53h5.02c2.56,0,3.92,1.52,3.92,3.48c0,0.95-0.57,1.82-1.33,2.26v0.11
		c0.88,0.42,1.71,1.34,1.71,2.72c0,2.4-1.86,3.8-3.94,3.8h-5.39c-0.29,0-0.53-0.24-0.53-0.53v-1.2
		C14.32,77.94,14.55,77.7,14.85,77.7L14.85,77.7z M19.83,72.52c0.8,0,1.33-0.57,1.33-1.29s-0.57-1.25-1.33-1.25h-1.38
		c-0.29,0-0.53,0.24-0.53,0.53v1.49c0,0.29,0.24,0.53,0.53,0.53H19.83z M19.88,77.59c0.9,0,1.61-0.58,1.61-1.5s-0.73-1.49-1.63-1.49
		h-1.41c-0.29,0-0.53,0.24-0.53,0.53v1.93c0,0.29,0.24,0.53,0.53,0.53L19.88,77.59L19.88,77.59z"/>
	<path class="st3" d="M25.59,76.9v-5.55c0-0.39,0.32-0.71,0.71-0.71h1.1c0.43,0,0.77,0.35,0.77,0.77v4.66c0,0.85,0.52,1.5,1.29,1.61
		c0.97,0.14,1.84-0.66,1.84-1.65v-4.65c0-0.41,0.33-0.74,0.74-0.74h1.11c0.41,0,0.74,0.33,0.74,0.74v8c0,0.32-0.26,0.58-0.58,0.58
		h-1.15c-0.47,0-0.85-0.38-0.85-0.85l0,0h-0.18l0,0c-0.42,0.6-1.18,1.08-2.26,1.08C26.9,80.19,25.59,78.72,25.59,76.9L25.59,76.9z"
		/>
	<path class="st3" d="M36.72,76.93l0.02,0c0.44-0.08,0.88,0.11,1.15,0.47c0.32,0.43,0.89,0.62,1.52,0.62c0.78,0,1.17-0.3,1.17-0.74
		c0-1.54-4.88-0.25-4.88-3.96c0-1.61,1.49-2.9,3.55-2.9c1.2,0,2.18,0.34,2.85,0.99c0.64,0.63,0.34,1.71-0.52,1.94l0,0
		c-0.42,0.11-0.87-0.01-1.16-0.34c-0.28-0.31-0.68-0.48-1.14-0.48c-0.62,0-1.04,0.27-1.04,0.67c0,1.45,4.93,0.25,4.93,3.82
		c0,1.87-1.47,3.16-3.89,3.16c-1.38,0-2.61-0.47-3.31-1.45C35.49,78.05,35.89,77.08,36.72,76.93L36.72,76.93z"/>
	<path class="st3" d="M60.72,75.31c0-2.92,2.16-4.9,4.76-4.9c2.86,0,4.65,2.12,4.65,4.88l0,0c0,0.36-0.29,0.65-0.65,0.65h-6.1l0,0
		c0.02,1.22,0.92,1.96,2.14,1.96c0.75,0,1.47-0.26,1.87-0.86c0.1-0.15,0.28-0.22,0.46-0.18l1.49,0.34c0.27,0.06,0.42,0.36,0.3,0.61
		c-0.78,1.72-2.43,2.37-4.09,2.37C62.7,80.19,60.72,78.12,60.72,75.31L60.72,75.31z M67.16,74.23c0.2,0,0.35-0.2,0.28-0.39
		c-0.27-0.74-1.02-1.29-1.95-1.29c-1.01,0-1.7,0.59-1.98,1.27c-0.08,0.19,0.06,0.4,0.27,0.4H67.16z"/>
	<path class="st3" d="M72.97,76.88L72.97,76.88c0.32-0.06,0.65,0.08,0.8,0.37c0.29,0.53,0.92,0.77,1.62,0.77
		c0.78,0,1.17-0.3,1.17-0.74c0-1.54-4.88-0.25-4.88-3.96c0-1.61,1.49-2.9,3.55-2.9c1.46,0,2.59,0.5,3.23,1.45
		c0.35,0.52,0.06,1.22-0.54,1.38l-0.07,0.02c-0.56,0.15-1.14-0.01-1.59-0.39c-0.27-0.22-0.61-0.35-1-0.35
		c-0.62,0-1.04,0.27-1.04,0.67c0,1.45,4.93,0.25,4.93,3.82c0,1.87-1.47,3.16-3.89,3.16c-1.2,0-2.28-0.35-3.01-1.09
		C71.52,78.35,71.93,77.07,72.97,76.88L72.97,76.88z"/>
	<path class="st3" d="M81.73,76.93L81.73,76.93c0.46-0.08,0.9,0.12,1.19,0.49c0.32,0.41,0.89,0.61,1.51,0.61
		c0.78,0,1.17-0.3,1.17-0.74c0-1.54-4.88-0.25-4.88-3.96c0-1.61,1.49-2.9,3.55-2.9c1.2,0,2.18,0.34,2.85,0.99
		c0.67,0.66,0.34,1.71-0.52,1.94l0,0c-0.42,0.11-0.87-0.01-1.16-0.34c-0.28-0.31-0.68-0.48-1.14-0.48c-0.62,0-1.04,0.27-1.04,0.67
		c0,1.45,4.93,0.25,4.93,3.82c0,1.87-1.47,3.16-3.89,3.16c-1.38,0-2.61-0.47-3.31-1.45C80.49,78.06,80.9,77.08,81.73,76.93
		L81.73,76.93z"/>
</g>
<path class="st3" d="M47.01,70.24L47.01,70.24c-0.75,0-1.35,0.6-1.35,1.35v7.15c0,0.75,0.6,1.35,1.35,1.35
	c0.75,0,1.35-0.6,1.35-1.35v-7.15C48.37,70.84,47.76,70.24,47.01,70.24"/>
<path class="st3" d="M47.01,69.39c0.75,0,1.35-0.6,1.35-1.35s-0.6-1.35-1.35-1.35c-0.75,0-1.35,0.6-1.35,1.35
	S46.26,69.39,47.01,69.39"/>
<path class="st3" d="M55.04,69.96c-1.32,0-2.18,0.5-2.7,0.99c-0.16-0.15-0.35-0.28-0.54-0.4c-0.11-0.08-0.21-0.14-0.33-0.18
	c-0.15-0.06-0.32-0.09-0.49-0.09c-0.76,0-1.38,0.62-1.38,1.38c0,0.53,0.29,0.98,0.72,1.21c0.01,0,0.02,0.01,0.03,0.01
	c0.1,0.05,0.16,0.11,0.21,0.16c0.35,0.36,0.47,1,0.51,1.39c0,0.11,0.01,0.2,0.01,0.27v3.93c0,0.76,0.62,1.38,1.38,1.38
	s1.38-0.62,1.38-1.38v-3.97l0,0v-0.6l0,0v-0.01l0,0c0.01-0.74,0.6-1.33,1.34-1.33c0.74,0,1.34,0.59,1.34,1.33l0,0v0.01l0,0v0.58
	c0,0,0.01,0.03,0.01,0.04v3.95c0,0.76,0.61,1.37,1.37,1.37c0.76,0,1.37-0.61,1.37-1.37v-3.99c0-0.54-0.1-2.28-1.27-3.51
	C57.25,70.37,56.23,69.96,55.04,69.96"/>
</svg>
