<?xml version="1.0" encoding="utf-8"?>
<!-- Generator: Adobe Illustrator 28.1.0, SVG Export Plug-In . SVG Version: 6.00 Build 0)  -->
<svg version="1.1" id="Laag_1" xmlns="http://www.w3.org/2000/svg" xmlns:xlink="http://www.w3.org/1999/xlink" x="0px" y="0px"
	 viewBox="0 0 100 100" style="enable-background:new 0 0 100 100;" xml:space="preserve">
<style type="text/css">
	.st0{fill:#2F5252;}
	.st1{opacity:0.2;fill:#FFFFFF;enable-background:new    ;}
	.st2{fill:#FFFFFF;}
</style>
<path class="st0" d="M90,100H10c-5.5,0-10-4.5-10-10V10C0,4.5,4.5,0,10,0h80c5.5,0,10,4.5,10,10v80C100,95.5,95.5,100,90,100z"/>
<path class="st1" d="M95.3,77.8C95.2,76.5,95.2,64,95,62.7c-0.2-26.5-27-46.5-52.7-39.2c0,4.4-0.2,8.9,0,13.4
	c1,20.1,13.8,35.9,32.5,40.2C81,78.5,88.9,77.9,95.3,77.8"/>
<g id="vMxTdD.tif">
</g>
<path class="st2" d="M109.8,46.6"/>
<g id="zZ9SQo.tif">
	<g>
		<path class="st2" d="M17.7,41.4c0,0.7,0,1.5,0,2.2c0,0.8-0.2,1.4-0.7,2c-2.6,3-5.2,5.9-7.7,8.9C9.1,54.6,9,54.7,8.9,55
			c0.3,0,0.4,0,0.6,0c1.8,0,3.7,0,5.5,0c1.7,0,2.9,1.4,2.7,3.2c-0.1,0-0.2,0-0.3,0c-4.2,0-8.4,0-12.6,0c-0.1,0-0.2,0-0.3,0
			c0-0.9,0-1.7,0-2.6c0.2-1,0.9-1.7,1.5-2.4c2.3-2.7,4.7-5.4,7-8.1c0.1-0.1,0.2-0.2,0.3-0.4c-0.2,0-0.4,0-0.6,0c-1.7,0-3.4,0-5.2,0
			c-1.8,0-2.6-0.6-3.1-2.3c0,0,0-0.1,0-0.1c0-0.3,0-0.5,0-0.8C8.9,41.4,13.3,41.4,17.7,41.4z"/>
		<path class="st2" d="M65.4,41.4c0.2,0,0.3,0.1,0.5,0.1c1.4,0.4,2.4,1.6,2.5,3c0,0.4,0,0.7,0,1.1c-2.5,0.5-4.3-1.2-4.3-3.3
			c0-0.3,0-0.6,0-0.9C64.5,41.4,64.9,41.4,65.4,41.4z"/>
		<path class="st2" d="M73.9,46.6c0,0.4,0,0.7,0,1.1c0.1,0,0.1-0.1,0.2-0.1c1.8-2.3,5.3-1.8,6.9,0.9c0.4,0.7,0.6,1.5,0.6,2.3
			c0,2.3,0,4.7,0,7c0,0.1,0,0.1,0,0.3c-0.4,0-0.8,0-1.1,0c-0.5,0-1.1,0-1.6,0c-0.4,0-0.5-0.1-0.5-0.5c0-1.9,0-3.9,0-5.8
			c0-1.1-0.6-1.9-1.5-2.2c-1.4-0.5-2.8,0.6-2.8,2c0,2,0,4,0,5.9c0,0.2,0,0.3,0,0.5c-1.1,0-2.1,0-3.3,0c0-0.2,0-0.3,0-0.5
			c0-2.9,0-5.8,0-8.8c0-0.9,0.3-1.3,1.1-1.6C72.4,47.1,73.1,46.9,73.9,46.6z"/>
		<path class="st2" d="M22.2,46.7c0,0.7,0,1.4,0,2c0,1.4,0,2.9,0,4.3c0,1.1,0.7,1.9,1.7,2.2c1,0.2,2-0.2,2.4-1.1
			c0.2-0.3,0.2-0.7,0.2-1.1c0-1.3,0-2.7,0-4c0-0.8,0.3-1.3,1.1-1.6c0.7-0.2,1.4-0.5,2.1-0.7c0,3.9,0,7.7,0,11.5
			c-1.2,0.1-2.3,0.1-3.2-0.9c-0.1,0.1-0.2,0.1-0.2,0.2c-1.5,1.2-3.1,1.4-4.7,0.7c-1.7-0.8-2.6-2.2-2.6-4c0-1.7,0-3.5,0-5.2
			c0-0.7,0.3-1.2,1-1.4C20.7,47.2,21.4,46.9,22.2,46.7z"/>
		<path class="st2" d="M40.2,48.2c-0.8,0.4-1.5,0.9-2.2,1.3c-0.2,0.1-0.5,0-0.7-0.1c-0.6-0.4-1.1-0.5-1.8-0.4
			c-0.5,0.1-0.8,0.4-0.9,0.8c0,0.5,0.1,0.7,0.7,0.9c0.9,0.3,1.8,0.6,2.7,1c0.4,0.2,0.7,0.4,1.1,0.7c1.5,1.3,1.6,3.3,0.2,4.7
			c-1.4,1.4-3.1,1.7-5,1.1c-0.7-0.2-1.4-0.6-2-1c-0.4-0.2-0.6-0.7-1-1c0.9-0.4,1.7-0.7,2.5-1.1c0.2-0.1,0.5,0.1,0.6,0.2
			c0.7,0.5,1.4,0.6,2.1,0.4c0.4-0.1,0.7-0.4,0.7-0.8c0-0.4-0.2-0.7-0.6-0.8c-0.4-0.1-0.8-0.2-1.2-0.3c-1.1-0.2-2-0.7-2.9-1.4
			c-1.4-1.3-1.2-3.4-0.3-4.4c1.1-1.4,2.6-1.8,4.4-1.6C38.1,46.4,39.3,47,40.2,48.2z"/>
		<path class="st2" d="M48.8,55.1c0,1,0,2,0,3.1c-1.2-0.1-2.5,0.2-3.6-0.4c-1.3-0.7-2-1.7-2-3.2c0-1.4,0-2.8,0-4.3
			c0-0.2,0-0.3,0-0.5c-0.5,0-1,0-1.5,0c0-1.1,0-2,0-3c0-0.1,0.2-0.2,0.3-0.2c0.4,0,0.8,0,1.2,0c0-0.5,0-1,0-1.4
			c0-0.9,0.3-1.3,1.1-1.5c0.7-0.2,1.4-0.5,2.1-0.7c0,1.2,0,2.4,0,3.7c0.7,0,1.3,0,2,0c0,1.1,0,2.1,0,3.2c-0.5,0-1.1,0-1.6,0
			c-0.3,0-0.4,0.1-0.4,0.4c0,1.2,0,2.5,0,3.7c0,0.7,0.3,1,1,1C47.9,55,48.3,55,48.8,55.1C48.7,55,48.8,55,48.8,55.1z"/>
		<path class="st2" d="M68.4,45.9c0,0.3,0,0.4,0,0.6c0,3.7,0,7.5,0,11.2c0,0.6,0,0.6-0.6,0.6c-0.7,0-1.5,0-2.2,0
			c-0.3,0-0.5-0.1-0.4-0.4c0-3.1,0-6.1,0-9.2c0-0.8,0.4-1.4,1.1-1.8C66.9,46.5,67.6,46.2,68.4,45.9z"/>
		<path class="st2" d="M92.3,47.1c0-0.4,0.1-0.5,0.5-0.5c0.9,0,1.9,0,2.8,0c0,3.7,0,7.5,0,11.2c0,0.5,0.1,0.4-0.4,0.4
			c-0.9,0-1.8,0-2.6-0.6c-0.1-0.1-0.3,0-0.5,0.1c-3.1,1.7-7,0.5-8.5-2.7c-1.3-2.7-0.5-6,2.1-7.8c1.8-1.2,4.2-1.3,6.2-0.3
			C92,47,92.1,47,92.3,47.1z M85.9,52.3c0,1.8,1.4,3.2,3.2,3.2c1.7,0,3.2-1.4,3.2-3.2c0-1.7-1.4-3.2-3.2-3.2
			C87.3,49.2,85.9,50.6,85.9,52.3z"/>
		<path class="st2" d="M59.5,47.1c0-0.4,0.1-0.5,0.5-0.5c0.9,0,1.9,0,2.8,0c0,3.7,0,7.5,0,11.2c0,0.5,0.1,0.4-0.4,0.4
			c-0.9,0-1.8,0-2.6-0.6c-0.1-0.1-0.3,0-0.5,0.1c-3.1,1.7-7,0.5-8.5-2.7c-1.3-2.7-0.5-6,2.1-7.8c1.8-1.2,4.2-1.3,6.2-0.3
			C59.2,47,59.3,47,59.5,47.1z M53.1,52.3c0,1.8,1.4,3.2,3.2,3.2c1.7,0,3.2-1.4,3.2-3.2c0-1.7-1.4-3.2-3.2-3.2
			C54.5,49.2,53.1,50.6,53.1,52.3z"/>
	</g>
</g>
</svg>
