<?xml version="1.0" encoding="UTF-8"?>
<svg id="Laag_1" data-name="Laag 1" xmlns="http://www.w3.org/2000/svg" viewBox="0 0 100 100">
  <defs>
    <style>
      .cls-1 {
        fill: #fff;
      }

      .cls-1, .cls-2 {
        stroke-width: 0px;
      }

      .cls-2 {
        fill: #0800b5;
      }
    </style>
  </defs>
  <path class="cls-2" d="M57.49,61.34c-2.06,0-3.8,1.38-4.38,3.25h8.75c-.57-1.89-2.3-3.25-4.37-3.25Z"/>
  <path class="cls-2" d="M86.44,0H13.56C6.07,0,0,6.07,0,13.56v72.88c0,7.49,6.07,13.56,13.56,13.56h72.88c7.49,0,13.56-6.07,13.56-13.56V13.56c0-7.49-6.07-13.56-13.56-13.56ZM57.38,39.92c0-4.01,3.25-7.25,7.25-7.25s7.25,3.25,7.25,7.25v6.98h-2.73v-6.98c0-2.49-2.03-4.52-4.52-4.52s-4.52,2.03-4.52,4.52v6.98h-2.73v-6.98ZM53.05,27.52c1.01,0,1.84.84,1.84,1.84s-.83,1.84-1.84,1.84-1.84-.83-1.84-1.84.83-1.84,1.84-1.84ZM54.43,33.02v13.86h-2.73v-13.86h2.73ZM19.07,73.16c-4.01,0-7.25-3.25-7.25-7.22v-12.72h2.73v7.7c.6-1.01,1.43-1.55,2.25-1.86.7-.24,1.48-.38,2.27-.38,3.99,0,7.24,3.25,7.24,7.24s-3.25,7.24-7.24,7.24ZM25.43,31.68l-.1-.1c-1.08-1.22-2.17-2.03-3.92-2.03-2.49,0-4.52,2.03-4.52,4.52v3.15h7.77v2.75h-7.77v6.93h-2.72v-12.82c0-3.99,3.27-7.24,7.25-7.24.72,0,1.46.1,2.15.33.02,0,2.01.64,3.37,2.23l.1.12-1.62,2.17ZM31.12,72.91h-2.73v-19.72h2.73v19.72ZM31.13,46.9h-2.73v-19.72h2.73v19.72ZM48.39,65.91c0,4.01-3.25,7.25-7.25,7.25-1.89,0-3.7-.74-5.05-2.06-1.36-1.34-2.13-3.11-2.18-5v-7.07h2.73v6.88c0,2.49,2.03,4.52,4.52,4.52s4.52-2.03,4.52-4.52v-6.88h2.72v6.88ZM48.5,45.97c0,3.99-3.47,7.24-7.75,7.24-.77,0-1.56-.1-2.3-.33-.03,0-2.18-.64-3.63-2.23l-.1-.12,1.6-2.15.09.09c1.46,1.41,2.8,2.03,4.35,2.03,2.73,0,5.04-2.06,5.04-4.52v-1.07c-.6,1.01-1.43,1.55-2.25,1.86-.7.24-1.48.38-2.27.38-3.99,0-7.24-3.25-7.24-7.24v-6.88h2.72v6.88c0,2.49,2.03,4.52,4.52,4.52s4.52-2.03,4.52-4.52v-6.88h2.72v12.94ZM64.62,67.13h-11.53c.53,1.94,2.3,3.35,4.4,3.35,1.39,0,2.65-.64,3.49-1.63v-.02h3.13c-1.12,2.54-3.66,4.31-6.62,4.31-3.99,0-7.24-3.25-7.24-7.24s3.23-7.24,7.24-7.24,7.24,3.23,7.24,7.24c0,.41-.03.83-.1,1.22ZM76.14,60.15h-4.25v4.25h-2.73v-4.25h-4.25v-2.73h4.25v-4.25h2.73v4.25h4.25v2.73ZM88.19,45.97c0,3.99-3.47,7.24-7.75,7.24-.77,0-1.56-.1-2.3-.33-.03,0-2.18-.64-3.63-2.23l-.1-.12,1.6-2.15.09.09c1.46,1.41,2.8,2.03,4.35,2.03,2.73,0,5.04-2.06,5.04-4.52v-1.07c-.6,1.01-1.43,1.55-2.25,1.86-.7.24-1.48.38-2.27.38-3.99,0-7.24-3.25-7.24-7.24s3.25-7.24,7.24-7.24,7.25,3.25,7.24,7.22v6.09Z"/>
  <circle class="cls-2" cx="80.95" cy="39.92" r="4.52"/>
  <circle class="cls-2" cx="19.07" cy="65.91" r="4.52"/>
  <path class="cls-1" d="M45.78,39.9c0,2.49-2.03,4.52-4.52,4.52s-4.52-2.03-4.52-4.52v-6.88h-2.72v6.88c0,3.99,3.25,7.24,7.24,7.24.79,0,1.56-.14,2.27-.38.83-.31,1.65-.84,2.25-1.86v1.07c0,2.46-2.3,4.52-5.04,4.52-1.55,0-2.89-.62-4.35-2.03l-.09-.09-1.6,2.15.1.12c1.44,1.6,3.59,2.23,3.63,2.23.74.22,1.53.33,2.3.33,4.28,0,7.75-3.25,7.75-7.24v-12.94h-2.72v6.88Z"/>
  <path class="cls-1" d="M53.05,31.2c1.01,0,1.84-.83,1.84-1.84s-.83-1.84-1.84-1.84-1.84.83-1.84,1.84.83,1.84,1.84,1.84Z"/>
  <path class="cls-1" d="M80.95,32.66c-3.99,0-7.24,3.25-7.24,7.24s3.25,7.24,7.24,7.24c.79,0,1.56-.14,2.27-.38.83-.31,1.65-.84,2.25-1.86v1.07c0,2.46-2.3,4.52-5.04,4.52-1.55,0-2.89-.62-4.35-2.03l-.09-.09-1.6,2.15.1.12c1.44,1.6,3.59,2.23,3.63,2.23.74.22,1.53.33,2.3.33,4.28,0,7.75-3.25,7.75-7.24v-6.09c.02-3.97-3.23-7.22-7.24-7.22ZM80.95,44.44c-2.49,0-4.52-2.03-4.52-4.52s2.03-4.52,4.52-4.52,4.52,2.03,4.52,4.52-2.03,4.52-4.52,4.52Z"/>
  <path class="cls-1" d="M23.57,27.16c-.69-.22-1.43-.33-2.15-.33-3.99,0-7.25,3.25-7.25,7.24v12.82h2.72v-6.93h7.77v-2.75h-7.77v-3.15c0-2.49,2.03-4.52,4.52-4.52,1.75,0,2.84.81,3.92,2.03l.1.1,1.62-2.17-.1-.12c-1.36-1.6-3.35-2.23-3.37-2.23Z"/>
  <rect class="cls-1" x="28.4" y="27.18" width="2.73" height="19.72"/>
  <rect class="cls-1" x="51.69" y="33.02" width="2.73" height="13.86"/>
  <path class="cls-1" d="M60.12,39.92c0-2.49,2.03-4.52,4.52-4.52s4.52,2.03,4.52,4.52v6.98h2.73v-6.98c0-4.01-3.25-7.25-7.25-7.25s-7.25,3.25-7.25,7.25v6.98h2.73v-6.98Z"/>
  <path class="cls-1" d="M19.07,58.69c-.79,0-1.56.14-2.27.38-.83.31-1.65.84-2.25,1.86v-7.7h-2.73v12.72c0,3.97,3.25,7.22,7.25,7.22s7.24-3.25,7.24-7.24-3.25-7.24-7.24-7.24ZM19.07,70.43c-2.49,0-4.52-2.03-4.52-4.52s2.03-4.52,4.52-4.52,4.52,2.03,4.52,4.52-2.03,4.52-4.52,4.52Z"/>
  <path class="cls-1" d="M45.68,65.91c0,2.49-2.03,4.52-4.52,4.52s-4.52-2.03-4.52-4.52v-6.88h-2.73v7.07c.05,1.89.83,3.66,2.18,5,1.36,1.32,3.16,2.06,5.05,2.06,4.01,0,7.25-3.25,7.25-7.25v-6.88h-2.72v6.88Z"/>
  <path class="cls-1" d="M57.49,58.67c-4.01,0-7.24,3.25-7.24,7.24s3.25,7.24,7.24,7.24c2.96,0,5.5-1.77,6.62-4.31h-3.13v.02c-.84,1-2.1,1.63-3.49,1.63-2.1,0-3.87-1.41-4.4-3.35h11.53c.07-.4.1-.81.1-1.22,0-4.01-3.25-7.24-7.24-7.24ZM53.1,64.59c.58-1.87,2.32-3.25,4.38-3.25s3.8,1.36,4.37,3.25h-8.75Z"/>
  <rect class="cls-1" x="28.38" y="53.19" width="2.73" height="19.72"/>
  <polygon class="cls-1" points="71.89 53.17 69.16 53.17 69.16 57.42 64.91 57.42 64.91 60.15 69.16 60.15 69.16 64.4 71.89 64.4 71.89 60.15 76.14 60.15 76.14 57.42 71.89 57.42 71.89 53.17"/>
</svg>