<?xml version="1.0" encoding="UTF-8"?>
<svg id="Black" xmlns="http://www.w3.org/2000/svg" viewBox="0 0 100 100">
  <defs>
    <style>
      .cls-1 {
        fill: #1d1d1b;
        stroke-width: 0px;
      }
    </style>
  </defs>
  <g>
    <path class="cls-1" d="M100,100V0H0v100h100ZM96.18,95.78H3.81V3.76h92.36v92.02h0Z"/>
    <polygon class="cls-1" points="27.58 14.5 27.58 18.12 74.6 18.12 74.6 14.5 27.58 14.5 27.58 14.5"/>
    <polygon class="cls-1" points="27.58 81.88 27.58 85.5 74.6 85.5 74.6 81.88 27.58 81.88 27.58 81.88"/>
    <path class="cls-1" d="M77.44,68.45c-1.81,0-2.75-1.09-2.75-2.66v-5.99c0-.57-.46-1.04-1.03-1.04s-1.03.47-1.03,1.04v5.77c0,2.89,1.8,4.72,4.81,4.72s4.81-1.83,4.81-4.72v-5.77c0-.57-.46-1.04-1.03-1.04s-1.03.47-1.03,1.04v5.99c0,1.56-.95,2.66-2.75,2.66h0ZM50.76,64.5c0-3.13-2.18-5.6-5.6-5.6h-3.09c-.57,0-1.05.45-1.05,1.02v9.13c0,.57.47,1.04,1.05,1.04h3.09c3.43,0,5.6-2.47,5.6-5.6h0ZM48.71,64.5c0,2.17-1.32,3.7-3.65,3.7h-1.98v-7.4h1.98c2.33,0,3.65,1.53,3.65,3.7h0ZM39.82,68.87l-4.32-9.57c-.15-.35-.44-.54-.88-.54s-.73.2-.88.54l-4.32,9.57c-.07.13-.1.27-.1.4,0,.49.37.96.98.96.44,0,.68-.22.86-.56l.96-2.05h5l.96,2.05c.19.35.42.56.86.56.61,0,.98-.47.98-.96,0-.13-.03-.27-.1-.4h0ZM36.38,65.83h-3.51l1.76-4.27,1.76,4.27h0ZM18.79,64.5c0,3.52,2.43,5.8,5.74,5.8,1.32,0,2.8-.44,3.77-1.43.2-.2.32-.42.32-.69,0-.5-.36-.94-.93-.94-.24,0-.46.08-.68.24-.64.49-1.33.92-2.48.92-2.21,0-3.66-1.67-3.66-3.9s1.45-3.9,3.66-3.9c1.15,0,1.84.44,2.48.92.22.15.44.24.68.24.57,0,.93-.44.93-.94,0-.27-.12-.49-.32-.69-.96-.99-2.45-1.43-3.77-1.43-3.31,0-5.74,2.29-5.74,5.8h0ZM52.31,59.92v9.15c0,.57.47,1.02,1.05,1.02h6.33c.54,0,.98-.4.98-.94s-.44-.96-.98-.96h-5.32v-2.83h2.79c.52,0,.96-.4.96-.94s-.44-.96-.96-.96h-2.79v-2.68h5.06c.54,0,.98-.42.98-.96s-.44-.94-.98-.94h-6.08c-.57,0-1.05.45-1.05,1.02h0ZM61.44,68.87c-.07.13-.1.27-.1.4,0,.49.37.96.98.96.44,0,.68-.22.86-.56l.96-2.05h5l.96,2.05c.19.35.42.56.86.56.61,0,.98-.47.98-.96,0-.13-.03-.27-.1-.4l-4.32-9.57c-.15-.35-.44-.54-.88-.54s-.73.2-.88.54l-4.32,9.57h0ZM64.88,65.83l1.76-4.27,1.76,4.27h-3.51,0Z"/>
  </g>
  <g>
    <path class="cls-1" d="M24.55,29.6h4.02v10.15c1.26-2.06,4.17-7.22,6-10.15h4.69l-5.87,8.85,5.98,13.8h-4.52l-4.24-10.41-2.05,2.87v7.54h-4.02v-22.65h0Z"/>
    <path class="cls-1" d="M44.66,29.6v22.65h-4.08v-22.65h4.08Z"/>
    <path class="cls-1" d="M47.62,29.6h5.92c5.85,0,8.12,3.73,8.12,10.86,0,7.65-2.18,11.79-8.43,11.79h-5.61v-22.65h0ZM51.73,48.94h1.46c3.18,0,4.28-2.38,4.28-8.46,0-5.21-.97-7.5-4.24-7.5h-1.49v15.96h0Z"/>
    <path class="cls-1" d="M66.57,45.91c.2,1.88.95,3.53,3.03,3.53s2.75-1.25,2.75-2.94c0-1.86-.92-2.94-3.79-4.31-3.89-1.84-5.42-3.47-5.42-6.84,0-3.63,2.34-6.11,6.45-6.11,5.11,0,6.38,3.45,6.44,6.4h-3.99c-.13-1.3-.47-3.2-2.52-3.2-1.61,0-2.33,1.04-2.33,2.58,0,1.63.73,2.39,3.39,3.63,4.08,1.88,5.91,3.7,5.91,7.49,0,3.56-2.21,6.5-7.01,6.5-5.23,0-6.82-3.33-6.96-6.73h4.05,0Z"/>
  </g>
</svg>