<?xml version="1.0" encoding="utf-8"?>
<!-- Generator: Adobe Illustrator 25.4.0, SVG Export Plug-In . SVG Version: 6.00 Build 0)  -->
<svg version="1.1" id="Laag_1" xmlns="http://www.w3.org/2000/svg" xmlns:xlink="http://www.w3.org/1999/xlink" x="0px" y="0px"
	 viewBox="0 0 100 100" style="enable-background:new 0 0 100 100;" xml:space="preserve">
<style type="text/css">
	.st0{fill:#1D1D1B;}
	.st1{fill:#EA5B0C;}
	.st2{fill:#B52011;}
	.st3{fill:#F59E00;}
</style>
<path class="st0" d="M10.1-0.4h79.3c5.7,0,10.4,4.6,10.4,10.4v79.3c0,5.7-4.6,10.4-10.4,10.4H10.1C4.4,99.6-0.2,95-0.2,89.2V10
	C-0.2,4.3,4.4-0.4,10.1-0.4z"/>
<polygon class="st1" points="59.9,67.8 39.6,67.8 39.6,31.4 59.9,31.4 "/>
<path class="st2" d="M40.9,49.6c0-7.1,3.3-13.8,8.9-18.2c-10.1-7.9-24.6-6.2-32.5,3.9S11,59.9,21.1,67.8c8.4,6.6,20.3,6.6,28.7,0
	C44.2,63.5,40.9,56.7,40.9,49.6"/>
<path class="st3" d="M87.3,49.6c0,12.8-10.4,23.2-23.2,23.2c-5.2,0-10.3-1.7-14.3-5c10.1-7.9,11.8-22.5,3.9-32.5
	c-1.1-1.5-2.5-2.8-3.9-3.9c10.1-7.9,24.6-6.2,32.5,3.9C85.5,39.4,87.3,44.4,87.3,49.6"/>
</svg>
