<?xml version="1.0" encoding="UTF-8"?>
<svg id="Laag_1" xmlns="http://www.w3.org/2000/svg" viewBox="0 0 100.1 100.1">
  <defs>
    <style>
      .cls-1 {
        fill: #45a041;
      }

      .cls-2 {
        fill: #fff;
      }
    </style>
  </defs>
  <g id="BG">
    <path class="cls-1" d="M86.4,100H13.6c-7.5,0-13.6-6.1-13.6-13.6V13.6C0,6.1,6.1,0,13.6,0h72.9C94,0,100.1,6.1,100.1,13.6v72.9c0,7.5-6.1,13.6-13.6,13.6l-.1-.1Z"/>
  </g>
  <g>
    <path class="cls-2" d="M24.1,51.79v-4.5c-1.24.22-1.61-.43-1.85-.55-.32-.17-.53-.1-.65.06-.12.16-.1.36.01.6.36.76.8.97,1.21,1.68.3.52.43,2.18-1.46,2.2-.59,0-1.01-.43-1.22-.79-.25-.44-.28-1.16-.28-1.19,0-.59.31-1.34.34-1.64,0-.09.02-.2-.03-.35-.15-.39-.78-.14-.99.05-.34.33-.38.7-.4,1.1-.02.34.1,1.47-.14,2.22-.14.46-.37.84-.6,1.1h6.06ZM24.1,44.54v-4.44h-1.39c.25.24.91,1.2.29,2.59-.18.42-.48.78-.95,1.23-.44.42-.86.57-.78.99.06.34.77.31,1.19.01.49-.34.93-.62,1.65-.39ZM21.28,40.1h-3.27c.73.82.97,2.44.96,3.3,0,.49.23.88.58,1,.17.06.57-.01.75-.39.19-.43.07-1.75.07-2.2,0-.59.3-1.34.91-1.7Z"/>
    <path class="cls-2" d="M15.43,37.11c0-.95-.75-1.69-1.67-1.69s-1.69.74-1.69,1.69.75,1.79,1.69,1.79,1.67-.84,1.67-1.79Z"/>
    <path class="cls-2" d="M17.9,46.98c.11-.16.3-.66-.29-.62-.5.03-.45.22-1.37.39-.45.08-1.1-.12-1.34-.28-.22-.14-.6-.52-.47-1.43.15-1.08,1.13-1.4,2.52-.61.4.23.87.13.88-.16.01-.28-.19-.37-.35-.48-1.17-.74-2.14-2.25-1.75-3.69h-3.46c-.27,0-.32.06-.32.31v1.43c0,.24.05.31.32.31h1.24s0,7.61,0,7.61h-1.24c-.27,0-.32.07-.32.31v1.42c0,.24.05.3.33.3h3.53c-.4-.89-.15-1.98.37-2.83.57-.94,1.09-1.03,1.72-1.98Z"/>
    <path class="cls-2" d="M29.58,41.41c0-.74-.59-1.33-1.31-1.33s-1.33.58-1.33,1.33.59,1.34,1.33,1.34,1.31-.6,1.31-1.34ZM26.1,44.04v1.04c0,.18.03.22.22.22h1.04v4.98h-1.02c-.19,0-.22.05-.22.22v1.04c0,.18.03.23.22.23h4.06c.19,0,.22-.05.22-.23v-1.04c0-.18-.03-.22-.22-.22h-1.02v-6.24c0-.18-.03-.22-.22-.22h-2.84c-.19,0-.22.05-.22.22ZM31.36,44.04v1.04c0,.16.03.22.22.22h.77c.1.34.16.57.16,1.37v3.6h-.81c-.19,0-.22.05-.22.22v1.04c0,.18.03.23.22.23h3.65c.19,0,.22-.05.22-.23v-1.04c0-.18-.03-.22-.22-.22h-.82v-4.38c.21-.19.7-.66,1.37-.66.82,0,.9.74.9,1.35v4.96c0,.18.03.23.22.23h2.61c.19,0,.22-.05.22-.23v-1.04c0-.18-.03-.22-.22-.22h-.81v-4.2c0-1.39-.38-2.54-2.07-2.54-1.26,0-1.97.7-2.45,1.12-.11-.36-.13-.84-.51-.84h-2.22c-.19,0-.22.05-.22.22ZM39.93,45.3h1.13v3.63c0,1.48,0,3.12,2.05,3.12,1.08,0,2.25-.31,2.25-.6,0-.05-.02-.1-.03-.15l-.32-1.33c-.02-.06-.06-.1-.13-.1-.22,0-.62.31-1.26.31-.54,0-.54-.47-.54-.98v-3.9h1.55c.16,0,.25-.02.3-.22l.22-.95c.02-.06.03-.1.03-.16,0-.13-.13-.16-.29-.16h-1.82v-2.26c0-.19-.02-.27-.16-.27-.1,0-.16.02-.21.02l-1.4.19c-.22.03-.26.08-.26.29v2.03h-1.13c-.19,0-.22.05-.22.22v1.04c0,.18.03.22.22.22ZM46.24,44.04v1.04c0,.18.03.22.22.22h.77c.08.34.16.57.16,1.37v3.6h-.81c-.19,0-.22.05-.22.22v1.04c0,.18.03.23.22.23h3.7c.19,0,.22-.05.22-.23v-1.04c0-.18-.03-.22-.22-.22h-.86v-4.11c.21-.23.72-.77,1.21-.77.37,0,.65.18.75.18.06,0,.11-.1.13-.14l.49-1.36s.03-.1.03-.16c0-.21-.46-.37-.92-.37-1.08,0-1.68.9-1.98,1.28-.11-.41-.18-1-.59-1h-2.07c-.19,0-.22.05-.22.22ZM52.23,49.57c0,1.52.93,2.48,2.4,2.48,1.18,0,1.73-.64,2.05-.96.06.28.1.68.48.68h2c.19,0,.22-.05.22-.23v-1.04c0-.18-.05-.22-.22-.22h-.67c-.08-.32-.16-.6-.16-1.36v-2.8c0-1.67-.75-2.59-2.75-2.59-1.23,0-2.81.39-2.81.76,0,.06.03.13.05.19l.32.98c.02.06.08.16.16.16.21,0,1.09-.48,1.98-.48,1,0,1.13.47,1.13,1.19v.5c-1.26,0-4.17,0-4.17,2.74ZM54.15,49.46c0-1.43,1.85-1.3,2.24-1.3v1.78c-.19.19-.61.62-1.19.62s-1.05-.47-1.05-1.1ZM59.43,45.3h1.13v3.63c0,1.48,0,3.12,2.05,3.12,1.09,0,2.25-.31,2.25-.6,0-.05-.02-.1-.03-.15l-.32-1.33c-.02-.06-.06-.1-.13-.1-.22,0-.62.31-1.26.31-.54,0-.54-.47-.54-.98v-3.9h1.55c.16,0,.26-.02.3-.22l.22-.95c.02-.06.03-.1.03-.16,0-.13-.13-.16-.29-.16h-1.82v-2.26c0-.19-.02-.27-.16-.27-.1,0-.16.02-.21.02l-1.4.19c-.22.03-.25.08-.25.29v2.03h-1.13c-.19,0-.22.05-.22.22v1.04c0,.18.03.22.22.22ZM65.39,44.04v1.04c0,.18.03.22.22.22h.81v4.2c0,1.4.38,2.55,2.07,2.55,1.55,0,1.97-.61,2.45-1.03.11.35.13.75.51.75h2.12c.19,0,.22-.05.22-.23v-1.04c0-.16-.03-.22-.22-.22h-.67c-.1-.34-.16-.57-.16-1.37v-4.87c0-.18-.03-.22-.22-.22h-2.61c-.19,0-.22.05-.22.22v1.04c0,.18.03.22.22.22h.82v4.47c-.21.19-.7.66-1.38.66-.82,0-.9-.82-.9-1.44v-4.96c0-.18-.03-.22-.22-.22h-2.61c-.19,0-.22.05-.22.22ZM78.12,41.41c0-.74-.59-1.33-1.31-1.33s-1.33.58-1.33,1.33.59,1.34,1.33,1.34,1.31-.6,1.31-1.34ZM74.64,44.04v1.04c0,.18.03.22.22.22h1.04v4.98h-1.02c-.19,0-.22.05-.22.22v1.04c0,.18.03.23.22.23h4.06c.19,0,.22-.05.22-.23v-1.04c0-.18-.03-.22-.22-.22h-1.02v-6.24c0-.18-.03-.22-.22-.22h-2.84c-.19,0-.22.05-.22.22ZM79.9,44.04v1.04c0,.16.03.22.22.22h.77c.1.34.16.57.16,1.37v3.6h-.81c-.19,0-.22.05-.22.22v1.04c0,.18.03.23.22.23h3.65c.19,0,.22-.05.22-.23v-1.04c0-.18-.03-.22-.22-.22h-.82v-4.38c.21-.19.7-.66,1.37-.66.82,0,.9.74.9,1.35v4.96c0,.18.03.23.22.23h2.61c.19,0,.22-.05.22-.23v-1.04c0-.18-.03-.22-.22-.22h-.81v-4.2c0-1.39-.38-2.54-2.07-2.54-1.26,0-1.97.7-2.45,1.12-.11-.36-.13-.84-.51-.84h-2.22c-.19,0-.22.05-.22.22Z"/>
    <path class="cls-2" d="M15.27,64.68c-.68,0-1.29-.17-1.83-.5-.53-.34-.96-.83-1.27-1.46-.31-.63-.46-1.39-.46-2.28s.16-1.64.47-2.27c.32-.63.75-1.12,1.3-1.46.55-.34,1.17-.51,1.86-.51.5,0,.94.1,1.32.31.38.2.69.43.92.7l-.56.67c-.22-.23-.46-.42-.74-.56-.27-.14-.59-.21-.94-.21-.52,0-.97.14-1.36.41-.38.27-.68.64-.9,1.14-.21.49-.31,1.08-.31,1.76s.1,1.28.31,1.78c.21.5.5.89.87,1.16.38.27.83.41,1.35.41.39,0,.74-.08,1.05-.25.31-.17.59-.39.85-.67l.57.65c-.32.37-.69.67-1.1.87-.41.21-.88.31-1.41.31ZM20.71,59.95l-.39,1.25h2.46l-.39-1.25c-.15-.46-.29-.91-.42-1.36-.13-.46-.27-.92-.4-1.4h-.05c-.12.47-.25.94-.39,1.4-.13.45-.27.9-.42,1.36ZM18.22,64.53l2.77-8.19h1.17l2.77,8.19h-1.11l-.77-2.5h-2.98l-.79,2.5h-1.06ZM26.09,64.53v-8.19h2.05c1.26,0,2.23.35,2.88,1.06.66.7.99,1.7.99,2.99s-.33,2.32-.99,3.04c-.65.72-1.59,1.09-2.83,1.09h-2.1ZM27.12,63.68h.94c.96,0,1.67-.29,2.15-.86.48-.58.72-1.39.72-2.42s-.24-1.82-.72-2.37c-.47-.56-1.19-.84-2.15-.84h-.94v6.49ZM33.77,64.53v-8.19h4.72v.87h-3.68v2.57h3.11v.89h-3.11v2.97h3.81v.89h-4.84ZM41.76,59.95l-.39,1.25h2.46l-.39-1.25c-.15-.46-.29-.91-.42-1.36-.13-.46-.27-.92-.4-1.4h-.05c-.12.47-.25.94-.39,1.4-.13.45-.27.9-.42,1.36ZM39.26,64.53l2.77-8.19h1.17l2.77,8.19h-1.11l-.77-2.5h-2.98l-.79,2.5h-1.06ZM49.86,64.68c-.56,0-1.06-.11-1.51-.34-.44-.22-.79-.59-1.05-1.11-.26-.52-.39-1.21-.39-2.08v-4.8h1.04v4.83c0,.66.08,1.18.25,1.56.17.37.4.64.69.8.29.16.62.24.97.24s.69-.08.99-.24c.29-.16.52-.42.69-.8.17-.38.26-.9.26-1.56v-4.83h1v4.8c0,.87-.13,1.57-.39,2.08-.26.52-.61.89-1.05,1.11-.44.22-.94.34-1.5.34ZM54.99,64.53v-8.19h1.04v4.11h.04l3.41-4.11h1.17l-2.56,3.12,2.96,5.07h-1.16l-2.45-4.25-1.41,1.66v2.6h-1.04ZM63.51,59.95l-.39,1.25h2.46l-.39-1.25c-.15-.46-.29-.91-.42-1.36-.13-.46-.27-.92-.4-1.4h-.05c-.12.47-.25.94-.39,1.4-.13.45-.27.9-.42,1.36ZM61.01,64.53l2.77-8.19h1.17l2.77,8.19h-1.11l-.77-2.5h-2.98l-.79,2.5h-1.06ZM70.22,59.95l-.39,1.25h2.46l-.39-1.25c-.15-.46-.29-.91-.42-1.36-.13-.46-.27-.92-.4-1.4h-.05c-.12.47-.25.94-.39,1.4-.13.45-.27.9-.42,1.36ZM67.72,64.53l2.77-8.19h1.17l2.77,8.19h-1.11l-.77-2.5h-2.98l-.79,2.5h-1.06ZM75.6,64.53v-8.19h2.56c.56,0,1.05.07,1.48.22.43.14.77.38,1.01.72.25.33.37.78.37,1.35,0,.63-.17,1.14-.5,1.53-.33.38-.78.64-1.35.79l2.08,3.57h-1.17l-1.97-3.46h-1.48v3.46h-1.04ZM76.63,60.23h1.37c.64,0,1.13-.13,1.47-.39.34-.27.51-.67.51-1.2s-.17-.92-.51-1.14c-.34-.22-.83-.32-1.47-.32h-1.37v3.04ZM84.23,64.53v-7.31h-2.47v-.87h5.99v.87h-2.47v7.31h-1.05Z"/>
  </g>
</svg>