<?xml version="1.0" encoding="UTF-8"?>
<svg id="Laag_1" data-name="Laag 1" xmlns="http://www.w3.org/2000/svg" viewBox="0 0 100 100">
  <defs>
    <style>
      .cls-1 {
        fill: #2cb3e3;
      }

      .cls-2 {
        fill: #7db545;
      }

      .cls-3 {
        fill: #fff;
      }

      .cls-4 {
        fill: #95d9f1;
      }

      .cls-5 {
        fill: #ea9e2f;
      }
    </style>
  </defs>
  <path class="cls-5" d="M90,100H10c-5.5,0-10-4.5-10-10V10C0,4.5,4.5,0,10,0h80C95.5,0,100,4.5,100,10v80c0,5.5-4.5,10-10,10Z"/>
  <g>
    <g>
      <path class="cls-3" d="M87.68,57.71c.16-2.32.31-4.77.5-7.31.09-1.51-.94-2.89-2.38-3.2-.09-.03-.16-.03-.25-.03-5.08-.6-10.19-.75-14.08-.82-1.57-.03-2.95,1.22-3.04,2.79-.16,2.32-.31,4.77-.5,7.31-.09,1.51.94,2.89,2.38,3.2.09.03.16.03.25.03,5.08.6,10.19.75,14.08.82,1.57,0,2.95-1.22,3.04-2.79Z"/>
      <path class="cls-4" d="M83.57,58.4c-5.08,0-10.16-.28-15.24-.85-1.22-.13-2.2-1.25-2.13-2.51.19-3.48.38-6.99.53-10.51.06-1.22,1.13-2.29,2.35-2.29,5.08,0,10.16.28,15.24.85,1.22.13,2.2,1.25,2.13,2.51-.19,3.48-.38,6.99-.53,10.51-.03,1.22-1.1,2.29-2.35,2.29Z"/>
    </g>
    <g>
      <path class="cls-3" d="M92.48,49.5c-.44-3.26-.91-6.71-1.38-10.26-.28-2.1-2.13-3.73-4.2-3.73h-.34c-7.18.63-14.33,1.88-19.73,2.85-2.2.41-3.73,2.54-3.42,4.7.44,3.26.91,6.71,1.38,10.26.28,2.1,2.13,3.73,4.2,3.73h.34c7.18-.63,14.33-1.88,19.73-2.85,2.2-.41,3.73-2.54,3.42-4.7Z"/>
      <path class="cls-2" d="M88.68,52.51c-6.46,1.19-12.95,2.26-19.44,2.82-1.25.09-2.41-.88-2.57-2.13-.47-3.51-.94-6.96-1.41-10.41-.16-1.22.72-2.45,1.94-2.67,6.46-1.19,12.95-2.26,19.44-2.82,1.25-.09,2.41.88,2.57,2.13.47,3.51.94,6.96,1.41,10.41.19,1.22-.72,2.41-1.94,2.67Z"/>
    </g>
    <path class="cls-3" d="M75.57,59.88c-.09-.82-.66-1.6-1.41-1.91v-.03c.06-.91.16-1.82.22-2.7.09-.88.16-1.88.25-2.85l.03-.22c.13-1.72.28-3.51.38-5.3.09-1.85-.78-3.04-2.54-3.58-1.22-.38-2.98-.6-4.05.31-.82.72-.85,1.72-.88,2.04-.03.88-.09,1.76-.16,2.67-.03-.03-.09-.06-.13-.09-.44-.25-.91-.5-1.38-.69-1.35-.56-2.85-.56-4.3-.38-1.38.19-2.79.63-3.89,1.54-.44.38-.85.75-1.22,1.19-.19-.38-.44-.72-.72-1-.63-.63-1.41-1.07-2.26-1.32-2.57-.75-5.93-.19-7.87,1.79-.19-.28-.38-.5-.6-.69-1.13-.94-2.51-1.41-4.11-1.41-.47,0-.94.03-1.47.13-1.25.19-3.01.6-4.39,2.07-.13-.22-.25-.44-.41-.63.06-.03.09-.06.13-.09,1.25-.91,1.79-2.6,1.25-3.92-.53-1.29-1.98-2.16-3.54-2.16h-.19c-1.57.06-3.51,1.03-3.95,2.63-.41,1.38-.03,2.35.34,2.95-.19-.09-.38-.16-.56-.19-.85-.19-1.6-.38-2.45-.44h-.38c-1.63,0-2.32.78-2.63,1.57-.28-.31-.6-.6-1-.85-1.07-.66-2.13-.75-3.14-.75h-1.07c-1.1,0-2.01.56-2.45,1.47-.41-.53-.97-.88-1.66-1.03-1.07-.22-2.16-.38-3.26-.44h-.22c-.97,0-1.57.44-1.88.78-.5.6-.66,1.35-.44,2.29.13.56.28,1.13.41,1.69l.09.41c.25.91.47,1.82.72,2.73.47,1.82.97,3.7,1.44,5.55.38,1.51,1.38,2.54,2.7,2.82,1.16.25,2.35.28,3.45.28,1.19,0,2.01-1.07,2.26-1.88.5.94,1.38,1.57,2.51,1.79.53.13,1.13.16,1.76.19h.13c1.88,0,2.76-.6,3.48-2.38.22-.53.44-1.07.63-1.6l.03-.09c.06-.19.16-.38.22-.56h0c-.09,1.41.25,2.54,1,3.39.78.85,1.91,1.25,3.32,1.25.56,0,1.85,0,2.54-1,.09.06.19.13.31.19,1.32.69,2.89,1.07,4.55,1.07,1.1,0,2.23-.19,3.23-.5.72-.25,1.38-.63,1.94-1.1.13.09.22.16.38.25,1.57.91,3.26,1.38,5.02,1.38,1.1,0,2.23-.19,3.32-.56,1.13-.38,2.07-1.1,2.7-2.07,1.13,1.38,2.73,2.26,4.64,2.48.56.06,1.1.09,1.57.09,1.98,0,3.58-.53,4.92-1.63.16-.13.28-.25.41-.38.34.6.82,1.07,1.35,1.41.69.44,1.47.66,2.32.66.69,0,1.35-.16,2.04-.44,1.76-.72,2.79-2.45,2.6-4.17ZM35.43,63.39c-.06-.03-.09-.03-.16-.06.06,0,.13.03.16.06ZM35.77,63.52c.06.03.13.03.19.06-.06-.03-.13-.03-.19-.06ZM36.28,63.67c.06.03.13.03.19.06-.06,0-.13-.03-.19-.06ZM36.81,63.83c.06,0,.13.03.19.03-.06,0-.13-.03-.19-.03ZM37.37,63.96c.06,0,.09.03.16.03-.06-.03-.09-.03-.16-.03ZM38.06,64.05h.09-.09ZM38.6,64.08h.19c-.06.03-.13.03-.19,0ZM39.13,64.11h.16-.16ZM40.01,64.08h0s0,0,0,0ZM40.73,63.99s.09,0,.13-.03c-.03.03-.06.03-.13.03ZM41.54,63.86s.09-.03.13-.03c-.03,0-.09,0-.13.03Z"/>
    <g>
      <path class="cls-1" d="M18.84,53.45c-.03.19-.06.34-.09.53-.16.91-.34,1.82-.53,2.76-.34,1.72-.69,3.45-1.07,5.14-.06.28-.41.69-.63.69-1.03,0-2.1-.03-3.1-.25-.72-.16-1.19-.78-1.41-1.57-.72-2.76-1.44-5.52-2.16-8.28-.19-.66-.34-1.32-.5-1.98-.16-.72.03-1.03.75-.97,1,.06,2.04.19,3.01.41.69.13.94.72.97,1.38.13,1.47.16,2.98.47,4.45.06.25.13.53.25.75.03.03.06.06.09.09.75.31,1.19-3.73,1.29-4.17.13-.72.28-1.44.44-2.16.13-.56.47-.85,1.03-.85,1.13.03,2.26-.16,3.29.5.56.34.91.78.97,1.44.16,1.44.28,2.89.5,4.33.03.22.06.44.19.6.31.56.72.25.85-.22.22-.72.25-1.54.38-2.29.16-1.03.31-2.07.44-3.1.16-1.1.34-1.32,1.44-1.25.72.03,1.44.22,2.16.38.66.16.94.66.82,1.29-.25,1.1-.47,2.2-.88,3.23-.85,2.32-1.82,4.64-2.73,6.93-.47,1.16-.72,1.32-1.98,1.32-.47,0-.97-.03-1.44-.16-.85-.16-1.38-.72-1.54-1.57-.31-1.69-.56-3.42-.82-5.11-.06-.47-.13-.97-.16-1.44-.06-.41-.13-.85-.22-1.29"/>
      <path class="cls-1" d="M39.76,62.89c-1.54.03-3.07-.31-4.17-.88-1.1-.6-1.29-1.66-.44-2.6.44-.5.97-.5,1.51-.19.91.56,1.91.78,2.95.63.44-.06.91-.16.97-.72.06-.5-.22-.75-.63-.94-.88-.41-1.69-.85-2.57-1.25-2.13-.97-2.45-3.86-1.44-5.49.91-1.51,2.32-2.04,3.92-2.26,1.51-.22,2.98-.13,4.27.91.66.53.94,2.1.5,2.98-.31.63-1.72,1.25-2.45.97-.25-.09-.38-.47-.56-.75-.25-.34-.44-.88-.78-1.03-.53-.25-1.16-.13-1.63.34-.44.44-.5.94,0,1.32.6.41,1.25.78,1.91,1.03.85.31,1.66.63,2.32,1.32.82.82,1.25,2.01,1.1,3.17-.28,2.45-2.48,3.39-4.77,3.45Z"/>
      <path class="cls-1" d="M31.95,62.67c-1.88,0-2.76-.94-2.63-2.79.22-3.23.5-6.46.72-9.69.03-.56.31-.82.82-.78.6.03,1.22.06,1.82.19.88.22,1.35,1.1,1.25,2.23-.22,3.29-.47,6.62-.69,9.91-.03.78-.25.94-1.29.94Z"/>
      <path class="cls-1" d="M32.23,48.24c-.6.06-1.19-.06-1.69-.5-.5-.47-.56-1.16-.38-1.79.19-.69,1.29-1.35,2.38-1.41.91-.03,1.79.41,2.07,1.1.22.56,0,1.41-.66,1.88-.5.34-1.13.66-1.72.72Z"/>
      <path class="cls-1" d="M65.19,58.56c-.31-.03-.78.19-.97.44-.56.78-1.25,1-2.16.85-.94-.16-1.35-.82-1.63-1.6-.19-.53,0-.78.6-.85,1.19-.16,2.38-.31,3.54-.66,2.32-.72,3.45-2.32,3.1-4.67-.09-.72-.31-1.47-1.03-1.91-1.29-.75-2.51-1.03-3.98-.94-1.25.09-2.6.41-3.58,1.22-2.51,2.07-3.17,4.83-2.89,7.9.06.6.28,1.19.56,1.72.85,1.63,2.26,2.51,4.08,2.73,1.88.22,3.67.09,5.21-1.16.6-.5.78-1.13.6-1.85-.22-.69-.72-1.19-1.44-1.22ZM60.52,54.67c.06-.6.6-1.44.82-1.76.5-.66,1.57-.63,2.01-.13.66.75.22,1.66-.53,2.1-.53.31-1.69.97-2.2.28-.09-.13-.13-.31-.09-.5Z"/>
      <path class="cls-1" d="M51.42,49.18c1.22-.03,2.41.22,3.32,1.1.69.66.91,1.88.53,2.7-.28.66-1.35,1.22-2.23,1.19-.47,0-.72-.19-.82-.66-.22-1.07-.91-1.54-1.91-1.16-.34.13-.75.53-.82.88-.06.31.19.85.47,1,.6.38,1.32.66,2.01.88,1.25.44,2.26,1.13,2.85,2.38.78,1.63.03,4.17-2.16,4.89-2.38.78-4.74.6-6.93-.69-.72-.41-.82-1.07-.38-1.82.53-.91,1.07-1.13,1.85-.69.97.56,2.01.82,3.1.6.31-.06.72-.34.82-.63.16-.41-.13-.75-.56-.97-1.03-.47-2.04-.97-3.01-1.47-.72-.38-1.16-.97-1.35-1.76-.31-1.54-.34-3.04.82-4.27,1-1.03,2.41-1.44,3.79-1.54.22.03.41.03.6.03Z"/>
      <path class="cls-1" d="M68.55,59.03c.19-2.7.38-5.39.56-8.09.13-1.66.25-3.36.31-5.05.03-.72.28-1.03,1-.97.56.06,1.13.03,1.66.19,1,.31,1.38.78,1.32,1.85-.09,1.82-.22,3.64-.38,5.46-.16,1.85-.34,3.7-.47,5.55-.06.78.16,1.44,1,1.76.19.06.38.34.41.53.13.97-.5,1.94-1.44,2.35-2.07.88-3.89-.25-3.98-2.48,0-.34.03-.72,0-1.1.03,0,0,0,0,0Z"/>
    </g>
    <g>
      <g>
        <path class="cls-3" d="M79.99,43.88c.09.06.22.13.31.19.38.25.28.28.6-.09.82-1,2.54-.88,3.2.22.03.13.09.25.13.38.06.41.09.85.16,1.25,0,.25.03.5.03.75s0,.47.03.72c0,.63.16,1.38-.47,1.79-.22.13-.5.19-.75.13-.09-.03-.22-.06-.28-.13-.16-.13-.22-.38-.25-.6-.09-.72.28-3.39-.91-3.42-.22,0-.44.13-.6.31-.38.41-.38.94-.38,1.44,0,.72-.03,1.41-.03,2.13,0,.44,0,.82-.53.88-.19.03-.34,0-.53-.03-.85-.13-.82-1.32-.88-1.98-.13-1.13-.13-2.29-.03-3.42,0-.09.03-.19.06-.28.06-.19.25-.28.44-.34.28-.06.47-.03.69.09Z"/>
        <path class="cls-3" d="M85.39,44.42c-.06-.75-.09-1.54-.16-2.26-.03-.41-.13-.88.31-1.13.38-.22,1-.28,1.29.09.19.28.28.6.31.91.03.47.03.97.06,1.44,0,.13,0,.25.03.34.03.82.03,1.63.13,2.45.03.31.06.78.25,1.07.19.25.5.47.44.85-.09.6-.97,1-1.51.72-.97-.5-.91-2.01-1-2.92-.09-.53-.13-1.03-.16-1.57Z"/>
      </g>
      <path class="cls-3" d="M76.95,50.31c-.25.03-.53-.03-.72-.22-.22-.22-.25-.5-.16-.78.09-.31.56-.6,1.03-.63.41,0,.78.19.91.47.09.25,0,.63-.28.82-.25.19-.5.31-.78.34Z"/>
    </g>
  </g>
</svg>