<?xml version="1.0" encoding="UTF-8"?>
<svg id="Laag_1" data-name="Laag 1" xmlns="http://www.w3.org/2000/svg" viewBox="0 0 100 100">
  <defs>
    <style>
      .cls-1 {
        fill: #fff48d;
      }

      .cls-2 {
        fill: #1d1c1c;
      }
    </style>
  </defs>
  <rect class="cls-1" width="100" height="100" rx="10.98" ry="10.98"/>
  <g>
    <path class="cls-2" d="M55.68,41.19h8.47c4.04,0,6.64,3.02,6.64,6.57,0,2.39-1.21,4.57-3.23,5.7l3.53,5.37h-6.18l-3-4.52h-.98v4.52h-5.25s0-17.64,0-17.64ZM65.43,47.78c0-1.36-.9-2.5-2.32-2.5h-2.19v4.99h2.17c1.4,0,2.34-1.13,2.34-2.49Z"/>
    <path class="cls-2" d="M71.26,50.02c0-4.87,3.5-9.31,9.56-9.31s9.6,4.44,9.6,9.31-3.5,9.31-9.6,9.31-9.56-4.44-9.56-9.31ZM85.09,50.02c0-2.35-1.56-4.52-4.26-4.52s-4.26,2.17-4.26,4.52,1.58,4.52,4.26,4.52c2.69,0,4.26-2.18,4.26-4.52Z"/>
    <path class="cls-2" d="M23.42,49.2l-2.95,9.58h-4.54l-6.35-17.61h5.53l3.12,10.52,3.1-10.52h4.17l3.07,10.52,3.14-10.52h5.53l-6.34,17.62h-4.58l-2.91-9.6Z"/>
    <path class="cls-2" d="M54.6,51.85c.11-.61.17-1.24.17-1.87,0-4.87-3.5-9.31-9.6-9.31-5,0-8.26,3.02-9.24,6.82h5.65c.71-1.19,1.94-2.03,3.6-2.03,1.96,0,3.31,1.14,3.91,2.65h-13.3c-.11.61-.17,1.24-.17,1.87,0,4.87,3.5,9.31,9.57,9.31.21,0,.41,0,.61-.01,1.23-.06,2.35-.31,3.34-.71s1.87-.95,2.61-1.61c.74-.67,1.36-1.44,1.83-2.3.38-.68.67-1.42.87-2.19h-5.66c-.07.12-.15.24-.22.36-.21.28-.45.54-.73.77-.27.22-.58.41-.93.56s-.72.25-1.11.3c-.2.02-.4.04-.61.04-1.93,0-3.29-1.14-3.9-2.65h13.3Z"/>
  </g>
</svg>