<?xml version="1.0" encoding="UTF-8"?>
<svg id="Laag_1" data-name="Laag 1" xmlns="http://www.w3.org/2000/svg" viewBox="0 0 100 100">
  <defs>
    <style>
      .cls-1 {
        fill: #231f20;
      }

      .cls-2 {
        fill: #fff;
      }
    </style>
  </defs>
  <rect class="cls-2" width="100" height="100" rx="12.79" ry="12.79"/>
  <g>
    <path class="cls-1" d="M21.58,44.04v2.83c0,.4.04.69.13.87.08.18.23.3.44.36.21.06.55.11,1.02.13v.31c-.55-.03-1.32-.05-2.31-.05-.9,0-1.57.02-2.01.05v-.31c.38-.02.65-.06.83-.13.17-.06.29-.18.35-.36.06-.18.09-.47.09-.87v-7.8c0-.4-.03-.69-.09-.86-.06-.18-.18-.3-.35-.36-.17-.06-.45-.11-.83-.13v-.32c.44.03,1.08.05,1.92.05l1.7-.02c.2-.01.43-.02.68-.02,1.23,0,2.17.28,2.82.84s.98,1.31.98,2.26c0,.58-.13,1.13-.39,1.66-.26.53-.69.97-1.31,1.33-.61.36-1.43.54-2.45.54h-1.21ZM22.01,37.83c-.16.07-.28.2-.34.39-.06.19-.09.47-.09.85v4.66h1.05c1.03,0,1.74-.27,2.13-.83.39-.55.59-1.29.59-2.21,0-1.02-.2-1.77-.61-2.25-.4-.48-1.07-.72-2.01-.72-.33,0-.57.04-.73.11Z"/>
    <path class="cls-1" d="M37.69,37.72c-.37.02-.64.08-.82.16-.18.09-.3.24-.36.44-.06.2-.09.51-.09.9v4.74c0,.76-.05,1.4-.15,1.94-.1.54-.27,1-.5,1.39-.26.45-.65.81-1.16,1.07-.51.26-1.08.39-1.72.39-1.15,0-2.04-.28-2.64-.85-.46-.43-.77-.92-.93-1.46-.16-.55-.24-1.36-.24-2.44v-4.94c0-.4-.03-.69-.09-.86-.06-.18-.18-.3-.35-.36-.17-.06-.45-.11-.83-.13v-.32c.44.03,1.11.05,2.01.05.85,0,1.52-.02,2-.05v.32c-.38.02-.65.06-.83.13-.17.06-.29.18-.35.36-.06.18-.09.47-.09.86v5.21c0,.84.06,1.54.17,2.09.12.56.35,1,.72,1.34.36.34.89.5,1.6.5,1.11,0,1.89-.36,2.34-1.07s.68-1.72.68-3v-4.91c0-.57-.1-.95-.31-1.16s-.58-.33-1.13-.35v-.32c.38.03.91.05,1.6.05.63,0,1.12-.02,1.46-.05v.32Z"/>
    <path class="cls-1" d="M48.5,47.76c-.24.36-.48.61-.72.77s-.56.24-.96.24c-.43,0-.78-.13-1.06-.38s-.49-.69-.62-1.32l-.35-1.57c-.13-.55-.24-.97-.35-1.26s-.28-.53-.5-.71-.53-.27-.93-.27h-1.49v3.62c0,.4.03.69.09.87.06.18.18.3.35.36.17.06.45.11.83.13v.31c-.48-.03-1.15-.05-2-.05-.9,0-1.57.02-2.01.05v-.31c.38-.02.65-.06.83-.13.17-.06.29-.18.35-.36.06-.18.09-.47.09-.87v-7.8c0-.4-.03-.69-.09-.86-.06-.18-.18-.3-.35-.36-.17-.06-.45-.11-.83-.13v-.32c.44.03,1.08.05,1.92.05l1.7-.02c.2-.01.43-.02.68-.02,1.22,0,2.15.25,2.81.76s.98,1.17.98,1.97c0,.41-.1.82-.29,1.24s-.52.79-.98,1.12c-.46.33-1.05.55-1.79.67l.19.03c.69.12,1.2.33,1.51.63.31.3.55.79.69,1.45l.39,1.6c.1.48.22.82.33,1.01.12.19.27.28.47.28.18,0,.33-.05.45-.14.12-.09.26-.25.42-.46l.24.17ZM41.94,37.83c-.16.07-.28.2-.34.39-.06.19-.09.47-.09.85v3.87h1.05c1.04,0,1.75-.23,2.14-.69.39-.46.58-1.1.58-1.92,0-.86-.2-1.51-.61-1.95s-1.08-.66-2-.66c-.33,0-.57.04-.73.11Z"/>
    <path class="cls-1" d="M57.43,38.8c.92.93,1.38,2.28,1.38,4.05,0,1.14-.23,2.14-.68,3-.45.86-1.1,1.52-1.96,1.99s-1.87.7-3.06.7l-.91-.02c-.59-.02-1.02-.03-1.29-.03-.86,0-1.51.02-1.95.05v-.31c.38-.02.65-.06.83-.13.17-.06.29-.18.35-.36.06-.18.09-.47.09-.87v-7.8c0-.4-.03-.69-.09-.86-.06-.18-.18-.3-.35-.36-.17-.06-.45-.11-.83-.13v-.32c.37.03.88.05,1.53.05l1.34-.02c.71-.02,1.19-.03,1.43-.03,1.86,0,3.25.46,4.17,1.39ZM52.14,37.8c-.16.07-.28.2-.34.39-.06.19-.09.47-.09.85v7.87c0,.38.03.66.09.85.06.19.18.32.34.39.16.07.41.11.75.11,1.11,0,1.99-.2,2.63-.61.64-.4,1.09-.99,1.34-1.77.26-.78.39-1.77.39-2.97s-.14-2.19-.42-2.95c-.28-.76-.74-1.33-1.38-1.71s-1.49-.57-2.57-.57c-.33,0-.57.04-.73.11Z"/>
    <path class="cls-1" d="M68.37,48.54c-.71-.03-1.91-.05-3.6-.05-2.01,0-3.53.02-4.56.05v-.31c.38-.02.65-.06.83-.13.17-.06.29-.18.35-.36.06-.18.09-.47.09-.87v-7.8c0-.4-.03-.69-.09-.86-.06-.18-.18-.3-.35-.36-.17-.06-.45-.11-.83-.13v-.32c1.03.03,2.55.05,4.56.05,1.54,0,2.64-.02,3.29-.05-.07.69-.11,1.31-.11,1.86,0,.41.02.73.05.98h-.36c-.07-.68-.17-1.19-.28-1.52-.12-.33-.31-.57-.58-.72-.27-.15-.69-.23-1.24-.23h-1.31c-.38,0-.65.03-.83.09-.17.06-.29.18-.35.35-.06.18-.09.47-.09.86v3.71h1.04c.37,0,.65-.09.85-.26.2-.17.33-.38.4-.61s.12-.53.17-.89l.05-.31h.36c-.03.44-.05.93-.05,1.48v.76c0,.53.03,1.28.09,2.23h-.36c-.01-.07-.04-.33-.09-.76s-.2-.76-.43-.98-.56-.33-.98-.33h-1.04v3.78c0,.4.03.69.09.87.06.18.18.3.35.35.17.06.45.09.83.09h1.15c.65,0,1.15-.09,1.49-.26.34-.17.59-.45.75-.83.16-.38.27-.95.35-1.69h.36c-.03.28-.05.66-.05,1.13,0,.6.04,1.27.11,2.01Z"/>
    <path class="cls-1" d="M78.37,37.4v.32c-.21.05-.41.19-.61.4-.2.22-.41.55-.65,1l-2.47,4.89v2.86c0,.4.03.69.09.87.06.18.18.3.35.36.17.06.45.11.83.13v.31c-.48-.03-1.15-.05-2-.05-.9,0-1.57.02-2.01.05v-.31c.38-.02.65-.06.83-.13.17-.06.29-.18.35-.36.06-.18.09-.47.09-.87v-2.36l-3.19-5.9c-.19-.35-.35-.58-.5-.7-.14-.12-.28-.18-.42-.18v-.33c.41.03.87.05,1.38.05,1.02,0,1.75-.02,2.2-.05v.33c-.73,0-1.1.2-1.1.6,0,.16.05.34.16.55l2.61,5.02,2.01-4c.28-.56.42-1.01.42-1.35,0-.29-.12-.5-.35-.63-.23-.13-.58-.19-1.04-.2v-.32c.6.03,1.2.05,1.81.05.47,0,.87-.02,1.18-.05Z"/>
    <path class="cls-1" d="M18.9,51.28c.4.17.83.43,1.31.76.14.1.24.16.31.16.2,0,.33-.32.39-.96h.36c-.04.68-.06,1.89-.06,3.62h-.36c-.09-.56-.19-1.02-.3-1.38-.11-.36-.27-.68-.49-.95-.3-.38-.7-.68-1.19-.9s-1-.33-1.53-.33c-.69,0-1.3.23-1.83.68s-.93,1.09-1.21,1.93c-.28.83-.42,1.81-.42,2.92,0,1.89.3,3.27.9,4.15.6.88,1.55,1.31,2.84,1.31.63,0,1.17-.16,1.64-.49.19-.13.31-.25.37-.37.06-.12.09-.29.09-.5v-1.51c0-.44-.04-.76-.13-.96s-.23-.34-.44-.41c-.21-.07-.55-.12-1.02-.14v-.31c.55.03,1.28.05,2.22.05.71,0,1.26-.02,1.64-.05v.31c-.24.02-.42.06-.53.13-.11.06-.18.18-.22.36-.04.18-.05.47-.05.87v3.12h-.32c-.01-.21-.05-.41-.13-.61-.07-.19-.17-.29-.3-.29-.06,0-.13.02-.19.05-.06.03-.17.11-.33.22-.37.28-.75.5-1.14.64s-.83.21-1.31.21c-1.08,0-2.01-.22-2.78-.67-.77-.45-1.36-1.09-1.77-1.93s-.61-1.84-.61-3,.22-2.25.65-3.15c.43-.91,1.04-1.6,1.8-2.09.77-.49,1.64-.73,2.61-.73.62,0,1.13.09,1.53.26Z"/>
    <path class="cls-1" d="M27.19,51.55c-.38.02-.65.06-.83.13-.17.06-.29.18-.35.36s-.09.47-.09.86v7.8c0,.4.03.69.09.87s.18.3.35.36c.17.06.45.11.83.13v.31c-.48-.03-1.15-.05-2-.05-.9,0-1.57.02-2.01.05v-.31c.38-.02.65-.06.83-.13.17-.06.29-.18.35-.36.06-.18.09-.47.09-.87v-7.8c0-.4-.03-.69-.09-.86-.06-.18-.18-.3-.35-.36-.17-.06-.45-.11-.83-.13v-.32c.44.03,1.11.05,2.01.05.84,0,1.5-.02,2-.05v.32Z"/>
    <path class="cls-1" d="M36.25,53.25c0,.53.02.95.05,1.29h-.36c-.08-.81-.19-1.41-.31-1.8-.13-.39-.35-.68-.66-.87-.31-.18-.8-.28-1.45-.28h-.99c-.38,0-.65.03-.83.09-.17.06-.29.18-.35.35-.06.18-.09.47-.09.86v3.87h1.15c.37,0,.65-.09.85-.26.2-.17.33-.38.4-.61s.12-.53.17-.89l.05-.32h.36c-.03.44-.05.93-.05,1.48v.76c0,.53.03,1.28.09,2.23h-.36c-.01-.07-.04-.33-.09-.76-.05-.43-.2-.76-.43-.98-.24-.22-.56-.33-.98-.33h-1.15v3.62c0,.4.04.69.13.87.08.18.23.3.44.36.21.06.55.11,1.02.13v.31c-.55-.03-1.32-.05-2.31-.05-.9,0-1.57.02-2.01.05v-.31c.38-.02.65-.06.83-.13.17-.06.29-.18.35-.36.06-.18.09-.47.09-.87v-7.8c0-.4-.03-.69-.09-.86-.06-.18-.18-.3-.35-.36-.17-.06-.45-.11-.83-.13v-.32c1.03.03,2.55.05,4.56.05,1.54,0,2.64-.02,3.29-.05-.07.75-.11,1.42-.11,2.01Z"/>
    <path class="cls-1" d="M46,53.25c0,.53.02.95.05,1.29h-.36c-.08-.81-.19-1.41-.32-1.8-.13-.39-.35-.68-.66-.87-.32-.18-.8-.28-1.45-.28h-.85v8.95c0,.44.04.76.13.96.08.2.23.34.44.41s.55.12,1.02.14v.31c-.55-.03-1.32-.05-2.31-.05-1.05,0-1.83.02-2.33.05v-.31c.47-.02.81-.07,1.02-.14.21-.07.36-.21.44-.41.08-.2.13-.52.13-.96v-8.95h-.85c-.65,0-1.13.09-1.45.28-.31.18-.53.47-.66.87-.13.39-.23.99-.31,1.8h-.36c.03-.34.05-.77.05-1.29,0-.6-.04-1.27-.11-2.01.87.03,2.35.05,4.44.05s3.55-.02,4.42-.05c-.07.75-.11,1.42-.11,2.01Z"/>
    <path class="cls-1" d="M54.01,51.29c.44.18.87.43,1.29.76.12.09.21.14.3.14.21,0,.35-.31.41-.94h.36c-.04.68-.06,1.89-.06,3.62h-.36c-.12-.68-.22-1.17-.31-1.47-.09-.3-.25-.58-.47-.86-.31-.41-.72-.72-1.2-.92s-1.01-.31-1.58-.31c-.68,0-1.28.23-1.79.68s-.9,1.09-1.19,1.93c-.28.83-.42,1.81-.42,2.93s.15,2.12.46,2.94.73,1.44,1.27,1.86c.54.43,1.15.64,1.83.64.52,0,1.03-.1,1.53-.3.49-.2.88-.5,1.16-.9.21-.29.36-.61.46-.94s.18-.85.27-1.54h.36c0,1.8.02,3.06.06,3.78h-.36c-.03-.34-.08-.57-.13-.72s-.14-.21-.24-.21c-.08,0-.19.04-.33.13-.47.34-.92.59-1.35.76-.43.17-.95.26-1.56.26-1,0-1.87-.23-2.62-.68s-1.33-1.1-1.75-1.96c-.41-.85-.62-1.87-.62-3.06s.21-2.18.64-3.07c.42-.89,1.02-1.58,1.78-2.08s1.62-.74,2.59-.74c.63,0,1.16.09,1.6.27Z"/>
    <path class="cls-1" d="M67.4,62.06v.31c-.42-.03-.98-.05-1.68-.05-.9,0-1.57.02-2.01.05v-.31c.4-.02.68-.07.86-.15s.26-.22.26-.43c0-.18-.06-.43-.19-.74l-.96-2.58h-3.81l-.64,1.67c-.21.57-.32,1-.32,1.29,0,.33.11.56.34.71.23.15.57.23,1.03.24v.31c-.6-.03-1.2-.05-1.81-.05-.47,0-.87.02-1.18.05v-.31c.52-.13.94-.58,1.24-1.37l3.7-9.53h.25l3.84,9.9c.25.65.61.99,1.09,1.01ZM63.54,57.85l-1.76-4.7-1.79,4.7h3.56Z"/>
    <path class="cls-1" d="M77.37,61.59c-.24.36-.48.61-.72.77s-.56.24-.96.24c-.43,0-.78-.13-1.06-.38s-.49-.69-.62-1.32l-.35-1.57c-.13-.55-.24-.97-.35-1.26s-.28-.53-.5-.71-.53-.27-.93-.27h-1.49v3.62c0,.4.03.69.09.87.06.18.18.3.35.36.17.06.45.11.83.13v.31c-.48-.03-1.15-.05-2-.05-.9,0-1.57.02-2.01.05v-.31c.38-.02.65-.06.83-.13.17-.06.29-.18.35-.36.06-.18.09-.47.09-.87v-7.8c0-.4-.03-.69-.09-.86-.06-.18-.18-.3-.35-.36-.17-.06-.45-.11-.83-.13v-.32c.44.03,1.08.05,1.92.05l1.7-.02c.2-.01.43-.02.68-.02,1.22,0,2.15.25,2.81.76s.98,1.17.98,1.97c0,.41-.1.82-.29,1.24s-.52.79-.98,1.12c-.46.33-1.05.55-1.79.67l.19.03c.69.12,1.2.33,1.51.63.31.3.55.79.69,1.45l.39,1.6c.1.48.22.82.33,1.01.12.19.27.28.47.28.18,0,.33-.05.45-.14.12-.09.26-.25.42-.46l.24.17ZM70.82,51.66c-.16.07-.28.2-.34.39-.06.19-.09.47-.09.85v3.87h1.05c1.04,0,1.75-.23,2.14-.69.39-.46.58-1.1.58-1.92,0-.86-.2-1.51-.61-1.95s-1.08-.66-2-.66c-.33,0-.57.04-.73.11Z"/>
    <path class="cls-1" d="M86.31,52.63c.92.93,1.38,2.28,1.38,4.05,0,1.14-.23,2.14-.68,3-.45.86-1.1,1.52-1.96,1.99s-1.87.7-3.06.7l-.91-.02c-.59-.02-1.02-.03-1.29-.03-.86,0-1.51.02-1.95.05v-.31c.38-.02.65-.06.83-.13.17-.06.29-.18.35-.36.06-.18.09-.47.09-.87v-7.8c0-.4-.03-.69-.09-.86-.06-.18-.18-.3-.35-.36-.17-.06-.45-.11-.83-.13v-.32c.37.03.88.05,1.53.05l1.34-.02c.71-.02,1.19-.03,1.43-.03,1.86,0,3.25.46,4.17,1.39ZM81.02,51.63c-.16.07-.28.2-.34.39-.06.19-.09.47-.09.85v7.87c0,.38.03.66.09.85.06.19.18.32.34.39.16.07.41.11.75.11,1.11,0,1.99-.2,2.63-.61.64-.4,1.09-.99,1.34-1.77.26-.78.39-1.77.39-2.97s-.14-2.19-.42-2.95c-.28-.76-.74-1.33-1.38-1.71s-1.49-.57-2.57-.57c-.33,0-.57.04-.73.11Z"/>
  </g>
</svg>