<?xml version="1.0" encoding="UTF-8"?>
<svg id="Laag_1" data-name="Laag 1" xmlns="http://www.w3.org/2000/svg" viewBox="0 0 100 100">
  <defs>
    <style>
      .cls-1 {
        fill: #ff5b24;
      }

      .cls-2 {
        fill: #fff;
      }
    </style>
  </defs>
  <path class="cls-1" d="M10,0h78.79c6.19,0,11.21,5.02,11.21,11.21v77.58c0,6.19-5.02,11.21-11.21,11.21H11.21c-6.19,0-11.21-5.02-11.21-11.21V10C0,4.48,4.48,0,10,0Z"/>
  <path id="path159" class="cls-2" d="M51.6,64.55c9.97,0,15.63-4.85,21.02-11.86,2.96-3.77,6.74-4.58,9.43-2.43s2.96,6.2,0,9.97c-7.82,10.24-17.79,16.44-30.45,16.44-13.74,0-25.87-7.55-34.23-20.75-2.43-3.5-1.89-7.28.81-9.16s6.74-1.08,9.16,2.69c5.93,8.89,14.01,15.09,24.25,15.09h0ZM70.19,31.41c0,4.85-3.77,8.08-8.08,8.08s-8.08-3.23-8.08-8.08,3.77-8.08,8.08-8.08,8.08,3.5,8.08,8.08Z"/>
</svg>