<svg id="Laag_1" data-name="Laag 1" xmlns="http://www.w3.org/2000/svg" viewBox="0 0 100 100"><defs><style>.cls-1{fill:#fff;}.cls-2{fill:#004a98;}</style></defs><rect class="cls-1" x="1.5" y="1.5" width="97" height="97" rx="8.87"/><path class="cls-2" d="M89.63,3A7.38,7.38,0,0,1,97,10.37V89.63A7.38,7.38,0,0,1,89.63,97H10.37A7.38,7.38,0,0,1,3,89.63V10.37A7.38,7.38,0,0,1,10.37,3H89.63m0-3H10.37A10.41,10.41,0,0,0,0,10.37V89.63A10.41,10.41,0,0,0,10.37,100H89.63A10.41,10.41,0,0,0,100,89.63V10.37A10.41,10.41,0,0,0,89.63,0Z"/><path class="cls-2" d="M55.42,75c13.67.07,26.14-11.14,26.14-24.78C81.56,35.3,69.09,25,55.42,25H43.65C29.82,25,18.44,35.31,18.44,50.22A25,25,0,0,0,43.65,75Z"/><path class="cls-1" d="M48.9,63.5V36.42a14.5,14.5,0,0,1,0,27.08M29.21,50a14.52,14.52,0,0,1,9.31-13.54V63.49A14.52,14.52,0,0,1,29.21,50m14.5-22.89A22.89,22.89,0,1,0,66.6,50,22.88,22.88,0,0,0,43.71,27.07"/></svg>