<?xml version="1.0" encoding="UTF-8"?>
<svg id="Laag_1" data-name="Laag 1" xmlns="http://www.w3.org/2000/svg" viewBox="0 0 100 100">
  <defs>
    <style>
      .cls-1 {
        fill: #fff;
      }

      .cls-2 {
        fill: #114c5d;
      }
    </style>
  </defs>
  <rect class="cls-2" width="100" height="100" rx="15" ry="15"/>
  <g>
    <path class="cls-1" d="M48.11,49.05c-.86.82-2.31.76-3.29.18-1.29-.77-1.72-2.49-1.53-3.91.3-2.15,2.39-3.59,4.48-2.69.12.05.22.12.34.17.04-.38.01-.76.02-1.13s.04-.77.05-1.14c0-.26-.03-.56,0-.81.02-.19.1-.29.3-.3l2.43-.02c.1.03.14.1.15.2l-.36,10.02c-.02.09-.1.17-.19.19l-2.18.11c-.08-.02-.16-.06-.18-.15l-.03-.72ZM46.47,45.05c-.57.57-.44,1.86.42,2.08.98.24,1.31-.85,1.22-1.62-.09-.71-1.13-.96-1.64-.46Z"/>
    <path class="cls-1" d="M16.11,42.59c.58-.4,1.29-.42,1.96-.3,2.85.49,2.67,4.08,2.6,6.28-.01.36,0,.76-.05,1.12-.04.29-.04.31-.35.3-.48-.01-1.04-.08-1.53-.12-.24-.02-.57-.03-.79-.07-.1-.02-.09-.1-.08-.18.01-.34.11-.72.12-1.07.04-.81.06-2.98-.43-3.6-.22-.28-.61-.38-.93-.22-.35.17-.45.7-.47,1.05-.07,1.1,0,2.35.03,3.46,0,.22.06.54-.23.56-.39.04-.84-.07-1.24-.02-.28-.06-.58,0-.86-.02-.1,0-.29-.02-.34-.11l-.4-10.46c.03-.06.09-.08.15-.09.43-.05.91.02,1.34.03.38,0,.88-.04,1.24,0,.17.02.21.12.23.27.05.62.01,1.35.02,1.98,0,.06.02.11.03.16,0,.35,0,.71,0,1.06Z"/>
    <path class="cls-1" d="M81.95,42.73c.72-.34,1.54-.42,2.32-.31,2.8.4,2.51,4.05,2.45,6.16-.01.38.01.81-.05,1.19-.01.08-.03.19-.13.2-.91-.04-1.82-.12-2.73-.18-.07-.03-.06-.1-.05-.16,0-.13.04-.29.05-.43.05-.89.03-1.8,0-2.69-.02-.63.04-2.02-.82-2.09-.78-.06-1,.52-1.04,1.18-.07,1.07,0,2.28.02,3.36,0,.18.07.78-.16.82-.11.02-.37,0-.5,0-.57-.01-1.25,0-1.81-.05-.12,0-.31-.02-.34-.16-.02-.07-.03-.27-.03-.35-.11-2.13-.1-4.35-.14-6.49,0-.17-.1-.51.07-.62.14-.08.28-.02.41-.01.53,0,1.05,0,1.57.02.17,0,.62-.03.75.02.06.02.15.14.15.21v.37Z"/>
    <path class="cls-1" d="M26.47,49.58c-.3.1-.6.23-.92.26-1.57.13-2.83-.54-3.37-2.04-.47-1.3-.5-3.63-.18-4.98.02-.09.03-.21.15-.21.93.05,1.85.13,2.78.21.04.02.07.06.07.11-.05.33-.11.67-.14,1-.09.85-.3,2.75.14,3.46.12.2.28.32.52.34.66.06.92-.43.97-1.01.1-1.32-.07-2.77,0-4.1,0-.13.06-.26.19-.29.09-.02.29-.03.4-.03.58-.04,1.16-.04,1.74-.07.14,0,.34-.05.48-.05.28,0,.16.58.15.75-.05,2.15-.15,4.29-.19,6.44-.08.36.14.88-.44.8-.67-.09-1.42,0-2.08-.07-.07,0-.25-.07-.25-.16v-.37Z"/>
    <path class="cls-1" d="M39.28,47.96c-.31-.31-1.12-.42-1.54-.55-1.74-.51-2.57-1.68-2.06-3.51s2.67-2.41,4.39-1.87c1.54.48,2.36,1.93,2.15,3.52-.07.53-.55.43-.96.42-.39,0-.88-.01-1.26-.05-.47-.04-.3-.37-.38-.72-.11-.48-.43-.76-.93-.66s-.6.63-.28.96c.42.43,2.06.66,2.74,1.03,1.35.74,1.31,2.45.04,3.25-1.59,1-5.77.7-5.88-1.71-.03-.73.33-.59.87-.61.39-.01.8-.06,1.19-.03s.27.31.34.56c.14.49,1.22.62,1.57.35.16-.12.12-.28,0-.41Z"/>
    <path class="cls-1" d="M73.41,46.74c.1.75.72,1.24,1.48,1.09.18-.04.42-.15.55-.29.08-.09.12-.27.18-.32.13-.12.75-.06.96-.07.29,0,.59-.04.88-.05.14,0,.55-.05.6.09.07.2-.19.8-.3,1-1.55,2.94-6.28,2.22-6.87-1.06-.46-2.55,1.05-5.5,4.01-4.98,1.8.32,2.54,1.9,2.62,3.58.01.28.07.78-.26.88-.12.04-.38.05-.51.06-.81.05-1.67.05-2.48.07-.28,0-.57,0-.85,0ZM74.81,45.28c.04-.45-.2-.81-.68-.76-.43.04-.65.45-.7.83l1.38-.07Z"/>
    <path class="cls-1" d="M59.4,46.74c.11.75.71,1.25,1.48,1.09.18-.04.46-.16.57-.31.06-.08.09-.24.15-.3.13-.12.75-.06.96-.07.29,0,.59-.04.88-.05.12,0,.42-.02.52.01.21.07,0,.61-.06.75-1.22,3.15-6.1,2.76-6.95-.42-.56-2.1.48-5.18,2.96-5.35,2.31-.16,3.49,1.47,3.59,3.61.01.27.07.8-.24.9-.13.04-.39.06-.53.06-.81.05-1.67.05-2.48.07-.28,0-.57,0-.85,0ZM60.81,45.28c.05-.52-.3-.9-.83-.73-.34.11-.5.47-.55.8l1.38-.07Z"/>
    <path class="cls-1" d="M85.12,57.52v-4.52s.03-.04.04-.04h1.69s.04.03.04.04v7.76h-1.5c-.99-1.78-2.12-3.51-3.46-5.05v5.05h-1.74v-7.8h1.42c1.33,1.39,2.42,2.98,3.52,4.55Z"/>
    <path class="cls-1" d="M67.73,56.56c.77.24,1.21.86,1.27,1.66.2,2.9-3.41,2.81-5.4,2.56-.09-.01-.72-.11-.74-.14v-7.56c.51-.1,1.03-.14,1.55-.17,1.42-.07,3.87-.11,4.18,1.74.14.85-.15,1.45-.85,1.91ZM64.55,56.04c.3-.01.6.01.9,0,.36-.01.99-.05,1.25-.32.23-.24.27-.76.07-1.03-.31-.42-1.08-.37-1.54-.37-.23,0-.46-.02-.68.02v1.69ZM64.55,59.38c.93.07,2.84.25,2.64-1.2-.06-.47-.47-.67-.9-.75-.56-.11-1.17-.03-1.75-.05v2Z"/>
    <path class="cls-1" d="M74.02,52.8c3.05-.22,4.67,2.2,4.17,5.05-.39,2.17-2.2,3.29-4.34,3.05-4.6-.51-4.45-7.76.17-8.1ZM74.14,54.35c-2.32.21-2.42,4.34-.4,4.93,1.38.4,2.47-.45,2.66-1.81.22-1.58-.39-3.29-2.27-3.13Z"/>
    <path class="cls-1" d="M30.1,60.66v-7.58s.62-.11.7-.11c2.72-.3,5.91.03,6.12,3.42.2,3.33-1.83,4.56-4.9,4.47-.64-.02-1.29-.04-1.92-.19ZM31.86,54.42v4.9s.06.03.08.04c.55.06,1.42-.02,1.93-.24,1.2-.53,1.43-2.06,1.12-3.21-.4-1.47-1.82-1.6-3.13-1.48Z"/>
    <path class="cls-1" d="M56.08,52.96v4.92c.07.94.5,1.56,1.52,1.51.93-.04,1.33-.72,1.35-1.59v-4.85s1.73,0,1.73,0c.02,0,.04.06.04.08-.06,1.63.08,3.32,0,4.94-.09,1.8-1.12,2.85-2.92,2.94-1.97.11-3.36-.82-3.47-2.87-.09-1.64.07-3.36,0-5.01,0-.02.02-.08.04-.08h1.73Z"/>
    <path class="cls-1" d="M28.64,60.76h-1.89l-.54-1.6-.04-.06h-3.02s-.6,1.66-.6,1.66h-1.8c.89-2.64,1.89-5.25,3.08-7.76l.08-.04c.48.04,1.03-.05,1.51,0,.14.01.14.09.2.21.21.42.41.89.6,1.33.9,2.04,1.68,4.15,2.41,6.26ZM25.75,57.68l-1.07-2.91-1.12,2.91h2.2Z"/>
    <path class="cls-1" d="M53.2,60.76h-1.89l-.55-1.67h-3.02s-.58,1.67-.58,1.67h-1.84c.91-2.64,1.9-5.26,3.1-7.78.53-.03,1.08,0,1.61-.02l.08.04c1.18,2.52,2.2,5.12,3.08,7.76ZM50.33,57.68l-1.12-2.91-1.1,2.91h2.22Z"/>
    <polygon class="cls-1" points="44.1 52.96 44.1 54.46 40.6 54.46 40.6 55.97 43.69 55.97 43.72 56 43.72 57.42 40.6 57.42 40.6 59.28 44.37 59.28 44.37 60.76 38.83 60.76 38.83 53 38.87 52.96 44.1 52.96"/>
    <path class="cls-1" d="M67.66,42.99c.31-.38.71-.63,1.19-.75.21-.05,1.01-.16,1.16-.04.08.07.01.5.01.61-.02.61-.04,1.21-.09,1.82-.1.11-.27.06-.4.08-2.35.36-1.51,3.16-1.66,4.8-.01.14-.06.23-.2.25-.44.05-.96,0-1.41.02-.2.01-.77.08-.93,0-.1-.05-.1-.21-.11-.32-.01-.18,0-.37,0-.55-.06-1.68-.12-3.35-.17-5.03-.01-.4-.09-.92-.05-1.31.02-.27.2-.18.37-.18.63,0,1.28.03,1.91.07.06,0,.26.02.29.04.03.02.08.09.08.11v.37Z"/>
    <path class="cls-1" d="M19.52,53.37l-.47,1.43c-.31-.11-.61-.26-.94-.34-1.19-.28-2.39-.1-2.91,1.12-.36.86-.3,2.39.33,3.12.74.86,2.27.76,3.24.4.07-.02.38-.2.42-.16.01.18.49,1.33.44,1.41-.04.07-.63.28-.74.31-1.42.45-3.47.41-4.62-.66-1.34-1.25-1.45-3.86-.58-5.39,1.15-2.02,3.91-2.26,5.82-1.24Z"/>
    <path class="cls-1" d="M52.54,43.09c.47,0,.94-.01,1.4,0,.4,0,.99-.02,1.36.02s.21.52.2.77c-.03,1.81-.06,3.63-.14,5.44,0,.14.06.51-.11.56-.12.04-.66,0-.83,0-.06,0-.11-.02-.17-.03-.44,0-1.01.03-1.43-.02-.33-.04-.22-.55-.23-.8-.07-1.8-.11-3.61-.14-5.41,0-.17-.1-.42.09-.53Z"/>
    <path class="cls-1" d="M31.12,43.1c.46,0,.92-.01,1.38,0,.39,0,.99-.02,1.36.02.09,0,.19.05.22.14.03.11.01.43.01.56-.03,1.83-.06,3.75-.17,5.58,0,.13.05.44-.11.48-.19.06-.61-.03-.83,0-.51-.08-1.1.01-1.6-.05-.34-.04-.22-.66-.23-.92-.05-1.8-.11-3.6-.14-5.41,0-.15-.09-.34.11-.41Z"/>
    <path class="cls-1" d="M32.64,39.4c1.38-.16,2.16,1.45,1.38,2.52s-2.32.67-2.62-.55c-.22-.87.31-1.86,1.24-1.97Z"/>
    <path class="cls-1" d="M54.07,39.4c1.39-.17,2.21,1.48,1.38,2.54s-2.44.56-2.63-.75c-.11-.8.41-1.69,1.26-1.79Z"/>
  </g>
</svg>