<?xml version="1.0" encoding="UTF-8"?>
<svg id="Laag_1" data-name="Laag 1" xmlns="http://www.w3.org/2000/svg" viewBox="0 0 100 100">
  <defs>
    <style>
      .cls-1 {
        fill: #0e0909;
      }

      .cls-2 {
        fill: #d82c18;
      }

      .cls-3 {
        fill: #fff;
      }

      .cls-4 {
        fill: #fefbf8;
      }

      .cls-5 {
        fill: #fccbbf;
      }
    </style>
  </defs>
  <rect class="cls-2" width="100" height="100" rx="12.52" ry="12.52"/>
  <g>
    <g>
      <path class="cls-1" d="M36.09,29.77c-1.69.47-1.75.66-1.12,2.24.25.61,1.9,2.88.18,2.67-.8-.1-1.58-2.76-1.76-3.49-.05-.19.12-.26-.22-.22-.68.08-1.59.63-2.3.77-.32.78.88,3.2.13,3.65-1.3.78-1.36-2.68-1.5-3.37-.33.12-2,.1-2.08.16-.17.15-.61,4.9-1.82,3.37-.42-.53.56-2.75.46-3.52l-2.23-.44c-.12.76-1.02,3.13-2.01,2.82-1.15-.37,1-2.7.89-3.51-.03-.23-1.8-1.57-2.03-1.41-.18.12-1.11,2.59-1.72,3-.37.25-.83.16-.96-.27-.26-.88,1.98-3.2,1.71-4.09-.37-1.22-1.22.03-1.84.42s-2.55,1.72-2.46.25c.05-.72,1.87-1.26,2.48-1.87.56-.55.68-1.62,1.66-1.05,3.22,4.04,6.15,5.89,11.44,4.42,2.32-.64,4.36-2,6.55-2.73,1.43-.48,1.87-.54,3.1.42.49.38,2.78,2.38,1.72,2.92-.88.45-2.29-2.48-3.62-2.3-.42.05-1.52.4-1.4.87s2.98,3.48,1.07,3.3c-.56-.05-2.25-2.33-2.33-3Z"/>
      <path class="cls-1" d="M84.38,28.32c.26.32.29.89-.11,1.08-.67.34-2.89-1.26-3.39-1.86-2.25.7,2.54,4.55.74,5.06-1.03.29-1.9-2.64-2.51-3.27-.29.41-1.76,1.22-1.85,1.6-.17.74,1.97,3.12.93,3.47s-1.92-2.17-2.15-2.98c-.29.24-1.98.5-2.08.61-.42.48,1.02,3.09.37,3.59-1.32,1.03-1.58-2.7-1.74-3.45l-2.1-.09c-.35.71-.14,3.48-1.26,3.39-1.25-.11.27-3.08-.22-3.68-.31-.38-1.89-.58-2.41-.81.09.66-1.67,5.06-2.47,3.44-.38-.77,1.3-2.73,1.27-3.83,0-.32-1.33-.85-1.49-.75-.19.12-2.05,4.05-2.92,2.63-.56-.92,2.11-2.56,1.55-3.43-.04-.06-1.15-.42-1.29-.44-1.41-.19-2.71,2.76-3.62,2.3s.6-1.99,1.04-2.41c.53-.49,1.45-1.22,2.18-1.27,1.37-.1,5.11,2.03,6.69,2.59,3.89,1.38,6.97,1.64,10.29-1.16.6-.51,2.48-2.86,2.92-2.92.78-.11.91.86,1.49,1.35.48.41,1.84.9,2.12,1.24Z"/>
    </g>
    <g>
      <path class="cls-4" d="M65.01,42.76l2.18,4.97,2.26-4.97h2v7.64h-1.95v-3.64l-1.64,3.65c-.26-.07-1.22.08-1.37-.02-.16-.1-1.12-3.19-1.52-3.54v3.55h-1.95l.09-7.64h1.91Z"/>
      <path class="cls-4" d="M56.53,44.89h-1.73c-.15,0,0-.58-.37-.7-.25-.08-.52.03-.56.3-.09.71,1.75,2.04,2.18,2.61.13,0,.52-.89.62-.89h1.91c-.22.79-.87,1.46-1.14,2.25.03.17,1.48,1.43,1.72,1.74.07.09.17.11.13.27h-2.26c-.07,0-.59-.68-.72-.7-.06-.01-.86.48-1.1.56-3.5,1.18-6.07-2.29-2.84-4.53-1.99-3.51,4.46-4.64,4.17-.93ZM55.02,48.62c.04-.13-.04-.15-.09-.22-.09-.12-1.25-1.3-1.33-1.33-.16-.07-.69.4-.75.59-.16.47-.02.93.42,1.17.66.35,1.13.03,1.75-.2Z"/>
      <path class="cls-4" d="M9.95,42.76c1.98.23,2.9,2.36,1.29,3.69v.09c1.25.77,1.33,2.54.13,3.42-.17.12-.81.44-.98.44h-4.13v-7.64c1.17.1,2.55-.13,3.69,0ZM9.6,44.36c-.42-.07-1.02.05-1.47,0v1.42h1.47c.17,0,.57-.46.58-.67.02-.31-.28-.7-.58-.75ZM8.13,47.29v1.47c0,.25,1.68.18,2-.13.27-.26.24-.82,0-1.08-.03-.04-.42-.26-.45-.26h-1.55Z"/>
      <path class="cls-4" d="M73.79,49.39c-2.03-2.03-1.14-5.82,1.68-6.56,3.26-.87,5.96,1.95,4.89,5.16-.9,2.68-4.61,3.37-6.56,1.41ZM76.49,44.38c-2.58.18-2.49,4.52.24,4.43s2.52-4.62-.24-4.43Z"/>
      <path class="cls-4" d="M85.34,42.76c2.51.31,3.08,3.65.76,4.62v.13s1.68,2.89,1.68,2.89h-2.18l-1.57-2.74-.34-.02v2.75h-1.95v-7.64c1.13.1,2.49-.14,3.6,0ZM83.7,46.14c.73.02,2.01.14,1.96-.93-.04-1-1.25-.86-1.96-.85v1.78Z"/>
      <path class="cls-4" d="M19.23,50.4c.47-.83,2.48-7.59,2.88-7.64.57-.07,1.31.06,1.9.02l2.67,7.63h-1.91c-.28-.28-.29-1.01-.48-1.28-.09-.13-2.18-.02-2.53-.04-.19.06-.4,1.08-.5,1.32h-2.04ZM23.67,47.47c-.07-.74-.49-1.41-.67-2.13l-.75,2.13h1.42Z"/>
      <path class="cls-4" d="M29.62,42.76v4.93s.15.46.19.52c.45.78,1.87.77,2.22-.07.03-.07.17-.6.17-.63v-4.75h1.86v5.19c0,.23-.31,1.01-.46,1.23-1.21,1.81-4.55,1.8-5.53-.22-.06-.13-.32-.84-.32-.92v-5.28h1.86Z"/>
      <path class="cls-4" d="M93.73,42.76v1.6h-2.75v1.29s.12.13.13.13h2.26v1.47s-.12.13-.13.13h-2.26v1.42h2.62s.13.12.13.13v1.47h-4.71v-7.64h4.71Z"/>
      <path class="cls-4" d="M18.17,42.76v1.6h-2.62c-.2,0-.2,1.42,0,1.42h2.35v1.47s-.12.13-.13.13h-2.35v1.42h2.75v1.6h-4.62v-7.64h4.62Z"/>
      <polygon class="cls-4" points="43.61 42.76 45.03 45.69 46.54 42.76 48.62 42.76 46.05 47.69 46.05 50.4 44.09 50.4 44.09 47.69 41.52 42.76 43.61 42.76"/>
      <polygon class="cls-4" points="41.08 42.76 41.08 44.36 39.12 44.36 39.12 50.4 37.26 50.4 37.26 44.36 35.3 44.36 35.3 42.76 41.08 42.76"/>
    </g>
    <g id="Yrv0Fn">
      <path class="cls-5" d="M65.79,76.45c-1.28,1.01-2.65,2.03-4.02,2.95-2.98,2-5.72,3.7-9.35,4.31-7.18,1.2-12.89-3.17-18.2-7.26l10.21-4.05c.77-.16,1.78-.33,2.56-.17,1.3.27,2.07,2.16,3.72,1.4,1.73-.8,1.55-1.68,3.99-1.42,3.84.96,7.37,2.9,11.09,4.23ZM59.55,77.38c-2.5.04-5,.08-7.5.13-3.04.06-6.09.09-9.15.01-.28,0-3.11-.33-3.11-.07,1.89.35,3.78.79,5.68,1.09,3.07.48,5.73.79,8.81,0l5.28-1.15Z"/>
    </g>
    <g>
      <path class="cls-3" d="M29.11,61.33c0-2.12,1.63-3.72,3.78-3.72,1.35,0,2.49.63,3.16,1.62l-1.06.66c-.45-.66-1.21-1.07-2.1-1.07-1.42,0-2.5,1.08-2.5,2.52s1.08,2.52,2.5,2.52c.89,0,1.65-.42,2.1-1.07l1.06.66c-.67.99-1.81,1.62-3.16,1.62-2.15,0-3.78-1.61-3.78-3.72Z"/>
      <path class="cls-3" d="M41.51,63.39h-3.27l-.58,1.53h-1.33l2.84-7.2h1.47l2.84,7.2h-1.37l-.58-1.53ZM41.07,62.24l-1.2-3.16-1.2,3.16h2.4Z"/>
      <path class="cls-3" d="M50.85,61.33c0,2.05-1.56,3.6-3.66,3.6h-2.79v-7.2h2.79c2.1,0,3.66,1.54,3.66,3.6ZM49.58,61.33c0-1.39-1.03-2.43-2.41-2.43h-1.53v4.86h1.53c1.38,0,2.41-1.04,2.41-2.43Z"/>
      <path class="cls-3" d="M56.86,63.76v1.17h-4.84v-7.2h4.79v1.17h-3.55v1.82h3.2v1.17h-3.2v1.87h3.6Z"/>
      <path class="cls-3" d="M62.71,63.39h-3.27l-.58,1.53h-1.33l2.84-7.2h1.47l2.84,7.2h-1.37l-.58-1.53ZM62.27,62.24l-1.2-3.16-1.2,3.16h2.4Z"/>
      <path class="cls-3" d="M64.98,62.15v-4.42h1.23v4.4c0,.98.74,1.72,1.72,1.72s1.72-.74,1.72-1.72v-4.4h1.24v4.42c0,1.66-1.27,2.9-2.96,2.9s-2.95-1.24-2.95-2.9Z"/>
    </g>
  </g>
</svg>