<svg id="Laag_1" data-name="Laag 1" xmlns="http://www.w3.org/2000/svg" viewBox="0 0 100 100"><defs><style>.cls-1{fill:#fff;}.cls-2{fill:#a4a4a3;}.cls-3{fill:#383a42;}.cls-4{fill:#fb7900;}</style></defs><rect class="cls-1" x="0.5" y="0.5" width="99" height="99" rx="9.87"/><path class="cls-2" d="M89.63,1A9.38,9.38,0,0,1,99,10.37V89.63A9.38,9.38,0,0,1,89.63,99H10.37A9.38,9.38,0,0,1,1,89.63V10.37A9.38,9.38,0,0,1,10.37,1H89.63m0-1H10.37A10.41,10.41,0,0,0,0,10.37V89.63A10.41,10.41,0,0,0,10.37,100H89.63A10.41,10.41,0,0,0,100,89.63V10.37A10.41,10.41,0,0,0,89.63,0Z"/><path class="cls-3" d="M27,57.22c-.48,1.33-1,2.64-1.43,4-.25.79-.7,1-1.56.76.82-2.07,1.61-4.1,2.41-6.13.31-.78,1-.49,1.5-.41.24,0,.54.45.6.74a36.13,36.13,0,0,0,.85,3.66c.45-1.17.95-2.33,1.33-3.52.26-.83.65-1.2,1.61-.87l-2.43,6.42-.14.06c-1.68.14-1.67.14-1.95-1.49-.19-1.08-.39-2.15-.59-3.22Z"/><path class="cls-3" d="M46.18,62.24l-.87-4.85-.22-.06C44.56,58.64,44,60,43.54,61.27c-.33.82-.33.81-1.4.74.61-1.75,1.18-3.44,1.89-5.13s.6-1.56,2.47-1.52l.86,4.43.18,0c.43-1.2.92-2.39,1.27-3.61.23-.79.6-1.07,1.44-.78-.75,2.07-1.45,4.17-2.33,6.19C47.76,62,46.85,62,46.18,62.24Z"/><path class="cls-3" d="M15.22,58.15a2.6,2.6,0,0,1-2.6,3.79H9.86c.74-2.1,1.44-4,2.28-6.06a1.06,1.06,0,0,1,.74-.52c1-.1,2.81-.35,3.39.7a2.41,2.41,0,0,1-.38,1.47C15.77,57.79,15.44,58,15.22,58.15Zm-3.59,2.76c1.7.4,2.53-.13,2.52-1.61C12.29,58.67,12.11,58.79,11.63,60.91Zm1.28-3.11a2,2,0,0,0,1.94-.7.81.81,0,0,0,.07-.59,13.91,13.91,0,0,0-1.42-.43Z"/><path class="cls-3" d="M57.47,56.83c-1.61-1.56-4.74-.06-5.33,2.19-.41,1.59.29,2.49,1.86,2.09.49-.13.81-1,1.31-1.59l-1.58-.37c.53-1,1.25-1.09,3.14-.55-.35,1-.7,2-1.06,3a.34.34,0,0,1-.1.16c-.55.6-3.13.77-4.09.27s-1.2-1.28-.95-2.59a5.39,5.39,0,0,1,6.27-4.09C58,55.59,58.08,55.77,57.47,56.83Z"/><path class="cls-3" d="M22.41,55.4V62H21.06V60.57a22.18,22.18,0,0,0-2.46,0,1.38,1.38,0,0,0-.81.7A1.29,1.29,0,0,1,16,62L18,59.2a31,31,0,0,0,2-2.83A1.94,1.94,0,0,1,22.41,55.4ZM21.21,57,21,56.9l-1.85,2.44c2,.3,2,.3,2.08-1.48C21.22,57.58,21.21,57.3,21.21,57Z"/><path class="cls-3" d="M34.57,59a19.84,19.84,0,0,0-.79,2.06c-.23.86-.67,1.19-1.65.86.54-2,1.46-3.81,2.07-5.75a1,1,0,0,1,1.54-.8L34.87,58c1.67-.75,2.27-2.92,4.41-2.73a20.58,20.58,0,0,1-2,2.08,1.84,1.84,0,0,0-.66,2.48A16.24,16.24,0,0,1,37.3,62c-1.43.35-1.47.32-1.85-1-.19-.67-.42-1.33-.63-2Z"/><path class="cls-3" d="M38.55,62.08c.87-2.3,1.61-4.35,2.45-6.35.12-.29.73-.38,1.12-.56l.19.23c-.78,2.09-1.53,4.19-2.39,6.24C39.82,61.89,39.14,61.9,38.55,62.08Z"/><path class="cls-4" d="M60.41,37.69a3.38,3.38,0,0,0,.52.22c2.52.5,3.59,2.15,3.09,4.71a13.22,13.22,0,0,1-3.69,7,7.27,7.27,0,0,1-6.93,1.94c-1.89-.39-3-1.91-2.61-4.23a10.92,10.92,0,0,1,8.48-9.59Zm-5.77,9.4c0,1.46.2,1.67,1.3,1.72a2.2,2.2,0,0,0,2.19-1.39,47.06,47.06,0,0,0,2-5.09c.7-2.11-1.74-2.06-2.83-.94A10.27,10.27,0,0,0,54.64,47.09Z"/><path class="cls-4" d="M37.15,37.69a2,2,0,0,0,.49.23,3.7,3.7,0,0,1,3,4.58c-.95,4.78-4.7,10.11-10.17,9.07-2.18-.35-3.26-1.6-3.17-3.78.16-3.61,3.08-8.69,7.34-9.74L36,37.69Zm-6,9.52c0,1.28.28,1.57,1.39,1.6a2.34,2.34,0,0,0,2.22-1.52,47.34,47.34,0,0,0,1.9-4.93c.14-.41.07-1.2-.18-1.36a2.37,2.37,0,0,0-1.68-.2,2.78,2.78,0,0,0-1.36,1A10.43,10.43,0,0,0,31.19,47.21Z"/><path class="cls-4" d="M31.2,38.12c-.89.93-1.65,1.78-2.47,2.57a1.46,1.46,0,0,1-.9.35c-1.37,0-2.73,0-4.1,0a2.18,2.18,0,0,0-1.09.22,1.64,1.64,0,0,0-.63,1c0,.19.38.53.66.67a10.08,10.08,0,0,0,1.43.5c1.82.6,2.36,1.67,1.83,3.52a5.51,5.51,0,0,1-5.27,4.35c-3.44.18-6.9,0-10.52,0,.36-1,.63-1.86,1-2.7.11-.23.61-.38.94-.39,2.79-.08,5.58-.13,8.37-.17a1,1,0,0,0,1.1-.82c.13-.54,0-.84-.53-1-1.67-.53-4.33-1-3.49-3.36a12.9,12.9,0,0,1,1.67-3.34A3.53,3.53,0,0,1,22.3,38.1C25.24,38.15,28.19,38.12,31.2,38.12Z"/><path class="cls-4" d="M73.89,51.36c-1.36,0-2.64,0-3.91,0-.2,0-.45-.45-.54-.73-.35-1.18-.65-2.37-1-3.55l-.3,0a29.64,29.64,0,0,0-1.38,3.36,1.22,1.22,0,0,1-1.51,1c-.94-.09-1.89,0-3,0C63.82,47.08,65.42,43,67,38.78c.23-.63.51-.83,1.25-.76,1.88.2,3.82,0,5.7.18,2,.46,2.72,1.78,2.13,3.78a5,5,0,0,1-3,3.26c-.72.32-.91.66-.59,1.44.48,1.2.81,2.46,1.2,3.7C73.77,50.64,73.8,50.92,73.89,51.36ZM68.79,44c2.2.21,3.39-.47,3.59-2,.05-.37-.25-1.09-.49-1.14-.63-.13-1.68-.21-1.91.13A14.32,14.32,0,0,0,68.79,44Z"/><path class="cls-4" d="M54.34,38.13c-.66.78-1.41,1.72-2.21,2.62a1.32,1.32,0,0,1-.84.3c-1,0-2,0-3,0-1.79,0-2.14.42-2,2.38h3.38c-.29.8-.49,1.46-.79,2.08s-1.42.44-2.13.48c-2.06,0-1.54-.37-2.41,1.66-.43,1-.74,2.08-1.17,3.1-.13.3-.48.69-.75.71-1.09.09-2.2,0-3.51,0,1.15-3.65,2.43-6.76,3.75-10.27a4.49,4.49,0,0,1,4.6-3.13C49.76,38.12,52.25,38.13,54.34,38.13Z"/><path class="cls-4" d="M76.75,38H90.14c-.35.94-.66,1.86-1.06,2.73-.09.19-.53.29-.81.29-1.17,0-2.35,0-3.52,0a1,1,0,0,0-1.11.76c-1,2.86-2.1,5.7-3.11,8.57a1.25,1.25,0,0,1-1.51,1c-.8-.08-1.62,0-2.61,0,1.31-3.48,2.55-6.81,3.82-10.18-.88-.11-1.8,0-2.3-.35s-.52-1.31-.77-2A8.9,8.9,0,0,0,76.75,38Z"/></svg>