<svg id="Laag_1" data-name="Laag 1" xmlns="http://www.w3.org/2000/svg" viewBox="0 0 100 100"><defs><style>.cls-1{fill:#ff99b2;}.cls-2{fill:#fff;}</style></defs><rect class="cls-1" width="100" height="100" rx="10.37"/><path class="cls-2" d="M26.36,82a4.4,4.4,0,0,0,4.7-4.4c0-2.43-1.72-3.48-3.83-4.1-1.35-.39-2.2-.69-2.2-1.65a1.4,1.4,0,0,1,1.51-1.42,2.07,2.07,0,0,1,1.78,1.14l2.21-1.39a4.14,4.14,0,0,0-3.92-2.3A4.12,4.12,0,0,0,22.26,72c0,1.77,1.07,3.13,3.68,3.9,1.43.41,2.33.69,2.33,1.82a1.69,1.69,0,0,1-1.87,1.72A3.48,3.48,0,0,1,23.75,78l-1.83,1.83A5.43,5.43,0,0,0,26.36,82m10.76,0a5,5,0,1,1,5.11-5,5.05,5.05,0,0,1-5.11,5m0-2.51A2.49,2.49,0,1,0,34.68,77a2.43,2.43,0,0,0,2.44,2.48m11.7-8.94v-2.5h-.39a4.47,4.47,0,0,0-4.84,4.7v9h2.66v-4a2.32,2.32,0,0,1,2.49-2.28V73a3.27,3.27,0,0,0-2.49.94v-1a2.2,2.2,0,0,1,2.57-2.35M54.63,82a5,5,0,1,1,5.1-5,5.06,5.06,0,0,1-5.1,5m0-2.51A2.49,2.49,0,1,0,52.18,77a2.43,2.43,0,0,0,2.45,2.48m9.13-6.13V72.28H61.17v9.47h2.66V77.43A2.25,2.25,0,0,1,66.35,75V72.14a2.67,2.67,0,0,0-2.59,1.22m6.79,3.55V74.59a3.27,3.27,0,0,0,2.49.94V73a2.36,2.36,0,0,1-2.49-2.28V69.24H67.89v7.83a4.47,4.47,0,0,0,4.84,4.7h.39V79.26a2.21,2.21,0,0,1-2.57-2.35m5.75,5a1.79,1.79,0,1,0-1.79-1.79,1.79,1.79,0,0,0,1.79,1.79"/><path class="cls-2" d="M45.62,48.41a2.1,2.1,0,0,1,0,3l-.15.17a2.1,2.1,0,0,1-3,0l-4.69-4.65c-1.3-1.3-1.48-2.9-.66-3.74l.15-.17a1.93,1.93,0,0,1,2.56-.18.86.86,0,0,0,1.19-.14.87.87,0,0,0-.14-1.19,3.63,3.63,0,0,0-4.83.32L36,42c-1.52,1.56-1.22,4.21.67,6.11l4.71,4.69a3.82,3.82,0,0,0,5.39-.08l.17-.17a3.81,3.81,0,0,0-.08-5.35.83.83,0,0,0-1.19,0,.82.82,0,0,0,0,1.19M42.81,23.19,44.73,39a.85.85,0,0,0,1.68-.2L44.48,22.92l0-.09a2.52,2.52,0,0,1,1.59-3,2.34,2.34,0,0,1,1.77.32,2.42,2.42,0,0,1,1,1.49l3.35,14.31a.84.84,0,1,0,1.64-.39L50.48,21.28a4,4,0,0,0-4.78-3.13,4.19,4.19,0,0,0-2.89,5"/><path class="cls-2" d="M60.47,41.76l3.8-18.95a4,4,0,0,0-2.78-4.68,4.19,4.19,0,0,0-5.11,3L52.17,35.53a.84.84,0,0,0,.58,1,.86.86,0,0,0,1-.58L58,21.56a2.51,2.51,0,0,1,3-1.8,2.33,2.33,0,0,1,1.58,2.71l-3.8,19a.84.84,0,0,0,.66,1,.86.86,0,0,0,1-.67M50.9,60c-6,0-11-4.42-11-10.7a.85.85,0,0,0-1.7,0c0,7.27,5.85,12.39,12.75,12.39a.85.85,0,0,0,.85-.85A.84.84,0,0,0,50.9,60m-3-14.77a2.08,2.08,0,0,1-.83,1.16l-.19.11A2.12,2.12,0,0,1,44,46l-3.69-5.49c-1-1.54-.88-3.13.09-3.81l.17-.12c1.26-.72,2.31-.17,3.39,1.41L47,42.54a.85.85,0,1,0,1.41-.94L45.33,37c-1.54-2.23-3.42-3.21-5.69-1.9l-.23.16c-1.82,1.24-2,3.9-.55,6.14l3.69,5.51a3.81,3.81,0,0,0,5.28,1L48,47.8a3.82,3.82,0,0,0,1.52-2.11.83.83,0,0,0-.6-1,.81.81,0,0,0-1,.59"/><path class="cls-2" d="M53.52,48c-1.76,1-2.85,2.82-3,5.62a.85.85,0,0,0,1.69.09c.13-2.53,1.11-3.9,2.69-4.49a6,6,0,0,1,2.59-.3l.2,0a.85.85,0,0,0,.35-1.66l-6.5-1.45c-3-.83-3.51-2-3-3.84a1.88,1.88,0,0,1,1.51-1.41,4.2,4.2,0,0,1,1.58,0l.31.06L61.88,43l.18.06a1.66,1.66,0,0,1,.51.36c.65.7,1,2,.84,4.23C62.77,55.32,59.2,60.08,50.71,60a.84.84,0,0,0,0,1.68c9.52.07,13.68-5.45,14.39-13.91.22-2.63-.27-4.43-1.29-5.51a2.84,2.84,0,0,0-1.61-.94l-9.76-2.27A2.6,2.6,0,0,0,52,39a5.93,5.93,0,0,0-2.26,0A3.53,3.53,0,0,0,47,41.54c-.81,2.71,0,4.84,4.15,6Z"/></svg>