<?xml version="1.0" encoding="utf-8"?>
<!-- Generator: Adobe Illustrator 25.4.0, SVG Export Plug-In . SVG Version: 6.00 Build 0)  -->
<svg version="1.1" id="Laag_1" xmlns="http://www.w3.org/2000/svg" xmlns:xlink="http://www.w3.org/1999/xlink" x="0px" y="0px"
	 viewBox="0 0 100 100" style="enable-background:new 0 0 100 100;" xml:space="preserve">
<style type="text/css">
	.st0{fill:#FFFFFF;}
	.st1{fill:#A8A8A7;}
	.st2{clip-path:url(#SVGID_00000178182602799217741440000008744377566232027009_);}
	.st3{fill:#EF7D00;}
	.st4{fill:url(#SVGID_00000023251418612229616880000000587229631328962178_);}
	.st5{fill:#05171D;}
</style>
<path class="st0" d="M10.4,0.5h79.3c5.5,0,9.9,4.4,9.9,9.9v79.3c0,5.5-4.4,9.9-9.9,9.9H10.4c-5.5,0-9.9-4.4-9.9-9.9V10.4
	C0.5,4.9,4.9,0.5,10.4,0.5z"/>
<path class="st1" d="M89.6,1c5.2,0,9.4,4.2,9.4,9.4v79.3c0,5.2-4.2,9.4-9.4,9.4H10.4C5.2,99,1,94.8,1,89.6V10.4C1,5.2,5.2,1,10.4,1
	H89.6 M89.6,0H10.4C4.7,0,0,4.7,0,10.4v79.3C0,95.3,4.7,100,10.4,100h79.3c5.7,0,10.3-4.7,10.4-10.4V10.4C100,4.7,95.3,0,89.6,0z"/>
<g>
	<defs>
		<path id="SVGID_1_" d="M10.4,0h79.3C95.4,0,100,4.6,100,10.4v79.3c0,5.7-4.6,10.4-10.4,10.4H10.4C4.6,100,0,95.4,0,89.6V10.4
			C0,4.6,4.6,0,10.4,0z"/>
	</defs>
	<clipPath id="SVGID_00000085249688108011472460000000127449235214217877_">
		<use xlink:href="#SVGID_1_"  style="overflow:visible;"/>
	</clipPath>
	<g style="clip-path:url(#SVGID_00000085249688108011472460000000127449235214217877_);">
		<path class="st3" d="M109.8,57.5c0,0-43.3,30.5-122.5,44.2h122.5V57.5z"/>
	</g>
</g>
<radialGradient id="SVGID_00000057115829502347135090000006679141380080131734_" cx="45.8558" cy="536.08" r="6.7211" gradientTransform="matrix(1 0 0 -1 6.42 586.08)" gradientUnits="userSpaceOnUse">
	<stop  offset="1.000000e-02" style="stop-color:#FFDDD3"/>
	<stop  offset="0.1" style="stop-color:#FDD9CA"/>
	<stop  offset="0.26" style="stop-color:#F9CEB2"/>
	<stop  offset="0.46" style="stop-color:#F2BC8A"/>
	<stop  offset="0.69" style="stop-color:#E8A353"/>
	<stop  offset="0.95" style="stop-color:#DB830D"/>
	<stop  offset="1" style="stop-color:#D97D00"/>
</radialGradient>
<path style="fill:url(#SVGID_00000057115829502347135090000006679141380080131734_);" d="M52.3,43.4c-3.7-0.1-6.7,2.9-6.8,6.6
	c-0.1,3.8,2.8,6.9,6.6,7c3.8,0.1,6.9-2.8,7-6.6c0.1-3.8-2.8-6.9-6.6-7C52.4,43.4,52.4,43.4,52.3,43.4z"/>
<path class="st5" d="M13.7,43.6H10v12.8h3.6c1.6,0.1,3.3-0.4,4.6-1.5c1.5-1.2,2.3-3,2.3-4.9C20.5,46.2,17.7,43.6,13.7,43.6z
	 M16.6,53.2c-1,0.8-2.2,1.1-3.4,1h-0.7v-8.4h0.7c1.2-0.1,2.5,0.2,3.4,1c0.9,0.8,1.4,2,1.4,3.2C17.9,51.2,17.4,52.4,16.6,53.2z"/>
<rect x="21.7" y="43.6" class="st5" width="2.5" height="12.8"/>
<path class="st5" d="M30.2,48.5c-1.5-0.6-1.9-0.9-1.9-1.6s0.8-1.4,1.9-1.4c0.8,0,1.5,0.4,2,1l1.3-1.7c-1-0.9-2.4-1.4-3.8-1.4
	c-2.1-0.1-3.9,1.4-4,3.5c0,0.1,0,0.1,0,0.2c0,1.8,0.8,2.7,3.1,3.5c0.6,0.2,1.2,0.4,1.7,0.7c0.5,0.3,0.7,0.8,0.8,1.3
	c0,1-0.8,1.8-1.8,1.8c0,0-0.1,0-0.1,0c-1.2,0-2.2-0.6-2.7-1.7L25,54.2c0.9,1.5,2.6,2.5,4.4,2.4c2.3,0.2,4.2-1.6,4.4-3.8
	c0-0.1,0-0.2,0-0.4C33.9,50.5,33.1,49.5,30.2,48.5z"/>
<path class="st5" d="M34.7,50c0,3.7,2.9,6.6,6.6,6.7c0.1,0,0.1,0,0.2,0c1.1,0,2.2-0.3,3.1-0.8V53c-0.8,0.9-1.8,1.4-3,1.4
	c-2.3,0.1-4.2-1.7-4.3-4c0-0.1,0-0.2,0-0.4c-0.1-2.3,1.8-4.3,4.1-4.4c0,0,0,0,0.1,0c1.2,0,2.3,0.5,3.1,1.4v-2.9
	c-0.9-0.5-2-0.8-3.1-0.8C37.8,43.3,34.7,46.2,34.7,50C34.7,50,34.7,50,34.7,50z"/>
<polygon class="st5" points="64.7,52.2 61.3,43.6 58.6,43.6 64,56.7 65.3,56.7 70.8,43.6 68.2,43.6 "/>
<polygon class="st5" points="72,56.4 79,56.4 79,54.2 74.5,54.2 74.5,50.8 78.9,50.8 78.9,48.6 74.5,48.6 74.5,45.8 79,45.8 
	79,43.6 72,43.6 "/>
<path class="st5" d="M88.9,47.4c0-2.4-1.6-3.8-4.5-3.8h-3.7v12.8h2.5v-5.1h0.3l3.4,5.1H90L86,51C87.8,50.7,89,49.2,88.9,47.4z
	 M83.9,49.5h-0.7v-3.9h0.8c1.6,0,2.4,0.7,2.4,1.9S85.5,49.5,83.9,49.5z"/>
</svg>
