<?xml version="1.0" encoding="UTF-8"?>
<svg id="Laag_1" data-name="Laag 1" xmlns="http://www.w3.org/2000/svg" viewBox="0 0 100 100">
  <defs>
    <style>
      .cls-1 {
        fill: #e5007e;
      }

      .cls-2 {
        fill: #1d1d1b;
      }

      .cls-3 {
        fill: #fff;
      }
    </style>
  </defs>
  <rect class="cls-3" width="100" height="100"/>
  <g>
    <g>
      <path class="cls-1" d="M6.28,54.91c1.25,0,1.81-.52,1.81-1.29,0-.59-.44-.94-1.43-.94h-.85l-.45,2.23h.92ZM5.82,58.39c1.25,0,2.01-.46,2.01-1.43,0-.7-.51-1.14-1.48-1.14h-1.17l-.53,2.57h1.17ZM4.7,51.67h2.23c1.53,0,2.52.57,2.52,1.74,0,.97-.77,1.69-1.71,1.94v.05c.82.19,1.36.69,1.36,1.5,0,1.78-1.47,2.51-3.29,2.51h-2.66l1.55-7.74Z"/>
      <path class="cls-1" d="M14.07,55.93c.04-.13.06-.26.06-.41,0-.56-.24-1.05-.94-1.05s-1.37.54-1.63,1.47h2.51ZM10.18,57.09c0-2.18,1.65-3.65,3.17-3.65,1.36,0,1.86.95,1.86,2.15,0,.52-.15,1.09-.25,1.28h-3.52c-.12,1.16.57,1.66,1.42,1.66.43,0,.88-.17,1.18-.4l.45.78c-.47.38-1.14.64-1.89.64-1.47,0-2.43-.91-2.43-2.46"/>
      <path class="cls-1" d="M19.79,57.5l.47-2.3c-.26-.49-.62-.69-.97-.69-.96,0-1.85,1.24-1.85,2.73,0,.84.32,1.22.84,1.22.49,0,1.04-.26,1.5-.97M16.1,57.43c0-2.23,1.52-3.99,3.13-3.99.57,0,1.08.32,1.33.82h.04l.24-.67h1.05l-1.17,5.82h-1.07l.06-.81h-.04c-.54.57-1.25.95-1.91.95-1.03,0-1.66-.76-1.66-2.12"/>
      <path class="cls-1" d="M22.78,58.07c0-.26.04-.51.1-.82l.73-3.67h1.3l-.7,3.5c-.06.27-.09.44-.09.62,0,.49.22.73.71.73.39,0,.83-.28,1.41-.89l.78-3.97h1.3l-1.16,5.82h-1.05l.05-.83h-.05c-.56.52-1.24.97-1.94.97-.97,0-1.39-.54-1.39-1.48"/>
      <path class="cls-1" d="M29.46,58.11c0-.24.04-.45.08-.67l.58-2.82h-.81l.19-.96.88-.07.52-1.81h1.09l-.34,1.81h1.38l-.21,1.03h-1.41l-.58,2.87c-.02.14-.04.27-.04.4,0,.43.2.64.63.64.2,0,.4-.06.56-.13l.26.88c-.28.14-.72.28-1.26.28-1.09,0-1.53-.62-1.53-1.44"/>
      <path class="cls-1" d="M32.38,61.58l.39-.95c.13.06.27.08.45.08.5,0,.98-.37,1.3-.99l.15-.3-1.03-5.84h1.34l.37,2.9c.07.51.11,1.15.14,1.66h.05c.25-.51.52-1.15.77-1.66l1.41-2.9h1.33l-3.15,6c-.79,1.5-1.55,2.2-2.66,2.2-.33,0-.64-.07-.85-.21"/>
      <path class="cls-1" d="M90.56,41.36c0,1.74,1.42,3.15,3.15,3.15s3.15-1.41,3.15-3.15-1.41-3.15-3.15-3.15-3.15,1.41-3.15,3.15M91.16,41.36c0-1.4,1.14-2.55,2.55-2.55s2.55,1.14,2.55,2.55-1.15,2.55-2.55,2.55-2.55-1.14-2.55-2.55"/>
    </g>
    <polygon class="cls-1" points="92.33 40.47 92.33 42.21 92.78 42.21 92.78 41.53 93.27 41.53 93.27 41.16 92.78 41.16 92.78 40.87 93.58 40.87 93.58 40.47 92.33 40.47"/>
    <g>
      <path class="cls-1" d="M94.49,41.86c-.21,0-.4-.23-.4-.52s.19-.52.4-.52c.16,0,.29.13.36.31l.43-.12c-.13-.34-.43-.58-.78-.58-.46,0-.84.41-.84.91s.37.91.84.91c.36,0,.66-.24.78-.58l-.43-.12c-.06.18-.2.31-.36.31"/>
      <path class="cls-2" d="M11.84,46.91c0,.83-.44,1.26-1.16,1.26-.45,0-.74-.3-.74-.71,0-.72.73-.85,1.9-1.44v.89ZM18.9,45.31c-1.17-.32-1.86-.36-1.86-.93,0-.38.31-.62.85-.62.8,0,1.47.43,1.97,1.27h.87v-2.08h-.87l-.2.37c-.58-.36-1.24-.54-1.98-.54-1.59,0-2.57.89-2.57,1.99s.79,1.6,2.44,2.03c1.01.26,1.59.36,1.59.85,0,.38-.36.66-1.02.66-.98,0-1.71-.53-1.98-1.49h-1.01s0,1.33-.9,1.33c-.25,0-.56-.2-.56-.61v-2.75c0-.57-.02-1.01-.52-1.44-.4-.35-1.12-.58-2.11-.58-1.82,0-2.82.7-2.82,1.69,0,.58.44.97,1.06.97.56,0,1-.37,1-.81,0-.41-.27-.71-.74-.75.27-.27.61-.36,1.09-.36.74,0,1.26.41,1.26,1.05,0,.92-.88.96-2.11,1.27-1.24.32-1.84.8-1.84,1.77,0,1.03.74,1.75,1.97,1.75.82,0,1.49-.31,2.1-.94.26.63.74.93,1.49.93,1.11,0,1.63-.57,1.63-.85v.72h.89l.22-.49c.72.41,1.47.63,2.25.63,1.54,0,2.56-.88,2.56-2.03s-.75-1.62-2.16-2"/>
      <path class="cls-2" d="M31.53,42.45c.57,0,1.01-.47,1.01-1.02s-.45-1.01-1.01-1.01-1.01.44-1.01,1.01.44,1.02,1.01,1.02"/>
      <path class="cls-2" d="M33.24,48.26c-.61,0-.66-.21-.66-.78v-4.48h-2.92v.96h.37c.6,0,.69.19.69.78v2.74c0,.58-.09.78-.69.78h-1.02c-.67,0-.74-.19-.74-.78v-2.42c0-1.51-.48-2.25-1.98-2.25-.84,0-1.54.39-2.12,1.21v-3.59h-2.87v.96h.32c.6,0,.68.2.68.78v5.32c0,.58-.09.78-.68.78h-.32v.96h3.75v-.96h-.22c-.61,0-.66-.21-.66-.78v-1.92c0-1.02.57-1.68,1.34-1.68.7,0,.89.41.89,1.2v2.39c0,.57-.05.78-.66.78h-.23v.96h8.11v-.96h-.39Z"/>
      <path class="cls-2" d="M35.74,46.1c0,1.58.47,2.34,1.46,2.34s1.43-.76,1.43-2.29-.45-2.27-1.43-2.27-1.46.75-1.46,2.21M40.69,46.16c0,1.95-1.36,3.27-3.51,3.27s-3.49-1.31-3.49-3.27,1.37-3.29,3.51-3.29,3.49,1.32,3.49,3.29"/>
      <path class="cls-2" d="M45.05,48.26h.23c.61,0,.66-.21.66-.78v-2.39c0-.79-.18-1.2-.88-1.2-.77,0-1.36.66-1.36,1.68v1.92c0,.57.05.78.66.78h.23v.96h-3.81v-.96h.38c.6,0,.68-.19.68-.78v-2.74c0-.58-.09-.78-.68-.78h-.38v-.96h2.89v1.09c.7-.88,1.31-1.28,2.2-1.28,1.46,0,1.94.75,1.94,2.25v2.42c0,.58.06.78.74.78h.29v.96h-3.78v-.96Z"/>
      <path class="cls-2" d="M54.88,46.94c-.25,1.65-1.19,2.51-2.78,2.51-1.87,0-3.09-1.27-3.09-3.25s1.36-3.32,3.26-3.32c1.59,0,2.68.91,2.68,1.93,0,.6-.36.95-.84.95s-.75-.28-.75-.68c0-.41.22-.63.71-.71-.28-.56-.84-.86-1.71-.86-1.28,0-2.09.97-2.09,2.69,0,1.56.75,2.49,1.95,2.49,1.02,0,1.68-.59,1.92-1.75h.75Z"/>
      <path class="cls-2" d="M55.28,38.84h-.3v-.62h2.24v5.83c.5-.81,1.28-1.23,2.25-1.23.78,0,1.35.26,1.72.78.35.48.38,1.14.38,2.02v2.23c0,.6.14.74.84.74h.28v.64h-3.48v-.64h.41c.7,0,.84-.14.84-.74v-2.39c0-1.34-.31-1.93-1.29-1.93-1.15,0-1.95.8-1.95,2.09v2.23c0,.6.13.74.83.74h.42v.64h-3.49v-.64h.3c.7,0,.83-.14.83-.74v-8.26c0-.6-.13-.74-.83-.74"/>
      <path class="cls-2" d="M65.7,43.52c-1.05,0-1.68.72-1.76,2.06h3.48c-.03-1.39-.57-2.06-1.72-2.06M68.51,47.21c-.3,1.49-1.22,2.24-2.78,2.24-1.81,0-3.08-1.28-3.08-3.29s1.23-3.29,3.08-3.29,2.96,1.18,2.98,3.39h-4.8v.09c0,1.54.67,2.35,1.9,2.35.99,0,1.65-.52,1.94-1.5h.76Z"/>
      <path class="cls-2" d="M72.23,48.67c-1.1,0-1.75-.89-1.75-2.51s.66-2.5,1.75-2.5c1.19,0,1.97.96,1.97,2.53s-.79,2.47-1.97,2.47M83.8,48.58c-.7,0-.84-.14-.84-.74v-4.73h-2.44v.62h.5c.7,0,.83.15.83.75v2.11c0,1.29-.8,2.11-1.95,2.11-.98,0-1.29-.6-1.29-1.93v-3.66h-4.4v1.05c-.53-.84-1.26-1.24-2.2-1.24-1.62,0-2.77,1.27-2.77,3.25s1.15,3.27,2.8,3.27c.96,0,1.64-.4,2.17-1.24v2.43c0,.6-.14.75-.84.75h-.41v.62h3.49v-.62h-.3c-.7,0-.84-.15-.84-.75v-6.14c0-.6.14-.75.84-.75h.52c.7,0,.84.15.84.75v2.12c0,.88.03,1.54.38,2.02.38.52.94.76,1.72.76.97,0,1.75-.42,2.25-1.23v1.06h2.32v-.64h-.36Z"/>
      <path class="cls-2" d="M87.27,43.52c-1.05,0-1.68.72-1.76,2.06h3.48c-.03-1.39-.57-2.06-1.72-2.06M90.08,47.21c-.3,1.49-1.22,2.24-2.78,2.24-1.81,0-3.08-1.28-3.08-3.29s1.23-3.29,3.08-3.29,2.96,1.18,2.97,3.39h-4.8v.09c0,1.54.67,2.35,1.9,2.35,1,0,1.66-.52,1.94-1.5h.76Z"/>
      <path class="cls-2" d="M6.71,38.28c-1.53,0-2.38.79-2.38,2.31v2.51h-.97v1.05h.34c.52.03.63.22.63.75h0v2.54c0,.58-.09.88-.69.88h-.49v.9h4.39v-.9h-.68c-.61,0-.66-.31-.66-.88v-2.76c.04-.36.19-.49.62-.52h.53v-1.05h-1.15v-2.79c0-.88.13-1.29.78-1.29.18,0,.34.05.53.16-.38.14-.57.37-.57.7,0,.41.35.76.85.76.57,0,.93-.36.93-.94,0-.8-.76-1.41-2.01-1.41"/>
    </g>
  </g>
</svg>