<?xml version="1.0" encoding="UTF-8"?>
<svg id="Laag_1" data-name="Laag 1" xmlns="http://www.w3.org/2000/svg" viewBox="0 0 100 100">
  <defs>
    <style>
      .cls-1 {
        fill: none;
      }

      .cls-2 {
        fill: #71caf3;
      }

      .cls-3 {
        fill: #b3b3b3;
      }

      .cls-4, .cls-5 {
        fill: #fff;
      }

      .cls-6 {
        fill: #ec6a06;
      }

      .cls-5 {
        stroke: #1d1d1b;
        stroke-miterlimit: 10;
        stroke-width: .2px;
      }

      .cls-7 {
        fill: #c6c6c5;
      }

      .cls-8 {
        fill: #ffec00;
      }

      .cls-9 {
        fill: #999;
      }

      .cls-10 {
        fill: #0d3048;
      }
    </style>
  </defs>
  <rect class="cls-4" width="100" height="100"/>
  <g>
    <g>
      <path class="cls-8" d="M51.45,35.59c-.46-.52-1.04-.74-1.87-.74-1.23,0-1.96.79-1.96,1.53,0,.64.53.85,1.13.99l.88.2c1.75.41,2.39,1.19,2.39,2.62,0,2.26-2,3.28-4.23,3.28-1.66,0-2.67-.38-3.56-1.39l1.43-1.19c.56.64,1.31.92,2.32.92,1.17,0,2.09-.64,2.09-1.46,0-.72-.45-.96-1.11-1.12l-.88-.21c-1.74-.41-2.4-1.36-2.4-2.39,0-1.92,1.56-3.41,4.14-3.41,1.23,0,2.33.4,3.03,1.22l-1.38,1.15Z"/>
      <path class="cls-8" d="M34.67,39.1l1.45,4.29h-2.15l-1.23-4.08h-1.48l-.88,4.08h-1.96l2.12-10.08h3.71c2.14,0,2.88,1.29,2.88,2.7,0,1.25-.82,2.56-2.46,3.09ZM33.94,34.97h-1.78l-.59,2.79h1.78c1.34,0,1.83-.98,1.83-1.64,0-.72-.43-1.15-1.23-1.15Z"/>
      <path class="cls-8" d="M10.1,35.59c-.46-.52-1.04-.74-1.87-.74-1.23,0-1.96.79-1.96,1.53,0,.64.53.85,1.13.99l.88.2c1.75.41,2.39,1.19,2.39,2.62,0,2.26-2,3.28-4.23,3.28-1.66,0-2.67-.38-3.56-1.39l1.43-1.19c.56.64,1.31.92,2.32.92,1.17,0,2.09-.64,2.09-1.46,0-.72-.45-.96-1.11-1.12l-.88-.21c-1.74-.41-2.4-1.36-2.4-2.39,0-1.92,1.56-3.41,4.14-3.41,1.23,0,2.33.4,3.03,1.22l-1.38,1.15Z"/>
      <path class="cls-8" d="M16.07,39.48h-2.03l-.82,3.91h-1.96l2.12-10.08h3.76c1.8,0,2.84,1.09,2.84,2.66,0,1.8-1.37,3.51-3.9,3.51ZM16.81,34.97h-1.81l-.61,2.86h1.75c1.28,0,1.86-.93,1.86-1.7,0-.64-.31-1.16-1.19-1.16Z"/>
      <path class="cls-8" d="M27.86,38.35c-.4,1.95-.67,3.06-1.57,3.96-.82.83-1.92,1.16-2.98,1.16-2.03,0-3.19-1.29-3.19-2.86,0-.45.06-1.13.3-2.26.4-1.95.67-3.06,1.57-3.96.82-.84,1.92-1.16,2.98-1.16,2.03,0,3.19,1.29,3.19,2.86,0,.45-.06,1.13-.3,2.26ZM24.83,34.87c-.58,0-1.02.2-1.41.61-.39.41-.67,1.03-1.05,2.87-.18.85-.3,1.61-.3,2.11,0,.91.64,1.37,1.37,1.37.58,0,1.02-.2,1.41-.61.39-.41.67-1.02,1.05-2.87.18-.83.3-1.61.3-2.11,0-.91-.62-1.37-1.37-1.37Z"/>
      <path class="cls-8" d="M45.23,34.97h-2.6l-1.77,8.42h-1.96l1.77-8.42h-2.66l.34-1.66h7.21l-.34,1.66Z"/>
    </g>
    <g>
      <path class="cls-1" d="M55.69,56.17c-.1.26-.08,1.5-.05,2.48.29.05.59.12.89.22-.2-.23-.4-.57-.45-.7-.06-.14-.26-1.75-.39-2Z"/>
      <path class="cls-1" d="M70.06,53.52s0,0,0,0c0,0,0,0,0-.01,0,0,0,0,0,0Z"/>
      <path class="cls-1" d="M73.88,59.88c-.09-.29-.15-.58-.14-.75.02-.36.05-.96.04-1-.01-.04-.21-.53-.19-.65.02-.12-.03.06-.06-.07-.02-.13-.1-.54-.1-.54,0,0-.49,1.3-.58,1.54-.1.24-.49.36-.76.38-.27.02-.56.15-.62.16-.06.02-.19.08-.37.45-.18.37-.48.82-.55,1.2-.04.21-.09.45-.16.72-.06.23-.14.48-.26.75-.05.11-.1.23-.16.36.35.18.65.43.88.75.12-.07.36-.22.45-.28.1-.07.59-.34.73-.43.14-.09.68-.41.79-.5.12-.09.83-.53.94-.59.09-.05.35-.14.57-.24-.03-.19-.07-.38-.13-.49-.08-.13-.2-.45-.3-.76Z"/>
      <path class="cls-1" d="M53.57,57.41s-.07.02-.1.02c0,0-.71-.17-.94-.48,0,0-1.75-1.18-1.85-1.53,0,0-1.9,1.44-2.58,1.59,0,0-.68.38-.71.49,0,0,.16.28.22.48,0,0,2.04.64,2.4.82,0,0,1.62.21,2.03.13.16-.03.8-.23,1.67-.32-.05-.44-.09-.85-.1-.96,0-.04-.02-.12-.04-.23Z"/>
      <path class="cls-1" d="M51.11,59.42s-.06-.03-.06-.03c.01.01.03.02.06.03Z"/>
      <path class="cls-1" d="M55.74,41.09c.19-.02.3.1.43.2.13,0,.4.07.49.27,0-.09.02-.55.12-.85-.17.14-.23-.28-.25-.32-.02-.04.04-.32.06-.4,0-.07,0-.22.09-.37-.08-.04-.41.06-.57.08-.17.02-.34.03-.47-.04-.01.06-.09.37-.14.54l.02.55c0,.16.07.2.22.33Z"/>
      <path class="cls-1" d="M48.29,52.94l.02-.28s-1.6-.19-1.69-.69c0,0-1.27,1.2-1.92-.49,0,0-.24.21-.33-.04,0,0,.12,1.55-.04,2.36,0,0,.03.55.29.8,0,0,.48.75.53,1.18,0,0,2.54-2.98,3.15-2.84Z"/>
      <path class="cls-1" d="M70.12,42.25c-.02-.07-.02-.33-.02-.55,0-.21.17-.52.2-.62.04-.1.04-.14.11-.27.07-.13.1-.17.19-.25.08-.08.21-.2.34-.28.13-.08.19-.18.56-.27.37-.09.69.02.92.09.22.07.29.3.29.32l-.24-.1s-.03,0,.15.1c.18.1.36.28.4.38.04.09.02.11.08.16.06.05.03.25.03.25,0,0,.2.17.24.28.04.11.23.53.26.69.03.16-.18.56-.19.77-.01.22.18.42.2.47.03.05.2.24.31.27.11.02.06-.09.12-.2.05-.11.19-.24.19-.33,0-.1.07-.05.22-.09.15-.05.13-.1.16-.15.03-.05.02-.07.05-.09.02-.02.12-.02.23-.06.12-.04.09-.05.16-.12.06-.06.05-.06.15-.1.1-.04.1-.02.23-.04.12-.02.09-.06.1-.12,0-.05.09-.03.14-.04.21-.3.6-.72.91-1.02.31-.3.27-.8.46-1.19.19-.39.49-.56.74-1.09.25-.53.38-1,.43-1.25.05-.25-.03-.26-.1-.32-.07-.07-.29-.3-.37-.36-.09-.07-.1-.22-.1-.22-5.94-1.21-9.22-1.24-9.22-1.24,0,0-.31.25-.39.28-.08.03-.09.08-.08.49.09.95.65,2.2.75,2.54.1.34.14,1.09.25,1.32.11.23.08.54.33.81.25.27.89,1.4.91,1.44,0-.02-.1-.22-.11-.29Z"/>
      <path class="cls-1" d="M76.35,57.96c.15-.32.22-.51.24-.58.02-.07.05-.23.07-.27.02-.04.04-.06.01-.1-.02-.03-.06-.06-.05-.07.01-.01.05,0,.04-.02,0-.02-.03-.09-.03-.12,0-.03.04-.05.02-.11-.02-.06-.05-.06-.06-.11-.02-.05-.04-.12-.03-.16,0-.04,0-.1-.02-.13-.02-.02-.28-.16-.51-.33v.13c-.01.27-.03.61.04.78.07.17.06.29.06.37,0,.07-.37.28-.37.28,0,0-.09.18-.12.36-.03.18-.11.65-.07.82.02.1.08.36.11.69,0,.04,0,.09,0,.13.04-.17.09-.33.14-.47.2-.55.38-.75.52-1.08Z"/>
      <path class="cls-1" d="M52.49,60.21s-.01-.02-.02-.02c.04.08.06.1.02.02Z"/>
      <path class="cls-1" d="M51.11,59.42c.25.11,1.18.55,1.35.77-.09-.17-.25-.63.04-.89.39-.36-1.02.21-1.39.12Z"/>
      <path class="cls-1" d="M70.16,47.96c.01.18.02.36.06.54,0,.03.01.06.02.09,0,0,0-.01.01-.02.07-.11.13-.21.18-.31-.03-.09-.05-.17-.07-.24-.07-.01-.13-.03-.2-.06Z"/>
      <path class="cls-1" d="M60.16,52.3s-.02-.09-.14-.09c0,0-.22.17-.39.19,0,0,.53.28.67.43,0,0,.21.07.44.15.17-.31.35-.61.49-.94-.15.05-.91.33-1.07.25Z"/>
      <path class="cls-1" d="M60.52,53.26l.07.04s.02-.03.02-.05c-.04,0-.08,0-.09,0Z"/>
      <path class="cls-1" d="M93.17,60.38c.02-.1.09-.15.2-.25.11-.1.34-.32.39-.41.05-.09.09-.16.05-.28-.03-.13-.28-.7-.38-.89-.09-.19-.46-.69-.55-.87-.09-.18-.34-.74-.38-.89s-.22-.68-.26-.86c-.04-.18-.13-.44-.31-.86-.18-.42-.47-1.22-.52-1.35-.05-.13-.2-.7-.24-.82-.04-.12-.12-.38-.13-.43,0-.06,0-.07,0-.07,0,0-.11.04-.16.04-.04,0-.04,0-.06.07-.02.07-.22.56-.41.83-.19.27-.55.57-.65.64-.09.06-.25.22-.44.37-.2.15-.47.3-.6.38-.13.08-.36.21-.36.21,0,0-.08.23-.09.43,0,.21-.01.68-.02.76,0,.08,0,.11,0,.11,0,0,.42.21.8.5.38.29.8.64.96.72.15.08.85.54.96.63s.25.15.31.25c.06.1.16.19.21.48.05.29.07.41.07.41,0,0,.23.15.39.24.16.09.28.2.37.42s.43,1.19.43,1.19l.07.19.09-.07-.02-.18c0-.1.04-.22.1-.32.07-.1.16-.24.18-.34Z"/>
      <path class="cls-1" d="M90.02,61.65c-.1-.29-.18-.59-.17-.68,0-.09.01-.08-.04-.12-.05-.03-.19-.24-.2-.33-.01-.09,0-.17,0-.17,0,0-.06-.2-.06-.22,0-.02-.14-.03-.24-.05s-.35-.05-.48-.14c-.13-.09-.38-.19-.38-.19,0,0,.46.77.61.99.15.21.82,1.19.96,1.29.14.1.23.24.26.34.03.1.21.7.21.7l.35-.27-.27-.32c-.11-.12-.45-.54-.55-.84Z"/>
      <path class="cls-10" d="M75.93,47.76c-.02.41.11,1.18.14,1.44,0,0,0,.02,0,.03.02.24.03.13.02.45-.01.32-.11,1.34-.11,1.38,0,.04-.31.2-.5.25-.04.01-.07.03-.09.04-.07.06-.03.13,0,.17.04.05.5.91.55,1.06.05.15.14,1.92.13,2.11l-.05,1.26c.23.17.48.31.51.33.03.03.03.09.02.13,0,.04.02.11.03.16.02.05.04.06.06.11.02.05-.01.08-.02.11,0,.03.02.1.03.12,0,.02-.03,0-.04.02-.01.01.02.04.05.07.02.03,0,.06-.01.1-.02.04-.05.21-.07.27-.02.07-.09.25-.24.58-.15.32-.32.53-.52,1.08-.05.14-.1.3-.14.47.01.23.01.47-.03.7-.02.12-.04.25-.06.39.02,0,.04-.02.07-.02.49-.16.71-.02.76.03.05.05.11.12.19.19.07.07.12.2.12.2,0,0,.12-.05.21-.11.09-.06.3-.22.38-.31,0,0,.02-.02.03-.03.02-.03.03-.06.04-.07.05-.08.44-.67.5-.75.05-.09.25-.4.41-.84.16-.44.25-.82.29-1.02.03-.2.1-.37.13-.44.02-.07.03-.18.03-.24s.01-.22.04-.32c.02-.1.11-.34.16-.43.04-.09.07-.24.06-.32,0-.08.06-.16.1-.23.05-.07.14-.28.19-.53.05-.25-.04-.68-.05-.77-.01-.1-.06-.44-.06-.44,0,0,.21.09.38.13.18.05.5.06.62.04.12-.02.27-.32.26-.26-.03.22,1.5-1.37,1.96-4.37.01-.08,0-.09.03-.16.02-.07.09-.16.14-.24.05-.08.17-.33.25-.5.07-.17.11-.35.13-.44.02-.09.1-.27.13-.32s.07-.22.07-.24c0-.02.06-.17.09-.21s.15-.19.23-.27c.08-.08.09-.15.08-.21,0-.05-.06-.08-.08-.09-.02,0-.15.02-.18.04-.03.01-.16.1-.17.11.01-.01.07-.09.1-.13.04-.04.2-.1.26-.12.05-.02.06-.08.04-.15-.02-.08-.21-.08-.21-.08,0,0,.02-.06-.03-.1-.05-.05-.17-.07-.19-.08-.02,0-.12-.04-.19-.02-.07.02-.15.04-.15.04,0,0,.09-.07.15-.13.06-.06.02-.11.02-.15,0-.04-.1-.06-.1-.06s.05-.1.1-.18c.05-.08.39-.59.54-.81.14-.21.25-.39.32-.54.07-.15.2-.51.25-.62s.27-.34.36-.44c.09-.1.37-.38.47-.51s.38-.6.48-.78c.1-.18.49-.76.56-.85.07-.09.69-.82.73-.86.04-.05.06-.03.09-.05.03-.03.03-.08.05-.12.02-.04.22-.25.29-.33.08-.08.39-.31.53-.39.14-.08.25-.17.33-.23.08-.06.14-.14.21-.21.07-.07.15-.12.19-.16.04-.04.08-.09.13-.15.05-.06.08-.1.15-.13.07-.04.17-.07.17-.14,0-.08-.13-.12-.22-.12s-.25.11-.25.11c0,0,.02-.05.04-.11s.05-.12.14-.26c.09-.14.08-.25.04-.34-.04-.09-.24-.12-.24-.12,0,0,.02-.06,0-.15,0-.09-.09-.13-.21-.2-.13-.06-.25.05-.25.05,0,0-.06-.03-.14-.07-.08-.04-.19.01-.22.05-.03.03-.06.18-.09.21-.02.03-.05.16-.07.22-.02.06-.05.05-.08.04-.03-.02.05-.21.07-.27.02-.06,0-.13-.1-.17-.09-.04-.2.01-.25.05-.05.04-.08.21-.09.26-.02.05-.09.19-.11.22-.02.03-.1.17-.13.22-.02.05-.16.24-.22.32-.06.08-.21.37-.24.45s-.11.27-.14.32c-.03.05-.04.14-.07.17-.03.02-.11.15-.15.21-.04.06-.23.21-.53.49-.29.27-.82.82-.91.92-.09.1-.62.74-.8.95-.17.21-.59.7-.61.71-.02,0-.03.06-.04.08-.01.02-.03.03-.04.06,0,.03-.02.03-.06.05s-.02.03-.03.06c0,.03-.03.04-.05.06-.02.02,0,.06,0,.08,0,.02-.05.04-.08.05-.03,0-.04.03-.05.06,0,.02,0,.07-.07.14-.07.06-.42.52-.53.65-.11.14-.4.45-.47.58-.07.13-.28.34-.39.46-.11.13-.35.53-.38.55-.03.03-.06.02-.09,0-.02-.03-.1-.02-.12.02-.02.03-.11.05-.11.05,0,0-.05-.09-.14-.28-.08-.19-.3-.46-.41-.55-.11-.09-.56-.25-.79-.26-.22-.01-.67.04-.78.09-.11.04-.46.25-.67.54-.22.29-.25.66-.28.72-.03.05-.09.31-.1.43,0,.12-.03.46-.06.47-.03,0-.14.03-.2.04s-.3-.02-.35,0c-.05.02-.35.08-.51.13-.06.02-.15.07-.24.12,0,0,0,.02,0,.03,0,.22,0,.43,0,.58Z"/>
      <path class="cls-5" d="M93.76,47.78s.06-.06.14-.13c-.1.07-.14.12-.14.13Z"/>
      <polygon class="cls-5" points="93.76 47.78 93.76 47.78 93.76 47.78 93.91 47.66 93.76 47.78"/>
      <path class="cls-6" d="M85.33,37.57l-1.29-.23c.08-1.38-.44-2.58-1.31-3.03,0,0,0,0-.01,0-.35-.19-.72-.32-1.02-.38,0,0,0,0,0,0-.03,0-.06-.01-.09-.02-1.18-.2-2.37.9-2.8,2.53-.03,0-.06,0-.08-.02-.03-.03-.06-.07-.14-.07-.08,0-.1.01-.07-.06.03-.07-.04-.13-.11-.11-.07.02-.24.08-.34.12-.1.04-.09-.05-.13.21-4.09-.99-9.48-1.42-9.48-1.42,0,0-.01-.2-.06-.28-.05-.08-.37-.07-.4-.09-.03-.02-.21-.1-.24-.01-.03.09.08.33.08.33l-.08-.03s-.05-.09-.12-.21c-.07-.11-.26-.14-.35-.18-.09-.04-.13.04-.14.05,0,.02-.08-.02-.13-.03-.05,0-.16,0-.19.05-.03.04-.08.03-.16.02-.08,0-.11.02-.18.02-.07,0-.1,0-.24.07-.14.06-.16.15-.16.15h-.07c-.02-1.52-.73-2.78-1.71-3.15,0,0,0,0-.01,0-.37-.15-.76-.22-1.06-.25,0,0,0,0,0,0-.03,0-.06,0-.09,0-1.12-.04-2.09,1.05-2.39,2.56l-1.81-.07c-.07,0-.22.25-.21.49,0,.24.08.56.17.56l1.76.07c.03,1.43.67,2.64,1.58,3.06,0,0,0,0,0,0,.03.02.08.04.15.06.01,0,.03,0,.04.01.22.07.57.16.83.2.07.01.14.02.22.03.02,0,.03,0,.05,0,1.22.05,2.27-1.26,2.45-2.97l.14.02s0,.04.03.13c.03.1.39.53.54.67.15.14.08.18.18.53.1.35.37,2.42.41,2.94.03.46.62,1.98.88,2.58.39.1.79.23,1.17.35.18.05.36.13.54.2.11.04.22.07.33.11.03.01.06,0,.09.03.26.22.18.64.31.9.15.3.41.54.51.86.06.18.1.38.15.57.06.21.15.39.24.59.08.19.15.38.27.56.09.14.21.29.22.46,0,.06-.01.12-.03.18.02.05.04.1.06.15.08.2.12.4.14.61.03.43-.13.68-.41.99-.35.39-.78.7-1.14,1.07-.02.02-.03.03-.05.05.03.15.06.3.09.45.05.3.04.59.04.89,0,.34.02.68-.02,1.01-.03.24-.03.57-.2.76-.12.14-.26.24-.42.32,0,0,0,0,0,.01.02.11.01.21-.02.33-.02.07-.05.2-.11.28.02.13.02.26,0,.38-.01.11-.04.21-.07.31,0,.02,0,.04,0,.08,0,.1,0,.08,0,.15,0,.07.01.13,0,.26v.23c-.01.1-.01.15-.03.28-.01.14,0,.23-.02.38-.01.15-.02.18-.05.44-.03.27-.09.78-.09.94,0,.15-.13.54-.23.69-.1.16.13.21.13.21,0,0,0,.32-.24.6-.21.23-.39.56-.53.91-.24.62-.36,1.34-.34,1.85,0,.01,0,.02,0,.03,0,.1,0,.19.01.28.06-.01.12-.02.18-.03.47-.04.91.05,1.3.25.05-.12.11-.24.16-.36.12-.26.2-.51.26-.75.07-.27.12-.51.16-.72.08-.39.38-.84.55-1.2.18-.37.31-.43.37-.45.06-.02.35-.14.62-.16.27-.02.66-.13.76-.38.1-.24.58-1.54.58-1.54,0,0,.07.4.1.54.02.13.08-.04.06.07-.02.12.18.61.19.65.01.04-.02.65-.04,1,0,.17.06.46.14.75.09.32.22.63.3.76.07.11.11.3.13.49.03-.01.05-.02.07-.03.2-.1.65-.31,1.08-.46.04-.01.08-.03.12-.04.02-.13.04-.26.06-.39.04-.23.05-.48.03-.7,0-.04,0-.09,0-.13-.03-.32-.09-.59-.11-.69-.04-.17.04-.64.07-.82.03-.18.12-.36.12-.36,0,0,.37-.2.37-.28,0-.07,0-.19-.06-.37-.07-.17-.05-.51-.04-.78v-.13s.05-1.26.05-1.26c0-.19-.08-1.96-.13-2.11-.05-.15-.51-1.01-.55-1.06-.03-.04-.07-.11,0-.17.02-.02.05-.03.09-.04.19-.06.49-.21.5-.25,0-.04.1-1.06.11-1.38.01-.32,0-.22-.02-.45,0,0,0-.02,0-.03-.02-.26-.16-1.04-.14-1.44,0-.15,0-.36,0-.58,0,0,0-.02,0-.03,0-.4-.02-.82-.01-.92,0-.15.19-1.29.24-1.45.05-.16.28-.31.28-.31,0,0-.04-.09.05-.18.09-.09.48-.7.62-.97.14-.27.69-1.2.77-1.37.08-.17.48-.8.66-1.12.18-.33.35-1.2.37-1.46,0-.04,0-.09.02-.15.21.5.52.9.91,1.15,0,0,0,0,0,0,.03.02.08.05.14.08.01,0,.03.01.04.02.21.1.54.23.8.31.07.02.14.04.21.06.02,0,.03,0,.05,0,1.17.2,2.35-.88,2.79-2.48l1.27.23c.07,0,.25-.21.28-.45.03-.24,0-.57-.09-.58ZM78.25,37.81c-.05.25-.18.73-.43,1.25-.25.52-.55.7-.74,1.09-.19.39-.15.89-.46,1.19-.31.3-.7.72-.91,1.02-.05.01-.13-.01-.14.04,0,.05.02.1-.1.12-.12.02-.13,0-.23.04-.1.05-.09.04-.15.1-.06.06-.04.07-.16.12-.12.04-.21.05-.23.06-.02.02-.02.04-.05.09-.03.05,0,.1-.16.15-.15.05-.22,0-.22.09,0,.1-.14.23-.19.33-.05.11,0,.22-.12.2-.11-.02-.28-.22-.31-.27-.03-.05-.22-.26-.2-.47.01-.22.22-.61.19-.77-.03-.16-.22-.58-.26-.69-.04-.11-.24-.28-.24-.28,0,0,.03-.2-.03-.25-.06-.05-.04-.06-.08-.16-.04-.09-.22-.28-.4-.38-.18-.1-.15-.1-.15-.1l.24.1s-.07-.24-.29-.32c-.23-.08-.55-.18-.92-.09-.37.09-.43.19-.56.27-.13.08-.25.2-.34.28-.08.08-.12.12-.19.25-.07.13-.08.17-.11.27-.04.1-.2.4-.2.62,0,.21,0,.48.02.55.02.07.11.27.11.29-.03-.05-.67-1.17-.91-1.44-.25-.28-.22-.58-.33-.81-.11-.23-.15-.98-.25-1.32-.1-.34-.67-1.59-.75-2.54-.01-.41,0-.47.08-.49.08-.03.39-.28.39-.28,0,0,3.28.03,9.22,1.24,0,0,.02.16.1.22.09.07.3.3.37.36.07.07.15.07.1.32Z"/>
      <path class="cls-3" d="M76.69,63.66h0s0,0,0,0Z"/>
      <g>
        <path class="cls-10" d="M76.32,63.33s-.03.01-.06.02c-.24.08-1.06.35-1.42.46-.03,0-.06.02-.08.03-.08.02-.23.07-.41.12-.01.04-.04.11-.07.2-.04.12-.01.28,0,.4.02.11.13.21.13.21,0,0-.01.04-.03.09-.02.05-.1.24-.13.31-.03.06-.08.12-.11.13-.03,0-.1.04-.15.05-.04.02-.14.19-.17.25-.03.06-.09.16-.09.18,0,.02-.04.12-.07.18-.03.06.02.08.02.08,0,0,1.79.16,1.84.16s.07-.02.15-.1c.08-.08.13-.23.14-.26.01-.03.05-.06.08-.12.04-.06.02-.14,0-.19-.01-.04-.09-.07-.09-.07s0-.03,0-.06c0-.03.01-.11.01-.11,0,0,.08.06.17.07.09.02.24-.01.32-.06.08-.05.1-.15.1-.23,0-.07,0-.21,0-.26,0-.05-.06-.14-.1-.23.15-.38.29-1.22.31-1.46-.06.07-.19.15-.29.19Z"/>
        <path class="cls-10" d="M76.68,63.66s0,0,0,0h0Z"/>
      </g>
      <path class="cls-9" d="M54.33,53.18s-.15.21-.14.25c0,0,1.25-1.16,2.18-1.16,0,0-1.92-.7-1.92-.94,0,0-.36-.15-.49-.09-.13.06-.3.17-.35.12,0,0,.17.25-.04.6,0,0,.76,1,.76,1.23Z"/>
      <path class="cls-7" d="M57.79,51.52s.21-.04.36-.13c-.03-.06-.05-.11-.08-.14-.03-.32-.14-.67-.23-.89.08-.18.02-.49.02-.53,0-.04-.09-.12-.09-.12,0,0,.05-.24.14-.38.09-.14.23-.72.24-.84,0-.12.09-.54.21-.72.12-.17.48-1.35.51-1.57.03-.22.37-1.29.45-1.42.08-.13.36-.9.29-1.44-.08-.54-.38-.71-.32-.72.05-.02.15-.03.11-.12-.04-.08,0-.33.07-.39.07-.06,0-.15-.06-.19-.07-.04-.65-.15-.65-.15,0,0,.18-.19.23-.38.18.05.22-.1.28-.18.13.08,1.86,1.38,3.42,2.56.06-.02.13-.04.19-.07,0,0,0,0,0,0l-3.52-2.74s.17-.3.2-.35c.04-.05-.02-.12-.06-.11-.04,0-.14.07-.13.03.01-.03.13-.24.14-.3.01-.06.02-.35.08-.45.06-.1.05-1.07-.81-1.36-.86-.29-1.23-.04-1.53.36-.02-.15-.1-.17-.12-.17-.02,0-.24.05-.24.05-.03-.05-.2-.17-.26-.15-.03-.07-.06-.11-.12-.13-.03-.12-.1-.36-.16-.41-.06-.05-.29-.11-.33-.1-.02-.06-.17-.11-.2-.11-.02,0-.08,0-.09-.04-.01-.04-.14-.07-.16-.07-.02,0-.09-.04-.09-.04,0,0-.06-.05-.16-.06-.11,0-.18-.04-.24-.02-.06.02-.08.06-.1.1-.07,0-.24.15-.23.27-.17.1-.28.24-.32.3-.09,0-.2.11-.23.15-.03.03-.03.11-.03.17-.08.14-.6,1.32-.65,1.47-.05.15-.35.72-.42.88-.07.16-.25.7-.26.79,0,.08-.04.33-.09.43-.04.1-.17.45-.09.63.09.17.28.31.38.33.11.02.43.11.49.22.05.14.31.49.39.51.07.02.2.02.26.01.08.14.24.28.25.35,0,.07-.22.73-.25.91-.03.18-.1.76-.11.96-.15.2-.42.71-.47.84-.05.14-.22.68-.27.86-.12.18-.21.43-.25.48-.04.05-.22.2-.23.25-.02.05,0,.2.01.26,0,.07.03.18.12.27.1.09.19.18.19.18,0,0-.05.2-.08.33.59.1,1.35.26,1.75.45,0,0,2.61,1.33,2.93,1.6ZM55.64,39.67c.13.07.31.06.47.04.16-.02.5-.12.57-.08-.08.15-.08.3-.09.37-.01.07-.07.35-.06.4.02.04.08.46.25.32-.1.29-.13.76-.12.85-.1-.2-.36-.28-.49-.27-.13-.1-.24-.22-.43-.2-.15-.13-.21-.17-.22-.33l-.02-.55c.05-.18.12-.49.14-.54Z"/>
      <path class="cls-9" d="M58.73,57.89c-.18-.23-.42-.65-.41-1.12,0-.47.19-2.1.17-2.52,0-.22-.03-.49-.05-.72-.08-.11-.13-.2-.12-.26,0,0-.32,0-.36-.06,0,0-1.14,1.02-1.58,1.46,0,0-2.14,2.52-2.82,2.73.02.1.03.18.04.23.01.12.05.52.1.96.56-.06,1.23-.06,1.93.05-.03-.97-.05-2.21.05-2.48.13.24.33,1.86.39,2,.06.13.25.47.45.7.64.21,1.3.54,1.91,1.04,0,0,.75.7.89,1.52.09-.44.19-.88.35-1.29-.04-.12-.08-.24-.12-.36-.24-.82-.65-1.66-.83-1.89Z"/>
      <path class="cls-9" d="M54.47,62.37c.14.38.19.73.26.99.07.26.09.58.03.69-.05.11-.1.43-.11.5,0,.1.1.36.1.36,0,0,0,.46.06.45,0,.12-.07.35.07.37.14.02.45.06.61.03.17-.03.85-.27.98-.28.14,0,1.24-.14,1.41-.2.16-.06.62-.48.72-.59.11-.1-.16-.49-.34-.48-.18,0-.46.02-.65.11-.19.09-.57-.04-.7-.15-.13-.11-.24-.13-.24-.48,0-.18-.06-.44-.13-.69-.62-.09-1.35-.32-2.13-.79.02.06.03.11.05.14Z"/>
      <path class="cls-9" d="M60.72,65.99s.07-.04.15-.09c.06-.03.06-.02.08-.04.03-.04,0,0,.03-.06.01-.03.04-.05.06-.06.04-.07.06-.13.08-.18.07-.25.02-.9.13-1.21.11-.31.42-.95.35-1.46-.03-.25-.15-.44-.3-.55-.21.46-.53.87-.73,1.33-.1.24-.2.49-.3.73-.03.07-.07.14-.11.22.02.16.05.3.02.46-.03.16-.08.31-.12.47-.06.29.06.46-.27.59-.32.12-.65.15-.95.34-.03.26-.02.48.09.55.3.19,1.15.02,1.32-.18.16-.18.35-.44.51-.68-.09,0-.19,0-.21-.04-.02-.03.14-.11.16-.15Z"/>
      <path class="cls-9" d="M60.98,65.81s0,.02-.03.06c-.02.03-.02.01-.08.04-.08.04-.13.05-.15.09s-.18.13-.16.15c.02.03.12.04.21.04.11-.16.2-.31.27-.44-.03.02-.05.03-.06.06Z"/>
      <path class="cls-10" d="M55.64,58.65c-.7-.12-1.37-.11-1.93-.05M53.71,58.6c-.87.09-1.51.29-1.67.32-.41.08-2.03-.13-2.03-.13-.36-.18-2.4-.82-2.4-.82-.06-.2-.22-.48-.22-.48.03-.12.71-.49.71-.49.68-.15,2.58-1.59,2.58-1.59.1.36,1.85,1.53,1.85,1.53.23.32.94.48.94.48.03,0,.06,0,.1-.02.68-.21,2.82-2.73,2.82-2.73.44-.44,1.58-1.46,1.58-1.46.04.07.36.06.36.06-.02.05.04.15.12.26.2.27.6.63.6.63.21.01.61.37.61.37.28.43.29-.11.29-.11.05,0,.15.05.26.1.02-.16.05-.32.09-.47.07-.26.18-.51.29-.75,0,0,.03-.07.04-.08.04-.08.08-.16.12-.24-.23-.09-.44-.15-.44-.15-.15-.15-.67-.43-.67-.43.17-.02.39-.19.39-.19.12,0,.14.09.14.09.16.07.92-.2,1.07-.25.06-.15.12-.31.15-.49.12-.59.07-1.19.17-1.77-.26-.03-.25.15-.25.15-.09.06-.47-.12-.47-.12-.81-.66-1.79-.43-1.79-.43-.5.1-.73,1.86-.73,1.86-.03.06-.09.11-.15.15-.15.09-.36.13-.36.13-.31-.27-2.93-1.6-2.93-1.6-.4-.19-1.17-.35-1.75-.45-.44-.08-.78-.12-.78-.12-1.06-1.31-3.43-2.1-3.43-2.1.09-.12.09-.29.09-.29.11-.27.54-.14.54-.14.04-.19,0-.27-.02-.31.24.31.4-.2.4-.2-.03-.36-.36-.63-.36-.63.15.02.52.77.26.03,0-.02-.02-.04-.02-.06-.27-.68-.84-.68-.84-.68-.47-.5-1.41-.23-1.41-.23l-.42-.08c-1.95-.6-2.1.43-2.1.43-.56.09-.79,1.16-.79,1.16-.18.07-.03.4-.03.4-.27-.02-.29,1.08-.29,1.08-2.18,1.08-1.24,3.28-1.24,3.28-.24.54,0,2.18,0,2.18.24.38.18,1.35.18,1.35.1,1.14,1.61,2.42,1.61,2.42-.07.14.13.36.13.36-.29.19.63,3.07.63,3.07.69,1.76.19,3.47.19,3.47-.16-.05-.2.64-.2.64-.3.04-1.01.88-1.01.88,0,0,.02-.06-.05.05-.08.11-.77.49-.77.49-.71.13-.56.63-.56.63.23.56,3.25.38,3.25.38.07-.07.1-.18.1-.18.44.13,1.3-.45,1.3-.45.22-.27.01-.97.01-.97-.14-.23-.14-.89-.14-.89-.14-.35-.34-.45-.34-.45.13-.36.29-3.22.29-3.22.41-1.07.02-1.59.02-1.59.08-.02.06-.23.06-.23.44.55.65.05.65.05.17.11,1.79.43,1.79.43.97.05,3.69,2.19,3.69,2.19.3.24.59.44.88.61,0,0,0,0,0,0,.78.47,1.51.69,2.13.79,1.31.2,2.17-.18,2.17-.18.15-.07.24-.18.33-.28.05-.06.07-.13.1-.18.02-.12.04-.23.06-.34.04-.2.07-.4.11-.6-.14-.82-.89-1.52-.89-1.52-.62-.51-1.27-.84-1.91-1.04-.3-.1-.6-.17-.89-.22M51.11,59.42c.37.09,1.79-.48,1.39-.12-.29.26-.12.72-.04.89,0,0,.02.02.02.02.04.08.02.05-.02-.02-.17-.22-1.11-.65-1.35-.77-.02,0-.05-.01-.06-.03,0,0,.02.01.06.03ZM48.29,52.94c-.61-.14-3.15,2.84-3.15,2.84-.05-.43-.53-1.18-.53-1.18-.25-.26-.29-.8-.29-.8.16-.81.04-2.36.04-2.36.11.09.33.04.33.04.65,1.69,1.92.49,1.92.49.1.49,1.69.69,1.69.69l-.02.28ZM54.33,53.18c0-.23-.76-1.23-.76-1.23.2-.35.04-.6.04-.6.05.05.22-.06.35-.12.13-.06.49.09.49.09,0,.24,1.92.94,1.92.94-.93,0-2.04.91-2.04.91Z"/>
      <path class="cls-7" d="M97.01,66.45c-.13-.08-.22-.14-.22-.14-.14-.1-.47-.28-.55-.29-.08-.01-.22-.04-.25-.09-.03-.04-.21-.11-.26-.16s-.06-.2-.13-.24c-.07-.05-.21-.08-.22-.15-.01-.07.07-.14-.11-.2-.18-.05-.22-.05-.22-.14,0-.09-.1-.15-.21-.1-.11.04-.17.05-.21,0-.04-.05-.08-.24-.14-.26-.05-.01-.04-.21-.08-.28-.04-.07-.44-.77-.54-.88-.1-.12-.43-.62-.53-.86-.1-.24-.32-.86-.32-.86h.08s.11.12.2.08c.09-.04.29-.12.35-.17.06-.05.3-.23.45-.29.15-.06.4-.04.47-.19.07-.15.16-.55.16-.93,0-.37.03-.72-.03-.87-.06-.14-.36-1.45-.42-1.81-.06-.36-.23-1.11-.36-1.45-.13-.34-.51-.99-.59-1.22-.08-.24-.18-.69-.22-.92-.04-.23-.13-.59-.28-.89-.15-.3-.27-.45-.29-.68-.02-.23-.04-.61-.06-.75-.03-.14-.05-.2-.05-.2,0,0,.06-.04.09-.08.03-.04.04-.09.07-.12.03-.03.12-.08.14-.15.02-.07.04-.19.08-.22.04-.03.09-.01.15,0s.14.06.19-.03c.05-.08.05-.32.05-.48,0-.16-.01-.28-.01-.3,0-.02.06,0,.06,0v-.04s-.03-.1.06-.15c.09-.06.27-.12.29-.17.02-.06.08-.33.12-.4.03-.07.12-.36.11-.49-.02-.13-.04-.2-.04-.25,0-.06.05-.26-.02-.35-.07-.09-.17-.13-.17-.22,0-.09.02-.13.02-.25,0-.12-.01-.31-.07-.47-.06-.15-.37-.53-.5-.57-.13-.05-.27-.05-.41-.07s-.11-.06-.24-.07c-.14-.01-.24,0-.31-.01-.07-.02-.21-.04-.32-.01-.12.03-.17.05-.28.04-.11,0-.2.01-.3.03-.1.02-.22,0-.35.06-.13.07-.19.1-.19.1,0,0,.1-.12-.05-.26-.15-.14-.22-.14-.33-.14-.12,0-.18-.03-.29-.1-.11-.07-.17-.1-.25-.04-.08.06-.24-.13-.39-.1-.15.03-.17.16-.16.22.01.06-.21.26-.3.32-.09.05-.04.14-.07.18-.03.04-.14.07-.25.17-.1.1-.16.14-.1.17.06.03.24,0,.13.07-.11.06-.24.29-.15.43.13.22.05.5.12.56.07.06.23-.04.46-.05.24,0,.16-.02.25.04.09.06.14.01.12.12-.02.11-.15.22-.14.33,0,.11-.06.2.03.24.08.04.17.1.3.09.14,0,.24-.02.24-.02v.11s-.11.02-.26.04c-.15.02-.53.12-.71.19-.18.07-1.03.34-1.2.4s-.96.39-1.13.44c-.18.06-.44.19-.54.26-.1.07-.37.28-.5.36l-.13.08s-.21.16-.29.22c-.08.06-.24.22-.45.33-.21.12-.59.27-.82.36-.23.09-.58.28-.66.4-.08.12-.11.3-.14.31-.03,0-.23.14-.27.29-.04.14-.17.36-.26.39-.09.03-.19.11-.24.18-.05.07-.17.19-.22.21-.05.02-.08.07-.15.1-.07.03-.3.15-.37.18-.07.03-.25.14-.29.17-.03.03-.11.1-.17.11-.06,0-.07.09-.08.1-.01.02-.17.1-.2.15-.03.05-.06.22-.06.22,0,0-.13.13-.24.35-.11.22-.22.42-.25.54-.03.13-.04.18-.04.18,0,0-.06.16-.07.21,0,.04-.04.17-.04.21,0,.04-.04.13-.05.16s-.02.15,0,.18c0,.02-.02.1-.03.13,0,.03,0,.14,0,.17-.01.03,0,.08,0,.08,0,0-.14.41-.16.43-.03.03-.02.11-.03.12,0,.01,0,.04,0,.04,0,0-.81.9-1.05,1.22-.23.32-.68.93-.84,1.15-.14.2-.41.54-.52.67-.01.01-.02.03-.03.03-.08.08-.29.24-.38.31-.09.06-.21.11-.21.11,0,0-.05-.13-.12-.2-.07-.07-.14-.14-.19-.19-.05-.05-.27-.19-.76-.03-.02,0-.04.02-.07.02-.04.01-.08.03-.12.04-.44.16-.88.36-1.08.46-.02.01-.05.02-.07.03-.22.1-.48.19-.57.24-.1.05-.82.5-.94.59-.12.09-.65.41-.79.5-.14.09-.63.35-.73.43-.08.06-.32.21-.45.28.24.33.39.73.43,1.16.03.37-.02.72-.14,1.05.06-.02.13-.06.22-.16.18-.21.43-.36.57-.46s.55-.34.85-.4c.22-.04,1.06-.26,1.59-.41.18-.05.33-.09.41-.12.02,0,.05-.02.08-.03.35-.11,1.18-.38,1.42-.46.03,0,.05-.02.06-.02.1-.04.24-.13.29-.19,0,0,.01-.02.02-.02.04-.07.05-.09.1-.09.05,0,.16,0,.16-.01s.01-.03.01-.03c0,0,.39.04.57.02.18-.02.4-.07.59-.17.19-.1.6-.27.81-.43.21-.16.89-.7,1.17-.93s1.29-1.07,1.5-1.26c.21-.19.67-.63,1.03-1.1.36-.47.56-.75.56-.75,0,0,.11-.07.14-.11.03-.04.07,0,.12.02.05.02.57.3.97.43.4.14.89.32.98.33s.37.11.54.18c.17.06.74.18.74.18,0,0,.17.35.31.53.13.18.4.51.48.64.08.13.66.75.95,1.03.29.28,1,.97,1.06,1.1.05.13.06.17-.05.44-.12.27-.23.48-.26.58-.04.1-.07.25-.06.28,0,.03-.05.16-.07.22-.02.05-.04.14-.04.14,0,0-.84.6-1.22.91-.38.31-1.63,1.38-1.82,1.57-.19.2-.3.3-.3.3,0,0-.05-.02-.03-.12.03-.1.16-.37.08-.47-.09-.1-.34.06-.46.25-.11.2-.39.63-.4,1.08,0,.45.05.58.25.6.21.02.26.08.77-.5.51-.58,1.71-1.66,2.3-2.15s1.23-1.03,1.23-1.03c0,0,.11.06.18.04.07-.03.19-.11.25-.11.06,0,.21-.05.23-.09.02-.04.12-.08.16-.12.05-.03.17-.14.18-.18.01-.04.11-.07.14-.16s.24-.21.25-.32c.02-.11-.04-.14-.04-.14,0,0,.06-.05.07-.09.01-.04.03-.07.03-.07l.46-.33s.51.61.62.82c.11.21.44.72.48.77.03.05.12.13.12.19s.02.15.02.15c0,0-.15.12-.21.32s-.14.4-.13.45,0,.05-.02.06c-.02,0-.11.04-.1.16,0,.12.03.19,0,.23-.03.04-.11.03-.11.1,0,.07-.05.21.01.25s.58.28,1.32.27c.73,0,.92-.08,1.15-.05.23.03,1.4.16,1.82.15.42,0,.9-.03.9-.14,0-.11-.02-.12,0-.19.02-.08.01-.23-.11-.32ZM90.49,63.07s-.18-.6-.21-.7c-.03-.1-.13-.23-.26-.34-.14-.1-.81-1.08-.96-1.29-.15-.21-.61-.99-.61-.99,0,0,.25.1.38.19.13.09.38.13.48.14s.24.02.24.05c0,.03.06.22.06.22,0,0-.02.07,0,.17.01.09.15.3.2.33.05.03.04.03.04.12,0,.09.07.38.17.68.1.29.44.71.55.84l.27.32-.35.27ZM92.91,61.22l-.09.07-.07-.19s-.34-.97-.43-1.19-.21-.33-.37-.42c-.16-.09-.39-.24-.39-.24,0,0-.02-.12-.07-.41-.05-.29-.16-.38-.21-.48-.06-.1-.2-.15-.31-.25s-.8-.55-.96-.63c-.15-.08-.58-.43-.96-.72-.38-.29-.8-.5-.8-.5,0,0,0-.03,0-.11,0-.08,0-.55.02-.76,0-.21.09-.43.09-.43,0,0,.24-.13.36-.21.13-.08.4-.23.6-.38.2-.15.35-.31.44-.37.09-.06.46-.37.65-.64.19-.27.39-.77.41-.83.02-.07.02-.07.06-.07.04,0,.16-.04.16-.04,0,0,0,.02,0,.07,0,.06.09.32.13.43.04.12.19.69.24.82.05.13.34.93.52,1.35.18.42.27.68.31.86.04.18.21.71.26.86s.29.72.38.89c.09.18.46.68.55.87.09.19.34.76.38.89.03.13,0,.19-.05.28-.05.09-.28.31-.39.41-.11.1-.18.15-.2.25-.02.1-.11.24-.18.34-.07.1-.11.21-.1.32l.02.18Z"/>
      <g>
        <g>
          <polygon class="cls-2" points="65.1 60.77 65.04 60.86 65.04 60.86 65.1 60.77 65.1 60.77"/>
          <path class="cls-2" d="M72.18,47.97c-.02-.21-.05-.41-.14-.61-.02-.05-.04-.11-.06-.15.02-.06.04-.12.03-.18,0-.18-.13-.32-.22-.46-.12-.18-.19-.36-.27-.56-.09-.2-.18-.37-.24-.59-.05-.19-.09-.38-.15-.57-.11-.32-.36-.57-.51-.86-.14-.27-.06-.68-.31-.9-.03-.03-.06-.02-.09-.03-.11-.04-.22-.06-.33-.11-.18-.07-.36-.15-.54-.2-.39-.11-.78-.25-1.17-.35-.02,0-.03,0-.05-.01-.27-.07-.61-.16-.91-.16-.06-.04-.11-.07-.17-.11-.03-.02-.07-.05-.11-.07,0-.02-.02-.05-.02-.07-.03-.13-.05-.26-.06-.39.27-.18.32-.61.3-.94,0-.11,0-.35-.16-.36,0,0,0,0,0,0,.01-.19,0-.38.01-.57,0-.24.03-.49-.07-.71-.13-.3-.38-.54-.69-.5-.15-.29-.8-.09-1.01-.02-.3.11-.58.26-.85.42-.21.13-.4.27-.62.39-.19.11-.42.11-.61.23-.02.01,0,.05.02.05.01,0,.03,0,.04,0,.12.01.25.03.4.02-.11.07-.22.13-.35.17,0,0,0,0,0,0,.02,0,.05,0,.07-.01,0,0,0,0,0,0,.15-.02.3-.03.45-.05,0,0,0,0,0,.02,0,.02,0,.04,0,.06-.1.07-.2.12-.33.14,0,0,0,0,0,0,.12,0,.23,0,.33-.04,0,.05.01.11.02.16,0,.05.02.14.05.23.02.08.04.16.07.23-.1.15,0,.45.02.58.05.25.17.4.36.55.05.33.23.67.41.9-.1.08-.2.16-.31.24-.24.17-.49.31-.74.46-.26.15-.52.33-.8.44,0,0,0,0,0,0-.06.03-.13.05-.19.07-.11.04-.29.35-.29.38,0,.01,0,.02,0,.03-.05.13-.13.26-.2.38-.09.16-.16.33-.23.5-.16.42-.16.81-.14,1.26.03.5.09.99.13,1.49.01.15.01.29,0,.44,0,.03-.02.08,0,.11.02.06.06.1.11.12-.06.13-.1.28-.17.4-.14.26-.26.51-.32.8,0,.04-.01.07-.02.11-.1.58-.05,1.19-.17,1.77-.03.17-.09.33-.15.49-.14.32-.32.62-.49.94-.04.08-.08.16-.12.24,0,.01-.03.07-.04.08-.11.24-.22.49-.29.75-.04.15-.07.31-.09.47-.02.17-.04.33-.06.5,0,.04.03.07.07.06.13-.04.17-.22.19-.35.02.07.05.14.08.19.02.03.06.06.1.03.05-.04.08-.09.11-.14,0-.02.02-.04.02-.06,0,0,.01.01.02.02.04.03.09,0,.11-.04.03-.12.02-.23,0-.35.04-.06.08-.12.12-.19.04-.06.07-.13.1-.19.01-.02.02-.04.03-.05.04-.07.08-.13.12-.21.01-.02.02-.04.03-.06.07,0,.14-.02.21-.09.08-.08.13-.22.2-.31.08-.11.2-.2.28-.32.12-.18.16-.43.09-.65.06-.11.12-.22.17-.32.1-.19.2-.37.32-.55.2-.3.37-.58.51-.9.03-.08.07-.15.09-.24.13-.39.31-.78.41-1.18.05-.21.04-.41.1-.62.05-.18.11-.34.1-.52.06-.07.11-.15.16-.22.02.07.04.13.07.19.03.07.09.14.14.2.1.16.13.28.15.46.01.13,0,.26,0,.39,0,.03-.02.05-.02.08,0,.05.02.06.04.09-.02.16.01.32-.03.48-.06.24-.17.45-.27.67-.05.1-.09.21-.1.33-.01.13.04.22.06.34.01.1,0,.16-.02.21-.05.11-.17.15-.27.27-.05.06-.08.11-.09.18-.01.09.05.15.05.23,0,.07-.05.14-.09.22-.04.08-.08.16-.05.25,0,.04.03.07.05.09-.09.06-.17.14-.23.23-.17.25-.3.52-.49.76-.38.49-.7.97-.99,1.52-.31.59-.35,1.24-.47,1.88-.07.36-.19.64-.37.95-.09.15-.21.31-.25.48-.01.05-.02.11-.02.16-.14.17-.25.38-.37.56-.17.27-.34.55-.47.84-.05.1-.09.19-.12.29-.16.42-.26.85-.35,1.29,0,0,0,0,0,0-.04.2-.08.4-.11.6-.02.11-.04.23-.06.34,0,0,0,0,0,0-.03.18-.05.36-.08.55-.11.8-.21,1.6-.58,2.31-.13-.02-.26.1-.28.09-.02,0-.06,0-.07.03-.09.14-.2.17-.3.31-.12.16-.25.29-.42.4-.14.09-.27.18-.4.27-.06.04-.18.11-.21.18-.1.2.1.28.25.3.31.05.63.05.95.04.16,0,.27,0,.41-.07.15-.07.26-.2.4-.28,0,0,.01,0,.02,0,.3-.19.62-.21.95-.34.33-.13.21-.3.27-.59.03-.16.08-.31.12-.47.03-.16,0-.3-.02-.46.04-.07.08-.15.11-.22.1-.24.2-.49.3-.73.2-.47.51-.87.73-1.33.02-.05.04-.09.06-.14.18-.43.3-.89.34-1.35.03-.28.06-.57.12-.86.09-.14.19-.28.3-.41.23-.3.49-.59.7-.9.09-.14.22-.26.31-.39.11-.15.21-.3.31-.45.12.03.25.07.37.09.15.02.39.07.53.03.13-.04.22-.19.28-.29.14-.24.25-.5.37-.74.12-.23.29-.44.44-.67.15-.24.31-.49.49-.71.08-.11.17-.21.26-.31.08.13.18.25.25.33.15.16.33.32.51.44,0,.05,0,.09-.01.12-.01.11-.03.26-.02.4-.05.05-.1.1-.14.14-.2.2-.4.39-.58.61-.16.19-.3.37-.37.61-.09.27-.1.54-.16.82-.13.61-.17,1.21-.42,1.79-.04.1-.08.19-.14.28h0s0,0,0,0c-.02.03-.04.06-.06.09h0s0,0,0,0c0,0-.01.02-.02.02-.03.04-.07.08-.11.12-.08.06-.16.14-.23.18-.14.1-.25.24-.35.39-.11.17-.18.35-.27.53-.12.23-.27.35-.48.51-.34.26-.53.67-.47,1.06h0s0,0,0,0c.03.22.13.43.32.61.27.25.62.3.95.13.11-.06.19-.14.26-.23,0-.02.02-.03.03-.05.04-.07.07-.19.08-.2,0,0,.06-.06.09-.09.01-.02.02-.04.03-.07,0-.02,0-.04,0-.05,0,0,.02-.04.06-.09,0-.01.01-.03.02-.04.19-.37.45-.7.74-1,.19-.2.25-.5.29-.77.09-.05.19-.1.25-.17.1-.12.1-.29.17-.43.21-.39.56-.74.84-1.08.55-.65,1.11-1.34,1.39-2.15.08-.24.14-.47.17-.73.02-.22,0-.45.08-.66.09-.29.33-.57.49-.83.12-.2.19-.35.23-.53,0,0,0,0,0,0,.12-.11.2-.25.26-.41.04-.1.06-.2.07-.31.02-.13.02-.26,0-.38.06-.08.09-.21.11-.28.03-.11.03-.22.02-.33,0,0,0,0,0,0,0,0,0,0,0,0,.16-.08.3-.19.42-.32.17-.19.16-.52.2-.76.05-.34.03-.67.02-1.01,0-.3,0-.59-.04-.89-.03-.15-.06-.3-.09-.45.02-.02.03-.03.05-.05.37-.37.79-.68,1.14-1.07.28-.31.44-.57.41-.99ZM70.51,48.23c-.06.1-.1.14-.16.25,0,0-.11.1-.11.11,0-.03-.01-.06-.02-.09-.03-.18-.04-.56-.06-.73.06.03.13.05.2.06.07.01.21.02.27.02-.03.12-.08.31-.12.38Z"/>
        </g>
        <path class="cls-2" d="M70.84,63.16c-.23-.32-.53-.57-.88-.75-.39-.2-.83-.29-1.3-.25-.06,0-.12.02-.18.03-1.23.21-2.1,1.32-1.99,2.57.1,1.13.99,2.01,2.08,2.15.17.02.35.03.53.01.02,0,.05,0,.07-.01.28-.03.54-.11.78-.23.12-.06.23-.13.33-.2.29-.21.53-.48.71-.79,0-.01.01-.03.02-.04.04-.09.08-.18.12-.27.12-.33.18-.68.14-1.05-.04-.44-.2-.83-.43-1.16Z"/>
      </g>
    </g>
    <g>
      <path class="cls-10" d="M14.38,60.03c-.01-.78-.4-1.39-1.38-1.39-.64,0-1.04.21-1.41.55-.43.4-.68,1.02-1.05,2.74-.16.79-.3,1.54-.3,2.01,0,.82.61,1.28,1.41,1.28,1.04,0,1.68-.68,1.96-1.39h2.02c-.71,1.97-2.26,2.94-4.13,2.94-2.02,0-3.24-1.19-3.24-2.7,0-.41.06-1.07.31-2.14.42-1.84.67-2.87,1.57-3.76.8-.76,1.92-1.08,2.99-1.08,2.17,0,3.21,1.3,3.21,2.94h-1.96Z"/>
      <path class="cls-10" d="M21.93,66.69l-.22-1.74h-3.58l-1,1.74h-2.09l5.76-9.52h1.56l1.56,9.52h-1.99ZM21.05,59.84l-2.12,3.66h2.63l-.51-3.66Z"/>
      <path class="cls-10" d="M30.95,62.64l1.46,4.05h-2.15l-1.23-3.85h-1.49l-.88,3.85h-1.96l2.12-9.52h3.71c2.14,0,2.88,1.22,2.88,2.55,0,1.18-.82,2.42-2.47,2.91ZM30.22,58.73h-1.78l-.59,2.63h1.78c1.34,0,1.83-.92,1.83-1.55,0-.68-.43-1.08-1.23-1.08Z"/>
      <path class="cls-10" d="M41.89,61.89c-.51,2.33-.79,3.07-1.69,3.86-.71.62-1.71.94-2.91.94h-3.76l2.12-9.52h3.46c1.75,0,3.12.82,3.12,2.66,0,.41-.07.84-.34,2.06ZM38.77,58.72h-1.5l-1.43,6.42h1.49c.62,0,1.13-.16,1.54-.52.43-.37.67-.92,1.05-2.73.24-1.1.33-1.6.33-1.91,0-.86-.58-1.26-1.49-1.26Z"/>
    </g>
    <g>
      <path class="cls-10" d="M16.2,48.72c-.03-.88-.51-1.45-1.43-1.45-.62,0-1.05.2-1.45.56-.51.47-.72,1.17-1.1,2.78-.2.81-.3,1.56-.3,2.03,0,.83.63,1.3,1.45,1.3.95,0,1.93-.64,2.2-1.94l.09-.42h-1.87l.3-1.49h3.86l-.29,1.38c-.27,1.29-.68,2.18-1.48,2.96-.75.71-1.79,1.08-2.97,1.08-2.2,0-3.3-1.3-3.3-2.74,0-.56.11-1.27.32-2.17.51-2.26.74-2.96,1.63-3.81.78-.75,1.94-1.1,3.03-1.1,2.2,0,3.3,1.3,3.3,3.02h-1.99Z"/>
      <path class="cls-10" d="M20.43,55.43h-1.99l2.15-9.65h1.99l-2.15,9.65Z"/>
      <path class="cls-10" d="M30.96,47.35h-4.7l-.56,2.52h4.02l-.35,1.57h-4.04l-.89,3.99h-1.99l2.15-9.65h6.69l-.35,1.57Z"/>
      <path class="cls-10" d="M38.98,47.37h-2.64l-1.79,8.07h-1.99l1.79-8.07h-2.7l.35-1.59h7.32l-.35,1.59Z"/>
    </g>
  </g>
</svg>