<?xml version="1.0" encoding="UTF-8"?>
<svg id="Laag_1" data-name="Laag 1" xmlns="http://www.w3.org/2000/svg" viewBox="0 0 100 100">
  <defs>
    <style>
      .cls-1 {
        fill: #ec652b;
      }

      .cls-2 {
        fill: #450f11;
      }

      .cls-3 {
        fill: #fff;
      }

      .cls-4 {
        fill: #db3f16;
      }

      .cls-5 {
        fill: #d62917;
      }

      .cls-6 {
        fill: #b41918;
      }

      .cls-7 {
        fill: #e4171d;
      }

      .cls-8 {
        fill: #d01319;
      }

      .cls-9 {
        fill: #971914;
      }

      .cls-10 {
        fill: #ed712f;
      }

      .cls-11 {
        fill: #621f15;
      }
    </style>
  </defs>
  <rect class="cls-3" x="0" width="100" height="100" rx="6.08" ry="6.08"/>
  <g>
    <path class="cls-2" d="M21.15,45.1c-.02.4-.12.76-.28,1.08-.18.34-.46.63-.85.85-.38.22-.85.35-1.46.41-.04,0-.09,0-.14,0-.18,0-.38-.03-.62-.1-.56-.15-.68-.5-.7-.7h0c-.04-.48-.04-.93.01-1.37.05-.38.06-.79.04-1.21,0-.05-.01-.13-.03-.26,0-.08-.01-.13-.03-.17l-.04-.06v-2.5c0-.14.01-.28.04-.42.03-.17.1-.32.19-.45.13-.19.33-.29.58-.3.21-.02.4,0,.57.07.12.04.26.1.41.18.8.46,1.35,1.06,1.67,1.8.29.68.49,1.38.57,2.06.06.35.08.72.06,1.09M16.95,36.27l-.35-2.61.28-.47h.19c.1-.03.16-.05.22-.05.22-.02.42.02.6.12.14.09.27.2.37.33.1.14.17.28.22.44.03.11.06.22.08.31v.04c.05.38.05.72,0,1.02-.05.32-.17.64-.36.98-.05.12-.18.3-.48.35h-.03s-.03,0-.03,0c-.07,0-.16-.01-.26-.04-.19-.05-.34-.17-.41-.35l-.02-.09ZM24.15,43.24c-.04-.13-.07-.29-.1-.5-.01-.12-.02-.21-.03-.27l-.08-.21c-.05-.12-.1-.25-.17-.4-.07-.15-.13-.29-.2-.42-.08-.15-.13-.26-.15-.32l-.04-.11.02-.11s-.02-.06-.09-.18c-.1-.18-.22-.36-.36-.54-.15-.2-.29-.38-.4-.53-.05-.07-.14-.19-.19-.34-.06-.05-.14-.13-.23-.22-.15-.14-.26-.24-.32-.29-.17-.16-.35-.32-.57-.49-.32-.25-.5-.54-.53-.88-.05-.3,0-.65.15-1,.1-.24.17-.48.21-.71,0-.07.01-.17.03-.32.01-.11.03-.2.05-.27l-.19-1.5c-.08-.14-.14-.29-.19-.47-.04-.14-.09-.26-.15-.36-.2-.28-.44-.54-.71-.79-.28-.25-.59-.46-.92-.64-.33-.18-.69-.32-1.08-.41-.38-.09-.79-.12-1.23-.09-.18.01-.41.03-.68.04-.24.01-.49.03-.75.07-.25.04-.47.1-.68.17-.14.05-.24.11-.32.19.03.12.05.25.05.38-.02.59,0,1.17.04,1.75.05.59.1,1.18.17,1.77.06,1.29.1,2.61.12,3.94.02,1.31.14,2.61.36,3.87v.06s.03,5.38.03,5.38v.06c-.06.13-.06.19-.06.22,0,.07.01.16.03.27,0,.01,0,.02,0,.03.17-.01.38-.03.63-.04h.02c.31,0,.6.01.89.04.28.02.54.03.79.03.05,0,.13,0,.25.01.17.01.36.01.5,0,.1-.01.17-.01.19-.01.02,0,.1,0,.24-.01.15,0,.32-.02.52-.04l.6-.05c.21-.02.39-.03.52-.03.07,0,.18,0,.33-.03.17-.01.35-.04.55-.06.2-.03.39-.05.57-.06.15-.01.27-.03.36-.03.36-.1.64-.26.83-.47.22-.25.43-.53.61-.82l-.02-.04.07-.18c.27-.69.48-1.38.63-2.06.14-.64.16-1.32.07-2.02"/>
    <path class="cls-7" d="M33.63,42.88c0,.12,0,.25-.02.39,0,.11-.01.22-.01.32v.26c-.02.2-.03.41-.04.64-.01.28-.06.54-.14.79-.09.28-.25.52-.46.71-.23.21-.56.32-.97.34-.06,0-.12,0-.18,0-.53,0-.93-.18-1.2-.53-.25-.34-.41-.73-.46-1.15-.02-.17-.05-.47-.09-.9-.04-.42-.09-.86-.15-1.32-.06-.47-.12-.92-.17-1.34l-.11-1c-.02-.06-.03-.12-.03-.2v-.2c0-.14,0-.34.01-.59.01-.24.01-.48.01-.73v-1.04c0-.06,0-.13.05-.36.03-.15.06-.31.09-.48.03-.16.05-.31.07-.45.02-.14.04-.23.07-.31.02-.14.05-.3.1-.5.06-.23.14-.47.24-.7.11-.25.27-.47.45-.65.22-.21.48-.33.77-.35h0c.27,0,.52.08.75.25.2.14.38.31.53.5.14.18.28.36.39.55.13.2.21.36.26.49l.03.07v.08c0,.1.01.25.03.46.02.23.04.48.06.74.02.26.04.51.06.74.02.25.03.42.03.53.06.84.09,1.66.09,2.38s-.03,1.54-.09,2.41v.16ZM36.8,41.72c0-.3,0-.77-.01-1.41,0-.63-.02-1.29-.04-1.95-.02-.67-.03-1.3-.04-1.87-.01-.57-.01-.94-.01-1.11,0-.03,0-.18-.01-.43-.01-.27-.01-.47-.01-.61,0-.04,0-.15-.04-.47-.04-.34-.06-.42-.06-.43-.14-.41-.35-.77-.62-1.06-.28-.31-.62-.58-1-.8-.39-.23-.84-.41-1.32-.55-.49-.14-1.02-.24-1.55-.3h-.58c-.76.04-1.44.2-1.98.47-.54.26-.99.61-1.33,1.02-.35.43-.64.92-.85,1.46-.22.56-.38,1.14-.47,1.73-.1.6-.16,1.2-.19,1.79-.03.59-.04,1.15-.04,1.64,0,.05.01.27.03.64.02.39.04.84.06,1.35l.06,1.54c.02.52.04.93.06,1.25,0,.05,0,.1.01.17.01.1.02.21.03.33l.03.36c0,.13.02.18.03.2v.1c.03.42.1.85.2,1.3.1.44.26.86.47,1.25.21.38.49.71.83,1,.33.28.77.49,1.31.63.6.17,1.18.31,1.74.4.54.1,1.12.13,1.73.1.67-.03,1.23-.18,1.65-.44.43-.26.78-.61,1.05-1.01.28-.42.47-.89.59-1.42.13-.56.21-1.13.26-1.7.05-.58.07-1.14.06-1.68-.01-.55-.02-1.05-.02-1.47"/>
    <path class="cls-8" d="M48.84,47.99l-.09-.49c-.03-.15-.06-.29-.08-.41-.03-.12-.04-.2-.05-.25-.08-.22-.18-.24-.22-.25-.24-.04-.5-.07-.8-.07h-3.49c-.36,0-.63-.19-.72-.51-.04-.13-.06-.26-.07-.37-.02-.05-.04-.12-.04-.19l-.13-.06.14-.36h0s.01-.08.03-.25c.02-.19.05-.4.08-.62.03-.22.06-.42.07-.61.02-.17.03-.28.03-.33v-.54c0-.21.03-.4.08-.57.06-.22.19-.4.38-.54.18-.14.44-.23.8-.27.51-.04.99-.03,1.46.04.4.05.82.06,1.23.01.03,0,.07,0,.13-.09.07-.1.07-.15.06-.17l-.19-1.53c-.07,0-.15.01-.25.02-.22.01-.45.04-.68.06-.25.03-.48.05-.71.07-.24.02-.39.03-.48.03-.07,0-.19,0-.34.01-.35.02-.75.03-1.12-.03-.23-.03-.4-.09-.53-.17l-.04-.03c-.17-.15-.28-.35-.32-.58-.02-.14-.03-.27-.03-.36-.08-.71-.09-1.45-.03-2.2.06-.7.06-1.39,0-2.05,0-.32.14-.55.39-.69.15-.09.34-.15.55-.2.19-.04.38-.06.56-.07.17,0,.31-.01.41-.01.42-.03.86-.02,1.3.04.37.06.74.07,1.11.03.07,0,.17-.04.28-.11,0,0,0,0,.01,0l-.2-2.03s-.03-.01-.06-.02c-.2-.04-.42-.08-.67-.09s-.51-.01-.76,0c-.28.02-.49.03-.61.03-.04,0-.1.01-.21.02-.13.02-.28.04-.45.05-.16.02-.31.04-.45.05-.17.02-.27.03-.29.03-.08,0-.22,0-.44.01-.22,0-.46.02-.71.03l-.7.03c-.21,0-.36.01-.45.01-.21.02-.45.01-.75-.03-.24-.03-.45-.04-.63-.03-.04.07-.05.11-.05.14-.04,1-.03,2.01.01,3.01.05,1.01.12,2.03.2,3.06.08,1.03.16,2.06.23,3.09.07,1.03.11,2.08.11,3.09,0,.83-.06,1.68-.17,2.52-.11.78-.11,1.57-.02,2.34.03.02.05.04.08.06.07,0,.17,0,.29-.01.19,0,.41-.02.63-.04.24-.01.46-.03.68-.04.22-.01.37-.01.45-.01.04,0,.17-.01.38-.04.29-.03.44-.03.54-.01.83.01,1.67.04,2.51.09.82.04,1.65.02,2.47-.06.15-.03.31-.05.45-.08v-.14c-.02-.08-.04-.2-.07-.34"/>
    <path class="cls-6" d="M58.8,44.45c-.21-.21-.45-.44-.72-.68-.29-.26-.57-.54-.81-.82-.25-.28-.48-.58-.68-.89-.22-.34-.36-.7-.41-1.06-.03-.32.08-.71.35-1.26.24-.47.51-.98.83-1.5.31-.52.64-1.03.96-1.51l.7-1.03c.04-.09.12-.23.3-.5.16-.24.33-.49.51-.75.18-.26.35-.51.51-.75.14-.21.24-.36.29-.43.1-.18.2-.36.31-.55.06-.1.08-.2.06-.31h0s-1.93-1.28-1.93-1.28c-.02,0-.04,0-.05,0-.06,0-.11.03-.15.08-.1.13-.18.24-.23.33-.02.03-.07.12-.14.26l-.26.49c-.09.17-.18.33-.26.48-.03.05-.05.1-.07.13v.04l-.04.09c-.17.32-.32.65-.45.98-.14.37-.33.73-.57,1.07l-.07.08s-.03.04-.06.08c-.06.07-.11.15-.17.22-.07.09-.13.18-.19.26,0,0,0,0,0,0v.02l-.08.11c-.18.25-.33.53-.46.83-.17.4-.42.74-.75,1l-.17.13-.21-.07c-.31-.1-.4-.29-.43-.43-.01-.07-.02-.15-.02-.23v-.18s0-.14.01-.29c.01-.15.03-.31.05-.48.02-.17.04-.32.06-.47.01-.11.02-.18.03-.22.04-.67.1-1.35.18-2.04.07-.65.07-1.29-.03-1.89-.03-.18-.05-.29-.07-.35-.06-.01-.15-.02-.32-.02-.04,0-.11,0-.23.01-.13.01-.28.02-.44.03-.17,0-.34.01-.52.01h-.34c-.11.04-.18.05-.25.05-.19.01-.28.08-.32.14-.1.13-.17.28-.21.45-.04.2-.06.4-.05.6.01.25.02.44.02.58,0,.02,0,.07.02.15.02.11.04.24.06.36.02.13.04.25.06.36.03.15.04.25.04.3,0,1.07-.05,2.15-.15,3.19-.1,1.01-.12,2.04-.06,3.07v1.73c-.06,1.14-.12,2.25-.18,3.34-.06,1.07-.02,2.15.12,3.2,0,.03.01.09.19.14.24.07.46.11.65.13.55-.03.88-.02,1.27-.04.17,0,.31-.01.44-.01.04-.01.08-.02.12-.03.14-.01.21-.05.24-.24.06-.32.07-.67.04-1.06-.03-.43-.05-.84-.08-1.23-.03-.54.11-.92.42-1.12l.21-.14.22.14c.49.31.91.65,1.24,1.01.3.33.64.67,1.02,1.02l.08.07.05.17s.04.05.07.09c.08.1.19.21.32.33.14.14.29.28.43.43.13.14.24.24.33.32.12.11.19.17.22.19.03,0,.07,0,.14,0,0,0,.11-.04.43-.2.27-.14.54-.29.81-.47.26-.18.49-.35.68-.52.01-.01.03-.03.04-.03l-2.48-3.23Z"/>
    <path class="cls-1" d="M72.51,47.99l-.09-.49c-.03-.15-.05-.29-.08-.41-.03-.12-.04-.2-.05-.25-.08-.22-.18-.24-.22-.25-.23-.04-.5-.07-.79-.07h-3.5c-.36,0-.63-.19-.72-.51-.04-.13-.06-.26-.07-.37-.02-.05-.04-.12-.04-.19l-.13-.06.14-.36s.01-.06.03-.25c.02-.19.05-.4.08-.62.03-.22.06-.42.07-.61.02-.17.03-.28.03-.33v-.54c0-.21.03-.4.08-.57.06-.22.19-.4.38-.54.18-.14.44-.23.8-.27.51-.04.99-.03,1.46.04.4.05.82.06,1.23.01.03,0,.07,0,.13-.09.07-.1.07-.15.06-.17l-.19-1.53c-.07,0-.15.01-.25.02-.22.01-.45.04-.68.06-.25.03-.48.05-.71.07-.24.02-.39.03-.48.03-.07,0-.19,0-.34.01-.35.02-.75.03-1.12-.03-.23-.03-.4-.09-.53-.17l-.04-.03c-.17-.15-.28-.35-.32-.58-.02-.14-.03-.27-.04-.36-.08-.71-.09-1.45-.03-2.2.06-.7.06-1.39,0-2.05,0-.32.13-.55.38-.69.15-.09.34-.15.55-.2.19-.04.38-.06.56-.07.17,0,.31-.01.41-.01.42-.03.86-.02,1.3.04.37.06.74.07,1.11.03.07,0,.17-.04.28-.11,0,0,0,0,.01,0l-.2-2.03s-.03-.01-.06-.02c-.2-.04-.42-.08-.67-.09-.25-.01-.51-.01-.77,0-.28.02-.49.03-.61.03-.04,0-.1.01-.21.02-.13.02-.28.04-.45.05-.16.02-.31.04-.45.05-.17.02-.26.03-.29.03-.08,0-.22,0-.44.01-.22,0-.46.02-.71.03l-.71.03c-.21,0-.36.01-.45.01-.21.02-.45.01-.75-.03-.24-.03-.45-.04-.63-.03-.04.07-.05.11-.05.14-.04,1-.03,2.01.01,3.01.05,1.01.12,2.03.2,3.06.08,1.03.16,2.06.23,3.09.07,1.03.11,2.08.11,3.09,0,.83-.06,1.68-.17,2.52-.11.78-.11,1.57-.02,2.34.03.02.05.04.08.06.07,0,.17,0,.29-.01.2,0,.41-.02.64-.04.24-.01.46-.03.67-.04.22-.01.37-.01.45-.01.04,0,.17-.01.38-.04.29-.03.44-.03.54-.01.83.01,1.67.04,2.51.09.82.04,1.65.02,2.47-.06.15-.03.31-.05.45-.08v-.14c-.02-.08-.04-.2-.07-.34"/>
    <path class="cls-9" d="M85.84,33.41c-.05-.68-.06-1.37-.02-2.07-.04-.04-.07-.08-.09-.12l-2.21.14s0,0,0,.01c-.03.03-.04.06-.06.08.04,1.86.07,3.67.1,5.45.03,1.82-.1,3.7-.38,5.59,0,.26-.08.51-.21.73l-.2.34-.34-.19c-.43-.24-.57-.58-.62-.81-.03-.18-.09-.36-.18-.53l-.04-.08v-.09s-.01-.04-.03-.09c-.03-.1-.06-.19-.1-.3-.04-.11-.08-.22-.11-.32-.02-.07-.04-.13-.06-.17-.04-.08-.1-.19-.17-.36-.07-.17-.15-.35-.22-.54-.07-.17-.14-.33-.21-.48-.09-.18-.14-.3-.17-.35l-.05-.13.04-.13s-.01-.06-.09-.18c-.13-.2-.27-.4-.42-.62-.17-.23-.32-.47-.45-.71-.14-.25-.2-.49-.18-.71-.19-.38-.38-.79-.59-1.24-.23-.51-.4-1.01-.51-1.49v-.11c-.18-.33-.37-.68-.55-1.04-.19-.38-.38-.77-.54-1.14-.11-.32-.25-.34-.32-.35-.31-.03-.7-.07-1.17-.1h-.09s-.05,0-.06.02c-.05.05-.1.12-.13.2-.03.09-.05.18-.06.28,0,.13-.01.22-.01.3l.42,7.18v.05c-.16.83-.22,1.66-.19,2.46.03.84.04,1.7.04,2.56-.04.56-.08,1.08-.11,1.6-.03.51-.02,1.02.01,1.52,0,.07.02.15.04.28.02.11.03.18.04.24l.07.12c.4-.04.77-.05,1.13-.03.36.01.75,0,1.15-.03.05,0,.08,0,.11,0,0-.03,0-.06,0-.11-.02-.3-.05-.62-.11-.93-.06-.35-.1-.7-.12-1.05v-.56c0-.12,0-.35.01-.7l.03-1.07c.01-.38.02-.73.03-1.06.01-.32.01-.56.01-.69v-.4h.49c.29,0,.54.14.71.38.14.21.17.39.16.53.04.09.08.21.14.37l.51,1.4c.07.21.13.35.17.42.05.11.11.28.18.53.06.22.1.36.12.42v.04c.03.12.06.34.09.69.03.32.08.65.14,1,.06.33.16.63.28.9.11.23.22.24.27.24.52.07.99.11,1.44.13.45.02.92.01,1.4-.02.07,0,.17,0,.32-.01.11,0,.2,0,.26-.01.12-.05.24-.16.35-.32.21-.3.23-.43.23-.45l.24-5.57c-.1-1.13-.1-2.25.02-3.31.11-1.04.24-2.13.38-3.24.08-.73.08-1.46.03-2.17"/>
    <path class="cls-10" d="M20.69,67.89c-.02-.21-.03-.39-.03-.54v-.58s-.05-.03-.1-.05c-.18-.07-.4-.13-.67-.18-.29-.06-.6-.14-.93-.24-.36-.1-.7-.25-1.01-.45-.33-.21-.61-.49-.84-.84-.24-.36-.38-.83-.42-1.39-.04-.68-.07-1.31-.08-1.88-.01-.56-.01-1.17-.01-1.81v-.99c0-.14.02-.37.06-.7.04-.31.08-.64.12-.99.04-.35.08-.67.11-.99.03-.32.06-.55.08-.7v-.05c.22-.71.65-1.25,1.27-1.59.56-.3,1.29-.48,2.19-.53v-1.93s-.06-.08-.08-.12c-.14-.16-.26-.29-.36-.38-.08-.07-.17-.12-.26-.15-.12-.04-.27-.07-.43-.08-.19-.01-.47-.02-.81-.02-.42,0-.82.1-1.2.31-.42.22-.8.49-1.14.8-.35.31-.64.64-.89.99-.25.35-.43.65-.53.9-.08.22-.13.49-.15.78-.02.34-.07.67-.13.97v.07s-.05.06-.05.06c0,0-.02.05-.04.21-.02.15-.03.24-.03.28v.09s-.03.11-.04.41c-.01.24-.03.5-.04.79-.02.28-.04.54-.05.8,0,.26-.02.45-.04.59v1.55c0,.1,0,.33-.01.68-.01.35-.02.72-.03,1.12l-.03,1.12c-.01.35-.01.57-.01.67v1.69s.04.09.08.17c.07.14.15.28.22.43.07.15.14.29.19.41.03.06.07.17.08.29.42.7,1.02,1.19,1.83,1.5.88.34,1.92.51,3.06.51h.77c.13-.03.21-.07.25-.13.07-.1.11-.22.13-.36.03-.16.03-.32.01-.49"/>
    <path class="cls-5" d="M31.58,60.23l-.03.07c-.02.06-.04.11-.07.17-.03.07-.08.14-.14.22l-.12.15h-.2s-.11,0-.21.01c-.11.01-.2.01-.25.01-.19.02-.46.03-.79.04h-.27c-.26,0-.53,0-.8-.03-.37-.03-.71-.09-1-.18-.56-.18-.68-.56-.7-.77-.04-.42-.05-.85-.03-1.26.02-.39.03-.78.03-1.17.02-.79.11-1.51.28-2.16.18-.71.64-1.38,1.36-2.01l.09-.06c.18-.09.38-.14.59-.17.25-.03.5.02.73.12.22.1.41.23.56.4.14.15.27.32.36.51.1.19.16.36.19.53l.31,2.54v.25c0,.12,0,.22-.03.29,0,.1,0,.24.01.41l.03.75c.01.26.03.51.04.73.02.25.03.42.03.53v.08ZM34.65,67.96c0-.14-.02-.3-.03-.47-.01-.17-.02-.32-.03-.47-.01-.16-.01-.26-.01-.29v-.84s-.02-.09-.04-.19c-.03-.15-.06-.32-.08-.51-.02-.17-.04-.32-.06-.46-.03-.17-.03-.28-.03-.32-.02-.29,0-.62.05-.96.05-.28.07-.56.07-.82-.06-1.1-.11-2.24-.14-3.38-.03-1.12-.11-2.24-.25-3.35v-.05s-.02-.1-.04-.18c-.03-.14-.06-.29-.08-.46-.02-.14-.04-.27-.07-.4-.03-.13-.04-.21-.05-.27-.19-.45-.38-.95-.53-1.47-.15-.49-.36-.95-.63-1.36-.25-.39-.61-.71-1.05-.95-.43-.24-1.06-.33-1.88-.27-.28.03-.57.1-.87.21-.31.11-.6.25-.87.42-.29.18-.56.37-.8.57-.24.2-.45.39-.62.58-.25.3-.45.62-.6.93-.17.36-.37.73-.6,1.08l-.05.08c-.06.14-.07.24-.08.29-.01.14-.04.3-.09.46-.12.3-.26.6-.44.94-.15.29-.11.47-.06.58l.05.11-.03.13c-.14.64-.27,1.24-.38,1.78-.1.5-.14,1.06-.1,1.66.02.12.04.29.06.5l.06.65c.02.23.03.43.04.6.01.18.02.28.02.3.04.93.09,1.87.15,2.79.06.92.14,1.85.24,2.77.04.22.08.44.13.62.04.14.09.24.17.33.07.08.18.14.33.19.18.06.44.08.75.08.04,0,.13,0,.27-.01.15,0,.32-.02.5-.03.19,0,.37-.01.54-.01h.38s.04,0,.08-.01c.03,0,.05,0,.07,0-.04-.14-.1-.26-.17-.38-.17-.28-.28-.58-.33-.9l-.63-4.88,3.89-.31c.13-.03.3-.01.49.12.17.12.26.29.27.47l.71,5.33s.02.01.03.03c.05.04.09.06.13.08.06,0,.15,0,.25-.01.34-.02.74-.01,1.1-.03.19-.01.32-.01.38-.01.02,0,.11,0,.25.03.08.01.13.02.15.02h0s.03-.01.03-.01c.05-.25.06-.36.06-.4s0-.13-.01-.27"/>
    <path class="cls-11" d="M43.41,62.19s0,.11-.01.27c-.01.15-.03.32-.05.52-.02.19-.04.4-.06.61-.02.23-.04.4-.07.53-.02.13-.04.31-.07.54-.03.26-.09.52-.17.77-.08.27-.2.52-.36.74-.2.28-.49.45-.82.47-.03,0-.06,0-.09,0-.25,0-.49-.12-.65-.35l-.08-.1v-.12s-.01-.09-.03-.17c-.04-.15-.05-.23-.05-.28-.16-.87-.2-1.77-.12-2.67.08-.85.11-1.71.09-2.54-.04-1.03-.07-2.08-.09-3.11-.02-1.02-.06-2.06-.12-3.09,0,0-.01-.06-.03-.15-.05-.23,0-.39.07-.47.08-.12.21-.2.36-.23.29-.03.5.02.64.17.05.05.11.12.17.21.47.39.78.74.93,1.08.14.32.26.73.37,1.26.19.99.27,2.01.25,3.03-.02.96-.03,1.92-.03,2.86l.03.23ZM46.02,63.18c-.06-.73-.1-1.37-.12-1.92-.04-.34-.03-.72.04-1.08.05-.27.04-.54-.03-.83v-.06s0-.07,0-.07c.06-.65.09-1.28.09-1.87s-.05-1.2-.14-1.82c-.15-.73-.42-1.43-.81-2.06-.38-.62-.88-1.15-1.49-1.57-.61-.43-1.34-.74-2.16-.93-.84-.19-1.79-.23-2.85-.12h-.04s-.07,0-.32.04c-.13.01-.22.03-.27.04-.03.01-.04.03-.05.03,0,0-.02.05-.04.14,0,.08.01.19.03.34.02.2.04.42.06.65.02.23.04.44.06.64.02.24.04.34.05.38v.09s.01.86.01.86c.04.51.09,1.06.15,1.6.06.57.08,1.14.06,1.7,0,.57-.01,1.16-.03,1.72-.02.54-.02,1.11,0,1.69.07.72.19,1.47.34,2.21.15.77.25,1.55.29,2.33.02.62-.01,1.25-.1,1.87-.07.56-.05,1.13.05,1.69v.08s.02.07.03.15h.03s.04.15.04.15c.02.01.03.02.05.03.04,0,.08,0,.12-.01.15-.02.25-.03.3-.03.8-.08,1.6-.18,2.4-.28.77-.1,1.51-.29,2.2-.58.65-.3,1.12-.71,1.41-1.26.31-.57.5-1.2.59-1.87.08-.69.1-1.39.04-2.08"/>
    <path class="cls-5" d="M58.06,68.1l-.09-.48c-.03-.15-.06-.29-.09-.42-.03-.12-.04-.2-.05-.25-.08-.22-.18-.24-.22-.25-.24-.04-.5-.07-.8-.07h-3.49c-.36,0-.63-.19-.72-.51-.04-.14-.06-.26-.07-.37-.02-.05-.04-.11-.04-.19l-.13-.06.14-.36h0s.01-.06.04-.25c.02-.19.05-.4.08-.62.03-.22.06-.42.07-.61.02-.17.03-.28.03-.33v-.53c0-.21.03-.4.08-.57.06-.21.19-.4.38-.54.18-.14.44-.23.8-.27.5-.04.99-.02,1.46.04.4.06.82.06,1.23.01.03,0,.07,0,.13-.09.07-.1.07-.15.06-.17l-.19-1.53c-.07,0-.15.01-.25.02-.22.01-.45.04-.68.06-.25.03-.48.05-.71.06-.24.02-.4.03-.48.03-.07,0-.19,0-.34.01-.35.02-.75.03-1.12-.03-.23-.04-.4-.09-.53-.17l-.04-.03c-.17-.15-.28-.35-.32-.58-.02-.14-.03-.27-.03-.36-.08-.71-.09-1.45-.03-2.2.06-.71.06-1.39,0-2.05,0-.32.14-.55.38-.69.16-.09.35-.15.56-.19.19-.04.38-.06.56-.07.17-.01.31-.01.41-.01.42-.04.86-.02,1.3.04.37.05.74.07,1.11.03.07,0,.17-.05.28-.11,0,0,0,0,.01,0l-.2-2.03s-.03-.01-.06-.01c-.2-.05-.42-.08-.67-.09-.25-.02-.51-.02-.76,0-.28.02-.49.03-.61.03-.03,0-.1,0-.2.02-.13.02-.28.03-.45.05-.16.02-.31.03-.45.05-.17.02-.27.03-.29.03-.08,0-.22,0-.44.01-.22,0-.46.01-.71.03l-.7.03c-.21,0-.36.01-.45.01-.21.02-.45,0-.75-.03-.24-.03-.45-.04-.63-.02-.04.07-.05.11-.05.14-.04,1-.03,2.01.01,3.01.05,1.01.11,2.03.2,3.06.08,1.03.15,2.06.23,3.08.07,1.03.11,2.08.11,3.1,0,.83-.06,1.67-.17,2.52-.11.79-.11,1.57-.02,2.34.03.02.05.04.08.06.08,0,.17,0,.29-.01.19,0,.41-.02.64-.04.23-.02.46-.03.67-.04.22,0,.37-.01.45-.01.04,0,.17-.01.38-.04.29-.03.44-.03.54-.01.83.02,1.67.05,2.51.09.82.04,1.65.02,2.47-.06.15-.02.31-.05.45-.07v-.14c-.02-.08-.04-.2-.07-.34"/>
    <path class="cls-5" d="M68.14,60.23l-.03.07c-.02.06-.05.11-.07.17-.03.07-.08.14-.14.22l-.12.15h-.2s-.11,0-.21.01c-.11.01-.2.01-.25.01-.19.02-.46.03-.79.04h-.27c-.26,0-.53,0-.79-.03-.38-.03-.71-.09-1-.18-.56-.18-.67-.56-.7-.77-.04-.42-.05-.85-.03-1.26.02-.39.03-.78.03-1.17.02-.79.11-1.51.28-2.16.18-.71.64-1.38,1.36-2.01l.09-.06c.18-.09.38-.14.58-.17.26-.03.5.02.73.12.22.1.41.23.57.4.14.15.26.32.36.51.1.19.16.36.19.53l.31,2.54v.25c0,.12,0,.22-.03.29,0,.1,0,.24.01.41l.03.75c.01.26.03.51.04.73.02.25.03.42.03.53v.08ZM71.21,67.96c-.01-.14-.02-.3-.03-.47-.01-.17-.02-.32-.03-.47-.01-.16-.01-.26-.01-.29v-.84s-.02-.09-.04-.19c-.03-.15-.06-.32-.08-.51-.02-.17-.04-.32-.06-.46-.02-.17-.03-.28-.03-.32-.02-.29,0-.62.05-.96.05-.28.07-.56.07-.82-.06-1.1-.11-2.24-.14-3.38-.03-1.12-.11-2.24-.25-3.35v-.05s-.02-.1-.04-.18c-.03-.14-.06-.29-.08-.46-.02-.14-.04-.27-.07-.4-.03-.13-.04-.21-.05-.27-.2-.45-.38-.95-.53-1.47-.15-.49-.36-.95-.63-1.36-.25-.39-.61-.71-1.05-.95-.43-.24-1.06-.33-1.88-.27-.28.03-.57.1-.87.21-.31.11-.6.25-.88.42-.28.18-.56.37-.8.57-.24.2-.45.39-.61.58-.25.3-.45.62-.6.93-.17.36-.37.73-.6,1.08l-.05.08c-.06.14-.08.24-.08.29-.01.14-.04.3-.09.46-.12.3-.26.6-.44.94-.15.29-.11.47-.06.58l.05.11-.03.13c-.14.64-.27,1.24-.38,1.78-.1.5-.14,1.06-.1,1.66.02.12.04.29.06.5l.06.65c.02.23.03.43.04.6.01.18.01.28.01.3.04.93.09,1.87.15,2.79.06.92.14,1.85.24,2.77.04.22.08.44.13.62.04.14.09.24.17.33.07.08.18.14.33.19.18.06.43.08.75.08.04,0,.13,0,.27-.01.15,0,.32-.02.5-.03.18,0,.37-.01.54-.01h.38s.04,0,.09-.01c.03,0,.05,0,.07,0-.04-.14-.1-.26-.17-.38-.17-.28-.28-.58-.33-.9l-.63-4.88,3.89-.31c.12-.03.3-.01.49.12.17.12.26.29.27.47l.71,5.33s.01.01.03.03c.04.04.09.06.13.08.06,0,.14,0,.25-.01.34-.02.74-.01,1.1-.03.19-.01.32-.01.38-.01.03,0,.11,0,.26.03.08.01.13.02.15.02h0s.03-.01.03-.01c.05-.25.06-.36.06-.4s0-.13-.01-.27"/>
    <path class="cls-4" d="M85.83,66.17l-.06-2.34c-.02-.77-.06-1.55-.11-2.31-.05-.75-.14-1.52-.28-2.28v-.08s0-.08,0-.08c.05-.22.06-.46.03-.7-.04-.32-.06-.61-.03-.88.04-.81.1-1.62.17-2.4.07-.74.05-1.5-.04-2.28-.02-.08-.05-.22-.09-.42-.03-.16-.05-.29-.06-.39-.03-.03-.07-.06-.11-.07-.13-.04-.28-.07-.43-.08-.17,0-.35,0-.53.01-.19.01-.35.03-.46.05-.81.06-1.13.18-1.25.25-.21.12-.27.24-.29.32-.05.18-.05.42,0,.71.05.36.07.78.05,1.25,0,.04,0,.12-.04.27-.02.11-.04.23-.05.37-.02.15-.04.28-.06.4-.01.08-.03.14-.03.17,0,.03,0,.12-.01.24l-.03.31c0,.1-.01.19-.01.27v.17c-.02.75-.02,1.46,0,2.15.02.7,0,1.41-.05,2.09-.05.69-.17,1.4-.34,2.09-.18.71-.48,1.44-.9,2.16-.07.15-.22.28-.43.37l-.32.14h-.17c-.07,0-.14-.01-.24-.05,0,0-.01,0-.01,0h-.11l-.11-.09s-.14-.1-.29-.2c-.26-.17-.33-.23-.37-.26-.56-.41-.92-.93-1.05-1.53-.11-.51-.2-1.04-.26-1.58-.1-.76-.19-1.51-.27-2.24-.08-.75-.09-1.53-.03-2.31.02-.37.06-.78.11-1.19.05-.41.11-.82.17-1.24.06-.4.1-.81.12-1.2.02-.38,0-.76-.03-1.11v-.04s-.01-.04-.02-.09c0-.01,0-.03,0-.04-.03-.01-.08-.04-.14-.06-.18-.06-.37-.12-.56-.17-.2-.05-.38-.08-.56-.11-.11-.01-.19-.02-.24-.02-.04,0-.07,0-.08,0-.45.06-.66.13-.77.19-.12.07-.2.14-.24.21-.05.08-.07.19-.07.33,0,.21-.01.46-.03.74v.21c0,.14-.01.3-.03.46-.01.13-.03.24-.03.35v.22c-.1,1.24-.19,2.42-.29,3.6-.09,1.14-.06,2.3.07,3.46.08.63.17,1.27.25,1.94.09.64.24,1.26.46,1.85.21.58.52,1.12.9,1.61.37.47.9.88,1.56,1.21.29.15.61.26.96.32.36.06.72.08,1.09.05.28-.01.54-.08.79-.21.28-.14.54-.3.76-.45.24-.17.46-.32.65-.46.24-.18.45-.28.64-.3h.06c.1,0,.45.03.56.5.03.12.07.26.11.42.04.14.1.27.17.39.02.03.04.06.08.08.45-.06.85-.09,1.18-.07.31.01.68,0,1.08-.03.03,0,.04,0,.04,0,.03-.08.06-.18.1-.27-.06-.77-.1-1.54-.12-2.29"/>
  </g>
</svg>