<?xml version="1.0" encoding="UTF-8"?>
<svg id="Laag_1" data-name="Laag 1" xmlns="http://www.w3.org/2000/svg" viewBox="0 0 100 100">
  <defs>
    <style>
      .cls-1 {
        fill: #1d2445;
      }

      .cls-2 {
        fill: #fff;
      }

      .cls-3 {
        fill: #ef7973;
      }
    </style>
  </defs>
  <rect class="cls-1" x="0" width="100" height="100" rx="6.08" ry="6.08"/>
  <g>
    <path class="cls-2" d="M80.25,52.2c0,4-3.1,5.7-8,5.7-2.7,0-5.5-.2-8.2-.5v-6.4h1.7c0,2.7,2.6,6,6.5,6,1.9,0,3.7-1.5,3.7-3.4,0-4.7-11.6-3-11.6-9.6,0-3.3,2.7-5.1,7.4-5.1,2.4,0,4.1.2,7.1.5v6.3h-1.7c0-2.7-1.5-6-5.4-6-1,0-3,.6-3,2.6,0,3.8,11.5,3.5,11.5,9.9ZM48.15,48.4c0,.7,0,1.4.1,2.1,1.2-2,7.8-2.9,7.8-6.9,0-2-1.1-3.8-3.1-3.8-3,0-4.8,3.4-4.8,8.6h0ZM61.15,49.2c.2.6.3,1.2.2,1.8,0,4.3-4.1,6.9-9.2,6.9-5.6,0-9.7-4.1-9.7-9.4,0-5.6,4.1-9.4,10.4-9.4,4,0,8,2,8,5.8,0,7.3-13,3-12.4,7.9.5,2.5,1.7,4,3.6,4.4,2.9.3,4.6-3.2,3.9-6.1l5.2-1.9ZM26.65,48.4c0,.7,0,1.4.1,2.1,1.2-2,7.8-2.9,7.8-6.9,0-2-1.1-3.8-3.1-3.8-3.1,0-4.8,3.4-4.8,8.6h0ZM39.55,49.2c.2.6.3,1.2.2,1.8,0,4.3-4.1,6.9-9.2,6.9-5.6,0-9.7-4.1-9.7-9.4,0-5.6,4.1-9.4,10.4-9.4,4,0,8,2,8,5.8,0,7.3-13,3-12.4,7.9.5,2.5,1.7,4,3.6,4.4,2.9.4,4.6-3.2,3.9-6.1l5.2-1.9ZM18.25,55.6c0,.7.7,1.4,1.4,1.4v.9h-6.7v-26c0-.7-.7-1.4-1.4-1.4v-.9h6.7v26h0ZM81.65,30.4c.7,0,1.4.7,1.4,1.4v18h5.3v-20.2h-6.7s0,.8,0,.8ZM82.95,52.5h5.4v5.4h-5.4v-5.4Z"/>
    <g>
      <rect class="cls-3" x="12.95" y="60.5" width="75.5" height="9.9"/>
      <path class="cls-2" d="M17.45,68.3c-.3.3-.6.4-1.1.4-.6,0-1-.2-1.2-.5-.4-.5-.5-1.2-.5-2.7s0-2.2.5-2.7c.3-.3.6-.5,1.2-.5.5,0,.8.1,1.1.4.3.3.5.8.5,1.3h-1c0-.2,0-.5-.2-.6-.1-.1-.2-.2-.5-.2s-.4.1-.5.2c-.2.3-.2.9-.2,2.1s0,1.8.2,2.1c.1.1.2.2.5.2s.4-.1.5-.2c.2-.2.2-.4.2-.6h1c0,.5-.2,1-.5,1.3"/>
      <path class="cls-2" d="M23.05,63.8l-.5,2.7h1.1l-.6-2.7ZM24.05,68.7l-.3-1.3h-1.5l-.3,1.3h-1.1l1.6-6.4h1l1.5,6.4h-.9Z"/>
      <path class="cls-2" d="M30.65,63.5c-.1-.2-.3-.3-.5-.3h-.6v4.6h.6c.2,0,.4-.1.5-.3.2-.3.2-.9.2-2,0-1.1,0-1.7-.2-2M31.35,68.1c-.3.3-.6.5-1.2.5h-1.6v-6.4h1.6c.6,0,1,.2,1.2.5.4.5.5,1.2.5,2.6,0,1.6-.1,2.4-.5,2.8"/>
      <polygon class="cls-2" points="35.55 68.7 35.55 62.3 38.25 62.3 38.25 63.2 36.55 63.2 36.55 65 37.95 65 37.95 65.9 36.55 65.9 36.55 67.8 38.25 67.8 38.25 68.7 35.55 68.7"/>
      <path class="cls-2" d="M43.45,63.8l-.5,2.7h1l-.5-2.7ZM44.45,68.7l-.3-1.3h-1.5l-.3,1.3h-1.1l1.6-6.4h1l1.5,6.4h-.9Z"/>
      <path class="cls-2" d="M51.65,68.3c-.3.3-.7.5-1.2.5s-.9-.2-1.2-.5-.4-.7-.4-1.2v-4.8h1v4.8c0,.5.3.7.6.7s.6-.2.6-.7v-4.8h1v4.8c0,.5-.1.9-.4,1.2"/>
      <polygon class="cls-2" points="58.45 68.7 57.35 66 56.85 67 56.85 68.7 55.85 68.7 55.85 62.3 56.85 62.3 56.85 65.3 58.25 62.3 59.25 62.3 58.05 64.9 59.45 68.7 58.45 68.7"/>
      <path class="cls-2" d="M64.45,63.8l-.5,2.7h1.1l-.6-2.7ZM65.45,68.7l-.3-1.3h-1.5l-.2,1.3h-1.1l1.6-6.4h1l1.5,6.4h-1Z"/>
      <path class="cls-2" d="M71.55,63.8l-.5,2.7h1.1l-.6-2.7ZM72.55,68.7l-.3-1.3h-1.5l-.2,1.3h-1.1l1.6-6.4h1l1.5,6.4h-1Z"/>
      <path class="cls-2" d="M78.65,63.2h-.7v1.9h.6c.5,0,.6-.4.6-1,.1-.5,0-.9-.5-.9M79.35,68.7l-.8-2.6h-.6v2.6h-1v-6.4h1.6c1.2,0,1.6.6,1.6,1.9,0,.8-.2,1.3-.7,1.7l.9,2.8h-1Z"/>
      <polygon class="cls-2" points="85.55 63.2 85.55 68.7 84.55 68.7 84.55 63.2 83.55 63.2 83.55 62.3 86.65 62.3 86.65 63.2 85.55 63.2"/>
    </g>
  </g>
</svg>