<svg id="Laag_1" data-name="Laag 1" xmlns="http://www.w3.org/2000/svg" viewBox="0 0 100 100"><defs><style>.cls-1{fill:#ff9eb7;}</style></defs><rect class="cls-1" width="100" height="100" rx="10.37"/><path d="M82.09,47l0-.67H86V59.08H84.71c-.62,0-1.24,0-1.85,0s-.88-.06-.74-.8a7,7,0,0,1-6.36.64,6.64,6.64,0,0,1-3.27-2.76,6.79,6.79,0,0,1,.69-8A7,7,0,0,1,82.09,47Zm-3.49,9a3.29,3.29,0,1,0-3.45-3.29A3.36,3.36,0,0,0,78.6,55.93Z"/><path d="M41.42,47l0-.72h3.81V59H41.49l-.09-.73a6.88,6.88,0,0,1-5.89.77A6.64,6.64,0,0,1,32,56.51a6.73,6.73,0,0,1,.29-8.09A6.59,6.59,0,0,1,36.58,46,6.89,6.89,0,0,1,41.42,47ZM38,55.93a3.29,3.29,0,1,0-3.5-3.25A3.38,3.38,0,0,0,38,55.93Z"/><path d="M56.88,59V46.29h3.79l.07,1.29A4.34,4.34,0,0,1,63.51,46a5.77,5.77,0,0,1,5.61,1.87,4.37,4.37,0,0,1,1,2.84c0,2.68,0,5.37,0,8,0,.08,0,.17,0,.28H66.31c0-.22,0-.43,0-.63V52.53a6.83,6.83,0,0,0-.08-1.11,2.35,2.35,0,0,0-2.56-2,2.64,2.64,0,0,0-2.8,2,5.77,5.77,0,0,0-.1,1.1c0,2.14,0,4.27,0,6.45Z"/><path d="M18.08,51.06l5.91,8a30.39,30.39,0,0,0-3.46,0,2.84,2.84,0,0,1-3-1.5c-1.56-2.32-3.3-4.54-5-6.8l-.32-.46c.44-.34.86-.66,1.29-1a10.55,10.55,0,0,0,4.67-8.6c0-.05,0-.1,0-.2h4.18A14.77,14.77,0,0,1,18.08,51.06Z"/><path d="M11.72,59.05H7.5V40.58h4.22Z"/><path d="M29.22,59.05h-4V40.58h4Z"/><path d="M51.28,59.05H47.36V46.28h3.9v1.57A5.06,5.06,0,0,1,55,46.26V49.9c-.49.13-1,.21-1.47.38a3.09,3.09,0,0,0-2.27,3.25v5.52Z"/><path d="M90.08,59.32a2.4,2.4,0,1,1,0-4.8,2.4,2.4,0,1,1,0,4.8Z"/></svg>