<?xml version="1.0" encoding="UTF-8"?>
<svg id="Layer_1" data-name="Layer 1" xmlns="http://www.w3.org/2000/svg" viewBox="0 0 100 100">
  <defs>
    <style>
      .cls-1 {
        fill: #004844;
      }

      .cls-2 {
        fill: #fff;
      }
    </style>
  </defs>
  <path class="cls-1" d="M90,100H10c-5.5,0-10-4.5-10-10V10C0,4.5,4.5,0,10,0h80c5.5,0,10,4.5,10,10v80c0,5.5-4.5,10-10,10Z"/>
  <path class="cls-2" d="M37.31,35.26h25.56c8.26,0,14.99-6.58,14.99-14.66,0-.85-.69-1.55-1.55-1.55h-23.59c-6.36,0-12.48,3.7-15.55,8.73-.02.03-.05.05-.07.09-.03.06-.06.11-.09.17-.26.45-.5.9-.71,1.37-.4.77-.73,1.48-1.37,3.27-7.45,2.41-12.4,9.5-12.78,18.57-.45,10.63,4.75,20.23,13.91,25.68,4.5,2.68,9.43,4.01,14.35,4.01s9.91-1.35,14.42-4.05c.99-.59,1.85-1.18,2.63-1.81.11-.09.21-.19.29-.31,3.75-.76,6.94-2.17,9.51-4.22.37-.29.58-.74.58-1.21v-15.08c0-2.66-2.16-4.82-4.82-4.82h-11.9c-.84,0-1.53.67-1.55,1.51-.02.84.64,1.54,1.48,1.58,2.18.09,3.89,1.88,3.89,4.06v15.5c-.06,0-.11.01-.17.02-4.53.52-11.73-.72-15.73-2.72-6.84-3.41-11.5-8.89-13.12-15.43-1.14-4.59-.95-9.96.56-16.28.32-.94.58-1.74.82-2.42ZM39.07,30.82c.06-.12.12-.24.19-.37.15-.29.33-.62.53-1.02,2.51-4.15,7.69-7.28,12.93-7.28h21.94c-.78,5.65-5.77,10.02-11.79,10.02h-24.3c.13-.46.3-.91.5-1.35ZM73.04,52.54c.95,0,1.73.77,1.73,1.73v14.31c-1.87,1.35-4.12,2.34-6.71,2.97v-14.95c0-1.51-.46-2.9-1.25-4.05h6.24ZM47.68,72.16c3.49,1.75,8.95,2.95,13.61,3.14-7.58,3.7-16.26,3.36-23.64-1.03-8.16-4.85-12.8-13.41-12.4-22.89.23-5.55,2.6-11.86,8.36-14.83-.03.09-.06.18-.09.27-1.67,6.94-1.86,12.79-.6,17.88,1.85,7.43,7.09,13.62,14.75,17.45Z"/>
</svg>