<?xml version="1.0" encoding="UTF-8"?>
<svg id="Laag_1" data-name="Laag 1" xmlns="http://www.w3.org/2000/svg" viewBox="0 0 99.8 100">
  <defs>
    <style>
      .cls-1 {
        fill: #fff;
      }

      .cls-2 {
        fill: #08a2fe;
      }
    </style>
  </defs>
  <path class="cls-1" d="M9.99,0h78.63c6.17,0,11.18,5.02,11.18,11.21v77.58c0,6.19-5.01,11.21-11.19,11.21H11.19c-6.18,0-11.19-5.02-11.19-11.21V10C0,4.48,4.48,0,9.99,0Z"/>
  <g>
    <g>
      <path class="cls-2" d="M83.86,68.61c-2.57-4.38-13.48-4.02-14.02-.52-.73,4.72,8.28-.73,10.1,3.03.2.42.4,1.67.23,1.88-.19.23-4.33-.64-5.87-.47-9.38,1.02-7.1,13.6,2.61,11.53.96-.2,3.4-1.86,3.7-1.64.11.08.1.9.48,1.15,1.05.69,3.29.32,3.68-1.03.63-2.13.25-11.93-.92-13.92ZM78.32,80.3c-6.31,1.96-7.61-4.41-2-4.85.74-.06,3.41.28,3.87.59,1.47,1.01-.44,3.82-1.87,4.26Z"/>
      <path class="cls-2" d="M55.67,65.59c-12.24.67-11.62,19.24,1.24,18.69,12.22-.53,11.96-19.4-1.24-18.69ZM55.58,80.01c-5.56-.63-5.58-9.21-.4-10.2,7.86-1.5,8.39,11.11.4,10.2Z"/>
      <path class="cls-2" d="M27.83,65.95h-11.27c-1.17,0-1.54,1.63-1.64,2.57-.21,1.97-.34,12.6.09,14,.52,1.72,3.07,2.13,4.17.59.97-1.35.2-4.23.43-5.9h7.28c1.16,0,1.69-4.23-.47-4.23h-6.81v-2.82h8.22c1.49,0,1.49-4.23,0-4.23Z"/>
      <path class="cls-2" d="M44.73,80.04h-7.75v-12.91c0-1.49-4.23-1.49-4.23,0v15.49c0,.08,1.09,1.17,1.17,1.17h10.8c1.08,0,1.58-3.76,0-3.76Z"/>
    </g>
    <g>
      <path class="cls-2" d="M63.47,32.88c-4.51-2.5-10.5,1.79-11.45,1.13-1.34-.94,1.07-4.74,1.3-6.24,1.43-9.05-8.01-12.05-10.69-3.41-5.94-3.95-11.61,2.27-7.5,7.98-6.97.28-6.95,10.07,0,10.34-4.15,5.68,1.57,11.75,7.5,7.98,1.16,6.48,9.8,6.41,10.81,0,5.93,3.81,11.79-2.42,7.51-7.98,5.38.08,7.28-7.16,2.52-9.8ZM46.05,22.62c1.79-1.69,4.59-.5,4.95,2.12.25,1.81-1.53,9.35-3.9,7.15-1.49-1.39-2.8-7.62-1.06-9.26ZM49.36,39.77c-4.82,1.44-4.86-4.51-1.68-4.99,3.03-.46,4.14,4.25,1.68,4.99ZM38.08,34.81c.55.09,4.83,1.6,4.97,1.83.17.27.17,1.48,0,1.76-.18.28-5.48,1.92-6.3,1.95-6.33.28-6.08-6.81,1.32-5.53ZM42.1,47.54c-3.39,4.03-7.99.51-4.84-3.43.92-1.14,4.3-3.03,5.73-3.22,3.83-.48.34,5.17-.9,6.64ZM42.63,34.02c-1-.29-4.69-2.35-5.35-3.11-1.31-1.51-1.66-4.38.53-5.05,3.39-1.03,5.48,2.98,6.46,5.56.72,1.89,1.23,3.43-1.64,2.59ZM51.09,49.91c-.36,4.26-6.11,4.45-5.98-.76.04-1.4,1.97-8.23,4.08-6.44.28.24,1.97,6.37,1.9,7.2ZM58.88,48.82c-3.4,2.42-7.46-4.33-7.71-6.93-.05-.52.25-.92.7-1.05,2.68-.76,11.34,4.89,7.01,7.98ZM58.49,40.22c-.55-.09-5.27-1.59-5.45-1.81-1.62-1.97,4.37-3.58,5.81-3.71,6.87-.6,6.61,6.61-.36,5.52Z"/>
      <path class="cls-2" d="M62.39,16.18c-3.95,1.33-6.75,11.6-8.47,15.23.43.39,8.99-3.06,10.18-3.67,9.42-4.77,6.27-14.24-1.71-11.57ZM58.61,26.71c.93-2.46,3.97-10.77,7.78-8.01,4.43,3.21-5.08,8.07-7.78,8.01Z"/>
    </g>
  </g>
</svg>