<?xml version="1.0" encoding="UTF-8"?>
<svg id="Laag_1" xmlns="http://www.w3.org/2000/svg" xmlns:xlink="http://www.w3.org/1999/xlink" version="1.1" viewBox="0 0 100 100">
  <!-- Generator: Adobe Illustrator 30.2.0, SVG Export Plug-In . SVG Version: 2.1.1 Build 105)  -->
  <defs>
    <style>
      .st0 {
        fill: none;
      }

      .st1 {
        fill: #fff;
      }

      .st2 {
        fill: #21242f;
      }

      .st3 {
        fill: #bc9e80;
      }

      .st4 {
        clip-path: url(#clippath);
      }
    </style>
    <clipPath id="clippath">
      <rect class="st0" y="212.3" width="1040.7" height="256.8"/>
    </clipPath>
  </defs>
  <rect class="st2" width="100" height="100" rx="11.5" ry="11.5"/>
  <g>
    <path class="st1" d="M12.4,50.1h-3.8v11.9h2.9v-3.6h.9c2.2,0,3.7-1.7,3.7-4.2s-1.5-4.1-3.7-4.1ZM13.1,54.2c0,1-.5,1.6-1.2,1.6h-.4v-3.1h.4c.7,0,1.2.6,1.2,1.5Z"/>
    <path class="st1" d="M21.6,49.9c-3,0-4.9,2.4-4.9,6.1s1.9,6.2,4.9,6.2,4.9-2.4,4.9-6.2-1.9-6.1-4.9-6.1ZM23.5,56c0,2.2-.7,3.4-1.9,3.4s-1.9-1.2-1.9-3.4.2-3.3,1.9-3.3,1.9,2.1,1.9,3.3Z"/>
    <path class="st1" d="M32.1,49.9c-3,0-4.9,2.4-4.9,6.1s1.9,6.2,4.9,6.2,4.9-2.4,4.9-6.2-1.9-6.1-4.9-6.1ZM33.9,56c0,2.2-.7,3.4-1.9,3.4s-1.9-1.2-1.9-3.4.2-3.3,1.9-3.3,1.9,2.1,1.9,3.3Z"/>
    <path class="st1" d="M43.4,57.1c1-.7,1.6-2,1.6-3.3s-.8-2.8-2-3.4c-.5-.2-1.1-.3-1.6-.3h-3.8v11.9h2.9v-3.9h.4l1.6,3.9h3.2l-2-4.2c-.2-.3-.3-.5-.4-.6ZM42.1,54.1c0,.8-.5,1.4-1.2,1.4h-.4v-2.8h.5c.2,0,.5,0,.6.2.3.2.4.7.4,1.2Z"/>
    <polygon class="st1" points="46.2 52.7 48.7 52.7 48.7 62 51.6 62 51.6 52.7 54.2 52.7 54.2 50.1 46.2 50.1 46.2 52.7"/>
    <path class="st1" d="M59.8,56.8c0,.4-.1.8-.2,1.2,0-.4-.1-.8-.2-1.2l-1.4-6.7h-3.2l3.2,11.9h2.9l3.2-11.9h-3.1l-1.4,6.7Z"/>
    <polygon class="st1" points="83.4 50.1 83.4 52.7 85.9 52.7 85.9 62 88.8 62 88.8 52.7 91.4 52.7 91.4 50.1 83.4 50.1"/>
    <g>
      <path class="st1" d="M15.6,45.2c-.2.6-.3,1-.6,1.4-.2.3-.4.5-.5.5-.2,0-.4-.2-.5-.5-.2-.3-.3-.8-.4-1.3-.1-.5-.2-.9-.2-1.3-.2.3-.3.7-.5,1.1-.2.4-.3.7-.4,1-.2.4-.3.8-.4,1.2,0,0,0,0,0,0,0,0,0,0,0,0,0,0,0,0,0,0,0,0-.2,0-.2,0,0,0,0-.1-.1-.2v-.4c-.2-.6-.3-1.1-.4-1.7-.1-.5-.3-1-.4-1.4-.1-.4-.2-.5-.3-.5s0,0-.1,0c0,0,0,0-.1,0,0,0,0,0-.1,0,0,0-.1,0-.1-.1s0-.1.1-.2c0-.1.2-.2.2-.3,0,0,.2-.1.2-.1s.1,0,.1,0c0,0,0,0,.1.1,0,.1.2.3.3.7.1.4.3.8.4,1.4l.4,1.6c.3-.8.5-1.4.8-1.9.2-.5.5-1,.8-1.6.1-.2.2-.3.4-.3s.2,0,.2,0c0,0,0,.1,0,.1s0,0,0,0c0,0,0,0,0,0,0,0,0,.1-.1.2,0,0,0,.2,0,.4s0,.5.1,1c0,.4.2.8.3,1.2.1.4.3.5.4.5s.2-.2.3-.5c.1-.3.2-.7.3-1.1s.1-.9.1-1.3,0-.2-.1-.3c0,0,0-.2,0-.2s0,0,0-.2c0,0,.1-.1.2-.1s.2,0,.2.2c0,.1.1.3.1.4,0,.6,0,1.2-.2,1.8Z"/>
      <path class="st1" d="M19.6,46c-.2.3-.4.6-.7.8-.3.2-.7.3-1.1.3s-.7-.1-.9-.3c-.2-.2-.3-.5-.3-.8s0-.6.2-1.1c.1-.4.3-.8.4-1.1,0,0,0-.1.1-.3,0-.2.2-.3.3-.4.1,0,.2-.1.3-.1s.1,0,.1,0,0,0,0,.1,0,0,0,0c0,0,0,0,0,.1-.2.2-.4.5-.5.7-.2.3-.3.6-.4.9,0,.3-.1.6-.1,1s.3.7.9.7.5,0,.8-.2c.2-.2.4-.3.6-.6.1-.2.2-.4.2-.6s0-.4-.2-.5c-.1-.2-.3-.3-.6-.5-.2-.1-.3-.2-.3-.3,0,0-.1-.1-.1-.2,0,0,0-.1.2-.2.1,0,.2,0,.4,0s.1,0,.2,0c0,0,0,0,0,0s0,0,0,0c0,0,0,0,0,0s0,0,.2.2c.2.2.4.4.6.6.2.2.2.4.2.7s0,.5-.3.8Z"/>
      <path class="st1" d="M23.4,46c-.2.3-.4.6-.7.8-.3.2-.7.3-1.1.3s-.7-.1-.9-.3c-.2-.2-.3-.5-.3-.8s0-.6.2-1.1c.1-.4.3-.8.4-1.1,0,0,0-.1.1-.3,0-.2.2-.3.3-.4.1,0,.2-.1.3-.1s.1,0,.1,0,0,0,0,.1,0,0,0,0c0,0,0,0,0,.1-.2.2-.4.5-.5.7-.2.3-.3.6-.4.9,0,.3-.1.6-.1,1s.3.7.9.7.5,0,.8-.2c.2-.2.4-.3.6-.6.1-.2.2-.4.2-.6s0-.4-.2-.5c-.1-.2-.3-.3-.6-.5-.2-.1-.3-.2-.3-.3,0,0-.1-.1-.1-.2,0,0,0-.1.2-.2.1,0,.2,0,.4,0s.1,0,.2,0c0,0,0,0,0,0s0,0,0,0c0,0,0,0,0,0s0,0,.2.2c.2.2.4.4.6.6.2.2.2.4.2.7s0,.5-.3.8Z"/>
      <path class="st1" d="M27.4,47.3c0,0-.1,0-.2,0s-.1,0-.2,0c0,0,0,0,0-.1,0-.2,0-.6,0-1.1,0-.6,0-1,0-1.4s0-.6,0-.9c0-.2,0-.3-.1-.3-.2,0-.4.3-.7.8-.2.5-.5,1.2-.8,2v.4c-.2,0-.2.1-.3.1,0,0-.1,0-.2,0s-.1,0-.1,0c0,0,0,0,0-.1v-.7c0,0-.2-1.3-.2-1.3,0-.5,0-1-.2-1.4,0,0,0-.2,0-.2,0,0,0-.2.1-.2,0,0,.2,0,.3,0s.1.1.1.4c0,.3,0,.8,0,1.4v.5c0,.6.1,1,.1,1.2,0,0,0,0,0-.1,0,0,0,0,0-.1.3-.8.6-1.5.9-2.1.3-.6.6-.8.8-.8s.3.2.4.5c0,.3.1.7.1,1.2,0,.5,0,1.3,0,2.4s0,.1,0,.2Z"/>
      <path class="st1" d="M31.8,45.2c-.4.6-.9,1.1-1.6,1.6-.3.2-.5.3-.6.3s-.1,0-.2,0c0,0,0-.1,0-.2s0-.1,0-.2c0,0,.1-.1.3-.2.4-.2.8-.4,1.1-.8.3-.3.6-.7.8-1.1.2-.4.3-.7.3-1s0-.2,0-.3c0,0-.1,0-.2,0-.3,0-.5.1-.8.3-.3.2-.5.5-.7.8-.2.3-.3.6-.5.9-.2.4-.3.7-.4,1.1,0,.2-.2.3-.3.3s0,0-.1-.1c0,0,0-.1,0-.2,0-.7,0-1.7,0-3.1,0-1.4,0-2.1,0-2.3,0,0,0,0,0-.1,0,0,0,0,0,0,0,0,0,0,0-.1,0,0,0,0,0-.1,0-.1,0-.2.2-.2s.2,0,.2.2c0,.1,0,.3,0,.4v.5c0,1.4,0,2.5,0,3.3,0,.4,0,.6,0,.6,0-.2.2-.4.3-.7.1-.2.3-.5.4-.7.3-.4.6-.7.9-.9.3-.2.6-.3.9-.3s.3,0,.5.2c.1.1.2.3.2.5,0,.5-.2,1.1-.6,1.7Z"/>
      <path class="st1" d="M36,46c-.2.3-.4.6-.7.8-.3.2-.7.3-1.1.3s-.7-.1-.9-.3c-.2-.2-.3-.5-.3-.8s0-.6.2-1.1c.1-.4.3-.8.4-1.1,0,0,0-.1.1-.3,0-.2.2-.3.3-.4.1,0,.2-.1.3-.1s.1,0,.1,0,0,0,0,.1,0,0,0,0c0,0,0,0,0,.1-.2.2-.4.5-.5.7-.2.3-.3.6-.4.9,0,.3-.1.6-.1,1s.3.7.9.7.5,0,.8-.2c.2-.2.4-.3.6-.6.1-.2.2-.4.2-.6s0-.4-.2-.5c-.1-.2-.3-.3-.6-.5-.2-.1-.3-.2-.3-.3,0,0-.1-.1-.1-.2,0,0,0-.1.2-.2.1,0,.2,0,.4,0s.1,0,.2,0c0,0,0,0,0,0s0,0,0,0c0,0,0,0,0,0s0,0,.2.2c.2.2.4.4.6.6.2.2.2.4.2.7s0,.5-.3.8Z"/>
      <path class="st1" d="M40.7,47.1c0,0-.1,0-.2,0s-.2-.1-.3-.4c0-.3-.2-.5-.2-.8,0-.3,0-.8,0-1.6,0-.1,0-.3,0-.4s0-.2,0-.3c-.2.4-.4.9-.7,1.4-.3.5-.6,1-.9,1.4-.3.4-.6.6-.7.6s-.3-.1-.4-.3c0-.2,0-.5,0-1s0-.9.2-1.5c.1-.5.2-1,.4-1.2,0-.1.1-.2.2-.3,0,0,0,0,.1,0,.2,0,.2,0,.2,0s0,0,0,.2c-.2.3-.3.7-.4,1.1-.1.4-.2,1-.2,1.7s0,.7.2.7.4-.2.6-.5c.3-.3.5-.8.8-1.2.3-.5.5-.9.6-1.3,0-.1.1-.3.2-.6,0-.1,0-.2,0-.2,0,0,0,0,0,0,0,0,.1,0,.2,0,0,0,.1.1.1.2,0,.3,0,.8,0,1.5,0,.7,0,1.2,0,1.5,0,.2,0,.4.1.5,0,.1.1.2.2.3,0,0,0,.1,0,.1,0,0,0,.2,0,.2Z"/>
      <path class="st1" d="M42.3,47c0,0-.2,0-.3,0s-.1,0-.2-.3,0-.4,0-.8c0-.7,0-1.5,0-2.5,0-1,0-1.7,0-2.2,0-.2,0-.3,0-.5,0-.2.2-.2.3-.2s0,0,0,0c0,0,0,.1,0,.3s0,0,0,0c0,0,0,0,0,.2-.1,1.6-.2,3.1-.2,4.6s0,.4.1.6c0,.2.1.3.1.3,0,0,0,.1-.1.1Z"/>
      <path class="st1" d="M46.8,44.9c0,.1,0,.3-.2.7-.2.4-.4.7-.7,1-.3.3-.7.5-1.2.5s-.7-.1-1-.4c-.3-.2-.4-.6-.4-1.1s.1-.9.3-1.4c.2-.5.5-.8.8-1.1.3-.3.7-.4,1.1-.4s.4,0,.6.1c.2,0,.2.2.2.4s-.1.4-.4.6c-.2.2-.5.4-.9.5-.4.2-.8.3-1.2.3,0,.3-.1.5-.1.8s0,.6.2.8c.2.2.4.3.7.3.5,0,.8-.2,1.1-.5.3-.3.5-.7.7-1.1,0,0,0,0,0-.1,0,0,0-.1,0-.1,0,0,0,0,0,.1ZM45.8,43.1c0,0-.2,0-.3,0-.2,0-.4,0-.7.2-.2.2-.4.3-.5.5-.1.2-.2.4-.3.6.3,0,.6-.1.9-.2.3-.1.6-.3.8-.4.2-.2.3-.3.3-.4s0-.2-.1-.2Z"/>
      <path class="st1" d="M51.8,42.6c0,0-.1,0-.1.1-.3.4-.6.9-.9,1.5-.3.7-.5,1.4-.6,2.1,0,0,0,.3,0,.5v.3c0,0-.1.2-.2.2,0,0-.2,0-.3,0s-.1-.2-.3-.5c-.2-.4-.4-.8-.5-1.2l-.4-.8c-.2-.5-.4-.9-.6-1.2-.2-.3-.3-.4-.3-.4s0,0,0,0c0,0,0,0,0,0,0,0,0,0,0,0,0,0,0,0,0,0,0,0,0-.2.1-.3,0-.1.2-.2.3-.2s.1,0,.1,0c0,0,0,0,0,0,0,0,0,0,0,0,.1.2.4.7.7,1.4.1.3.4,1,.9,2.1l.2.5c0-.2,0-.4,0-.8.1-.7.3-1.4.6-2.1.3-.7.6-1.3.9-1.7,0,0,.1-.2.2-.2,0,0,.1,0,.2,0s0,0,.1.1c0,0,0,.2,0,.2s0,0-.1.1Z"/>
      <path class="st1" d="M56.1,46.6s0,0,0,.1c0,0,0,.2,0,.2,0,0-.1.1-.2.1-.1,0-.2,0-.2-.2s0-.3,0-.4,0-.6,0-1.3v-.3c0-.1,0-.2,0-.3-.3.5-.5.9-.8,1.2-.2.3-.5.7-.9,1-.4.3-.7.4-1.1.4s-.3,0-.4-.2c-.1-.1-.2-.3-.2-.5s.1-.6.3-1c.2-.4.5-.8.8-1.3.3-.4.7-.8,1-1.1.2-.2.4-.3.5-.4.1,0,.2,0,.4,0s.2,0,.3,0c.1,0,.2.1.3.3,0,.1.1.2.1.4s0,.4-.2.5h.2c0,0,.1,0,.1.2,0,0,0,.3,0,.6,0,.3,0,.5,0,.7,0,.2,0,.4,0,.6,0,.2,0,.3,0,.4,0,0,0,0,0,.1ZM53.8,46.3c.3-.2.6-.5.8-.9.2-.3.5-.7.8-1.2,0-.2.1-.4.1-.6s0-.2-.1-.3c0,0-.2-.1-.3-.1s-.3.1-.6.3c-.3.2-.6.5-.9.9-.3.4-.5.8-.7,1.1-.2.4-.3.7-.3.9s0,.3.3.3c.3,0,.6-.1.9-.4Z"/>
      <path class="st1" d="M60.1,43.5c0,0-.1.1-.2.1s0,0-.1,0c0,0,0,0-.1-.2,0,0,0-.1-.2-.2,0,0-.1,0-.2,0-.2,0-.4.2-.7.7-.3.5-.6,1-.9,1.7,0,.1,0,.3,0,.5,0,.2,0,.4,0,.5v.4c0,0,0,.2,0,.2,0,0-.1,0-.2,0s-.2-.1-.2-.4c0-.3,0-.7,0-1.2,0-.1,0-.3,0-.6,0-.2,0-.5,0-.9,0-.5,0-.9,0-1.1s0-.2.3-.2.2,0,.2.1c0,0,0,.3,0,.5v1.4c.2-.5.4-.9.6-1.2.2-.3.4-.6.6-.8.2-.2.4-.3.5-.3s.3,0,.4,0c.1,0,.2.1.3.2,0,0,.1.2.1.3s0,.1-.1.2Z"/>
      <path class="st1" d="M64,40.9c0,.1,0,.4,0,.7,0,.4,0,.7,0,1.1,0,.7,0,1.4,0,2.1,0,.7,0,1.2,0,1.4,0,0,0,0,0,.1,0,0,0,0,0,.1,0,.2,0,.3,0,.3,0,0,0,.1-.1.2,0,0-.2,0-.2,0s-.1,0-.1,0c0,0,0-.1,0-.2,0-.3,0-.7,0-1v-.5c0-.2,0-.4,0-.7,0-.3,0-.5,0-.7-.3,1-.7,1.8-1,2.4-.4.6-.8,1-1.3,1s-.4,0-.5-.3c-.1-.2-.2-.5-.2-.8s.2-1,.5-1.6c.3-.6.7-1,1.1-1.4.4-.4.7-.6.9-.6s.3,0,.3.2,0,.2,0,.3c0,.1-.1.2-.2.3,0,0-.1.1-.1.1s0,0,0,0c0,0,0,0,0,0,0,0,0,0,0-.2,0,0,0-.1,0-.1s0,0,0,0c0,0,0,0,0,0-.1,0-.4.2-.7.5-.3.3-.6.8-.9,1.2-.3.5-.4.9-.4,1.3s0,.3,0,.4c0,.1.2.2.3.2.4,0,.8-.4,1.2-1.1.4-.7.7-1.6,1-2.5v-.8c0-.7,0-1,0-1.1,0-.4,0-.6,0-.8,0,0,0-.1,0-.1,0,0,0,0,0,0s.1,0,.2,0c0,0,0,0,0,.2v.4Z"/>
      <path class="st1" d="M15.6,45.2c-.2.6-.3,1-.6,1.4-.2.3-.4.5-.5.5-.2,0-.4-.2-.5-.5-.2-.3-.3-.8-.4-1.3-.1-.5-.2-.9-.2-1.3-.2.3-.3.7-.5,1.1-.2.4-.3.7-.4,1-.2.4-.3.8-.4,1.2,0,0,0,0,0,0,0,0,0,0,0,0,0,0,0,0,0,0,0,0-.2,0-.2,0,0,0,0-.1-.1-.2v-.4c-.2-.6-.3-1.1-.4-1.7-.1-.5-.3-1-.4-1.4-.1-.4-.2-.5-.3-.5s0,0-.1,0c0,0,0,0-.1,0,0,0,0,0-.1,0,0,0-.1,0-.1-.1s0-.1.1-.2c0-.1.2-.2.2-.3,0,0,.2-.1.2-.1s.1,0,.1,0c0,0,0,0,.1.1,0,.1.2.3.3.7.1.4.3.8.4,1.4l.4,1.6c.3-.8.5-1.4.8-1.9.2-.5.5-1,.8-1.6.1-.2.2-.3.4-.3s.2,0,.2,0c0,0,0,.1,0,.1s0,0,0,0c0,0,0,0,0,0,0,0,0,.1-.1.2,0,0,0,.2,0,.4s0,.5.1,1c0,.4.2.8.3,1.2.1.4.3.5.4.5s.2-.2.3-.5c.1-.3.2-.7.3-1.1s.1-.9.1-1.3,0-.2-.1-.3c0,0,0-.2,0-.2s0,0,0-.2c0,0,.1-.1.2-.1s.2,0,.2.2c0,.1.1.3.1.4,0,.6,0,1.2-.2,1.8Z"/>
      <path class="st1" d="M19.6,46c-.2.3-.4.6-.7.8-.3.2-.7.3-1.1.3s-.7-.1-.9-.3c-.2-.2-.3-.5-.3-.8s0-.6.2-1.1c.1-.4.3-.8.4-1.1,0,0,0-.1.1-.3,0-.2.2-.3.3-.4.1,0,.2-.1.3-.1s.1,0,.1,0,0,0,0,.1,0,0,0,0c0,0,0,0,0,.1-.2.2-.4.5-.5.7-.2.3-.3.6-.4.9,0,.3-.1.6-.1,1s.3.7.9.7.5,0,.8-.2c.2-.2.4-.3.6-.6.1-.2.2-.4.2-.6s0-.4-.2-.5c-.1-.2-.3-.3-.6-.5-.2-.1-.3-.2-.3-.3,0,0-.1-.1-.1-.2,0,0,0-.1.2-.2.1,0,.2,0,.4,0s.1,0,.2,0c0,0,0,0,0,0s0,0,0,0c0,0,0,0,0,0s0,0,.2.2c.2.2.4.4.6.6.2.2.2.4.2.7s0,.5-.3.8Z"/>
      <path class="st1" d="M23.4,46c-.2.3-.4.6-.7.8-.3.2-.7.3-1.1.3s-.7-.1-.9-.3c-.2-.2-.3-.5-.3-.8s0-.6.2-1.1c.1-.4.3-.8.4-1.1,0,0,0-.1.1-.3,0-.2.2-.3.3-.4.1,0,.2-.1.3-.1s.1,0,.1,0,0,0,0,.1,0,0,0,0c0,0,0,0,0,.1-.2.2-.4.5-.5.7-.2.3-.3.6-.4.9,0,.3-.1.6-.1,1s.3.7.9.7.5,0,.8-.2c.2-.2.4-.3.6-.6.1-.2.2-.4.2-.6s0-.4-.2-.5c-.1-.2-.3-.3-.6-.5-.2-.1-.3-.2-.3-.3,0,0-.1-.1-.1-.2,0,0,0-.1.2-.2.1,0,.2,0,.4,0s.1,0,.2,0c0,0,0,0,0,0s0,0,0,0c0,0,0,0,0,0s0,0,.2.2c.2.2.4.4.6.6.2.2.2.4.2.7s0,.5-.3.8Z"/>
      <path class="st1" d="M27.4,47.3c0,0-.1,0-.2,0s-.1,0-.2,0c0,0,0,0,0-.1,0-.2,0-.6,0-1.1,0-.6,0-1,0-1.4s0-.6,0-.9c0-.2,0-.3-.1-.3-.2,0-.4.3-.7.8-.2.5-.5,1.2-.8,2v.4c-.2,0-.2.1-.3.1,0,0-.1,0-.2,0s-.1,0-.1,0c0,0,0,0,0-.1v-.7c0,0-.2-1.3-.2-1.3,0-.5,0-1-.2-1.4,0,0,0-.2,0-.2,0,0,0-.2.1-.2,0,0,.2,0,.3,0s.1.1.1.4c0,.3,0,.8,0,1.4v.5c0,.6.1,1,.1,1.2,0,0,0,0,0-.1,0,0,0,0,0-.1.3-.8.6-1.5.9-2.1.3-.6.6-.8.8-.8s.3.2.4.5c0,.3.1.7.1,1.2,0,.5,0,1.3,0,2.4s0,.1,0,.2Z"/>
      <path class="st1" d="M31.8,45.2c-.4.6-.9,1.1-1.6,1.6-.3.2-.5.3-.6.3s-.1,0-.2,0c0,0,0-.1,0-.2s0-.1,0-.2c0,0,.1-.1.3-.2.4-.2.8-.4,1.1-.8.3-.3.6-.7.8-1.1.2-.4.3-.7.3-1s0-.2,0-.3c0,0-.1,0-.2,0-.3,0-.5.1-.8.3-.3.2-.5.5-.7.8-.2.3-.3.6-.5.9-.2.4-.3.7-.4,1.1,0,.2-.2.3-.3.3s0,0-.1-.1c0,0,0-.1,0-.2,0-.7,0-1.7,0-3.1,0-1.4,0-2.1,0-2.3,0,0,0,0,0-.1,0,0,0,0,0,0,0,0,0,0,0-.1,0,0,0,0,0-.1,0-.1,0-.2.2-.2s.2,0,.2.2c0,.1,0,.3,0,.4v.5c0,1.4,0,2.5,0,3.3,0,.4,0,.6,0,.6,0-.2.2-.4.3-.7.1-.2.3-.5.4-.7.3-.4.6-.7.9-.9.3-.2.6-.3.9-.3s.3,0,.5.2c.1.1.2.3.2.5,0,.5-.2,1.1-.6,1.7Z"/>
      <path class="st1" d="M36,46c-.2.3-.4.6-.7.8-.3.2-.7.3-1.1.3s-.7-.1-.9-.3c-.2-.2-.3-.5-.3-.8s0-.6.2-1.1c.1-.4.3-.8.4-1.1,0,0,0-.1.1-.3,0-.2.2-.3.3-.4.1,0,.2-.1.3-.1s.1,0,.1,0,0,0,0,.1,0,0,0,0c0,0,0,0,0,.1-.2.2-.4.5-.5.7-.2.3-.3.6-.4.9,0,.3-.1.6-.1,1s.3.7.9.7.5,0,.8-.2c.2-.2.4-.3.6-.6.1-.2.2-.4.2-.6s0-.4-.2-.5c-.1-.2-.3-.3-.6-.5-.2-.1-.3-.2-.3-.3,0,0-.1-.1-.1-.2,0,0,0-.1.2-.2.1,0,.2,0,.4,0s.1,0,.2,0c0,0,0,0,0,0s0,0,0,0c0,0,0,0,0,0s0,0,.2.2c.2.2.4.4.6.6.2.2.2.4.2.7s0,.5-.3.8Z"/>
      <path class="st1" d="M40.7,47.1c0,0-.1,0-.2,0s-.2-.1-.3-.4c0-.3-.2-.5-.2-.8,0-.3,0-.8,0-1.6,0-.1,0-.3,0-.4s0-.2,0-.3c-.2.4-.4.9-.7,1.4-.3.5-.6,1-.9,1.4-.3.4-.6.6-.7.6s-.3-.1-.4-.3c0-.2,0-.5,0-1s0-.9.2-1.5c.1-.5.2-1,.4-1.2,0-.1.1-.2.2-.3,0,0,0,0,.1,0,.2,0,.2,0,.2,0s0,0,0,.2c-.2.3-.3.7-.4,1.1-.1.4-.2,1-.2,1.7s0,.7.2.7.4-.2.6-.5c.3-.3.5-.8.8-1.2.3-.5.5-.9.6-1.3,0-.1.1-.3.2-.6,0-.1,0-.2,0-.2,0,0,0,0,0,0,0,0,.1,0,.2,0,0,0,.1.1.1.2,0,.3,0,.8,0,1.5,0,.7,0,1.2,0,1.5,0,.2,0,.4.1.5,0,.1.1.2.2.3,0,0,0,.1,0,.1,0,0,0,.2,0,.2Z"/>
      <path class="st1" d="M42.3,47c0,0-.2,0-.3,0s-.1,0-.2-.3,0-.4,0-.8c0-.7,0-1.5,0-2.5,0-1,0-1.7,0-2.2,0-.2,0-.3,0-.5,0-.2.2-.2.3-.2s0,0,0,0c0,0,0,.1,0,.3s0,0,0,0c0,0,0,0,0,.2-.1,1.6-.2,3.1-.2,4.6s0,.4.1.6c0,.2.1.3.1.3,0,0,0,.1-.1.1Z"/>
      <path class="st1" d="M46.8,44.9c0,.1,0,.3-.2.7-.2.4-.4.7-.7,1-.3.3-.7.5-1.2.5s-.7-.1-1-.4c-.3-.2-.4-.6-.4-1.1s.1-.9.3-1.4c.2-.5.5-.8.8-1.1.3-.3.7-.4,1.1-.4s.4,0,.6.1c.2,0,.2.2.2.4s-.1.4-.4.6c-.2.2-.5.4-.9.5-.4.2-.8.3-1.2.3,0,.3-.1.5-.1.8s0,.6.2.8c.2.2.4.3.7.3.5,0,.8-.2,1.1-.5.3-.3.5-.7.7-1.1,0,0,0,0,0-.1,0,0,0-.1,0-.1,0,0,0,0,0,.1ZM45.8,43.1c0,0-.2,0-.3,0-.2,0-.4,0-.7.2-.2.2-.4.3-.5.5-.1.2-.2.4-.3.6.3,0,.6-.1.9-.2.3-.1.6-.3.8-.4.2-.2.3-.3.3-.4s0-.2-.1-.2Z"/>
      <path class="st1" d="M51.8,42.6c0,0-.1,0-.1.1-.3.4-.6.9-.9,1.5-.3.7-.5,1.4-.6,2.1,0,0,0,.3,0,.5v.3c0,0-.1.2-.2.2,0,0-.2,0-.3,0s-.1-.2-.3-.5c-.2-.4-.4-.8-.5-1.2l-.4-.8c-.2-.5-.4-.9-.6-1.2-.2-.3-.3-.4-.3-.4s0,0,0,0c0,0,0,0,0,0,0,0,0,0,0,0,0,0,0,0,0,0,0,0,0-.2.1-.3,0-.1.2-.2.3-.2s.1,0,.1,0c0,0,0,0,0,0,0,0,0,0,0,0,.1.2.4.7.7,1.4.1.3.4,1,.9,2.1l.2.5c0-.2,0-.4,0-.8.1-.7.3-1.4.6-2.1.3-.7.6-1.3.9-1.7,0,0,.1-.2.2-.2,0,0,.1,0,.2,0s0,0,.1.1c0,0,0,.2,0,.2s0,0-.1.1Z"/>
      <path class="st1" d="M56.1,46.6s0,0,0,.1c0,0,0,.2,0,.2,0,0-.1.1-.2.1-.1,0-.2,0-.2-.2s0-.3,0-.4,0-.6,0-1.3v-.3c0-.1,0-.2,0-.3-.3.5-.5.9-.8,1.2-.2.3-.5.7-.9,1-.4.3-.7.4-1.1.4s-.3,0-.4-.2c-.1-.1-.2-.3-.2-.5s.1-.6.3-1c.2-.4.5-.8.8-1.3.3-.4.7-.8,1-1.1.2-.2.4-.3.5-.4.1,0,.2,0,.4,0s.2,0,.3,0c.1,0,.2.1.3.3,0,.1.1.2.1.4s0,.4-.2.5h.2c0,0,.1,0,.1.2,0,0,0,.3,0,.6,0,.3,0,.5,0,.7,0,.2,0,.4,0,.6,0,.2,0,.3,0,.4,0,0,0,0,0,.1ZM53.8,46.3c.3-.2.6-.5.8-.9.2-.3.5-.7.8-1.2,0-.2.1-.4.1-.6s0-.2-.1-.3c0,0-.2-.1-.3-.1s-.3.1-.6.3c-.3.2-.6.5-.9.9-.3.4-.5.8-.7,1.1-.2.4-.3.7-.3.9s0,.3.3.3c.3,0,.6-.1.9-.4Z"/>
      <path class="st1" d="M60.1,43.5c0,0-.1.1-.2.1s0,0-.1,0c0,0,0,0-.1-.2,0,0,0-.1-.2-.2,0,0-.1,0-.2,0-.2,0-.4.2-.7.7-.3.5-.6,1-.9,1.7,0,.1,0,.3,0,.5,0,.2,0,.4,0,.5v.4c0,0,0,.2,0,.2,0,0-.1,0-.2,0s-.2-.1-.2-.4c0-.3,0-.7,0-1.2,0-.1,0-.3,0-.6,0-.2,0-.5,0-.9,0-.5,0-.9,0-1.1s0-.2.3-.2.2,0,.2.1c0,0,0,.3,0,.5v1.4c.2-.5.4-.9.6-1.2.2-.3.4-.6.6-.8.2-.2.4-.3.5-.3s.3,0,.4,0c.1,0,.2.1.3.2,0,0,.1.2.1.3s0,.1-.1.2Z"/>
      <path class="st1" d="M64,40.9c0,.1,0,.4,0,.7,0,.4,0,.7,0,1.1,0,.7,0,1.4,0,2.1,0,.7,0,1.2,0,1.4,0,0,0,0,0,.1,0,0,0,0,0,.1,0,.2,0,.3,0,.3,0,0,0,.1-.1.2,0,0-.2,0-.2,0s-.1,0-.1,0c0,0,0-.1,0-.2,0-.3,0-.7,0-1v-.5c0-.2,0-.4,0-.7,0-.3,0-.5,0-.7-.3,1-.7,1.8-1,2.4-.4.6-.8,1-1.3,1s-.4,0-.5-.3c-.1-.2-.2-.5-.2-.8s.2-1,.5-1.6c.3-.6.7-1,1.1-1.4.4-.4.7-.6.9-.6s.3,0,.3.2,0,.2,0,.3c0,.1-.1.2-.2.3,0,0-.1.1-.1.1s0,0,0,0c0,0,0,0,0,0,0,0,0,0,0-.2,0,0,0-.1,0-.1s0,0,0,0c0,0,0,0,0,0-.1,0-.4.2-.7.5-.3.3-.6.8-.9,1.2-.3.5-.4.9-.4,1.3s0,.3,0,.4c0,.1.2.2.3.2.4,0,.8-.4,1.2-1.1.4-.7.7-1.6,1-2.5v-.8c0-.7,0-1,0-1.1,0-.4,0-.6,0-.8,0,0,0-.1,0-.1,0,0,0,0,0,0s.1,0,.2,0c0,0,0,0,0,.2v.4Z"/>
    </g>
    <g>
      <path class="st3" d="M80.8,44.8c0,3.9-3.1,7-7,7s-7-3.1-7-7,3.1-7,7-7,7,3.1,7,7Z"/>
      <path class="st1" d="M71,42.6l-.4.9c0,0,0,.1,0,.2,0,0,0-.1,0-.2l-.4-.9h-1.3l1.1,2.2-1,2.2h1.3l.4-1c0,0,0-.1,0-.2,0,0,0,.1,0,.2l.3,1h1.3l-1-2.2,1.1-2.2h-1.3Z"/>
      <path class="st1" d="M74.7,42.6l-.4.9c0,0,0,.1,0,.2,0,0,0-.1,0-.2l-.4-.9h-1.3l1.1,2.2-1,2.2h1.3l.4-1c0,0,0-.1,0-.2,0,0,0,.1,0,.2l.3,1h1.3l-1-2.2,1.1-2.2h-1.3Z"/>
      <polygon class="st1" points="77.5 46 77.5 42.6 76.3 42.6 76.3 47 78.7 47 78.7 46 77.5 46"/>
    </g>
    <path class="st1" d="M67.9,50.1s0,0,0,0h-2.9v11.9h6.4v-2.6h-3.5v-9.2Z"/>
    <path class="st1" d="M73.8,52.8c-.5,0-1,0-1.5-.1v9.3h2.9v-9.3c-.5,0-1,.1-1.5.1Z"/>
    <path class="st1" d="M79.5,59.4v-2.1h2.5v-2.6h-2.5v-2h3.2v-2.6h-3c-.8,1-1.9,1.7-3.1,2.2v9.7h6.2v-2.6h-3.3Z"/>
  </g>
  <g class="st4">
    <image width="2121" height="1414" transform="translate(62.4 -330.8) scale(.6)" xlink:href="../../../../../../Downloads/iStock-1350859272.jpg"/>
  </g>
</svg>