<?xml version="1.0" encoding="UTF-8"?>
<svg id="Laag_1" xmlns="http://www.w3.org/2000/svg" version="1.1" viewBox="0 0 100 100">
  <!-- Generator: Adobe Illustrator 30.2.0, SVG Export Plug-In . SVG Version: 2.1.1 Build 105)  -->
  <defs>
    <style>
      .st0 {
        fill: #fff;
        fill-rule: evenodd;
      }

      .st1 {
        fill: #1d1d1b;
      }
    </style>
  </defs>
  <rect class="st1" width="100" height="100" rx="11.5" ry="11.5"/>
  <g>
    <path class="st0" d="M59.1,69c.8.3,1.5.7,2.3.9,4.7,1.3,7,6.8,4.4,10.7-1.3,1.9-3,3.5-5.1,4.4-2,.8-4.1,1.6-6.2,2.1-3.3.8-6.6,1.5-9.9,2.1-.6.1-1.1.2-1.7.2-3.4.3-3.7-.8-4.8-3.8-.5-1.3.8-2.7,2.3-2.6,1.7,0,1.8,0,1.9-1.7.2-3.3.3-6.7.4-10,0-.6-.1-1.2-.2-1.8,0-.3-.2-.6-.4-1-.3.1-.6.2-.8.4-.9.6-1.7.5-2.2-.3-.2-.3-.2-.8-.1-1.1,1.3-3,2.7-6.1,4.1-9.1.6-1.3,1.7-1.7,3-1.7,1,0,1.6.5,1.5,1.5,0,.8-.2,1.7-.3,2.5-.2,2.3-.5,4.6-.5,6.9,0,1.5.6,2.1,2.2,2,3.5-.2,6.7-1.6,9.1-4.1,2.2-2.3,2.3-5.2,1.3-8.1-.3-.8-1.3-1.6-2.1-2.1-1.7-1-3.7-1.4-5.7-.9-3.8,1-7.6,2.1-11.4,3.2-.6.2-.9.5-1.1,1.3-.5,2.1-1.4,2.6-3.5,2-.2,0-.4,0-.6-.2-.7-.5-1.9-1.2-1.8-1.6.2-.9.9-2,1.7-2.3,6.1-2.5,12.2-5.1,18.9-4.9,2.2,0,4.4.5,6.4,1.3,2.4.9,4,2.9,4.7,5.4.4,1.5.2,3-.6,4.3-1.3,2.2-2.9,4-5,5.4,0,.2,0,.3,0,.5ZM49.5,85.3c3.6-.3,7.5-1.3,10.9-3.4,1.7-1,2.4-2.6,2.3-4.5-.1-2.1-1.4-3.3-3.2-3.9-3.9-1.4-7.9-1.9-11.9-.4-.6.2-1.3.8-1.5,1.3-.7,2.5-1.4,4.9-1,7.5.4,2.7,1.3,3.4,4.3,3.4Z"/>
    <path class="st0" d="M51,50.8c-4.4-.3-9.4-.9-13.8-3.8-1.1-.7-2.1-1.7-3-2.7-1.2-1.4-1-4,.1-5.1,1.2-1.2,3.9-1.3,5.3-.2,1.1.8,1.5,2.2,1,3.8-.2.7-.2,1.3.5,1.7,4.2,2.1,8.6,3.3,13.3,2,.3,0,.7-.3,1-.4,4.1-2.2,4.8-5.1,2.1-8.9-2-2.7-4.5-4.8-7.3-6.5-2.2-1.3-4.5-2.6-6.7-3.9-1.2-.7-2.4-1.6-3.5-2.5-2.4-2-3.5-4.6-2.6-7.7.8-3.1,2.9-5.3,6.1-5.8,1.7-.3,3.7-.4,5.4.1,3.9,1.2,7.6,2.7,11.4,4.3,2.2.9,4.1,2.5,5.5,4.5,1.1,1.6,1.1,2.9-.1,4.2-1.2,1.3-3.1,1.7-4.5.9-1.3-.7-2-1.8-2.3-3.3,0-.5-.2-1.1,0-1.6.5-2-.6-2.7-2.2-3.2-2.5-.8-5-1.7-7.5-2.4-2-.6-4-.1-5.7,1.1-2.1,1.4-2.6,3.6-1.3,5.9,1.3,2.3,3.5,3.7,5.7,5,3.5,2,7.1,3.9,10.5,6.1,2.6,1.6,4.4,4.1,5.6,6.9,1.7,4,.3,7.8-3.5,9.8-2.5,1.3-5.5,2-9.3,1.8Z"/>
  </g>
</svg>