<?xml version="1.0" encoding="utf-8"?>
<!-- Generator: Adobe Illustrator 24.0.2, SVG Export Plug-In . SVG Version: 6.00 Build 0)  -->
<svg version="1.1" id="Laag_1" xmlns="http://www.w3.org/2000/svg" xmlns:xlink="http://www.w3.org/1999/xlink" x="0px" y="0px"
	 viewBox="0 0 240.9 155.9" style="enable-background:new 0 0 240.9 155.9;" xml:space="preserve">
<style type="text/css">
	.st0{fill:#FFFFFF;}
	.st1{fill:#00AEEA;}
	.st2{fill:#A9CA49;}
</style>
<rect x="69.5" y="1.7" class="st0" width="101.9" height="69.1"/>
<path class="st1" d="M69.4,1.7v50c22.6-32.7,87.6-43.1,102-45.1V1.7H69.4z"/>
<path class="st1" d="M69.5,55.8v55.9h101.9v-92C101.7,18.1,74.4,49.3,69.5,55.8"/>
<path class="st2" d="M132.2,99c-25,10-49.5,10.4-62.7,2.3v52.8h101.9V71.7C163.1,82.2,149.3,92.2,132.2,99"/>
<path class="st0" d="M171.4,66.1v5.7c-8.3,10.4-22.1,20.4-39.2,27.3c-25,10-49.5,10.4-62.7,2.3V63.1c8.2-9.6,21.1-18.8,36.9-25.3
	c1.1-0.5,2.1-1,3.2-1.5c25.3-11.3,50.6-9.7,56.6,3.5c6,13.3-9.7,33.2-35,44.6c-1.7,0.8-3.4,1.5-5.1,2.1c22.3-11.6,35.6-29.8,30-42.1
	c-5.1-11.5-24.8-14.2-46.4-7.4C86.4,47.5,71,64.5,71.6,78.3c2.5-3.4,7.9-7.2,14.8-10.2c10.5-4.5,20.3-5.2,21.9-1.5
	c1.6,3.7-5.6,10.4-16.1,15c-7.5,3.3-14.7,4.5-18.8,3.6c7.3,14,35,16.3,63.1,5.1C151.7,84.2,164,75.3,171.4,66.1"/>
<g>
	<path class="st0" d="M76.9,116.3l0-0.7l0-0.4l0-0.4h0l0.2,0.4l0.2,0.4c0.2,0.4,0.3,0.6,0.4,0.8l1.6,3h1.8V114h-1v3.1l0,0.7l0,0.3
		l0,0.4h0l-0.2-0.4l-0.2-0.4c-0.2-0.3-0.3-0.6-0.4-0.9l-1.4-2.8h-1.8v5.5h1V116.3z"/>
	<path class="st0" d="M90.9,118.4l0.3,1.1h1.1l-1.8-5.5H89l-1.8,5.5h1.1l0.3-1.1H90.9z M89.8,114.8l0.9,2.8h-1.9L89.8,114.8z"/>
	<polygon class="st0" points="98.2,114.9 99.7,114.9 99.7,119.5 100.8,119.5 100.8,114.9 102.4,114.9 102.4,114 98.2,114 	"/>
	<rect x="108.7" y="114" class="st0" width="1" height="5.5"/>
	<path class="st0" d="M118.5,119.5c1.1,0,1.8-0.2,2.1-0.5c0.3-0.3,0.4-1.1,0.4-2.4c0-1.1-0.1-1.9-0.4-2.2c-0.3-0.3-0.9-0.5-1.9-0.5
		c-1.1,0-1.8,0.2-2.1,0.5c-0.3,0.3-0.4,1.2-0.4,2.5c0,1.1,0.1,1.8,0.4,2.1C116.9,119.4,117.5,119.5,118.5,119.5z M117.4,115.1
		c0.1-0.2,0.5-0.3,1.2-0.3c0.7,0,1.1,0.1,1.2,0.3c0.1,0.2,0.2,0.7,0.2,1.6c0,0.9-0.1,1.5-0.2,1.6c-0.1,0.2-0.5,0.3-1.2,0.3
		c-0.7,0-1.1-0.1-1.2-0.2c-0.1-0.2-0.2-0.6-0.2-1.4C117.2,115.9,117.3,115.3,117.4,115.1z"/>
	<path class="st0" d="M128.5,116.3l0-0.7l0-0.4l0-0.4h0l0.2,0.4l0.2,0.4c0.2,0.4,0.3,0.6,0.4,0.8l1.6,3h1.8V114h-1v3.1l0,0.7l0,0.3
		l0,0.4h0l-0.2-0.4l-0.2-0.4c-0.2-0.3-0.3-0.6-0.4-0.9l-1.4-2.8h-1.8v5.5h1V116.3z"/>
	<path class="st0" d="M140.2,118.4h2.4l0.3,1.1h1.1l-1.8-5.5h-1.6l-1.8,5.5h1.1L140.2,118.4z M141.4,114.8l0.9,2.8h-1.9L141.4,114.8
		z"/>
	<polygon class="st0" points="153.8,118.5 151.3,118.5 151.3,114 150.2,114 150.2,119.5 153.8,119.5 	"/>
	<polygon class="st0" points="163.8,118.6 161,118.6 161,117.1 163.6,117.1 163.6,116.3 161,116.3 161,114.9 163.7,114.9 163.7,114 
		160,114 160,119.5 163.8,119.5 	"/>
	<path class="st0" d="M81,129.3v1.9h3.4l0,0.5c0,1.1-0.2,1.9-0.6,2.2c-0.4,0.3-1.3,0.5-2.6,0.5c-1.4,0-2.3-0.2-2.7-0.5
		c-0.4-0.4-0.6-1.2-0.6-2.5l0-1.7l0-1.3c0-1.4,0.2-2.2,0.6-2.6c0.4-0.4,1.3-0.6,2.8-0.6c1.4,0,2.2,0.1,2.5,0.3
		c0.3,0.2,0.5,0.8,0.6,1.6h2.6c0-1.7-0.3-2.9-1-3.4c-0.7-0.5-2.2-0.8-4.6-0.8c-1.8,0-3.1,0.2-3.9,0.5c-0.8,0.3-1.3,1-1.7,1.9
		c-0.3,0.8-0.5,2.6-0.5,5.6c0,2.3,0.4,3.8,1.1,4.6c0.8,0.7,2.3,1.1,4.6,1.1c2.5,0,4.2-0.3,4.9-0.8c0.7-0.6,1.1-1.8,1.1-3.8l0-2.7H81
		z"/>
	<path class="st0" d="M94.8,122.9c-2.7,0-4.5,0.4-5.2,1.2c-0.7,0.8-1.1,2.8-1.1,6c0,2.7,0.4,4.4,1.1,5.2c0.7,0.8,2.3,1.2,4.7,1.2
		c2.7,0,4.4-0.4,5.1-1.2c0.7-0.8,1.1-2.7,1.1-5.8c0-2.8-0.4-4.6-1.1-5.4C98.8,123.3,97.2,122.9,94.8,122.9z M97.5,133.7
		c-0.3,0.4-1.3,0.7-2.8,0.7c-1.7,0-2.7-0.2-3-0.6c-0.3-0.4-0.5-1.6-0.5-3.5c0-2.6,0.1-4.1,0.4-4.6c0.3-0.4,1.3-0.7,3-0.7
		c1.7,0,2.6,0.2,2.9,0.6c0.3,0.4,0.5,1.7,0.5,4C98,131.9,97.8,133.3,97.5,133.7z"/>
	<polygon class="st0" points="105.3,123 102.8,123 102.8,136.4 111.6,136.4 111.6,134.1 105.3,134.1 	"/>
	<polygon class="st0" points="116,130.9 122,130.9 122,128.8 116,128.8 116,125.1 122.3,125.1 122.3,123 113.4,123 113.4,136.4 
		116,136.4 	"/>
	<path class="st0" d="M134.4,135.6c0.6-0.6,0.9-1.5,0.9-2.9c0-1.9-0.8-3-2.3-3.2v0c1.3-0.3,2-1.3,2-2.9c0-1.4-0.3-2.3-0.8-2.8
		c-0.6-0.5-1.6-0.7-3.2-0.7h-6.6v13.4h7C132.8,136.4,133.8,136.2,134.4,135.6z M126.9,125.1h3.6c1.2,0,1.8,0.5,1.8,1.6
		c0,0.8-0.1,1.3-0.4,1.5c-0.3,0.2-0.9,0.3-1.9,0.3h-3.1V125.1z M129.7,134.3h-2.8v-3.8h3.3c1.1,0,1.8,0.1,2.1,0.3
		c0.3,0.2,0.4,0.7,0.4,1.5c0,0.8-0.1,1.3-0.4,1.5c-0.3,0.2-0.8,0.4-1.7,0.4L129.7,134.3z"/>
	<path class="st0" d="M143.2,122.9c-2.7,0-4.5,0.4-5.2,1.2c-0.7,0.8-1.1,2.8-1.1,6c0,2.7,0.4,4.4,1.1,5.2c0.7,0.8,2.3,1.2,4.7,1.2
		c2.7,0,4.4-0.4,5.1-1.2c0.7-0.8,1.1-2.7,1.1-5.8c0-2.8-0.3-4.6-1.1-5.4C147.2,123.3,145.7,122.9,143.2,122.9z M145.9,133.7
		c-0.3,0.4-1.3,0.7-2.8,0.7c-1.7,0-2.6-0.2-3-0.6c-0.3-0.4-0.5-1.6-0.5-3.5c0-2.6,0.1-4.1,0.4-4.6c0.3-0.4,1.3-0.7,3-0.7
		c1.7,0,2.6,0.2,2.9,0.6c0.3,0.4,0.4,1.7,0.4,4C146.4,131.9,146.2,133.3,145.9,133.7z"/>
	<path class="st0" d="M151.2,136.4h2.6v-7.7l0-1.8l0-0.9l0-0.9h0.1l0.4,1l0.4,1c0.4,0.9,0.7,1.6,0.9,1.9l3.8,7.4h4.3V123h-2.6v7.7
		l0,1.7l0,0.9l0,0.9h-0.1l-0.5-1.1l-0.5-1.1c-0.4-0.9-0.8-1.6-1.1-2.2l-3.5-6.8h-4.3V136.4z"/>
	<path class="st0" d="M118.3,144.9c0,0.2-0.1,0.4-0.1,0.6l-0.1,0.3l-0.1,0.3h0l-0.1-0.3l-0.1-0.3c0-0.1-0.1-0.3-0.1-0.6l-0.4-1.5h-1
		l-0.4,1.5c-0.1,0.3-0.1,0.5-0.1,0.6l-0.1,0.3l-0.1,0.3h0l-0.1-0.3l-0.1-0.3c0-0.2-0.1-0.4-0.1-0.6l-0.3-1.5h-0.8l0.7,3.3h1.2
		l0.3-1.5c0.1-0.3,0.1-0.4,0.1-0.6l0.1-0.3l0.1-0.3h0l0.1,0.3l0.1,0.3c0,0.1,0.1,0.3,0.1,0.6l0.3,1.5h1.2l0.7-3.3h-0.8L118.3,144.9z
		"/>
	<path class="st0" d="M123.6,144.9c0,0.2-0.1,0.4-0.1,0.6l-0.1,0.3l-0.1,0.3h0l-0.1-0.3l-0.1-0.3c0-0.1-0.1-0.3-0.1-0.6l-0.4-1.5h-1
		l-0.4,1.5c-0.1,0.3-0.1,0.5-0.1,0.6l-0.1,0.3l-0.1,0.3h0l-0.1-0.3l-0.1-0.3c0-0.2-0.1-0.4-0.1-0.6l-0.3-1.5h-0.8l0.7,3.3h1.2
		l0.3-1.5c0.1-0.3,0.1-0.4,0.1-0.6l0.1-0.3l0.1-0.3h0l0.1,0.3l0.1,0.3c0,0.1,0.1,0.3,0.1,0.6l0.3,1.5h1.2l0.7-3.3H124L123.6,144.9z"
		/>
	<path class="st0" d="M129,144.9c0,0.2-0.1,0.4-0.1,0.6l-0.1,0.3l-0.1,0.3h0l-0.1-0.3l-0.1-0.3c0-0.1-0.1-0.3-0.1-0.6l-0.4-1.5h-1
		l-0.4,1.5c-0.1,0.3-0.1,0.5-0.1,0.6l-0.1,0.3l-0.1,0.3h0l-0.1-0.3l-0.1-0.3c0-0.2-0.1-0.4-0.1-0.6l-0.3-1.5h-0.8l0.7,3.3h1.2
		l0.3-1.5c0.1-0.3,0.1-0.4,0.1-0.6l0.1-0.3l0.1-0.3h0l0.1,0.3l0.1,0.3c0,0.1,0.1,0.3,0.1,0.6l0.3,1.5h1.2l0.7-3.3h-0.8L129,144.9z"
		/>
	<rect x="130.8" y="145.8" class="st0" width="0.8" height="0.8"/>
	<path class="st0" d="M134.8,143.9L134.8,143.9c-0.2-0.4-0.5-0.6-1-0.6c-0.5,0-0.8,0.1-1,0.4c-0.2,0.2-0.3,0.7-0.3,1.3
		c0,0.7,0.1,1.1,0.3,1.3c0.2,0.2,0.5,0.4,1,0.4c0.5,0,0.8-0.2,1-0.5l0,0v0.7c0,0.4-0.2,0.6-0.7,0.6c-0.3,0-0.5,0-0.5-0.1
		c-0.1-0.1-0.1-0.2-0.1-0.4h-0.8c0,0.4,0.1,0.7,0.3,0.9c0.2,0.2,0.6,0.2,1.1,0.2c0.6,0,1-0.1,1.2-0.3c0.2-0.2,0.3-0.6,0.3-1.1v-3.3
		h-0.8L134.8,143.9z M134.6,145.8c-0.1,0.1-0.3,0.2-0.6,0.2c-0.3,0-0.5-0.1-0.6-0.2c-0.1-0.1-0.1-0.4-0.1-0.9c0-0.4,0-0.7,0.1-0.8
		c0.1-0.1,0.3-0.2,0.6-0.2c0.3,0,0.5,0.1,0.6,0.2c0.1,0.1,0.1,0.4,0.1,0.8C134.8,145.4,134.7,145.7,134.6,145.8z"/>
	<path class="st0" d="M138.1,143.3c-0.7,0-1.1,0.1-1.3,0.3c-0.2,0.2-0.3,0.7-0.3,1.3c0,0.7,0.1,1.2,0.3,1.4c0.2,0.2,0.6,0.3,1.3,0.3
		c0.6,0,1-0.1,1.2-0.3c0.2-0.2,0.3-0.7,0.3-1.4c0-0.6-0.1-1.1-0.3-1.3C139.2,143.4,138.8,143.3,138.1,143.3z M138.7,145.9
		c-0.1,0.1-0.3,0.2-0.6,0.2c-0.3,0-0.6-0.1-0.6-0.2c-0.1-0.1-0.1-0.4-0.1-0.9c0-0.4,0-0.7,0.1-0.8c0.1-0.1,0.3-0.2,0.6-0.2
		c0.3,0,0.5,0.1,0.6,0.2c0.1,0.1,0.1,0.4,0.1,0.8C138.9,145.4,138.8,145.7,138.7,145.9z"/>
	<rect x="140.7" y="142" class="st0" width="0.8" height="4.7"/>
	<path class="st0" d="M143.5,143c0-0.3,0.2-0.5,0.5-0.5c0.1,0,0.2,0,0.3,0v-0.6c-0.1,0-0.3,0-0.3,0c-0.5,0-0.8,0.1-1,0.2
		c-0.2,0.2-0.3,0.4-0.3,0.9v0.3h-0.5v0.6h0.5v2.7h0.8V144h0.8v-0.6h-0.8V143z"/>
	<path class="st0" d="M146.9,143.3c-0.5,0-0.9,0.2-1,0.5l0,0V142h-0.8v4.7h0.8l0-0.5h0c0.2,0.4,0.5,0.6,1,0.6c0.5,0,0.8-0.1,1-0.4
		c0.2-0.2,0.3-0.7,0.3-1.4c0-0.6-0.1-1-0.3-1.3C147.7,143.4,147.4,143.3,146.9,143.3z M147.2,145.9c-0.1,0.1-0.3,0.2-0.6,0.2
		c-0.3,0-0.5-0.1-0.6-0.2c-0.1-0.1-0.1-0.5-0.1-1c0-0.6,0.3-0.9,0.8-0.9c0.3,0,0.5,0.1,0.6,0.2c0.1,0.1,0.1,0.4,0.1,0.8
		C147.4,145.4,147.3,145.7,147.2,145.9z"/>
	<path class="st0" d="M150.6,143.3c-0.6,0-1.1,0.1-1.3,0.3c-0.2,0.2-0.3,0.7-0.3,1.3c0,0.7,0.1,1.2,0.3,1.4c0.2,0.2,0.6,0.3,1.3,0.3
		c0.6,0,1-0.1,1.2-0.3c0.2-0.2,0.3-0.7,0.3-1.4c0-0.6-0.1-1.1-0.3-1.3C151.6,143.4,151.2,143.3,150.6,143.3z M151.2,145.9
		c-0.1,0.1-0.3,0.2-0.6,0.2c-0.3,0-0.6-0.1-0.6-0.2c-0.1-0.1-0.1-0.4-0.1-0.9c0-0.4,0-0.7,0.1-0.8c0.1-0.1,0.3-0.2,0.6-0.2
		c0.3,0,0.5,0.1,0.6,0.2c0.1,0.1,0.1,0.4,0.1,0.8C151.3,145.4,151.3,145.7,151.2,145.9z"/>
	<path class="st0" d="M154.9,143.3c-0.5,0-0.9,0.2-1,0.6l0,0l0-0.6h-0.8v3.3h0.8v-1.9c0-0.5,0.3-0.7,0.8-0.7c0.3,0,0.5,0.1,0.6,0.4
		l0,0.2v0.1v2h0.8v-2.2C156.1,143.7,155.7,143.3,154.9,143.3z"/>
	<rect x="157.2" y="145.8" class="st0" width="0.8" height="0.8"/>
	<path class="st0" d="M160.8,143.3c-0.5,0-0.9,0.2-1,0.6l0,0l0-0.6H159v3.3h0.8v-1.9c0-0.5,0.3-0.7,0.8-0.7c0.3,0,0.5,0.1,0.6,0.4
		l0,0.2v0.1v2h0.8v-2.2C162,143.7,161.6,143.3,160.8,143.3z"/>
	<rect x="163.1" y="142" class="st0" width="0.8" height="4.7"/>
	<path class="st0" d="M167.5,125.4L167.5,125.4c0.3-0.1,0.5-0.3,0.5-0.6c0-0.2-0.1-0.4-0.2-0.5c-0.1-0.1-0.4-0.2-0.8-0.2
		c-0.3,0-0.5,0-0.7,0.1v2.4h0.4v-1h0.3c0.3,0,0.5,0.1,0.5,0.4c0,0.3,0.1,0.5,0.2,0.6h0.4c0-0.1-0.1-0.2-0.2-0.6
		C167.9,125.6,167.7,125.4,167.5,125.4z M167,125.2h-0.3v-0.8c0.1,0,0.2,0,0.3,0c0.4,0,0.6,0.2,0.6,0.4
		C167.6,125.1,167.3,125.2,167,125.2z"/>
	<path class="st0" d="M167.1,123.1L167.1,123.1c-1.2,0-2.2,1-2.2,2.2c0,1.2,1,2.2,2.2,2.2c1.2,0,2.1-1,2.1-2.2
		C169.3,124.1,168.3,123.1,167.1,123.1z M167.1,127.1c-1,0-1.7-0.8-1.7-1.8c0-1,0.8-1.8,1.7-1.8h0c1,0,1.7,0.8,1.7,1.8
		C168.9,126.3,168.1,127.1,167.1,127.1z"/>
</g>
</svg>
