<svg id="Laag_1" data-name="Laag 1" xmlns="http://www.w3.org/2000/svg" xmlns:xlink="http://www.w3.org/1999/xlink" viewBox="0 0 100 100"><defs><style>.cls-1,.cls-4,.cls-5,.cls-6{fill:none;stroke-miterlimit:10;}.cls-1,.cls-10,.cls-11,.cls-4,.cls-5,.cls-6,.cls-9{stroke:#fff;}.cls-2{fill:#1c3b6c;}.cls-10,.cls-3{fill:#fff;}.cls-4,.cls-5,.cls-6{stroke-linecap:round;stroke-width:3.57px;}.cls-5{stroke-dasharray:0.95 7.56;}.cls-6{stroke-dasharray:0.95 7.56 0.95 7.56;}.cls-7{clip-path:url(#clip-path);}.cls-8{clip-path:url(#clip-path-2);}.cls-9{fill:#314580;}.cls-11{fill:#901330;}</style><clipPath id="clip-path"><path class="cls-1" d="M31.78,63c-.11-.82-.1-.81.53-1.18a7.14,7.14,0,0,0,3-3.08,4.27,4.27,0,0,0,.38-2.7.74.74,0,0,0-.32-.39,13.63,13.63,0,0,1-4.45-4.88,10.9,10.9,0,0,1,.17-11,14.94,14.94,0,0,1,7.43-6.28,19.06,19.06,0,0,1,7.59-1.52,18.51,18.51,0,0,1,11.8,3.92,12.36,12.36,0,0,1,4.75,7.64A10.83,10.83,0,0,1,61.31,51a15,15,0,0,1-7.57,6.39,19.58,19.58,0,0,1-9.66,1.36,1,1,0,0,0-.87.3,13.4,13.4,0,0,1-7.42,3.58c-1.25.19-2.51.25-3.76.37Z"/></clipPath><clipPath id="clip-path-2"><rect class="cls-1" x="17.44" y="30.12" width="57.46" height="33.52"/></clipPath></defs><rect class="cls-2" y="0.04" width="100" height="100" rx="10.37"/><path class="cls-3" d="M70.5,54.06c-.14.65-.24,1.3-.43,1.93a10.71,10.71,0,0,1-4.23,5.68,1.52,1.52,0,0,0-.74,1.54,5,5,0,0,0,2.67,4.06c.43.25.63.5.47,1-.34,0-.7,0-1,0a13.38,13.38,0,0,1-6.37-1.72c-.8-.48-1.5-1.12-2.25-1.67a1,1,0,0,0-.58-.2,17.57,17.57,0,0,1-8.63-1.24c-.67-.28-1.32-.64-2-1l0-.14c.3,0,.61,0,.91,0a20.26,20.26,0,0,0,13.91-6,14.06,14.06,0,0,0,4.21-10.68c0-.12,0-.23,0-.45.31.28.58.51.83.76a10.57,10.57,0,0,1,3.13,6l.09.65Z"/><path class="cls-3" d="M31.78,62.86c-.11-.82-.1-.81.53-1.18a7,7,0,0,0,3-3.08,4.24,4.24,0,0,0,.38-2.69.67.67,0,0,0-.32-.39,13.71,13.71,0,0,1-4.45-4.88,10.9,10.9,0,0,1,.17-11,15,15,0,0,1,7.43-6.29,19,19,0,0,1,7.59-1.51,18.39,18.39,0,0,1,11.8,3.92,12.36,12.36,0,0,1,4.75,7.64,10.8,10.8,0,0,1-1.35,7.51,15,15,0,0,1-7.57,6.4,19.46,19.46,0,0,1-9.66,1.35,1,1,0,0,0-.87.3,13.48,13.48,0,0,1-7.42,3.59c-1.25.19-2.51.25-3.76.36Z"/><path class="cls-4" d="M83.5,50A33.5,33.5,0,1,1,45.92,16.78"/><polygon class="cls-3" points="39.26 23.37 44.87 16.9 38.4 11.29 43.53 10.92 50 16.54 44.39 23.01 39.26 23.37"/><path class="cls-4" d="M58.88,17.29l.49.13"/><path class="cls-5" d="M66.32,20.35a33.64,33.64,0,0,1,4,2.6"/><path class="cls-6" d="M73.14,25.41A33.45,33.45,0,0,1,80.66,36.2"/><path class="cls-4" d="M82,39.74l.15.48"/><g class="cls-7"><g id="NETHERLANDS"><g class="cls-8"><rect class="cls-9" x="17.44" y="30.12" width="57.46" height="33.52"/><rect class="cls-10" x="17.44" y="30.12" width="57.46" height="22.35"/><rect class="cls-11" x="17.44" y="30.12" width="57.46" height="11.17"/></g><rect class="cls-1" x="17.44" y="30.12" width="57.46" height="33.52"/></g></g><path class="cls-1" d="M31.78,63c-.11-.82-.1-.81.53-1.18a7.14,7.14,0,0,0,3-3.08,4.27,4.27,0,0,0,.38-2.7.74.74,0,0,0-.32-.39,13.63,13.63,0,0,1-4.45-4.88,10.9,10.9,0,0,1,.17-11,14.94,14.94,0,0,1,7.43-6.28,19.06,19.06,0,0,1,7.59-1.52,18.51,18.51,0,0,1,11.8,3.92,12.36,12.36,0,0,1,4.75,7.64A10.83,10.83,0,0,1,61.31,51a15,15,0,0,1-7.57,6.39,19.58,19.58,0,0,1-9.66,1.36,1,1,0,0,0-.87.3,13.4,13.4,0,0,1-7.42,3.58c-1.25.19-2.51.25-3.76.37Z"/></svg>