<svg id="Laag_1" data-name="Laag 1" xmlns="http://www.w3.org/2000/svg" xmlns:xlink="http://www.w3.org/1999/xlink" viewBox="0 0 100 100"><defs><style>.cls-1,.cls-10,.cls-11,.cls-8,.cls-9{fill:none;}.cls-2{fill:#1c3b6c;}.cls-3{fill:#fff;}.cls-4{clip-path:url(#clip-path);}.cls-5{clip-path:url(#clip-path-2);}.cls-6{fill:#ffda36;}.cls-7{fill:#ff0f21;}.cls-10,.cls-11,.cls-8,.cls-9{stroke:#fff;stroke-miterlimit:10;}.cls-10,.cls-11,.cls-9{stroke-linecap:round;stroke-width:3.57px;}.cls-10{stroke-dasharray:0.95 7.56;}.cls-11{stroke-dasharray:0.95 7.56 0.95 7.56;}</style><clipPath id="clip-path"><path class="cls-1" d="M31.78,62.83c-.11-.82-.1-.81.53-1.18a7.08,7.08,0,0,0,3-3.08,4.25,4.25,0,0,0,.38-2.69.72.72,0,0,0-.32-.4,13.68,13.68,0,0,1-4.45-4.87,10.92,10.92,0,0,1,.17-11.06,14.94,14.94,0,0,1,7.43-6.28,18.88,18.88,0,0,1,7.59-1.51,18.44,18.44,0,0,1,11.8,3.91,12.38,12.38,0,0,1,4.75,7.64,10.83,10.83,0,0,1-1.35,7.52,15,15,0,0,1-7.57,6.39,19.47,19.47,0,0,1-9.66,1.36,1,1,0,0,0-.87.3,13.4,13.4,0,0,1-7.42,3.58c-1.25.19-2.51.25-3.76.37Z"/></clipPath><clipPath id="clip-path-2"><rect class="cls-1" x="28.73" y="31.76" width="33.54" height="31.89"/></clipPath></defs><rect class="cls-2" width="100" height="100" rx="10.37"/><path class="cls-3" d="M70.5,54c-.14.64-.24,1.3-.43,1.93a10.75,10.75,0,0,1-4.23,5.68,1.51,1.51,0,0,0-.74,1.54,5,5,0,0,0,2.67,4.05c.43.25.63.5.47,1-.34,0-.7,0-1,0a13.27,13.27,0,0,1-6.37-1.72c-.8-.48-1.5-1.12-2.25-1.66a.91.91,0,0,0-.58-.2,17.69,17.69,0,0,1-8.63-1.25c-.67-.28-1.32-.63-2-.95l0-.15c.3,0,.61,0,.91,0a20.26,20.26,0,0,0,13.91-6,14.08,14.08,0,0,0,4.21-10.69c0-.11,0-.23,0-.44.31.28.58.5.83.75a10.57,10.57,0,0,1,3.13,6l.09.65Z"/><g class="cls-4"><g id="BELGIUM"><g class="cls-5"><rect x="28.73" y="31.76" width="11.18" height="31.89"/><rect class="cls-6" x="39.91" y="31.76" width="11.18" height="31.89"/><rect class="cls-7" x="51.09" y="31.76" width="11.18" height="31.89"/></g></g></g><path class="cls-8" d="M31.46,62.93c-.1-.82-.1-.81.54-1.17a7.14,7.14,0,0,0,3-3.09A4.32,4.32,0,0,0,35.38,56a.76.76,0,0,0-.32-.39,13.74,13.74,0,0,1-4.46-4.88,10.9,10.9,0,0,1,.18-11.05,14.83,14.83,0,0,1,7.42-6.28,18.93,18.93,0,0,1,7.6-1.52,18.42,18.42,0,0,1,11.79,3.92,12.37,12.37,0,0,1,4.76,7.64A10.9,10.9,0,0,1,61,50.93a15,15,0,0,1-7.58,6.4,19.44,19.44,0,0,1-9.66,1.35,1,1,0,0,0-.86.3,13.54,13.54,0,0,1-7.43,3.59c-1.24.19-2.51.25-3.76.36Z"/><path class="cls-9" d="M83.5,50A33.5,33.5,0,1,1,45.92,16.75"/><polygon class="cls-3" points="39.26 23.34 44.87 16.86 38.4 11.25 43.53 10.89 50 16.5 44.39 22.97 39.26 23.34"/><path class="cls-9" d="M58.88,17.25l.49.14"/><path class="cls-10" d="M66.32,20.32a33.57,33.57,0,0,1,4,2.59"/><path class="cls-11" d="M73.14,25.38a33.52,33.52,0,0,1,7.52,10.78"/><path class="cls-9" d="M82,39.7l.15.48"/></svg>