<?xml version="1.0" encoding="utf-8"?>
<!-- Generator: Adobe Illustrator 25.4.0, SVG Export Plug-In . SVG Version: 6.00 Build 0)  -->
<svg version="1.1" id="Laag_1" xmlns="http://www.w3.org/2000/svg" xmlns:xlink="http://www.w3.org/1999/xlink" x="0px" y="0px"
	 viewBox="0 0 100 100" style="enable-background:new 0 0 100 100;" xml:space="preserve">
<style type="text/css">
	.st0{fill:#14384E;}
	.st1{fill:#FFFFFF;}
</style>
<path class="st0" d="M10.4,0h79.3C95.4,0,100,4.6,100,10.4v79.3c0,5.7-4.6,10.4-10.4,10.4H10.4C4.6,100,0,95.4,0,89.6V10.4
	C0,4.6,4.6,0,10.4,0z"/>
<path class="st1" d="M46.8,77.5c-4.3,0-8.5-1.3-12-3.8c-2.1-1.5-2.2-2.4-0.4-4.2c8.1-8.1,16.3-16.3,24.4-24.4
	c1.9-1.9,2.8-1.8,4.3,0.5c4.4,6.7,5,13.8,1.3,20.8S54.5,77.1,46.8,77.5z"/>
<path class="st1" d="M33.2,42.7c0.3-8,3.8-14.1,11-17.8s14-3.1,20.6,1.2c2.5,1.6,2.6,2.5,0.5,4.6c-8,8-16,15.9-24,23.9
	c-2.2,2.2-3,2.1-4.8-0.6C34.2,50.7,33.1,46.7,33.2,42.7z"/>
</svg>
