<svg id="Laag_1" data-name="Laag 1" xmlns="http://www.w3.org/2000/svg" viewBox="0 0 100 100"><defs><style>.cls-1{fill:#1c3b6c;}.cls-2{fill:#fff;}.cls-3{fill:#003163;}</style></defs><rect class="cls-1" x="0.01" y="-0.36" width="100" height="100" rx="10.37"/><rect class="cls-2" x="46.96" y="19.75" width="40.55" height="59.32" rx="4.06"/><rect class="cls-3" x="51.86" y="26.61" width="30.72" height="20.44" rx="2.11"/><rect class="cls-3" x="52.48" y="52.27" width="7.48" height="4.88" rx="0.51"/><rect class="cls-3" x="63.49" y="52.27" width="7.48" height="4.88" rx="0.51"/><rect class="cls-3" x="74.49" y="52.27" width="7.48" height="4.88" rx="0.51"/><rect class="cls-3" x="52.48" y="60.24" width="7.48" height="4.88" rx="0.51"/><rect class="cls-3" x="63.49" y="60.24" width="7.48" height="4.88" rx="0.51"/><rect class="cls-3" x="74.49" y="60.24" width="7.48" height="4.88" rx="0.51"/><rect class="cls-3" x="52.5" y="68.22" width="7.48" height="4.88" rx="0.51"/><rect class="cls-3" x="63.5" y="68.22" width="7.48" height="4.88" rx="0.51"/><rect class="cls-3" x="74.51" y="68.22" width="7.48" height="4.88" rx="0.51"/><path class="cls-2" d="M48.55,56.45a5.1,5.1,0,0,1-4.28,3.92,5.34,5.34,0,0,1-.69.05h-6c-.39,0-.51-.13-.46-.52l.24-2.12a.35.35,0,0,1,.37-.33h.63c.32,0,.45-.14.45-.47V27a.59.59,0,0,0,0-.3.8.8,0,0,0-.28-.2s-.12,0-.18,0H27.2a2.08,2.08,0,0,0-2.13,1.81,2.46,2.46,0,0,0,0,.26V55.69a1.74,1.74,0,0,0,1.13,1.63.3.3,0,0,0,.29,0,5,5,0,0,0,1.13-1.17,16.32,16.32,0,0,0,1.63-2.72,2.41,2.41,0,0,0,.12-.66,15.69,15.69,0,0,1,1.29-4.6,5.33,5.33,0,0,1,1.61-2.09,2.83,2.83,0,0,1,2-.55A1.21,1.21,0,0,1,35,46a2.94,2.94,0,0,1,.65,1.5,9.54,9.54,0,0,1,0,3,31.49,31.49,0,0,1-.83,3.83,9.25,9.25,0,0,0-.19,1.4c-.15,1.25-.29,2.5-.44,3.75s-.3,2.52-.43,3.79a10,10,0,0,1-.62,2.4,21.21,21.21,0,0,1-3.19,6c-.26.32-.54.62-.8.94a.68.68,0,0,0-.13.33c0,.26,0,.52,0,.8h.34a1.27,1.27,0,0,1,1.26,1.26c0,1.13,0,2.26,0,3.4a1.25,1.25,0,0,1-1.25,1.24q-6.83,0-13.67,0a1.24,1.24,0,0,1-1.23-1.24c0-1.13,0-2.26,0-3.39a1.28,1.28,0,0,1,1.1-1.23l.22,0q-.09-.84-.18-1.65c-.15-1.25-.29-2.5-.44-3.75s-.3-2.53-.46-3.79-.35-2.66-.55-4a53.07,53.07,0,0,0-1-5.74c-.07-.26-.22-.49-.3-.75a5.22,5.22,0,0,1-.2-.87,6,6,0,0,1,.18-2.86,4,4,0,0,1,1.16-1.67c.53-.48,1-1,1.51-1.53,1.35-1.39,2.69-2.81,4.05-4.2.8-.81,1.63-1.6,2.45-2.4a.38.38,0,0,0,.08-.24q0-5.57,0-11.14a5.11,5.11,0,0,1,4.43-5.14,4,4,0,0,1,.69-.05H43.92a4.76,4.76,0,0,1,4.73,4.24.36.36,0,0,0,0,.09V55.76C48.64,56,48.6,56.22,48.55,56.45ZM43.34,57c0,.37.1.45.47.44a2.07,2.07,0,0,0,1.89-2,.76.76,0,0,0,0-.15V28.55a2.07,2.07,0,0,0-2-2.1c-.27,0-.4.12-.4.41V57Z"/></svg>