<?xml version="1.0" encoding="utf-8"?>
<!-- Generator: Adobe Illustrator 25.4.0, SVG Export Plug-In . SVG Version: 6.00 Build 0)  -->
<svg version="1.1" id="Laag_1" xmlns="http://www.w3.org/2000/svg" xmlns:xlink="http://www.w3.org/1999/xlink" x="0px" y="0px"
	 viewBox="0 0 100 100" style="enable-background:new 0 0 100 100;" xml:space="preserve">
<style type="text/css">
	.st0{fill:#211E3C;}
	.st1{fill:#FFFFFF;}
	.st2{fill:#EA5B0C;}
	.st3{fill:#DE0716;}
	.st4{fill:#F59E00;}
</style>
<path class="st0" d="M10.4,0h79.3C95.4,0,100,4.6,100,10.4v79.3c0,5.7-4.6,10.4-10.4,10.4H10.4C4.6,100,0,95.4,0,89.6V10.4
	C0,4.6,4.6,0,10.4,0z"/>
<path class="st1" d="M38.3,19.8l-4.6,11.6l-1.9-9.9c-0.1-1-1-1.7-2-1.7h-7.5l-0.1,0.5c1.5,0.3,3,0.8,4.4,1.4c0.6,0.3,0.9,0.9,1,1.5
	l3.5,13.6h4.7l7.1-17L38.3,19.8z M44.9,19.8l-3.6,17h4.4l3.7-17L44.9,19.8z M70.1,24.4l1.3,6.4h-3.7L70.1,24.4z M69.5,19.8
	c-0.8,0-1.6,0.5-1.9,1.2L61,36.8h4.6l0.9-2.5h5.7l0.5,2.5h4.1l-3.6-17L69.5,19.8z M50.5,25.1c0,2.5,2.2,3.8,3.8,4.6s2.3,1.4,2.3,2.1
	c0,1.1-1.4,1.7-2.6,1.7c-1.6,0-3.1-0.3-4.5-1.1l-0.8,3.7c1.6,0.6,3.2,0.9,4.9,0.9c4.6,0,7.7-2.3,7.7-5.8c0-4.5-6.2-4.7-6.2-6.8
	c0-0.6,0.6-1.3,1.9-1.4c1.5-0.1,3,0.1,4.3,0.8l0.7-3.6c-1.3-0.5-2.7-0.7-4.1-0.8C53.5,19.5,50.5,21.8,50.5,25.1"/>
<rect x="43.1" y="50.4" class="st2" width="14.7" height="26.5"/>
<path class="st3" d="M44,63.7c0-5.2,2.4-10.1,6.5-13.2c-7.3-5.7-17.9-4.5-23.7,2.8s-4.5,17.9,2.8,23.7c6.1,4.8,14.7,4.8,20.8,0
	C46.4,73.7,44,68.8,44,63.7z"/>
<path class="st4" d="M77.7,63.7c0,9.3-7.5,16.9-16.8,16.9c-3.8,0-7.4-1.3-10.4-3.6c7.3-5.8,8.6-16.4,2.8-23.7c-0.8-1-1.8-2-2.8-2.8
	c7.3-5.7,17.9-4.5,23.7,2.8C76.5,56.2,77.7,59.9,77.7,63.7z"/>
</svg>
