<svg id="Laag_1" data-name="Laag 1" xmlns="http://www.w3.org/2000/svg" viewBox="0 0 100 100"><defs><style>.cls-1{fill:#fff;}.cls-2{fill:#a8a8a7;}.cls-3{fill:#c80370;}.cls-4{fill:#71706f;}</style></defs><rect class="cls-1" x="0.5" y="0.5" width="99" height="99" rx="9.87"/><path class="cls-2" d="M89.63,1A9.38,9.38,0,0,1,99,10.37V89.63A9.38,9.38,0,0,1,89.63,99H10.37A9.38,9.38,0,0,1,1,89.63V10.37A9.38,9.38,0,0,1,10.37,1H89.63m0-1H10.37A10.41,10.41,0,0,0,0,10.37V89.63A10.41,10.41,0,0,0,10.37,100H89.63A10.41,10.41,0,0,0,100,89.63V10.37A10.41,10.41,0,0,0,89.63,0Z"/><path class="cls-3" d="M41.54,58.2H28.63a5.17,5.17,0,0,1-3.77-1.43A12.46,12.46,0,0,1,24,55.73l.06-.09H38.43a.82.82,0,0,0,0-.11c0-1.08,0-2.17-.06-3.25a9.53,9.53,0,0,0-4-7,9.74,9.74,0,0,0-6.51-1.91,9.92,9.92,0,0,0-9,7.53A10,10,0,0,0,26.4,63a11.19,11.19,0,0,0,2.38.25c4.11,0,8.22,0,12.33,0h.43a6.67,6.67,0,0,1-.35,1,3.71,3.71,0,0,1-3.52,2.13q-9.14,0-18.28,0a3.85,3.85,0,0,1-3.89-3.94V44.13a3.78,3.78,0,0,1,3.81-3.84H37.76a3.81,3.81,0,0,1,3.82,3.82c0,4.6,0,9.19,0,13.78C41.56,58,41.55,58.07,41.54,58.2Z"/><path class="cls-4" d="M44.14,63c0-3.15,0-6.3,0-9.45a9.69,9.69,0,0,1,1.14-4.82,9.57,9.57,0,0,1,7-5.11,9.72,9.72,0,0,1,11.22,7.62A9.89,9.89,0,0,1,56,63a12.84,12.84,0,0,1-2.32.22c-1.4,0-2.81,0-4.21,0-.5,0-.5,0-.5.51v9.74c0,.4,0,.4-.39.4-1.35,0-2.71,0-4.06,0-.3,0-.38-.09-.37-.38Zm7.52-4.71h2.21a5.69,5.69,0,0,0,.83-.06A5,5,0,1,0,49,53.27c0,1.56,0,3.13,0,4.69,0,.25.09.32.33.32Z"/><path class="cls-4" d="M60.61,63.2c.44-.3.87-.55,1.26-.85a9.49,9.49,0,0,0,2.39-3,6.66,6.66,0,0,0,.38-.69c.12-.33.34-.41.68-.4h12.8a2.92,2.92,0,0,0,.51,0,1.23,1.23,0,0,0,1.05-1.4,1.32,1.32,0,0,0-1.24-1.14H72.09A6.12,6.12,0,0,1,71,43.54a7.56,7.56,0,0,1,1.26-.1c3,0,6.08,0,9.11,0,.3,0,.37.1.37.38,0,1.34,0,2.67,0,4,0,.28-.08.37-.36.37-3,0-6.05,0-9.08,0a2.19,2.19,0,0,0-.68.09,1.34,1.34,0,0,0-.87,1.55,1.31,1.31,0,0,0,1.32,1h6.2a6.17,6.17,0,0,1,1,12.27,7.59,7.59,0,0,1-1.07.07H60.61Z"/><path class="cls-3" d="M22.25,37.13H20.8a.54.54,0,0,1-.59-.52,16.09,16.09,0,0,1,.2-4.1A8,8,0,0,1,27,26.3,8.33,8.33,0,0,1,35.61,30a7.87,7.87,0,0,1,1.26,4.1c0,.8,0,1.6,0,2.41a.59.59,0,0,1-.66.66H33.38a.59.59,0,0,1-.65-.65V34.3a4.2,4.2,0,0,0-8.28-.88,6.88,6.88,0,0,0-.09,1.29c0,.57,0,1.14,0,1.71s-.22.71-.71.71Z"/><path class="cls-3" d="M33,50.78h-9c.29-1.19,2.51-2.64,4.14-2.72C30.19,48,32.47,49.24,33,50.78Z"/></svg>