<svg id="Laag_1" data-name="Laag 1" xmlns="http://www.w3.org/2000/svg" xmlns:xlink="http://www.w3.org/1999/xlink" viewBox="0 0 100 100"><defs><style>.cls-1{fill:none;}.cls-2{fill:#1a1f28;}.cls-3{clip-path:url(#clip-path);}.cls-4{fill:#fff;}.cls-5{fill:#fd0;}.cls-6{fill:#00a0e9;}.cls-7{fill:#e00;}</style><clipPath id="clip-path"><rect class="cls-1" x="120" y="-133" width="100" height="100" rx="10.37"/></clipPath></defs><rect class="cls-2" width="100" height="100" rx="10.37"/><path class="cls-4" d="M48.55,35.26a4.73,4.73,0,0,1,3,2,4.39,4.39,0,0,1,.63,3.4,4.64,4.64,0,0,1-1.75,2.77,4.61,4.61,0,0,1-7.28-4.57,4.63,4.63,0,0,1,1.94-2.93A4.52,4.52,0,0,1,48.55,35.26Zm-3.61,4.49A2.77,2.77,0,1,0,47.7,37,2.81,2.81,0,0,0,44.94,39.75Z"/><path class="cls-4" d="M13.31,35.38c.07,0,.12,0,.2,0a.66.66,0,0,1,.65.17l4.32,4.4c.05,0,.1.12.17.19s.12,0,.15,0a.15.15,0,0,0,.07-.14c0-1.46,0-2.89,0-4.35,0-.29,0-.34.34-.34h1.16c.24,0,.29.08.29.32,0,2.69,0,5.36,0,8.06a.86.86,0,0,0,0,.22c0,.29-.17.43-.46.31a1.89,1.89,0,0,1-.19-.14c-1.48-1.56-2.94-3.09-4.42-4.62-.07-.07-.12-.14-.2-.21s-.12-.08-.16-.05a.22.22,0,0,0-.08.14c0,.66,0,1.31,0,2,0,.87,0,1.75,0,2.62,0,.22-.07.29-.31.29l-1.56,0Z"/><path class="cls-5" d="M67.31,66.71A5.12,5.12,0,0,1,64,65.23,4.48,4.48,0,0,1,62.65,62a4.61,4.61,0,1,1,9.22,0,4.48,4.48,0,0,1-1.35,3.25A4.93,4.93,0,0,1,67.31,66.71Zm2.74-4.66a2.77,2.77,0,1,0-2.76,2.74A2.74,2.74,0,0,0,70.05,62.05Z"/><path class="cls-6" d="M72.36,55.67A4.6,4.6,0,1,1,77,51.15,4.62,4.62,0,0,1,72.36,55.67Zm0-7.38a2.77,2.77,0,1,0,2.77,2.77A2.77,2.77,0,0,0,72.38,48.29Z"/><path class="cls-4" d="M37,55.67A4.62,4.62,0,1,1,41.54,51,4.63,4.63,0,0,1,37,55.67Zm-2.82-4.61a2.77,2.77,0,1,0,2.77-2.75A2.74,2.74,0,0,0,34.16,51.06Z"/><path class="cls-6" d="M57.58,51.06a4.61,4.61,0,1,1,4.66,4.63A4.67,4.67,0,0,1,57.58,51.06Zm7.38,0a2.77,2.77,0,0,0-5.54-.1,2.77,2.77,0,1,0,5.54.1Z"/><path class="cls-4" d="M61.1,39.77v4.17c0,.1-.05.25-.1.25a.52.52,0,0,1-.39,0,2.57,2.57,0,0,1-.51-.48l-4-4.15a2.82,2.82,0,0,1-.24-.29.37.37,0,0,0-.17-.05s0,.09,0,.14c0,1.41,0,2.79,0,4.2v.24c0,.47,0,.47-.46.47h-1c-.24,0-.31-.08-.31-.32v-8.3c0-.1.05-.24.12-.27a.47.47,0,0,1,.53.08l.95.94c1.12,1.12,2.21,2.24,3.32,3.35.12.12.22.24.34.34s.15.07.17,0,.08-.12.08-.17c0-1.46,0-2.94,0-4.39,0-.17.07-.25.24-.25h1.29c.19,0,.27.08.27.27,0,1.41,0,2.82,0,4.2Z"/><path class="cls-4" d="M80.42,62v4.15c0,.1,0,.24-.12.27a1,1,0,0,1-.39,0c-.07,0-.12-.09-.2-.17-1.43-1.48-2.86-3-4.29-4.46a2.82,2.82,0,0,1-.24-.29c-.05,0-.13,0-.17-.08s-.08.13-.08.2,0,.46,0,.68V66.1c0,.29,0,.34-.34.34H73.5c-.31,0-.34,0-.34-.34V57.92c0-.12-.07-.31.12-.36a.59.59,0,0,1,.56.07c.17.17.32.34.49.49L78,61.86l.36.38c.05,0,.12,0,.17.1a.67.67,0,0,0,0-.19V57.8c0-.24.05-.29.29-.29h1.24c.19,0,.26.07.26.27,0,1.43,0,2.81,0,4.22Z"/><path class="cls-4" d="M80.13,39.77V35.6c0-.2.07-.27.26-.27h5.42c.26,0,.34.07.34.34v1.16c0,.22-.08.29-.3.32H82.24c-.27,0-.32.05-.32.31v1c0,.22,0,.27.27.27,1,0,3.15.07,3.15.31v1.17c0,.24-.07.34-.31.34H82.24c-.29,0-.32,0-.32.34v1.21c0,.34,0,.36.37.36h3.47c.19,0,.26.08.26.29V44c0,.27,0,.32-.31.32H80.47c-.27,0-.32-.05-.32-.32,0-1.45,0-2.84,0-4.22Z"/><path class="cls-4" d="M56.2,62V57.83c0-.15,0-.29.22-.29.82,0,1.67,0,2.49,0a2.42,2.42,0,0,1,1.85,1.07A2.53,2.53,0,0,1,61.1,61a3.13,3.13,0,0,1-.19.36.23.23,0,0,0,0,.34,2.58,2.58,0,0,1,.83,2.65,2.67,2.67,0,0,1-2.6,2c-.9,0-1.79,0-2.72,0-.19,0-.26-.07-.26-.32V62Zm1.6,1.85h0v.82c0,.15.07.24.22.24a10.1,10.1,0,0,0,1.23,0,1.1,1.1,0,0,0,1-1.09,1.12,1.12,0,0,0-1-1c-.39,0-.78,0-1.17,0-.17,0-.24.1-.24.27S57.8,63.58,57.8,63.85Zm0-3.79h0v.78c0,.14,0,.24.2.24a6,6,0,0,0,.73,0,1,1,0,0,0,.85-.94,1,1,0,0,0-.76-1,3.89,3.89,0,0,0-.77,0c-.22,0-.27,0-.27.27S57.77,59.82,57.77,60.06Z"/><path class="cls-4" d="M21.66,51.06V46.93c0-.17.05-.29.24-.29.8,0,1.63,0,2.43,0A2.44,2.44,0,0,1,26.39,48a2.37,2.37,0,0,1-.05,2.5.2.2,0,0,0,.05.29,2.46,2.46,0,0,1,.66.88A2.64,2.64,0,0,1,26.2,55a2.42,2.42,0,0,1-1.51.51H22c-.25,0-.29-.08-.29-.29C21.66,53.82,21.66,52.44,21.66,51.06Zm1.63,1.86v.81c0,.21.05.29.29.29h.56a5.81,5.81,0,0,0,.85-.1,1,1,0,0,0-.1-2c-.46-.07-.95,0-1.41-.07-.14,0-.17.12-.17.27S23.29,52.66,23.29,52.92Zm0-3.78v.75a.24.24,0,0,0,.27.27H24a1.08,1.08,0,0,0,1-.83.9.9,0,0,0-.65-1.09,3.41,3.41,0,0,0-.85-.1c-.19,0-.27.08-.27.27Z"/><path class="cls-4" d="M45.37,55.69a4.56,4.56,0,0,1-3.1-1.36c-.17-.17-.17-.22,0-.36.32-.29.63-.58.92-.88.15-.14.25-.12.39,0a3,3,0,0,0,2.11.83,1.05,1.05,0,0,0,1.05-.75.69.69,0,0,0-.22-.66,2.64,2.64,0,0,0-1.29-.73,4,4,0,0,1-1.53-.68,2.41,2.41,0,0,1-1-2.28,2.36,2.36,0,0,1,1.77-2.13,3.47,3.47,0,0,1,3,.34c.24.14.48.26.72.41s.2.19.08.36c-.22.32-.42.66-.61,1s-.24.32-.53.13a2.61,2.61,0,0,0-1.65-.61,2.38,2.38,0,0,0-.68.19.68.68,0,0,0,0,1.17,3.15,3.15,0,0,0,.82.34A4.14,4.14,0,0,1,48,51.57a2.33,2.33,0,0,1,.34,2.13,2.78,2.78,0,0,1-1.31,1.63A3,3,0,0,1,45.37,55.69Z"/><path class="cls-4" d="M53.7,55.69a4.63,4.63,0,0,1-4-6,4.55,4.55,0,0,1,6.12-2.86,6.49,6.49,0,0,1,.9.48c.19.1.19.17,0,.34s-.53.61-.77.9-.22.24-.49.1a2.82,2.82,0,0,0-3.61.92A2.75,2.75,0,0,0,51.56,52a2.74,2.74,0,0,0,4.1,1.48c.15-.1.25-.1.37,0,.26.31.56.63.85.94.12.1.12.2,0,.32A4.9,4.9,0,0,1,53.7,55.69Z"/><path class="cls-4" d="M78.6,51.06v-4.2c0-.17.07-.27.24-.27.92,0,1.84,0,2.74,0A2.6,2.6,0,0,1,84,48.26a2.66,2.66,0,0,1-1.16,3.35,2.46,2.46,0,0,1-1.39.34h-.75a.24.24,0,0,0-.27.3c0,1,0,2,0,3,0,.17-.07.27-.24.27H78.84c-.17,0-.24-.07-.24-.24V51.06Zm1.79-1.78h0v.64c0,.17.08.26.25.26h.94a1,1,0,0,0,.83-.87.93.93,0,0,0-.8-.88c-.32,0-.66,0-1,0-.17,0-.24.1-.22.27Z"/><path class="cls-7" d="M70.9,44.24h-.7a.36.36,0,0,1-.36-.25c-.32-.7-.66-1.38-1-2.08s-.63-1.36-1-2.07c-.12-.26-.21-.53-.34-.77a.18.18,0,0,0-.14-.1.19.19,0,0,0-.15.12c-.43.87-.85,1.75-1.28,2.6s-.8,1.58-1.22,2.35a.34.34,0,0,1-.29.17c-.51,0-1,0-1.53,0-.19,0-.24-.07-.14-.24L64,41.71c.44-.85.9-1.7,1.34-2.55s.75-1.5,1.11-2.23c.25-.46.47-.92.71-1.41a.41.41,0,0,1,.7,0c.17.31.32.63.46,1s.42.89.63,1.33.54,1.12.78,1.67l.58,1.24c.22.44.42.88.63,1.31s.42.9.64,1.34c.09.22.19.41.29.63s0,.24-.15.24a6.78,6.78,0,0,1-.78,0Z"/><path class="cls-4" d="M29.82,44.24c-.25,0-.49,0-.71,0a.56.56,0,0,1-.34-.2c-.27-.53-.51-1.09-.75-1.62s-.56-1.14-.83-1.7-.48-1.07-.75-1.6c0,0-.07-.15-.1-.15a.22.22,0,0,0-.16.15c-.34.63-.64,1.28-1,1.91s-.53,1-.8,1.53-.51,1-.75,1.48a.26.26,0,0,1-.29.2H21.88c-.24,0-.29-.08-.17-.27.34-.66.68-1.31,1-1.94s.54-1.07.78-1.58l.95-1.87c.29-.51.56-1,.8-1.58s.48-1,.75-1.48a.4.4,0,0,1,.46-.22.44.44,0,0,1,.34.27c.41.85.8,1.7,1.22,2.57s.75,1.61,1.11,2.41.66,1.36,1,2c.22.46.44.92.68,1.38.07.14,0,.24-.14.24A7.4,7.4,0,0,1,29.82,44.24Z"/><path class="cls-4" d="M33.14,40.67V37.42c0-.27,0-.32-.32-.32H31c-.27,0-.3-.05-.3-.31V35.57c0-.19.08-.27.27-.27h6.19c.19,0,.27.1.27.3v1.19c0,.26,0,.31-.32.31H35.28c-.34,0-.39.07-.37.39V43.9c0,.24-.07.31-.29.31H33.41c-.25,0-.29-.07-.29-.29,0-1.07,0-2.16,0-3.25Z"/><path class="cls-4" d="M73.48,39.75V35.6c0-.2.07-.3.26-.27H75c.24,0,.27.05.27.29v6.5c0,.32,0,.34.36.34h2.72c.22,0,.27.08.27.3v1.16c0,.27,0,.34-.32.34H73.77c-.22,0-.27-.07-.27-.29,0-1.43,0-2.84,0-4.22Z"/><path class="cls-4" d="M41.1,39.77v4c0,.51,0,.51-.51.51h-1c-.22,0-.29-.08-.29-.3V35.62c0-.19.1-.29.27-.27h1.28c.22,0,.27.08.27.29v4.13Z"/><path class="cls-4" d="M29.09,51.06V46.88c0-.17.07-.27.24-.27h1.31c.19,0,.27.1.27.3V55c0,.53,0,.53-.54.53h-1c-.17,0-.24-.07-.24-.24,0-1.43,0-2.84,0-4.22Z"/><path class="cls-5" d="M66.27,62h0v1.23c0,.2.07.25.24.15.8-.39,1.6-.78,2.38-1.19a.22.22,0,0,0,.12-.15.23.23,0,0,0-.12-.14s-.12,0-.19-.07c-.73-.39-1.46-.78-2.16-1.19-.2-.12-.27-.08-.27.17Z"/><path class="cls-5" d="M66.27,62V60.86c0-.24.07-.29.27-.17.72.39,1.43.8,2.16,1.19l.19.07s.12.1.12.15-.07.12-.12.14l-2.38,1.19c-.17.08-.24,0-.24-.14V62Z"/><path class="cls-6" d="M73.45,49.87A1.13,1.13,0,0,1,74.62,51a1.17,1.17,0,0,1-1.19,1.22,1.16,1.16,0,0,1-1.19-1.17A1.18,1.18,0,0,1,73.45,49.87Z"/><path class="cls-6" d="M64.45,51.06a1.16,1.16,0,0,1-1.19,1.19A1.17,1.17,0,0,1,62.07,51a1.13,1.13,0,0,1,1.21-1.16A1.16,1.16,0,0,1,64.45,51.06Z"/></svg>