<svg version="1.2" xmlns="http://www.w3.org/2000/svg" viewBox="0 0 99 100" width="100" height="100">
	<title>logo_ pay-svg</title>
	<defs>
		<linearGradient id="g1" x1="28.6" y1="18.4" x2="62.4" y2="85.1" gradientUnits="userSpaceOnUse">
			<stop offset="0" stop-color="#003972"/>
			<stop offset="1" stop-color="#003163"/>
		</linearGradient>
	</defs>
	<style>
		.s0 { fill: #003972 } 
		.s1 { fill: #ffffff } 
		.s2 { fill: url(#g1) } 
	</style>
	<path id="Layer" class="s0" d="m0 10.4c0-5.7 4.7-10.4 10.4-10.4h78.2c5.7 0 10.4 4.7 10.4 10.4v78.3c0 5.8-4.7 10.4-10.4 10.4h-78.2c-5.7 0-10.4-4.6-10.4-10.4z" />
	<path id="Layer" fill-rule="evenodd" class="s1" d="m33.1 57.4q-0.4 0-0.6-0.3q-0.3-0.2-0.3-0.5v-7.5q0.1-1.3 0.7-2.4q0.5-1 1.6-1.6q1-0.6 2.3-0.6q1.3 0 2.3 0.6q1 0.6 1.6 1.6q0.6 1.1 0.6 2.4q0 1.3-0.5 2.3q-0.6 1-1.5 1.6q-1 0.6-2.2 0.6q-1 0-1.8-0.4q-0.8-0.4-1.4-1.1v4.5q0 0.3-0.2 0.5q-0.2 0.3-0.6 0.3zm3.7-5.3q0.8 0 1.5-0.4q0.6-0.4 1-1.1q0.4-0.7 0.4-1.5q0-0.9-0.4-1.6q-0.4-0.7-1-1.1q-0.7-0.4-1.5-0.4q-0.9 0-1.5 0.4q-0.7 0.4-1.1 1.1q-0.3 0.7-0.3 1.6q0 0.8 0.3 1.5q0.4 0.7 1.1 1.1q0.6 0.4 1.5 0.4z" />
	<path id="Layer" fill-rule="evenodd" class="s1" d="m48.1 53.6q-1.2 0-2.2-0.6q-1-0.6-1.5-1.6q-0.6-1-0.6-2.3q0-1.3 0.6-2.4q0.6-1 1.7-1.6q1-0.6 2.3-0.6q1.3 0 2.3 0.6q1 0.6 1.6 1.6q0.6 1.1 0.6 2.4v3.6q0 0.4-0.2 0.6q-0.3 0.3-0.6 0.3q-0.4 0-0.6-0.3q-0.3-0.2-0.3-0.6v-0.6q-0.5 0.7-1.4 1.1q-0.8 0.4-1.7 0.4zm0.3-1.5q0.8 0 1.5-0.4q0.6-0.4 1-1.1q0.4-0.7 0.4-1.5q0-0.9-0.4-1.6q-0.4-0.7-1-1.1q-0.7-0.4-1.5-0.4q-0.8 0-1.5 0.4q-0.7 0.4-1.1 1.1q-0.3 0.7-0.3 1.6q0 0.8 0.3 1.5q0.4 0.7 1.1 1.1q0.7 0.4 1.5 0.4z" />
	<path id="Layer" class="s1" d="m57.5 57.5q-0.2 0-0.4-0.1q-0.7-0.3-0.4-1l1.7-3.7l-3.7-7.1q-0.2-0.3-0.1-0.6q0.1-0.3 0.5-0.4q0.3-0.1 0.6 0q0.2 0.1 0.4 0.4l3 6l2.6-6q0.4-0.7 1.1-0.4q0.7 0.3 0.4 1.1l-5 11.3q-0.2 0.5-0.7 0.5z" />
	<path id="Layer" class="s1" d="m65.7 53.8q-0.4 0-0.8-0.3q-0.3-0.4-0.3-0.8q0-0.5 0.3-0.8q0.4-0.4 0.8-0.4q0.5 0 0.8 0.4q0.4 0.3 0.4 0.8q0 0.4-0.4 0.8q-0.3 0.3-0.8 0.3z" />
	<path id="Layer" class="s2" d="m49.7 18.8c16.5 0 29.9 13.4 29.9 29.9c0 16.3-13 29.5-29.2 29.9h-30.6v-30.6c0.4-16.2 13.6-29.2 29.9-29.2z" />
	<path id="Layer" fill-rule="evenodd" class="s1" d="m51.9 43.7q1.8 1.8 1.8 4.3v6h-6.2q-2.5 0-4.3-1.8q-1.8-1.7-1.8-4.2q0-2.6 1.8-4.3q1.8-1.8 4.3-1.8q2.5 0 4.4 1.8zm-0.8 7.9v-3.6q0-1.5-1-2.6q-1.1-1.1-2.6-1.1q-1.5 0-2.5 1.1q-1.1 1.1-1.1 2.6q0 1.5 1.1 2.5q1 1.1 2.5 1.1z" />
	<path id="Layer" class="s1" d="m67.4 42.2v17.8q-1 0-1.7-0.7q-0.7-0.7-0.7-1.8v-3.5h-3.4q-2.5 0-4.2-1.7q-1.8-1.7-1.8-4.2v-5.9q1 0 1.8 0.7q0.7 0.8 0.7 1.8v3.4q0 1.5 1 2.5q1 1.1 2.5 1.1h3.4v-7q0-1 0.7-1.8q0.7-0.7 1.7-0.7z" />
	<path id="Layer" fill-rule="evenodd" class="s1" d="m39.7 48q0 2.5-1.8 4.3q-1.8 1.7-4.3 1.7h-3.6v3.7q0 1-0.8 1.8q-0.7 0.7-1.8 0.7v-12.2q0-2.6 1.9-4.3q1.8-1.8 4.3-1.8q2.5 0 4.3 1.8q1.8 1.7 1.8 4.3zm-2.5 0q0-1.5-1.1-2.6q-1-1.1-2.5-1.1q-1.5 0-2.6 1.1q-1 1.1-1 2.6v3.6h3.6q1.5 0 2.5-1.1q1.1-1 1.1-2.5z" />
	<path id="Layer" fill-rule="evenodd" class="s1" d="m50.8 76.6h-29v-29c0.2-3.6 1-7 2.4-10.2c1.4-3.2 3.5-6.1 6-8.6c2.6-2.5 5.5-4.5 8.8-5.9c3.4-1.4 7-2.1 10.7-2.1c3.8 0 7.4 0.7 10.8 2.2c3.4 1.4 6.3 3.4 8.9 6c2.6 2.5 4.6 5.5 6 8.8c1.4 3.5 2.2 7.1 2.2 10.9c0 3.7-0.8 7.3-2.2 10.7c-1.3 3.3-3.3 6.2-5.8 8.8c-2.5 2.5-5.4 4.5-8.6 6c-3.2 1.4-6.7 2.2-10.2 2.3zm-0.8-0.9h0.3c3.6-0.1 7.1-0.8 10.3-2.3c3.1-1.4 5.9-3.3 8.4-5.8c2.4-2.5 4.3-5.3 5.6-8.5c1.3-3.3 2-6.8 2-10.4c0-3.6-0.7-7.1-2.1-10.4c-1.3-3.3-3.3-6.1-5.8-8.6c-2.4-2.5-5.3-4.4-8.5-5.8c-3.3-1.4-6.9-2.1-10.5-2.1c-3.6 0-7.1 0.7-10.4 2.1c-3.1 1.3-6 3.2-8.5 5.6c-2.4 2.4-4.4 5.2-5.8 8.3c-1.4 3.3-2.2 6.8-2.3 10.3v0.4v27.2z" />
	<path id="Layer" class="s1" d="m69.2 52.9c0-0.8 0.6-1.4 1.5-1.4c0.8 0 1.4 0.6 1.4 1.4c0 0.9-0.6 1.5-1.4 1.5c-0.9 0-1.5-0.6-1.5-1.5z" />
</svg>