<svg width="230" height="101" viewBox="0 0 230 101" fill="none" xmlns="http://www.w3.org/2000/svg">
<rect x="2.5" y="2.5" width="225" height="96" rx="9.5" fill="white"/>
<path d="M13.4355 36.3315H18.5283C21.9235 36.3315 24.2192 36.4626 25.4155 36.7246C26.6232 36.9867 27.603 37.6589 28.355 38.7412C29.1183 39.8122 29.5 41.5269 29.5 43.8853C29.5 46.0386 29.2323 47.4855 28.6968 48.2261C28.1613 48.9666 27.1074 49.411 25.5352 49.5591C26.9593 49.9123 27.9163 50.3851 28.4062 50.9775C28.8962 51.57 29.1981 52.1169 29.312 52.6182C29.4373 53.1081 29.5 54.4696 29.5 56.7026V64H22.8179V54.8057C22.8179 53.3245 22.6982 52.4074 22.459 52.0542C22.2311 51.701 21.6216 51.5244 20.6304 51.5244V64H13.4355V36.3315ZM20.6304 41.0654V47.2178C21.4393 47.2178 22.0033 47.1095 22.3223 46.8931C22.6527 46.6652 22.8179 45.9417 22.8179 44.7227V43.2017C22.8179 42.3244 22.6584 41.749 22.3394 41.4756C22.0317 41.2021 21.4621 41.0654 20.6304 41.0654ZM32.3027 36.3315H44.2998V41.8687H39.4976V47.1152H43.9922V52.3789H39.4976V58.4629H44.7783V64H32.3027V36.3315ZM60.877 36.3315V41.8687H56.6045V64H49.4097V41.8687H45.1543V36.3315H60.877ZM78.958 52.5327C78.958 55.3127 78.8896 57.2837 78.7529 58.4458C78.6276 59.5965 78.2174 60.6504 77.5225 61.6074C76.8389 62.5645 75.9103 63.2993 74.7368 63.812C73.5633 64.3247 72.1961 64.5811 70.6353 64.5811C69.1541 64.5811 67.8211 64.3418 66.6362 63.8633C65.4627 63.3734 64.5171 62.6442 63.7993 61.6758C63.0815 60.7074 62.6543 59.6535 62.5176 58.5142C62.3809 57.3748 62.3125 55.381 62.3125 52.5327V47.7988C62.3125 45.0189 62.3752 43.0535 62.5005 41.9028C62.6372 40.7407 63.0474 39.6812 63.731 38.7241C64.4259 37.7671 65.3602 37.0322 66.5337 36.5195C67.7072 36.0068 69.0744 35.7505 70.6353 35.7505C72.1164 35.7505 73.4437 35.9954 74.6172 36.4854C75.8021 36.9639 76.7534 37.6873 77.4712 38.6558C78.189 39.6242 78.6162 40.6781 78.7529 41.8174C78.8896 42.9567 78.958 44.9505 78.958 47.7988V52.5327ZM71.7632 43.4409C71.7632 42.1535 71.6891 41.3332 71.541 40.98C71.4043 40.6154 71.1138 40.4331 70.6694 40.4331C70.2935 40.4331 70.0029 40.5812 69.7979 40.8774C69.6042 41.1623 69.5073 42.0168 69.5073 43.4409V56.3608C69.5073 57.9673 69.57 58.9585 69.6953 59.3345C69.832 59.7104 70.1396 59.8984 70.6182 59.8984C71.1081 59.8984 71.4214 59.682 71.5581 59.249C71.6948 58.8161 71.7632 57.785 71.7632 56.1558V43.4409ZM98.0132 36.3315V54.8228C98.0132 56.9191 97.9448 58.3945 97.8081 59.249C97.6714 60.0921 97.2669 60.9637 96.5947 61.8638C95.9225 62.7524 95.0339 63.4303 93.9287 63.8975C92.835 64.3532 91.5418 64.5811 90.0493 64.5811C88.3973 64.5811 86.939 64.3076 85.6743 63.7607C84.4097 63.2139 83.464 62.5018 82.8374 61.6245C82.2108 60.7472 81.8405 59.8244 81.7266 58.856C81.6126 57.8761 81.5557 55.8254 81.5557 52.7036V36.3315H88.7505V57.0786C88.7505 58.2863 88.8132 59.061 88.9385 59.4028C89.0752 59.7332 89.3429 59.8984 89.7417 59.8984C90.1974 59.8984 90.488 59.7161 90.6133 59.3516C90.75 58.9756 90.8184 58.0983 90.8184 56.7197V36.3315H98.0132ZM100.799 36.3315H105.892C109.287 36.3315 111.583 36.4626 112.779 36.7246C113.986 36.9867 114.966 37.6589 115.718 38.7412C116.482 39.8122 116.863 41.5269 116.863 43.8853C116.863 46.0386 116.596 47.4855 116.06 48.2261C115.525 48.9666 114.471 49.411 112.898 49.5591C114.323 49.9123 115.28 50.3851 115.77 50.9775C116.259 51.57 116.561 52.1169 116.675 52.6182C116.801 53.1081 116.863 54.4696 116.863 56.7026V64H110.181V54.8057C110.181 53.3245 110.062 52.4074 109.822 52.0542C109.594 51.701 108.985 51.5244 107.994 51.5244V64H100.799V36.3315ZM107.994 41.0654V47.2178C108.803 47.2178 109.367 47.1095 109.686 46.8931C110.016 46.6652 110.181 45.9417 110.181 44.7227V43.2017C110.181 42.3244 110.022 41.749 109.703 41.4756C109.395 41.2021 108.825 41.0654 107.994 41.0654ZM119.666 36.3315H126.912C128.872 36.3315 130.376 36.4854 131.424 36.793C132.483 37.1006 133.275 37.5449 133.799 38.126C134.335 38.707 134.694 39.4134 134.876 40.2451C135.07 41.0654 135.167 42.3415 135.167 44.0732V46.4829C135.167 48.2489 134.984 49.5363 134.62 50.3452C134.255 51.1541 133.583 51.7751 132.603 52.208C131.635 52.641 130.364 52.8574 128.792 52.8574H126.861V64H119.666V36.3315ZM126.861 41.0654V48.1064C127.066 48.1178 127.243 48.1235 127.391 48.1235C128.051 48.1235 128.507 47.964 128.758 47.645C129.02 47.3146 129.151 46.6367 129.151 45.6113V43.3384C129.151 42.3927 129.003 41.7775 128.707 41.4927C128.41 41.2078 127.795 41.0654 126.861 41.0654ZM144.429 36.3315V64H137.234V36.3315H144.429ZM163.382 36.3315V64H157.076L153.333 51.4219V64H147.317V36.3315H153.333L157.366 48.79V36.3315H163.382ZM182.352 36.3315V64H176.045L172.303 51.4219V64H166.287V36.3315H172.303L176.336 48.79V36.3315H182.352ZM185.257 36.3315H197.254V41.8687H192.452V47.1152H196.946V52.3789H192.452V58.4629H197.732V64H185.257V36.3315ZM215.882 36.3315V64H209.576L205.833 51.4219V64H199.817V36.3315H205.833L209.866 48.79V36.3315H215.882Z" fill="#00447F"/>
<rect x="2.5" y="2.5" width="225" height="96" rx="9.5" stroke="#00447F" stroke-width="5"/>
</svg>
