<?xml version="1.0" encoding="utf-8"?>
<!-- Generator: Adobe Illustrator 28.3.0, SVG Export Plug-In . SVG Version: 6.00 Build 0)  -->
<svg version="1.1" id="Laag_1" xmlns="http://www.w3.org/2000/svg" xmlns:xlink="http://www.w3.org/1999/xlink" x="0px" y="0px"
	 viewBox="0 0 100 100" style="enable-background:new 0 0 100 100;" xml:space="preserve">
<style type="text/css">
	.st0{fill:#5B2181;}
	.st1{fill:#39B39F;}
	.st2{fill:#1D1D1B;}
	.st3{fill:#FECB00;}
</style>
<path class="st0" d="M-0.2,90V10c0-5.5,4.5-10,10-10l40.1,0v100H9.8C4.3,100-0.2,95.5-0.2,90z"/>
<path class="st1" d="M90,100H49.9V0H90c5.5,0,10,4.5,10,10v80C100,95.5,95.5,100,90,100z"/>
<g>
	<polygon class="st2" points="15.1,37.3 37.8,57.9 54.4,26.8 72.8,56.4 88.7,38.7 88.7,70.9 17.3,77 	"/>
	<polygon class="st3" points="11.3,33.5 34,54 50.6,23 69,52.6 84.9,34.9 84.9,67 13.4,73.2 	"/>
</g>
</svg>
