<?xml version="1.0" encoding="UTF-8"?>
<svg id="Laag_1" data-name="Laag 1" xmlns="http://www.w3.org/2000/svg" viewBox="0 0 100 100">
  <defs>
    <style>
      .cls-1 {
        fill: #1d1d1b;
      }

      .cls-2 {
        fill: #fff;
      }
    </style>
  </defs>
  <rect class="cls-2" width="100" height="100" rx="10.78" ry="10.78"/>
  <g>
    <circle class="cls-1" cx="8.68" cy="53.55" r=".75"/>
    <circle class="cls-1" cx="10.64" cy="53.55" r=".75"/>
    <circle class="cls-1" cx="12.59" cy="53.55" r=".75"/>
    <path class="cls-1" d="M11.39,51.6c0,.42-.34.75-.75.75s-.75-.34-.75-.75.34-.75.75-.75.75.34.75.75Z"/>
    <path class="cls-1" d="M13.35,51.6c0,.42-.34.75-.75.75s-.75-.34-.75-.75.34-.75.75-.75.75.34.75.75Z"/>
    <path class="cls-1" d="M15.31,51.6c0,.42-.34.75-.75.75s-.75-.34-.75-.75.34-.75.75-.75.75.34.75.75Z"/>
    <path class="cls-1" d="M13.35,49.64c0,.42-.34.75-.75.75s-.75-.34-.75-.75.34-.75.75-.75.75.34.75.75Z"/>
    <path class="cls-1" d="M15.31,49.64c0,.42-.34.75-.75.75s-.75-.34-.75-.75.34-.75.75-.75.75.34.75.75Z"/>
    <path class="cls-1" d="M17.26,49.64c0,.42-.34.75-.75.75s-.75-.34-.75-.75.34-.75.75-.75.75.34.75.75Z"/>
    <path class="cls-1" d="M11.39,47.68c0,.42-.34.75-.75.75s-.75-.34-.75-.75.34-.75.75-.75.75.34.75.75Z"/>
    <path class="cls-1" d="M13.35,47.68c0,.42-.34.75-.75.75s-.75-.34-.75-.75.34-.75.75-.75.75.34.75.75Z"/>
    <path class="cls-1" d="M15.31,47.68c0,.42-.34.75-.75.75s-.75-.34-.75-.75.34-.75.75-.75.75.34.75.75Z"/>
    <path class="cls-1" d="M9.43,45.72c0,.42-.34.75-.75.75s-.75-.34-.75-.75.34-.75.75-.75.75.34.75.75Z"/>
    <path class="cls-1" d="M11.39,45.72c0,.42-.34.75-.75.75s-.75-.34-.75-.75.34-.75.75-.75.75.34.75.75Z"/>
    <path class="cls-1" d="M13.35,45.72c0,.42-.34.75-.75.75s-.75-.34-.75-.75.34-.75.75-.75.75.34.75.75Z"/>
    <path class="cls-1" d="M23.78,52.39c.44,0,.97-.1,1.58-.29v1.87c-.63.28-1.39.42-2.3.42-1,0-1.73-.25-2.19-.76-.46-.51-.69-1.27-.69-2.28v-4.44h-1.2v-1.06l1.38-.84.72-1.94h1.6v1.96h2.58v1.88h-2.58v4.44c0,.36.1.62.3.79.2.17.46.26.79.26h0Z"/>
    <path class="cls-1" d="M31.4,45.01c.34,0,.62.02.85.07l-.19,2.35c-.2-.05-.45-.08-.74-.08-.8,0-1.42.21-1.87.62-.45.41-.67.99-.67,1.73v4.68h-2.51v-9.2h1.9l.37,1.55h.12c.29-.52.67-.93,1.16-1.25.49-.32,1.01-.47,1.58-.47h0Z"/>
    <path class="cls-1" d="M37.33,50.12l-.97.03c-.73.02-1.27.15-1.63.39-.36.24-.53.61-.53,1.1,0,.71.41,1.06,1.22,1.06.58,0,1.05-.17,1.39-.5.35-.33.52-.78.52-1.33v-.76h0ZM38.07,54.38l-.49-1.25h-.07c-.42.53-.86.9-1.3,1.11-.45.21-1.03.31-1.75.31-.88,0-1.58-.25-2.09-.76-.51-.5-.76-1.22-.76-2.16s.34-1.7,1.02-2.16c.68-.46,1.71-.72,3.09-.77l1.6-.05v-.4c0-.93-.48-1.4-1.43-1.4-.74,0-1.6.22-2.59.67l-.83-1.7c1.06-.55,2.23-.83,3.52-.83s2.18.27,2.84.81c.66.54.99,1.35.99,2.45v6.13h-1.75Z"/>
    <path class="cls-1" d="M42.91,54.38l-3.51-9.2h2.62l1.78,5.24c.2.66.32,1.29.37,1.88h.05c.03-.53.15-1.15.37-1.88l1.77-5.24h2.62l-3.51,9.2h-2.58Z"/>
    <path class="cls-1" d="M52.43,46.79c-.53,0-.95.17-1.25.51-.3.34-.47.82-.52,1.44h3.52c-.01-.62-.17-1.1-.49-1.44-.31-.34-.74-.51-1.27-.51h0ZM52.79,54.54c-1.48,0-2.64-.41-3.47-1.23-.83-.82-1.25-1.97-1.25-3.47s.39-2.73,1.16-3.58c.77-.84,1.84-1.26,3.2-1.26s2.31.37,3.04,1.11c.72.74,1.09,1.76,1.09,3.07v1.22h-5.93c.03.71.24,1.27.63,1.67.4.4.95.6,1.66.6.55,0,1.08-.06,1.57-.17.49-.12,1.01-.3,1.55-.55v1.94c-.44.22-.91.38-1.41.49-.5.11-1.11.16-1.83.16h0Z"/>
    <polygon class="cls-1" points="59.4 54.38 56.89 54.38 56.89 41.57 59.4 41.57 59.4 54.38 59.4 54.38"/>
    <path class="cls-1" d="M64.66,47.01c-.62,0-1.07.19-1.36.57-.29.38-.43,1.01-.44,1.89v.27c0,.99.15,1.7.44,2.12.29.43.76.64,1.39.64.52,0,.93-.24,1.23-.71.3-.47.46-1.16.46-2.07s-.15-1.58-.46-2.04c-.31-.45-.73-.68-1.26-.68h0ZM65.47,45.01c1.09,0,1.94.42,2.55,1.27.61.85.92,2.01.92,3.48s-.32,2.7-.95,3.53c-.63.83-1.5,1.25-2.59,1.25s-1.93-.39-2.54-1.18h-.17l-.42,1.01h-1.92v-12.8h2.51v2.98c0,.38-.03.98-.1,1.82h.1c.59-.91,1.46-1.37,2.61-1.37h0Z"/>
    <path class="cls-1" d="M74.43,50.12l-.97.03c-.73.02-1.27.15-1.63.39-.36.24-.53.61-.53,1.1,0,.71.41,1.06,1.22,1.06.58,0,1.05-.17,1.39-.5.35-.33.52-.78.52-1.33v-.76h0ZM75.17,54.38l-.49-1.25h-.07c-.42.53-.86.9-1.3,1.11-.45.21-1.03.31-1.75.31-.88,0-1.58-.25-2.09-.76-.51-.5-.76-1.22-.76-2.16s.34-1.7,1.02-2.16c.68-.46,1.71-.72,3.09-.77l1.6-.05v-.4c0-.93-.48-1.4-1.43-1.4-.74,0-1.6.22-2.59.67l-.83-1.7c1.06-.55,2.23-.83,3.52-.83s2.18.27,2.84.81c.66.54.99,1.35.99,2.45v6.13h-1.75Z"/>
    <path class="cls-1" d="M79.64,48.19c0,.5.11.89.34,1.18.23.29.57.44,1.04.44s.82-.15,1.04-.44c.22-.29.33-.69.33-1.18,0-1.11-.46-1.66-1.37-1.66s-1.38.55-1.38,1.66h0ZM78.73,55.68c0,.35.17.62.5.81.33.2.8.3,1.39.3.9,0,1.6-.12,2.11-.37.51-.25.77-.58.77-1.01,0-.35-.15-.58-.45-.72-.3-.13-.77-.2-1.4-.2h-1.3c-.46,0-.85.11-1.16.32-.31.22-.46.5-.46.86h0ZM85.83,45.18v1.28l-1.44.37c.26.41.39.87.39,1.38,0,.99-.34,1.76-1.03,2.31-.69.55-1.64.83-2.87.83l-.45-.02-.37-.04c-.26.2-.39.42-.39.66,0,.36.46.54,1.38.54h1.56c1.01,0,1.78.22,2.31.65.53.43.79,1.07.79,1.91,0,1.08-.45,1.91-1.35,2.5-.9.59-2.18.89-3.86.89-1.28,0-2.26-.22-2.94-.67-.68-.45-1.02-1.07-1.02-1.88,0-.55.17-1.02.52-1.39.35-.37.85-.64,1.52-.8-.26-.11-.48-.29-.67-.54-.19-.25-.29-.51-.29-.79,0-.35.1-.64.3-.88.2-.23.5-.46.88-.69-.48-.21-.87-.54-1.15-1-.28-.46-.42-1-.42-1.63,0-1,.33-1.78.98-2.33.65-.55,1.59-.82,2.8-.82.26,0,.56.02.92.07.35.05.58.08.68.1h3.21Z"/>
    <path class="cls-1" d="M92.08,51.65c0,.94-.33,1.66-.98,2.16-.66.49-1.64.74-2.94.74-.67,0-1.24-.05-1.71-.14-.47-.09-.91-.22-1.32-.4v-2.07c.47.22.99.4,1.58.55.58.15,1.1.22,1.54.22.91,0,1.37-.26,1.37-.79,0-.2-.06-.36-.18-.48s-.33-.26-.63-.42c-.3-.16-.69-.34-1.18-.55-.71-.3-1.23-.57-1.56-.82-.33-.25-.57-.54-.72-.87-.15-.33-.23-.73-.23-1.21,0-.82.32-1.45.95-1.9.63-.45,1.53-.67,2.69-.67s2.19.24,3.23.72l-.76,1.81c-.46-.2-.89-.36-1.29-.49-.4-.13-.81-.19-1.23-.19-.74,0-1.11.2-1.11.6,0,.23.12.42.36.58.24.16.76.41,1.57.73.72.29,1.25.56,1.58.81.33.25.58.54.74.87.16.33.24.72.24,1.18h0Z"/>
  </g>
</svg>