<svg xmlns="http://www.w3.org/2000/svg" id="Laag_1" data-name="Laag 1" viewBox="0 0 100 100"><defs><clipPath id="clip-path"><rect width="100" height="100" x="120" y="-121.07" rx="10.37" style="fill:none"/></clipPath><style>.cls-4{fill:#fff}</style></defs><rect width="100" height="100" rx="10.37" style="fill:#313f92"/><path d="M82.05 39.36h5.45v21.37h-5.45zM23 38.76a38.36 38.36 0 0 0-10.5 1.79v20.26h5.62V44.3a13.38 13.38 0 0 1 4.94-.86c3.66 0 5.1 2 5.1 5v12.29h5.54V48.47c0-6.56-3.07-9.71-10.73-9.71M80.52 39.36h-6.73l-5.1 6.3L66 42.08a7.5 7.5 0 0 0-5.87-2.81h-3.36l8.43 10.64-8.69 10.82h6.64l5.45-6.64L71.75 58a7.42 7.42 0 0 0 5.87 2.73h3.24l-8.77-11Z" class="cls-4"/><path d="M46.89 43.36c2.47 0 4.51 1.11 5.28 3.06l-11.07 2a5.7 5.7 0 0 1 5.79-5m10.56 13.22-3.66-3a8.16 8.16 0 0 1-6.39 3 6.23 6.23 0 0 1-5.87-3.75L58 50a11.16 11.16 0 0 0-1-4.51 11 11 0 0 0-10.3-6.81c-6.3 0-11.15 4.51-11.15 11.32 0 6.64 4.77 11.32 11.75 11.32a12.21 12.21 0 0 0 10.13-4.68" class="cls-4"/></svg>
