<svg id="Laag_1" data-name="Laag 1" xmlns="http://www.w3.org/2000/svg" xmlns:xlink="http://www.w3.org/1999/xlink" viewBox="0 0 100 100"><defs><style>.cls-1{fill:none;}.cls-2{clip-path:url(#clip-path);}.cls-3{fill:#1c3b6c;}.cls-4{fill:#fff;}.cls-5{fill:#003163;}</style><clipPath id="clip-path"><rect class="cls-1" x="-120" y="135" width="100" height="100" rx="10.37"/></clipPath></defs><rect class="cls-3" x="-0.17" y="-0.14" width="100" height="100" rx="10.37"/><rect class="cls-4" x="46.78" y="19.96" width="40.55" height="59.32" rx="4.06"/><rect class="cls-5" x="51.69" y="26.82" width="30.72" height="20.44" rx="2.11"/><rect class="cls-5" x="52.31" y="52.48" width="7.48" height="4.88" rx="0.51"/><rect class="cls-5" x="63.31" y="52.48" width="7.48" height="4.88" rx="0.51"/><rect class="cls-5" x="74.31" y="52.48" width="7.48" height="4.88" rx="0.51"/><rect class="cls-5" x="52.31" y="60.46" width="7.48" height="4.88" rx="0.51"/><rect class="cls-5" x="63.31" y="60.46" width="7.48" height="4.88" rx="0.51"/><rect class="cls-5" x="74.31" y="60.46" width="7.48" height="4.88" rx="0.51"/><rect class="cls-5" x="52.33" y="68.43" width="7.48" height="4.88" rx="0.51"/><rect class="cls-5" x="63.33" y="68.43" width="7.48" height="4.88" rx="0.51"/><rect class="cls-5" x="74.33" y="68.43" width="7.48" height="4.88" rx="0.51"/><path class="cls-4" d="M48.38,56.66a5.12,5.12,0,0,1-4.28,3.92,5.34,5.34,0,0,1-.69.05h-6c-.38,0-.5-.13-.46-.52.08-.7.17-1.41.25-2.11a.34.34,0,0,1,.37-.33h.62c.33,0,.46-.13.46-.46v-30a.6.6,0,0,0-.05-.3.84.84,0,0,0-.28-.2.46.46,0,0,0-.17,0H27a2.08,2.08,0,0,0-2.12,1.82,1.1,1.1,0,0,0,0,.26V55.9A1.75,1.75,0,0,0,26,57.54a.28.28,0,0,0,.29,0,4.93,4.93,0,0,0,1.12-1.16,16.74,16.74,0,0,0,1.64-2.73,2.34,2.34,0,0,0,.11-.66,16,16,0,0,1,1.3-4.59,5.41,5.41,0,0,1,1.6-2.1,2.84,2.84,0,0,1,2-.54,1.15,1.15,0,0,1,.76.44,2.91,2.91,0,0,1,.66,1.5,9.86,9.86,0,0,1,0,3,31.12,31.12,0,0,1-.84,3.83,11.11,11.11,0,0,0-.19,1.41c-.14,1.25-.29,2.5-.43,3.75s-.31,2.52-.43,3.78A10.33,10.33,0,0,1,33,65.8a21.1,21.1,0,0,1-3.2,6c-.25.32-.54.62-.79.94a.69.69,0,0,0-.14.34c0,.26,0,.51,0,.8h.34a1.27,1.27,0,0,1,1.26,1.25v3.4a1.27,1.27,0,0,1-1.25,1.25H15.51a1.26,1.26,0,0,1-1.24-1.24c0-1.13,0-2.27,0-3.4a1.26,1.26,0,0,1,1.1-1.23l.21,0L15.4,72.2c-.14-1.25-.28-2.5-.43-3.74s-.31-2.54-.47-3.8-.34-2.65-.54-4a50.6,50.6,0,0,0-1-5.73c-.07-.26-.22-.5-.29-.76a6.13,6.13,0,0,1-.21-.87,6,6,0,0,1,.19-2.85,4,4,0,0,1,1.15-1.68c.53-.48,1-1,1.52-1.52,1.35-1.4,2.69-2.81,4-4.2.8-.82,1.63-1.6,2.44-2.4a.36.36,0,0,0,.09-.24V29.29a5.13,5.13,0,0,1,4.44-5.15,5.32,5.32,0,0,1,.69,0H43.74a4.79,4.79,0,0,1,4.74,4.24.32.32,0,0,0,0,.09V56C48.47,56.2,48.43,56.43,48.38,56.66Zm-5.21.54c0,.37.09.46.46.44a2.07,2.07,0,0,0,1.9-2V28.77a2.06,2.06,0,0,0-2-2.1c-.27,0-.4.11-.4.41V57.2Z"/></svg>