<?xml version="1.0" encoding="utf-8"?>
<!-- Generator: Adobe Illustrator 26.2.0, SVG Export Plug-In . SVG Version: 6.00 Build 0)  -->
<svg version="1.1" id="Laag_1" xmlns="http://www.w3.org/2000/svg" xmlns:xlink="http://www.w3.org/1999/xlink" x="0px" y="0px"
	 viewBox="0 0 100 100" style="enable-background:new 0 0 100 100;" xml:space="preserve">
<style type="text/css">
	.st0{fill:#DA6E6E;}
	.st1{fill:#FFFFFF;}
</style>
<rect class="st0" width="100" height="100"/>
<g id="Deloox_logo">
	<circle id="DOT__x7C__small_1_" class="st1" cx="94.1" cy="57.3" r="1.2"/>
	<path id="X__x7C__Homemade__x7C__based_on_Vonique_1x1" class="st1" d="M90.3,44.9h-1.5c-1.7,1.7-3.8,3.8-6.1,6.1
		c-2.1-2.1-4.2-4.2-6.1-6.1h-1.5c1.8,1.8,4.2,4.2,6.8,6.8c-2.4,2.4-4.8,4.8-6.8,6.8h1.5c1.7-1.7,3.8-3.8,6.1-6.1
		c2.1,2.1,4.2,4.2,6.1,6.1h1.5c-1.8-1.8-4.2-4.2-6.8-6.8C85.9,49.4,88.3,47,90.3,44.9z"/>
	<path id="O__x7C__Vonique_43_Reg__x7C__outlines_1_" class="st1" d="M45.5,56.9c-1.4-1.4-2.1-3.2-2.1-5.2c0-2,0.7-3.8,2.1-5.2
		c1.4-1.4,3.2-2.2,5.2-2.2s3.8,0.7,5.2,2.2c1.4,1.4,2.2,3.2,2.2,5.2c0,2-0.7,3.8-2.2,5.2c-1.4,1.4-3.2,2.2-5.2,2.2
		S47,58.4,45.5,56.9z M46.3,47.3c-1.2,1.2-1.8,2.7-1.8,4.5s0.6,3.2,1.8,4.5c1.2,1.2,2.7,1.8,4.5,1.8s3.2-0.6,4.5-1.8
		c1.2-1.2,1.8-2.7,1.8-4.5s-0.6-3.2-1.8-4.5c-1.2-1.2-2.7-1.8-4.5-1.8S47.5,46.1,46.3,47.3z"/>
	<path id="O__x7C__Vonique_43_Reg__x7C__outlines" class="st1" d="M62.3,56.9c-1.4-1.4-2.1-3.2-2.1-5.2c0-2,0.7-3.8,2.1-5.2
		c1.4-1.4,3.2-2.2,5.2-2.2c2,0,3.8,0.7,5.2,2.2c1.4,1.4,2.2,3.2,2.2,5.2c0,2-0.7,3.8-2.2,5.2c-1.4,1.4-3.2,2.2-5.2,2.2
		C65.5,59.1,63.8,58.4,62.3,56.9z M63.1,47.3c-1.2,1.2-1.8,2.7-1.8,4.5s0.6,3.2,1.8,4.5c1.2,1.2,2.7,1.8,4.5,1.8s3.2-0.6,4.5-1.8
		c1.2-1.2,1.8-2.7,1.8-4.5s-0.6-3.2-1.8-4.5c-1.2-1.2-2.7-1.8-4.5-1.8S64.3,46.1,63.1,47.3z"/>
	<path id="L__x7C__Vonique_43_Reg__x7C__outlines" class="st1" d="M39.8,41.1h1.1v17.5h-1.1V41.1z"/>
	<path id="E__x7C__Vonique_43_Reg__x7C__outlines" class="st1" d="M29.9,44.4c1.9,0,3.6,0.6,5,1.9c1.4,1.3,2.2,2.9,2.4,4.7
		c0,0.3,0,0.5,0,0.7l0,0.2l0,0.2H23.6c0.1,1.7,0.7,3.1,1.9,4.2c1.2,1.1,2.7,1.7,4.3,1.7c1.3,0,2.4-0.4,3.5-1.1
		c1-0.7,1.8-1.6,2.3-2.7h1.1c-0.5,1.4-1.4,2.6-2.6,3.5c-1.3,0.9-2.7,1.4-4.2,1.4c-2,0-3.8-0.7-5.2-2.2c-1.4-1.4-2.1-3.2-2.1-5.2
		c0-2,0.7-3.8,2.1-5.2C26.1,45.1,27.8,44.4,29.9,44.4z M36.1,51.1c-0.2-1.6-0.9-2.9-2-4c-1.2-1.1-2.6-1.6-4.2-1.6
		c-1.6,0-3,0.5-4.2,1.6c-1.2,1.1-1.9,2.4-2,4H36.1z"/>
	<path id="D_x7C__Vonique_43_Reg__x7C__outlines" class="st1" d="M18.9,41.1H20v10.6c0,2-0.7,3.8-2.2,5.2c-1.4,1.4-3.2,2.1-5.2,2.1
		s-3.8-0.7-5.2-2.1c-1.4-1.4-2.1-3.2-2.1-5.2c0-2,0.7-3.8,2.1-5.2c1.4-1.4,3.2-2.2,5.2-2.2c1.3,0,2.5,0.3,3.7,1
		c1.1,0.6,2,1.5,2.6,2.6V41.1z M17.1,47.3c-1.2-1.2-2.7-1.8-4.5-1.8s-3.2,0.6-4.5,1.8C7,48.5,6.3,50,6.3,51.7S7,55,8.2,56.2
		c1.2,1.2,2.7,1.8,4.5,1.8s3.2-0.6,4.5-1.8c1.2-1.2,1.8-2.7,1.8-4.5S18.3,48.5,17.1,47.3z"/>
</g>
</svg>
