<svg width="100" height="100" viewBox="0 0 100 100" fill="none" xmlns="http://www.w3.org/2000/svg">
<g clip-path="url(#clip0_1921_30847)">
<path d="M10.37 2H89.63C94.2526 2 98 5.74738 98 10.37V89.63C98 94.2526 94.2526 98 89.63 98H10.37C5.74738 98 2 94.2526 2 89.63V10.37C2 5.74738 5.74738 2 10.37 2Z" fill="white" stroke="#00B8FF" stroke-width="4"/>
<path d="M46.8726 83.3178C46.6797 83.1249 46.4868 82.8677 46.2296 82.6749C45.1366 81.9676 44.365 81.0674 43.7864 79.7815C43.272 78.6242 43.272 77.5311 43.272 76.3738C43.272 72.2588 43.272 68.1439 43.272 64.0289C43.272 63.7717 43.272 63.4502 43.272 63.0645C43.9792 63.0645 44.5579 63.0645 45.1366 63.0645C48.7372 63.0645 52.3378 63.0645 55.9384 63.0645C57.16 63.0645 57.2243 63.0645 57.16 64.2861C57.16 70.3942 57.0957 76.5024 57.0314 82.6106C57.0314 82.8677 57.0314 83.0606 57.0314 83.3178C53.688 83.3178 50.2803 83.3178 46.8726 83.3178Z" fill="#00B8FF"/>
<path d="M57.16 43.0045C63.7825 42.9402 70.3408 42.8759 76.899 43.0045C79.7924 43.0688 82.1713 44.1618 83.5215 46.9266C83.7787 47.4409 83.9716 48.0839 83.9716 48.6626C84.0359 51.2987 83.9716 53.9349 83.9716 56.571C83.9716 56.6996 83.9073 56.8282 83.9073 57.0211C82.6857 57.0211 81.5283 57.0211 80.3067 57.0211C72.4626 57.0211 64.6184 57.0211 56.8385 56.9568C52.595 56.8925 49.0587 55.1565 46.3582 51.9417C45.2009 50.5915 44.3007 49.1127 43.7864 47.2481C43.3363 45.6406 43.272 44.0975 43.272 42.4901C43.272 34.003 43.272 25.5159 43.272 17.0287C43.272 16.7073 43.272 16.3858 43.272 16.1286C43.3363 16.0643 43.4006 16 43.4649 16C46.2939 16.0643 49.1229 15.9357 51.8877 16.2572C54.2667 16.5144 55.9384 18.1218 56.6456 20.4365C56.9671 21.5295 57.2243 22.6225 57.2886 23.7799C57.3529 29.8237 57.3529 35.8033 57.2886 41.8472C57.2243 42.2972 57.16 42.7473 57.16 43.0045Z" fill="#0078FF"/>
<path d="M36.7777 43.069C36.7777 47.6984 36.7777 52.3277 36.7777 56.8928C36.6491 56.8928 36.5205 56.957 36.4562 56.957C32.0197 56.957 27.5833 57.0213 23.1468 56.957C20.4464 56.8927 18.2603 55.864 17.0387 53.4207C16.46 52.3277 16.2028 51.0418 16.0742 49.7558C15.9457 47.8913 16.0099 46.0267 16.0742 44.1621C16.0742 43.1333 16.2671 42.9404 17.2959 42.9404C23.7255 42.9404 30.1552 42.9404 36.5848 42.9404C36.5848 43.0047 36.6491 43.069 36.7777 43.069Z" fill="#00B8FF"/>
</g>
<defs>
<clipPath id="clip0_1921_30847">
<rect width="100" height="100" fill="white"/>
</clipPath>
</defs>
</svg>
