<?xml version="1.0" encoding="utf-8"?>
<!-- Generator: Adobe Illustrator 27.9.0, SVG Export Plug-In . SVG Version: 6.00 Build 0)  -->
<svg version="1.1" id="Laag_1" xmlns="http://www.w3.org/2000/svg" xmlns:xlink="http://www.w3.org/1999/xlink" x="0px" y="0px"
	 viewBox="0 0 100 100" style="enable-background:new 0 0 100 100;" xml:space="preserve">
<style type="text/css">
	.st0{fill:#1A1A1A;}
	.st1{fill:#23C09C;}
	.st2{fill:#FFFFFF;}
</style>
<path class="st0" d="M90,100H10c-5.5,0-10-4.5-10-10V10C0,4.5,4.5,0,10,0h80c5.5,0,10,4.5,10,10v80C100,95.5,95.5,100,90,100z"/>
<g>
	<g>
		<path class="st1" d="M13.2,57.5l0.6-0.2c0.2-0.1,0.4-0.3,0.4-0.6v-7.3c0,0,0,0,0,0l7.4,7.9c0.2,0.2,0.4,0.2,0.6,0.2l0.6-0.2
			c0.2-0.1,0.4-0.3,0.4-0.6v-8.9c0-0.3-0.1-0.5-0.3-0.7l-4.1-4.4c-0.2-0.2-0.4-0.2-0.6-0.2l-0.6,0.2c-0.2,0.1-0.4,0.3-0.4,0.6l0,7.3
			c0,0,0,0,0,0l-7.4-7.9c-0.2-0.2-0.4-0.2-0.6-0.2l-0.6,0.2c-0.2,0.1-0.4,0.3-0.4,0.6v8.9c0,0.3,0.1,0.5,0.3,0.7l4.1,4.4
			C12.7,57.5,13,57.5,13.2,57.5z M18.6,44.4l3.3,3.5v7.7l-3.3-3.5V44.4z M9.6,44.4l3.3,3.5v7.7l-3.3-3.5V44.4z"/>
		<g>
			<g>
				<path class="st2" d="M51,44.3c-4.1,0-5.7,1.4-5.7,5.7c0,4.3,1.6,5.7,5.7,5.7c4.1,0,5.7-1.4,5.7-5.7C56.7,45.7,55.1,44.3,51,44.3
					z M51,54.5c-3.2,0-4.2-1.1-4.2-4.5c0-3.4,1-4.5,4.2-4.5c3.2,0,4.2,1.1,4.2,4.5C55.1,53.4,54.2,54.5,51,54.5z"/>
				<polygon class="st2" points="57.2,45.6 61.8,45.6 61.8,55.6 63.3,55.6 63.3,45.6 68,45.6 68,44.4 57.2,44.4 				"/>
				<path class="st2" d="M74.4,50.6l-4-6.2h-1.6l4.6,7c0.2,0.4,0.4,0.8,0.4,1.3v3h1.5v-3c0-0.5,0.1-0.9,0.4-1.3l4.6-7h-1.6
					L74.4,50.6z"/>
				<path class="st2" d="M87.4,44.4h-3.6h-0.7h-0.7h-0.7h-0.2V46v0.5v6.9V54v0.7v0.7v0.2h1.6h0.5h4c3.4,0,4.2-2.8,4.2-5.7
					C91.8,47.1,91,44.4,87.4,44.4z M87,54.4h-3.3c-0.6,0-0.7-0.2-0.7-0.8v-7.3c0-0.5,0.1-0.8,0.7-0.8h3.2c2.8,0,3.3,1.9,3.3,4.3
					C90.2,52.4,89.8,54.4,87,54.4z"/>
				<path class="st2" d="M41.2,44.4v9.3l-8.4-9.2c-0.2-0.2-0.4-0.3-0.7-0.2l-0.6,0.2c-0.3,0.1-0.4,0.3-0.4,0.6v10.4h1.5v-9.3
					l8.4,9.2c0.2,0.2,0.4,0.3,0.7,0.2l0.6-0.2c0.3-0.1,0.4-0.3,0.4-0.6V44.4H41.2z"/>
			</g>
		</g>
	</g>
</g>
</svg>
