<svg width="100" height="100" viewBox="0 0 100 100" fill="none" xmlns="http://www.w3.org/2000/svg">
<rect width="100" height="100" rx="10" fill="white"/>
<path d="M17.446 17.9863C17.9779 14.7948 20.1056 13.6645 23.0976 13.6645C28.8156 13.6645 34.5336 13.6645 40.2516 13.6645C42.6452 13.6645 45.1053 13.598 47.4324 12.9996C49.6265 12.8002 51.8206 13.2656 54.0148 13.2656C61.129 13.1991 68.1768 13.1326 75.2911 13.1326C76.6209 13.1326 77.9506 12.9996 79.2139 13.598C82.6713 14.7283 83.8016 17.2549 83.7351 20.7123C83.6687 27.1617 83.7352 33.6776 83.6687 40.127C83.6687 42.1216 83.8016 44.0498 84.3336 45.978C84.0676 47.5737 84.2006 49.2359 84.1341 50.8981C84.2006 57.6135 84.2671 64.3288 84.2671 71.0442C84.2671 72.5069 84.3335 73.9032 83.8016 75.2994C82.6048 79.0893 79.8123 80.1531 76.089 79.9536C71.5677 79.7542 71.5677 79.8871 72.2326 84.4749C72.6316 87.0679 72.8975 89.7275 73.3629 93.1184C70.3709 90.7248 67.8444 88.7301 65.3843 86.7355C63.6556 85.3392 61.7939 84.0759 60.3312 82.4802C57.9376 79.7542 55.1451 79.4882 51.9536 80.4191C49.427 80.1531 46.834 79.9536 44.3074 80.4855C37.5921 81.2169 30.8767 80.951 24.1614 80.8845C23.3635 80.8845 22.6986 80.552 21.9673 80.1531C18.5099 79.0893 17.1801 76.8287 17.2466 73.2383C17.446 67.9857 17.2466 62.7331 17.3131 57.414C17.3796 54.6215 17.1136 51.9619 16.3157 49.3024C16.4487 39.861 16.6482 30.4861 16.5817 21.0448C16.5817 19.9809 16.7812 18.9171 17.446 17.9863Z" fill="#46B3BF"/>
<path d="M79.2139 13.5979C74.2273 14.5288 69.1742 13.8639 64.1875 13.9969C60.5971 14.1298 56.9403 14.0633 53.3499 14.0633C51.8206 12.5341 53.2834 12.2682 54.2807 12.0687C56.2089 11.6698 58.137 11.3373 60.1317 11.0049C63.7886 10.34 67.5784 10.34 71.1688 9.40914C72.1661 9.14319 73.1635 9.40914 74.0278 9.94105C76.5544 10.074 78.2166 11.4038 79.2139 13.5979Z" fill="#E2C71F"/>
<path d="M74.0278 9.94114C67.4455 10.9385 60.8631 11.9358 54.2807 12.9331C53.5494 13.0661 52.951 13.0661 53.3499 14.0634C51.2888 14.1964 49.3606 13.6645 47.4989 12.9996C54.3472 11.005 61.1955 8.94381 68.0439 7.08213C70.6369 6.41725 72.7646 7.41458 74.0278 9.94114Z" fill="#31AC69"/>
<path d="M83.8017 75.3659C82.8708 70.5787 83.5357 65.725 83.4027 60.9378C83.2697 57.281 83.4027 53.6906 83.3362 50.0337C84.2671 48.8369 84.799 49.3023 84.932 50.4991C85.3309 54.0895 86.9931 57.4139 86.8601 61.1373C86.7272 64.1958 88.6553 67.0548 87.4585 70.1797C87.1261 72.4404 86.5277 74.6345 83.8017 75.3659Z" fill="#E2C61F"/>
<path d="M21.9008 80.153C28.0177 79.4881 34.1347 79.9535 40.2516 79.8206C41.6479 79.8206 43.1106 80.02 44.4404 79.4216C44.9723 79.5546 45.6372 79.4216 45.9031 79.9535C46.1691 80.5519 45.6372 80.9509 45.1718 81.2168C43.7755 82.0147 42.1798 81.9482 40.717 82.4801C40.3846 82.6131 40.0521 82.6796 39.6532 82.6796C36.7942 82.6796 34.0682 83.278 31.2756 83.8764C29.6799 84.2753 28.0177 84.1423 26.422 83.8764C24.4938 83.2115 22.3662 82.7461 21.9008 80.153Z" fill="#E0C822"/>
<path d="M87.4585 70.1133C86.4612 63.8634 85.4639 57.547 84.4665 51.297C84.3336 50.6321 84.7325 49.5683 83.3362 50.0337C83.2033 48.571 83.6687 47.3077 84.4001 46.0444C86.0623 51.8289 87.791 57.6134 89.4532 63.4644C90.2511 66.0575 90.0516 68.4511 87.4585 70.1133Z" fill="#33AC6D"/>
<path d="M13.4567 22.7069C14.0551 20.9117 14.4541 18.9835 16.8476 18.5846C17.6455 26.1643 16.9141 33.6775 17.2466 41.5232C14.587 39.728 12.5259 28.2919 13.4567 22.7069Z" fill="#EAC41A"/>
<path d="M14.3211 42.1216C13.0578 37.8663 11.728 33.5446 10.4647 29.2228C9.93284 27.3611 9.86635 25.4995 11.5951 24.1032C13.6562 23.5048 13.7227 24.9011 13.7892 26.2973C13.9886 31.0845 15.119 35.8052 15.7173 40.5259C15.8503 41.5232 16.5817 43.3184 14.3211 42.1216Z" fill="#2DAE6D"/>
<path d="M14.3211 42.1217C15.1854 42.4541 15.5179 42.1882 15.4514 41.2573C14.9195 36.2042 13.5897 31.2176 13.4567 26.0314C13.3902 24.9011 12.7918 24.2363 11.595 24.1033C11.9275 23.3054 12.5924 22.9065 13.3902 22.707C14.5205 25.6325 13.7892 28.8905 14.7865 31.816C15.7838 34.675 14.9195 37.9329 16.7811 41.5898C16.7811 33.2787 16.7811 25.965 16.7811 18.6512C16.9806 18.4517 17.2466 18.2523 17.446 17.9863C17.5125 27.9596 17.6455 37.8664 16.7811 47.7732C16.7147 48.3051 16.4487 48.7705 16.2492 49.3024C15.6508 46.9089 14.9859 44.5153 14.3211 42.1217Z" fill="#49AC5E"/>
<path d="M26.4885 83.8764C28.0178 82.9455 29.7465 83.3445 31.4087 83.2115C34.3342 82.7461 37.1932 82.4801 40.1187 81.9482C40.3181 81.8817 40.5176 81.8817 40.7171 81.8817C41.9139 81.7487 43.3766 80.7514 44.1745 82.6131C40.1852 83.8099 36.1959 85.0732 32.2065 86.2035C29.7465 86.8019 27.8183 86.004 26.4885 83.8764Z" fill="#32AD6E"/>
<path d="M44.108 82.6132C43.1771 81.4829 41.7809 82.2142 40.6506 81.8818C42.0468 81.4829 43.5096 81.1504 44.8394 80.552C46.1026 79.9536 44.3739 79.9536 44.5069 79.4882C47.1 79.0228 49.6265 79.0228 51.9536 80.419C49.2941 81.0174 46.834 82.4137 44.108 82.6132Z" fill="#58AC59"/>
<path d="M67.9108 32.7467C67.9108 30.6855 67.9108 28.6244 67.9108 26.5633C67.9108 25.6324 67.9773 24.7681 69.2406 24.7681C70.5039 24.7681 70.7034 25.4994 70.7034 26.4968C70.7034 32.4807 70.7034 38.4647 70.7034 44.3822C70.7034 45.3795 70.4374 46.1109 69.1741 46.0444C67.8444 45.9779 67.8444 45.1136 67.9108 44.1827C68.1103 40.5259 66.2486 37.4674 64.7194 34.143C64.7194 37.3344 64.7194 40.5923 64.7194 43.7838C64.7194 44.8476 64.9853 46.1774 63.1902 46.0444C61.5944 45.9114 61.9934 44.7146 61.9934 43.7838C61.9934 38.1323 61.9934 32.4807 61.9934 26.8957C61.9934 25.9649 61.7939 24.8346 63.3231 24.7016C64.5864 24.6351 65.0518 25.3665 65.3843 26.4303C65.9827 28.5579 66.6476 30.6191 67.246 32.7467C67.4454 32.7467 67.6449 32.7467 67.9108 32.7467Z" fill="#F2FDFD"/>
<path d="M62.1929 49.4354C64.121 48.1056 66.2487 48.6375 68.3098 48.7705C69.7726 48.9034 70.6369 50.0338 70.7034 51.4965C70.7699 56.3502 70.8364 61.2038 70.7034 66.0575C70.5704 68.983 66.0492 70.3793 62.9907 68.5176C62.4588 68.1851 62.0599 67.5867 61.5945 67.1213C60.5307 66.257 60.4642 65.0602 60.4642 63.8634C60.4642 60.4725 60.4642 57.0815 60.4642 53.6906C60.3312 52.0284 60.7966 50.5657 62.1929 49.4354Z" fill="#EDFCFD"/>
<path d="M41.3819 26.0978C43.6425 23.6378 46.568 24.3691 49.0946 25.1005C51.2887 25.7654 50.6903 28.2255 50.6903 30.0207C50.6903 33.5446 50.6903 37.0685 50.6903 40.6588C50.6903 42.587 51.1557 45.1136 48.6292 45.6455C46.0361 46.2439 43.1106 47.1082 41.1824 43.9833C40.983 38.0658 40.7835 32.0818 41.3819 26.0978Z" fill="#EFFEFE"/>
<path d="M38.7224 44.7147C36.5283 46.8423 33.7358 45.9115 31.1427 45.978C29.8794 46.0445 30.0124 44.8477 30.0124 43.9833C30.0124 38.2653 30.0124 32.5473 29.9459 26.8293C29.9459 25.3 30.4113 24.5687 32.0071 24.7016C34.4007 24.9011 37.1932 23.8373 38.7224 26.8293C39.1878 32.8132 39.3208 38.7307 38.7224 44.7147Z" fill="#F4FDFC"/>
<path d="M50.6903 49.3688C52.9509 47.9061 55.411 48.9034 57.7381 48.7704C59.8657 49.5683 60.2647 51.3635 60.2647 53.3581C60.2647 56.882 60.3312 60.4724 60.2647 63.9963C60.1982 68.451 59.0014 69.6478 54.5467 69.5813C53.2834 69.5813 51.8871 70.0468 50.6903 69.1824L50.7568 69.2489C50.1584 68.584 49.7595 67.7862 49.693 66.9218C49.56 61.8687 49.56 56.882 49.693 51.8289C49.7595 50.898 50.2249 50.1002 50.6903 49.3688Z" fill="#F1FCFD"/>
<path d="M48.5627 69.249C46.834 69.4484 45.7702 68.983 46.0362 66.9219C46.1691 65.7251 46.0362 64.5283 46.0362 63.265C46.0362 62.2677 45.9032 61.5363 44.6399 61.5363C43.3766 61.5363 42.8447 62.1347 42.8447 63.3315C42.8447 64.7942 42.8447 66.1905 42.8447 67.6532C42.8447 68.5176 42.5787 69.116 41.5149 69.1825C40.5176 69.1825 40.1187 68.6506 40.1187 67.7862C40.1187 62.4006 40.0522 56.9486 40.2516 51.563C40.3181 49.7013 41.5814 48.6375 43.6426 48.704C44.8394 48.7705 46.0362 48.7705 47.2994 48.7705C48.7622 49.4354 49.6265 50.5657 49.6265 52.0949C49.826 57.0151 49.7595 62.0017 49.6265 66.9219C49.56 67.7862 49.2276 68.5841 48.5627 69.249Z" fill="#F3FDFD"/>
<path d="M52.8844 35.1403C52.8844 33.0127 52.8844 30.9516 52.8844 28.8239C52.8844 25.1006 55.8099 23.1724 59.2673 24.7681C59.8657 25.0341 60.0652 25.433 60.0652 26.0314C60.0652 27.0952 59.4003 27.3612 58.536 27.2947C56.8737 27.2282 55.6105 27.4942 55.9429 29.5553C56.2089 31.151 54.8126 33.6776 58.2035 33.5446C58.9349 33.5446 59.4668 33.9435 59.4668 34.7414C59.5333 35.7387 59.0014 36.0712 58.0705 36.1377C54.0147 36.4036 56.4748 39.4621 56.0094 41.1908C55.4775 42.986 56.7408 43.4514 58.3365 43.3184C59.2673 43.2519 60.1317 43.4514 60.0652 44.7147C59.9987 46.0445 59.0014 45.9115 58.137 45.9115C57.1397 45.9115 56.1424 45.845 55.145 45.9115C53.4163 46.0445 52.8179 45.3131 52.8179 43.5844C52.9509 40.9248 52.8844 37.9993 52.8844 35.1403Z" fill="#EDFBFC"/>
<path d="M30.1454 49.3689C31.7411 48.1056 32.7384 48.2386 32.8049 50.4992C32.8714 52.5603 32.8049 54.6215 33.4033 56.8821C34.0682 54.6215 34.7996 52.4274 35.398 50.1667C35.6639 49.1694 36.1294 48.5045 37.1932 48.7705C38.6559 49.1029 37.9246 50.1667 37.6586 50.8316C35.265 56.2172 35.531 61.4033 38.1905 66.6559C38.5229 67.3208 39.5868 68.5176 38.0575 69.116C36.5948 69.6479 36.1958 68.4511 35.7969 67.3208C34.9991 65.0602 34.2012 62.8661 32.8714 60.7384C32.8714 62.999 32.8714 65.2597 32.8714 67.5203C32.8714 68.3181 32.8049 69.0495 31.7411 69.1825C30.2784 69.3155 30.0789 68.5176 30.2784 67.3208C31.1427 66.9884 31.2757 66.257 31.2757 65.4591C31.3422 60.7384 31.3422 56.0842 31.2757 51.3635C31.0762 50.4992 30.7438 49.9008 30.1454 49.3689Z" fill="#EBFCFD"/>
<path d="M50.6903 69.1824C60.5971 69.3154 59.3338 69.5814 59.4003 60.4724C59.4003 58.0788 59.3338 55.6188 59.4003 53.2252C59.4668 51.43 59.0679 49.9672 57.7381 48.7704C59.2673 48.571 60.4641 50.6321 62.1263 49.4353C60.5971 55.2863 61.7274 61.2703 61.4615 67.2543C58.9349 69.9138 55.8099 70.3792 52.3525 69.9803C51.7541 69.9138 51.0892 69.8473 50.6903 69.1824Z" fill="#50ADB5"/>
<path d="M48.5627 69.2489C48.6292 63.4644 48.6292 57.6799 48.7621 51.8954C48.7621 50.4992 47.8978 49.7013 47.2329 48.7704C48.4962 48.3715 49.3605 50.3662 50.6903 49.3688C50.7568 55.9512 50.7568 62.6001 50.8233 69.1824C50.0254 68.9165 49.2941 68.9165 48.5627 69.2489Z" fill="#4EABB5"/>
<path d="M30.1453 49.3689C31.2092 49.3689 32.0735 49.5684 32.0735 50.9646C32.0735 56.3502 32.14 61.6693 32.007 67.0549C31.9405 69.7144 30.8102 67.7197 30.0789 67.3208C30.1453 61.3368 30.1453 55.3529 30.1453 49.3689Z" fill="#F1FCFB"/>
<path d="M41.3819 26.0979C41.3819 32.0819 41.3154 38.0658 41.2489 44.0498C40.3846 38.0658 40.1851 32.0819 41.3819 26.0979Z" fill="#61B5BF"/>
<path d="M38.7224 44.7147C38.7224 38.7307 38.7889 32.7467 38.7889 26.8292C39.7862 32.8132 39.9192 38.7307 38.7224 44.7147Z" fill="#61B5BF"/>
<path d="M40.0522 81.9482C37.2596 82.9456 34.3341 83.544 31.3422 83.2115C34.2012 82.2807 37.0602 81.6823 40.0522 81.9482Z" fill="#58AC59"/>
<path d="M64.4535 59.0762C64.4535 57.0816 64.4535 55.0869 64.4535 53.0923C64.4535 51.8955 64.8524 51.2306 66.1822 51.2306C67.4454 51.2306 67.9773 51.7625 67.9773 53.0258C67.9773 57.0151 67.9773 61.0044 67.9773 64.9272C67.9773 66.257 67.1795 66.5895 66.0492 66.5895C64.7194 66.5895 64.387 65.9246 64.387 64.6613C64.4535 62.7996 64.387 60.9379 64.4535 59.0762C64.387 59.0762 64.387 59.0762 64.4535 59.0762Z" fill="#48AFB9"/>
<path d="M47.8978 35.2733C47.8978 37.3345 47.8978 39.4621 47.8978 41.5232C47.8978 42.986 47.0335 43.3849 45.7702 43.3849C44.4404 43.3849 44.0415 42.72 44.0415 41.5232C44.0415 37.4674 44.0415 33.3451 44.0415 29.2893C44.0415 27.8931 44.6399 27.2947 46.0362 27.2947C47.4989 27.2947 47.9643 28.0261 47.9643 29.3558C47.8978 31.3505 47.8978 33.2786 47.8978 35.2733Z" fill="#4DAFBC"/>
<path d="M32.8714 35.4728C32.8714 33.3452 32.8714 31.2841 32.8714 29.1564C32.8714 28.2256 32.9379 27.3612 34.2012 27.2947C35.398 27.2283 36.1293 27.6937 36.1293 28.957C36.1293 33.2787 36.1293 37.6005 36.1293 41.9222C36.1293 43.0525 35.4645 43.385 34.4006 43.385C33.2703 43.385 32.8714 42.7866 32.8714 41.7228C32.8714 39.6616 32.8714 37.6005 32.8714 35.4728Z" fill="#4DAFBD"/>
<path d="M56.7408 59.2092C56.7408 61.0044 56.7408 62.7331 56.7408 64.5283C56.7408 65.5921 56.6743 66.523 55.2781 66.5895C53.9483 66.6559 53.5494 65.8581 53.5494 64.7278C53.5494 60.7385 53.5494 56.8156 53.5494 52.8263C53.5494 51.7625 54.0148 51.2306 55.1451 51.2306C56.2754 51.2971 56.6743 51.8955 56.6743 52.9593C56.6743 55.0204 56.6743 57.1481 56.7408 59.2092Z" fill="#4FB2BE"/>
<path d="M46.0361 55.4193C46.0361 56.2171 46.0361 56.9485 46.0361 57.7464C46.0361 58.6107 45.7037 59.2091 44.7064 59.2091C43.709 59.2091 42.9112 59.0097 42.8447 57.8794C42.7782 56.4831 42.7782 55.0203 42.7782 53.6241C42.7782 52.4938 42.7782 51.3635 44.3739 51.297C45.9697 51.2305 46.0361 52.3608 46.0361 53.4911C46.0361 54.0895 46.0361 54.7544 46.0361 55.4193Z" fill="#54B1BC"/>
</svg>
