<?xml version="1.0" encoding="utf-8"?>
<!-- Generator: Adobe Illustrator 25.4.0, SVG Export Plug-In . SVG Version: 6.00 Build 0)  -->
<svg version="1.1" id="Laag_1" xmlns="http://www.w3.org/2000/svg" xmlns:xlink="http://www.w3.org/1999/xlink" x="0px" y="0px"
	 viewBox="0 0 100 100" style="enable-background:new 0 0 100 100;" xml:space="preserve">
<style type="text/css">
	.st0{fill:#1B1D74;}
	.st1{fill:#FFFFFF;}
</style>
<path class="st0" d="M10.4,0h79.3C95.4,0,100,4.6,100,10.4v79.3c0,5.7-4.6,10.4-10.4,10.4H10.4C4.6,100,0,95.4,0,89.6V10.4
	C0,4.6,4.6,0,10.4,0z"/>
<path class="st1" d="M34.4,38.2L28,54.3l-2.6-13.7c-0.2-1.4-1.4-2.4-2.8-2.4H12.1L12,38.9c2.1,0.4,4.1,1.1,6.1,2
	c0.8,0.4,1.4,1.2,1.5,2.1l4.9,18.9h6.5l10-23.7L34.4,38.2z M43.5,38.2l-5.1,23.7h6.1l5.1-23.7L43.5,38.2z M78.7,44.6l1.9,8.9h-5.1
	L78.7,44.6z M77.8,38.2c-1.1,0-2.2,0.7-2.6,1.7l-9.2,22h6.4l1.3-3.5h7.9l0.7,3.5H88l-5-23.7L77.8,38.2z M51.3,45.6
	c0,3.4,3,5.3,5.4,6.5s3.2,1.9,3.2,3c0,1.6-1.9,2.3-3.7,2.3c-2.2,0-4.4-0.5-6.3-1.5L48.8,61c2.2,0.8,4.5,1.3,6.8,1.3
	c6.5,0,10.7-3.2,10.7-8.1c0-6.3-8.7-6.6-8.6-9.4c0-0.8,0.8-1.8,2.6-2c2.1-0.2,4.2,0.2,6.1,1.1l1.1-5c-1.8-0.7-3.8-1-5.8-1
	C55.6,37.7,51.3,41,51.3,45.6"/>
</svg>
