<?xml version="1.0" encoding="utf-8"?>
<!-- Generator: Adobe Illustrator 28.1.0, SVG Export Plug-In . SVG Version: 6.00 Build 0)  -->
<svg version="1.1" id="Laag_1" xmlns="http://www.w3.org/2000/svg" xmlns:xlink="http://www.w3.org/1999/xlink" x="0px" y="0px"
	 viewBox="0 0 100 100" style="enable-background:new 0 0 100 100;" xml:space="preserve">
<style type="text/css">
	.st0{fill:#BE0E3F;}
	.st1{fill:#FFFFFF;}
	.st2{fill:#E3E3E3;}
	.st3{fill:#E67345;}
	.st4{fill:#81B19A;}
	.st5{enable-background:new    ;}
	.st6{fill:#3C3C3B;}
	.st7{fill:#DDB039;}
</style>
<g>
	<path class="st0" d="M23.62,23.05h48.2c0,0,22.99-0.86,27.18,20.14V10.1c0-5-4-9-9-9H10c-5,0-9,4-9,9V90
		c0,0.28,0.02,0.56,0.04,0.84V50.06C1.04,50.06-1.01,27.15,23.62,23.05z"/>
	<path class="st0" d="M70.22,75.71H26.75c0,0-18.77-1.16-24.64,18.65C3.64,97.13,6.58,99,10,99h80c2.4,0,4.7-0.9,6.4-2.6
		c1.7-1.7,2.6-4,2.6-6.4V55.77C97.21,63.58,90.96,74.41,70.22,75.71z"/>
	<path class="st0" d="M90,0H10C4.5,0,0,4.5,0,10v0.1c0-5.5,4.5-10,10-10h80c5.5,0,10,4.5,10,10V10C100,4.5,95.5,0,90,0z"/>
	<path class="st1" d="M26.75,75.71h43.47C90.96,74.41,97.21,63.58,99,55.77V43.19c-4.2-21-27.18-20.14-27.18-20.14h-48.2
		C-1.01,27.15,1.04,50.06,1.04,50.06v40.78c0.12,1.27,0.49,2.46,1.07,3.51C7.98,74.55,26.75,75.71,26.75,75.71z"/>
	<path class="st2" d="M90,0.1H10c-5.5,0-10,4.5-10,10V90c0,1.58,0.38,3.07,1.04,4.41v-3.57C1.02,90.56,1,90.28,1,90V10.1
		c0-5,4-9,9-9h80c5,0,9,4,9,9v33.09c0.28,1.4,0.48,2.89,0.58,4.49c0,0,0.47,3.53-0.58,8.08V90c0,2.4-0.9,4.7-2.6,6.4
		c-1.7,1.7-4,2.6-6.4,2.6H10c-3.42,0-6.36-1.87-7.89-4.65c-0.12,0.42-0.24,0.85-0.35,1.29C3.57,98.27,6.59,100,10,100h80
		c5.5,0,10-4.5,10-10V10.1C100,4.6,95.5,0.1,90,0.1z"/>
	<path class="st2" d="M99.58,47.68c-0.1-1.6-0.3-3.09-0.58-4.49v12.58C100.04,51.21,99.58,47.68,99.58,47.68z"/>
	<path class="st2" d="M1.04,90.84v3.57c0.21,0.43,0.45,0.85,0.72,1.24c0.11-0.44,0.22-0.87,0.35-1.29
		C1.53,93.3,1.16,92.11,1.04,90.84z"/>
</g>
<g class="st5">
	<path class="st0" d="M20.37,46.42c-0.24-0.44-0.58-0.78-1.03-1.01c-0.45-0.23-0.98-0.35-1.58-0.35c-1.05,0-1.89,0.34-2.52,1.03
		c-0.63,0.69-0.95,1.61-0.95,2.76c0,1.22,0.33,2.18,0.99,2.87c0.66,0.69,1.57,1.03,2.74,1.03c0.8,0,1.47-0.2,2.02-0.61
		c0.55-0.4,0.95-0.98,1.2-1.74h-4.11v-2.39h7.04v3.01c-0.24,0.81-0.65,1.56-1.22,2.25c-0.57,0.69-1.3,1.26-2.19,1.69
		c-0.88,0.43-1.88,0.64-2.99,0.64c-1.31,0-2.48-0.29-3.51-0.86c-1.03-0.57-1.83-1.37-2.41-2.4c-0.57-1.02-0.86-2.19-0.86-3.5
		c0-1.31,0.29-2.48,0.86-3.51s1.37-1.83,2.4-2.41c1.02-0.57,2.19-0.86,3.5-0.86c1.59,0,2.93,0.39,4.02,1.16
		c1.09,0.77,1.81,1.84,2.17,3.2H20.37z"/>
	<path class="st0" d="M26.22,43.34c-0.36-0.33-0.54-0.75-0.54-1.24c0-0.51,0.18-0.92,0.54-1.26c0.36-0.33,0.82-0.5,1.39-0.5
		c0.56,0,1.01,0.17,1.37,0.5c0.36,0.33,0.54,0.75,0.54,1.26c0,0.49-0.18,0.91-0.54,1.24c-0.36,0.33-0.82,0.5-1.37,0.5
		C27.04,43.84,26.58,43.68,26.22,43.34z M29.22,44.94v10.57h-3.24V44.94H29.22z"/>
	<path class="st0" d="M36.87,47.63h-1.74v7.88h-3.24v-7.88h-1.17v-2.69h1.17v-0.3c0-1.3,0.37-2.29,1.12-2.96
		c0.74-0.68,1.84-1.01,3.28-1.01c0.24,0,0.42,0.01,0.53,0.02v2.75c-0.62-0.04-1.05,0.05-1.31,0.26s-0.38,0.6-0.38,1.16v0.09h1.74
		V47.63z"/>
	<path class="st0" d="M44.27,52.76v2.75h-1.65c-1.17,0-2.09-0.29-2.75-0.86c-0.66-0.57-0.98-1.51-0.98-2.81v-4.2h-1.29v-2.69h1.29
		v-2.58h3.24v2.58h2.12v2.69h-2.12v4.24c0,0.32,0.08,0.54,0.23,0.68c0.15,0.14,0.4,0.21,0.76,0.21H44.27z"/>
	<path class="st6" d="M46.1,47.35c0.45-0.82,1.07-1.45,1.88-1.89c0.8-0.44,1.72-0.66,2.75-0.66c1.33,0,2.43,0.35,3.32,1.04
		c0.89,0.69,1.47,1.67,1.75,2.94h-3.45c-0.29-0.81-0.85-1.21-1.68-1.21c-0.59,0-1.07,0.23-1.42,0.69c-0.35,0.46-0.53,1.12-0.53,1.98
		c0,0.86,0.18,1.52,0.53,1.98c0.35,0.46,0.83,0.69,1.42,0.69c0.83,0,1.39-0.4,1.68-1.21h3.45c-0.28,1.24-0.86,2.21-1.76,2.92
		c-0.9,0.71-2,1.06-3.31,1.06c-1.04,0-1.95-0.22-2.75-0.66c-0.8-0.44-1.43-1.07-1.88-1.89c-0.45-0.82-0.67-1.78-0.67-2.88
		S45.65,48.17,46.1,47.35z"/>
	<path class="st6" d="M57.5,47.35c0.41-0.82,0.97-1.45,1.68-1.89c0.71-0.44,1.5-0.66,2.37-0.66c0.74,0,1.4,0.15,1.96,0.45
		c0.56,0.3,0.99,0.7,1.3,1.19v-1.5h3.24v10.57H64.8v-1.5c-0.32,0.49-0.76,0.89-1.32,1.19c-0.56,0.3-1.22,0.45-1.96,0.45
		c-0.86,0-1.64-0.22-2.35-0.67c-0.71-0.45-1.27-1.09-1.68-1.91c-0.41-0.83-0.62-1.78-0.62-2.87C56.88,49.12,57.09,48.17,57.5,47.35z
		 M64.13,48.31c-0.45-0.47-0.99-0.7-1.64-0.7c-0.64,0-1.19,0.23-1.64,0.69c-0.45,0.46-0.67,1.1-0.67,1.9s0.22,1.45,0.67,1.92
		c0.45,0.47,0.99,0.71,1.64,0.71c0.64,0,1.19-0.23,1.64-0.7c0.45-0.47,0.67-1.1,0.67-1.91S64.57,48.78,64.13,48.31z"/>
	<path class="st6" d="M75.04,45.33c0.57-0.33,1.2-0.5,1.89-0.5v3.43h-0.89c-0.81,0-1.41,0.17-1.82,0.52
		c-0.4,0.35-0.61,0.96-0.61,1.83v4.9h-3.24V44.94h3.24v1.76C74,46.12,74.47,45.66,75.04,45.33z"/>
	<path class="st6" d="M78.46,47.35c0.41-0.82,0.97-1.45,1.68-1.89c0.71-0.44,1.5-0.66,2.37-0.66c0.69,0,1.33,0.15,1.9,0.44
		c0.57,0.29,1.03,0.68,1.35,1.17v-4.9H89v14.01h-3.24v-1.52c-0.3,0.51-0.74,0.91-1.3,1.21c-0.56,0.3-1.22,0.45-1.96,0.45
		c-0.87,0-1.66-0.22-2.37-0.67c-0.71-0.45-1.27-1.09-1.68-1.91c-0.41-0.83-0.62-1.78-0.62-2.87C77.85,49.12,78.05,48.17,78.46,47.35
		z M85.09,48.31c-0.45-0.47-0.99-0.7-1.64-0.7c-0.64,0-1.19,0.23-1.64,0.69c-0.45,0.46-0.67,1.1-0.67,1.9s0.22,1.45,0.67,1.92
		c0.45,0.47,0.99,0.71,1.64,0.71c0.64,0,1.19-0.23,1.64-0.7c0.45-0.47,0.67-1.1,0.67-1.91S85.54,48.78,85.09,48.31z"/>
</g>
</svg>
