<?xml version="1.0" encoding="utf-8"?>
<!-- Generator: Adobe Illustrator 28.3.0, SVG Export Plug-In . SVG Version: 6.00 Build 0)  -->
<svg version="1.1" id="Laag_1" xmlns="http://www.w3.org/2000/svg" xmlns:xlink="http://www.w3.org/1999/xlink" x="0px" y="0px"
	 viewBox="0 0 100 100" style="enable-background:new 0 0 100 100;" xml:space="preserve">
<style type="text/css">
	.st0{fill:#5A78FF;}
	.st1{fill:#FFFFFF;}
</style>
<g>
	<path class="st0" d="M90,100H10c-5.5,0-10-4.5-10-10V10C0,4.5,4.5,0,10,0h80c5.5,0,10,4.5,10,10v80C100,95.5,95.5,100,90,100z"/>
</g>
<g>
	<path class="st1" d="M49,42c9.3-4.9,23.1-5.3,33.7,0.3l0.1,20.6c-1-0.5-2.2-1.1-3.2-1.6c-2.3-1-4.8-1.6-7.3-2.1
		c-2.6-0.4-5.1-0.6-7.7-0.6c-2.6,0-5.2,0.3-7.8,0.9c-2.4,0.5-4.7,1.2-7.1,1.7c-0.4,0.1-0.7,0.2-0.7,0.2c0,0.1,0-0.9,0-1.3
		c0-4.7,0-9.4,0-14.1c0-1.1,0-2.1,0-3.2C49,42.7,49,42.3,49,42z"/>
	<path class="st1" d="M67,69.1c-1-2.4-2-4.9-3.1-7.6c1.7-0.2,3.2-0.1,4.8,0.2c0.4,0.8,0.7,1.7,1.1,2.6c0.4,1.1,0.9,2.1,1.3,3.2
		c1,2.6,0.6,4.9-1,7.1c-0.5,0.7-1.2,1.2-2,1.5c-1.9,0.8-3.8,1.7-5.8,2.5c-4.1,1.7-8.1,3.4-12.2,5c-1.2,0.5-2.4,1-3.6,1.5
		c-3.3,1.4-7.4-0.5-8.7-3.7c-2.2-5.4-4.4-10.8-6.6-16.1c-1.6-3.8-3.1-7.6-4.7-11.4c-1.5-3.7-3-7.4-4.5-11c-1.4-3.3-2.8-6.6-4.1-9.9
		c-0.4-1-0.8-2-0.7-3.1c0.2-2.6,1.2-4.7,3.6-5.8c2.2-1,4.4-1.9,6.6-2.8c3.7-1.5,7.3-3,11-4.5c1.3-0.5,2.5-1.1,3.8-1.5
		c3.9-1.5,7.4,0.6,8.6,3.3c0.5,1.2,1,2.5,1.6,3.7c0.5,1.1,0.9,2.2,1.4,3.3l0.2,0.5c-2.3,0.8-4,1.8-4,1.8s-0.2-0.5-0.3-0.7
		c-0.8-1.9-1.5-3.8-2.3-5.7c-0.1-0.3-0.3-0.6-0.4-0.9c-0.5-1.3-1.9-1.8-3.2-1.2c-2.3,0.9-4.5,1.8-6.8,2.8c-4.4,1.8-8.8,3.6-13.1,5.4
		c-0.4,0.2-0.7,0.3-1.1,0.5c-0.9,0.5-1.3,1.5-1.1,2.4c0.3,1,0.7,2,1.2,3c1.9,4.7,3.9,9.5,5.8,14.2c2.2,5.3,4.4,10.6,6.5,15.9
		c1.8,4.4,3.7,8.9,5.5,13.3c0.4,0.9,0.7,1.7,1.1,2.5c0.1,0.1,0.1,0.2,0.2,0.4c0.6,1.2,1.6,1.8,3.1,1.2c1.8-0.7,3.6-1.5,5.4-2.2
		c2.9-1.2,5.7-2.4,8.6-3.5c2.1-0.9,4.1-1.7,6.2-2.5c0.4-0.1,0.7-0.3,1-0.5C67.2,71.3,67.5,70.1,67,69.1z"/>
	<path class="st1" d="M46.3,56.5c-2.5-5.8-4.9-11.7-7.4-17.6c4.3-4.6,9.3-8,15.1-10.4c5.2-2.2,13.4-3.3,16.8-2.5
		c1.3,3.2,2.7,6.5,4.1,9.9c0,0-0.7-0.1-1-0.2c-3.6-0.5-7.2-0.6-10.8-0.5c-1.1,0-3.2,0.3-3.2,0.3c-1.3,0.2-2.6,0.4-3.9,0.7
		c-2.6,0.6-5.2,1.5-7.6,2.7c-0.6,0.3-1.2,0.5-1.9,0.8C46.4,45.3,46.5,50.9,46.3,56.5z"/>
</g>
</svg>
