<?xml version="1.0" encoding="UTF-8"?>
<svg id="Laag_1" data-name="Laag 1" xmlns="http://www.w3.org/2000/svg" version="1.1" viewBox="0 0 100 100">
  <defs>
    <style>
      .cls-1 {
        fill: #009540;
      }

      .cls-1, .cls-2, .cls-3 {
        stroke-width: 0px;
      }

      .cls-2 {
        fill: #e5007e;
      }

      .cls-3 {
        fill: #faea25;
      }
    </style>
  </defs>
  <path class="cls-3" d="M90,100H10c-5.5,0-10-4.5-10-10V10C0,4.5,4.5,0,10,0h80c5.5,0,10,4.5,10,10v80c0,5.5-4.5,10-10,10Z"/>
  <g>
    <path class="cls-1" d="M19.3,39.9c0-.7-.5-1.1-1.3-1.1h-1.8c0,0-.1,0-.1.1l-.5,2.7c0,0,0,.1.1.1h1.8c1,0,1.8-.7,1.8-1.8M18.1,49.2c-.2,0-.2,0-.3-.2l-1.2-4.6h-1.5c0,0-.1,0-.1.1l-.8,4.5c0,.1,0,.2-.2.2h-2.9c0,0-.2,0-.2-.2l2.3-12.9c0-.1,0-.2.2-.2h5.2c2.6,0,4,1.4,4,3.4s-1.2,3.8-2.9,4.6l1.4,5.1c0,.1,0,.2-.2.2h-2.9Z"/>
    <path class="cls-1" d="M27.1,46c.3-.6.6-2.2.6-2.8s-.3-1.2-1-1.2-1,.3-1.3.9c-.3.6-.6,2.2-.6,2.8s.3,1.2,1,1.2,1-.3,1.3-.9M21.7,45.9c0-1.1.3-2.7.8-3.8.9-1.9,2.6-2.6,4.6-2.6s3.8,1.2,3.8,3.5-.3,2.7-.8,3.8c-.9,1.9-2.6,2.6-4.6,2.6s-3.8-1.2-3.8-3.5"/>
    <path class="cls-1" d="M34.1,49.3c-2.5,0-3.1-1.1-2.7-3.6l.7-3.7c0,0,0-.1,0-.1h-.5c-.1,0-.2,0-.1-.2l.3-1.9c0-.1,0-.2.2-.2h.5c0,0,.1,0,.2-.1l.4-2.5c0-.1.1-.2.2-.2h2.8c.1,0,.2,0,.1.2l-.4,2.5c0,0,0,.1,0,.1h.6c.1,0,.2,0,.2.2l-.3,1.9c0,.1-.1.2-.2.2h-.6c0,0,0,0-.1.1l-.7,3.6c-.2.8,0,1,.7,1h.4c.1,0,.2,0,.2.2l-.4,2.3c0,.1-.1.2-.2.2h-1.1Z"/>
    <path class="cls-1" d="M39.6,49.3c-2.5,0-3.1-1.1-2.7-3.6l.7-3.7c0,0,0-.1,0-.1h-.5c-.1,0-.2,0-.1-.2l.3-1.9c0-.1,0-.2.2-.2h.5c0,0,.1,0,.2-.1l.4-2.5c0-.1.1-.2.2-.2h2.8c0,0,.2,0,.1.2l-.4,2.5c0,0,0,.1,0,.1h.9c.1,0,.2,0,.2.2l-.3,1.9c0,.1-.1.2-.2.2h-1c0,0,0,0-.1.1l-.7,3.6c-.2.8,0,1,.7,1h.4c.1,0,.2,0,.2.2l-.4,2.3c0,.1-.1.2-.2.2h-1.1Z"/>
    <path class="cls-1" d="M47.8,43.4c0,0,.1,0,.2-.1,0-.2,0-.3,0-.4,0-.8-.4-1.1-1.2-1.1s-1.2.3-1.5.9c0,.2-.1.4-.2.7,0,0,0,.1,0,.1h2.5ZM41.8,45.9c0-1.2.3-2.7.8-3.8.9-1.8,2.3-2.7,4.6-2.7s3.7,1.2,3.7,3.4,0,1.2-.3,2.3c0,.1-.1.2-.2.2h-5.5c0,0-.1,0-.1.1,0,0,0,.2,0,.2,0,.9.6,1.3,1.6,1.3s1.5-.3,2.2-.8c.1,0,.2,0,.3,0l1.1,1.4c0,0,0,.2,0,.3-1.1,1-2.4,1.6-4.2,1.6s-3.9-1.2-3.9-3.5"/>
    <path class="cls-1" d="M50.9,49.2c0,0-.2,0-.2-.2l1.6-9.1c0-.1.1-.2.2-.2h2.8c.1,0,.2,0,.2.2l-.2.9h0c.6-.8,1.5-1.3,2.6-1.3s.9.1,1.2.4c0,0,.1.2,0,.3l-1.5,2.6c0,0-.2.1-.3,0-.4-.3-.7-.4-1.2-.4-.8,0-1.3.6-1.5,1.8l-.9,4.9c0,.1,0,.2-.2.2h-2.8Z"/>
    <path class="cls-1" d="M63.5,46c.3-.5.6-2.2.6-2.8s-.3-1.2-1-1.2-1,.3-1.3.9c-.3.5-.6,2.2-.6,2.8s.3,1.2,1,1.2,1-.3,1.3-.9M63.2,49.2c-.1,0-.2,0-.2-.2v-.7c.1,0,0,0,0,0-.5.7-1.4,1.2-2.6,1.2-1.9,0-2.7-1.2-2.7-3.1s.4-3.5,1-4.8c.7-1.5,1.8-2.1,3.4-2.1s1.9.5,2.2,1.2h0l.8-4.5c0-.1,0-.2.2-.2h2.8c.1,0,.2,0,.2.2l-2.3,12.9c0,.1,0,.2-.2.2h-2.8Z"/>
    <path class="cls-1" d="M72.9,46.1v-.6c.1,0,0-.1,0-.1h-1.1c-1,0-1.5.4-1.5,1.1s.3.7,1,.7c1,0,1.5-.4,1.6-1.1M72.6,49.2c-.1,0-.2,0-.2-.2v-.6c0,0,0,0,0,0-.6.6-1.4,1-2.6,1s-2.5-.9-2.5-2.4c0-2.4,1.6-3.6,4.5-3.6h1.5c0,0,.1,0,.2-.1v-.3c.2-.7,0-1-1.5-1s-1.6.2-2.1.5c-.1,0-.2,0-.2,0l-.7-1.7c0-.1,0-.2.1-.3.9-.6,2.3-.9,3.8-.9,2.9,0,4.2.9,3.7,3.5l-1.1,6c0,.1,0,.2-.2.2h-2.6Z"/>
    <path class="cls-1" d="M87.5,49.2c-.1,0-.2,0-.2-.2l1-5.5c.2-.9,0-1.5-.8-1.5s-1.3.5-1.4,1.4l-1,5.5c0,.1,0,.2-.2.2h-2.8c-.1,0-.2,0-.2-.2l1-5.5c.2-.9,0-1.5-.9-1.5s-1.2.5-1.4,1.4l-1,5.5c0,.1,0,.2-.2.2h-2.8c0,0-.2,0-.2-.2l1.6-9.1c0-.1,0-.2.2-.2h2.8c.1,0,.2,0,.2.2v.7c-.1,0,0,0,0,0,.5-.6,1.4-1.2,2.6-1.2s1.9.4,2.2,1.2h0c.7-.7,1.8-1.2,3.1-1.2,2.2,0,2.9,1.4,2.5,3.6l-1.1,6c0,.1,0,.2-.2.2h-2.8Z"/>
    <path class="cls-2" d="M15.1,57.3c.3-.5.6-2.2.6-2.8s-.3-1.2-1-1.2-1,.3-1.3.9c-.3.5-.6,2.2-.6,2.8s.3,1.2,1,1.2,1-.3,1.3-.9M8.5,64.1c0,0-.2,0-.2-.2l2.2-12.7c0-.1,0-.2.2-.2h2.8c.1,0,.2,0,.2.2v.7c-.1,0-.1,0-.1,0,.5-.7,1.4-1.2,2.6-1.2,1.8,0,2.7,1.2,2.7,3.1s-.4,3.5-1,4.8c-.7,1.5-1.8,2.1-3.4,2.1s-1.9-.5-2.2-1.2h0l-.8,4.2c0,.1,0,.2-.2.2h-2.8Z"/>
    <path class="cls-2" d="M24.2,57.4v-.6c.1,0,0-.1,0-.1h-1.1c-1,0-1.5.4-1.5,1.1s.3.7,1,.7c1,0,1.5-.4,1.6-1.1M23.8,60.6c-.1,0-.2,0-.2-.2v-.6c0,0,0,0,0,0-.6.6-1.4,1-2.6,1s-2.5-.9-2.5-2.4c0-2.4,1.6-3.6,4.5-3.6h1.5c0,0,.1,0,.2-.1v-.3c.2-.7,0-1-1.5-1s-1.6.2-2.1.5c-.1,0-.2,0-.2,0l-.7-1.7c0-.1,0-.2.1-.3.9-.6,2.3-.9,3.8-.9,2.9,0,4.2.9,3.7,3.5l-1.1,6c0,.1,0,.2-.2.2h-2.6Z"/>
    <path class="cls-2" d="M27.4,59.3c0,0,0-.2,0-.3l1.6-1.5c0,0,.2,0,.3,0,.9.7,1.8,1,2.8,1s1.3-.4,1.3-.9-.2-.5-1-.6h-1c-1.7-.3-2.7-1.2-2.7-2.5,0-2.3,1.8-3.7,4.5-3.7s3,.6,3.8,1.2c0,0,0,.2,0,.3l-1.4,1.5c0,0-.2,0-.3,0-.6-.4-1.4-.7-2.4-.7s-1.2.4-1.2.8.2.5.9.5h1c2,.3,2.9,1.3,2.9,2.5,0,2.3-1.8,3.9-4.8,3.9s-3.4-.7-4.2-1.5"/>
  </g>
</svg>