<?xml version="1.0" encoding="UTF-8"?>
<svg id="Laag_1" xmlns="http://www.w3.org/2000/svg" viewBox="0 0 100 100">
  <defs>
    <style>
      .cls-1 {
        fill: #d6801e;
      }
    </style>
  </defs>
  <rect width="100" height="100" rx="13.56" ry="13.56"/>
  <path class="cls-1" d="M51.33,17.37h4.07c.05.13.17.08.27.09,1.3.07,2.6.25,3.88.5,2.29.44,4.5,1.13,6.66,2.05,2.88,1.22,5.52,2.84,7.92,4.83,2.5,2.08,4.66,4.46,6.45,7.19,1.1,1.69,2.07,3.44,2.86,5.29,1.29,3.06,2.11,6.24,2.42,9.54.03.36-.04.76.15,1.1v4.07c-.11.04-.08.14-.09.22-.06,1.58-.32,3.14-.66,4.69-.99,4.58-2.91,8.74-5.7,12.51-1.99,2.69-4.34,5.01-7.05,6.97-4.78,3.44-10.09,5.5-15.96,6.06-.38.04-.78-.03-1.15.16h-4.07c-.03-.09-.11-.08-.18-.09-1.1-.04-2.19-.18-3.27-.37-3.79-.66-7.36-1.93-10.69-3.86-3.56-2.07-6.64-4.69-9.22-7.91-2.1-2.62-3.76-5.49-4.98-8.61-.63-1.6-1.12-3.23-1.46-4.92-.06-.31-.18-.46-.55-.44-.79.04-1.59.02-2.39,0-.79-.01-1.54-.19-2.2-.65-1.12-.79-1.68-1.93-2.02-3.2-.15-.56-.24-1.13-.36-1.69,0-.47,0-.94,0-1.41.15-.07.07-.2.08-.31.05-1.24.35-2.41.97-3.48.64-1.1,1.54-1.87,2.85-2.07.78-.12,1.56-.02,2.33-.06.38-.01.85.11,1.12-.06.26-.18.23-.68.31-1.05.56-2.43,1.42-4.77,2.54-7,2.06-4.1,4.86-7.62,8.39-10.55,2.39-1.98,5-3.59,7.85-4.82,3.12-1.35,6.35-2.2,9.73-2.53.38-.04.78.01,1.15-.16ZM40.82,56.43c-.26,0-.45,0-.64,0-2.33,0-4.66,0-6.99,0-3.43,0-6.87,0-10.3,0-.32,0-.42.03-.34.41.28,1.23.61,2.45,1.04,3.63,2.24,6.21,6.02,11.27,11.35,15.15,2.24,1.63,4.66,2.93,7.25,3.92,3.11,1.18,6.33,1.85,9.64,2.01,2.61.12,5.2-.06,7.76-.59,7.01-1.46,12.86-4.88,17.58-10.26,2.65-3.03,4.64-6.45,5.97-10.25,1.56-4.46,2.09-9.04,1.6-13.75-.26-2.51-.8-4.94-1.66-7.31-2.35-6.49-6.4-11.65-12.08-15.56-1.6-1.1-3.31-2.03-5.09-2.8-3.87-1.67-7.92-2.56-12.14-2.59-1.49-.01-2.97.07-4.45.25-2.52.31-4.95.93-7.31,1.84-3.14,1.22-6.01,2.9-8.62,5.04-2.08,1.71-3.92,3.65-5.51,5.82-2.58,3.54-4.37,7.45-5.33,11.73-.1.42.02.44.38.44,5.95,0,11.91,0,17.86,0,.13,0,.25,0,.44,0-.08-.14-.13-.23-.19-.31-1.84-2.76-3.69-5.52-5.53-8.28-.58-.87-.9-1.8-.77-2.86.2-1.69,1.14-2.93,2.39-3.98,1.66-1.39,3.59-2.17,5.75-2.3,1.68-.1,3.14.4,4.1,1.9,1.98,3.09,3.96,6.19,5.93,9.29.53.83.5.83,1.05-.03,1.98-3.13,3.98-6.25,5.98-9.36.57-.88,1.4-1.42,2.41-1.66.88-.21,1.77-.19,2.66-.01,2.69.54,4.94,1.77,6.4,4.16.97,1.58,1,3.22-.07,4.8-1.75,2.6-3.5,5.19-5.25,7.78-1.55,2.29-3.09,4.58-4.64,6.86-.13.19-.21.33-.04.58,1.17,1.6,2.31,3.22,3.48,4.83,2.25,3.12,4.52,6.23,6.75,9.36.76,1.07.93,2.26.55,3.52-.45,1.53-1.46,2.66-2.69,3.61-1.79,1.39-3.79,2.24-6.11,2.06-1.16-.09-2.18-.55-2.87-1.51-1-1.37-1.94-2.79-2.9-4.2-1.3-1.9-2.6-3.81-3.9-5.71-.29-.42-.3-.42-.59,0-2.19,3.2-4.39,6.4-6.58,9.61-.22.32-.47.6-.76.85-1.32,1.09-2.86,1.16-4.43.81-2.25-.49-4.13-1.66-5.58-3.44-1.51-1.85-1.8-3.94-.45-5.82,1.82-2.52,3.62-5.07,5.49-7.68ZM46.57,53.71c-.62.87-1.19,1.67-1.76,2.46-2.37,3.29-4.74,6.59-7.12,9.88-.28.38-.33.77-.16,1.2.1.26.25.5.42.72,1.16,1.46,2.67,2.31,4.5,2.59.66.1,1.21-.1,1.63-.71,2.49-3.67,5.02-7.32,7.51-10.99,1.78-2.61,3.53-5.24,5.3-7.86.46-.69.49-1.35.02-2.04-.65-.97-1.26-1.97-1.91-2.94-3.61-5.42-7.05-10.95-10.57-16.43-.32-.5-.73-.71-1.29-.73-.28,0-.56.04-.83.09-1.67.35-3.13,1.08-4.21,2.45-.44.56-.62,1.32-.11,1.9.17.2.3.43.45.65,1.67,2.52,3.39,5.01,5.06,7.53.99,1.5,2.03,2.98,3.04,4.47.06.09.19.16.11.32-.24,0-.49,0-.74,0-9.05,0-18.1,0-27.15-.01-.84,0-1.27.29-1.58,1.07-.69,1.75-.69,3.53-.02,5.28.31.82.74,1.09,1.61,1.09,8.89,0,17.77,0,26.66,0,.34,0,.68,0,1.11,0Z"/>
</svg>