<?xml version="1.0" encoding="UTF-8"?>
<svg id="Laag_1" data-name="Laag 1" xmlns="http://www.w3.org/2000/svg" viewBox="0 0 100 100">
  <defs>
    <style>
      .cls-1 {
        fill-rule: evenodd;
      }

      .cls-1, .cls-2 {
        fill: #fff;
      }

      .cls-3 {
        fill: #2cb3ed;
      }
    </style>
  </defs>
  <path class="cls-2" d="M11.49,100h77.03c6.34,0,11.49-5.14,11.49-11.49V11.49C100,5.14,94.86,0,88.51,0H11.49C5.14,0,0,5.14,0,11.49v77.03c0,6.34,5.14,11.49,11.49,11.49Z"/>
  <g>
    <g id="Page-1">
      <g id="Group">
        <g id="g3456">
          <g id="g3462">
            <g>
              <path id="path3464" class="cls-1" d="M66.28,33.76c.88-2.72,2.55-4.39,5.62-4.39,4.04,0,6.5,2.37,6.5,6.23,0,.61,0,1.4-.7,3.25l-10.53,27.48c-1.05,2.98-3.34,4.39-5.97,4.39s-5.18-1.05-6.06-4.65l-5.18-15.8-5.18,15.89c-.97,3.42-3.95,4.56-6.06,4.56-2.9,0-4.92-1.32-6.06-4.56l-10.18-27.21c-.61-1.58-.88-2.28-.88-3.25,0-4.74,3.69-6.23,6.85-6.23,2.63,0,4.65,1.32,5.35,3.69l5.53,18.61,4.74-14.48c.97-3.42,3.6-4.65,5.88-4.65s4.74,1.05,5.97,4.56l4.74,14.75,5.62-18.17h0Z"/>
              <path class="cls-3" d="M61.19,77.3c-5,0-9.04-2.37-11.24-6.41-2.46,4.39-7.11,6.41-11.24,6.41-5.79,0-10.18-3.16-12.29-8.87l-10.18-27.21c-.61-1.58-1.23-3.25-1.23-5.53,0-7.55,5.53-12.82,13.43-12.82,5.44,0,9.92,3.16,11.59,7.99,2.28-3.07,5.88-4.92,9.92-4.92,4.3,0,7.9,1.93,10.27,5.18,1.84-5.35,6.14-8.43,11.67-8.43,7.64,0,13.08,5.27,13.08,12.82,0,1.4-.18,3.07-1.14,5.62l-10.53,27.48c-1.93,5.35-6.58,8.69-12.11,8.69ZM28.19,35.43h0ZM72.78,35.34h0Z"/>
            </g>
          </g>
        </g>
      </g>
    </g>
    <g id="Page-1-2" data-name="Page-1">
      <g id="Group-2" data-name="Group">
        <g id="g3456-2" data-name="g3456">
          <g id="g3462-2" data-name="g3462">
            <path id="path3464-2" data-name="path3464" class="cls-1" d="M66.28,33.76c.88-2.72,2.55-4.39,5.62-4.39,4.04,0,6.5,2.37,6.5,6.23,0,.61,0,1.4-.7,3.25l-10.53,27.48c-1.05,2.98-3.34,4.39-5.97,4.39s-5.18-1.05-6.06-4.65l-5.18-15.8-5.18,15.89c-.97,3.42-3.95,4.56-6.06,4.56-2.9,0-4.92-1.32-6.06-4.56l-10.18-27.21c-.61-1.58-.88-2.28-.88-3.25,0-4.74,3.69-6.23,6.85-6.23,2.63,0,4.65,1.32,5.35,3.69l5.53,18.61,4.74-14.48c.97-3.42,3.6-4.65,5.88-4.65s4.74,1.05,5.97,4.56l4.74,14.75,5.62-18.17h0Z"/>
          </g>
        </g>
      </g>
    </g>
  </g>
</svg>