<?xml version="1.0" encoding="UTF-8"?>
<svg id="Laag_1" data-name="Laag 1" xmlns="http://www.w3.org/2000/svg" viewBox="0 0 100 100">
  <defs>
    <style>
      .cls-1 {
        fill: #d60510;
      }

      .cls-2 {
        fill: #fff;
      }
    </style>
  </defs>
  <path d="M10,0h78.79c6.19,0,11.21,5.02,11.21,11.21v77.58c0,6.19-5.02,11.21-11.21,11.21H11.21c-6.19,0-11.21-5.02-11.21-11.21V10C0,4.48,4.48,0,10,0Z"/>
  <g>
    <path class="cls-1" d="M20.78,73.81l-.23,1.72c-.1.85.57,1.59,1.44,1.59h56.01c.87,0,1.54-.75,1.44-1.59l-.23-1.72c-.14-1.34.84-2.57,2.18-2.71,1.35-.15,2.54.84,2.68,2.17l.22,1.68c.44,3.75-1.69,7.03-5.47,7.03H21.19c-3.79,0-5.91-3.29-5.47-7.03l.22-1.68c.14-1.34,1.33-2.32,2.67-2.17,1.34.14,2.32,1.37,2.18,2.71"/>
    <path class="cls-2" d="M72.56,60.83c2.73,0,4.9-1.98,4.84-4.59-.06-2.68-2.49-4.4-5.21-4.41h-5.48c-1.21,0-2.21-1.01-2.21-2.27s.99-2.28,2.21-2.28h3.66c2.47-.1,4.37-1.59,4.49-3.93.12-2.5-2.03-4.38-4.66-4.38h-8.89l-.04,21.86h11.28ZM79.3,43.33c0,2.28-.81,3.57-2.15,5.16l-.13.16.19.11c2.65,1.62,4.5,4.05,4.64,7.48.21,5.1-4.12,9.33-9.25,9.32h-13.54c-1.32,0-2.38-1.1-2.38-2.44v-26.25c0-1.35,1.07-2.44,2.38-2.44l11.17.03c4.87,0,9.08,3.59,9.08,8.88"/>
    <path class="cls-2" d="M35.68,56.56l.06.19.07-.19c.63-1.73,1.38-3.64,2.19-5.73.83-2.2,1.65-4.3,2.47-6.3.83-2.03,1.62-3.84,2.37-5.42.75-1.62,1.37-2.72,1.85-3.33.74-.88,1.72-1.33,2.94-1.33h.56c.75,0,1.33.2,1.76.57.4.35.64.75.7,1.21l3.5,27.13c0,.7-.2,1.24-.6,1.64-.4.38-.96.56-1.7.56s-1.33-.18-1.76-.52c-.48-.34-.75-.8-.82-1.36-.12-.9-.23-1.9-.33-3-.15-1.1-.7-5.83-.85-7.02-.14-1.23-1.13-8.89-1.46-11.68l-.03-.24-1.12,2.35c-.38.81-.79,1.78-1.24,2.91-.45,1.13-.91,2.33-1.35,3.59-.49,1.22-2.65,7.41-2.65,7.41-.2.56-.58,1.69-.93,2.73-.35,1.03-.67,1.97-.76,2.15-.51,1.02-1.52,1.7-2.79,1.71-1.29,0-2.29-.68-2.8-1.71-.09-.18-.41-1.12-.76-2.15-.35-1.04-.72-2.17-.93-2.73,0,0-2.17-6.19-2.65-7.41-.45-1.26-.91-2.45-1.36-3.59s-.86-2.1-1.23-2.91l-1.13-2.35-.03.24c-.34,2.78-1.32,10.45-1.47,11.68-.15,1.19-.7,5.93-.85,7.02-.11,1.1-.23,2.1-.34,3-.07.56-.34,1.01-.81,1.36-.44.34-1.02.52-1.76.52s-1.3-.19-1.7-.56c-.4-.4-.6-.95-.6-1.64l3.5-27.13c.08-.46.31-.86.71-1.21.43-.37,1.02-.57,1.76-.57h.57c1.22,0,2.2.45,2.93,1.33.48.61,1.1,1.71,1.85,3.33.76,1.58,1.54,3.39,2.37,5.42.82,2,1.65,4.1,2.48,6.3.8,2.09,1.56,4,2.19,5.73"/>
    <path class="cls-1" d="M28.81,18.01h42.55c4.01,0,6,3.01,6.47,6.98l.18,1.27c.14,1.36-.86,2.58-2.2,2.73-1.34.14-2.55-.84-2.69-2.21l-.17-1.22c-.18-1.51-.82-2.67-2.35-2.67H29.57c-1.53,0-2.17,1.16-2.35,2.67l-.16,1.22c-.14,1.36-1.34,2.35-2.69,2.21-1.34-.14-2.34-1.36-2.2-2.73l.18-1.27c.47-3.97,2.46-6.98,6.47-6.98"/>
  </g>
</svg>