<?xml version="1.0" encoding="UTF-8"?>
<svg id="Laag_1" xmlns="http://www.w3.org/2000/svg" version="1.1" viewBox="0 0 100 100">
  <!-- Generator: Adobe Illustrator 29.1.0, SVG Export Plug-In . SVG Version: 2.1.0 Build 142)  -->
  <defs>
    <style>
      .st0 {
        fill: #ff3d00;
      }

      .st1 {
        fill: #fff;
      }
    </style>
  </defs>
  <rect class="st0" width="100" height="100" rx="16.2" ry="16.2"/>
  <g>
    <g id="g140">
      <path id="path142" class="st1" d="M71.2,16.5c.7-.7.2-1.9-.8-1.9h-16.4l9.5,9.5,7.7-7.7Z"/>
    </g>
    <g id="g144">
      <path id="path146" class="st1" d="M48.2,39.5l-11.7-11.7-10.6,10.6-11,11c-.4.4-.4,1.1,0,1.6l11,11,10.6,10.6,11.7-11.7-9.8-9.8-.8-.8.8-.8,9.8-9.8Z"/>
    </g>
    <g id="g148">
      <path id="path150" class="st1" d="M63.5,75.9l-9.5,9.5h16.3c1,0,1.5-1.2.8-1.9l-7.6-7.6Z"/>
    </g>
    <g id="g152">
      <path id="path154" class="st1" d="M85,49.2l-11-11-12.3-12.3-11-11c-.2-.2-.5-.3-.7-.3,0,0,0,0,0,0h-20.4c-1,0-1.5,1.2-.8,1.9l9.4,9.4,11.7,11.7,11.6,11.6.8.8-.8.8-11.6,11.6-11.7,11.7-9.4,9.4c-.7.7-.2,1.9.8,1.9h20.4c.3,0,.6-.1.8-.3l11-11,12.3-12.3,11-11c.4-.4.4-1.1,0-1.6"/>
    </g>
  </g>
</svg>