<?xml version="1.0" encoding="UTF-8"?>
<svg id="Laag_1" xmlns="http://www.w3.org/2000/svg" version="1.1" viewBox="0 0 100 100">
  <!-- Generator: Adobe Illustrator 29.1.0, SVG Export Plug-In . SVG Version: 2.1.0 Build 142)  -->
  <defs>
    <style>
      .st0 {
        fill: #fff;
      }

      .st1 {
        fill: #f39600;
      }

      .st2 {
        fill: #007737;
      }
    </style>
  </defs>
  <rect class="st0" y="0" width="100" height="100" rx="11.9" ry="11.9"/>
  <g>
    <path class="st2" d="M61.3,63.1c0,.5-.2.8-.5,1.2-.3.3-.9.5-1.7.5s-.8,0-1.1-.1c-.3,0-.5-.2-.7-.4-.2-.2-.3-.3-.4-.5,0-.2-.1-.4-.1-.5v-8.9c0,.2.1.3.2.4.1,0,.3.1.4.2.3,0,.6.2.9.3.3.1.6.2.8.3.3.1.6.2.9.3.2,0,.4.2.6.4.2.1.3.3.4.5.1.2.2.5.2.8v.2h0v5.4ZM61.6,54.1c-.3-.1-.7-.2-1.1-.4-.4-.1-.8-.3-1.2-.4-.4-.1-.7-.2-1-.4-.3-.1-.5-.2-.5-.2,0,0-.2,0-.3-.1s-.2-.2-.3-.3c-.1-.1-.2-.3-.3-.4,0-.2-.1-.3-.1-.5v-2.9h-2.2v15.1c0,.9.4,1.6,1.1,2.2.7.6,1.8.9,3.4.9s1.5,0,2-.2c.6-.2,1-.4,1.4-.7.4-.3.6-.6.8-1,.2-.4.2-.8.2-1.2v-6.5c0-.7-.2-1.3-.5-1.8-.3-.5-.8-.9-1.5-1.2"/>
    <path class="st1" d="M28.1,47c0,.6-.2,1.1-.5,1.5-.3.3-.9.5-1.8.5s-1.4-.2-1.8-.5c-.3-.3-.5-.8-.5-1.5s0-.6.2-.8c.1-.2.3-.4.4-.5.2-.2.4-.3.6-.4.3-.1.6-.2.9-.3.3,0,.5-.2.8-.3.3-.1.6-.2.8-.3.1,0,.3,0,.4-.2.1,0,.2-.2.3-.4v3.2ZM30.1,48.8c.1-.4.2-.7.2-1v-7.7c0-.9-.4-1.7-1.1-2.3-.7-.6-1.8-.9-3.4-.9s-1.5,0-2,.2c-.6.2-1,.4-1.4.7-.4.3-.6.6-.8,1-.2.4-.2.8-.2,1.2v.6h2.2c0-.5.2-.9.5-1.3.3-.4.9-.5,1.8-.5s.8,0,1.1.1c.3,0,.5.2.7.4.2.2.3.3.4.5,0,.2.1.4.1.5v.5c0,.2,0,.4-.1.5,0,.2-.2.3-.3.4-.1.1-.2.2-.3.3-.1,0-.2.1-.3.1,0,0-.2,0-.5.2-.3.1-.6.2-1,.4-.4.1-.8.3-1.2.4-.4.1-.8.3-1.1.4-.6.2-1.1.6-1.5,1.2-.3.5-.5,1.1-.5,1.8v1.2c0,.3,0,.7.2,1,.1.4.3.7.7,1,.3.3.8.6,1.4.8.6.2,1.3.3,2.2.3s1.7-.1,2.2-.3c.6-.2,1-.5,1.4-.8.3-.3.6-.7.7-1"/>
    <path class="st1" d="M33.2,49.5c.3.3.8.6,1.3.9.6.3,1.4.4,2.5.4v-2h0c-.5,0-.8,0-1.1-.2-.3-.1-.5-.3-.7-.4-.2-.2-.3-.4-.3-.5,0-.2,0-.4,0-.5v-6.5h1.9v-1.9h-1.9v-1.8h-2.2v10.7c0,.2,0,.5.1.8,0,.4.3.7.6,1.1"/>
    <path class="st1" d="M45.9,47.1v-6.6c0-.1,0-.3,0-.5,0-.2.1-.4.3-.5.2-.2.4-.3.7-.4.3-.1.7-.2,1.1-.2s.9,0,1.2.2c.3.1.5.2.7.4.2.2.3.3.3.5,0,.2,0,.4,0,.5v7c0,.2,0,.3,0,.5,0,.2-.2.4-.3.5-.2.2-.4.3-.7.4-.3.1-.7.2-1.2.2s-.8,0-1.1-.2c-.3-.1-.5-.3-.7-.4-.2-.2-.3-.3-.3-.5,0-.2,0-.4,0-.5v-.3ZM44.3,49.7c.3.3.7.6,1.3.9.6.3,1.4.4,2.5.4s1.9-.1,2.5-.4c.6-.3,1-.6,1.3-.9.3-.3.5-.7.5-1,0-.3.1-.6.1-.8v-7.7c0-.2,0-.5-.1-.8,0-.3-.3-.7-.5-1-.3-.3-.7-.6-1.3-.9-.6-.3-1.4-.4-2.5-.4s-1.9.1-2.5.4c-.6.3-1,.6-1.3.9-.3.3-.5.7-.5,1.1,0,.4-.1.6-.1.8v7.7c0,.2,0,.5.1.8,0,.4.3.7.5,1.1"/>
    <path class="st1" d="M72.3,47c0,.6-.2,1.1-.5,1.5-.3.3-.9.5-1.8.5s-1.4-.2-1.8-.5c-.3-.3-.5-.8-.5-1.5s0-.6.2-.8c.1-.2.3-.4.4-.5.2-.2.4-.3.6-.4.3-.1.6-.2.9-.3.3,0,.5-.2.8-.3.3-.1.6-.2.8-.3.1,0,.3,0,.4-.2.1,0,.2-.2.3-.4v3.2ZM73.4,37.8c-.7-.6-1.8-.9-3.4-.9s-1.5,0-2,.2c-.6.2-1,.4-1.4.7-.4.3-.6.6-.8,1-.2.4-.2.8-.2,1.2v.6h2.2c0-.5.2-.9.5-1.3.3-.4.9-.5,1.8-.5s.8,0,1.1.1c.3,0,.5.2.7.4.2.2.3.3.4.5,0,.2.1.4.1.5v.5c0,.2,0,.4-.1.5,0,.2-.2.3-.3.4-.1.1-.2.2-.3.3-.1,0-.2.1-.3.1,0,0-.2,0-.5.2-.3.1-.6.2-1,.4-.4.1-.8.3-1.2.4-.4.1-.8.3-1.1.4-.6.2-1.1.6-1.5,1.1-.3.5-.5,1.1-.5,1.8v1.2c0,.3,0,.7.2,1,.1.4.3.7.7,1,.3.3.8.6,1.4.8.6.2,1.3.3,2.2.3s1.7-.1,2.2-.3c.6-.2,1-.5,1.4-.8.3-.3.6-.7.7-1,.1-.4.2-.7.2-1v-7.7c0-.9-.4-1.7-1.1-2.3"/>
    <path class="st1" d="M83,40.8c0-.6.2-1.1.5-1.5.3-.3.9-.5,1.8-.5s1.4.2,1.8.5c.3.3.5.8.5,1.5s0,.6-.2.8c-.1.2-.3.4-.4.5-.2.2-.4.3-.6.4-.3.1-.6.2-.9.3-.3,0-.5.2-.8.3-.3.1-.6.2-.8.3-.1,0-.3,0-.4.2-.1,0-.2.2-.3.4v-3.2ZM83.1,46.4c0-.2.2-.3.3-.4.1-.1.2-.2.3-.3.1,0,.2-.1.3-.1,0,0,.2,0,.5-.2.3-.1.6-.2,1-.4.4-.1.8-.3,1.2-.4.4-.1.8-.3,1.1-.4.6-.2,1.1-.6,1.5-1.2.3-.5.5-1.1.5-1.8v-1.2c0-.3,0-.7-.2-1-.1-.4-.3-.7-.7-1-.3-.3-.8-.6-1.4-.8-.6-.2-1.3-.3-2.2-.3s-1.7.1-2.2.3c-.6.2-1,.5-1.4.8-.3.3-.6.7-.7,1-.1.4-.2.7-.2,1v7.7c0,.9.4,1.7,1.1,2.3.7.6,1.8.9,3.4.9s1.5,0,2-.2c.6-.2,1-.4,1.4-.7.4-.3.6-.6.8-1,.2-.4.2-.8.2-1.2v-.6h-2.2c0,.5-.2.9-.5,1.3-.3.4-.9.5-1.8.5s-.8,0-1.1-.1c-.3,0-.5-.2-.7-.4-.2-.2-.3-.3-.4-.5,0-.2-.1-.4-.1-.5v-.5c0-.2,0-.4.1-.5"/>
    <rect class="st1" x="76.6" y="33.3" width="2.2" height="17.5"/>
    <rect class="st2" x="39.2" y="52.6" width="2.2" height="13.9"/>
    <rect class="st1" x="39.2" y="36.9" width="2.2" height="13.9"/>
    <path class="st2" d="M72.3,56.5v6.7c0,.2,0,.3,0,.5,0,.2-.2.4-.3.5-.2.2-.4.3-.7.4-.3.1-.7.2-1.2.2s-.8,0-1.1-.2c-.3-.1-.5-.3-.7-.4-.2-.2-.3-.3-.3-.5s0-.4,0-.5v-6.9c0-.1,0-.3,0-.5,0-.2.1-.4.3-.5.2-.2.4-.3.7-.4.3-.1.7-.2,1.1-.2s.9,0,1.2.2c.3.1.5.2.7.4.2.2.3.3.3.5,0,.2,0,.4,0,.5v.3ZM73.8,53.9c-.3-.3-.7-.6-1.3-.9-.6-.3-1.4-.4-2.5-.4s-1.9.1-2.5.4c-.6.3-1,.6-1.3.9-.3.3-.5.7-.5,1.1,0,.4-.1.6-.1.8v7.7c0,.2,0,.5.1.8,0,.4.3.7.5,1.1.3.3.7.6,1.3.9.6.3,1.4.4,2.5.4s1.9-.1,2.5-.4c.6-.3,1-.6,1.3-.9.3-.3.5-.7.5-1,0-.3.1-.6.1-.8v-7.7c0-.2,0-.5-.1-.8,0-.3-.3-.7-.5-1"/>
    <rect class="st1" x="39.3" y="33.3" width="2" height="2"/>
    <path class="st1" d="M62.9,38.2c-.3-.3-.7-.6-1.3-.9-.5-.2-1.2-.3-2-.4h0s-.5,0-.5,0h-4.5v9.6h2.2v-7.6h2.7c.3,0,.5,0,.7.2.1,0,.2.1.3.2.1,0,.3.2.3.3.2.2.3.3.3.5,0,.2,0,.4,0,.5v10.3h2.2v-10.7c0-.2,0-.5-.1-.8,0-.4-.3-.7-.5-1.1"/>
    <path class="st2" d="M84.8,53.9c-.3-.3-.7-.6-1.3-.9-.5-.2-1.2-.3-2-.4h0s-.5,0-.5,0h-4.5v13.9h2.2v-11.9h2.7c.3,0,.5,0,.7.2.1,0,.2.1.3.2.1,0,.3.2.3.3.2.2.3.3.3.5,0,.2,0,.4,0,.5v10.3h2.2v-10.7c0-.2,0-.5-.1-.8,0-.4-.3-.7-.5-1.1"/>
    <path class="st2" d="M51.9,53.9c-.3-.3-.7-.6-1.3-.9-.5-.2-1.2-.3-2-.4h0s-.5,0-.5,0h-4.5v13.9h2.2v-11.9h2.7c.3,0,.5,0,.7.2.1,0,.2.1.3.2.1,0,.3.2.3.3.2.2.3.3.3.5,0,.2,0,.4,0,.5v10.3h2.2v-10.7c0-.2,0-.5-.1-.8,0-.4-.3-.7-.5-1.1"/>
    <path class="st1" d="M18.6,38.2c-.3-.3-.7-.6-1.3-.9-.5-.2-1.2-.3-2-.4h0s-.5,0-.5,0h-4.5v13.9h2.2v-11.9h2.7c.3,0,.5,0,.7.2.1,0,.2.1.3.2.1,0,.3.2.3.3.2.2.3.3.3.5,0,.2,0,.4,0,.5v10.3h2.2v-10.7c0-.2,0-.5-.1-.8,0-.4-.3-.7-.5-1.1"/>
    <path class="st2" d="M34.8,64.7h-2.7c-.3,0-.5,0-.7-.2-.1,0-.2,0-.3-.2-.1,0-.3-.2-.3-.3-.2-.2-.3-.3-.3-.5,0-.2,0-.4,0-.5v-10.3h-2.2v10.7c0,.2,0,.5.1.8s.3.7.5,1.1c.3.3.7.6,1.3.9.5.2,1.2.3,2,.4h0s.5,0,.5,0h4.5v-13.9h-2.2v11.9Z"/>
    <path class="st2" d="M24.6,64.3c-.3-.1-.5-.3-.7-.4-.2-.2-.3-.4-.3-.5,0-.2,0-.4,0-.5v-6.5h1.9v-1.9h-1.9v-1.8h-2.2v10.7c0,.2,0,.5.1.8,0,.4.3.7.6,1.1.3.3.8.6,1.3.9.6.3,1.4.4,2.5.4v-2h0c-.5,0-.8,0-1.1-.2"/>
  </g>
</svg>