<?xml version="1.0" encoding="UTF-8"?>
<svg id="Laag_1" data-name="Laag 1" xmlns="http://www.w3.org/2000/svg" viewBox="0 0 100 100">
  <defs>
    <style>
      .cls-1 {
        fill: #fff;
        fill-rule: evenodd;
      }

      .cls-2 {
        fill: #03b0e7;
      }
    </style>
  </defs>
  <rect class="cls-2" width="100" height="100" rx="12" ry="12"/>
  <path class="cls-1" d="M81.44,47.17c-4.66,0-4.92,4.14-4.92,11.05,0,14.42-10.8,21.76-26.45,21.76-13.53,0-25.92-7.08-25.92-19.25,0-9.41,7.2-13.9,13.18-14.68-7.38-3.28-9.75-7.17-9.75-12.61s3.61-13.12,17.04-13.12c11.69,0,15.99,5.01,15.99,10.71,0,3.46-3.16,5.53-5.27,5.53,0-9.67-5.89-12.08-10.72-12.08-5.36,0-10.28,3.63-10.28,8.98,0,10.36,15.2,8.81,15.2,14.77,0,.86-.18,2.24-1.49,3.8-.62-.78-1.93-2.25-5.62-2.25-6.24,0-11.42,4.75-11.42,11.05,0,10.96,12.12,15.11,19.06,15.11,13.27,0,20.39-6.91,20.39-15.11.18-2.24.18-3.37.18-10.36,0-2.59-.88-3.02-3.25-3.02-5.36,0-8.52,1.99-8.52,5.78s4.48,5.01,6.32,5.01c0,0-.35,4.06-4.21,4.06-4.48,0-7.82-3.89-7.82-9.33,0-3.63,2.54-9.67,14.23-9.67h13.36c4.2,0,9.27-1.86,7.94-5.94-5.39-15.93-20.66-27.43-38.68-27.43-22.53,0-40.79,17.95-40.79,40.09s18.26,40.09,40.79,40.09,40.79-17.95,40.79-40.09c0-1.34-.07-2.69-.2-4.02-1.02.72-2.25,1.28-3.96,1.28-1.85,0-2.82-.09-5.19-.09"/>
</svg>