<?xml version="1.0" encoding="UTF-8"?>
<svg id="Laag_1" data-name="Laag 1" xmlns="http://www.w3.org/2000/svg" viewBox="0 0 100 100">
  <defs>
    <style>
      .cls-1 {
        fill: #f7ff99;
      }

      .cls-2 {
        fill-rule: evenodd;
      }

      .cls-2, .cls-3 {
        fill: #2a1243;
      }
    </style>
  </defs>
  <rect class="cls-1" width="100" height="100" rx="18.57" ry="18.57"/>
  <g>
    <path class="cls-3" d="M40.95,46.71l4.32-1.19v-4.24l-4.32,1.19v4.24Z"/>
    <path class="cls-3" d="M40.95,59.75h4.32v-12.21l-4.32,1.19v11.02Z"/>
    <path class="cls-3" d="M51.55,39.74l-4.29,1.17v13.87c0,1.96.31,3.29,1.2,4.2.84.84,1.94,1.26,3.79,1.26,1.43-.06,2.82-.53,3.99-1.37v-3.34c-.97.39-1.86.89-2.76.9-.66,0-1.11-.11-1.52-.52-.34-.34-.44-.72-.44-1.68v-6.1l4.77-1.48v-3.47l-4.74,1.23v-4.67Z"/>
    <path class="cls-3" d="M34.16,47.39l-.15.04v-3.25l-4.2,1.15v14.41h4.29v-5.97c0-4.45,1.57-5.8,3.81-6.42l1.1-.31v-4.26c-.63.17-1.24.41-1.81.73-1.38.81-2.6,1.86-3.05,3.86Z"/>
    <path class="cls-3" d="M23.75,48.53c1.61-.76,2.42-2.15,2.51-3.9.15-2.82-2.26-4.51-6.72-4.39-.84.02-1.84.1-2.8.19-2.03.2-3.91.48-3.91.48v18.86s2.78.4,7.8-.12c5.01-.52,7.7-3.2,7.34-6.97-.27-2.74-2.04-3.62-4.22-4.16ZM17.03,43.74s.58-.13,2.31-.37c1.84-.26,2.73.55,2.76,1.68.04,1.61-.81,2.09-1.59,2.43-1.12.45-2.28.81-3.47,1.07v-4.8ZM20.22,56.11c-1.05.23-2.12.31-3.2.23v-4.27s.86-.45,3.19-1c1.8-.42,3.29.27,3.32,1.71.03,1.79-1.37,2.95-3.31,3.33Z"/>
    <path class="cls-3" d="M65.67,56.85c-2.1.23-3.7-.95-4.07-2.42l10.37-2.76c-.11-3.88-2.28-7.49-7-7.64-4.26-.13-8.19,2.99-7.83,8.84.21,3.53,2.6,7.04,7.46,7.36,4.24.28,7.23-2.74,7.45-6.25l-3.7.98c-.39.85-.9,1.68-2.69,1.88ZM64.46,47.42c1.84-.2,2.81.78,3.08,1.91l-6.37,1.73c-.01-.91.32-1.79.93-2.47.61-.68,1.46-1.09,2.36-1.17Z"/>
    <path class="cls-2" d="M87.16,47.38l-.02-.07-.73-2.73-.02-.07-4.42,1.46,1.46-4.42-.07-.02-2.73-.73-.07-.02-.95,4.56-3.1-3.48-.05.05-1,1-1,1-.05.06,3.47,3.1-4.56.95.02.07.73,2.73.02.07,4.42-1.46-1.46,4.42.07.02,2.73.73.07.02.95-4.56,3.1,3.47,2.1-2.1-3.48-3.1,4.56-.94Z"/>
  </g>
</svg>