<?xml version="1.0" encoding="UTF-8"?>
<svg id="Laag_1" data-name="Laag 1" xmlns="http://www.w3.org/2000/svg" viewBox="0 0 100 100">
  <defs>
    <style>
      .cls-1 {
        fill: #601870;
      }

      .cls-2 {
        fill: #fff;
      }

      .cls-3 {
        fill: #ffd600;
      }

      .cls-4 {
        fill: #00862f;
      }
    </style>
  </defs>
  <rect class="cls-2" width="100" height="100"/>
  <g>
    <path id="Path_247" data-name="Path 247" class="cls-3" d="M83.32,59.19l2.01-.34c-.14-.62-.35-1.23-.63-1.8l-.44.08c-.26.71-.58,1.4-.94,2.07"/>
    <path id="Path_248" data-name="Path 248" class="cls-3" d="M79.03,58.01c-.3.83-.52,1.5-.67,2.02l2.48-.42c.43-.68.82-1.38,1.17-2.11l-2.97.51Z"/>
    <path id="Path_249" data-name="Path 249" class="cls-3" d="M95.09,53.57l-3.07-18.04c-.33-1.94-2.18-3.25-4.12-2.92l-30.34,5.17c-1.94.33-3.25,2.18-2.92,4.12l.33,1.91c.56-.3,1.18-.48,1.82-.53l-.29-1.71c-.16-.92.46-1.79,1.38-1.95l30.34-5.17c.92-.16,1.79.46,1.95,1.38,0,0,0,0,0,0l3.07,18.04c.16.92-.46,1.79-1.38,1.95l-4.77.81c.26.58.48,1.18.65,1.8l4.44-.76c1.94-.33,3.25-2.18,2.92-4.12"/>
    <path id="Path_250" data-name="Path 250" class="cls-3" d="M73.25,59c-.11.44-.17.88-.17,1.33,0,.2.03.4.08.59l2.53-.43c.38-.66.69-1.35.93-2.07l-3.37.57Z"/>
    <path id="Path_251" data-name="Path 251" class="cls-3" d="M57.44,47.19l-.32-1.89s-.09-.01-.14-.01c-.64.03-1.24.35-1.63.87l.34,2c.67-.12,1.28-.47,1.74-.97"/>
    <path id="Path_252" data-name="Path 252" class="cls-3" d="M60.25,60.71c-.37-.26-.61-.65-.69-1.09l-1.12-6.58c-.6.21-1.22.33-1.84.38l1.11,6.51c.26,1.53,1.47,2.71,3,2.93.21-.62.42-1.24.63-1.86-.39.03-.78-.07-1.09-.3"/>
    <path id="Path_253" data-name="Path 253" class="cls-3" d="M55.99,49.9l.25,1.44c.14.01.28.02.43.02.49-.01.98-.12,1.43-.33l-.27-1.6c-.58.26-1.2.42-1.83.47"/>
    <path id="Path_254" data-name="Path 254" class="cls-3" d="M70.73,59.43l-.95.16c-.84,1.26-2.05,2.18-3.59,2.18-.98,0-1.63-.23-2.49-.84-.18.52-.37,1.09-.57,1.7l7.56-1.29c-.04-.26-.05-.52-.05-.78,0-.38.03-.76.09-1.13"/>
    <path id="Path_255" data-name="Path 255" class="cls-4" d="M50.72,40.78c1.03,0,2.01-1.15,2.01-2.23.02-.68-.51-1.25-1.19-1.27-.03,0-.05,0-.08,0-1.05,0-2.01,1.05-2.01,2.2-.05.67.46,1.25,1.12,1.3.05,0,.1,0,.15,0"/>
    <path id="Path_256" data-name="Path 256" class="cls-1" d="M61.68,50.97c1.41-1.47,3.11-4.72,4.19-7.83.61.18,1.25.29,1.88.32-.93,2.03-1.71,3.6-1.71,5.11,0,1.25.81,2.32,2.3,2.32.9,0,1.78-.4,2.55-.97.25,2.2,2.03,3.37,4.27,3.37,1.09-.02,2.16-.27,3.15-.73-.11.33-.22.66-.33.98h2.54c.73-2.69,2.67-7.68,4.62-7.68.44,0,.59.27.59.66,0,1.15-1.81,3.23-1.81,5.11,0,1.25.76,2.15,2.23,2.15,2.03,0,3.96-2.01,4.72-3.35l-1.37-1.37c-.83,1.22-1.96,2.37-2.57,2.37-.27,0-.42-.19-.42-.51,0-1.05,1.93-3.57,1.91-5.33.02-1.08-.84-1.96-1.92-1.98-.03,0-.06,0-.09,0-1.2,0-2.47.76-3.35,2.25l.69-2.01h-2.47c-.62,1.78-1.23,3.56-1.83,5.34-.86.85-2.38,2.02-3.75,2.02s-2.13-.59-2.3-1.57c2.47.56,5.75-.78,5.75-3.64,0-1.47-1.03-2.89-2.96-2.89-2.15,0-3.83,1.4-4.69,3.3-.79,1.13-1.83,2.13-2.38,2.13-.32,0-.51-.24-.51-.64,0-1.13,1.47-4.4,2.42-6.43-1.05.02-3.45-.1-4.55-.39l.22-.98h-2.27c-.52,2.89-2.04,6.93-3.98,9.21-.65.73-1.45,1.31-2.34,1.71l.34,2.01c1.23-.41,2.35-1.12,3.24-2.07M76.02,45.16c.54,0,.86.39.83.95-.02,1.3-1.83,2.18-3.4,1.98.32-1.61,1.35-2.94,2.57-2.94"/>
    <path id="Path_257" data-name="Path 257" class="cls-1" d="M57.82,46.25c-.01.35-.15.68-.37.95l.38,2.23c1.3-.59,2.29-1.71,2.29-3.28,0-1.47-1.03-2.89-2.96-2.89-.13,0-.26,0-.38.02l.35,2.02c.45.06.72.43.7.94"/>
    <path id="Path_258" data-name="Path 258" class="cls-1" d="M54.37,49.79c.53.12,1.08.15,1.63.1l-.3-1.74c-.42.09-.85.12-1.28.07.14-.76.46-1.47.94-2.07l-.4-2.35c-1.38.73-2.38,2.1-2.85,3.7-.79,1.14-1.84,2.15-2.41,2.15-1.32,0,.17-3.42,1.71-7.58h-2.54c-1.04,2.81-2.06,5.51-2.15,7.38-.79,1.07-1.75,1.99-2.3,1.99-.73,0-.64-.76.27-3.42.68-2.08,1.98-5.77,3.55-9.83h-2.59c-1.11,3.05-2.33,6.34-3.13,8.71v-.06c0-1.81-1.13-3.6-3.28-3.6-3.25,0-5.53,3.2-5.53,6.6,0,.05,0,.1,0,.15-.9,1.35-1.79,2.23-2.46,2.23-.26.01-.48-.19-.49-.45,0-.02,0-.04,0-.07,0-1.05,1.98-3.5,1.93-5.31-.02-1.2-.83-2.01-1.98-2-1.2,0-2.52.76-3.4,2.25.85-2.57,1.73-5.11,2.66-7.68h-2.49c-1.13,3.27-2.4,7-3.55,10.38-.89.85-2.4,2.01-3.77,2.01-1.22,0-1.93-.78-1.93-2.15,0-1.79,1.15-3.77,2.27-3.77.81,0,1,1.1.51,2.52h2.57c.78-2.28-.17-4.7-2.74-4.7-1.79,0-3.4,1.18-4.34,2.88-1.16-3.17-5.27-3.68-5.25-6.49.02-1.57,1.17-2.89,2.81-2.89,1.52,0,2.94,1.35,1.76,4.16h2.81c1.47-3.25-.44-6.53-4.31-6.53-3.52,0-5.9,2.76-5.92,5.48-.02,4.84,5.5,4.77,5.5,8.34,0,1.69-1.52,3.28-3.45,3.28-1.59,0-2.81-1-2.81-2.54,0-.91.34-1.96.93-2.57l-2.37-1.3c-.81.9-1.34,2.69-1.34,3.91,0,2.94,2.15,4.97,5.36,4.97,2.27.03,4.39-1.09,5.65-2.97.55,1.58,1.99,2.45,3.75,2.45,1.11,0,2.2-.28,3.18-.78l-.57,1.68h2.54c.73-2.69,2.64-7.68,4.62-7.69.44,0,.59.27.59.66,0,1.15-1.81,3.23-1.81,5.11,0,1.25.76,2.15,2.23,2.15,1.41,0,2.79-1.2,3.87-2.62.6.95,1.66,1.51,2.79,1.46,2,0,3.57-1.2,4.5-2.87-.31,2.22.33,3.24,2.08,3.24,1.48,0,2.9-1.06,3.86-2.16.43.26.93.39,1.43.36,1.11,0,2.18-.6,3.05-1.36.48,1.82,2.13,2.79,4.16,2.79.16,0,.31,0,.47-.02l-.36-2.08c-1.13-.11-1.72-.67-1.87-1.54M37.39,51.18c-.71,0-1.17-.56-1.17-1.66,0-1.79,1.27-4.11,2.59-4.11.76,0,1.15.68,1.15,1.64,0,1.86-1.3,4.13-2.57,4.13"/>
    <path id="Path_259" data-name="Path 259" class="cls-3" d="M58.1,51.03c-.45.2-.94.32-1.43.33-.15,0-.29,0-.43-.02l.36,2.08c.63-.05,1.25-.18,1.84-.38l-.34-2Z"/>
    <path id="Path_260" data-name="Path 260" class="cls-1" d="M56.99,45.29s.09,0,.14.01l-.35-2.03c-.64.05-1.26.23-1.82.53l.4,2.35c.39-.52.98-.84,1.63-.87"/>
    <path id="Path_261" data-name="Path 261" class="cls-1" d="M57.44,47.19c-.46.5-1.07.84-1.74.97l.3,1.74c.63-.05,1.25-.21,1.83-.47l-.38-2.23Z"/>
    <path id="Path_262" data-name="Path 262" class="cls-4" d="M69.12,52.08c-1.28,0-2.47.93-3.21,2.19l.79-1.98h-2.37c-.99,2.88-1.98,5.8-2.98,8.72-.21.62-.42,1.24-.63,1.86-.52,1.53-1.05,3.06-1.58,4.58h2.51c.54-1.77,1.03-3.4,1.48-4.82.19-.61.39-1.18.57-1.7.86.61,1.51.84,2.49.84,1.54,0,2.75-.92,3.59-2.18.91-1.39,1.4-3.01,1.44-4.67,0-1.82-.84-2.84-2.1-2.84M67.86,54.11c.58,0,.86.49.86,1.26,0,1.82-1.09,4.47-2.96,4.47-.58.03-1.15-.19-1.56-.61,1.37-3.73,2.72-5.15,3.65-5.12"/>
    <path id="Path_263" data-name="Path 263" class="cls-4" d="M75.64,56.39c.57,0,1.09.29,1.4.77-.14.46-.28.87-.42,1.26l2.41-.41c.34-.94.76-2.1,1.29-3.5h-2.38l-.35.98c-.48-.74-1.3-1.2-2.19-1.21-2.29,0-4.24,2.44-4.68,5.15l2.53-.43c.35-1.37,1.22-2.6,2.39-2.6"/>
    <path id="Path_264" data-name="Path 264" class="cls-4" d="M85.47,59.99c0,1.07-.63,2.1-1.72,2.1-.67-.02-1.3-.35-1.68-.91.47-.63.89-1.3,1.26-1.99l-2.49.42s-.04.07-.07.11c-.75,1.07-1.73,2.01-2.25,2.01-.47,0-.52-.45-.16-1.69l-2.67.46c-.5.83-1.01,1.24-1.54,1.24-.48,0-.89-.33-.99-.8l-2.47.42c.23,1.6,1.17,2.62,2.58,2.62,1.3,0,2.12-.75,2.65-1.56.12.92.93,1.6,1.86,1.56,1.04,0,2.06-.57,2.89-1.29.86.91,2.23,1.39,3.44,1.39,2.42,0,3.84-1.93,3.87-3.87,0-.59-.09-1.19-.25-1.76l-2.39.41c.09.37.13.76.13,1.14"/>
    <path id="Path_265" data-name="Path 265" class="cls-4" d="M83.28,54.15c-.33,1.15-.75,2.28-1.27,3.36l2.25-.38c.07-.19.14-.38.2-.58.08.16.16.33.24.5l2.37-.4c-.42-.96-.89-1.83-1.17-2.5h-2.63Z"/>
    <path id="Path_266" data-name="Path 266" class="cls-4" d="M84.7,57.05c.27.58.48,1.18.63,1.8l2.39-.41c-.17-.61-.39-1.22-.65-1.8l-2.37.4Z"/>
    <path id="Path_267" data-name="Path 267" class="cls-4" d="M82.01,57.51c-.35.72-.74,1.43-1.17,2.11l2.49-.42c.36-.67.67-1.36.94-2.07l-2.25.38Z"/>
    <path id="Path_268" data-name="Path 268" class="cls-3" d="M73.08,60.33c0-.45.06-.9.17-1.33l-2.53.43c-.06.38-.09.75-.09,1.13,0,.26.02.52.05.78l2.47-.42c-.06-.19-.08-.39-.08-.59"/>
    <path id="Path_269" data-name="Path 269" class="cls-4" d="M76.62,58.42c-.24.72-.55,1.41-.93,2.07l2.67-.46c.15-.52.37-1.19.67-2.02l-2.41.41Z"/>
  </g>
</svg>