<?xml version="1.0" encoding="UTF-8"?>
<svg id="Laag_1" data-name="Laag 1" xmlns="http://www.w3.org/2000/svg" viewBox="0 0 100 100">
  <defs>
    <style>
      .cls-1 {
        fill: #1c2533;
      }

      .cls-2 {
        fill: #fff;
      }
    </style>
  </defs>
  <rect class="cls-2" width="100" height="100" rx="11.54" ry="11.54"/>
  <g>
    <path class="cls-1" d="M78.62,80.65H21.37c-.63,0-1.15-.51-1.15-1.15s.51-1.15,1.15-1.15h57.25c.63,0,1.15.51,1.15,1.15s-.51,1.15-1.15,1.15h0Z"/>
    <path class="cls-1" d="M27.86,19.35c2.16,0,4.29.48,6.42,1.44v3.1c-2.12-1.08-4.21-1.62-6.26-1.62-1.28,0-2.41.26-3.41.77-.99.51-1.77,1.24-2.31,2.2-.55.96-.82,2.02-.82,3.2,0,1.79.6,3.23,1.79,4.32,1.19,1.09,2.76,1.64,4.7,1.64.53,0,1.05-.04,1.54-.14.49-.09,1.07-.27,1.75-.53v-2.91h-2.89v-2.64h6.28v7.22c-.86.6-1.89,1.07-3.1,1.41-1.21.34-2.46.51-3.77.51-1.84,0-3.52-.38-5.02-1.14-1.5-.76-2.67-1.82-3.51-3.2-.84-1.37-1.26-2.9-1.26-4.59s.42-3.26,1.27-4.65,2.03-2.46,3.55-3.23c1.52-.77,3.21-1.15,5.07-1.15h0Z"/>
    <polygon class="cls-1" points="44.59 19.57 44.59 37.08 41.21 37.08 41.21 19.57 44.59 19.57 44.59 19.57"/>
    <polygon class="cls-1" points="62.1 19.57 62.1 22.22 54.81 22.22 54.81 26.74 62.1 26.74 62.1 29.41 54.81 29.41 54.81 37.08 51.43 37.08 51.43 19.57 62.1 19.57 62.1 19.57"/>
    <polygon class="cls-1" points="82.61 19.57 82.61 22.22 76.39 22.22 76.39 37.08 73.01 37.08 73.01 22.22 66.79 22.22 66.79 19.57 82.61 19.57 82.61 19.57"/>
    <path class="cls-1" d="M19.95,47.28c1,0,1.97.11,2.92.34.95.23,1.98.61,3.08,1.15v3.18c-1.08-.62-2.07-1.06-2.99-1.34-.92-.28-1.87-.41-2.86-.41-1.25,0-2.37.26-3.37.77-1,.51-1.78,1.24-2.34,2.17-.55.94-.83,1.98-.83,3.12s.28,2.22.83,3.15c.55.93,1.33,1.64,2.33,2.15,1,.51,2.13.76,3.38.76.96,0,1.88-.14,2.75-.41.87-.28,1.97-.77,3.3-1.49v3.18c-1.14.59-2.18,1.01-3.13,1.27-.95.25-2.06.38-3.34.38-1.85,0-3.49-.37-4.95-1.1-1.45-.73-2.59-1.79-3.43-3.18-.83-1.38-1.25-2.9-1.25-4.54,0-1.76.43-3.35,1.28-4.75.86-1.4,2.03-2.48,3.53-3.25,1.5-.76,3.19-1.14,5.07-1.14h0Z"/>
    <path class="cls-1" d="M36.73,58.18h5.65l-2.96-6.93-2.69,6.93h0ZM41.14,47.5l7.73,17.5h-3.57l-1.82-4.26h-7.78l-1.69,4.26h-3.54l7.22-17.5h3.46Z"/>
    <path class="cls-1" d="M59.37,54.97c.89,0,1.58-.22,2.09-.66.5-.44.76-1.05.76-1.82s-.25-1.4-.75-1.8c-.5-.4-1.21-.59-2.14-.59h-2.1v4.87h2.15ZM60.13,47.5c1.65,0,2.99.45,4.02,1.37,1.04.91,1.55,2.1,1.55,3.56,0,.99-.26,1.86-.77,2.6-.51.74-1.28,1.32-2.29,1.75.56.3,1.06.71,1.49,1.23.44.52.97,1.39,1.62,2.62,1.07,2.12,1.86,3.58,2.38,4.39h-3.77c-.26-.38-.61-1-1.05-1.84-.97-1.86-1.68-3.12-2.13-3.76-.45-.65-.88-1.11-1.3-1.38-.42-.27-.9-.41-1.44-.41h-1.23v7.39h-3.38v-17.5h6.3,0Z"/>
    <path class="cls-1" d="M80.24,62.36c1.87,0,3.37-.56,4.5-1.69,1.13-1.12,1.7-2.6,1.7-4.42s-.57-3.38-1.71-4.47c-1.14-1.09-2.68-1.64-4.61-1.64h-3.48v12.22h3.6,0ZM80.59,47.5c1.82,0,3.44.37,4.86,1.12,1.42.74,2.52,1.79,3.31,3.13.79,1.34,1.18,2.86,1.18,4.54s-.39,3.23-1.18,4.55c-.79,1.32-1.91,2.35-3.36,3.08-1.45.73-3.12,1.09-5,1.09h-7.13v-17.5h7.33Z"/>
  </g>
</svg>