<?xml version="1.0" encoding="UTF-8"?>
<svg id="Laag_1" data-name="Laag 1" xmlns="http://www.w3.org/2000/svg" viewBox="0 0 99.8 100">
  <defs>
    <style>
      .cls-1 {
        fill: #32bcad;
      }

      .cls-2 {
        fill: #fff;
      }

      .cls-3 {
        fill: #939598;
      }
    </style>
  </defs>
  <path class="cls-2" d="M9.99,0h78.63c6.17,0,11.18,5.02,11.18,11.21v77.58c0,6.19-5.01,11.21-11.19,11.21H11.19c-6.18,0-11.19-5.02-11.19-11.21V10C0,4.48,4.48,0,9.99,0Z"/>
  <g id="layer1">
    <g id="path2356">
      <path class="cls-3" d="M42.97,62.52c-.27,0-.49-.22-.49-.49v-15.91c0-3.19,2.6-5.79,5.79-5.79h4.7c3.18.01,5.77,2.61,5.77,5.79v3.39c0,3.19-2.6,5.79-5.79,5.79h-6.64c-.27,0-.49-.22-.49-.49s.22-.49.49-.49h6.64c2.65,0,4.81-2.16,4.81-4.81v-3.39c0-2.64-2.15-4.8-4.79-4.8h-4.7c-2.65,0-4.81,2.15-4.81,4.8v15.91c0,.27-.22.49-.49.49Z"/>
    </g>
    <g id="path2360">
      <path class="cls-3" d="M63.78,55.37c-.27,0-.49-.22-.49-.49v-11.88c0-.93-.76-1.69-1.69-1.69h-2.04c-.27,0-.49-.22-.49-.49s.22-.49.49-.49h2.04c1.47,0,2.67,1.2,2.67,2.67v11.88c0,.27-.22.49-.49.49Z"/>
    </g>
    <g id="path2364">
      <path class="cls-1" d="M63.34,38.98l-.92-.92c-.23-.23-.23-.6,0-.83l.92-.92c.23-.23.6-.23.83,0l.92.92c.23.23.23.6,0,.83l-.92.92c-.23.23-.6.23-.83,0"/>
    </g>
    <g id="path2368">
      <path class="cls-3" d="M78.31,47.63c-.55,0-1.07-.21-1.46-.6l-4.73-4.73c-.65-.65-1.51-1-2.43-1h-2.02c-.27,0-.49-.22-.49-.49s.22-.49.49-.49h2.02c1.18,0,2.29.46,3.12,1.29l4.73,4.73c.2.2.47.32.76.32s.56-.11.76-.32l4.71-4.71c.83-.83,1.94-1.29,3.12-1.29h1.64c.27,0,.49.22.49.49s-.22.49-.49.49h-1.64c-.92,0-1.78.36-2.43,1l-4.71,4.71c-.39.39-.91.6-1.46.6Z"/>
    </g>
    <g id="path2372">
      <path class="cls-3" d="M69.71,55.27h-2.02c-.27,0-.49-.22-.49-.49s.22-.49.49-.49h2.02c.92,0,1.78-.36,2.43-1l4.73-4.73c.8-.8,2.11-.8,2.91,0l4.71,4.71c.65.65,1.51,1,2.43,1h1.64c.27,0,.49.22.49.49s-.22.49-.49.49h-1.64c-1.18,0-2.29-.46-3.12-1.29l-4.71-4.71c-.42-.42-1.1-.42-1.52,0l-4.73,4.73c-.83.83-1.94,1.29-3.12,1.29Z"/>
    </g>
    <g id="path2376">
      <path class="cls-1" d="M30.92,57.8c-1.01,0-1.97-.39-2.69-1.11l-3.88-3.88c-.27-.27-.75-.27-1.02,0l-3.89,3.89c-.72.72-1.67,1.11-2.69,1.11h-.76l4.91,4.91c1.53,1.53,4.02,1.53,5.55,0l4.92-4.92h-.47Z"/>
    </g>
    <g id="path2380">
      <path class="cls-1" d="M16.76,44.08c1.01,0,1.97.39,2.69,1.11l3.89,3.89c.28.28.74.28,1.02,0l3.88-3.88c.72-.72,1.67-1.11,2.69-1.11h.47l-4.92-4.92c-1.53-1.53-4.02-1.53-5.55,0l-4.91,4.91h.76Z"/>
    </g>
    <g id="path2384">
      <path class="cls-1" d="M35.46,48.17l-2.98-2.98c-.07.03-.14.04-.21.04h-1.35c-.7,0-1.38.28-1.88.78l-3.88,3.88c-.36.36-.84.54-1.32.54s-.95-.18-1.32-.54l-3.89-3.89c-.49-.49-1.18-.78-1.88-.78h-1.66c-.07,0-.14-.02-.2-.04l-2.99,2.99c-1.53,1.53-1.53,4.02,0,5.55l2.99,2.99c.06-.02.13-.04.2-.04h1.66c.7,0,1.38-.28,1.88-.78l3.89-3.89c.7-.7,1.93-.7,2.63,0l3.88,3.88c.49.49,1.18.78,1.88.78h1.35c.07,0,.15.02.21.04l2.98-2.98c1.53-1.53,1.53-4.02,0-5.55"/>
    </g>
  </g>
</svg>