<?xml version="1.0" encoding="UTF-8"?>
<svg id="Laag_1" data-name="Laag 1" xmlns="http://www.w3.org/2000/svg" xmlns:xlink="http://www.w3.org/1999/xlink" viewBox="0 0 100 100">
  <defs>
    <style>
      .cls-1 {
        fill: none;
      }

      .cls-2 {
        fill: #811f6a;
      }

      .cls-3 {
        fill: #c40f80;
      }

      .cls-4 {
        fill: #fff;
      }

      .cls-5 {
        fill: #e94e1e;
      }

      .cls-6 {
        fill: #4c3388;
      }

      .cls-7 {
        clip-path: url(#clippath);
      }
    </style>
    <clipPath id="clippath">
      <rect class="cls-1" width="100" height="100" rx="12.52" ry="12.52"/>
    </clipPath>
  </defs>
  <rect class="cls-3" width="100" height="100" rx="12.52" ry="12.52"/>
  <g class="cls-7">
    <rect class="cls-6" x="31.03" y="7.65" width="55.63" height="36.58" rx="3.75" ry="3.75" transform="translate(8.8 -14.45) rotate(15.11)"/>
    <rect class="cls-5" x="-22.22" y="36.49" width="55.63" height="36.58" rx="3.75" ry="3.75" transform="translate(41.54 13.07) rotate(46.59)"/>
    <rect class="cls-2" x="35.42" y="69" width="55.63" height="36.58" rx="3.75" ry="3.75" transform="translate(166.3 118.83) rotate(142.94)"/>
  </g>
  <path class="cls-4" d="M52.35,33.81c3.9-.07,7.7,1.29,10.66,3.83,2.64,2.28,6.46,2.55,9.39.66l9.29-4.75c-2.3-5.27-6.35-9.58-11.47-12.21-4.06-2.2-8.51-3.61-13.09-4.14-1.62-.22-3.24-.35-4.87-.38-9.25-.01-17.96,3.73-24.3,10.15h0s-.05.06-.07.08c-.89.9-1.74,1.85-2.52,2.86-.15.2-.29.4-.44.6-.58.77-1.12,1.57-1.64,2.39-.12.2-.28.38-.4.58-6.06,10.21-6.06,22.91,0,33.12,3.01,5.02,7.25,9.18,12.33,12.08,5.18,2.97,11.06,4.51,17.03,4.47h3.22l-.02-.13c5.1-.4,10.07-1.85,14.59-4.28,5.12-2.63,9.17-6.94,11.47-12.21l-9.29-4.75c-2.92-1.83-6.68-1.54-9.29.71-.78.67-1.63,1.26-2.54,1.75-2.26,1.28-4.81,1.96-7.4,2.04v-.06h-.72c-8.76.16-15.98-6.82-16.14-15.58,0-.21,0-.41,0-.62-.08-3.77,1.17-7.25,3.3-10.03.05-.06.09-.13.14-.19.19-.24.4-.47.61-.7.16-.17.31-.35.47-.52.11-.12.24-.23.36-.34.32-.32.66-.61,1.01-.9.23-.19.47-.38.71-.55.38-.28.77-.53,1.18-.77.22-.13.45-.26.68-.38.52-.27,1.04-.52,1.59-.73.04-.02.08-.03.12-.05.67-.25,1.37-.45,2.07-.61v-.05c1.07-.26,2.19-.41,3.34-.43.22,0,.44,0,.67,0Z"/>
</svg>