<?xml version="1.0" encoding="UTF-8"?>
<svg id="Laag_1" data-name="Laag 1" xmlns="http://www.w3.org/2000/svg" viewBox="0 0 100 100">
  <defs>
    <style>
      .cls-1 {
        fill: #1d1d1b;
        fill-rule: evenodd;
      }

      .cls-2 {
        fill: #fff;
      }
    </style>
  </defs>
  <rect class="cls-2" width="100" height="100" rx="11.542" ry="11.542"/>
  <g>
    <path class="cls-1" d="M59.074,68.962c.781.319,1.54.713,2.347.946,4.718,1.338,6.989,6.792,4.37,10.657-1.302,1.918-2.97,3.487-5.137,4.353-2.035.809-4.102,1.576-6.219,2.112-3.264.829-6.584,1.45-9.879,2.14-.556.118-1.129.169-1.691.223-3.404.317-3.723-.772-4.79-3.79-.465-1.308.846-2.671,2.264-2.639,1.723.038,1.794.04,1.884-1.663.176-3.326.28-6.658.377-9.986.018-.598-.104-1.207-.219-1.798-.064-.331-.243-.643-.37-.96-.279.125-.58.222-.834.39-.896.607-1.651.538-2.164-.324-.178-.296-.242-.799-.114-1.098,1.344-3.047,2.747-6.061,4.126-9.095.588-1.294,1.656-1.707,2.981-1.66.975.037,1.551.49,1.461,1.519-.07.847-.249,1.685-.328,2.531-.209,2.303-.455,4.603-.548,6.911-.062,1.546.631,2.134,2.192,2.03,3.55-.233,6.673-1.567,9.109-4.133,2.206-2.32,2.289-5.24,1.303-8.105-.29-.84-1.257-1.597-2.099-2.066-1.737-.975-3.715-1.382-5.659-.889-3.812.977-7.573,2.141-11.356,3.222-.648.184-.939.546-1.092,1.25-.451,2.087-1.43,2.594-3.464,1.963-.193-.058-.416-.095-.566-.213-.67-.529-1.939-1.223-1.85-1.603.195-.869.889-1.985,1.667-2.301,6.083-2.507,12.186-5.133,18.949-4.865,2.153.086,4.377.546,6.379,1.315,2.401.922,3.97,2.907,4.676,5.439.422,1.519.218,2.962-.603,4.336-1.286,2.154-2.895,4.001-5.04,5.363-.025.163-.046.328-.064.49ZM49.498,85.251c3.643-.252,7.459-1.255,10.903-3.437,1.656-1.049,2.43-2.558,2.312-4.525-.121-2.067-1.351-3.263-3.17-3.892-3.929-1.356-7.913-1.867-11.918-.353-.583.218-1.315.754-1.468,1.289-.703,2.455-1.393,4.929-1.003,7.541.397,2.669,1.261,3.423,4.345,3.376Z"/>
    <path class="cls-1" d="M50.996,50.795c-4.378-.314-9.415-.943-13.824-3.824-1.1-.718-2.115-1.659-2.952-2.675-1.151-1.401-.988-3.983.119-5.09,1.171-1.17,3.867-1.265,5.337-.188,1.139.834,1.544,2.173,1.031,3.835-.227.731-.209,1.316.491,1.66,4.202,2.07,8.55,3.262,13.259,2.041.349-.088.675-.275.997-.449,4.092-2.166,4.818-5.128,2.125-8.879-1.953-2.712-4.491-4.8-7.331-6.512-2.222-1.343-4.525-2.563-6.742-3.912-1.211-.738-2.377-1.571-3.468-2.47-2.434-2.016-3.467-4.616-2.636-7.714.837-3.104,2.858-5.26,6.068-5.821,1.747-.304,3.729-.382,5.39.134,3.865,1.204,7.643,2.725,11.362,4.324,2.208.948,4.108,2.474,5.535,4.471,1.129,1.591,1.075,2.876-.131,4.182-1.208,1.313-3.099,1.689-4.544.885-1.289-.718-2.043-1.835-2.28-3.283-.084-.52-.214-1.086-.09-1.571.494-1.972-.606-2.727-2.236-3.238-2.515-.787-4.979-1.742-7.516-2.447-2.009-.557-3.966-.118-5.692,1.071-2.109,1.448-2.602,3.632-1.33,5.855,1.327,2.319,3.487,3.682,5.73,4.956,3.523,2.008,7.114,3.913,10.54,6.08,2.592,1.635,4.395,4.089,5.586,6.919,1.681,4.003.313,7.762-3.489,9.822-2.453,1.329-5.493,1.99-9.312,1.838Z"/>
  </g>
</svg>