<?xml version="1.0" encoding="UTF-8"?>
<svg id="Laag_1" data-name="Laag 1" xmlns="http://www.w3.org/2000/svg" xmlns:xlink="http://www.w3.org/1999/xlink" viewBox="0 0 100 100">
  <defs>
    <style>
      .cls-1 {
        fill: #fff48d;
      }

      .cls-2 {
        fill: url(#Naamloos_verloop);
      }

      .cls-3 {
        fill: #1d1c1c;
      }

      .cls-4 {
        fill: url(#Naamloos_verloop_2);
      }
    </style>
    <linearGradient id="Naamloos_verloop" data-name="Naamloos verloop" x1="51.9" y1="868.29" x2="42.87" y2="857.09" gradientTransform="translate(0 917.97) scale(1 -1)" gradientUnits="userSpaceOnUse">
      <stop offset=".02" stop-color="#1d1c1c" stop-opacity="0"/>
      <stop offset=".68" stop-color="#1d1c1c"/>
    </linearGradient>
    <linearGradient id="Naamloos_verloop_2" data-name="Naamloos verloop 2" x1="36.09" y1="865.77" x2="45.37" y2="875.06" gradientTransform="translate(0 917.97) scale(1 -1)" gradientUnits="userSpaceOnUse">
      <stop offset=".02" stop-color="#1d1c1c" stop-opacity="0"/>
      <stop offset=".68" stop-color="#1d1c1c"/>
    </linearGradient>
  </defs>
  <rect class="cls-1" width="100" height="100" rx="7.3" ry="7.3"/>
  <path class="cls-3" d="M73.54,50.94c0-5.38,3.88-10.29,10.57-10.29s10.6,4.91,10.6,10.29-3.88,10.29-10.6,10.29c-6.7,0-10.57-4.91-10.57-10.29ZM88.83,50.94c0-2.59-1.73-4.99-4.72-4.99s-4.72,2.4-4.72,4.99,1.76,4.99,4.72,4.99,4.72-2.4,4.72-4.99Z"/>
  <path class="cls-3" d="M69.42,54.76c2.23-1.25,3.57-3.65,3.57-6.3,0-3.93-2.87-7.28-7.34-7.28h-9.37v19.52h5.8v-4.99h1.09l3.32,4.99h6.84l-3.91-5.94ZM64.48,51.22h-2.4v-5.52h2.43c1.56,0,2.57,1.26,2.57,2.76s-1.03,2.76-2.6,2.76Z"/>
  <path class="cls-3" d="M29.79,41.16l-3.48,11.63-3.4-11.63h-4.62l-3.43,11.63-3.45-11.63h-6.13l7.02,19.48h5.04l3.26-10.6,3.23,10.6h5.07l7.02-19.48h-6.13Z"/>
  <path class="cls-3" d="M44.7,55.88h-.01c-2.17,0-3.69-1.29-4.35-3.01h14.75c.12-.64.18-1.31.18-1.97,0-5.37-3.87-10.26-10.57-10.27v5.29c2.18,0,3.69,1.3,4.34,3.01h-14.73c-.12.64-.18,1.3-.18,1.97,0,5.37,3.87,10.27,10.55,10.27h.01v-5.29Z"/>
  <path class="cls-2" d="M44.68,61.17c.23,0,.45,0,.67-.02,1.36-.07,2.59-.34,3.69-.78s2.06-1.05,2.88-1.78c.82-.73,1.5-1.59,2.02-2.53.48-.86.83-1.79,1.05-2.76h-6.15c-.13.26-.27.51-.44.74-.23.32-.5.6-.8.85s-.65.46-1.02.62-.79.28-1.23.33c-.22.03-.44.04-.67.04-1.38,0-2.5-.53-3.3-1.35l-4,3.99c1.78,1.62,4.24,2.64,7.29,2.64Z"/>
  <path class="cls-4" d="M44.68,40.63c-5.67,0-9.31,3.52-10.29,7.87h6.13c.73-1.5,2.18-2.58,4.16-2.58,1.58,0,2.81.68,3.62,1.7l4.03-4.03c-1.8-1.8-4.39-2.96-7.65-2.96Z"/>
</svg>